<?xml version="1.0" encoding="UTF-8" standalone="no"?>
<!DOCTYPE svg PUBLIC "-//W3C//DTD SVG 1.1//EN"
 "http://www.w3.org/Graphics/SVG/1.1/DTD/svg11.dtd">
<!-- Generated by graphviz version 8.0.3 (20230416.2022)
 -->
<!-- Pages: 1 -->
<svg width="103pt" height="417pt"
 viewBox="0.00 0.00 103.41 416.81" xmlns="http://www.w3.org/2000/svg" xmlns:xlink="http://www.w3.org/1999/xlink">
<g id="graph0" class="graph" transform="scale(1 1) rotate(0) translate(4 412.81)">
<polygon fill="white" stroke="none" points="-4,4 -4,-412.81 99.41,-412.81 99.41,4 -4,4"/>
<!-- &#45;6968050114622540068 -->
<g id="node1" class="node">
<title>&#45;6968050114622540068</title>
<polygon fill="none" stroke="black" points="87.5,-323.81 30.5,-323.81 30.5,-287.81 87.5,-287.81 87.5,-323.81"/>
<text text-anchor="middle" x="59" y="-302.71" font-family="Times New Roman,serif" font-size="12.00">copyCell</text>
</g>
<!-- &#45;9028611191506250526 -->
<g id="node4" class="node">
<title>&#45;9028611191506250526</title>
<polygon fill="none" stroke="black" points="54,-238.81 0,-238.81 0,-202.81 54,-202.81 54,-238.81"/>
<text text-anchor="middle" x="27" y="-217.71" font-family="Times New Roman,serif" font-size="12.00">paste</text>
</g>
<!-- &#45;6968050114622540068&#45;&gt;&#45;9028611191506250526 -->
<g id="edge1" class="edge">
<title>&#45;6968050114622540068&#45;&gt;&#45;9028611191506250526</title>
<path fill="none" stroke="black" stroke-width="2.2" d="M52.37,-287.61C48.32,-277.11 43.04,-263.4 38.34,-251.22"/>
<polygon fill="black" stroke="black" stroke-width="2.2" points="41.6,-250.34 34.73,-242.27 35.06,-252.86 41.6,-250.34"/>
<text text-anchor="middle" x="50.5" y="-260.21" font-family="Times New Roman,serif" font-size="12.00">4s</text>
</g>
<!-- &#45;802417557823507361 -->
<g id="node2" class="node">
<title>&#45;802417557823507361</title>
<polygon fill="none" stroke="black" points="89,-153.81 33,-153.81 33,-117.81 89,-117.81 89,-153.81"/>
<text text-anchor="middle" x="61" y="-132.71" font-family="Times New Roman,serif" font-size="12.00">editField</text>
</g>
<!-- &#45;802417557823507361&#45;&gt;&#45;6968050114622540068 -->
<g id="edge2" class="edge">
<title>&#45;802417557823507361&#45;&gt;&#45;6968050114622540068</title>
<path fill="none" stroke="black" stroke-width="1.8" d="M61.87,-154.14C62.76,-174.44 63.9,-209.07 63,-238.81 62.63,-250.95 61.89,-264.32 61.14,-275.83"/>
<polygon fill="black" stroke="black" stroke-width="1.8" points="57.53,-275.24 60.34,-285.45 64.52,-275.72 57.53,-275.24"/>
<text text-anchor="middle" x="68.5" y="-217.71" font-family="Times New Roman,serif" font-size="12.00">3s</text>
</g>
<!-- &#45;802417557823507361&#45;&gt;&#45;9028611191506250526 -->
<g id="edge3" class="edge">
<title>&#45;802417557823507361&#45;&gt;&#45;9028611191506250526</title>
<path fill="none" stroke="black" d="M53.85,-154.27C49.3,-165.38 43.31,-180 38.14,-192.61"/>
<polygon fill="black" stroke="black" points="34.6,-191.03 34.04,-201.61 41.07,-193.69 34.6,-191.03"/>
<text text-anchor="middle" x="52.5" y="-175.21" font-family="Times New Roman,serif" font-size="12.00">1s</text>
</g>
<!-- @@endnode -->
<g id="node5" class="node">
<title>@@endnode</title>
<ellipse fill="none" stroke="black" cx="61" cy="-34.41" rx="30.32" ry="30.32"/>
<ellipse fill="none" stroke="black" cx="61" cy="-34.41" rx="34.31" ry="34.31"/>
<text text-anchor="start" x="51" y="-26.31" font-family="Times New Roman,serif" font-size="32.00">■</text>
</g>
<!-- &#45;802417557823507361&#45;&gt;@@endnode -->
<g id="edge6" class="edge">
<title>&#45;802417557823507361&#45;&gt;@@endnode</title>
<path fill="none" stroke="black" d="M61,-117.5C61,-107.07 61,-93.27 61,-79.96"/>
<polygon fill="black" stroke="black" points="64.5,-79.99 61,-69.99 57.5,-79.99 64.5,-79.99"/>
<text text-anchor="middle" x="64.5" y="-90.21" font-family="Times New Roman,serif" font-size="12.00">1</text>
</g>
<!-- &#45;1527059423402642781 -->
<g id="node3" class="node">
<title>&#45;1527059423402642781</title>
<polygon fill="none" stroke="black" points="93,-408.81 25,-408.81 25,-372.81 93,-372.81 93,-408.81"/>
<text text-anchor="middle" x="59" y="-387.71" font-family="Times New Roman,serif" font-size="12.00">navigate_to</text>
</g>
<!-- &#45;1527059423402642781&#45;&gt;&#45;6968050114622540068 -->
<g id="edge4" class="edge">
<title>&#45;1527059423402642781&#45;&gt;&#45;6968050114622540068</title>
<path fill="none" stroke="black" d="M59,-372.61C59,-361.78 59,-347.54 59,-335.07"/>
<polygon fill="black" stroke="black" points="62.5,-335.27 59,-325.27 55.5,-335.27 62.5,-335.27"/>
<text text-anchor="middle" x="64.5" y="-345.21" font-family="Times New Roman,serif" font-size="12.00">1s</text>
</g>
<!-- &#45;9028611191506250526&#45;&gt;&#45;802417557823507361 -->
<g id="edge5" class="edge">
<title>&#45;9028611191506250526&#45;&gt;&#45;802417557823507361</title>
<path fill="none" stroke="black" stroke-width="2.6" d="M23.9,-202.32C22.99,-192.95 23.11,-181.39 27,-171.81 28.09,-169.13 29.49,-166.55 31.1,-164.07"/>
<polygon fill="black" stroke="black" stroke-width="2.6" points="33.64,-167.03 37.2,-157.05 28.2,-162.63 33.64,-167.03"/>
<text text-anchor="middle" x="32.5" y="-175.21" font-family="Times New Roman,serif" font-size="12.00">5s</text>
</g>
</g>
</svg>
