<?xml version="1.0" encoding="UTF-8" standalone="no"?>
<!DOCTYPE svg PUBLIC "-//W3C//DTD SVG 1.1//EN"
 "http://www.w3.org/Graphics/SVG/1.1/DTD/svg11.dtd">
<!-- Generated by graphviz version 7.1.0 (20230121.1956)
 -->
<!-- Pages: 1 -->
<svg width="1481pt" height="1012pt"
 viewBox="0.00 0.00 1481.00 1011.81" xmlns="http://www.w3.org/2000/svg" xmlns:xlink="http://www.w3.org/1999/xlink">
<g id="graph0" class="graph" transform="scale(1 1) rotate(0) translate(4 1007.81)">
<polygon fill="white" stroke="none" points="-4,4 -4,-1007.81 1477,-1007.81 1477,4 -4,4"/>
<!-- &#45;8421013627638508074 -->
<g id="node1" class="node">
<title>&#45;8421013627638508074</title>
<polygon fill="none" stroke="black" points="104,-1003.81 0,-1003.81 0,-967.81 104,-967.81 104,-1003.81"/>
<text text-anchor="middle" x="52" y="-982.71" font-family="Times New Roman,serif" font-size="12.00">clickButton[button]</text>
</g>
<!-- &#45;2342417462293921512 -->
<g id="node32" class="node">
<title>&#45;2342417462293921512</title>
<polygon fill="none" stroke="black" points="890,-918.81 798,-918.81 798,-882.81 890,-882.81 890,-918.81"/>
<text text-anchor="middle" x="844" y="-897.71" font-family="Times New Roman,serif" font-size="12.00">selectWorksheet</text>
</g>
<!-- &#45;8421013627638508074&#45;&gt;&#45;2342417462293921512 -->
<g id="edge1" class="edge">
<title>&#45;8421013627638508074&#45;&gt;&#45;2342417462293921512</title>
<path fill="none" stroke="black" stroke-width="1.17" d="M104.36,-983.89C224.03,-980.99 526.62,-969.08 786.12,-919.14"/>
<polygon fill="black" stroke="black" stroke-width="1.17" points="786.79,-922.57 795.93,-917.22 785.45,-915.7 786.79,-922.57"/>
<text text-anchor="middle" x="678.5" y="-940.21" font-family="Times New Roman,serif" font-size="12.00">11s</text>
</g>
<!-- 8659733819878033834 -->
<g id="node2" class="node">
<title>8659733819878033834</title>
<polygon fill="none" stroke="black" points="1424,-222.41 1320,-222.41 1320,-186.41 1424,-186.41 1424,-222.41"/>
<text text-anchor="middle" x="1372" y="-201.31" font-family="Times New Roman,serif" font-size="12.00">clickButton[submit]</text>
</g>
<!-- 1054217341451333691 -->
<g id="node3" class="node">
<title>1054217341451333691</title>
<polygon fill="none" stroke="black" points="1421,-121 1363,-121 1363,-85 1421,-85 1421,-121"/>
<text text-anchor="middle" x="1392" y="-99.9" font-family="Times New Roman,serif" font-size="12.00">clickLink</text>
</g>
<!-- 8659733819878033834&#45;&gt;1054217341451333691 -->
<g id="edge2" class="edge">
<title>8659733819878033834&#45;&gt;1054217341451333691</title>
<path fill="none" stroke="black" stroke-width="1.15" d="M1375.48,-186.09C1378.43,-171.43 1382.72,-150.1 1386.19,-132.86"/>
<polygon fill="black" stroke="black" stroke-width="1.15" points="1389.6,-133.65 1388.15,-123.16 1382.74,-132.27 1389.6,-133.65"/>
<text text-anchor="middle" x="1392.5" y="-142.4" font-family="Times New Roman,serif" font-size="12.00">10s</text>
</g>
<!-- &#45;6686815318746011082 -->
<g id="node6" class="node">
<title>&#45;6686815318746011082</title>
<polygon fill="none" stroke="black" points="1470.5,-36 1385.5,-36 1385.5,0 1470.5,0 1470.5,-36"/>
<text text-anchor="middle" x="1428" y="-14.9" font-family="Times New Roman,serif" font-size="12.00">createNewTab</text>
</g>
<!-- 1054217341451333691&#45;&gt;&#45;6686815318746011082 -->
<g id="edge3" class="edge">
<title>1054217341451333691&#45;&gt;&#45;6686815318746011082</title>
<path fill="none" stroke="black" stroke-width="1.15" d="M1399.46,-84.8C1404.21,-73.86 1410.46,-59.43 1415.91,-46.88"/>
<polygon fill="black" stroke="black" stroke-width="1.15" points="1418.97,-48.62 1419.73,-38.06 1412.54,-45.84 1418.97,-48.62"/>
<text text-anchor="middle" x="1420.5" y="-57.4" font-family="Times New Roman,serif" font-size="12.00">10s</text>
</g>
<!-- &#45;349242997702854405 -->
<g id="node4" class="node">
<title>&#45;349242997702854405</title>
<polygon fill="none" stroke="black" points="872.5,-833.81 815.5,-833.81 815.5,-797.81 872.5,-797.81 872.5,-833.81"/>
<text text-anchor="middle" x="844" y="-812.71" font-family="Times New Roman,serif" font-size="12.00">copyCell</text>
</g>
<!-- 3670417997280707311 -->
<g id="node18" class="node">
<title>3670417997280707311</title>
<polygon fill="none" stroke="black" points="697,-493.81 643,-493.81 643,-457.81 697,-457.81 697,-493.81"/>
<text text-anchor="middle" x="670" y="-472.71" font-family="Times New Roman,serif" font-size="12.00">getCell</text>
</g>
<!-- &#45;349242997702854405&#45;&gt;3670417997280707311 -->
<g id="edge4" class="edge">
<title>&#45;349242997702854405&#45;&gt;3670417997280707311</title>
<path fill="none" stroke="black" d="M848.38,-797.56C852.86,-777.05 858.23,-741.92 851,-712.81 828.3,-621.43 746.11,-540.5 700.69,-501.49"/>
<polygon fill="black" stroke="black" points="703.18,-499.01 693.28,-495.23 698.67,-504.36 703.18,-499.01"/>
<text text-anchor="middle" x="837.5" y="-642.71" font-family="Times New Roman,serif" font-size="12.00">1s</text>
</g>
<!-- 4744432682323570212 -->
<g id="node21" class="node">
<title>4744432682323570212</title>
<polygon fill="none" stroke="black" points="241,-748.81 119,-748.81 119,-712.81 241,-712.81 241,-748.81"/>
<text text-anchor="middle" x="180" y="-727.71" font-family="Times New Roman,serif" font-size="12.00">paste[q10_bankName]</text>
</g>
<!-- &#45;349242997702854405&#45;&gt;4744432682323570212 -->
<g id="edge5" class="edge">
<title>&#45;349242997702854405&#45;&gt;4744432682323570212</title>
<path fill="none" stroke="black" stroke-width="1.17" d="M815.08,-815.26C710.51,-816.53 352.61,-817.96 246,-779.81 231.83,-774.74 218.05,-765.61 206.78,-756.66"/>
<polygon fill="black" stroke="black" stroke-width="1.17" points="209.22,-754.14 199.31,-750.42 204.74,-759.52 209.22,-754.14"/>
<text text-anchor="middle" x="254.5" y="-770.21" font-family="Times New Roman,serif" font-size="12.00">11s</text>
</g>
<!-- 4604581665166516345 -->
<g id="node22" class="node">
<title>4604581665166516345</title>
<polygon fill="none" stroke="black" points="1427.5,-748.81 1282.5,-748.81 1282.5,-712.81 1427.5,-712.81 1427.5,-748.81"/>
<text text-anchor="middle" x="1355" y="-727.71" font-family="Times New Roman,serif" font-size="12.00">paste[q11_accountNumber]</text>
</g>
<!-- &#45;349242997702854405&#45;&gt;4604581665166516345 -->
<g id="edge6" class="edge">
<title>&#45;349242997702854405&#45;&gt;4604581665166516345</title>
<path fill="none" stroke="black" stroke-width="1.17" d="M872.89,-813.98C955.72,-811.34 1192.88,-802.01 1267,-779.81 1285.6,-774.24 1304.7,-764.41 1320.33,-755.09"/>
<polygon fill="black" stroke="black" stroke-width="1.17" points="1321.89,-758.24 1328.56,-750.02 1318.21,-752.29 1321.89,-758.24"/>
<text text-anchor="middle" x="1305.5" y="-770.21" font-family="Times New Roman,serif" font-size="12.00">11s</text>
</g>
<!-- 1955449513403805491 -->
<g id="node23" class="node">
<title>1955449513403805491</title>
<polygon fill="none" stroke="black" points="1387,-408.81 1197,-408.81 1197,-372.81 1387,-372.81 1387,-408.81"/>
<text text-anchor="middle" x="1292" y="-387.71" font-family="Times New Roman,serif" font-size="12.00">paste[q12_reimbursementDetails[0][]]</text>
</g>
<!-- &#45;349242997702854405&#45;&gt;1955449513403805491 -->
<g id="edge7" class="edge">
<title>&#45;349242997702854405&#45;&gt;1955449513403805491</title>
<path fill="none" stroke="black" stroke-width="1.3" d="M872.8,-813.67C950.38,-810.35 1159.47,-799.63 1183,-779.81 1183.45,-779.44 1258.76,-510.52 1283.92,-420.66"/>
<polygon fill="black" stroke="black" stroke-width="1.3" points="1287.27,-421.69 1286.6,-411.11 1280.53,-419.8 1287.27,-421.69"/>
<text text-anchor="middle" x="1241.5" y="-600.21" font-family="Times New Roman,serif" font-size="12.00">19s</text>
</g>
<!-- &#45;802786066028636207 -->
<g id="node24" class="node">
<title>&#45;802786066028636207</title>
<polygon fill="none" stroke="black" points="1012,-748.81 898,-748.81 898,-712.81 1012,-712.81 1012,-748.81"/>
<text text-anchor="middle" x="955" y="-727.71" font-family="Times New Roman,serif" font-size="12.00">paste[q3_name[first]]</text>
</g>
<!-- &#45;349242997702854405&#45;&gt;&#45;802786066028636207 -->
<g id="edge8" class="edge">
<title>&#45;349242997702854405&#45;&gt;&#45;802786066028636207</title>
<path fill="none" stroke="black" stroke-width="1.17" d="M867.27,-797.41C883.25,-785.46 904.7,-769.43 922.38,-756.2"/>
<polygon fill="black" stroke="black" stroke-width="1.17" points="924.43,-759.04 930.35,-750.25 920.24,-753.43 924.43,-759.04"/>
<text text-anchor="middle" x="914.5" y="-770.21" font-family="Times New Roman,serif" font-size="12.00">11s</text>
</g>
<!-- 5504490665134479466 -->
<g id="node26" class="node">
<title>5504490665134479466</title>
<polygon fill="none" stroke="black" points="841.5,-748.81 752.5,-748.81 752.5,-712.81 841.5,-712.81 841.5,-748.81"/>
<text text-anchor="middle" x="797" y="-727.71" font-family="Times New Roman,serif" font-size="12.00">paste[q4_email]</text>
</g>
<!-- &#45;349242997702854405&#45;&gt;5504490665134479466 -->
<g id="edge9" class="edge">
<title>&#45;349242997702854405&#45;&gt;5504490665134479466</title>
<path fill="none" stroke="black" stroke-width="1.17" d="M834.26,-797.61C828,-786.56 819.73,-771.95 812.57,-759.31"/>
<polygon fill="black" stroke="black" stroke-width="1.17" points="815.73,-757.79 807.76,-750.81 809.64,-761.24 815.73,-757.79"/>
<text text-anchor="middle" x="831.5" y="-770.21" font-family="Times New Roman,serif" font-size="12.00">11s</text>
</g>
<!-- 4004908014844761737 -->
<g id="node28" class="node">
<title>4004908014844761737</title>
<polygon fill="none" stroke="black" points="634,-748.81 526,-748.81 526,-712.81 634,-712.81 634,-748.81"/>
<text text-anchor="middle" x="580" y="-727.71" font-family="Times New Roman,serif" font-size="12.00">paste[q6_studentId]</text>
</g>
<!-- &#45;349242997702854405&#45;&gt;4004908014844761737 -->
<g id="edge10" class="edge">
<title>&#45;349242997702854405&#45;&gt;4004908014844761737</title>
<path fill="none" stroke="black" stroke-width="1.17" d="M815.15,-814.45C774.2,-812.95 697.69,-806.44 639,-779.81 626.66,-774.21 614.74,-765.39 604.88,-756.83"/>
<polygon fill="black" stroke="black" stroke-width="1.17" points="607.5,-754.49 597.75,-750.33 602.78,-759.66 607.5,-754.49"/>
<text text-anchor="middle" x="647.5" y="-770.21" font-family="Times New Roman,serif" font-size="12.00">11s</text>
</g>
<!-- 2070911815398967774 -->
<g id="node29" class="node">
<title>2070911815398967774</title>
<polygon fill="none" stroke="black" points="470,-748.81 312,-748.81 312,-712.81 470,-712.81 470,-748.81"/>
<text text-anchor="middle" x="391" y="-727.71" font-family="Times New Roman,serif" font-size="12.00">paste[q7_phoneNumber[area]]</text>
</g>
<!-- &#45;349242997702854405&#45;&gt;2070911815398967774 -->
<g id="edge11" class="edge">
<title>&#45;349242997702854405&#45;&gt;2070911815398967774</title>
<path fill="none" stroke="black" stroke-width="1.17" d="M815.21,-813.87C738.65,-811.11 531.49,-801.75 467,-779.81 451.11,-774.4 435.15,-765.06 421.99,-756.05"/>
<polygon fill="black" stroke="black" stroke-width="1.17" points="424.13,-753.28 413.96,-750.32 420.06,-758.98 424.13,-753.28"/>
<text text-anchor="middle" x="475.5" y="-770.21" font-family="Times New Roman,serif" font-size="12.00">11s</text>
</g>
<!-- 5144228901829614650 -->
<g id="node31" class="node">
<title>5144228901829614650</title>
<polygon fill="none" stroke="black" points="1087.5,-408.81 954.5,-408.81 954.5,-372.81 1087.5,-372.81 1087.5,-408.81"/>
<text text-anchor="middle" x="1021" y="-387.71" font-family="Times New Roman,serif" font-size="12.00">paste[q9_accountHolder]</text>
</g>
<!-- &#45;349242997702854405&#45;&gt;5144228901829614650 -->
<g id="edge12" class="edge">
<title>&#45;349242997702854405&#45;&gt;5144228901829614650</title>
<path fill="none" stroke="black" stroke-width="1.15" d="M872.78,-813.81C907.35,-811.52 966.17,-804.03 1010,-779.81 1026.78,-770.54 1031.38,-765.94 1040,-748.81 1095.69,-638.12 1052.97,-482.97 1031.46,-420.01"/>
<polygon fill="black" stroke="black" stroke-width="1.15" points="1034.79,-418.94 1028.17,-410.67 1028.19,-421.26 1034.79,-418.94"/>
<text text-anchor="middle" x="1075.5" y="-600.21" font-family="Times New Roman,serif" font-size="12.00">10s</text>
</g>
<!-- &#45;2337737116181962960 -->
<g id="node5" class="node">
<title>&#45;2337737116181962960</title>
<polygon fill="none" stroke="black" points="606,-408.81 538,-408.81 538,-372.81 606,-372.81 606,-408.81"/>
<text text-anchor="middle" x="572" y="-387.71" font-family="Times New Roman,serif" font-size="12.00">copyRange</text>
</g>
<!-- &#45;7686844205181626037 -->
<g id="node27" class="node">
<title>&#45;7686844205181626037</title>
<polygon fill="none" stroke="black" points="683.5,-323.81 526.5,-323.81 526.5,-287.81 683.5,-287.81 683.5,-323.81"/>
<text text-anchor="middle" x="605" y="-302.71" font-family="Times New Roman,serif" font-size="12.00">paste[q5_address[addr_line1]]</text>
</g>
<!-- &#45;2337737116181962960&#45;&gt;&#45;7686844205181626037 -->
<g id="edge13" class="edge">
<title>&#45;2337737116181962960&#45;&gt;&#45;7686844205181626037</title>
<path fill="none" stroke="black" stroke-width="1.17" d="M578.84,-372.61C583.14,-361.78 588.81,-347.54 593.76,-335.07"/>
<polygon fill="black" stroke="black" stroke-width="1.17" points="596.96,-336.5 597.41,-325.91 590.46,-333.91 596.96,-336.5"/>
<text text-anchor="middle" x="599.5" y="-345.21" font-family="Times New Roman,serif" font-size="12.00">11s</text>
</g>
<!-- &#45;6686815318746011082&#45;&gt;&#45;2342417462293921512 -->
<g id="edge14" class="edge">
<title>&#45;6686815318746011082&#45;&gt;&#45;2342417462293921512</title>
<path fill="none" stroke="black" stroke-width="1.15" d="M1437.48,-36.24C1445.6,-52.64 1456,-78.28 1456,-102 1456,-816.81 1456,-816.81 1456,-816.81 1456,-872.42 1054.04,-892.41 901.64,-897.99"/>
<polygon fill="black" stroke="black" stroke-width="1.15" points="901.86,-894.48 891.99,-898.33 902.11,-901.47 901.86,-894.48"/>
<text text-anchor="middle" x="1464.5" y="-472.71" font-family="Times New Roman,serif" font-size="12.00">10s</text>
</g>
<!-- &#45;3417061393049347223 -->
<g id="node7" class="node">
<title>&#45;3417061393049347223</title>
<polygon fill="none" stroke="black" points="273.5,-663.81 136.5,-663.81 136.5,-627.81 273.5,-627.81 273.5,-663.81"/>
<text text-anchor="middle" x="205" y="-642.71" font-family="Times New Roman,serif" font-size="12.00">editField[q10_bankName]</text>
</g>
<!-- &#45;3417061393049347223&#45;&gt;&#45;349242997702854405 -->
<g id="edge15" class="edge">
<title>&#45;3417061393049347223&#45;&gt;&#45;349242997702854405</title>
<path fill="none" stroke="black" stroke-width="1.17" d="M216.41,-663.89C234.19,-689.99 268.28,-737.92 286,-748.81 372.9,-802.22 690.2,-812.41 803.47,-814.36"/>
<polygon fill="black" stroke="black" stroke-width="1.17" points="803.2,-817.85 813.26,-814.51 803.31,-810.85 803.2,-817.85"/>
<text text-anchor="middle" x="294.5" y="-727.71" font-family="Times New Roman,serif" font-size="12.00">11s</text>
</g>
<!-- &#45;4003299731570885441 -->
<g id="node8" class="node">
<title>&#45;4003299731570885441</title>
<polygon fill="none" stroke="black" points="1395,-663.81 1235,-663.81 1235,-627.81 1395,-627.81 1395,-663.81"/>
<text text-anchor="middle" x="1315" y="-642.71" font-family="Times New Roman,serif" font-size="12.00">editField[q11_accountNumber]</text>
</g>
<!-- &#45;4003299731570885441&#45;&gt;&#45;349242997702854405 -->
<g id="edge16" class="edge">
<title>&#45;4003299731570885441&#45;&gt;&#45;349242997702854405</title>
<path fill="none" stroke="black" stroke-width="1.13" d="M1300.57,-664.07C1289.83,-677.16 1275.01,-695.76 1263,-712.81 1242.76,-741.54 1250.93,-761.39 1221,-779.81 1165.52,-813.96 969.94,-816.21 884.47,-815.49"/>
<polygon fill="black" stroke="black" stroke-width="1.13" points="884.68,-811.99 874.65,-815.38 884.61,-818.99 884.68,-811.99"/>
<text text-anchor="middle" x="1268.5" y="-727.71" font-family="Times New Roman,serif" font-size="12.00">9s</text>
</g>
<!-- &#45;4003299731570885441&#45;&gt;1955449513403805491 -->
<g id="edge17" class="edge">
<title>&#45;4003299731570885441&#45;&gt;1955449513403805491</title>
<path fill="none" stroke="black" stroke-width="1.02" d="M1313.42,-627.42C1309.51,-584.44 1299.37,-472.87 1294.58,-420.17"/>
<polygon fill="black" stroke="black" stroke-width="1.02" points="1298.09,-420.16 1293.7,-410.52 1291.12,-420.8 1298.09,-420.16"/>
<text text-anchor="middle" x="1309.5" y="-515.21" font-family="Times New Roman,serif" font-size="12.00">2s</text>
</g>
<!-- &#45;3774925265531423684 -->
<g id="node9" class="node">
<title>&#45;3774925265531423684</title>
<polygon fill="none" stroke="black" points="1361.5,-323.81 1156.5,-323.81 1156.5,-287.81 1361.5,-287.81 1361.5,-323.81"/>
<text text-anchor="middle" x="1259" y="-302.71" font-family="Times New Roman,serif" font-size="12.00">editField[q12_reimbursementDetails[0][]]</text>
</g>
<!-- &#45;3774925265531423684&#45;&gt;8659733819878033834 -->
<g id="edge18" class="edge">
<title>&#45;3774925265531423684&#45;&gt;8659733819878033834</title>
<path fill="none" stroke="black" stroke-width="1.15" d="M1278.68,-287.5C1296.56,-271.77 1323.14,-248.38 1343.37,-230.59"/>
<polygon fill="black" stroke="black" stroke-width="1.15" points="1345.66,-233.24 1350.86,-224.01 1341.04,-227.98 1345.66,-233.24"/>
<text text-anchor="middle" x="1320.5" y="-260.21" font-family="Times New Roman,serif" font-size="12.00">10s</text>
</g>
<!-- &#45;3774925265531423684&#45;&gt;&#45;349242997702854405 -->
<g id="edge19" class="edge">
<title>&#45;3774925265531423684&#45;&gt;&#45;349242997702854405</title>
<path fill="none" stroke="black" stroke-width="1.17" d="M1220.31,-324.16C1195.92,-338.02 1169,-360.05 1169,-389.81 1169,-731.81 1169,-731.81 1169,-731.81 1169,-789.93 971.41,-807.88 884.36,-812.96"/>
<polygon fill="black" stroke="black" stroke-width="1.17" points="884.4,-809.46 874.6,-813.5 884.78,-816.45 884.4,-809.46"/>
<text text-anchor="middle" x="1177.5" y="-557.71" font-family="Times New Roman,serif" font-size="12.00">11s</text>
</g>
<!-- &#45;3774925265531423684&#45;&gt;1955449513403805491 -->
<g id="edge20" class="edge">
<title>&#45;3774925265531423684&#45;&gt;1955449513403805491</title>
<path fill="none" stroke="black" stroke-width="2.23" d="M1265.99,-324.25C1268.23,-329.86 1270.73,-336.1 1273,-341.81 1275.4,-347.84 1277.96,-354.3 1280.41,-360.47"/>
<polygon fill="black" stroke="black" stroke-width="2.23" points="1276.98,-361.32 1283.91,-369.33 1283.49,-358.75 1276.98,-361.32"/>
<text text-anchor="middle" x="1284.5" y="-345.21" font-family="Times New Roman,serif" font-size="12.00">1m</text>
</g>
<!-- @@endnode -->
<g id="node33" class="node">
<title>@@endnode</title>
<ellipse fill="none" stroke="black" cx="1259" cy="-204.41" rx="30.32" ry="30.32"/>
<ellipse fill="none" stroke="black" cx="1259" cy="-204.41" rx="34.31" ry="34.31"/>
<text text-anchor="start" x="1249" y="-196.31" font-family="Times New Roman,serif" font-size="32.00">■</text>
</g>
<!-- &#45;3774925265531423684&#45;&gt;@@endnode -->
<g id="edge53" class="edge">
<title>&#45;3774925265531423684&#45;&gt;@@endnode</title>
<path fill="none" stroke="black" d="M1259,-287.5C1259,-277.17 1259,-263.54 1259,-250.36"/>
<polygon fill="black" stroke="black" points="1262.5,-250.5 1259,-240.5 1255.5,-250.5 1262.5,-250.5"/>
<text text-anchor="middle" x="1262.5" y="-260.21" font-family="Times New Roman,serif" font-size="12.00">1</text>
</g>
<!-- 5148547196844223595 -->
<g id="node10" class="node">
<title>5148547196844223595</title>
<polygon fill="none" stroke="black" points="996.5,-663.81 867.5,-663.81 867.5,-627.81 996.5,-627.81 996.5,-663.81"/>
<text text-anchor="middle" x="932" y="-642.71" font-family="Times New Roman,serif" font-size="12.00">editField[q3_name[first]]</text>
</g>
<!-- &#45;4040636298552314058 -->
<g id="node25" class="node">
<title>&#45;4040636298552314058</title>
<polygon fill="none" stroke="black" points="999.5,-578.81 886.5,-578.81 886.5,-542.81 999.5,-542.81 999.5,-578.81"/>
<text text-anchor="middle" x="943" y="-557.71" font-family="Times New Roman,serif" font-size="12.00">paste[q3_name[last]]</text>
</g>
<!-- 5148547196844223595&#45;&gt;&#45;4040636298552314058 -->
<g id="edge21" class="edge">
<title>5148547196844223595&#45;&gt;&#45;4040636298552314058</title>
<path fill="none" stroke="black" stroke-width="1.17" d="M934.28,-627.61C935.69,-617 937.53,-603.12 939.15,-590.84"/>
<polygon fill="black" stroke="black" stroke-width="1.17" points="942.61,-591.4 940.45,-581.02 935.67,-590.48 942.61,-591.4"/>
<text text-anchor="middle" x="946.5" y="-600.21" font-family="Times New Roman,serif" font-size="12.00">11s</text>
</g>
<!-- 3768362607462934485 -->
<g id="node11" class="node">
<title>3768362607462934485</title>
<polygon fill="none" stroke="black" points="1019,-493.81 891,-493.81 891,-457.81 1019,-457.81 1019,-493.81"/>
<text text-anchor="middle" x="955" y="-472.71" font-family="Times New Roman,serif" font-size="12.00">editField[q3_name[last]]</text>
</g>
<!-- 3768362607462934485&#45;&gt;&#45;349242997702854405 -->
<g id="edge22" class="edge">
<title>3768362607462934485&#45;&gt;&#45;349242997702854405</title>
<path fill="none" stroke="black" stroke-width="1.17" d="M974.3,-494.12C986.57,-506.38 1001.51,-523.96 1009,-542.81 1049.24,-644.11 1031.31,-733.96 1021,-748.81 990.37,-792.92 926.53,-807.6 884.48,-812.46"/>
<polygon fill="black" stroke="black" stroke-width="1.17" points="884.34,-808.96 874.73,-813.43 885.03,-815.92 884.34,-808.96"/>
<text text-anchor="middle" x="1041.5" y="-642.71" font-family="Times New Roman,serif" font-size="12.00">11s</text>
</g>
<!-- &#45;6653035453324865092 -->
<g id="node12" class="node">
<title>&#45;6653035453324865092</title>
<polygon fill="none" stroke="black" points="797,-663.81 693,-663.81 693,-627.81 797,-627.81 797,-663.81"/>
<text text-anchor="middle" x="745" y="-642.71" font-family="Times New Roman,serif" font-size="12.00">editField[q4_email]</text>
</g>
<!-- &#45;6653035453324865092&#45;&gt;&#45;349242997702854405 -->
<g id="edge23" class="edge">
<title>&#45;6653035453324865092&#45;&gt;&#45;349242997702854405</title>
<path fill="none" stroke="black" stroke-width="1.17" d="M734.95,-664.29C724.13,-685.66 710.42,-722.24 726,-748.81 742.8,-777.46 777.08,-794.6 804.39,-804.21"/>
<polygon fill="black" stroke="black" stroke-width="1.17" points="802.94,-807.42 813.53,-807.21 805.12,-800.77 802.94,-807.42"/>
<text text-anchor="middle" x="734.5" y="-727.71" font-family="Times New Roman,serif" font-size="12.00">11s</text>
</g>
<!-- 6507740163502519239 -->
<g id="node13" class="node">
<title>6507740163502519239</title>
<polygon fill="none" stroke="black" points="584,-222.41 412,-222.41 412,-186.41 584,-186.41 584,-222.41"/>
<text text-anchor="middle" x="498" y="-201.31" font-family="Times New Roman,serif" font-size="12.00">editField[q5_address[addr_line1]]</text>
</g>
<!-- 6507740163502519239&#45;&gt;&#45;8421013627638508074 -->
<g id="edge24" class="edge">
<title>6507740163502519239&#45;&gt;&#45;8421013627638508074</title>
<path fill="none" stroke="black" stroke-width="1.03" d="M411.74,-205.39C270.63,-207.72 6,-223.01 6,-304.81 6,-901.81 6,-901.81 6,-901.81 6,-922.69 17.27,-943.23 28.65,-958.65"/>
<polygon fill="black" stroke="black" stroke-width="1.03" points="25.75,-960.63 34.69,-966.33 31.25,-956.3 25.75,-960.63"/>
<text text-anchor="middle" x="11.5" y="-600.21" font-family="Times New Roman,serif" font-size="12.00">3s</text>
</g>
<!-- 6507740163502519239&#45;&gt;&#45;349242997702854405 -->
<g id="edge25" class="edge">
<title>6507740163502519239&#45;&gt;&#45;349242997702854405</title>
<path fill="none" stroke="black" stroke-width="1.12" d="M498,-222.65C498,-242.47 498,-275.99 498,-304.81 498,-731.81 498,-731.81 498,-731.81 498,-794.03 712.27,-809.73 803.57,-813.59"/>
<polygon fill="black" stroke="black" stroke-width="1.12" points="803.28,-817.08 813.41,-813.97 803.55,-810.08 803.28,-817.08"/>
<text text-anchor="middle" x="503.5" y="-515.21" font-family="Times New Roman,serif" font-size="12.00">8s</text>
</g>
<!-- &#45;5763552913299528894 -->
<g id="node14" class="node">
<title>&#45;5763552913299528894</title>
<polygon fill="none" stroke="black" points="672.5,-663.81 549.5,-663.81 549.5,-627.81 672.5,-627.81 672.5,-663.81"/>
<text text-anchor="middle" x="611" y="-642.71" font-family="Times New Roman,serif" font-size="12.00">editField[q6_studentId]</text>
</g>
<!-- &#45;5763552913299528894&#45;&gt;&#45;349242997702854405 -->
<g id="edge26" class="edge">
<title>&#45;5763552913299528894&#45;&gt;&#45;349242997702854405</title>
<path fill="none" stroke="black" stroke-width="1.03" d="M622.38,-663.98C642.19,-692.49 685.84,-749.48 737,-779.81 757.71,-792.09 783.27,-800.66 804.21,-806.24"/>
<polygon fill="black" stroke="black" stroke-width="1.03" points="803.24,-809.6 813.79,-808.66 804.95,-802.82 803.24,-809.6"/>
<text text-anchor="middle" x="700.5" y="-727.71" font-family="Times New Roman,serif" font-size="12.00">3s</text>
</g>
<!-- &#45;5763552913299528894&#45;&gt;&#45;2337737116181962960 -->
<g id="edge27" class="edge">
<title>&#45;5763552913299528894&#45;&gt;&#45;2337737116181962960</title>
<path fill="none" stroke="black" stroke-width="1.08" d="M608.32,-627.42C601.69,-584.44 584.5,-472.87 576.37,-420.17"/>
<polygon fill="black" stroke="black" stroke-width="1.08" points="579.88,-419.96 574.9,-410.61 572.96,-421.03 579.88,-419.96"/>
<text text-anchor="middle" x="598.5" y="-515.21" font-family="Times New Roman,serif" font-size="12.00">6s</text>
</g>
<!-- &#45;5763552913299528894&#45;&gt;3670417997280707311 -->
<g id="edge28" class="edge">
<title>&#45;5763552913299528894&#45;&gt;3670417997280707311</title>
<path fill="none" stroke="black" d="M609.68,-627.56C608.72,-606.74 609.12,-571.01 620,-542.81 625.63,-528.21 635.52,-514.09 645.02,-502.68"/>
<polygon fill="black" stroke="black" points="647.53,-505.13 651.48,-495.29 642.26,-500.52 647.53,-505.13"/>
<text text-anchor="middle" x="625.5" y="-557.71" font-family="Times New Roman,serif" font-size="12.00">1s</text>
</g>
<!-- &#45;5435049042536943609 -->
<g id="node19" class="node">
<title>&#45;5435049042536943609</title>
<polygon fill="none" stroke="black" points="699.5,-578.81 640.5,-578.81 640.5,-542.81 699.5,-542.81 699.5,-578.81"/>
<text text-anchor="middle" x="670" y="-557.71" font-family="Times New Roman,serif" font-size="12.00">getRange</text>
</g>
<!-- &#45;5763552913299528894&#45;&gt;&#45;5435049042536943609 -->
<g id="edge29" class="edge">
<title>&#45;5763552913299528894&#45;&gt;&#45;5435049042536943609</title>
<path fill="none" stroke="black" d="M623.22,-627.61C631.24,-616.34 641.88,-601.37 650.99,-588.55"/>
<polygon fill="black" stroke="black" points="653.77,-590.68 656.71,-580.51 648.06,-586.63 653.77,-590.68"/>
<text text-anchor="middle" x="650.5" y="-600.21" font-family="Times New Roman,serif" font-size="12.00">1s</text>
</g>
<!-- 3651796461026563911 -->
<g id="node15" class="node">
<title>3651796461026563911</title>
<polygon fill="none" stroke="black" points="468.5,-663.81 295.5,-663.81 295.5,-627.81 468.5,-627.81 468.5,-663.81"/>
<text text-anchor="middle" x="382" y="-642.71" font-family="Times New Roman,serif" font-size="12.00">editField[q7_phoneNumber[area]]</text>
</g>
<!-- &#45;5108575767407452370 -->
<g id="node30" class="node">
<title>&#45;5108575767407452370</title>
<polygon fill="none" stroke="black" points="464.5,-578.81 297.5,-578.81 297.5,-542.81 464.5,-542.81 464.5,-578.81"/>
<text text-anchor="middle" x="381" y="-557.71" font-family="Times New Roman,serif" font-size="12.00">paste[q7_phoneNumber[phone]]</text>
</g>
<!-- 3651796461026563911&#45;&gt;&#45;5108575767407452370 -->
<g id="edge30" class="edge">
<title>3651796461026563911&#45;&gt;&#45;5108575767407452370</title>
<path fill="none" stroke="black" stroke-width="1.17" d="M381.79,-627.61C381.66,-617 381.5,-603.12 381.35,-590.84"/>
<polygon fill="black" stroke="black" stroke-width="1.17" points="384.85,-591 381.23,-581.04 377.85,-591.08 384.85,-591"/>
<text text-anchor="middle" x="390.5" y="-600.21" font-family="Times New Roman,serif" font-size="12.00">11s</text>
</g>
<!-- 357182630398299043 -->
<g id="node16" class="node">
<title>357182630398299043</title>
<polygon fill="none" stroke="black" points="470,-493.81 288,-493.81 288,-457.81 470,-457.81 470,-493.81"/>
<text text-anchor="middle" x="379" y="-472.71" font-family="Times New Roman,serif" font-size="12.00">editField[q7_phoneNumber[phone]]</text>
</g>
<!-- 357182630398299043&#45;&gt;&#45;8421013627638508074 -->
<g id="edge31" class="edge">
<title>357182630398299043&#45;&gt;&#45;8421013627638508074</title>
<path fill="none" stroke="black" stroke-width="1.12" d="M287.91,-482.2C191.16,-490.48 52,-510.9 52,-559.81 52,-901.81 52,-901.81 52,-901.81 52,-919.84 52,-940.07 52,-956.04"/>
<polygon fill="black" stroke="black" stroke-width="1.12" points="48.5,-955.63 52,-965.63 55.5,-955.63 48.5,-955.63"/>
<text text-anchor="middle" x="57.5" y="-727.71" font-family="Times New Roman,serif" font-size="12.00">8s</text>
</g>
<!-- 357182630398299043&#45;&gt;&#45;2337737116181962960 -->
<g id="edge32" class="edge">
<title>357182630398299043&#45;&gt;&#45;2337737116181962960</title>
<path fill="none" stroke="black" stroke-width="1.03" d="M419.46,-457.41C450.94,-443.87 494.6,-425.1 527.14,-411.1"/>
<polygon fill="black" stroke="black" stroke-width="1.03" points="528.48,-414.34 536.29,-407.17 525.72,-407.91 528.48,-414.34"/>
<text text-anchor="middle" x="493.5" y="-430.21" font-family="Times New Roman,serif" font-size="12.00">3s</text>
</g>
<!-- 6997094482055801526 -->
<g id="node17" class="node">
<title>6997094482055801526</title>
<polygon fill="none" stroke="black" points="1110,-323.81 962,-323.81 962,-287.81 1110,-287.81 1110,-323.81"/>
<text text-anchor="middle" x="1036" y="-302.71" font-family="Times New Roman,serif" font-size="12.00">editField[q9_accountHolder]</text>
</g>
<!-- 6997094482055801526&#45;&gt;&#45;349242997702854405 -->
<g id="edge33" class="edge">
<title>6997094482055801526&#45;&gt;&#45;349242997702854405</title>
<path fill="none" stroke="black" stroke-width="1.17" d="M1068.54,-324.02C1090.69,-338.33 1116,-360.99 1116,-389.81 1116,-731.81 1116,-731.81 1116,-731.81 1116,-779.67 959.99,-802.64 884.28,-810.98"/>
<polygon fill="black" stroke="black" stroke-width="1.17" points="884.18,-807.47 874.61,-812 884.92,-814.43 884.18,-807.47"/>
<text text-anchor="middle" x="1124.5" y="-557.71" font-family="Times New Roman,serif" font-size="12.00">11s</text>
</g>
<!-- 3670417997280707311&#45;&gt;&#45;2337737116181962960 -->
<g id="edge34" class="edge">
<title>3670417997280707311&#45;&gt;&#45;2337737116181962960</title>
<path fill="none" stroke="black" stroke-width="1.02" d="M649.69,-457.61C635.73,-445.79 616.96,-429.89 601.37,-416.69"/>
<polygon fill="black" stroke="black" stroke-width="1.02" points="603.68,-414.06 593.79,-410.27 599.16,-419.4 603.68,-414.06"/>
<text text-anchor="middle" x="632.5" y="-430.21" font-family="Times New Roman,serif" font-size="12.00">2s</text>
</g>
<!-- 3670417997280707311&#45;&gt;1955449513403805491 -->
<g id="edge35" class="edge">
<title>3670417997280707311&#45;&gt;1955449513403805491</title>
<path fill="none" stroke="black" d="M697.13,-471.19C780.76,-460.03 1037.86,-425.72 1185.25,-406.06"/>
<polygon fill="black" stroke="black" points="1185.59,-409.54 1195.04,-404.75 1184.66,-402.6 1185.59,-409.54"/>
<text text-anchor="middle" x="1023.5" y="-430.21" font-family="Times New Roman,serif" font-size="12.00">1s</text>
</g>
<!-- 3670417997280707311&#45;&gt;5144228901829614650 -->
<g id="edge36" class="edge">
<title>3670417997280707311&#45;&gt;5144228901829614650</title>
<path fill="none" stroke="black" d="M697.25,-468.37C749.48,-456.02 865.4,-428.61 943.39,-410.16"/>
<polygon fill="black" stroke="black" points="943.74,-413.68 952.66,-407.97 942.13,-406.87 943.74,-413.68"/>
<text text-anchor="middle" x="871.5" y="-430.21" font-family="Times New Roman,serif" font-size="12.00">1s</text>
</g>
<!-- &#45;5435049042536943609&#45;&gt;3670417997280707311 -->
<g id="edge37" class="edge">
<title>&#45;5435049042536943609&#45;&gt;3670417997280707311</title>
<path fill="none" stroke="black" d="M670,-542.61C670,-531.89 670,-517.83 670,-505.45"/>
<polygon fill="black" stroke="black" points="673.5,-505.79 670,-495.79 666.5,-505.79 673.5,-505.79"/>
<text text-anchor="middle" x="675.5" y="-515.21" font-family="Times New Roman,serif" font-size="12.00">1s</text>
</g>
<!-- 6102417127305744981 -->
<g id="node20" class="node">
<title>6102417127305744981</title>
<polygon fill="none" stroke="black" points="780,-918.81 712,-918.81 712,-882.81 780,-882.81 780,-918.81"/>
<text text-anchor="middle" x="746" y="-897.71" font-family="Times New Roman,serif" font-size="12.00">navigate_to</text>
</g>
<!-- 6102417127305744981&#45;&gt;&#45;349242997702854405 -->
<g id="edge38" class="edge">
<title>6102417127305744981&#45;&gt;&#45;349242997702854405</title>
<path fill="none" stroke="black" d="M766.31,-882.61C780.27,-870.79 799.04,-854.89 814.63,-841.69"/>
<polygon fill="black" stroke="black" points="816.86,-844.38 822.23,-835.25 812.34,-839.04 816.86,-844.38"/>
<text text-anchor="middle" x="806.5" y="-855.21" font-family="Times New Roman,serif" font-size="12.00">1s</text>
</g>
<!-- 4744432682323570212&#45;&gt;&#45;3417061393049347223 -->
<g id="edge39" class="edge">
<title>4744432682323570212&#45;&gt;&#45;3417061393049347223</title>
<path fill="none" stroke="black" stroke-width="1.17" d="M185.18,-712.61C188.41,-701.89 192.65,-687.83 196.37,-675.45"/>
<polygon fill="black" stroke="black" stroke-width="1.17" points="199.7,-676.55 199.23,-665.96 193,-674.53 199.7,-676.55"/>
<text text-anchor="middle" x="202.5" y="-685.21" font-family="Times New Roman,serif" font-size="12.00">11s</text>
</g>
<!-- 4604581665166516345&#45;&gt;&#45;4003299731570885441 -->
<g id="edge40" class="edge">
<title>4604581665166516345&#45;&gt;&#45;4003299731570885441</title>
<path fill="none" stroke="black" stroke-width="1.17" d="M1346.71,-712.61C1341.44,-701.67 1334.49,-687.24 1328.44,-674.69"/>
<polygon fill="black" stroke="black" stroke-width="1.17" points="1331.68,-673.35 1324.18,-665.86 1325.37,-676.39 1331.68,-673.35"/>
<text text-anchor="middle" x="1345.5" y="-685.21" font-family="Times New Roman,serif" font-size="12.00">11s</text>
</g>
<!-- 1955449513403805491&#45;&gt;&#45;3774925265531423684 -->
<g id="edge41" class="edge">
<title>1955449513403805491&#45;&gt;&#45;3774925265531423684</title>
<path fill="none" stroke="black" stroke-width="2.6" d="M1267.29,-372.62C1261.91,-367.56 1256.95,-361.55 1254,-354.81 1251.62,-349.37 1250.93,-343.27 1251.2,-337.28"/>
<polygon fill="black" stroke="black" stroke-width="2.6" points="1254.6,-338.19 1252.59,-327.79 1247.67,-337.17 1254.6,-338.19"/>
<text text-anchor="middle" x="1261.5" y="-345.21" font-family="Times New Roman,serif" font-size="12.00">1m</text>
</g>
<!-- 1955449513403805491&#45;&gt;1955449513403805491 -->
<g id="edge42" class="edge">
<title>1955449513403805491&#45;&gt;1955449513403805491</title>
<path fill="none" stroke="black" stroke-width="1.02" d="M1387.22,-397.56C1398.01,-396.3 1405,-394.05 1405,-390.81 1405,-388.89 1402.53,-387.31 1398.27,-386.09"/>
<polygon fill="black" stroke="black" stroke-width="1.02" points="1399.2,-382.7 1388.73,-384.34 1397.93,-389.58 1399.2,-382.7"/>
<text text-anchor="middle" x="1410.5" y="-387.71" font-family="Times New Roman,serif" font-size="12.00">2s</text>
</g>
<!-- &#45;802786066028636207&#45;&gt;5148547196844223595 -->
<g id="edge43" class="edge">
<title>&#45;802786066028636207&#45;&gt;5148547196844223595</title>
<path fill="none" stroke="black" stroke-width="1.17" d="M950.23,-712.61C947.26,-701.89 943.37,-687.83 939.94,-675.45"/>
<polygon fill="black" stroke="black" stroke-width="1.17" points="943.35,-674.68 937.31,-665.97 936.61,-676.55 943.35,-674.68"/>
<text text-anchor="middle" x="952.5" y="-685.21" font-family="Times New Roman,serif" font-size="12.00">11s</text>
</g>
<!-- &#45;4040636298552314058&#45;&gt;3768362607462934485 -->
<g id="edge44" class="edge">
<title>&#45;4040636298552314058&#45;&gt;3768362607462934485</title>
<path fill="none" stroke="black" stroke-width="1.17" d="M945.49,-542.61C947.02,-532 949.03,-518.12 950.8,-505.84"/>
<polygon fill="black" stroke="black" stroke-width="1.17" points="954.26,-506.42 952.22,-496.02 947.33,-505.42 954.26,-506.42"/>
<text text-anchor="middle" x="957.5" y="-515.21" font-family="Times New Roman,serif" font-size="12.00">11s</text>
</g>
<!-- 5504490665134479466&#45;&gt;&#45;6653035453324865092 -->
<g id="edge45" class="edge">
<title>5504490665134479466&#45;&gt;&#45;6653035453324865092</title>
<path fill="none" stroke="black" stroke-width="1.17" d="M786.23,-712.61C779.23,-701.45 769.97,-686.66 761.99,-673.93"/>
<polygon fill="black" stroke="black" stroke-width="1.17" points="765.15,-672.38 756.88,-665.77 759.22,-676.1 765.15,-672.38"/>
<text text-anchor="middle" x="783.5" y="-685.21" font-family="Times New Roman,serif" font-size="12.00">11s</text>
</g>
<!-- &#45;7686844205181626037&#45;&gt;6507740163502519239 -->
<g id="edge46" class="edge">
<title>&#45;7686844205181626037&#45;&gt;6507740163502519239</title>
<path fill="none" stroke="black" stroke-width="1.17" d="M586.36,-287.5C569.51,-271.84 544.49,-248.59 525.37,-230.83"/>
<polygon fill="black" stroke="black" stroke-width="1.17" points="527.79,-228.3 518.08,-224.06 523.02,-233.43 527.79,-228.3"/>
<text text-anchor="middle" x="573.5" y="-260.21" font-family="Times New Roman,serif" font-size="12.00">11s</text>
</g>
<!-- 4004908014844761737&#45;&gt;&#45;5763552913299528894 -->
<g id="edge47" class="edge">
<title>4004908014844761737&#45;&gt;&#45;5763552913299528894</title>
<path fill="none" stroke="black" stroke-width="1.17" d="M586.42,-712.61C590.47,-701.78 595.79,-687.54 600.45,-675.07"/>
<polygon fill="black" stroke="black" stroke-width="1.17" points="603.64,-676.52 603.86,-665.93 597.08,-674.07 603.64,-676.52"/>
<text text-anchor="middle" x="606.5" y="-685.21" font-family="Times New Roman,serif" font-size="12.00">11s</text>
</g>
<!-- 2070911815398967774&#45;&gt;3651796461026563911 -->
<g id="edge48" class="edge">
<title>2070911815398967774&#45;&gt;3651796461026563911</title>
<path fill="none" stroke="black" stroke-width="1.17" d="M389.14,-712.61C387.98,-702 386.48,-688.12 385.15,-675.84"/>
<polygon fill="black" stroke="black" stroke-width="1.17" points="388.64,-675.59 384.08,-666.03 381.68,-676.35 388.64,-675.59"/>
<text text-anchor="middle" x="396.5" y="-685.21" font-family="Times New Roman,serif" font-size="12.00">11s</text>
</g>
<!-- &#45;5108575767407452370&#45;&gt;357182630398299043 -->
<g id="edge49" class="edge">
<title>&#45;5108575767407452370&#45;&gt;357182630398299043</title>
<path fill="none" stroke="black" stroke-width="1.17" d="M380.59,-542.61C380.33,-532 380,-518.12 379.7,-505.84"/>
<polygon fill="black" stroke="black" stroke-width="1.17" points="383.2,-505.95 379.46,-496.04 376.21,-506.12 383.2,-505.95"/>
<text text-anchor="middle" x="389.5" y="-515.21" font-family="Times New Roman,serif" font-size="12.00">11s</text>
</g>
<!-- 5144228901829614650&#45;&gt;6997094482055801526 -->
<g id="edge50" class="edge">
<title>5144228901829614650&#45;&gt;6997094482055801526</title>
<path fill="none" stroke="black" stroke-width="1.17" d="M1024.11,-372.61C1026.03,-362 1028.54,-348.12 1030.75,-335.84"/>
<polygon fill="black" stroke="black" stroke-width="1.17" points="1034.2,-336.47 1032.53,-326.01 1027.31,-335.23 1034.2,-336.47"/>
<text text-anchor="middle" x="1037.5" y="-345.21" font-family="Times New Roman,serif" font-size="12.00">11s</text>
</g>
<!-- &#45;2342417462293921512&#45;&gt;&#45;349242997702854405 -->
<g id="edge51" class="edge">
<title>&#45;2342417462293921512&#45;&gt;&#45;349242997702854405</title>
<path fill="none" stroke="black" stroke-width="1.32" d="M844,-882.61C844,-872.11 844,-858.4 844,-846.22"/>
<polygon fill="black" stroke="black" stroke-width="1.32" points="847.5,-846.27 844,-836.27 840.5,-846.27 847.5,-846.27"/>
<text text-anchor="middle" x="852.5" y="-855.21" font-family="Times New Roman,serif" font-size="12.00">20s</text>
</g>
<!-- &#45;2342417462293921512&#45;&gt;3670417997280707311 -->
<g id="edge52" class="edge">
<title>&#45;2342417462293921512&#45;&gt;3670417997280707311</title>
<path fill="none" stroke="black" d="M797.6,-885.04C794.7,-884.25 791.82,-883.5 789,-882.81 538.9,-821.8 469.78,-837.98 219,-779.81 169.94,-768.43 140.35,-789 110,-748.81 92.24,-725.3 110.05,-650.52 127,-627.81 247.66,-466.17 373.75,-575.46 569,-524.81 591.1,-519.08 614.2,-508.49 632.73,-498.71"/>
<polygon fill="black" stroke="black" points="634.34,-501.81 641.46,-493.96 631,-495.66 634.34,-501.81"/>
<text text-anchor="middle" x="112.5" y="-685.21" font-family="Times New Roman,serif" font-size="12.00">1s</text>
</g>
</g>
</svg>
