<?xml version="1.0" encoding="UTF-8" standalone="no"?>
<!DOCTYPE svg PUBLIC "-//W3C//DTD SVG 1.1//EN"
 "http://www.w3.org/Graphics/SVG/1.1/DTD/svg11.dtd">
<!-- Generated by graphviz version 8.0.3 (20230416.2022)
 -->
<!-- Pages: 1 -->
<svg width="235pt" height="502pt"
 viewBox="0.00 0.00 235.41 501.81" xmlns="http://www.w3.org/2000/svg" xmlns:xlink="http://www.w3.org/1999/xlink">
<g id="graph0" class="graph" transform="scale(1 1) rotate(0) translate(4 497.81)">
<polygon fill="white" stroke="none" points="-4,4 -4,-497.81 231.41,-497.81 231.41,4 -4,4"/>
<!-- &#45;5165409646973173909 -->
<g id="node1" class="node">
<title>&#45;5165409646973173909</title>
<polygon fill="none" stroke="black" points="188.41,-493.81 84.41,-493.81 84.41,-457.81 188.41,-457.81 188.41,-493.81"/>
<text text-anchor="middle" x="136.41" y="-472.71" font-family="Times New Roman,serif" font-size="12.00">clickButton[button]</text>
</g>
<!-- 8495575819858260259 -->
<g id="node7" class="node">
<title>8495575819858260259</title>
<polygon fill="none" stroke="black" points="102.41,-408.81 10.41,-408.81 10.41,-372.81 102.41,-372.81 102.41,-408.81"/>
<text text-anchor="middle" x="56.41" y="-387.71" font-family="Times New Roman,serif" font-size="12.00">selectWorksheet</text>
</g>
<!-- &#45;5165409646973173909&#45;&gt;8495575819858260259 -->
<g id="edge1" class="edge">
<title>&#45;5165409646973173909&#45;&gt;8495575819858260259</title>
<path fill="none" stroke="black" d="M119.83,-457.61C108.54,-445.9 93.39,-430.19 80.74,-417.06"/>
<polygon fill="black" stroke="black" points="83.7,-415.04 74.24,-410.27 78.66,-419.9 83.7,-415.04"/>
<text text-anchor="middle" x="106.91" y="-430.21" font-family="Times New Roman,serif" font-size="12.00">1s</text>
</g>
<!-- &#45;6968050114622540068 -->
<g id="node2" class="node">
<title>&#45;6968050114622540068</title>
<polygon fill="none" stroke="black" points="141.91,-323.81 84.91,-323.81 84.91,-287.81 141.91,-287.81 141.91,-323.81"/>
<text text-anchor="middle" x="113.41" y="-302.71" font-family="Times New Roman,serif" font-size="12.00">copyCell</text>
</g>
<!-- &#45;9028611191506250526 -->
<g id="node6" class="node">
<title>&#45;9028611191506250526</title>
<polygon fill="none" stroke="black" points="140.41,-222.41 86.41,-222.41 86.41,-186.41 140.41,-186.41 140.41,-222.41"/>
<text text-anchor="middle" x="113.41" y="-201.31" font-family="Times New Roman,serif" font-size="12.00">paste</text>
</g>
<!-- &#45;6968050114622540068&#45;&gt;&#45;9028611191506250526 -->
<g id="edge2" class="edge">
<title>&#45;6968050114622540068&#45;&gt;&#45;9028611191506250526</title>
<path fill="none" stroke="black" stroke-width="2.07" d="M113.41,-287.5C113.41,-273.26 113.41,-252.74 113.41,-235.78"/>
<polygon fill="black" stroke="black" stroke-width="2.07" points="116.91,-235.86 113.41,-225.86 109.91,-235.86 116.91,-235.86"/>
<text text-anchor="middle" x="118.91" y="-260.21" font-family="Times New Roman,serif" font-size="12.00">7s</text>
</g>
<!-- @@endnode -->
<g id="node8" class="node">
<title>@@endnode</title>
<ellipse fill="none" stroke="black" cx="34.41" cy="-204.41" rx="30.32" ry="30.32"/>
<ellipse fill="none" stroke="black" cx="34.41" cy="-204.41" rx="34.31" ry="34.31"/>
<text text-anchor="start" x="24.41" y="-196.31" font-family="Times New Roman,serif" font-size="32.00">■</text>
</g>
<!-- &#45;6968050114622540068&#45;&gt;@@endnode -->
<g id="edge11" class="edge">
<title>&#45;6968050114622540068&#45;&gt;@@endnode</title>
<path fill="none" stroke="black" d="M99.64,-287.5C89.35,-274.54 74.92,-256.39 62.25,-240.45"/>
<polygon fill="black" stroke="black" points="64.4,-238.52 55.43,-232.86 58.92,-242.87 64.4,-238.52"/>
<text text-anchor="middle" x="86.91" y="-260.21" font-family="Times New Roman,serif" font-size="12.00">1</text>
</g>
<!-- &#45;4725831156122046667 -->
<g id="node3" class="node">
<title>&#45;4725831156122046667</title>
<polygon fill="none" stroke="black" points="128.41,-36 60.41,-36 60.41,0 128.41,0 128.41,-36"/>
<text text-anchor="middle" x="94.41" y="-14.9" font-family="Times New Roman,serif" font-size="12.00">copyRange</text>
</g>
<!-- &#45;4725831156122046667&#45;&gt;&#45;9028611191506250526 -->
<g id="edge3" class="edge">
<title>&#45;4725831156122046667&#45;&gt;&#45;9028611191506250526</title>
<path fill="none" stroke="black" d="M94.06,-36.39C93.86,-56.74 94.12,-91.42 97.41,-121 99.44,-139.3 103.36,-159.61 106.81,-175.48"/>
<polygon fill="black" stroke="black" points="103.61,-176.18 109.21,-185.17 110.44,-174.64 103.61,-176.18"/>
<text text-anchor="middle" x="102.91" y="-99.9" font-family="Times New Roman,serif" font-size="12.00">1s</text>
</g>
<!-- &#45;802417557823507361 -->
<g id="node4" class="node">
<title>&#45;802417557823507361</title>
<polygon fill="none" stroke="black" points="173.41,-121 117.41,-121 117.41,-85 173.41,-85 173.41,-121"/>
<text text-anchor="middle" x="145.41" y="-99.9" font-family="Times New Roman,serif" font-size="12.00">editField</text>
</g>
<!-- &#45;802417557823507361&#45;&gt;&#45;5165409646973173909 -->
<g id="edge4" class="edge">
<title>&#45;802417557823507361&#45;&gt;&#45;5165409646973173909</title>
<path fill="none" stroke="black" d="M168.26,-121.48C189.02,-139.51 216.41,-169.69 216.41,-203.41 216.41,-391.81 216.41,-391.81 216.41,-391.81 216.41,-416.8 197.37,-437.16 177.87,-451.46"/>
<polygon fill="black" stroke="black" points="176.2,-449.05 169.94,-457.6 180.17,-454.82 176.2,-449.05"/>
<text text-anchor="middle" x="221.91" y="-302.71" font-family="Times New Roman,serif" font-size="12.00">1s</text>
</g>
<!-- &#45;802417557823507361&#45;&gt;&#45;6968050114622540068 -->
<g id="edge5" class="edge">
<title>&#45;802417557823507361&#45;&gt;&#45;6968050114622540068</title>
<path fill="none" stroke="black" stroke-width="1.89" d="M150.17,-121.31C151.5,-126.91 152.75,-133.18 153.41,-139 158.38,-183.12 161.36,-196.06 149.41,-238.81 145.65,-252.24 138.76,-265.96 132,-277.38"/>
<polygon fill="black" stroke="black" stroke-width="1.89" points="128.99,-275.21 126.67,-285.55 134.93,-278.91 128.99,-275.21"/>
<text text-anchor="middle" x="162.91" y="-201.31" font-family="Times New Roman,serif" font-size="12.00">6s</text>
</g>
<!-- &#45;802417557823507361&#45;&gt;&#45;4725831156122046667 -->
<g id="edge6" class="edge">
<title>&#45;802417557823507361&#45;&gt;&#45;4725831156122046667</title>
<path fill="none" stroke="black" d="M134.84,-84.8C127.91,-73.53 118.71,-58.56 110.84,-45.74"/>
<polygon fill="black" stroke="black" points="113.35,-44.15 105.13,-37.46 107.39,-47.81 113.35,-44.15"/>
<text text-anchor="middle" x="127.91" y="-57.4" font-family="Times New Roman,serif" font-size="12.00">1s</text>
</g>
<!-- &#45;802417557823507361&#45;&gt;&#45;9028611191506250526 -->
<g id="edge7" class="edge">
<title>&#45;802417557823507361&#45;&gt;&#45;9028611191506250526</title>
<path fill="none" stroke="black" stroke-width="1.18" d="M124.24,-121.34C119.44,-126.47 114.99,-132.48 112.41,-139 107.92,-150.3 107.42,-163.63 108.34,-175.21"/>
<polygon fill="black" stroke="black" stroke-width="1.18" points="104.97,-175.56 109.63,-185.08 111.93,-174.74 104.97,-175.56"/>
<text text-anchor="middle" x="117.91" y="-142.4" font-family="Times New Roman,serif" font-size="12.00">2s</text>
</g>
<!-- &#45;1527059423402642781 -->
<g id="node5" class="node">
<title>&#45;1527059423402642781</title>
<polygon fill="none" stroke="black" points="188.41,-408.81 120.41,-408.81 120.41,-372.81 188.41,-372.81 188.41,-408.81"/>
<text text-anchor="middle" x="154.41" y="-387.71" font-family="Times New Roman,serif" font-size="12.00">navigate_to</text>
</g>
<!-- &#45;1527059423402642781&#45;&gt;&#45;6968050114622540068 -->
<g id="edge8" class="edge">
<title>&#45;1527059423402642781&#45;&gt;&#45;6968050114622540068</title>
<path fill="none" stroke="black" d="M145.91,-372.61C140.4,-361.45 133.09,-346.66 126.8,-333.93"/>
<polygon fill="black" stroke="black" points="129.6,-332.69 122.03,-325.27 123.32,-335.79 129.6,-332.69"/>
<text text-anchor="middle" x="140.91" y="-345.21" font-family="Times New Roman,serif" font-size="12.00">1s</text>
</g>
<!-- &#45;9028611191506250526&#45;&gt;&#45;802417557823507361 -->
<g id="edge9" class="edge">
<title>&#45;9028611191506250526&#45;&gt;&#45;802417557823507361</title>
<path fill="none" stroke="black" stroke-width="2.6" d="M118.98,-186.09C123.63,-171.64 130.37,-150.72 135.87,-133.62"/>
<polygon fill="black" stroke="black" stroke-width="2.6" points="139.06,-135.04 138.79,-124.45 132.39,-132.9 139.06,-135.04"/>
<text text-anchor="middle" x="140.91" y="-142.4" font-family="Times New Roman,serif" font-size="12.00">10s</text>
</g>
<!-- 8495575819858260259&#45;&gt;&#45;6968050114622540068 -->
<g id="edge10" class="edge">
<title>8495575819858260259&#45;&gt;&#45;6968050114622540068</title>
<path fill="none" stroke="black" d="M68.22,-372.61C76.04,-361.23 86.44,-346.07 95.3,-333.18"/>
<polygon fill="black" stroke="black" points="98.64,-335.5 101.41,-325.27 92.87,-331.53 98.64,-335.5"/>
<text text-anchor="middle" x="93.91" y="-345.21" font-family="Times New Roman,serif" font-size="12.00">1s</text>
</g>
</g>
</svg>
