<?xml version="1.0" encoding="UTF-8" standalone="no"?>
<!DOCTYPE svg PUBLIC "-//W3C//DTD SVG 1.1//EN"
 "http://www.w3.org/Graphics/SVG/1.1/DTD/svg11.dtd">
<!-- Generated by graphviz version 8.0.3 (20230416.2022)
 -->
<!-- Pages: 1 -->
<svg width="406pt" height="842pt"
 viewBox="0.00 0.00 405.50 841.81" xmlns="http://www.w3.org/2000/svg" xmlns:xlink="http://www.w3.org/1999/xlink">
<g id="graph0" class="graph" transform="scale(1 1) rotate(0) translate(4 837.81)">
<polygon fill="white" stroke="none" points="-4,4 -4,-837.81 401.5,-837.81 401.5,4 -4,4"/>
<!-- &#45;5165409646973173909 -->
<g id="node1" class="node">
<title>&#45;5165409646973173909</title>
<polygon fill="none" stroke="black" points="337.5,-833.81 233.5,-833.81 233.5,-797.81 337.5,-797.81 337.5,-833.81"/>
<text text-anchor="middle" x="285.5" y="-812.71" font-family="Times New Roman,serif" font-size="12.00">clickButton[button]</text>
</g>
<!-- 8495575819858260259 -->
<g id="node12" class="node">
<title>8495575819858260259</title>
<polygon fill="none" stroke="black" points="228.5,-748.81 136.5,-748.81 136.5,-712.81 228.5,-712.81 228.5,-748.81"/>
<text text-anchor="middle" x="182.5" y="-727.71" font-family="Times New Roman,serif" font-size="12.00">selectWorksheet</text>
</g>
<!-- &#45;5165409646973173909&#45;&gt;8495575819858260259 -->
<g id="edge1" class="edge">
<title>&#45;5165409646973173909&#45;&gt;8495575819858260259</title>
<path fill="none" stroke="black" stroke-width="1.08" d="M264.16,-797.61C249.21,-785.56 229.02,-769.29 212.45,-755.95"/>
<polygon fill="black" stroke="black" stroke-width="1.08" points="215.15,-753.82 205.17,-750.27 210.76,-759.27 215.15,-753.82"/>
<text text-anchor="middle" x="249" y="-770.21" font-family="Times New Roman,serif" font-size="12.00">11s</text>
</g>
<!-- 6717867204866389648 -->
<g id="node2" class="node">
<title>6717867204866389648</title>
<polygon fill="none" stroke="black" points="322.5,-222.41 218.5,-222.41 218.5,-186.41 322.5,-186.41 322.5,-222.41"/>
<text text-anchor="middle" x="270.5" y="-201.31" font-family="Times New Roman,serif" font-size="12.00">clickButton[submit]</text>
</g>
<!-- &#45;2593804355222374208 -->
<g id="node3" class="node">
<title>&#45;2593804355222374208</title>
<polygon fill="none" stroke="black" points="205.5,-121 147.5,-121 147.5,-85 205.5,-85 205.5,-121"/>
<text text-anchor="middle" x="176.5" y="-99.9" font-family="Times New Roman,serif" font-size="12.00">clickLink</text>
</g>
<!-- 6717867204866389648&#45;&gt;&#45;2593804355222374208 -->
<g id="edge2" class="edge">
<title>6717867204866389648&#45;&gt;&#45;2593804355222374208</title>
<path fill="none" stroke="black" stroke-width="1.07" d="M254.13,-186.09C239.26,-170.36 217.14,-146.98 200.31,-129.18"/>
<polygon fill="black" stroke="black" stroke-width="1.07" points="203.42,-127.31 194,-122.45 198.33,-132.12 203.42,-127.31"/>
<text text-anchor="middle" x="230" y="-142.4" font-family="Times New Roman,serif" font-size="12.00">10s</text>
</g>
<!-- &#45;5679572340445933510 -->
<g id="node6" class="node">
<title>&#45;5679572340445933510</title>
<polygon fill="none" stroke="black" points="85,-36 0,-36 0,0 85,0 85,-36"/>
<text text-anchor="middle" x="42.5" y="-14.9" font-family="Times New Roman,serif" font-size="12.00">createNewTab</text>
</g>
<!-- &#45;2593804355222374208&#45;&gt;&#45;5679572340445933510 -->
<g id="edge3" class="edge">
<title>&#45;2593804355222374208&#45;&gt;&#45;5679572340445933510</title>
<path fill="none" stroke="black" stroke-width="1.07" d="M148.41,-84.6C128.49,-72.26 101.54,-55.57 79.82,-42.11"/>
<polygon fill="black" stroke="black" stroke-width="1.07" points="81.9,-38.67 71.55,-36.38 78.21,-44.62 81.9,-38.67"/>
<text text-anchor="middle" x="127" y="-57.4" font-family="Times New Roman,serif" font-size="12.00">10s</text>
</g>
<!-- &#45;6968050114622540068 -->
<g id="node4" class="node">
<title>&#45;6968050114622540068</title>
<polygon fill="none" stroke="black" points="314,-663.81 257,-663.81 257,-627.81 314,-627.81 314,-663.81"/>
<text text-anchor="middle" x="285.5" y="-642.71" font-family="Times New Roman,serif" font-size="12.00">copyCell</text>
</g>
<!-- &#45;8379406843200625498 -->
<g id="node8" class="node">
<title>&#45;8379406843200625498</title>
<polygon fill="none" stroke="black" points="207.5,-578.81 153.5,-578.81 153.5,-542.81 207.5,-542.81 207.5,-578.81"/>
<text text-anchor="middle" x="180.5" y="-557.71" font-family="Times New Roman,serif" font-size="12.00">getCell</text>
</g>
<!-- &#45;6968050114622540068&#45;&gt;&#45;8379406843200625498 -->
<g id="edge4" class="edge">
<title>&#45;6968050114622540068&#45;&gt;&#45;8379406843200625498</title>
<path fill="none" stroke="black" d="M263.49,-627.41C248.23,-615.35 227.71,-599.13 210.89,-585.84"/>
<polygon fill="black" stroke="black" points="213.5,-582.64 203.48,-579.19 209.16,-588.13 213.5,-582.64"/>
<text text-anchor="middle" x="245" y="-600.21" font-family="Times New Roman,serif" font-size="12.00">1s</text>
</g>
<!-- &#45;9028611191506250526 -->
<g id="node11" class="node">
<title>&#45;9028611191506250526</title>
<polygon fill="none" stroke="black" points="276.5,-408.81 222.5,-408.81 222.5,-372.81 276.5,-372.81 276.5,-408.81"/>
<text text-anchor="middle" x="249.5" y="-387.71" font-family="Times New Roman,serif" font-size="12.00">paste</text>
</g>
<!-- &#45;6968050114622540068&#45;&gt;&#45;9028611191506250526 -->
<g id="edge5" class="edge">
<title>&#45;6968050114622540068&#45;&gt;&#45;9028611191506250526</title>
<path fill="none" stroke="black" stroke-width="1.73" d="M283.32,-627.54C278.62,-590.64 267.02,-501.38 255.5,-426.81 255.21,-424.93 254.9,-423 254.59,-421.05"/>
<polygon fill="black" stroke="black" stroke-width="1.73" points="257.71,-420.52 252.6,-411.24 250.81,-421.68 257.71,-420.52"/>
<text text-anchor="middle" x="278" y="-515.21" font-family="Times New Roman,serif" font-size="12.00">1m</text>
</g>
<!-- &#45;4725831156122046667 -->
<g id="node5" class="node">
<title>&#45;4725831156122046667</title>
<polygon fill="none" stroke="black" points="213.5,-493.81 145.5,-493.81 145.5,-457.81 213.5,-457.81 213.5,-493.81"/>
<text text-anchor="middle" x="179.5" y="-472.71" font-family="Times New Roman,serif" font-size="12.00">copyRange</text>
</g>
<!-- &#45;4725831156122046667&#45;&gt;&#45;9028611191506250526 -->
<g id="edge6" class="edge">
<title>&#45;4725831156122046667&#45;&gt;&#45;9028611191506250526</title>
<path fill="none" stroke="black" stroke-width="1.08" d="M193.4,-457.34C200.77,-448.17 210.03,-436.8 218.5,-426.81 221.12,-423.72 223.9,-420.5 226.68,-417.33"/>
<polygon fill="black" stroke="black" stroke-width="1.08" points="228.91,-419.95 232.9,-410.13 223.66,-415.32 228.91,-419.95"/>
<text text-anchor="middle" x="227" y="-430.21" font-family="Times New Roman,serif" font-size="12.00">11s</text>
</g>
<!-- &#45;5679572340445933510&#45;&gt;8495575819858260259 -->
<g id="edge7" class="edge">
<title>&#45;5679572340445933510&#45;&gt;8495575819858260259</title>
<path fill="none" stroke="black" stroke-width="1.07" d="M37.17,-36.3C32.52,-52.96 26.5,-78.96 26.5,-102 26.5,-646.81 26.5,-646.81 26.5,-646.81 26.5,-693.15 80.81,-713.7 125.34,-722.76"/>
<polygon fill="black" stroke="black" stroke-width="1.07" points="124.64,-726.38 135.12,-724.78 125.93,-719.5 124.64,-726.38"/>
<text text-anchor="middle" x="35" y="-387.71" font-family="Times New Roman,serif" font-size="12.00">10s</text>
</g>
<!-- &#45;802417557823507361 -->
<g id="node7" class="node">
<title>&#45;802417557823507361</title>
<polygon fill="none" stroke="black" points="240.5,-323.81 184.5,-323.81 184.5,-287.81 240.5,-287.81 240.5,-323.81"/>
<text text-anchor="middle" x="212.5" y="-302.71" font-family="Times New Roman,serif" font-size="12.00">editField</text>
</g>
<!-- &#45;802417557823507361&#45;&gt;&#45;5165409646973173909 -->
<g id="edge8" class="edge">
<title>&#45;802417557823507361&#45;&gt;&#45;5165409646973173909</title>
<path fill="none" stroke="black" stroke-width="1.08" d="M241,-308.26C288.93,-312.39 380.5,-328.33 380.5,-389.81 380.5,-731.81 380.5,-731.81 380.5,-731.81 380.5,-758.37 359.18,-778.4 336.73,-792.12"/>
<polygon fill="black" stroke="black" stroke-width="1.08" points="335.39,-789.43 328.44,-797.43 338.86,-795.5 335.39,-789.43"/>
<text text-anchor="middle" x="389" y="-557.71" font-family="Times New Roman,serif" font-size="12.00">11s</text>
</g>
<!-- &#45;802417557823507361&#45;&gt;6717867204866389648 -->
<g id="edge9" class="edge">
<title>&#45;802417557823507361&#45;&gt;6717867204866389648</title>
<path fill="none" stroke="black" stroke-width="1.07" d="M222.6,-287.5C231.53,-272.2 244.69,-249.64 254.96,-232.04"/>
<polygon fill="black" stroke="black" stroke-width="1.07" points="258.3,-234.26 260.32,-223.86 252.26,-230.73 258.3,-234.26"/>
<text text-anchor="middle" x="249" y="-260.21" font-family="Times New Roman,serif" font-size="12.00">10s</text>
</g>
<!-- &#45;802417557823507361&#45;&gt;&#45;6968050114622540068 -->
<g id="edge10" class="edge">
<title>&#45;802417557823507361&#45;&gt;&#45;6968050114622540068</title>
<path fill="none" stroke="black" stroke-width="1.57" d="M240.8,-312.85C276.84,-322.4 334.5,-344.72 334.5,-389.81 334.5,-561.81 334.5,-561.81 334.5,-561.81 334.5,-582.87 322.65,-603.29 310.61,-618.6"/>
<polygon fill="black" stroke="black" stroke-width="1.57" points="307.94,-616.53 304.19,-626.44 313.3,-621.03 307.94,-616.53"/>
<text text-anchor="middle" x="342" y="-472.71" font-family="Times New Roman,serif" font-size="12.00">1m</text>
</g>
<!-- &#45;802417557823507361&#45;&gt;&#45;4725831156122046667 -->
<g id="edge11" class="edge">
<title>&#45;802417557823507361&#45;&gt;&#45;4725831156122046667</title>
<path fill="none" stroke="black" stroke-width="1.06" d="M207.15,-324.16C205.52,-329.76 203.82,-336.02 202.5,-341.81 194.27,-377.79 187.46,-419.84 183.44,-446.87"/>
<polygon fill="black" stroke="black" stroke-width="1.06" points="179.87,-446.08 181.89,-456.48 186.8,-447.09 179.87,-446.08"/>
<text text-anchor="middle" x="202" y="-387.71" font-family="Times New Roman,serif" font-size="12.00">9s</text>
</g>
<!-- &#45;802417557823507361&#45;&gt;&#45;8379406843200625498 -->
<g id="edge12" class="edge">
<title>&#45;802417557823507361&#45;&gt;&#45;8379406843200625498</title>
<path fill="none" stroke="black" d="M200.51,-323.9C182.41,-350.85 148.91,-405.56 136.5,-457.81 132.8,-473.38 131.86,-478.5 136.5,-493.81 140.88,-508.27 149.58,-522.45 158.1,-533.94"/>
<polygon fill="black" stroke="black" points="155.89,-535.81 164.8,-541.53 161.41,-531.5 155.89,-535.81"/>
<text text-anchor="middle" x="152" y="-430.21" font-family="Times New Roman,serif" font-size="12.00">1s</text>
</g>
<!-- &#45;3292313364076452391 -->
<g id="node9" class="node">
<title>&#45;3292313364076452391</title>
<polygon fill="none" stroke="black" points="114,-222.41 55,-222.41 55,-186.41 114,-186.41 114,-222.41"/>
<text text-anchor="middle" x="84.5" y="-201.31" font-family="Times New Roman,serif" font-size="12.00">getRange</text>
</g>
<!-- &#45;802417557823507361&#45;&gt;&#45;3292313364076452391 -->
<g id="edge13" class="edge">
<title>&#45;802417557823507361&#45;&gt;&#45;3292313364076452391</title>
<path fill="none" stroke="black" d="M187.98,-287.34C169.9,-274.29 144.86,-255.84 123.5,-238.81 119.89,-235.93 116.15,-232.86 112.47,-229.77"/>
<polygon fill="black" stroke="black" points="115,-226.48 105.11,-222.67 110.47,-231.81 115,-226.48"/>
<text text-anchor="middle" x="168" y="-260.21" font-family="Times New Roman,serif" font-size="12.00">1s</text>
</g>
<!-- &#45;802417557823507361&#45;&gt;&#45;9028611191506250526 -->
<g id="edge14" class="edge">
<title>&#45;802417557823507361&#45;&gt;&#45;9028611191506250526</title>
<path fill="none" stroke="black" stroke-width="1.76" d="M220.53,-324.23C223.1,-329.84 225.94,-336.08 228.5,-341.81 231.4,-348.3 234.49,-355.3 237.38,-361.9"/>
<polygon fill="black" stroke="black" stroke-width="1.76" points="233.78,-362.69 240.99,-370.45 240.19,-359.89 233.78,-362.69"/>
<text text-anchor="middle" x="242" y="-345.21" font-family="Times New Roman,serif" font-size="12.00">1m</text>
</g>
<!-- @@endnode -->
<g id="node13" class="node">
<title>@@endnode</title>
<ellipse fill="none" stroke="black" cx="166.5" cy="-204.41" rx="30.32" ry="30.32"/>
<ellipse fill="none" stroke="black" cx="166.5" cy="-204.41" rx="34.31" ry="34.31"/>
<text text-anchor="start" x="156.5" y="-196.31" font-family="Times New Roman,serif" font-size="32.00">■</text>
</g>
<!-- &#45;802417557823507361&#45;&gt;@@endnode -->
<g id="edge23" class="edge">
<title>&#45;802417557823507361&#45;&gt;@@endnode</title>
<path fill="none" stroke="black" d="M204.49,-287.5C199.18,-276.02 191.97,-260.45 185.27,-245.96"/>
<polygon fill="black" stroke="black" points="188.11,-244.77 180.74,-237.17 181.76,-247.71 188.11,-244.77"/>
<text text-anchor="middle" x="199" y="-260.21" font-family="Times New Roman,serif" font-size="12.00">1</text>
</g>
<!-- &#45;8379406843200625498&#45;&gt;&#45;4725831156122046667 -->
<g id="edge15" class="edge">
<title>&#45;8379406843200625498&#45;&gt;&#45;4725831156122046667</title>
<path fill="none" stroke="black" stroke-width="1.01" d="M180.29,-542.61C180.16,-531.78 179.99,-517.54 179.84,-505.07"/>
<polygon fill="black" stroke="black" stroke-width="1.01" points="183.33,-505.23 179.71,-495.27 176.33,-505.31 183.33,-505.23"/>
<text text-anchor="middle" x="186" y="-515.21" font-family="Times New Roman,serif" font-size="12.00">2s</text>
</g>
<!-- &#45;8379406843200625498&#45;&gt;&#45;9028611191506250526 -->
<g id="edge16" class="edge">
<title>&#45;8379406843200625498&#45;&gt;&#45;9028611191506250526</title>
<path fill="none" stroke="black" stroke-width="1.01" d="M193.66,-542.44C202.86,-529.59 214.82,-511.35 222.5,-493.81 233.04,-469.74 240.24,-440.62 244.54,-419.67"/>
<polygon fill="black" stroke="black" stroke-width="1.01" points="248.15,-420.44 246.64,-409.95 241.28,-419.1 248.15,-420.44"/>
<text text-anchor="middle" x="241" y="-472.71" font-family="Times New Roman,serif" font-size="12.00">2s</text>
</g>
<!-- &#45;3292313364076452391&#45;&gt;&#45;8379406843200625498 -->
<g id="edge17" class="edge">
<title>&#45;3292313364076452391&#45;&gt;&#45;8379406843200625498</title>
<path fill="none" stroke="black" d="M83.11,-222.63C81.63,-242.44 79.5,-275.95 79.5,-304.81 79.5,-476.81 79.5,-476.81 79.5,-476.81 79.5,-511.02 114.51,-533.72 143.31,-546.6"/>
<polygon fill="black" stroke="black" points="141.59,-550.1 152.17,-550.75 144.31,-543.65 141.59,-550.1"/>
<text text-anchor="middle" x="85" y="-387.71" font-family="Times New Roman,serif" font-size="12.00">1s</text>
</g>
<!-- &#45;1527059423402642781 -->
<g id="node10" class="node">
<title>&#45;1527059423402642781</title>
<polygon fill="none" stroke="black" points="319.5,-748.81 251.5,-748.81 251.5,-712.81 319.5,-712.81 319.5,-748.81"/>
<text text-anchor="middle" x="285.5" y="-727.71" font-family="Times New Roman,serif" font-size="12.00">navigate_to</text>
</g>
<!-- &#45;1527059423402642781&#45;&gt;&#45;6968050114622540068 -->
<g id="edge18" class="edge">
<title>&#45;1527059423402642781&#45;&gt;&#45;6968050114622540068</title>
<path fill="none" stroke="black" d="M285.5,-712.61C285.5,-701.78 285.5,-687.54 285.5,-675.07"/>
<polygon fill="black" stroke="black" points="289,-675.27 285.5,-665.27 282,-675.27 289,-675.27"/>
<text text-anchor="middle" x="291" y="-685.21" font-family="Times New Roman,serif" font-size="12.00">1s</text>
</g>
<!-- &#45;9028611191506250526&#45;&gt;&#45;802417557823507361 -->
<g id="edge19" class="edge">
<title>&#45;9028611191506250526&#45;&gt;&#45;802417557823507361</title>
<path fill="none" stroke="black" stroke-width="2.6" d="M223.1,-372.46C217.6,-367.47 212.55,-361.53 209.5,-354.81 206.99,-349.27 206.15,-343 206.23,-336.86"/>
<polygon fill="black" stroke="black" stroke-width="2.6" points="210.03,-337.28 207.6,-326.96 203.06,-336.54 210.03,-337.28"/>
<text text-anchor="middle" x="217" y="-345.21" font-family="Times New Roman,serif" font-size="12.00">3m</text>
</g>
<!-- &#45;9028611191506250526&#45;&gt;&#45;9028611191506250526 -->
<g id="edge20" class="edge">
<title>&#45;9028611191506250526&#45;&gt;&#45;9028611191506250526</title>
<path fill="none" stroke="black" stroke-width="1.01" d="M276.74,-398.77C286.52,-398.94 294.5,-396.29 294.5,-390.81 294.5,-387.56 291.69,-385.3 287.36,-384.04"/>
<polygon fill="black" stroke="black" stroke-width="1.01" points="288.07,-380.49 277.74,-382.85 287.29,-387.44 288.07,-380.49"/>
<text text-anchor="middle" x="300" y="-387.71" font-family="Times New Roman,serif" font-size="12.00">2s</text>
</g>
<!-- 8495575819858260259&#45;&gt;&#45;6968050114622540068 -->
<g id="edge21" class="edge">
<title>8495575819858260259&#45;&gt;&#45;6968050114622540068</title>
<path fill="none" stroke="black" stroke-width="1.15" d="M203.84,-712.61C218.79,-700.56 238.98,-684.29 255.55,-670.95"/>
<polygon fill="black" stroke="black" stroke-width="1.15" points="257.24,-674.27 262.83,-665.27 252.85,-668.82 257.24,-674.27"/>
<text text-anchor="middle" x="249" y="-685.21" font-family="Times New Roman,serif" font-size="12.00">20s</text>
</g>
<!-- 8495575819858260259&#45;&gt;&#45;8379406843200625498 -->
<g id="edge22" class="edge">
<title>8495575819858260259&#45;&gt;&#45;8379406843200625498</title>
<path fill="none" stroke="black" d="M182.29,-712.46C181.95,-683.39 181.25,-624.59 180.83,-589.66"/>
<polygon fill="black" stroke="black" points="184.32,-589.77 180.7,-579.81 177.32,-589.85 184.32,-589.77"/>
<text text-anchor="middle" x="188" y="-642.71" font-family="Times New Roman,serif" font-size="12.00">1s</text>
</g>
</g>
</svg>
