<?xml version="1.0" encoding="UTF-8" standalone="no"?>
<!DOCTYPE svg PUBLIC "-//W3C//DTD SVG 1.1//EN"
 "http://www.w3.org/Graphics/SVG/1.1/DTD/svg11.dtd">
<!-- Generated by graphviz version 7.1.0 (20230121.1956)
 -->
<!-- Pages: 1 -->
<svg width="274pt" height="587pt"
 viewBox="0.00 0.00 274.41 586.81" xmlns="http://www.w3.org/2000/svg" xmlns:xlink="http://www.w3.org/1999/xlink">
<g id="graph0" class="graph" transform="scale(1 1) rotate(0) translate(4 582.81)">
<polygon fill="white" stroke="none" points="-4,4 -4,-582.81 270.41,-582.81 270.41,4 -4,4"/>
<!-- &#45;7295101882954865738 -->
<g id="node1" class="node">
<title>&#45;7295101882954865738</title>
<polygon fill="none" stroke="black" points="245.41,-578.81 177.41,-578.81 177.41,-542.81 245.41,-542.81 245.41,-578.81"/>
<text text-anchor="middle" x="211.41" y="-557.71" font-family="Times New Roman,serif" font-size="12.00">clickButton</text>
</g>
<!-- 744251646738890109 -->
<g id="node3" class="node">
<title>744251646738890109</title>
<polygon fill="none" stroke="black" points="100.41,-493.81 42.41,-493.81 42.41,-457.81 100.41,-457.81 100.41,-493.81"/>
<text text-anchor="middle" x="71.41" y="-472.71" font-family="Times New Roman,serif" font-size="12.00">clickLink</text>
</g>
<!-- &#45;7295101882954865738&#45;&gt;744251646738890109 -->
<g id="edge1" class="edge">
<title>&#45;7295101882954865738&#45;&gt;744251646738890109</title>
<path fill="none" stroke="black" stroke-width="1.13" d="M182.06,-542.41C161.34,-530.13 133.34,-513.53 110.7,-500.11"/>
<polygon fill="black" stroke="black" stroke-width="1.13" points="112.57,-497.15 102.18,-495.06 109,-503.17 112.57,-497.15"/>
<text text-anchor="middle" x="157.91" y="-515.21" font-family="Times New Roman,serif" font-size="12.00">10s</text>
</g>
<!-- &#45;3583450983126162731 -->
<g id="node4" class="node">
<title>&#45;3583450983126162731</title>
<polygon fill="none" stroke="black" points="127.91,-323.81 70.91,-323.81 70.91,-287.81 127.91,-287.81 127.91,-323.81"/>
<text text-anchor="middle" x="99.41" y="-302.71" font-family="Times New Roman,serif" font-size="12.00">copyCell</text>
</g>
<!-- &#45;7295101882954865738&#45;&gt;&#45;3583450983126162731 -->
<g id="edge2" class="edge">
<title>&#45;7295101882954865738&#45;&gt;&#45;3583450983126162731</title>
<path fill="none" stroke="black" d="M214.14,-542.38C218.69,-507.52 224.43,-427.8 192.41,-372.81 180.02,-351.54 157.73,-335.36 138.07,-324.35"/>
<polygon fill="black" stroke="black" points="139.91,-321.36 129.44,-319.77 136.63,-327.55 139.91,-321.36"/>
<text text-anchor="middle" x="218.91" y="-430.21" font-family="Times New Roman,serif" font-size="12.00">1s</text>
</g>
<!-- 8619035905982486789 -->
<g id="node2" class="node">
<title>8619035905982486789</title>
<polygon fill="none" stroke="black" points="166.91,-36 81.91,-36 81.91,0 166.91,0 166.91,-36"/>
<text text-anchor="middle" x="124.41" y="-14.9" font-family="Times New Roman,serif" font-size="12.00">clickCheckbox</text>
</g>
<!-- 8429278947031473074 -->
<g id="node5" class="node">
<title>8429278947031473074</title>
<polygon fill="none" stroke="black" points="152.41,-137.41 96.41,-137.41 96.41,-101.41 152.41,-101.41 152.41,-137.41"/>
<text text-anchor="middle" x="124.41" y="-116.31" font-family="Times New Roman,serif" font-size="12.00">editField</text>
</g>
<!-- 8619035905982486789&#45;&gt;8429278947031473074 -->
<g id="edge3" class="edge">
<title>8619035905982486789&#45;&gt;8429278947031473074</title>
<path fill="none" stroke="black" stroke-width="1.1" d="M124.41,-36.45C124.41,-51.08 124.41,-72.28 124.41,-89.45"/>
<polygon fill="black" stroke="black" stroke-width="1.1" points="120.91,-89.43 124.41,-99.43 127.91,-89.43 120.91,-89.43"/>
<text text-anchor="middle" x="129.91" y="-57.4" font-family="Times New Roman,serif" font-size="12.00">8s</text>
</g>
<!-- 744251646738890109&#45;&gt;&#45;3583450983126162731 -->
<g id="edge4" class="edge">
<title>744251646738890109&#45;&gt;&#45;3583450983126162731</title>
<path fill="none" stroke="black" stroke-width="1.11" d="M71.93,-457.35C72.77,-436.92 74.94,-402.17 80.41,-372.81 82.75,-360.24 86.46,-346.62 89.99,-335.03"/>
<polygon fill="black" stroke="black" stroke-width="1.11" points="93.21,-336.44 92.89,-325.85 86.54,-334.33 93.21,-336.44"/>
<text text-anchor="middle" x="85.91" y="-387.71" font-family="Times New Roman,serif" font-size="12.00">9s</text>
</g>
<!-- 2959380413082319204 -->
<g id="node6" class="node">
<title>2959380413082319204</title>
<polygon fill="none" stroke="black" points="154.41,-408.81 100.41,-408.81 100.41,-372.81 154.41,-372.81 154.41,-408.81"/>
<text text-anchor="middle" x="127.41" y="-387.71" font-family="Times New Roman,serif" font-size="12.00">getCell</text>
</g>
<!-- 744251646738890109&#45;&gt;2959380413082319204 -->
<g id="edge5" class="edge">
<title>744251646738890109&#45;&gt;2959380413082319204</title>
<path fill="none" stroke="black" d="M83.01,-457.61C90.62,-446.34 100.72,-431.37 109.36,-418.55"/>
<polygon fill="black" stroke="black" points="112.09,-420.77 114.78,-410.53 106.28,-416.86 112.09,-420.77"/>
<text text-anchor="middle" x="108.91" y="-430.21" font-family="Times New Roman,serif" font-size="12.00">1s</text>
</g>
<!-- &#45;1724725439285990221 -->
<g id="node7" class="node">
<title>&#45;1724725439285990221</title>
<polygon fill="none" stroke="black" points="91.41,-238.81 37.41,-238.81 37.41,-202.81 91.41,-202.81 91.41,-238.81"/>
<text text-anchor="middle" x="64.41" y="-217.71" font-family="Times New Roman,serif" font-size="12.00">paste</text>
</g>
<!-- 744251646738890109&#45;&gt;&#45;1724725439285990221 -->
<g id="edge6" class="edge">
<title>744251646738890109&#45;&gt;&#45;1724725439285990221</title>
<path fill="none" stroke="black" d="M61.97,-457.46C59.39,-451.97 56.91,-445.77 55.41,-439.81 52.04,-426.42 53.98,-422.61 53.41,-408.81 52.41,-384.83 52.63,-378.81 52.41,-354.81 52.35,-349.03 52.12,-347.58 52.41,-341.81 53.97,-310.51 57.81,-274.78 60.72,-250.5"/>
<polygon fill="black" stroke="black" points="64.18,-251.11 61.92,-240.76 57.23,-250.26 64.18,-251.11"/>
<text text-anchor="middle" x="57.91" y="-345.21" font-family="Times New Roman,serif" font-size="12.00">1s</text>
</g>
<!-- &#45;3583450983126162731&#45;&gt;744251646738890109 -->
<g id="edge7" class="edge">
<title>&#45;3583450983126162731&#45;&gt;744251646738890109</title>
<path fill="none" stroke="black" d="M85.67,-324.11C76.52,-336.78 65.32,-354.84 60.41,-372.81 53.74,-397.2 57.85,-425.9 62.83,-446.63"/>
<polygon fill="black" stroke="black" points="59.39,-447.3 65.32,-456.07 66.15,-445.51 59.39,-447.3"/>
<text text-anchor="middle" x="65.91" y="-387.71" font-family="Times New Roman,serif" font-size="12.00">1s</text>
</g>
<!-- &#45;3583450983126162731&#45;&gt;&#45;1724725439285990221 -->
<g id="edge8" class="edge">
<title>&#45;3583450983126162731&#45;&gt;&#45;1724725439285990221</title>
<path fill="none" stroke="black" stroke-width="2.13" d="M92.15,-287.61C87.73,-277.11 81.94,-263.4 76.81,-251.22"/>
<polygon fill="black" stroke="black" stroke-width="2.13" points="80.13,-250.1 73.02,-242.25 73.68,-252.82 80.13,-250.1"/>
<text text-anchor="middle" x="91.91" y="-260.21" font-family="Times New Roman,serif" font-size="12.00">1m</text>
</g>
<!-- 8429278947031473074&#45;&gt;&#45;7295101882954865738 -->
<g id="edge9" class="edge">
<title>8429278947031473074&#45;&gt;&#45;7295101882954865738</title>
<path fill="none" stroke="black" stroke-width="1.14" d="M152.77,-128.94C189.65,-142 249.41,-170.73 249.41,-219.81 249.41,-476.81 249.41,-476.81 249.41,-476.81 249.41,-496.83 240.15,-517.3 230.78,-532.91"/>
<polygon fill="black" stroke="black" stroke-width="1.14" points="228.07,-530.64 225.63,-540.95 233.97,-534.42 228.07,-530.64"/>
<text text-anchor="middle" x="257.91" y="-345.21" font-family="Times New Roman,serif" font-size="12.00">11s</text>
</g>
<!-- 8429278947031473074&#45;&gt;8619035905982486789 -->
<g id="edge10" class="edge">
<title>8429278947031473074&#45;&gt;8619035905982486789</title>
<path fill="none" stroke="black" stroke-width="1.1" d="M116.18,-100.97C111.1,-88.04 106.13,-69.97 109.41,-54 109.86,-51.77 110.47,-49.5 111.18,-47.25"/>
<polygon fill="black" stroke="black" stroke-width="1.1" points="114.45,-48.5 114.74,-37.91 107.91,-46.01 114.45,-48.5"/>
<text text-anchor="middle" x="114.91" y="-57.4" font-family="Times New Roman,serif" font-size="12.00">8s</text>
</g>
<!-- 8429278947031473074&#45;&gt;&#45;3583450983126162731 -->
<g id="edge11" class="edge">
<title>8429278947031473074&#45;&gt;&#45;3583450983126162731</title>
<path fill="none" stroke="black" stroke-width="1.98" d="M122.04,-137.84C117.78,-169.28 108.76,-235.8 103.49,-274.72"/>
<polygon fill="black" stroke="black" stroke-width="1.98" points="100.03,-274.12 102.16,-284.5 106.97,-275.06 100.03,-274.12"/>
<text text-anchor="middle" x="120.91" y="-217.71" font-family="Times New Roman,serif" font-size="12.00">1m</text>
</g>
<!-- 8429278947031473074&#45;&gt;&#45;1724725439285990221 -->
<g id="edge12" class="edge">
<title>8429278947031473074&#45;&gt;&#45;1724725439285990221</title>
<path fill="none" stroke="black" stroke-width="1.45" d="M113.87,-137.86C104.78,-152.91 91.5,-174.93 80.98,-192.35"/>
<polygon fill="black" stroke="black" stroke-width="1.45" points="78.16,-190.24 75.99,-200.61 84.16,-193.86 78.16,-190.24"/>
<text text-anchor="middle" x="101.91" y="-175.21" font-family="Times New Roman,serif" font-size="12.00">33s</text>
</g>
<!-- 2959380413082319204&#45;&gt;&#45;3583450983126162731 -->
<g id="edge13" class="edge">
<title>2959380413082319204&#45;&gt;&#45;3583450983126162731</title>
<path fill="none" stroke="black" d="M121.6,-372.61C117.95,-361.78 113.14,-347.54 108.94,-335.07"/>
<polygon fill="black" stroke="black" points="112.29,-334.06 105.78,-325.71 105.66,-336.3 112.29,-334.06"/>
<text text-anchor="middle" x="120.91" y="-345.21" font-family="Times New Roman,serif" font-size="12.00">1s</text>
</g>
<!-- 2959380413082319204&#45;&gt;2959380413082319204 -->
<g id="edge14" class="edge">
<title>2959380413082319204&#45;&gt;2959380413082319204</title>
<path fill="none" stroke="black" d="M154.65,-398.77C164.43,-398.94 172.41,-396.29 172.41,-390.81 172.41,-387.73 169.88,-385.54 165.93,-384.25"/>
<polygon fill="black" stroke="black" points="166.5,-380.79 156.15,-383.04 165.64,-387.74 166.5,-380.79"/>
<text text-anchor="middle" x="177.91" y="-387.71" font-family="Times New Roman,serif" font-size="12.00">1s</text>
</g>
<!-- &#45;1724725439285990221&#45;&gt;8429278947031473074 -->
<g id="edge15" class="edge">
<title>&#45;1724725439285990221&#45;&gt;8429278947031473074</title>
<path fill="none" stroke="black" stroke-width="2.6" d="M62.87,-202.57C62.73,-193.05 63.77,-181.27 68.41,-171.81 72.96,-162.52 79.97,-154.1 87.51,-146.89"/>
<polygon fill="black" stroke="black" stroke-width="2.6" points="89.71,-149.62 94.97,-140.42 85.12,-144.33 89.71,-149.62"/>
<text text-anchor="middle" x="75.91" y="-175.21" font-family="Times New Roman,serif" font-size="12.00">1m</text>
</g>
<!-- @@endnode -->
<g id="node8" class="node">
<title>@@endnode</title>
<ellipse fill="none" stroke="black" cx="34.41" cy="-119.41" rx="30.32" ry="30.32"/>
<ellipse fill="none" stroke="black" cx="34.41" cy="-119.41" rx="34.31" ry="34.31"/>
<text text-anchor="start" x="24.41" y="-111.31" font-family="Times New Roman,serif" font-size="32.00">■</text>
</g>
<!-- &#45;1724725439285990221&#45;&gt;@@endnode -->
<g id="edge16" class="edge">
<title>&#45;1724725439285990221&#45;&gt;@@endnode</title>
<path fill="none" stroke="black" d="M47.79,-202.57C43.65,-197.27 39.73,-191.15 37.41,-184.81 35.13,-178.62 33.75,-171.86 32.96,-165.13"/>
<polygon fill="black" stroke="black" points="36.47,-165.17 32.26,-155.44 29.49,-165.67 36.47,-165.17"/>
<text text-anchor="middle" x="40.91" y="-175.21" font-family="Times New Roman,serif" font-size="12.00">1</text>
</g>
</g>
</svg>
