<?xml version="1.0" encoding="UTF-8" standalone="no"?>
<!DOCTYPE svg PUBLIC "-//W3C//DTD SVG 1.1//EN"
 "http://www.w3.org/Graphics/SVG/1.1/DTD/svg11.dtd">
<!-- Generated by graphviz version 7.1.0 (20230121.1956)
 -->
<!-- Pages: 1 -->
<svg width="281pt" height="502pt"
 viewBox="0.00 0.00 281.41 501.81" xmlns="http://www.w3.org/2000/svg" xmlns:xlink="http://www.w3.org/1999/xlink">
<g id="graph0" class="graph" transform="scale(1 1) rotate(0) translate(4 497.81)">
<polygon fill="white" stroke="none" points="-4,4 -4,-497.81 277.41,-497.81 277.41,4 -4,4"/>
<!-- &#45;7295101882954865738 -->
<g id="node1" class="node">
<title>&#45;7295101882954865738</title>
<polygon fill="none" stroke="black" points="123,-493.81 55,-493.81 55,-457.81 123,-457.81 123,-493.81"/>
<text text-anchor="middle" x="89" y="-472.71" font-family="Times New Roman,serif" font-size="12.00">clickButton</text>
</g>
<!-- 744251646738890109 -->
<g id="node3" class="node">
<title>744251646738890109</title>
<polygon fill="none" stroke="black" points="118,-408.81 60,-408.81 60,-372.81 118,-372.81 118,-408.81"/>
<text text-anchor="middle" x="89" y="-387.71" font-family="Times New Roman,serif" font-size="12.00">clickLink</text>
</g>
<!-- &#45;7295101882954865738&#45;&gt;744251646738890109 -->
<g id="edge1" class="edge">
<title>&#45;7295101882954865738&#45;&gt;744251646738890109</title>
<path fill="none" stroke="black" stroke-width="1.12" d="M89,-457.61C89,-447 89,-433.12 89,-420.84"/>
<polygon fill="black" stroke="black" stroke-width="1.12" points="92.5,-420.97 89,-410.97 85.5,-420.97 92.5,-420.97"/>
<text text-anchor="middle" x="97.5" y="-430.21" font-family="Times New Roman,serif" font-size="12.00">17s</text>
</g>
<!-- &#45;3583450983126162731 -->
<g id="node4" class="node">
<title>&#45;3583450983126162731</title>
<polygon fill="none" stroke="black" points="117.5,-323.81 60.5,-323.81 60.5,-287.81 117.5,-287.81 117.5,-323.81"/>
<text text-anchor="middle" x="89" y="-302.71" font-family="Times New Roman,serif" font-size="12.00">copyCell</text>
</g>
<!-- &#45;7295101882954865738&#45;&gt;&#45;3583450983126162731 -->
<g id="edge2" class="edge">
<title>&#45;7295101882954865738&#45;&gt;&#45;3583450983126162731</title>
<path fill="none" stroke="black" stroke-width="1.02" d="M71.06,-457.32C59.74,-444.97 46.14,-427.37 40,-408.81 34.98,-393.62 34.98,-388 40,-372.81 44.84,-358.16 54.33,-344.12 63.68,-332.78"/>
<polygon fill="black" stroke="black" stroke-width="1.02" points="66.12,-335.3 70.05,-325.46 60.84,-330.71 66.12,-335.3"/>
<text text-anchor="middle" x="45.5" y="-387.71" font-family="Times New Roman,serif" font-size="12.00">3s</text>
</g>
<!-- 8619035905982486789 -->
<g id="node2" class="node">
<title>8619035905982486789</title>
<polygon fill="none" stroke="black" points="186.5,-52.41 101.5,-52.41 101.5,-16.41 186.5,-16.41 186.5,-52.41"/>
<text text-anchor="middle" x="144" y="-31.31" font-family="Times New Roman,serif" font-size="12.00">clickCheckbox</text>
</g>
<!-- 8429278947031473074 -->
<g id="node5" class="node">
<title>8429278947031473074</title>
<polygon fill="none" stroke="black" points="189,-153.81 133,-153.81 133,-117.81 189,-117.81 189,-153.81"/>
<text text-anchor="middle" x="161" y="-132.71" font-family="Times New Roman,serif" font-size="12.00">editField</text>
</g>
<!-- 8619035905982486789&#45;&gt;8429278947031473074 -->
<g id="edge3" class="edge">
<title>8619035905982486789&#45;&gt;8429278947031473074</title>
<path fill="none" stroke="black" stroke-width="1.09" d="M147.04,-52.53C148.8,-62.53 151.05,-75.38 153,-86.81 154.08,-93.16 155.23,-99.99 156.31,-106.44"/>
<polygon fill="black" stroke="black" stroke-width="1.09" points="152.78,-106.56 157.87,-115.85 159.69,-105.41 152.78,-106.56"/>
<text text-anchor="middle" x="163.5" y="-90.21" font-family="Times New Roman,serif" font-size="12.00">13s</text>
</g>
<!-- 744251646738890109&#45;&gt;&#45;3583450983126162731 -->
<g id="edge4" class="edge">
<title>744251646738890109&#45;&gt;&#45;3583450983126162731</title>
<path fill="none" stroke="black" stroke-width="1.11" d="M89,-372.61C89,-362 89,-348.12 89,-335.84"/>
<polygon fill="black" stroke="black" stroke-width="1.11" points="92.5,-335.96 89,-325.96 85.5,-335.96 92.5,-335.96"/>
<text text-anchor="middle" x="97.5" y="-345.21" font-family="Times New Roman,serif" font-size="12.00">16s</text>
</g>
<!-- 2959380413082319204 -->
<g id="node6" class="node">
<title>2959380413082319204</title>
<polygon fill="none" stroke="black" points="54,-52.41 0,-52.41 0,-16.41 54,-16.41 54,-52.41"/>
<text text-anchor="middle" x="27" y="-31.31" font-family="Times New Roman,serif" font-size="12.00">getCell</text>
</g>
<!-- 744251646738890109&#45;&gt;2959380413082319204 -->
<g id="edge5" class="edge">
<title>744251646738890109&#45;&gt;2959380413082319204</title>
<path fill="none" stroke="black" d="M62.13,-372.46C42.75,-357.64 20,-334.36 20,-306.81 20,-306.81 20,-306.81 20,-134.81 20,-110.88 22.04,-83.8 23.92,-63.95"/>
<polygon fill="black" stroke="black" points="27.39,-64.42 24.9,-54.13 20.43,-63.73 27.39,-64.42"/>
<text text-anchor="middle" x="25.5" y="-217.71" font-family="Times New Roman,serif" font-size="12.00">1s</text>
</g>
<!-- &#45;1724725439285990221 -->
<g id="node7" class="node">
<title>&#45;1724725439285990221</title>
<polygon fill="none" stroke="black" points="192,-238.81 138,-238.81 138,-202.81 192,-202.81 192,-238.81"/>
<text text-anchor="middle" x="165" y="-217.71" font-family="Times New Roman,serif" font-size="12.00">paste</text>
</g>
<!-- 744251646738890109&#45;&gt;&#45;1724725439285990221 -->
<g id="edge6" class="edge">
<title>744251646738890109&#45;&gt;&#45;1724725439285990221</title>
<path fill="none" stroke="black" stroke-width="1.02" d="M99.6,-372.44C102.97,-366.84 106.68,-360.59 110,-354.81 130.78,-318.6 135.57,-308.99 150,-269.81 152.36,-263.41 154.67,-256.44 156.75,-249.85"/>
<polygon fill="black" stroke="black" stroke-width="1.02" points="159.96,-251.34 159.55,-240.75 153.27,-249.28 159.96,-251.34"/>
<text text-anchor="middle" x="148.5" y="-302.71" font-family="Times New Roman,serif" font-size="12.00">3s</text>
</g>
<!-- &#45;3583450983126162731&#45;&gt;744251646738890109 -->
<g id="edge7" class="edge">
<title>&#45;3583450983126162731&#45;&gt;744251646738890109</title>
<path fill="none" stroke="black" stroke-width="1.02" d="M79.92,-324.16C77.5,-329.66 75.22,-335.85 74,-341.81 72.63,-348.5 73.49,-355.57 75.35,-362.18"/>
<polygon fill="black" stroke="black" stroke-width="1.02" points="71.95,-363.07 78.68,-371.26 78.53,-360.66 71.95,-363.07"/>
<text text-anchor="middle" x="79.5" y="-345.21" font-family="Times New Roman,serif" font-size="12.00">3s</text>
</g>
<!-- &#45;3583450983126162731&#45;&gt;&#45;1724725439285990221 -->
<g id="edge8" class="edge">
<title>&#45;3583450983126162731&#45;&gt;&#45;1724725439285990221</title>
<path fill="none" stroke="black" stroke-width="2.09" d="M104.75,-287.61C114.97,-276.45 128.51,-261.66 140.17,-248.93"/>
<polygon fill="black" stroke="black" stroke-width="2.09" points="142.7,-251.35 146.87,-241.61 137.54,-246.62 142.7,-251.35"/>
<text text-anchor="middle" x="138.5" y="-260.21" font-family="Times New Roman,serif" font-size="12.00">2m</text>
</g>
<!-- 8429278947031473074&#45;&gt;&#45;7295101882954865738 -->
<g id="edge9" class="edge">
<title>8429278947031473074&#45;&gt;&#45;7295101882954865738</title>
<path fill="none" stroke="black" stroke-width="1.15" d="M182.97,-154.08C199.74,-169.35 220,-193.29 220,-219.81 220,-391.81 220,-391.81 220,-391.81 220,-433.29 172.56,-454.91 134.77,-465.54"/>
<polygon fill="black" stroke="black" stroke-width="1.15" points="133.89,-462.15 125.1,-468.06 135.66,-468.93 133.89,-462.15"/>
<text text-anchor="middle" x="228.5" y="-302.71" font-family="Times New Roman,serif" font-size="12.00">20s</text>
</g>
<!-- 8429278947031473074&#45;&gt;8619035905982486789 -->
<g id="edge10" class="edge">
<title>8429278947031473074&#45;&gt;8619035905982486789</title>
<path fill="none" stroke="black" stroke-width="1.09" d="M142.66,-117.45C138.33,-112.24 134.3,-106.2 132,-99.81 127.83,-88.26 129.32,-74.99 132.43,-63.51"/>
<polygon fill="black" stroke="black" stroke-width="1.09" points="135.65,-64.92 135.42,-54.33 128.99,-62.75 135.65,-64.92"/>
<text text-anchor="middle" x="140.5" y="-90.21" font-family="Times New Roman,serif" font-size="12.00">13s</text>
</g>
<!-- 8429278947031473074&#45;&gt;&#45;3583450983126162731 -->
<g id="edge11" class="edge">
<title>8429278947031473074&#45;&gt;&#45;3583450983126162731</title>
<path fill="none" stroke="black" stroke-width="1.95" d="M145.85,-154.16C135.49,-166.85 122.2,-184.91 114,-202.81 103.41,-225.93 96.94,-254.13 93.24,-275.01"/>
<polygon fill="black" stroke="black" stroke-width="1.95" points="89.83,-274.21 91.67,-284.64 96.74,-275.33 89.83,-274.21"/>
<text text-anchor="middle" x="121.5" y="-217.71" font-family="Times New Roman,serif" font-size="12.00">2m</text>
</g>
<!-- 8429278947031473074&#45;&gt;2959380413082319204 -->
<g id="edge12" class="edge">
<title>8429278947031473074&#45;&gt;2959380413082319204</title>
<path fill="none" stroke="black" d="M137.66,-117.5C116.08,-101.49 83.8,-77.54 59.66,-59.63"/>
<polygon fill="black" stroke="black" points="61.86,-56.9 51.74,-53.76 57.68,-62.53 61.86,-56.9"/>
<text text-anchor="middle" x="114.5" y="-90.21" font-family="Times New Roman,serif" font-size="12.00">1s</text>
</g>
<!-- 8429278947031473074&#45;&gt;&#45;1724725439285990221 -->
<g id="edge13" class="edge">
<title>8429278947031473074&#45;&gt;&#45;1724725439285990221</title>
<path fill="none" stroke="black" stroke-width="1.47" d="M150.82,-154.01C146.66,-163.1 143.38,-174.49 146,-184.81 146.55,-186.98 147.26,-189.16 148.09,-191.31"/>
<polygon fill="black" stroke="black" stroke-width="1.47" points="144.93,-192.8 152.37,-200.34 151.25,-189.8 144.93,-192.8"/>
<text text-anchor="middle" x="153.5" y="-175.21" font-family="Times New Roman,serif" font-size="12.00">1m</text>
</g>
<!-- @@endnode -->
<g id="node8" class="node">
<title>@@endnode</title>
<ellipse fill="none" stroke="black" cx="239" cy="-34.41" rx="30.32" ry="30.32"/>
<ellipse fill="none" stroke="black" cx="239" cy="-34.41" rx="34.31" ry="34.31"/>
<text text-anchor="start" x="229" y="-26.31" font-family="Times New Roman,serif" font-size="32.00">■</text>
</g>
<!-- 8429278947031473074&#45;&gt;@@endnode -->
<g id="edge17" class="edge">
<title>8429278947031473074&#45;&gt;@@endnode</title>
<path fill="none" stroke="black" d="M174.59,-117.5C184.66,-104.66 198.73,-86.73 211.16,-70.89"/>
<polygon fill="black" stroke="black" points="213.88,-73.08 217.3,-63.06 208.38,-68.76 213.88,-73.08"/>
<text text-anchor="middle" x="200.5" y="-90.21" font-family="Times New Roman,serif" font-size="12.00">1</text>
</g>
<!-- 2959380413082319204&#45;&gt;&#45;3583450983126162731 -->
<g id="edge14" class="edge">
<title>2959380413082319204&#45;&gt;&#45;3583450983126162731</title>
<path fill="none" stroke="black" stroke-width="1.01" d="M31.02,-52.87C41.48,-98.33 69.63,-220.64 82.46,-276.41"/>
<polygon fill="black" stroke="black" stroke-width="1.01" points="79.03,-277.1 84.69,-286.06 85.85,-275.53 79.03,-277.1"/>
<text text-anchor="middle" x="65.5" y="-175.21" font-family="Times New Roman,serif" font-size="12.00">2s</text>
</g>
<!-- 2959380413082319204&#45;&gt;2959380413082319204 -->
<g id="edge15" class="edge">
<title>2959380413082319204&#45;&gt;2959380413082319204</title>
<path fill="none" stroke="black" d="M54.24,-45.44C64.02,-45.68 72,-42 72,-34.41 72,-30.13 69.48,-27.1 65.53,-25.31"/>
<polygon fill="black" stroke="black" points="66.18,-21.87 55.73,-23.63 65,-28.77 66.18,-21.87"/>
<text text-anchor="middle" x="77.5" y="-31.31" font-family="Times New Roman,serif" font-size="12.00">1s</text>
</g>
<!-- &#45;1724725439285990221&#45;&gt;8429278947031473074 -->
<g id="edge16" class="edge">
<title>&#45;1724725439285990221&#45;&gt;8429278947031473074</title>
<path fill="none" stroke="black" stroke-width="2.6" d="M164.17,-202.61C163.69,-192.66 163.07,-179.84 162.51,-168.16"/>
<polygon fill="black" stroke="black" stroke-width="2.6" points="166.01,-168.02 162.03,-158.2 159.02,-168.36 166.01,-168.02"/>
<text text-anchor="middle" x="170.5" y="-175.21" font-family="Times New Roman,serif" font-size="12.00">3m</text>
</g>
</g>
</svg>
