<?xml version="1.0" encoding="UTF-8" standalone="no"?>
<!DOCTYPE svg PUBLIC "-//W3C//DTD SVG 1.1//EN"
 "http://www.w3.org/Graphics/SVG/1.1/DTD/svg11.dtd">
<!-- Generated by graphviz version 8.0.3 (20230416.2022)
 -->
<!-- Pages: 1 -->
<svg width="2038pt" height="672pt"
 viewBox="0.00 0.00 2037.50 671.81" xmlns="http://www.w3.org/2000/svg" xmlns:xlink="http://www.w3.org/1999/xlink">
<g id="graph0" class="graph" transform="scale(1 1) rotate(0) translate(4 667.81)">
<polygon fill="white" stroke="none" points="-4,4 -4,-667.81 2033.5,-667.81 2033.5,4 -4,4"/>
<!-- &#45;7283433983056500281 -->
<g id="node1" class="node">
<title>&#45;7283433983056500281</title>
<polygon fill="none" stroke="black" points="235,-663.81 131,-663.81 131,-627.81 235,-627.81 235,-663.81"/>
<text text-anchor="middle" x="183" y="-642.71" font-family="Times New Roman,serif" font-size="12.00">clickButton[button]</text>
</g>
<!-- &#45;8551108795534898076 -->
<g id="node20" class="node">
<title>&#45;8551108795534898076</title>
<polygon fill="none" stroke="black" points="1487,-578.81 1395,-578.81 1395,-542.81 1487,-542.81 1487,-578.81"/>
<text text-anchor="middle" x="1441" y="-557.71" font-family="Times New Roman,serif" font-size="12.00">selectWorksheet</text>
</g>
<!-- &#45;7283433983056500281&#45;&gt;&#45;8551108795534898076 -->
<g id="edge1" class="edge">
<title>&#45;7283433983056500281&#45;&gt;&#45;8551108795534898076</title>
<path fill="none" stroke="black" d="M235.27,-643.65C433.38,-638.97 1138.82,-619.89 1384.06,-578.85"/>
<polygon fill="black" stroke="black" points="1384.43,-582.16 1393.69,-577 1383.24,-575.26 1384.43,-582.16"/>
<text text-anchor="middle" x="1246.5" y="-600.21" font-family="Times New Roman,serif" font-size="12.00">1s</text>
</g>
<!-- &#45;1283998384867478094 -->
<g id="node2" class="node">
<title>&#45;1283998384867478094</title>
<polygon fill="none" stroke="black" points="801,-206 697,-206 697,-170 801,-170 801,-206"/>
<text text-anchor="middle" x="749" y="-184.9" font-family="Times New Roman,serif" font-size="12.00">clickButton[submit]</text>
</g>
<!-- &#45;2730689910902470226 -->
<g id="node3" class="node">
<title>&#45;2730689910902470226</title>
<polygon fill="none" stroke="black" points="1708,-121 1650,-121 1650,-85 1708,-85 1708,-121"/>
<text text-anchor="middle" x="1679" y="-99.9" font-family="Times New Roman,serif" font-size="12.00">clickLink</text>
</g>
<!-- &#45;1283998384867478094&#45;&gt;&#45;2730689910902470226 -->
<g id="edge2" class="edge">
<title>&#45;1283998384867478094&#45;&gt;&#45;2730689910902470226</title>
<path fill="none" stroke="black" d="M801.29,-179.12C823.11,-176 848.75,-172.56 872,-170 1165.74,-137.71 1521.23,-113.95 1638.99,-106.48"/>
<polygon fill="black" stroke="black" points="1638.87,-109.93 1648.63,-105.81 1638.43,-102.94 1638.87,-109.93"/>
<text text-anchor="middle" x="1188.5" y="-142.4" font-family="Times New Roman,serif" font-size="12.00">1s</text>
</g>
<!-- 1607548953699189687 -->
<g id="node6" class="node">
<title>1607548953699189687</title>
<polygon fill="none" stroke="black" points="2029.5,-36 1944.5,-36 1944.5,0 2029.5,0 2029.5,-36"/>
<text text-anchor="middle" x="1987" y="-14.9" font-family="Times New Roman,serif" font-size="12.00">createNewTab</text>
</g>
<!-- &#45;2730689910902470226&#45;&gt;1607548953699189687 -->
<g id="edge3" class="edge">
<title>&#45;2730689910902470226&#45;&gt;1607548953699189687</title>
<path fill="none" stroke="black" d="M1708.25,-94.12C1759.96,-80.18 1868.19,-51.02 1933.53,-33.41"/>
<polygon fill="black" stroke="black" points="1934.29,-36.56 1943.03,-30.58 1932.46,-29.8 1934.29,-36.56"/>
<text text-anchor="middle" x="1856.5" y="-57.4" font-family="Times New Roman,serif" font-size="12.00">1s</text>
</g>
<!-- 4572600278003539478 -->
<g id="node4" class="node">
<title>4572600278003539478</title>
<polygon fill="none" stroke="black" points="1404.5,-493.81 1347.5,-493.81 1347.5,-457.81 1404.5,-457.81 1404.5,-493.81"/>
<text text-anchor="middle" x="1376" y="-472.71" font-family="Times New Roman,serif" font-size="12.00">copyCell</text>
</g>
<!-- &#45;2828859432936935225 -->
<g id="node19" class="node">
<title>&#45;2828859432936935225</title>
<polygon fill="none" stroke="black" points="1033,-408.81 979,-408.81 979,-372.81 1033,-372.81 1033,-408.81"/>
<text text-anchor="middle" x="1006" y="-387.71" font-family="Times New Roman,serif" font-size="12.00">paste</text>
</g>
<!-- 4572600278003539478&#45;&gt;&#45;2828859432936935225 -->
<g id="edge4" class="edge">
<title>4572600278003539478&#45;&gt;&#45;2828859432936935225</title>
<path fill="none" stroke="black" stroke-width="2.44" d="M1347.27,-468.37C1281.76,-453.67 1121.18,-417.65 1046.02,-400.79"/>
<polygon fill="black" stroke="black" stroke-width="2.44" points="1046.97,-396.74 1036.45,-397.97 1045.44,-403.57 1046.97,-396.74"/>
<text text-anchor="middle" x="1222.5" y="-430.21" font-family="Times New Roman,serif" font-size="12.00">10s</text>
</g>
<!-- &#45;4162420903657016109 -->
<g id="node5" class="node">
<title>&#45;4162420903657016109</title>
<polygon fill="none" stroke="black" points="949,-206 881,-206 881,-170 949,-170 949,-206"/>
<text text-anchor="middle" x="915" y="-184.9" font-family="Times New Roman,serif" font-size="12.00">copyRange</text>
</g>
<!-- &#45;4162420903657016109&#45;&gt;&#45;2828859432936935225 -->
<g id="edge5" class="edge">
<title>&#45;4162420903657016109&#45;&gt;&#45;2828859432936935225</title>
<path fill="none" stroke="black" d="M918.02,-206.37C923.08,-232.81 934.75,-284.26 955,-323.81 962.36,-338.19 972.99,-352.57 982.65,-364.22"/>
<polygon fill="black" stroke="black" points="980.61,-366.23 989.77,-371.55 985.93,-361.68 980.61,-366.23"/>
<text text-anchor="middle" x="960.5" y="-286.31" font-family="Times New Roman,serif" font-size="12.00">1s</text>
</g>
<!-- 1607548953699189687&#45;&gt;&#45;8551108795534898076 -->
<g id="edge6" class="edge">
<title>1607548953699189687&#45;&gt;&#45;8551108795534898076</title>
<path fill="none" stroke="black" d="M1996.48,-36.24C2004.6,-52.64 2015,-78.28 2015,-102 2015,-476.81 2015,-476.81 2015,-476.81 2015,-528.64 1643.73,-550.79 1498.38,-557.47"/>
<polygon fill="black" stroke="black" points="1498.32,-554.02 1488.49,-557.96 1498.63,-561.01 1498.32,-554.02"/>
<text text-anchor="middle" x="2020.5" y="-286.31" font-family="Times New Roman,serif" font-size="12.00">1s</text>
</g>
<!-- 4017203369508189456 -->
<g id="node7" class="node">
<title>4017203369508189456</title>
<polygon fill="none" stroke="black" points="1832.5,-307.41 1695.5,-307.41 1695.5,-271.41 1832.5,-271.41 1832.5,-307.41"/>
<text text-anchor="middle" x="1764" y="-286.31" font-family="Times New Roman,serif" font-size="12.00">editField[q10_bankName]</text>
</g>
<!-- 4017203369508189456&#45;&gt;4572600278003539478 -->
<g id="edge7" class="edge">
<title>4017203369508189456&#45;&gt;4572600278003539478</title>
<path fill="none" stroke="black" d="M1739.67,-307.82C1719.86,-321.56 1690.88,-340.7 1664,-354.81 1578.17,-399.88 1471.59,-440.58 1415.23,-460.99"/>
<polygon fill="black" stroke="black" points="1414.19,-458.01 1405.97,-464.68 1416.57,-464.59 1414.19,-458.01"/>
<text text-anchor="middle" x="1631.5" y="-387.71" font-family="Times New Roman,serif" font-size="12.00">1s</text>
</g>
<!-- 2137833237022894573 -->
<g id="node8" class="node">
<title>2137833237022894573</title>
<polygon fill="none" stroke="black" points="1677,-307.41 1517,-307.41 1517,-271.41 1677,-271.41 1677,-307.41"/>
<text text-anchor="middle" x="1597" y="-286.31" font-family="Times New Roman,serif" font-size="12.00">editField[q11_accountNumber]</text>
</g>
<!-- 2137833237022894573&#45;&gt;4572600278003539478 -->
<g id="edge8" class="edge">
<title>2137833237022894573&#45;&gt;4572600278003539478</title>
<path fill="none" stroke="black" d="M1576.1,-307.84C1536.45,-340.93 1450.22,-412.88 1405,-450.61"/>
<polygon fill="black" stroke="black" points="1403.23,-448.37 1397.79,-457.46 1407.71,-453.74 1403.23,-448.37"/>
<text text-anchor="middle" x="1502.5" y="-387.71" font-family="Times New Roman,serif" font-size="12.00">1s</text>
</g>
<!-- &#45;1548836318819260850 -->
<g id="node9" class="node">
<title>&#45;1548836318819260850</title>
<polygon fill="none" stroke="black" points="395.5,-307.41 190.5,-307.41 190.5,-271.41 395.5,-271.41 395.5,-307.41"/>
<text text-anchor="middle" x="293" y="-286.31" font-family="Times New Roman,serif" font-size="12.00">editField[q12_reimbursementDetails[0][]]</text>
</g>
<!-- &#45;1548836318819260850&#45;&gt;&#45;1283998384867478094 -->
<g id="edge9" class="edge">
<title>&#45;1548836318819260850&#45;&gt;&#45;1283998384867478094</title>
<path fill="none" stroke="black" d="M347.39,-270.99C365.6,-265.48 386.08,-259.62 405,-255 502.29,-231.22 616.77,-210.72 686.06,-199.12"/>
<polygon fill="black" stroke="black" points="686.49,-202.43 695.78,-197.34 685.34,-195.53 686.49,-202.43"/>
<text text-anchor="middle" x="551.5" y="-227.4" font-family="Times New Roman,serif" font-size="12.00">1s</text>
</g>
<!-- &#45;1548836318819260850&#45;&gt;4572600278003539478 -->
<g id="edge10" class="edge">
<title>&#45;1548836318819260850&#45;&gt;4572600278003539478</title>
<path fill="none" stroke="black" d="M304.26,-307.83C315.07,-322.96 332.84,-344.09 354,-354.81 634.73,-497.07 744.21,-405.02 1057,-439.81 1157.66,-451.01 1276.21,-463.95 1336.49,-470.51"/>
<polygon fill="black" stroke="black" points="1336.08,-474.1 1346.4,-471.7 1336.84,-467.14 1336.08,-474.1"/>
<text text-anchor="middle" x="487.5" y="-387.71" font-family="Times New Roman,serif" font-size="12.00">1s</text>
</g>
<!-- &#45;1548836318819260850&#45;&gt;&#45;2828859432936935225 -->
<g id="edge11" class="edge">
<title>&#45;1548836318819260850&#45;&gt;&#45;2828859432936935225</title>
<path fill="none" stroke="black" stroke-width="2.28" d="M343.17,-307.9C362.3,-313.9 384.44,-320.04 405,-323.81 512.83,-343.59 541.96,-330.46 651,-341.81 765.88,-353.77 900.9,-373.64 966.38,-383.65"/>
<polygon fill="black" stroke="black" stroke-width="2.28" points="965.49,-387.51 975.9,-385.57 966.55,-380.59 965.49,-387.51"/>
<text text-anchor="middle" x="764.5" y="-345.21" font-family="Times New Roman,serif" font-size="12.00">9s</text>
</g>
<!-- &#45;7261425491390122994 -->
<g id="node10" class="node">
<title>&#45;7261425491390122994</title>
<polygon fill="none" stroke="black" points="1104.5,-307.41 975.5,-307.41 975.5,-271.41 1104.5,-271.41 1104.5,-307.41"/>
<text text-anchor="middle" x="1040" y="-286.31" font-family="Times New Roman,serif" font-size="12.00">editField[q3_name[first]]</text>
</g>
<!-- &#45;7261425491390122994&#45;&gt;&#45;2828859432936935225 -->
<g id="edge12" class="edge">
<title>&#45;7261425491390122994&#45;&gt;&#45;2828859432936935225</title>
<path fill="none" stroke="black" d="M1034.03,-307.9C1029.61,-320.86 1023.43,-338.94 1018,-354.81 1017.18,-357.22 1016.32,-359.72 1015.46,-362.23"/>
<polygon fill="black" stroke="black" points="1011.92,-360.77 1011.99,-371.37 1018.54,-363.04 1011.92,-360.77"/>
<text text-anchor="middle" x="1028.5" y="-345.21" font-family="Times New Roman,serif" font-size="12.00">1s</text>
</g>
<!-- 1879159653324323843 -->
<g id="node11" class="node">
<title>1879159653324323843</title>
<polygon fill="none" stroke="black" points="1979,-307.41 1851,-307.41 1851,-271.41 1979,-271.41 1979,-307.41"/>
<text text-anchor="middle" x="1915" y="-286.31" font-family="Times New Roman,serif" font-size="12.00">editField[q3_name[last]]</text>
</g>
<!-- 1879159653324323843&#45;&gt;4572600278003539478 -->
<g id="edge13" class="edge">
<title>1879159653324323843&#45;&gt;4572600278003539478</title>
<path fill="none" stroke="black" d="M1877.58,-307.78C1866.19,-313 1853.61,-318.7 1842,-323.81 1753.23,-362.88 1733.01,-378.11 1641,-408.81 1562.27,-435.08 1467.31,-456.29 1415.12,-467.07"/>
<polygon fill="black" stroke="black" points="1414.75,-463.77 1405.65,-469.21 1416.15,-470.63 1414.75,-463.77"/>
<text text-anchor="middle" x="1738.5" y="-387.71" font-family="Times New Roman,serif" font-size="12.00">1s</text>
</g>
<!-- 6075178304717725746 -->
<g id="node12" class="node">
<title>6075178304717725746</title>
<polygon fill="none" stroke="black" points="518,-307.41 414,-307.41 414,-271.41 518,-271.41 518,-307.41"/>
<text text-anchor="middle" x="466" y="-286.31" font-family="Times New Roman,serif" font-size="12.00">editField[q4_email]</text>
</g>
<!-- 6075178304717725746&#45;&gt;4572600278003539478 -->
<g id="edge14" class="edge">
<title>6075178304717725746&#45;&gt;4572600278003539478</title>
<path fill="none" stroke="black" d="M492.98,-307.89C503.26,-313.81 515.32,-319.91 527,-323.81 579.82,-341.47 596.2,-331.89 651,-341.81 788.85,-366.78 821.32,-382.96 959,-408.81 1097.07,-434.73 1262.14,-458.83 1336.38,-469.31"/>
<polygon fill="black" stroke="black" points="1335.7,-472.89 1346.09,-470.82 1336.67,-465.96 1335.7,-472.89"/>
<text text-anchor="middle" x="964.5" y="-387.71" font-family="Times New Roman,serif" font-size="12.00">1s</text>
</g>
<!-- 6411501856739108121 -->
<g id="node13" class="node">
<title>6411501856739108121</title>
<polygon fill="none" stroke="black" points="172,-307.41 0,-307.41 0,-271.41 172,-271.41 172,-307.41"/>
<text text-anchor="middle" x="86" y="-286.31" font-family="Times New Roman,serif" font-size="12.00">editField[q5_address[addr_line1]]</text>
</g>
<!-- 6411501856739108121&#45;&gt;&#45;7283433983056500281 -->
<g id="edge15" class="edge">
<title>6411501856739108121&#45;&gt;&#45;7283433983056500281</title>
<path fill="none" stroke="black" d="M112.97,-307.83C136.53,-325.39 167,-354.86 167,-389.81 167,-561.81 167,-561.81 167,-561.81 167,-580.53 170.97,-601.2 174.96,-617.23"/>
<polygon fill="black" stroke="black" points="171.74,-617.74 177.67,-626.51 178.5,-615.95 171.74,-617.74"/>
<text text-anchor="middle" x="172.5" y="-472.71" font-family="Times New Roman,serif" font-size="12.00">1s</text>
</g>
<!-- &#45;9036171747072133490 -->
<g id="node14" class="node">
<title>&#45;9036171747072133490</title>
<polygon fill="none" stroke="black" points="1332.5,-307.41 1209.5,-307.41 1209.5,-271.41 1332.5,-271.41 1332.5,-307.41"/>
<text text-anchor="middle" x="1271" y="-286.31" font-family="Times New Roman,serif" font-size="12.00">editField[q6_studentId]</text>
</g>
<!-- &#45;9036171747072133490&#45;&gt;4572600278003539478 -->
<g id="edge16" class="edge">
<title>&#45;9036171747072133490&#45;&gt;4572600278003539478</title>
<path fill="none" stroke="black" d="M1280.93,-307.84C1299.34,-340.17 1338.87,-409.61 1360.72,-447.97"/>
<polygon fill="black" stroke="black" points="1358.13,-449.5 1366.12,-456.46 1364.22,-446.04 1358.13,-449.5"/>
<text text-anchor="middle" x="1343.5" y="-387.71" font-family="Times New Roman,serif" font-size="12.00">1s</text>
</g>
<!-- &#45;8142161333965579018 -->
<g id="node15" class="node">
<title>&#45;8142161333965579018</title>
<polygon fill="none" stroke="black" points="909.5,-307.41 736.5,-307.41 736.5,-271.41 909.5,-271.41 909.5,-307.41"/>
<text text-anchor="middle" x="823" y="-286.31" font-family="Times New Roman,serif" font-size="12.00">editField[q7_phoneNumber[area]]</text>
</g>
<!-- &#45;8142161333965579018&#45;&gt;&#45;2828859432936935225 -->
<g id="edge17" class="edge">
<title>&#45;8142161333965579018&#45;&gt;&#45;2828859432936935225</title>
<path fill="none" stroke="black" d="M846.78,-307.89C866.15,-321.67 894.54,-340.83 921,-354.81 936.13,-362.81 953.51,-370.25 968.58,-376.19"/>
<polygon fill="black" stroke="black" points="967.01,-379.72 977.6,-380.06 969.53,-373.19 967.01,-379.72"/>
<text text-anchor="middle" x="926.5" y="-345.21" font-family="Times New Roman,serif" font-size="12.00">1s</text>
</g>
<!-- 7645206821432851380 -->
<g id="node16" class="node">
<title>7645206821432851380</title>
<polygon fill="none" stroke="black" points="718,-307.41 536,-307.41 536,-271.41 718,-271.41 718,-307.41"/>
<text text-anchor="middle" x="627" y="-286.31" font-family="Times New Roman,serif" font-size="12.00">editField[q7_phoneNumber[phone]]</text>
</g>
<!-- 7645206821432851380&#45;&gt;&#45;4162420903657016109 -->
<g id="edge18" class="edge">
<title>7645206821432851380&#45;&gt;&#45;4162420903657016109</title>
<path fill="none" stroke="black" d="M677.5,-270.98C732.13,-252.12 818.4,-222.34 870.55,-204.34"/>
<polygon fill="black" stroke="black" points="871.52,-207.37 879.83,-200.8 869.23,-200.75 871.52,-207.37"/>
<text text-anchor="middle" x="811.5" y="-227.4" font-family="Times New Roman,serif" font-size="12.00">1s</text>
</g>
<!-- 673443513727332637 -->
<g id="node17" class="node">
<title>673443513727332637</title>
<polygon fill="none" stroke="black" points="1499,-307.41 1351,-307.41 1351,-271.41 1499,-271.41 1499,-307.41"/>
<text text-anchor="middle" x="1425" y="-286.31" font-family="Times New Roman,serif" font-size="12.00">editField[q9_accountHolder]</text>
</g>
<!-- 673443513727332637&#45;&gt;4572600278003539478 -->
<g id="edge19" class="edge">
<title>673443513727332637&#45;&gt;4572600278003539478</title>
<path fill="none" stroke="black" d="M1420.37,-307.84C1411.85,-339.9 1393.64,-408.43 1383.39,-446.99"/>
<polygon fill="black" stroke="black" points="1379.8,-445.9 1380.61,-456.46 1386.56,-447.7 1379.8,-445.9"/>
<text text-anchor="middle" x="1407.5" y="-387.71" font-family="Times New Roman,serif" font-size="12.00">1s</text>
</g>
<!-- 1246284287722020625 -->
<g id="node18" class="node">
<title>1246284287722020625</title>
<polygon fill="none" stroke="black" points="1377,-578.81 1309,-578.81 1309,-542.81 1377,-542.81 1377,-578.81"/>
<text text-anchor="middle" x="1343" y="-557.71" font-family="Times New Roman,serif" font-size="12.00">navigate_to</text>
</g>
<!-- 1246284287722020625&#45;&gt;4572600278003539478 -->
<g id="edge20" class="edge">
<title>1246284287722020625&#45;&gt;4572600278003539478</title>
<path fill="none" stroke="black" d="M1349.84,-542.61C1354.23,-531.56 1360.04,-516.95 1365.07,-504.31"/>
<polygon fill="black" stroke="black" points="1368.62,-505.86 1369.06,-495.27 1362.11,-503.27 1368.62,-505.86"/>
<text text-anchor="middle" x="1366.5" y="-515.21" font-family="Times New Roman,serif" font-size="12.00">1s</text>
</g>
<!-- &#45;2828859432936935225&#45;&gt;4017203369508189456 -->
<g id="edge21" class="edge">
<title>&#45;2828859432936935225&#45;&gt;4017203369508189456</title>
<path fill="none" stroke="black" d="M1033.33,-388.06C1102.08,-383.55 1287.72,-370.8 1442,-354.81 1496.37,-349.18 1633.26,-338.15 1686,-323.81 1696.99,-320.82 1708.45,-316.59 1719.1,-312.15"/>
<polygon fill="black" stroke="black" points="1720.24,-315.03 1728.02,-307.85 1717.45,-308.61 1720.24,-315.03"/>
<text text-anchor="middle" x="1575.5" y="-345.21" font-family="Times New Roman,serif" font-size="12.00">1s</text>
</g>
<!-- &#45;2828859432936935225&#45;&gt;2137833237022894573 -->
<g id="edge22" class="edge">
<title>&#45;2828859432936935225&#45;&gt;2137833237022894573</title>
<path fill="none" stroke="black" d="M1033.36,-388.47C1109.61,-384.27 1330.56,-368.8 1508,-323.81 1520.62,-320.61 1533.92,-316.21 1546.28,-311.65"/>
<polygon fill="black" stroke="black" points="1547.29,-314.63 1555.4,-307.81 1544.81,-308.09 1547.29,-314.63"/>
<text text-anchor="middle" x="1432.5" y="-345.21" font-family="Times New Roman,serif" font-size="12.00">1s</text>
</g>
<!-- &#45;2828859432936935225&#45;&gt;&#45;1548836318819260850 -->
<g id="edge23" class="edge">
<title>&#45;2828859432936935225&#45;&gt;&#45;1548836318819260850</title>
<path fill="none" stroke="black" stroke-width="2.6" d="M978.59,-387.68C916.48,-382.75 760.26,-369.84 630,-354.81 579.86,-349.03 454.33,-334.5 405,-323.81 389.51,-320.45 373.04,-316.04 357.64,-311.52"/>
<polygon fill="black" stroke="black" stroke-width="2.6" points="359.14,-308.41 348.55,-308.89 357.12,-315.11 359.14,-308.41"/>
<text text-anchor="middle" x="638.5" y="-345.21" font-family="Times New Roman,serif" font-size="12.00">11s</text>
</g>
<!-- &#45;2828859432936935225&#45;&gt;&#45;7261425491390122994 -->
<g id="edge24" class="edge">
<title>&#45;2828859432936935225&#45;&gt;&#45;7261425491390122994</title>
<path fill="none" stroke="black" d="M1003.05,-372.56C1002.1,-363.26 1001.96,-351.69 1005,-341.81 1007.76,-332.86 1012.66,-324.08 1017.95,-316.37"/>
<polygon fill="black" stroke="black" points="1021.33,-318.69 1024.46,-308.57 1015.7,-314.53 1021.33,-318.69"/>
<text text-anchor="middle" x="1010.5" y="-345.21" font-family="Times New Roman,serif" font-size="12.00">1s</text>
</g>
<!-- &#45;2828859432936935225&#45;&gt;1879159653324323843 -->
<g id="edge25" class="edge">
<title>&#45;2828859432936935225&#45;&gt;1879159653324323843</title>
<path fill="none" stroke="black" d="M1033.26,-388.38C1132.68,-383.13 1475.68,-364.7 1585,-354.81 1699.58,-344.45 1731.26,-355.01 1842,-323.81 1852.26,-320.92 1862.9,-316.78 1872.78,-312.39"/>
<polygon fill="black" stroke="black" points="1874.15,-315.15 1881.75,-307.77 1871.2,-308.8 1874.15,-315.15"/>
<text text-anchor="middle" x="1764.5" y="-345.21" font-family="Times New Roman,serif" font-size="12.00">1s</text>
</g>
<!-- &#45;2828859432936935225&#45;&gt;6075178304717725746 -->
<g id="edge26" class="edge">
<title>&#45;2828859432936935225&#45;&gt;6075178304717725746</title>
<path fill="none" stroke="black" d="M978.82,-387.08C940.06,-382.72 866.97,-372.81 807,-354.81 793.08,-350.63 791.11,-345.27 777,-341.81 668.8,-315.29 633.86,-355.29 527,-323.81 518.35,-321.26 509.56,-317.36 501.45,-313.11"/>
<polygon fill="black" stroke="black" points="503.38,-309.63 492.94,-307.82 499.98,-315.74 503.38,-309.63"/>
<text text-anchor="middle" x="812.5" y="-345.21" font-family="Times New Roman,serif" font-size="12.00">1s</text>
</g>
<!-- &#45;2828859432936935225&#45;&gt;6411501856739108121 -->
<g id="edge27" class="edge">
<title>&#45;2828859432936935225&#45;&gt;6411501856739108121</title>
<path fill="none" stroke="black" d="M978.83,-388.08C845.13,-379.5 260.47,-341.28 181,-323.81 166.98,-320.73 152.19,-316.19 138.56,-311.45"/>
<polygon fill="black" stroke="black" points="139.99,-307.88 129.39,-307.8 137.62,-314.47 139.99,-307.88"/>
<text text-anchor="middle" x="493.5" y="-345.21" font-family="Times New Roman,serif" font-size="12.00">1s</text>
</g>
<!-- &#45;2828859432936935225&#45;&gt;&#45;9036171747072133490 -->
<g id="edge28" class="edge">
<title>&#45;2828859432936935225&#45;&gt;&#45;9036171747072133490</title>
<path fill="none" stroke="black" d="M1033.34,-381.57C1071.22,-369.92 1141.61,-347.39 1200,-323.81 1208.53,-320.36 1217.51,-316.41 1226.1,-312.46"/>
<polygon fill="black" stroke="black" points="1227.38,-315.25 1234.95,-307.85 1224.41,-308.91 1227.38,-315.25"/>
<text text-anchor="middle" x="1158.5" y="-345.21" font-family="Times New Roman,serif" font-size="12.00">1s</text>
</g>
<!-- &#45;2828859432936935225&#45;&gt;&#45;8142161333965579018 -->
<g id="edge29" class="edge">
<title>&#45;2828859432936935225&#45;&gt;&#45;8142161333965579018</title>
<path fill="none" stroke="black" d="M978.64,-386.22C952.75,-381.87 913.57,-372.77 884,-354.81 867.59,-344.84 852.69,-329.3 841.73,-315.99"/>
<polygon fill="black" stroke="black" points="844.07,-314.3 835.12,-308.64 838.58,-318.65 844.07,-314.3"/>
<text text-anchor="middle" x="889.5" y="-345.21" font-family="Times New Roman,serif" font-size="12.00">1s</text>
</g>
<!-- &#45;2828859432936935225&#45;&gt;7645206821432851380 -->
<g id="edge30" class="edge">
<title>&#45;2828859432936935225&#45;&gt;7645206821432851380</title>
<path fill="none" stroke="black" d="M978.6,-385.17C947.48,-379.54 895.39,-369.01 852,-354.81 838.19,-350.29 835.89,-346.08 822,-341.81 780.92,-329.19 768.59,-334.64 727,-323.81 713.31,-320.24 698.77,-315.79 685.14,-311.3"/>
<polygon fill="black" stroke="black" points="686.52,-307.74 675.93,-307.88 684.3,-314.37 686.52,-307.74"/>
<text text-anchor="middle" x="857.5" y="-345.21" font-family="Times New Roman,serif" font-size="12.00">1s</text>
</g>
<!-- &#45;2828859432936935225&#45;&gt;673443513727332637 -->
<g id="edge31" class="edge">
<title>&#45;2828859432936935225&#45;&gt;673443513727332637</title>
<path fill="none" stroke="black" d="M1033.33,-386.17C1090.99,-378.11 1228.98,-356.81 1341,-323.81 1352.41,-320.45 1364.43,-316.15 1375.69,-311.76"/>
<polygon fill="black" stroke="black" points="1376.8,-314.69 1384.79,-307.73 1374.2,-308.19 1376.8,-314.69"/>
<text text-anchor="middle" x="1274.5" y="-345.21" font-family="Times New Roman,serif" font-size="12.00">1s</text>
</g>
<!-- @@endnode -->
<g id="node21" class="node">
<title>@@endnode</title>
<ellipse fill="none" stroke="black" cx="1157" cy="-289.41" rx="30.32" ry="30.32"/>
<ellipse fill="none" stroke="black" cx="1157" cy="-289.41" rx="34.31" ry="34.31"/>
<text text-anchor="start" x="1147" y="-281.31" font-family="Times New Roman,serif" font-size="32.00">■</text>
</g>
<!-- &#45;2828859432936935225&#45;&gt;@@endnode -->
<g id="edge33" class="edge">
<title>&#45;2828859432936935225&#45;&gt;@@endnode</title>
<path fill="none" stroke="black" d="M1033.28,-373.97C1055.19,-361.02 1086.54,-341.95 1113,-323.81 1115.85,-321.86 1118.76,-319.79 1121.67,-317.69"/>
<polygon fill="black" stroke="black" points="1123.34,-320.07 1129.31,-311.32 1119.19,-314.44 1123.34,-320.07"/>
<text text-anchor="middle" x="1088.5" y="-345.21" font-family="Times New Roman,serif" font-size="12.00">1</text>
</g>
<!-- &#45;8551108795534898076&#45;&gt;4572600278003539478 -->
<g id="edge32" class="edge">
<title>&#45;8551108795534898076&#45;&gt;4572600278003539478</title>
<path fill="none" stroke="black" stroke-width="1.16" d="M1427.53,-542.61C1418.53,-531.12 1406.52,-515.78 1396.35,-502.8"/>
<polygon fill="black" stroke="black" stroke-width="1.16" points="1399.6,-500.99 1390.67,-495.27 1394.08,-505.3 1399.6,-500.99"/>
<text text-anchor="middle" x="1417.5" y="-515.21" font-family="Times New Roman,serif" font-size="12.00">2s</text>
</g>
</g>
</svg>
