<?xml version="1.0" encoding="UTF-8" standalone="no"?>
<!DOCTYPE svg PUBLIC "-//W3C//DTD SVG 1.1//EN"
 "http://www.w3.org/Graphics/SVG/1.1/DTD/svg11.dtd">
<!-- Generated by graphviz version 7.1.0 (20230121.1956)
 -->
<!-- Pages: 1 -->
<svg width="103pt" height="332pt"
 viewBox="0.00 0.00 103.41 331.81" xmlns="http://www.w3.org/2000/svg" xmlns:xlink="http://www.w3.org/1999/xlink">
<g id="graph0" class="graph" transform="scale(1 1) rotate(0) translate(4 327.81)">
<polygon fill="white" stroke="none" points="-4,4 -4,-327.81 99.41,-327.81 99.41,4 -4,4"/>
<!-- &#45;3583450983126162731 -->
<g id="node1" class="node">
<title>&#45;3583450983126162731</title>
<polygon fill="none" stroke="black" points="87.5,-323.81 30.5,-323.81 30.5,-287.81 87.5,-287.81 87.5,-323.81"/>
<text text-anchor="middle" x="59" y="-302.71" font-family="Times New Roman,serif" font-size="12.00">copyCell</text>
</g>
<!-- &#45;1724725439285990221 -->
<g id="node3" class="node">
<title>&#45;1724725439285990221</title>
<polygon fill="none" stroke="black" points="54,-238.81 0,-238.81 0,-202.81 54,-202.81 54,-238.81"/>
<text text-anchor="middle" x="27" y="-217.71" font-family="Times New Roman,serif" font-size="12.00">paste</text>
</g>
<!-- &#45;3583450983126162731&#45;&gt;&#45;1724725439285990221 -->
<g id="edge1" class="edge">
<title>&#45;3583450983126162731&#45;&gt;&#45;1724725439285990221</title>
<path fill="none" stroke="black" stroke-width="2.14" d="M52.37,-287.61C48.36,-277.22 43.15,-263.69 38.49,-251.61"/>
<polygon fill="black" stroke="black" stroke-width="2.14" points="41.76,-250.37 34.9,-242.3 35.23,-252.89 41.76,-250.37"/>
<text text-anchor="middle" x="50.5" y="-260.21" font-family="Times New Roman,serif" font-size="12.00">7s</text>
</g>
<!-- 8429278947031473074 -->
<g id="node2" class="node">
<title>8429278947031473074</title>
<polygon fill="none" stroke="black" points="89,-153.81 33,-153.81 33,-117.81 89,-117.81 89,-153.81"/>
<text text-anchor="middle" x="61" y="-132.71" font-family="Times New Roman,serif" font-size="12.00">editField</text>
</g>
<!-- 8429278947031473074&#45;&gt;&#45;3583450983126162731 -->
<g id="edge2" class="edge">
<title>8429278947031473074&#45;&gt;&#45;3583450983126162731</title>
<path fill="none" stroke="black" stroke-width="1.91" d="M61.87,-154.14C62.76,-174.44 63.9,-209.07 63,-238.81 62.64,-250.56 61.93,-263.46 61.21,-274.72"/>
<polygon fill="black" stroke="black" stroke-width="1.91" points="57.73,-274.35 60.54,-284.56 64.71,-274.82 57.73,-274.35"/>
<text text-anchor="middle" x="68.5" y="-217.71" font-family="Times New Roman,serif" font-size="12.00">6s</text>
</g>
<!-- 8429278947031473074&#45;&gt;&#45;1724725439285990221 -->
<g id="edge3" class="edge">
<title>8429278947031473074&#45;&gt;&#45;1724725439285990221</title>
<path fill="none" stroke="black" d="M53.85,-154.27C49.34,-165.27 43.43,-179.71 38.3,-192.23"/>
<polygon fill="black" stroke="black" points="35.17,-190.63 34.62,-201.21 41.65,-193.29 35.17,-190.63"/>
<text text-anchor="middle" x="52.5" y="-175.21" font-family="Times New Roman,serif" font-size="12.00">2s</text>
</g>
<!-- @@endnode -->
<g id="node4" class="node">
<title>@@endnode</title>
<ellipse fill="none" stroke="black" cx="61" cy="-34.41" rx="30.32" ry="30.32"/>
<ellipse fill="none" stroke="black" cx="61" cy="-34.41" rx="34.31" ry="34.31"/>
<text text-anchor="start" x="51" y="-26.31" font-family="Times New Roman,serif" font-size="32.00">■</text>
</g>
<!-- 8429278947031473074&#45;&gt;@@endnode -->
<g id="edge5" class="edge">
<title>8429278947031473074&#45;&gt;@@endnode</title>
<path fill="none" stroke="black" d="M61,-117.5C61,-107.17 61,-93.54 61,-80.36"/>
<polygon fill="black" stroke="black" points="64.5,-80.5 61,-70.5 57.5,-80.5 64.5,-80.5"/>
<text text-anchor="middle" x="64.5" y="-90.21" font-family="Times New Roman,serif" font-size="12.00">1</text>
</g>
<!-- &#45;1724725439285990221&#45;&gt;8429278947031473074 -->
<g id="edge4" class="edge">
<title>&#45;1724725439285990221&#45;&gt;8429278947031473074</title>
<path fill="none" stroke="black" stroke-width="2.6" d="M23.9,-202.32C22.99,-192.95 23.11,-181.39 27,-171.81 27.96,-169.44 29.17,-167.14 30.55,-164.93"/>
<polygon fill="black" stroke="black" stroke-width="2.6" points="33.27,-167.14 36.75,-157.13 27.79,-162.78 33.27,-167.14"/>
<text text-anchor="middle" x="32.5" y="-175.21" font-family="Times New Roman,serif" font-size="12.00">9s</text>
</g>
</g>
</svg>
