<?xml version="1.0" encoding="UTF-8" standalone="no"?>
<!DOCTYPE svg PUBLIC "-//W3C//DTD SVG 1.1//EN"
 "http://www.w3.org/Graphics/SVG/1.1/DTD/svg11.dtd">
<!-- Generated by graphviz version 7.1.0 (20230121.1956)
 -->
<!-- Pages: 1 -->
<svg width="1635pt" height="979pt"
 viewBox="0.00 0.00 1634.50 979.00" xmlns="http://www.w3.org/2000/svg" xmlns:xlink="http://www.w3.org/1999/xlink">
<g id="graph0" class="graph" transform="scale(1 1) rotate(0) translate(4 975)">
<polygon fill="white" stroke="none" points="-4,4 -4,-975 1630.5,-975 1630.5,4 -4,4"/>
<!-- &#45;8421013627638508074 -->
<g id="node1" class="node">
<title>&#45;8421013627638508074</title>
<polygon fill="none" stroke="black" points="1116.5,-971 1012.5,-971 1012.5,-935 1116.5,-935 1116.5,-971"/>
<text text-anchor="middle" x="1064.5" y="-949.9" font-family="Times New Roman,serif" font-size="12.00">clickButton[button]</text>
</g>
<!-- &#45;2342417462293921512 -->
<g id="node32" class="node">
<title>&#45;2342417462293921512</title>
<polygon fill="none" stroke="black" points="1110.5,-886 1018.5,-886 1018.5,-850 1110.5,-850 1110.5,-886"/>
<text text-anchor="middle" x="1064.5" y="-864.9" font-family="Times New Roman,serif" font-size="12.00">selectWorksheet</text>
</g>
<!-- &#45;8421013627638508074&#45;&gt;&#45;2342417462293921512 -->
<g id="edge1" class="edge">
<title>&#45;8421013627638508074&#45;&gt;&#45;2342417462293921512</title>
<path fill="none" stroke="black" stroke-width="1.17" d="M1064.5,-934.8C1064.5,-924.19 1064.5,-910.3 1064.5,-898.02"/>
<polygon fill="black" stroke="black" stroke-width="1.17" points="1068,-898.24 1064.5,-888.24 1061,-898.24 1068,-898.24"/>
<text text-anchor="middle" x="1073" y="-907.4" font-family="Times New Roman,serif" font-size="12.00">50s</text>
</g>
<!-- 8659733819878033834 -->
<g id="node2" class="node">
<title>8659733819878033834</title>
<polygon fill="none" stroke="black" points="1626.5,-206 1522.5,-206 1522.5,-170 1626.5,-170 1626.5,-206"/>
<text text-anchor="middle" x="1574.5" y="-184.9" font-family="Times New Roman,serif" font-size="12.00">clickButton[submit]</text>
</g>
<!-- 1054217341451333691 -->
<g id="node3" class="node">
<title>1054217341451333691</title>
<polygon fill="none" stroke="black" points="1429.5,-121 1371.5,-121 1371.5,-85 1429.5,-85 1429.5,-121"/>
<text text-anchor="middle" x="1400.5" y="-99.9" font-family="Times New Roman,serif" font-size="12.00">clickLink</text>
</g>
<!-- 8659733819878033834&#45;&gt;1054217341451333691 -->
<g id="edge2" class="edge">
<title>8659733819878033834&#45;&gt;1054217341451333691</title>
<path fill="none" stroke="black" stroke-width="1.17" d="M1554.2,-169.64C1541.68,-159.61 1524.91,-147.36 1508.5,-139 1487.26,-128.18 1461.99,-119.77 1441.23,-113.91"/>
<polygon fill="black" stroke="black" stroke-width="1.17" points="1442.18,-110.55 1431.61,-111.3 1440.35,-117.3 1442.18,-110.55"/>
<text text-anchor="middle" x="1538" y="-142.4" font-family="Times New Roman,serif" font-size="12.00">49s</text>
</g>
<!-- &#45;6686815318746011082 -->
<g id="node6" class="node">
<title>&#45;6686815318746011082</title>
<polygon fill="none" stroke="black" points="85,-36 0,-36 0,0 85,0 85,-36"/>
<text text-anchor="middle" x="42.5" y="-14.9" font-family="Times New Roman,serif" font-size="12.00">createNewTab</text>
</g>
<!-- 1054217341451333691&#45;&gt;&#45;6686815318746011082 -->
<g id="edge3" class="edge">
<title>1054217341451333691&#45;&gt;&#45;6686815318746011082</title>
<path fill="none" stroke="black" stroke-width="1.17" d="M1371.06,-99.05C1333.91,-95.39 1268.01,-89.14 1211.5,-85 782.34,-53.59 263.61,-29 96.88,-21.43"/>
<polygon fill="black" stroke="black" stroke-width="1.17" points="97.18,-17.94 87.03,-20.98 96.86,-24.93 97.18,-17.94"/>
<text text-anchor="middle" x="931" y="-57.4" font-family="Times New Roman,serif" font-size="12.00">49s</text>
</g>
<!-- &#45;349242997702854405 -->
<g id="node4" class="node">
<title>&#45;349242997702854405</title>
<polygon fill="none" stroke="black" points="826,-801 769,-801 769,-765 826,-765 826,-801"/>
<text text-anchor="middle" x="797.5" y="-779.9" font-family="Times New Roman,serif" font-size="12.00">copyCell</text>
</g>
<!-- &#45;349242997702854405&#45;&gt;&#45;349242997702854405 -->
<g id="edge4" class="edge">
<title>&#45;349242997702854405&#45;&gt;&#45;349242997702854405</title>
<path fill="none" stroke="black" d="M826.11,-790.97C836.01,-791.05 844,-788.4 844,-783 844,-779.97 841.47,-777.8 837.5,-776.5"/>
<polygon fill="black" stroke="black" points="837.97,-773.03 827.61,-775.23 837.08,-779.97 837.97,-773.03"/>
<text text-anchor="middle" x="849.5" y="-779.9" font-family="Times New Roman,serif" font-size="12.00">1s</text>
</g>
<!-- &#45;2337737116181962960 -->
<g id="node5" class="node">
<title>&#45;2337737116181962960</title>
<polygon fill="none" stroke="black" points="620.5,-376 552.5,-376 552.5,-340 620.5,-340 620.5,-376"/>
<text text-anchor="middle" x="586.5" y="-354.9" font-family="Times New Roman,serif" font-size="12.00">copyRange</text>
</g>
<!-- &#45;349242997702854405&#45;&gt;&#45;2337737116181962960 -->
<g id="edge5" class="edge">
<title>&#45;349242997702854405&#45;&gt;&#45;2337737116181962960</title>
<path fill="none" stroke="black" d="M768.66,-781.37C737,-779.36 685.94,-772.08 650.5,-747 602.93,-713.34 586.5,-625.56 586.5,-571.5 586.5,-571.5 586.5,-571.5 586.5,-442 586.5,-423.97 586.5,-403.74 586.5,-387.77"/>
<polygon fill="black" stroke="black" points="590,-388 586.5,-378 583,-388 590,-388"/>
<text text-anchor="middle" x="593" y="-567.4" font-family="Times New Roman,serif" font-size="12.00">1s</text>
</g>
<!-- 3670417997280707311 -->
<g id="node18" class="node">
<title>3670417997280707311</title>
<polygon fill="none" stroke="black" points="852.5,-461 798.5,-461 798.5,-425 852.5,-425 852.5,-461"/>
<text text-anchor="middle" x="825.5" y="-439.9" font-family="Times New Roman,serif" font-size="12.00">getCell</text>
</g>
<!-- &#45;349242997702854405&#45;&gt;3670417997280707311 -->
<g id="edge6" class="edge">
<title>&#45;349242997702854405&#45;&gt;3670417997280707311</title>
<path fill="none" stroke="black" d="M798.93,-764.77C803.45,-710.19 817.49,-540.67 823.13,-472.66"/>
<polygon fill="black" stroke="black" points="826.61,-472.95 823.95,-462.7 819.64,-472.38 826.61,-472.95"/>
<text text-anchor="middle" x="818" y="-609.9" font-family="Times New Roman,serif" font-size="12.00">1s</text>
</g>
<!-- 4744432682323570212 -->
<g id="node21" class="node">
<title>4744432682323570212</title>
<polygon fill="none" stroke="black" points="968.5,-716 846.5,-716 846.5,-680 968.5,-680 968.5,-716"/>
<text text-anchor="middle" x="907.5" y="-694.9" font-family="Times New Roman,serif" font-size="12.00">paste[q10_bankName]</text>
</g>
<!-- &#45;349242997702854405&#45;&gt;4744432682323570212 -->
<g id="edge7" class="edge">
<title>&#45;349242997702854405&#45;&gt;4744432682323570212</title>
<path fill="none" stroke="black" stroke-width="1.17" d="M820.56,-764.6C836.4,-752.65 857.65,-736.61 875.18,-723.39"/>
<polygon fill="black" stroke="black" stroke-width="1.17" points="877.18,-726.26 883.05,-717.45 872.96,-720.68 877.18,-726.26"/>
<text text-anchor="middle" x="867" y="-737.4" font-family="Times New Roman,serif" font-size="12.00">50s</text>
</g>
<!-- 4604581665166516345 -->
<g id="node22" class="node">
<title>4604581665166516345</title>
<polygon fill="none" stroke="black" points="1299,-716 1154,-716 1154,-680 1299,-680 1299,-716"/>
<text text-anchor="middle" x="1226.5" y="-694.9" font-family="Times New Roman,serif" font-size="12.00">paste[q11_accountNumber]</text>
</g>
<!-- &#45;349242997702854405&#45;&gt;4604581665166516345 -->
<g id="edge8" class="edge">
<title>&#45;349242997702854405&#45;&gt;4604581665166516345</title>
<path fill="none" stroke="black" stroke-width="1.17" d="M826.38,-780.53C897.83,-776.66 1081.25,-765.21 1139.5,-747 1157.73,-741.3 1176.47,-731.55 1191.87,-722.32"/>
<polygon fill="black" stroke="black" stroke-width="1.17" points="1193.29,-725.55 1199.95,-717.31 1189.61,-719.6 1193.29,-725.55"/>
<text text-anchor="middle" x="1178" y="-737.4" font-family="Times New Roman,serif" font-size="12.00">50s</text>
</g>
<!-- 1955449513403805491 -->
<g id="node23" class="node">
<title>1955449513403805491</title>
<polygon fill="none" stroke="black" points="1361.5,-376 1171.5,-376 1171.5,-340 1361.5,-340 1361.5,-376"/>
<text text-anchor="middle" x="1266.5" y="-354.9" font-family="Times New Roman,serif" font-size="12.00">paste[q12_reimbursementDetails[0][]]</text>
</g>
<!-- &#45;349242997702854405&#45;&gt;1955449513403805491 -->
<g id="edge9" class="edge">
<title>&#45;349242997702854405&#45;&gt;1955449513403805491</title>
<path fill="none" stroke="black" stroke-width="1.34" d="M826.45,-782.57C899.2,-783.4 1095.13,-781.92 1253.5,-747 1312.43,-734.01 1380.5,-759.34 1380.5,-699 1380.5,-699 1380.5,-699 1380.5,-442 1380.5,-414.15 1357.99,-394.66 1332.98,-381.61"/>
<polygon fill="black" stroke="black" stroke-width="1.34" points="1334.52,-378.46 1323.99,-377.28 1331.48,-384.77 1334.52,-378.46"/>
<text text-anchor="middle" x="1388" y="-567.4" font-family="Times New Roman,serif" font-size="12.00">1m</text>
</g>
<!-- &#45;802786066028636207 -->
<g id="node24" class="node">
<title>&#45;802786066028636207</title>
<polygon fill="none" stroke="black" points="313.5,-716 199.5,-716 199.5,-680 313.5,-680 313.5,-716"/>
<text text-anchor="middle" x="256.5" y="-694.9" font-family="Times New Roman,serif" font-size="12.00">paste[q3_name[first]]</text>
</g>
<!-- &#45;349242997702854405&#45;&gt;&#45;802786066028636207 -->
<g id="edge10" class="edge">
<title>&#45;349242997702854405&#45;&gt;&#45;802786066028636207</title>
<path fill="none" stroke="black" stroke-width="1.17" d="M768.52,-782.06C677.96,-781.9 401.42,-778.77 318.5,-747 305.13,-741.88 292.28,-732.86 281.78,-724.01"/>
<polygon fill="black" stroke="black" stroke-width="1.17" points="284.33,-721.6 274.53,-717.57 279.68,-726.83 284.33,-721.6"/>
<text text-anchor="middle" x="327" y="-737.4" font-family="Times New Roman,serif" font-size="12.00">50s</text>
</g>
<!-- 5504490665134479466 -->
<g id="node26" class="node">
<title>5504490665134479466</title>
<polygon fill="none" stroke="black" points="310,-291 221,-291 221,-255 310,-255 310,-291"/>
<text text-anchor="middle" x="265.5" y="-269.9" font-family="Times New Roman,serif" font-size="12.00">paste[q4_email]</text>
</g>
<!-- &#45;349242997702854405&#45;&gt;5504490665134479466 -->
<g id="edge11" class="edge">
<title>&#45;349242997702854405&#45;&gt;5504490665134479466</title>
<path fill="none" stroke="black" stroke-width="1.18" d="M768.74,-782.27C691.17,-782.5 471.41,-779.95 292.5,-747 245.9,-738.42 222.13,-751.28 190.5,-716 174.27,-697.9 156.5,-523.1 156.5,-486.5 156.5,-486.5 156.5,-486.5 156.5,-357 156.5,-326.97 183.01,-306.38 209.88,-293.21"/>
<polygon fill="black" stroke="black" stroke-width="1.18" points="211.26,-296.43 218.91,-289.1 208.36,-290.06 211.26,-296.43"/>
<text text-anchor="middle" x="169" y="-524.9" font-family="Times New Roman,serif" font-size="12.00">51s</text>
</g>
<!-- 4004908014844761737 -->
<g id="node28" class="node">
<title>4004908014844761737</title>
<polygon fill="none" stroke="black" points="790.5,-716 682.5,-716 682.5,-680 790.5,-680 790.5,-716"/>
<text text-anchor="middle" x="736.5" y="-694.9" font-family="Times New Roman,serif" font-size="12.00">paste[q6_studentId]</text>
</g>
<!-- &#45;349242997702854405&#45;&gt;4004908014844761737 -->
<g id="edge12" class="edge">
<title>&#45;349242997702854405&#45;&gt;4004908014844761737</title>
<path fill="none" stroke="black" stroke-width="1.17" d="M784.86,-764.8C776.57,-753.53 765.57,-738.56 756.15,-725.74"/>
<polygon fill="black" stroke="black" stroke-width="1.17" points="759.13,-723.88 750.39,-717.89 753.49,-728.02 759.13,-723.88"/>
<text text-anchor="middle" x="779" y="-737.4" font-family="Times New Roman,serif" font-size="12.00">50s</text>
</g>
<!-- 2070911815398967774 -->
<g id="node29" class="node">
<title>2070911815398967774</title>
<polygon fill="none" stroke="black" points="535.5,-716 377.5,-716 377.5,-680 535.5,-680 535.5,-716"/>
<text text-anchor="middle" x="456.5" y="-694.9" font-family="Times New Roman,serif" font-size="12.00">paste[q7_phoneNumber[area]]</text>
</g>
<!-- &#45;349242997702854405&#45;&gt;2070911815398967774 -->
<g id="edge13" class="edge">
<title>&#45;349242997702854405&#45;&gt;2070911815398967774</title>
<path fill="none" stroke="black" stroke-width="1.17" d="M768.7,-782.19C719,-781.65 614.53,-776.7 532.5,-747 516.83,-741.33 501.01,-732.04 487.89,-723.13"/>
<polygon fill="black" stroke="black" stroke-width="1.17" points="490.08,-720.39 479.89,-717.49 486.04,-726.11 490.08,-720.39"/>
<text text-anchor="middle" x="541" y="-737.4" font-family="Times New Roman,serif" font-size="12.00">50s</text>
</g>
<!-- 5144228901829614650 -->
<g id="node31" class="node">
<title>5144228901829614650</title>
<polygon fill="none" stroke="black" points="892,-376 759,-376 759,-340 892,-340 892,-376"/>
<text text-anchor="middle" x="825.5" y="-354.9" font-family="Times New Roman,serif" font-size="12.00">paste[q9_accountHolder]</text>
</g>
<!-- &#45;349242997702854405&#45;&gt;5144228901829614650 -->
<g id="edge14" class="edge">
<title>&#45;349242997702854405&#45;&gt;5144228901829614650</title>
<path fill="none" stroke="black" stroke-width="1.17" d="M768.7,-779.71C741.1,-776.3 699.33,-767.86 669.5,-747 613.66,-707.95 636.51,-661.89 649.5,-595 657.19,-555.37 660.03,-544.18 681.5,-510 713.07,-459.75 763.21,-411.97 795.22,-384.08"/>
<polygon fill="black" stroke="black" stroke-width="1.17" points="797.48,-386.75 802.79,-377.58 792.92,-381.44 797.48,-386.75"/>
<text text-anchor="middle" x="665" y="-567.4" font-family="Times New Roman,serif" font-size="12.00">49s</text>
</g>
<!-- &#45;2337737116181962960&#45;&gt;5504490665134479466 -->
<g id="edge15" class="edge">
<title>&#45;2337737116181962960&#45;&gt;5504490665134479466</title>
<path fill="none" stroke="black" d="M552.15,-348.12C496.95,-333.85 387.99,-305.67 321.46,-288.47"/>
<polygon fill="black" stroke="black" points="322.38,-285.09 311.82,-285.98 320.63,-291.87 322.38,-285.09"/>
<text text-anchor="middle" x="451" y="-312.4" font-family="Times New Roman,serif" font-size="12.00">1s</text>
</g>
<!-- &#45;7686844205181626037 -->
<g id="node27" class="node">
<title>&#45;7686844205181626037</title>
<polygon fill="none" stroke="black" points="665,-206 508,-206 508,-170 665,-170 665,-206"/>
<text text-anchor="middle" x="586.5" y="-184.9" font-family="Times New Roman,serif" font-size="12.00">paste[q5_address[addr_line1]]</text>
</g>
<!-- &#45;2337737116181962960&#45;&gt;&#45;7686844205181626037 -->
<g id="edge16" class="edge">
<title>&#45;2337737116181962960&#45;&gt;&#45;7686844205181626037</title>
<path fill="none" stroke="black" stroke-width="1.17" d="M586.5,-339.65C586.5,-310.83 586.5,-252.79 586.5,-217.77"/>
<polygon fill="black" stroke="black" stroke-width="1.17" points="590,-217.77 586.5,-207.77 583,-217.77 590,-217.77"/>
<text text-anchor="middle" x="595" y="-269.9" font-family="Times New Roman,serif" font-size="12.00">49s</text>
</g>
<!-- &#45;6686815318746011082&#45;&gt;&#45;2342417462293921512 -->
<g id="edge17" class="edge">
<title>&#45;6686815318746011082&#45;&gt;&#45;2342417462293921512</title>
<path fill="none" stroke="black" stroke-width="1.17" d="M37.17,-36.3C32.52,-52.96 26.5,-78.96 26.5,-102 26.5,-656.5 26.5,-656.5 26.5,-656.5 26.5,-685.01 28.84,-697.45 50.5,-716 96.6,-755.48 123.81,-736 183.5,-747 492.11,-803.85 866.12,-846.08 1007.07,-861.06"/>
<polygon fill="black" stroke="black" stroke-width="1.17" points="1006.33,-864.5 1016.64,-862.08 1007.06,-857.54 1006.33,-864.5"/>
<text text-anchor="middle" x="35" y="-439.9" font-family="Times New Roman,serif" font-size="12.00">49s</text>
</g>
<!-- &#45;3417061393049347223 -->
<g id="node7" class="node">
<title>&#45;3417061393049347223</title>
<polygon fill="none" stroke="black" points="1006,-631 869,-631 869,-595 1006,-595 1006,-631"/>
<text text-anchor="middle" x="937.5" y="-609.9" font-family="Times New Roman,serif" font-size="12.00">editField[q10_bankName]</text>
</g>
<!-- &#45;3417061393049347223&#45;&gt;&#45;349242997702854405 -->
<g id="edge18" class="edge">
<title>&#45;3417061393049347223&#45;&gt;&#45;349242997702854405</title>
<path fill="none" stroke="black" stroke-width="1.17" d="M953.96,-631.45C972.02,-652.78 996.12,-689.33 977.5,-716 946.12,-760.93 880.66,-775.36 837.93,-779.95"/>
<polygon fill="black" stroke="black" stroke-width="1.17" points="837.67,-776.46 828.03,-780.85 838.3,-783.43 837.67,-776.46"/>
<text text-anchor="middle" x="992" y="-694.9" font-family="Times New Roman,serif" font-size="12.00">50s</text>
</g>
<!-- &#45;4003299731570885441 -->
<g id="node8" class="node">
<title>&#45;4003299731570885441</title>
<polygon fill="none" stroke="black" points="1346.5,-631 1186.5,-631 1186.5,-595 1346.5,-595 1346.5,-631"/>
<text text-anchor="middle" x="1266.5" y="-609.9" font-family="Times New Roman,serif" font-size="12.00">editField[q11_accountNumber]</text>
</g>
<!-- &#45;4003299731570885441&#45;&gt;&#45;349242997702854405 -->
<g id="edge19" class="edge">
<title>&#45;4003299731570885441&#45;&gt;&#45;349242997702854405</title>
<path fill="none" stroke="black" stroke-width="1.16" d="M1283.6,-631.31C1302.74,-652.84 1328.62,-689.92 1308.5,-716 1279.78,-753.24 953.38,-773.84 837.78,-780"/>
<polygon fill="black" stroke="black" stroke-width="1.16" points="837.88,-776.49 828.08,-780.51 838.25,-783.48 837.88,-776.49"/>
<text text-anchor="middle" x="1324" y="-694.9" font-family="Times New Roman,serif" font-size="12.00">47s</text>
</g>
<!-- &#45;4003299731570885441&#45;&gt;1955449513403805491 -->
<g id="edge20" class="edge">
<title>&#45;4003299731570885441&#45;&gt;1955449513403805491</title>
<path fill="none" stroke="black" stroke-width="1.01" d="M1266.5,-594.61C1266.5,-551.72 1266.5,-440.53 1266.5,-387.69"/>
<polygon fill="black" stroke="black" stroke-width="1.01" points="1270,-387.7 1266.5,-377.7 1263,-387.7 1270,-387.7"/>
<text text-anchor="middle" x="1272" y="-482.4" font-family="Times New Roman,serif" font-size="12.00">3s</text>
</g>
<!-- &#45;3774925265531423684 -->
<g id="node9" class="node">
<title>&#45;3774925265531423684</title>
<polygon fill="none" stroke="black" points="1369,-291 1164,-291 1164,-255 1369,-255 1369,-291"/>
<text text-anchor="middle" x="1266.5" y="-269.9" font-family="Times New Roman,serif" font-size="12.00">editField[q12_reimbursementDetails[0][]]</text>
</g>
<!-- &#45;3774925265531423684&#45;&gt;8659733819878033834 -->
<g id="edge21" class="edge">
<title>&#45;3774925265531423684&#45;&gt;8659733819878033834</title>
<path fill="none" stroke="black" stroke-width="1.17" d="M1331.07,-254.6C1383.98,-240.34 1458.46,-220.27 1511.07,-206.09"/>
<polygon fill="black" stroke="black" stroke-width="1.17" points="1511.82,-209.52 1520.57,-203.53 1510,-202.76 1511.82,-209.52"/>
<text text-anchor="middle" x="1447" y="-227.4" font-family="Times New Roman,serif" font-size="12.00">49s</text>
</g>
<!-- &#45;3774925265531423684&#45;&gt;&#45;349242997702854405 -->
<g id="edge22" class="edge">
<title>&#45;3774925265531423684&#45;&gt;&#45;349242997702854405</title>
<path fill="none" stroke="black" stroke-width="1.18" d="M1194.55,-291.43C1163.21,-303.72 1133.5,-324.07 1133.5,-357 1133.5,-486.5 1133.5,-486.5 1133.5,-486.5 1133.5,-603.15 1184.3,-664.83 1101.5,-747 1083.1,-765.27 915.96,-776.03 837.65,-780.11"/>
<polygon fill="black" stroke="black" stroke-width="1.18" points="837.91,-776.59 828.1,-780.59 838.27,-783.58 837.91,-776.59"/>
<text text-anchor="middle" x="1145" y="-524.9" font-family="Times New Roman,serif" font-size="12.00">51s</text>
</g>
<!-- &#45;3774925265531423684&#45;&gt;1955449513403805491 -->
<g id="edge23" class="edge">
<title>&#45;3774925265531423684&#45;&gt;1955449513403805491</title>
<path fill="none" stroke="black" stroke-width="2.24" d="M1266.5,-291.46C1266.5,-301.68 1266.5,-314.87 1266.5,-326.74"/>
<polygon fill="black" stroke="black" stroke-width="2.24" points="1263,-326.41 1266.5,-336.41 1270,-326.41 1263,-326.41"/>
<text text-anchor="middle" x="1274" y="-312.4" font-family="Times New Roman,serif" font-size="12.00">5m</text>
</g>
<!-- 5148547196844223595 -->
<g id="node10" class="node">
<title>5148547196844223595</title>
<polygon fill="none" stroke="black" points="313,-631 184,-631 184,-595 313,-595 313,-631"/>
<text text-anchor="middle" x="248.5" y="-609.9" font-family="Times New Roman,serif" font-size="12.00">editField[q3_name[first]]</text>
</g>
<!-- &#45;4040636298552314058 -->
<g id="node25" class="node">
<title>&#45;4040636298552314058</title>
<polygon fill="none" stroke="black" points="305,-546 192,-546 192,-510 305,-510 305,-546"/>
<text text-anchor="middle" x="248.5" y="-524.9" font-family="Times New Roman,serif" font-size="12.00">paste[q3_name[last]]</text>
</g>
<!-- 5148547196844223595&#45;&gt;&#45;4040636298552314058 -->
<g id="edge24" class="edge">
<title>5148547196844223595&#45;&gt;&#45;4040636298552314058</title>
<path fill="none" stroke="black" stroke-width="1.17" d="M248.5,-594.8C248.5,-584.19 248.5,-570.3 248.5,-558.02"/>
<polygon fill="black" stroke="black" stroke-width="1.17" points="252,-558.24 248.5,-548.24 245,-558.24 252,-558.24"/>
<text text-anchor="middle" x="257" y="-567.4" font-family="Times New Roman,serif" font-size="12.00">50s</text>
</g>
<!-- 3768362607462934485 -->
<g id="node11" class="node">
<title>3768362607462934485</title>
<polygon fill="none" stroke="black" points="558.5,-461 430.5,-461 430.5,-425 558.5,-425 558.5,-461"/>
<text text-anchor="middle" x="494.5" y="-439.9" font-family="Times New Roman,serif" font-size="12.00">editField[q3_name[last]]</text>
</g>
<!-- 3768362607462934485&#45;&gt;&#45;349242997702854405 -->
<g id="edge25" class="edge">
<title>3768362607462934485&#45;&gt;&#45;349242997702854405</title>
<path fill="none" stroke="black" stroke-width="1.17" d="M501.24,-461.16C508.67,-483.2 517.26,-521.53 498.5,-546 479.74,-570.47 460.65,-553.95 431.5,-564 398.18,-575.49 377.95,-565.61 358.5,-595 328.72,-640 332.5,-675.8 368.5,-716 419.6,-773.07 660.1,-781.12 756.95,-782.02"/>
<polygon fill="black" stroke="black" stroke-width="1.17" points="756.76,-785.51 766.78,-782.08 756.81,-778.51 756.76,-785.51"/>
<text text-anchor="middle" x="367" y="-609.9" font-family="Times New Roman,serif" font-size="12.00">50s</text>
</g>
<!-- &#45;6653035453324865092 -->
<g id="node12" class="node">
<title>&#45;6653035453324865092</title>
<polygon fill="none" stroke="black" points="190.5,-206 86.5,-206 86.5,-170 190.5,-170 190.5,-206"/>
<text text-anchor="middle" x="138.5" y="-184.9" font-family="Times New Roman,serif" font-size="12.00">editField[q4_email]</text>
</g>
<!-- &#45;6653035453324865092&#45;&gt;&#45;349242997702854405 -->
<g id="edge26" class="edge">
<title>&#45;6653035453324865092&#45;&gt;&#45;349242997702854405</title>
<path fill="none" stroke="black" stroke-width="1.18" d="M129.02,-206.24C120.9,-222.64 110.5,-248.28 110.5,-272 110.5,-486.5 110.5,-486.5 110.5,-486.5 110.5,-525.77 104.73,-702.3 208.5,-747 258.52,-768.55 631.91,-778.45 756.89,-781.18"/>
<polygon fill="black" stroke="black" stroke-width="1.18" points="756.67,-784.68 766.74,-781.39 756.82,-777.68 756.67,-784.68"/>
<text text-anchor="middle" x="119" y="-482.4" font-family="Times New Roman,serif" font-size="12.00">51s</text>
</g>
<!-- 6507740163502519239 -->
<g id="node13" class="node">
<title>6507740163502519239</title>
<polygon fill="none" stroke="black" points="1173.5,-121 1001.5,-121 1001.5,-85 1173.5,-85 1173.5,-121"/>
<text text-anchor="middle" x="1087.5" y="-99.9" font-family="Times New Roman,serif" font-size="12.00">editField[q5_address[addr_line1]]</text>
</g>
<!-- 6507740163502519239&#45;&gt;&#45;8421013627638508074 -->
<g id="edge27" class="edge">
<title>6507740163502519239&#45;&gt;&#45;8421013627638508074</title>
<path fill="none" stroke="black" stroke-width="1.06" d="M1173.81,-113.02C1293.29,-126.7 1494.5,-154.55 1494.5,-187 1494.5,-869 1494.5,-869 1494.5,-869 1494.5,-942.67 1248.08,-952.37 1128.32,-952.73"/>
<polygon fill="black" stroke="black" stroke-width="1.06" points="1128.4,-949.23 1118.41,-952.74 1128.41,-956.23 1128.4,-949.23"/>
<text text-anchor="middle" x="1503" y="-524.9" font-family="Times New Roman,serif" font-size="12.00">19s</text>
</g>
<!-- 6507740163502519239&#45;&gt;&#45;349242997702854405 -->
<g id="edge28" class="edge">
<title>6507740163502519239&#45;&gt;&#45;349242997702854405</title>
<path fill="none" stroke="black" stroke-width="1.11" d="M1087.5,-121.49C1087.5,-138.28 1087.5,-164.38 1087.5,-187 1087.5,-699 1087.5,-699 1087.5,-699 1087.5,-750.31 917.61,-771.7 837.89,-778.91"/>
<polygon fill="black" stroke="black" stroke-width="1.11" points="837.69,-775.41 828.03,-779.77 838.3,-782.39 837.69,-775.41"/>
<text text-anchor="middle" x="1096" y="-439.9" font-family="Times New Roman,serif" font-size="12.00">31s</text>
</g>
<!-- 6507740163502519239&#45;&gt;6507740163502519239 -->
<g id="edge29" class="edge">
<title>6507740163502519239&#45;&gt;6507740163502519239</title>
<path fill="none" stroke="black" d="M1173.97,-109.89C1184.56,-108.66 1191.5,-106.36 1191.5,-103 1191.5,-101.06 1189.18,-99.47 1185.18,-98.24"/>
<polygon fill="black" stroke="black" points="1185.94,-94.82 1175.46,-96.39 1184.63,-101.69 1185.94,-94.82"/>
<text text-anchor="middle" x="1197" y="-99.9" font-family="Times New Roman,serif" font-size="12.00">1s</text>
</g>
<!-- &#45;5763552913299528894 -->
<g id="node14" class="node">
<title>&#45;5763552913299528894</title>
<polygon fill="none" stroke="black" points="782,-631 659,-631 659,-595 782,-595 782,-631"/>
<text text-anchor="middle" x="720.5" y="-609.9" font-family="Times New Roman,serif" font-size="12.00">editField[q6_studentId]</text>
</g>
<!-- &#45;5763552913299528894&#45;&gt;&#45;349242997702854405 -->
<g id="edge30" class="edge">
<title>&#45;5763552913299528894&#45;&gt;&#45;349242997702854405</title>
<path fill="none" stroke="black" stroke-width="1.07" d="M696.33,-631.37C671.1,-651.7 637.65,-686.37 656.5,-716 678.49,-750.58 723.9,-767.35 757.26,-775.28"/>
<polygon fill="black" stroke="black" stroke-width="1.07" points="756.41,-778.67 766.93,-777.38 757.9,-771.83 756.41,-778.67"/>
<text text-anchor="middle" x="665" y="-694.9" font-family="Times New Roman,serif" font-size="12.00">20s</text>
</g>
<!-- &#45;5763552913299528894&#45;&gt;&#45;2337737116181962960 -->
<g id="edge31" class="edge">
<title>&#45;5763552913299528894&#45;&gt;&#45;2337737116181962960</title>
<path fill="none" stroke="black" stroke-width="1.09" d="M709.76,-594.53C701.75,-581.32 690.66,-562.69 681.5,-546 650.94,-490.31 617.91,-423.68 599.97,-386.88"/>
<polygon fill="black" stroke="black" stroke-width="1.09" points="603.15,-385.42 595.63,-377.95 596.86,-388.48 603.15,-385.42"/>
<text text-anchor="middle" x="661" y="-482.4" font-family="Times New Roman,serif" font-size="12.00">27s</text>
</g>
<!-- &#45;5763552913299528894&#45;&gt;3670417997280707311 -->
<g id="edge32" class="edge">
<title>&#45;5763552913299528894&#45;&gt;3670417997280707311</title>
<path fill="none" stroke="black" d="M731.34,-594.65C749.75,-565.2 787.23,-505.23 808.94,-470.5"/>
<polygon fill="black" stroke="black" points="811.74,-472.62 814.07,-462.29 805.8,-468.91 811.74,-472.62"/>
<text text-anchor="middle" x="788" y="-524.9" font-family="Times New Roman,serif" font-size="12.00">2s</text>
</g>
<!-- &#45;5435049042536943609 -->
<g id="node19" class="node">
<title>&#45;5435049042536943609</title>
<polygon fill="none" stroke="black" points="750,-546 691,-546 691,-510 750,-510 750,-546"/>
<text text-anchor="middle" x="720.5" y="-524.9" font-family="Times New Roman,serif" font-size="12.00">getRange</text>
</g>
<!-- &#45;5763552913299528894&#45;&gt;&#45;5435049042536943609 -->
<g id="edge33" class="edge">
<title>&#45;5763552913299528894&#45;&gt;&#45;5435049042536943609</title>
<path fill="none" stroke="black" d="M720.5,-594.8C720.5,-584.08 720.5,-570.01 720.5,-557.64"/>
<polygon fill="black" stroke="black" points="724,-557.97 720.5,-547.97 717,-557.97 724,-557.97"/>
<text text-anchor="middle" x="726" y="-567.4" font-family="Times New Roman,serif" font-size="12.00">1s</text>
</g>
<!-- 3651796461026563911 -->
<g id="node15" class="node">
<title>3651796461026563911</title>
<polygon fill="none" stroke="black" points="558,-631 385,-631 385,-595 558,-595 558,-631"/>
<text text-anchor="middle" x="471.5" y="-609.9" font-family="Times New Roman,serif" font-size="12.00">editField[q7_phoneNumber[area]]</text>
</g>
<!-- &#45;5108575767407452370 -->
<g id="node30" class="node">
<title>&#45;5108575767407452370</title>
<polygon fill="none" stroke="black" points="490,-546 323,-546 323,-510 490,-510 490,-546"/>
<text text-anchor="middle" x="406.5" y="-524.9" font-family="Times New Roman,serif" font-size="12.00">paste[q7_phoneNumber[phone]]</text>
</g>
<!-- 3651796461026563911&#45;&gt;&#45;5108575767407452370 -->
<g id="edge34" class="edge">
<title>3651796461026563911&#45;&gt;&#45;5108575767407452370</title>
<path fill="none" stroke="black" stroke-width="1.17" d="M458.03,-594.8C449.12,-583.42 437.25,-568.26 427.15,-555.37"/>
<polygon fill="black" stroke="black" stroke-width="1.17" points="430.19,-553.58 421.27,-547.86 424.68,-557.89 430.19,-553.58"/>
<text text-anchor="middle" x="452" y="-567.4" font-family="Times New Roman,serif" font-size="12.00">50s</text>
</g>
<!-- 357182630398299043 -->
<g id="node16" class="node">
<title>357182630398299043</title>
<polygon fill="none" stroke="black" points="412.5,-461 230.5,-461 230.5,-425 412.5,-425 412.5,-461"/>
<text text-anchor="middle" x="321.5" y="-439.9" font-family="Times New Roman,serif" font-size="12.00">editField[q7_phoneNumber[phone]]</text>
</g>
<!-- 357182630398299043&#45;&gt;&#45;8421013627638508074 -->
<g id="edge35" class="edge">
<title>357182630398299043&#45;&gt;&#45;8421013627638508074</title>
<path fill="none" stroke="black" stroke-width="1.11" d="M230.25,-448.04C174.46,-452.31 109.83,-461.07 88.5,-479 71.29,-493.47 72.5,-504.51 72.5,-527 72.5,-869 72.5,-869 72.5,-869 72.5,-880.33 81.06,-881.6 91.5,-886 174.87,-921.13 797.31,-943.61 1000.53,-950.07"/>
<polygon fill="black" stroke="black" stroke-width="1.11" points="1000.39,-953.57 1010.5,-950.38 1000.61,-946.57 1000.39,-953.57"/>
<text text-anchor="middle" x="81" y="-694.9" font-family="Times New Roman,serif" font-size="12.00">31s</text>
</g>
<!-- 357182630398299043&#45;&gt;&#45;2337737116181962960 -->
<g id="edge36" class="edge">
<title>357182630398299043&#45;&gt;&#45;2337737116181962960</title>
<path fill="none" stroke="black" stroke-width="1.06" d="M377.05,-424.6C425.74,-409.35 495.65,-387.46 541.06,-373.23"/>
<polygon fill="black" stroke="black" stroke-width="1.06" points="542.02,-376.6 550.52,-370.27 539.93,-369.92 542.02,-376.6"/>
<text text-anchor="middle" x="479" y="-397.4" font-family="Times New Roman,serif" font-size="12.00">19s</text>
</g>
<!-- 6997094482055801526 -->
<g id="node17" class="node">
<title>6997094482055801526</title>
<polygon fill="none" stroke="black" points="979.5,-291 831.5,-291 831.5,-255 979.5,-255 979.5,-291"/>
<text text-anchor="middle" x="905.5" y="-269.9" font-family="Times New Roman,serif" font-size="12.00">editField[q9_accountHolder]</text>
</g>
<!-- 6997094482055801526&#45;&gt;&#45;349242997702854405 -->
<g id="edge37" class="edge">
<title>6997094482055801526&#45;&gt;&#45;349242997702854405</title>
<path fill="none" stroke="black" stroke-width="1.17" d="M933.34,-291.39C963.07,-311.78 1008.5,-348.65 1027.5,-394 1055.23,-460.16 1039.37,-653.31 1004.5,-716 993.91,-735.05 986.18,-737.63 966.5,-747 925.18,-766.67 873.01,-775.33 837.64,-779.11"/>
<polygon fill="black" stroke="black" stroke-width="1.17" points="837.71,-775.59 828.1,-780.04 838.39,-782.55 837.71,-775.59"/>
<text text-anchor="middle" x="1050" y="-524.9" font-family="Times New Roman,serif" font-size="12.00">50s</text>
</g>
<!-- 3670417997280707311&#45;&gt;&#45;2337737116181962960 -->
<g id="edge38" class="edge">
<title>3670417997280707311&#45;&gt;&#45;2337737116181962960</title>
<path fill="none" stroke="black" stroke-width="1.01" d="M798.08,-432.48C757.39,-418.35 680.54,-391.66 631.52,-374.63"/>
<polygon fill="black" stroke="black" stroke-width="1.01" points="632.93,-371.42 622.34,-371.45 630.64,-378.03 632.93,-371.42"/>
<text text-anchor="middle" x="726" y="-397.4" font-family="Times New Roman,serif" font-size="12.00">3s</text>
</g>
<!-- 3670417997280707311&#45;&gt;1955449513403805491 -->
<g id="edge39" class="edge">
<title>3670417997280707311&#45;&gt;1955449513403805491</title>
<path fill="none" stroke="black" d="M852.75,-436.87C913.12,-425.51 1060.77,-397.72 1162.32,-378.61"/>
<polygon fill="black" stroke="black" points="1162.87,-382.07 1172.05,-376.78 1161.57,-375.19 1162.87,-382.07"/>
<text text-anchor="middle" x="1077" y="-397.4" font-family="Times New Roman,serif" font-size="12.00">1s</text>
</g>
<!-- 3670417997280707311&#45;&gt;5144228901829614650 -->
<g id="edge40" class="edge">
<title>3670417997280707311&#45;&gt;5144228901829614650</title>
<path fill="none" stroke="black" d="M825.5,-424.8C825.5,-414.08 825.5,-400.01 825.5,-387.64"/>
<polygon fill="black" stroke="black" points="829,-387.97 825.5,-377.97 822,-387.97 829,-387.97"/>
<text text-anchor="middle" x="831" y="-397.4" font-family="Times New Roman,serif" font-size="12.00">1s</text>
</g>
<!-- 3670417997280707311&#45;&gt;&#45;2342417462293921512 -->
<g id="edge41" class="edge">
<title>3670417997280707311&#45;&gt;&#45;2342417462293921512</title>
<path fill="none" stroke="black" d="M852.86,-446.49C942.98,-454.88 1229.78,-483.07 1318.5,-510 1370.61,-525.82 1393.11,-522.6 1428.5,-564 1455.86,-596 1456.5,-612.4 1456.5,-654.5 1456.5,-784 1456.5,-784 1456.5,-784 1456.5,-807.85 1452.17,-818.51 1432.5,-832 1407.51,-849.13 1219.18,-860.03 1122.06,-864.57"/>
<polygon fill="black" stroke="black" points="1122.02,-861.07 1112.2,-865.03 1122.35,-868.06 1122.02,-861.07"/>
<text text-anchor="middle" x="1462" y="-652.4" font-family="Times New Roman,serif" font-size="12.00">1s</text>
</g>
<!-- &#45;5435049042536943609&#45;&gt;3670417997280707311 -->
<g id="edge42" class="edge">
<title>&#45;5435049042536943609&#45;&gt;3670417997280707311</title>
<path fill="none" stroke="black" d="M732.83,-509.63C740.36,-499.84 750.61,-487.84 761.5,-479 769.57,-472.44 779.05,-466.49 788.2,-461.43"/>
<polygon fill="black" stroke="black" points="789.74,-464.58 796.96,-456.82 786.48,-458.38 789.74,-464.58"/>
<text text-anchor="middle" x="767" y="-482.4" font-family="Times New Roman,serif" font-size="12.00">1s</text>
</g>
<!-- 6102417127305744981 -->
<g id="node20" class="node">
<title>6102417127305744981</title>
<polygon fill="none" stroke="black" points="168.5,-886 100.5,-886 100.5,-850 168.5,-850 168.5,-886"/>
<text text-anchor="middle" x="134.5" y="-864.9" font-family="Times New Roman,serif" font-size="12.00">navigate_to</text>
</g>
<!-- 6102417127305744981&#45;&gt;&#45;349242997702854405 -->
<g id="edge43" class="edge">
<title>6102417127305744981&#45;&gt;&#45;349242997702854405</title>
<path fill="none" stroke="black" d="M168.75,-862.71C281.02,-848.66 637.58,-804.02 757.62,-788.99"/>
<polygon fill="black" stroke="black" points="757.82,-792.5 767.3,-787.78 756.95,-785.55 757.82,-792.5"/>
<text text-anchor="middle" x="512" y="-822.4" font-family="Times New Roman,serif" font-size="12.00">1s</text>
</g>
<!-- 4744432682323570212&#45;&gt;&#45;3417061393049347223 -->
<g id="edge44" class="edge">
<title>4744432682323570212&#45;&gt;&#45;3417061393049347223</title>
<path fill="none" stroke="black" stroke-width="1.17" d="M913.72,-679.8C917.63,-668.97 922.78,-654.72 927.29,-642.26"/>
<polygon fill="black" stroke="black" stroke-width="1.17" points="930.48,-643.73 930.58,-633.13 923.89,-641.35 930.48,-643.73"/>
<text text-anchor="middle" x="932" y="-652.4" font-family="Times New Roman,serif" font-size="12.00">50s</text>
</g>
<!-- 4604581665166516345&#45;&gt;&#45;4003299731570885441 -->
<g id="edge45" class="edge">
<title>4604581665166516345&#45;&gt;&#45;4003299731570885441</title>
<path fill="none" stroke="black" stroke-width="1.17" d="M1234.79,-679.8C1240.06,-668.86 1247.01,-654.43 1253.06,-641.88"/>
<polygon fill="black" stroke="black" stroke-width="1.17" points="1256.13,-643.59 1257.31,-633.06 1249.82,-640.55 1256.13,-643.59"/>
<text text-anchor="middle" x="1257" y="-652.4" font-family="Times New Roman,serif" font-size="12.00">50s</text>
</g>
<!-- 1955449513403805491&#45;&gt;&#45;3774925265531423684 -->
<g id="edge46" class="edge">
<title>1955449513403805491&#45;&gt;&#45;3774925265531423684</title>
<path fill="none" stroke="black" stroke-width="2.6" d="M1253.87,-339.58C1248.86,-330.62 1244.85,-319.42 1247.5,-309 1247.93,-307.3 1248.46,-305.6 1249.07,-303.91"/>
<polygon fill="black" stroke="black" stroke-width="2.6" points="1252.16,-305.57 1253.17,-295.03 1245.8,-302.64 1252.16,-305.57"/>
<text text-anchor="middle" x="1255" y="-312.4" font-family="Times New Roman,serif" font-size="12.00">7m</text>
</g>
<!-- 1955449513403805491&#45;&gt;1955449513403805491 -->
<g id="edge47" class="edge">
<title>1955449513403805491&#45;&gt;1955449513403805491</title>
<path fill="none" stroke="black" d="M1361.72,-364.75C1372.51,-363.49 1379.5,-361.24 1379.5,-358 1379.5,-356.08 1377.03,-354.5 1372.77,-353.28"/>
<polygon fill="black" stroke="black" points="1373.68,-349.88 1363.21,-351.52 1372.41,-356.77 1373.68,-349.88"/>
<text text-anchor="middle" x="1385" y="-354.9" font-family="Times New Roman,serif" font-size="12.00">2s</text>
</g>
<!-- &#45;802786066028636207&#45;&gt;5148547196844223595 -->
<g id="edge48" class="edge">
<title>&#45;802786066028636207&#45;&gt;5148547196844223595</title>
<path fill="none" stroke="black" stroke-width="1.17" d="M254.84,-679.8C253.82,-669.19 252.48,-655.3 251.3,-643.02"/>
<polygon fill="black" stroke="black" stroke-width="1.17" points="254.8,-642.85 250.35,-633.23 247.83,-643.52 254.8,-642.85"/>
<text text-anchor="middle" x="262" y="-652.4" font-family="Times New Roman,serif" font-size="12.00">50s</text>
</g>
<!-- &#45;4040636298552314058&#45;&gt;3768362607462934485 -->
<g id="edge49" class="edge">
<title>&#45;4040636298552314058&#45;&gt;3768362607462934485</title>
<path fill="none" stroke="black" stroke-width="1.17" d="M305.2,-512.08C308,-511.37 310.78,-510.67 313.5,-510 347.61,-501.55 357.26,-503.42 390.5,-492 410.94,-484.98 432.76,-475.27 451.12,-466.42"/>
<polygon fill="black" stroke="black" stroke-width="1.17" points="452.45,-469.66 459.89,-462.11 449.37,-463.37 452.45,-469.66"/>
<text text-anchor="middle" x="432" y="-482.4" font-family="Times New Roman,serif" font-size="12.00">50s</text>
</g>
<!-- 5504490665134479466&#45;&gt;&#45;6653035453324865092 -->
<g id="edge50" class="edge">
<title>5504490665134479466&#45;&gt;&#45;6653035453324865092</title>
<path fill="none" stroke="black" stroke-width="1.18" d="M238.88,-254.6C220.25,-242.43 195.14,-226.02 174.7,-212.66"/>
<polygon fill="black" stroke="black" stroke-width="1.18" points="176.87,-209.89 166.58,-207.35 173.04,-215.75 176.87,-209.89"/>
<text text-anchor="middle" x="219" y="-227.4" font-family="Times New Roman,serif" font-size="12.00">51s</text>
</g>
<!-- 5504490665134479466&#45;&gt;&#45;7686844205181626037 -->
<g id="edge51" class="edge">
<title>5504490665134479466&#45;&gt;&#45;7686844205181626037</title>
<path fill="none" stroke="black" d="M310.47,-260.37C361.58,-247.16 445.94,-225.34 507.97,-209.3"/>
<polygon fill="black" stroke="black" points="508.62,-212.75 517.43,-206.86 506.87,-205.97 508.62,-212.75"/>
<text text-anchor="middle" x="451" y="-227.4" font-family="Times New Roman,serif" font-size="12.00">1s</text>
</g>
<!-- &#45;7686844205181626037&#45;&gt;6507740163502519239 -->
<g id="edge52" class="edge">
<title>&#45;7686844205181626037&#45;&gt;6507740163502519239</title>
<path fill="none" stroke="black" stroke-width="1.17" d="M665.33,-173.94C753.02,-159.41 894.8,-135.93 989.55,-120.23"/>
<polygon fill="black" stroke="black" stroke-width="1.17" points="990.1,-123.68 999.4,-118.6 988.96,-116.78 990.1,-123.68"/>
<text text-anchor="middle" x="875" y="-142.4" font-family="Times New Roman,serif" font-size="12.00">50s</text>
</g>
<!-- 4004908014844761737&#45;&gt;&#45;5763552913299528894 -->
<g id="edge53" class="edge">
<title>4004908014844761737&#45;&gt;&#45;5763552913299528894</title>
<path fill="none" stroke="black" stroke-width="1.17" d="M733.18,-679.8C731.14,-669.19 728.46,-655.3 726.1,-643.02"/>
<polygon fill="black" stroke="black" stroke-width="1.17" points="729.53,-642.36 724.2,-633.21 722.66,-643.69 729.53,-642.36"/>
<text text-anchor="middle" x="738" y="-652.4" font-family="Times New Roman,serif" font-size="12.00">50s</text>
</g>
<!-- 2070911815398967774&#45;&gt;3651796461026563911 -->
<g id="edge54" class="edge">
<title>2070911815398967774&#45;&gt;3651796461026563911</title>
<path fill="none" stroke="black" stroke-width="1.17" d="M459.61,-679.8C461.53,-669.19 464.04,-655.3 466.25,-643.02"/>
<polygon fill="black" stroke="black" stroke-width="1.17" points="469.69,-643.67 468.03,-633.21 462.81,-642.43 469.69,-643.67"/>
<text text-anchor="middle" x="474" y="-652.4" font-family="Times New Roman,serif" font-size="12.00">50s</text>
</g>
<!-- &#45;5108575767407452370&#45;&gt;357182630398299043 -->
<g id="edge55" class="edge">
<title>&#45;5108575767407452370&#45;&gt;357182630398299043</title>
<path fill="none" stroke="black" stroke-width="1.17" d="M388.89,-509.8C377,-498.2 361.1,-482.67 347.73,-469.62"/>
<polygon fill="black" stroke="black" stroke-width="1.17" points="350.25,-467.18 340.65,-462.7 345.36,-472.19 350.25,-467.18"/>
<text text-anchor="middle" x="378" y="-482.4" font-family="Times New Roman,serif" font-size="12.00">50s</text>
</g>
<!-- 5144228901829614650&#45;&gt;6997094482055801526 -->
<g id="edge56" class="edge">
<title>5144228901829614650&#45;&gt;6997094482055801526</title>
<path fill="none" stroke="black" stroke-width="1.17" d="M842.08,-339.8C853.26,-328.2 868.23,-312.67 880.81,-299.62"/>
<polygon fill="black" stroke="black" stroke-width="1.17" points="883.02,-302.37 887.44,-292.74 877.98,-297.51 883.02,-302.37"/>
<text text-anchor="middle" x="878" y="-312.4" font-family="Times New Roman,serif" font-size="12.00">50s</text>
</g>
<!-- &#45;2342417462293921512&#45;&gt;&#45;349242997702854405 -->
<g id="edge57" class="edge">
<title>&#45;2342417462293921512&#45;&gt;&#45;349242997702854405</title>
<path fill="none" stroke="black" stroke-width="1.34" d="M1018.3,-852.64C967.28,-836.78 885.97,-811.5 837.56,-796.45"/>
<polygon fill="black" stroke="black" stroke-width="1.34" points="838.82,-793.18 828.23,-793.55 836.74,-799.86 838.82,-793.18"/>
<text text-anchor="middle" x="954" y="-822.4" font-family="Times New Roman,serif" font-size="12.00">1m</text>
</g>
<!-- &#45;2342417462293921512&#45;&gt;3670417997280707311 -->
<g id="edge58" class="edge">
<title>&#45;2342417462293921512&#45;&gt;3670417997280707311</title>
<path fill="none" stroke="black" d="M1110.78,-865.77C1206.74,-861.97 1418.5,-846.49 1418.5,-784 1418.5,-784 1418.5,-784 1418.5,-654.5 1418.5,-613.4 1428.42,-593.21 1399.5,-564 1399.19,-563.69 1154.93,-510.09 1154.5,-510 1049.53,-487.91 925.36,-463.45 863.91,-451.46"/>
<polygon fill="black" stroke="black" points="864.81,-448.07 854.32,-449.59 863.47,-454.94 864.81,-448.07"/>
<text text-anchor="middle" x="1424" y="-652.4" font-family="Times New Roman,serif" font-size="12.00">2s</text>
</g>
<!-- &#45;2342417462293921512&#45;&gt;&#45;2342417462293921512 -->
<g id="edge59" class="edge">
<title>&#45;2342417462293921512&#45;&gt;&#45;2342417462293921512</title>
<path fill="none" stroke="black" stroke-width="1.01" d="M1110.81,-875.75C1121.05,-875.03 1128.5,-872.44 1128.5,-868 1128.5,-865.43 1126.01,-863.49 1121.93,-862.16"/>
<polygon fill="black" stroke="black" stroke-width="1.01" points="1122.76,-858.75 1112.31,-860.5 1121.58,-865.65 1122.76,-858.75"/>
<text text-anchor="middle" x="1134" y="-864.9" font-family="Times New Roman,serif" font-size="12.00">3s</text>
</g>
</g>
</svg>
