<?xml version="1.0" encoding="UTF-8" standalone="no"?>
<!DOCTYPE svg PUBLIC "-//W3C//DTD SVG 1.1//EN"
 "http://www.w3.org/Graphics/SVG/1.1/DTD/svg11.dtd">
<!-- Generated by graphviz version 7.1.0 (20230121.1956)
 -->
<!-- Pages: 1 -->
<svg width="385pt" height="842pt"
 viewBox="0.00 0.00 384.50 841.81" xmlns="http://www.w3.org/2000/svg" xmlns:xlink="http://www.w3.org/1999/xlink">
<g id="graph0" class="graph" transform="scale(1 1) rotate(0) translate(4 837.81)">
<polygon fill="white" stroke="none" points="-4,4 -4,-837.81 380.5,-837.81 380.5,4 -4,4"/>
<!-- 430005019290297955 -->
<g id="node1" class="node">
<title>430005019290297955</title>
<polygon fill="none" stroke="black" points="313.5,-833.81 209.5,-833.81 209.5,-797.81 313.5,-797.81 313.5,-833.81"/>
<text text-anchor="middle" x="261.5" y="-812.71" font-family="Times New Roman,serif" font-size="12.00">clickButton[button]</text>
</g>
<!-- 6434334323557836981 -->
<g id="node12" class="node">
<title>6434334323557836981</title>
<polygon fill="none" stroke="black" points="208.5,-748.81 116.5,-748.81 116.5,-712.81 208.5,-712.81 208.5,-748.81"/>
<text text-anchor="middle" x="162.5" y="-727.71" font-family="Times New Roman,serif" font-size="12.00">selectWorksheet</text>
</g>
<!-- 430005019290297955&#45;&gt;6434334323557836981 -->
<g id="edge1" class="edge">
<title>430005019290297955&#45;&gt;6434334323557836981</title>
<path fill="none" stroke="black" stroke-width="1.08" d="M240.99,-797.61C226.88,-785.79 207.92,-769.89 192.17,-756.69"/>
<polygon fill="black" stroke="black" stroke-width="1.08" points="194.49,-754.07 184.58,-750.32 190,-759.43 194.49,-754.07"/>
<text text-anchor="middle" x="227" y="-770.21" font-family="Times New Roman,serif" font-size="12.00">22s</text>
</g>
<!-- &#45;8880081036350354058 -->
<g id="node2" class="node">
<title>&#45;8880081036350354058</title>
<polygon fill="none" stroke="black" points="198.5,-222.41 94.5,-222.41 94.5,-186.41 198.5,-186.41 198.5,-222.41"/>
<text text-anchor="middle" x="146.5" y="-201.31" font-family="Times New Roman,serif" font-size="12.00">clickButton[submit]</text>
</g>
<!-- &#45;1794840827520655514 -->
<g id="node3" class="node">
<title>&#45;1794840827520655514</title>
<polygon fill="none" stroke="black" points="258.5,-121 200.5,-121 200.5,-85 258.5,-85 258.5,-121"/>
<text text-anchor="middle" x="229.5" y="-99.9" font-family="Times New Roman,serif" font-size="12.00">clickLink</text>
</g>
<!-- &#45;8880081036350354058&#45;&gt;&#45;1794840827520655514 -->
<g id="edge2" class="edge">
<title>&#45;8880081036350354058&#45;&gt;&#45;1794840827520655514</title>
<path fill="none" stroke="black" stroke-width="1.08" d="M160.96,-186.09C173.85,-170.65 192.91,-147.82 207.66,-130.15"/>
<polygon fill="black" stroke="black" stroke-width="1.08" points="210.16,-132.62 213.88,-122.7 204.79,-128.13 210.16,-132.62"/>
<text text-anchor="middle" x="207" y="-142.4" font-family="Times New Roman,serif" font-size="12.00">21s</text>
</g>
<!-- 8116685484534638386 -->
<g id="node6" class="node">
<title>8116685484534638386</title>
<polygon fill="none" stroke="black" points="328,-36 243,-36 243,0 328,0 328,-36"/>
<text text-anchor="middle" x="285.5" y="-14.9" font-family="Times New Roman,serif" font-size="12.00">createNewTab</text>
</g>
<!-- &#45;1794840827520655514&#45;&gt;8116685484534638386 -->
<g id="edge3" class="edge">
<title>&#45;1794840827520655514&#45;&gt;8116685484534638386</title>
<path fill="none" stroke="black" stroke-width="1.08" d="M241.1,-84.8C248.71,-73.53 258.81,-58.56 267.46,-45.74"/>
<polygon fill="black" stroke="black" stroke-width="1.08" points="270.12,-48.06 272.81,-37.81 264.31,-44.15 270.12,-48.06"/>
<text text-anchor="middle" x="270" y="-57.4" font-family="Times New Roman,serif" font-size="12.00">21s</text>
</g>
<!-- 5979003392761407765 -->
<g id="node4" class="node">
<title>5979003392761407765</title>
<polygon fill="none" stroke="black" points="251,-663.81 194,-663.81 194,-627.81 251,-627.81 251,-663.81"/>
<text text-anchor="middle" x="222.5" y="-642.71" font-family="Times New Roman,serif" font-size="12.00">copyCell</text>
</g>
<!-- 410929837770608946 -->
<g id="node8" class="node">
<title>410929837770608946</title>
<polygon fill="none" stroke="black" points="142.5,-578.81 88.5,-578.81 88.5,-542.81 142.5,-542.81 142.5,-578.81"/>
<text text-anchor="middle" x="115.5" y="-557.71" font-family="Times New Roman,serif" font-size="12.00">getCell</text>
</g>
<!-- 5979003392761407765&#45;&gt;410929837770608946 -->
<g id="edge4" class="edge">
<title>5979003392761407765&#45;&gt;410929837770608946</title>
<path fill="none" stroke="black" d="M206.6,-627.36C197.42,-617.77 185.36,-606 173.5,-596.81 166.98,-591.76 159.68,-586.85 152.52,-582.38"/>
<polygon fill="black" stroke="black" points="154.59,-579.54 144.21,-577.38 150.97,-585.54 154.59,-579.54"/>
<text text-anchor="middle" x="194" y="-600.21" font-family="Times New Roman,serif" font-size="12.00">1s</text>
</g>
<!-- &#45;1469425098975310577 -->
<g id="node11" class="node">
<title>&#45;1469425098975310577</title>
<polygon fill="none" stroke="black" points="210.5,-408.81 156.5,-408.81 156.5,-372.81 210.5,-372.81 210.5,-408.81"/>
<text text-anchor="middle" x="183.5" y="-387.71" font-family="Times New Roman,serif" font-size="12.00">paste</text>
</g>
<!-- 5979003392761407765&#45;&gt;&#45;1469425098975310577 -->
<g id="edge5" class="edge">
<title>5979003392761407765&#45;&gt;&#45;1469425098975310577</title>
<path fill="none" stroke="black" stroke-width="1.75" d="M220,-627.55C214.65,-590.67 201.54,-501.45 189.5,-426.81 189.23,-425.11 188.94,-423.37 188.65,-421.61"/>
<polygon fill="black" stroke="black" stroke-width="1.75" points="192.12,-421.14 187,-411.86 185.22,-422.3 192.12,-421.14"/>
<text text-anchor="middle" x="213" y="-515.21" font-family="Times New Roman,serif" font-size="12.00">3m</text>
</g>
<!-- 6464581609777319207 -->
<g id="node5" class="node">
<title>6464581609777319207</title>
<polygon fill="none" stroke="black" points="147.5,-493.81 79.5,-493.81 79.5,-457.81 147.5,-457.81 147.5,-493.81"/>
<text text-anchor="middle" x="113.5" y="-472.71" font-family="Times New Roman,serif" font-size="12.00">copyRange</text>
</g>
<!-- 6464581609777319207&#45;&gt;&#45;1469425098975310577 -->
<g id="edge6" class="edge">
<title>6464581609777319207&#45;&gt;&#45;1469425098975310577</title>
<path fill="none" stroke="black" stroke-width="1.08" d="M127.4,-457.34C134.77,-448.17 144.03,-436.8 152.5,-426.81 155.05,-423.81 157.74,-420.69 160.43,-417.61"/>
<polygon fill="black" stroke="black" stroke-width="1.08" points="162.83,-420.18 166.82,-410.36 157.58,-415.55 162.83,-420.18"/>
<text text-anchor="middle" x="161" y="-430.21" font-family="Times New Roman,serif" font-size="12.00">22s</text>
</g>
<!-- 8116685484534638386&#45;&gt;6434334323557836981 -->
<g id="edge7" class="edge">
<title>8116685484534638386&#45;&gt;6434334323557836981</title>
<path fill="none" stroke="black" stroke-width="1.08" d="M294.98,-36.24C303.1,-52.64 313.5,-78.28 313.5,-102 313.5,-646.81 313.5,-646.81 313.5,-646.81 313.5,-674.02 297.95,-679.43 275.5,-694.81 259.01,-706.11 238.72,-713.88 219.9,-719.17"/>
<polygon fill="black" stroke="black" stroke-width="1.08" points="219.11,-715.76 210.31,-721.66 220.87,-722.53 219.11,-715.76"/>
<text text-anchor="middle" x="322" y="-387.71" font-family="Times New Roman,serif" font-size="12.00">21s</text>
</g>
<!-- 4656304329061748753 -->
<g id="node7" class="node">
<title>4656304329061748753</title>
<polygon fill="none" stroke="black" points="174.5,-323.81 118.5,-323.81 118.5,-287.81 174.5,-287.81 174.5,-323.81"/>
<text text-anchor="middle" x="146.5" y="-302.71" font-family="Times New Roman,serif" font-size="12.00">editField</text>
</g>
<!-- 4656304329061748753&#45;&gt;430005019290297955 -->
<g id="edge8" class="edge">
<title>4656304329061748753&#45;&gt;430005019290297955</title>
<path fill="none" stroke="black" stroke-width="1.08" d="M174.78,-311.69C232.72,-322.5 359.5,-350.62 359.5,-389.81 359.5,-731.81 359.5,-731.81 359.5,-731.81 359.5,-758.32 338.36,-778.11 315.71,-791.7"/>
<polygon fill="black" stroke="black" stroke-width="1.08" points="314.08,-788.61 307.06,-796.54 317.49,-794.72 314.08,-788.61"/>
<text text-anchor="middle" x="368" y="-557.71" font-family="Times New Roman,serif" font-size="12.00">22s</text>
</g>
<!-- 4656304329061748753&#45;&gt;&#45;8880081036350354058 -->
<g id="edge9" class="edge">
<title>4656304329061748753&#45;&gt;&#45;8880081036350354058</title>
<path fill="none" stroke="black" stroke-width="1.08" d="M146.5,-287.5C146.5,-272.83 146.5,-251.51 146.5,-234.27"/>
<polygon fill="black" stroke="black" stroke-width="1.08" points="150,-234.49 146.5,-224.49 143,-234.49 150,-234.49"/>
<text text-anchor="middle" x="155" y="-260.21" font-family="Times New Roman,serif" font-size="12.00">21s</text>
</g>
<!-- 4656304329061748753&#45;&gt;5979003392761407765 -->
<g id="edge10" class="edge">
<title>4656304329061748753&#45;&gt;5979003392761407765</title>
<path fill="none" stroke="black" stroke-width="1.59" d="M174.78,-316.31C199.22,-326.19 232.98,-344.28 248.5,-372.81 291.73,-452.28 256.12,-564.3 235.15,-616.27"/>
<polygon fill="black" stroke="black" stroke-width="1.59" points="231.98,-614.76 231.36,-625.34 238.44,-617.46 231.98,-614.76"/>
<text text-anchor="middle" x="277" y="-472.71" font-family="Times New Roman,serif" font-size="12.00">2m</text>
</g>
<!-- 4656304329061748753&#45;&gt;6464581609777319207 -->
<g id="edge11" class="edge">
<title>4656304329061748753&#45;&gt;6464581609777319207</title>
<path fill="none" stroke="black" stroke-width="1.07" d="M141.21,-324.18C139.6,-329.78 137.88,-336.03 136.5,-341.81 127.99,-377.39 121.31,-419.02 117.39,-446.11"/>
<polygon fill="black" stroke="black" stroke-width="1.07" points="113.95,-445.45 116.01,-455.84 120.88,-446.43 113.95,-445.45"/>
<text text-anchor="middle" x="139" y="-387.71" font-family="Times New Roman,serif" font-size="12.00">20s</text>
</g>
<!-- 4656304329061748753&#45;&gt;410929837770608946 -->
<g id="edge12" class="edge">
<title>4656304329061748753&#45;&gt;410929837770608946</title>
<path fill="none" stroke="black" d="M134.51,-323.9C116.41,-350.85 82.91,-405.56 70.5,-457.81 66.8,-473.38 65.78,-478.52 70.5,-493.81 74.91,-508.1 83.58,-522.06 92.15,-533.43"/>
<polygon fill="black" stroke="black" points="89.32,-535.49 98.28,-541.14 94.8,-531.14 89.32,-535.49"/>
<text text-anchor="middle" x="86" y="-430.21" font-family="Times New Roman,serif" font-size="12.00">1s</text>
</g>
<!-- 2010879291915096059 -->
<g id="node9" class="node">
<title>2010879291915096059</title>
<polygon fill="none" stroke="black" points="59,-222.41 0,-222.41 0,-186.41 59,-186.41 59,-222.41"/>
<text text-anchor="middle" x="29.5" y="-201.31" font-family="Times New Roman,serif" font-size="12.00">getRange</text>
</g>
<!-- 4656304329061748753&#45;&gt;2010879291915096059 -->
<g id="edge13" class="edge">
<title>4656304329061748753&#45;&gt;2010879291915096059</title>
<path fill="none" stroke="black" d="M126.12,-287.5C107.44,-271.63 79.59,-247.96 58.58,-230.11"/>
<polygon fill="black" stroke="black" points="61.08,-227.64 51.19,-223.84 56.55,-232.98 61.08,-227.64"/>
<text text-anchor="middle" x="108" y="-260.21" font-family="Times New Roman,serif" font-size="12.00">1s</text>
</g>
<!-- 4656304329061748753&#45;&gt;&#45;1469425098975310577 -->
<g id="edge14" class="edge">
<title>4656304329061748753&#45;&gt;&#45;1469425098975310577</title>
<path fill="none" stroke="black" stroke-width="1.75" d="M154.53,-324.23C157.1,-329.84 159.94,-336.08 162.5,-341.81 165.26,-347.98 168.19,-354.62 170.96,-360.93"/>
<polygon fill="black" stroke="black" stroke-width="1.75" points="167.72,-362.26 174.93,-370.02 174.13,-359.46 167.72,-362.26"/>
<text text-anchor="middle" x="176" y="-345.21" font-family="Times New Roman,serif" font-size="12.00">3m</text>
</g>
<!-- @@endnode -->
<g id="node13" class="node">
<title>@@endnode</title>
<ellipse fill="none" stroke="black" cx="250.5" cy="-204.41" rx="30.32" ry="30.32"/>
<ellipse fill="none" stroke="black" cx="250.5" cy="-204.41" rx="34.31" ry="34.31"/>
<text text-anchor="start" x="240.5" y="-196.31" font-family="Times New Roman,serif" font-size="32.00">■</text>
</g>
<!-- 4656304329061748753&#45;&gt;@@endnode -->
<g id="edge25" class="edge">
<title>4656304329061748753&#45;&gt;@@endnode</title>
<path fill="none" stroke="black" d="M164.62,-287.5C179.22,-273.54 200.14,-253.54 217.67,-236.78"/>
<polygon fill="black" stroke="black" points="220.06,-239.34 224.87,-229.9 215.23,-234.28 220.06,-239.34"/>
<text text-anchor="middle" x="199" y="-260.21" font-family="Times New Roman,serif" font-size="12.00">1</text>
</g>
<!-- 410929837770608946&#45;&gt;6464581609777319207 -->
<g id="edge15" class="edge">
<title>410929837770608946&#45;&gt;6464581609777319207</title>
<path fill="none" stroke="black" d="M115.09,-542.61C114.83,-531.89 114.49,-517.83 114.19,-505.45"/>
<polygon fill="black" stroke="black" points="117.7,-505.7 113.96,-495.79 110.7,-505.87 117.7,-505.7"/>
<text text-anchor="middle" x="121" y="-515.21" font-family="Times New Roman,serif" font-size="12.00">2s</text>
</g>
<!-- 410929837770608946&#45;&gt;&#45;1469425098975310577 -->
<g id="edge16" class="edge">
<title>410929837770608946&#45;&gt;&#45;1469425098975310577</title>
<path fill="none" stroke="black" d="M128.33,-542.39C137.29,-529.52 148.97,-511.27 156.5,-493.81 166.75,-470.05 173.91,-441.45 178.27,-420.59"/>
<polygon fill="black" stroke="black" points="181.7,-421.28 180.22,-410.79 174.84,-419.91 181.7,-421.28"/>
<text text-anchor="middle" x="175" y="-472.71" font-family="Times New Roman,serif" font-size="12.00">2s</text>
</g>
<!-- 410929837770608946&#45;&gt;6434334323557836981 -->
<g id="edge17" class="edge">
<title>410929837770608946&#45;&gt;6434334323557836981</title>
<path fill="none" stroke="black" d="M122.96,-579.09C125.22,-584.68 127.61,-590.96 129.5,-596.81 140.95,-632.31 150.75,-674.22 156.63,-701.37"/>
<polygon fill="black" stroke="black" points="153.15,-701.85 158.66,-710.9 160,-700.39 153.15,-701.85"/>
<text text-anchor="middle" x="154" y="-642.71" font-family="Times New Roman,serif" font-size="12.00">1s</text>
</g>
<!-- 2010879291915096059&#45;&gt;410929837770608946 -->
<g id="edge18" class="edge">
<title>2010879291915096059&#45;&gt;410929837770608946</title>
<path fill="none" stroke="black" d="M24.67,-222.85C19.65,-242.58 12.5,-275.75 12.5,-304.81 12.5,-476.81 12.5,-476.81 12.5,-476.81 12.5,-511.48 48.32,-534.12 77.71,-546.87"/>
<polygon fill="black" stroke="black" points="76.18,-550.03 86.77,-550.55 78.82,-543.54 76.18,-550.03"/>
<text text-anchor="middle" x="18" y="-387.71" font-family="Times New Roman,serif" font-size="12.00">1s</text>
</g>
<!-- &#45;1382111555709247029 -->
<g id="node10" class="node">
<title>&#45;1382111555709247029</title>
<polygon fill="none" stroke="black" points="323.5,-748.81 255.5,-748.81 255.5,-712.81 323.5,-712.81 323.5,-748.81"/>
<text text-anchor="middle" x="289.5" y="-727.71" font-family="Times New Roman,serif" font-size="12.00">navigate_to</text>
</g>
<!-- &#45;1382111555709247029&#45;&gt;5979003392761407765 -->
<g id="edge19" class="edge">
<title>&#45;1382111555709247029&#45;&gt;5979003392761407765</title>
<path fill="none" stroke="black" d="M275.62,-712.61C266.43,-701.23 254.19,-686.07 243.78,-673.18"/>
<polygon fill="black" stroke="black" points="246.55,-671.03 237.55,-665.45 241.1,-675.43 246.55,-671.03"/>
<text text-anchor="middle" x="266" y="-685.21" font-family="Times New Roman,serif" font-size="12.00">1s</text>
</g>
<!-- &#45;1469425098975310577&#45;&gt;4656304329061748753 -->
<g id="edge20" class="edge">
<title>&#45;1469425098975310577&#45;&gt;4656304329061748753</title>
<path fill="none" stroke="black" stroke-width="2.6" d="M157.1,-372.46C151.6,-367.47 146.55,-361.53 143.5,-354.81 141.05,-349.42 140.19,-343.34 140.23,-337.36"/>
<polygon fill="black" stroke="black" stroke-width="2.6" points="143.66,-338.18 141.2,-327.88 136.7,-337.47 143.66,-338.18"/>
<text text-anchor="middle" x="151" y="-345.21" font-family="Times New Roman,serif" font-size="12.00">6m</text>
</g>
<!-- &#45;1469425098975310577&#45;&gt;&#45;1469425098975310577 -->
<g id="edge21" class="edge">
<title>&#45;1469425098975310577&#45;&gt;&#45;1469425098975310577</title>
<path fill="none" stroke="black" d="M210.74,-398.77C220.52,-398.94 228.5,-396.29 228.5,-390.81 228.5,-387.73 225.98,-385.54 222.03,-384.25"/>
<polygon fill="black" stroke="black" points="222.6,-380.79 212.25,-383.04 221.74,-387.74 222.6,-380.79"/>
<text text-anchor="middle" x="234" y="-387.71" font-family="Times New Roman,serif" font-size="12.00">2s</text>
</g>
<!-- 6434334323557836981&#45;&gt;5979003392761407765 -->
<g id="edge22" class="edge">
<title>6434334323557836981&#45;&gt;5979003392761407765</title>
<path fill="none" stroke="black" stroke-width="1.16" d="M174.93,-712.61C183.08,-701.34 193.91,-686.37 203.17,-673.55"/>
<polygon fill="black" stroke="black" stroke-width="1.16" points="205.83,-675.85 208.85,-665.69 200.15,-671.75 205.83,-675.85"/>
<text text-anchor="middle" x="205" y="-685.21" font-family="Times New Roman,serif" font-size="12.00">42s</text>
</g>
<!-- 6434334323557836981&#45;&gt;410929837770608946 -->
<g id="edge23" class="edge">
<title>6434334323557836981&#45;&gt;410929837770608946</title>
<path fill="none" stroke="black" d="M149.59,-712.31C140.91,-699.55 130.06,-681.47 124.5,-663.81 116.95,-639.86 115,-611.28 114.76,-590.47"/>
<polygon fill="black" stroke="black" points="118.25,-590.75 114.78,-580.74 111.25,-590.73 118.25,-590.75"/>
<text text-anchor="middle" x="130" y="-642.71" font-family="Times New Roman,serif" font-size="12.00">2s</text>
</g>
<!-- 6434334323557836981&#45;&gt;6434334323557836981 -->
<g id="edge24" class="edge">
<title>6434334323557836981&#45;&gt;6434334323557836981</title>
<path fill="none" stroke="black" d="M208.81,-738.57C219.05,-737.84 226.5,-735.25 226.5,-730.81 226.5,-728.24 224.01,-726.3 219.93,-724.97"/>
<polygon fill="black" stroke="black" points="220.75,-721.56 210.3,-723.31 219.56,-728.46 220.75,-721.56"/>
<text text-anchor="middle" x="232" y="-727.71" font-family="Times New Roman,serif" font-size="12.00">1s</text>
</g>
</g>
</svg>
