<?xml version="1.0" encoding="UTF-8" standalone="no"?>
<!DOCTYPE svg PUBLIC "-//W3C//DTD SVG 1.1//EN"
 "http://www.w3.org/Graphics/SVG/1.1/DTD/svg11.dtd">
<!-- Generated by graphviz version 8.0.3 (20230416.2022)
 -->
<!-- Pages: 1 -->
<svg width="1922pt" height="842pt"
 viewBox="0.00 0.00 1921.50 841.81" xmlns="http://www.w3.org/2000/svg" xmlns:xlink="http://www.w3.org/1999/xlink">
<g id="graph0" class="graph" transform="scale(1 1) rotate(0) translate(4 837.81)">
<polygon fill="white" stroke="none" points="-4,4 -4,-837.81 1917.5,-837.81 1917.5,4 -4,4"/>
<!-- &#45;7283433983056500281 -->
<g id="node1" class="node">
<title>&#45;7283433983056500281</title>
<polygon fill="none" stroke="black" points="1005.5,-833.81 901.5,-833.81 901.5,-797.81 1005.5,-797.81 1005.5,-833.81"/>
<text text-anchor="middle" x="953.5" y="-812.71" font-family="Times New Roman,serif" font-size="12.00">clickButton[button]</text>
</g>
<!-- &#45;8551108795534898076 -->
<g id="node22" class="node">
<title>&#45;8551108795534898076</title>
<polygon fill="none" stroke="black" points="999.5,-748.81 907.5,-748.81 907.5,-712.81 999.5,-712.81 999.5,-748.81"/>
<text text-anchor="middle" x="953.5" y="-727.71" font-family="Times New Roman,serif" font-size="12.00">selectWorksheet</text>
</g>
<!-- &#45;7283433983056500281&#45;&gt;&#45;8551108795534898076 -->
<g id="edge1" class="edge">
<title>&#45;7283433983056500281&#45;&gt;&#45;8551108795534898076</title>
<path fill="none" stroke="black" stroke-width="1.17" d="M953.5,-797.61C953.5,-786.78 953.5,-772.54 953.5,-760.07"/>
<polygon fill="black" stroke="black" stroke-width="1.17" points="957,-760.27 953.5,-750.27 950,-760.27 957,-760.27"/>
<text text-anchor="middle" x="962" y="-770.21" font-family="Times New Roman,serif" font-size="12.00">11s</text>
</g>
<!-- &#45;1283998384867478094 -->
<g id="node2" class="node">
<title>&#45;1283998384867478094</title>
<polygon fill="none" stroke="black" points="1194.5,-222.41 1090.5,-222.41 1090.5,-186.41 1194.5,-186.41 1194.5,-222.41"/>
<text text-anchor="middle" x="1142.5" y="-201.31" font-family="Times New Roman,serif" font-size="12.00">clickButton[submit]</text>
</g>
<!-- &#45;2730689910902470226 -->
<g id="node3" class="node">
<title>&#45;2730689910902470226</title>
<polygon fill="none" stroke="black" points="1695.5,-121 1637.5,-121 1637.5,-85 1695.5,-85 1695.5,-121"/>
<text text-anchor="middle" x="1666.5" y="-99.9" font-family="Times New Roman,serif" font-size="12.00">clickLink</text>
</g>
<!-- &#45;1283998384867478094&#45;&gt;&#45;2730689910902470226 -->
<g id="edge2" class="edge">
<title>&#45;1283998384867478094&#45;&gt;&#45;2730689910902470226</title>
<path fill="none" stroke="black" stroke-width="1.15" d="M1169.48,-185.91C1179.76,-179.98 1191.81,-173.89 1203.5,-170 1354.15,-119.86 1544.81,-107.81 1626.45,-104.91"/>
<polygon fill="black" stroke="black" stroke-width="1.15" points="1626.35,-108.39 1636.23,-104.56 1626.12,-101.39 1626.35,-108.39"/>
<text text-anchor="middle" x="1323" y="-142.4" font-family="Times New Roman,serif" font-size="12.00">10s</text>
</g>
<!-- 1607548953699189687 -->
<g id="node6" class="node">
<title>1607548953699189687</title>
<polygon fill="none" stroke="black" points="1912,-36 1827,-36 1827,0 1912,0 1912,-36"/>
<text text-anchor="middle" x="1869.5" y="-14.9" font-family="Times New Roman,serif" font-size="12.00">createNewTab</text>
</g>
<!-- &#45;2730689910902470226&#45;&gt;1607548953699189687 -->
<g id="edge3" class="edge">
<title>&#45;2730689910902470226&#45;&gt;1607548953699189687</title>
<path fill="none" stroke="black" stroke-width="1.15" d="M1695.58,-90.11C1727.19,-77.19 1778.33,-56.28 1816.99,-40.47"/>
<polygon fill="black" stroke="black" stroke-width="1.15" points="1818.1,-43.39 1826.03,-36.36 1815.45,-36.91 1818.1,-43.39"/>
<text text-anchor="middle" x="1788" y="-57.4" font-family="Times New Roman,serif" font-size="12.00">10s</text>
</g>
<!-- 4572600278003539478 -->
<g id="node4" class="node">
<title>4572600278003539478</title>
<polygon fill="none" stroke="black" points="982,-663.81 925,-663.81 925,-627.81 982,-627.81 982,-663.81"/>
<text text-anchor="middle" x="953.5" y="-642.71" font-family="Times New Roman,serif" font-size="12.00">copyCell</text>
</g>
<!-- 8826139826624112448 -->
<g id="node18" class="node">
<title>8826139826624112448</title>
<polygon fill="none" stroke="black" points="589.5,-578.81 535.5,-578.81 535.5,-542.81 589.5,-542.81 589.5,-578.81"/>
<text text-anchor="middle" x="562.5" y="-557.71" font-family="Times New Roman,serif" font-size="12.00">getCell</text>
</g>
<!-- 4572600278003539478&#45;&gt;8826139826624112448 -->
<g id="edge4" class="edge">
<title>4572600278003539478&#45;&gt;8826139826624112448</title>
<path fill="none" stroke="black" d="M924.69,-643.99C853.93,-641.63 673.36,-633.42 618.5,-609.81 606.13,-604.49 594.47,-595.43 585.02,-586.62"/>
<polygon fill="black" stroke="black" points="587.91,-584.56 578.33,-580.03 582.99,-589.54 587.91,-584.56"/>
<text text-anchor="middle" x="624" y="-600.21" font-family="Times New Roman,serif" font-size="12.00">1s</text>
</g>
<!-- &#45;2828859432936935225 -->
<g id="node21" class="node">
<title>&#45;2828859432936935225</title>
<polygon fill="none" stroke="black" points="827.5,-408.81 773.5,-408.81 773.5,-372.81 827.5,-372.81 827.5,-408.81"/>
<text text-anchor="middle" x="800.5" y="-387.71" font-family="Times New Roman,serif" font-size="12.00">paste</text>
</g>
<!-- 4572600278003539478&#45;&gt;&#45;2828859432936935225 -->
<g id="edge5" class="edge">
<title>4572600278003539478&#45;&gt;&#45;2828859432936935225</title>
<path fill="none" stroke="black" stroke-width="2.57" d="M942.98,-627.42C916.94,-584.35 849.24,-472.4 817.45,-419.84"/>
<polygon fill="black" stroke="black" stroke-width="2.57" points="821.06,-418.73 812.89,-411.99 815.07,-422.36 821.06,-418.73"/>
<text text-anchor="middle" x="889" y="-515.21" font-family="Times New Roman,serif" font-size="12.00">1m</text>
</g>
<!-- &#45;4162420903657016109 -->
<g id="node5" class="node">
<title>&#45;4162420903657016109</title>
<polygon fill="none" stroke="black" points="476.5,-493.81 408.5,-493.81 408.5,-457.81 476.5,-457.81 476.5,-493.81"/>
<text text-anchor="middle" x="442.5" y="-472.71" font-family="Times New Roman,serif" font-size="12.00">copyRange</text>
</g>
<!-- &#45;4162420903657016109&#45;&gt;&#45;2828859432936935225 -->
<g id="edge6" class="edge">
<title>&#45;4162420903657016109&#45;&gt;&#45;2828859432936935225</title>
<path fill="none" stroke="black" stroke-width="1.17" d="M476.92,-461.72C506.02,-451.06 549.01,-436.28 587.5,-426.81 647.96,-411.93 719.67,-401.62 762.55,-396.22"/>
<polygon fill="black" stroke="black" stroke-width="1.17" points="762.83,-399.59 772.33,-394.89 761.97,-392.64 762.83,-399.59"/>
<text text-anchor="middle" x="596" y="-430.21" font-family="Times New Roman,serif" font-size="12.00">11s</text>
</g>
<!-- 1607548953699189687&#45;&gt;&#45;8551108795534898076 -->
<g id="edge7" class="edge">
<title>1607548953699189687&#45;&gt;&#45;8551108795534898076</title>
<path fill="none" stroke="black" stroke-width="1.15" d="M1878.98,-36.24C1887.1,-52.64 1897.5,-78.28 1897.5,-102 1897.5,-349.31 1897.5,-349.31 1897.5,-349.31 1897.5,-474.42 1833.99,-502.95 1734.5,-578.81 1619.57,-666.45 1170.46,-711.72 1010.48,-725.32"/>
<polygon fill="black" stroke="black" stroke-width="1.15" points="1010.59,-721.88 1000.92,-726.21 1011.17,-728.86 1010.59,-721.88"/>
<text text-anchor="middle" x="1905" y="-387.71" font-family="Times New Roman,serif" font-size="12.00">10s</text>
</g>
<!-- 4017203369508189456 -->
<g id="node7" class="node">
<title>4017203369508189456</title>
<polygon fill="none" stroke="black" points="1022,-323.81 885,-323.81 885,-287.81 1022,-287.81 1022,-323.81"/>
<text text-anchor="middle" x="953.5" y="-302.71" font-family="Times New Roman,serif" font-size="12.00">editField[q10_bankName]</text>
</g>
<!-- 4017203369508189456&#45;&gt;4572600278003539478 -->
<g id="edge8" class="edge">
<title>4017203369508189456&#45;&gt;4572600278003539478</title>
<path fill="none" stroke="black" stroke-width="1.17" d="M953.5,-324.3C953.5,-341.1 953.5,-367.19 953.5,-389.81 953.5,-561.81 953.5,-561.81 953.5,-561.81 953.5,-580.02 953.5,-600.47 953.5,-616.51"/>
<polygon fill="black" stroke="black" stroke-width="1.17" points="950,-616.32 953.5,-626.32 957,-616.32 950,-616.32"/>
<text text-anchor="middle" x="962" y="-472.71" font-family="Times New Roman,serif" font-size="12.00">11s</text>
</g>
<!-- 2137833237022894573 -->
<g id="node8" class="node">
<title>2137833237022894573</title>
<polygon fill="none" stroke="black" points="528.5,-323.81 368.5,-323.81 368.5,-287.81 528.5,-287.81 528.5,-323.81"/>
<text text-anchor="middle" x="448.5" y="-302.71" font-family="Times New Roman,serif" font-size="12.00">editField[q11_accountNumber]</text>
</g>
<!-- 2137833237022894573&#45;&gt;4572600278003539478 -->
<g id="edge9" class="edge">
<title>2137833237022894573&#45;&gt;4572600278003539478</title>
<path fill="none" stroke="black" stroke-width="1.13" d="M462.04,-324.31C483.05,-350.86 525.45,-402.23 567.5,-439.81 676.56,-537.28 840.24,-604.2 914.45,-631.31"/>
<polygon fill="black" stroke="black" stroke-width="1.13" points="913.14,-634.92 923.73,-635.02 915.51,-628.33 913.14,-634.92"/>
<text text-anchor="middle" x="643" y="-472.71" font-family="Times New Roman,serif" font-size="12.00">9s</text>
</g>
<!-- 2137833237022894573&#45;&gt;&#45;2828859432936935225 -->
<g id="edge10" class="edge">
<title>2137833237022894573&#45;&gt;&#45;2828859432936935225</title>
<path fill="none" stroke="black" stroke-width="1.02" d="M528.54,-322.19C531.56,-322.74 534.56,-323.28 537.5,-323.81 584.96,-332.34 599.38,-324.8 644.5,-341.81 654.77,-345.68 655.41,-350.5 665.5,-354.81 696.91,-368.24 734.69,-377.49 762.29,-383.1"/>
<polygon fill="black" stroke="black" stroke-width="1.02" points="761.59,-386.72 772.07,-385.21 762.93,-379.85 761.59,-386.72"/>
<text text-anchor="middle" x="671" y="-345.21" font-family="Times New Roman,serif" font-size="12.00">2s</text>
</g>
<!-- &#45;1548836318819260850 -->
<g id="node9" class="node">
<title>&#45;1548836318819260850</title>
<polygon fill="none" stroke="black" points="1245,-323.81 1040,-323.81 1040,-287.81 1245,-287.81 1245,-323.81"/>
<text text-anchor="middle" x="1142.5" y="-302.71" font-family="Times New Roman,serif" font-size="12.00">editField[q12_reimbursementDetails[0][]]</text>
</g>
<!-- &#45;1548836318819260850&#45;&gt;&#45;1283998384867478094 -->
<g id="edge11" class="edge">
<title>&#45;1548836318819260850&#45;&gt;&#45;1283998384867478094</title>
<path fill="none" stroke="black" stroke-width="1.15" d="M1142.5,-287.5C1142.5,-272.62 1142.5,-250.89 1142.5,-233.52"/>
<polygon fill="black" stroke="black" stroke-width="1.15" points="1146,-233.86 1142.5,-223.86 1139,-233.86 1146,-233.86"/>
<text text-anchor="middle" x="1151" y="-260.21" font-family="Times New Roman,serif" font-size="12.00">10s</text>
</g>
<!-- &#45;1548836318819260850&#45;&gt;4572600278003539478 -->
<g id="edge12" class="edge">
<title>&#45;1548836318819260850&#45;&gt;4572600278003539478</title>
<path fill="none" stroke="black" stroke-width="1.17" d="M1141.5,-324.29C1140.63,-341.08 1139.5,-367.17 1139.5,-389.81 1139.5,-561.81 1139.5,-561.81 1139.5,-561.81 1139.5,-625.49 1047.45,-640.65 992.86,-644.04"/>
<polygon fill="black" stroke="black" stroke-width="1.17" points="992.96,-640.58 983.15,-644.59 993.32,-647.58 992.96,-640.58"/>
<text text-anchor="middle" x="1148" y="-472.71" font-family="Times New Roman,serif" font-size="12.00">11s</text>
</g>
<!-- &#45;1548836318819260850&#45;&gt;&#45;2828859432936935225 -->
<g id="edge13" class="edge">
<title>&#45;1548836318819260850&#45;&gt;&#45;2828859432936935225</title>
<path fill="none" stroke="black" stroke-width="2.23" d="M1107.7,-324.28C1085.76,-334.6 1056.57,-347.13 1029.5,-354.81 964.71,-373.21 886.69,-382.51 840.47,-386.75"/>
<polygon fill="black" stroke="black" stroke-width="2.23" points="840.42,-383.5 830.76,-387.86 841.03,-390.48 840.42,-383.5"/>
<text text-anchor="middle" x="1072" y="-345.21" font-family="Times New Roman,serif" font-size="12.00">1m</text>
</g>
<!-- @@endnode -->
<g id="node23" class="node">
<title>@@endnode</title>
<ellipse fill="none" stroke="black" cx="1246.5" cy="-204.41" rx="30.32" ry="30.32"/>
<ellipse fill="none" stroke="black" cx="1246.5" cy="-204.41" rx="34.31" ry="34.31"/>
<text text-anchor="start" x="1236.5" y="-196.31" font-family="Times New Roman,serif" font-size="32.00">■</text>
</g>
<!-- &#45;1548836318819260850&#45;&gt;@@endnode -->
<g id="edge45" class="edge">
<title>&#45;1548836318819260850&#45;&gt;@@endnode</title>
<path fill="none" stroke="black" d="M1160.62,-287.5C1175.35,-273.41 1196.52,-253.18 1214.15,-236.32"/>
<polygon fill="black" stroke="black" points="1216.16,-239.29 1220.97,-229.85 1211.32,-234.23 1216.16,-239.29"/>
<text text-anchor="middle" x="1194" y="-260.21" font-family="Times New Roman,serif" font-size="12.00">1</text>
</g>
<!-- &#45;7261425491390122994 -->
<g id="node10" class="node">
<title>&#45;7261425491390122994</title>
<polygon fill="none" stroke="black" points="676,-323.81 547,-323.81 547,-287.81 676,-287.81 676,-323.81"/>
<text text-anchor="middle" x="611.5" y="-302.71" font-family="Times New Roman,serif" font-size="12.00">editField[q3_name[first]]</text>
</g>
<!-- &#45;7261425491390122994&#45;&gt;&#45;2828859432936935225 -->
<g id="edge14" class="edge">
<title>&#45;7261425491390122994&#45;&gt;&#45;2828859432936935225</title>
<path fill="none" stroke="black" stroke-width="1.17" d="M672.34,-324.22C687.65,-329.28 703.88,-335.23 718.5,-341.81 734.27,-348.91 750.87,-358.24 764.98,-366.79"/>
<polygon fill="black" stroke="black" stroke-width="1.17" points="762.96,-370.27 773.31,-372.54 766.63,-364.31 762.96,-370.27"/>
<text text-anchor="middle" x="753" y="-345.21" font-family="Times New Roman,serif" font-size="12.00">11s</text>
</g>
<!-- 1879159653324323843 -->
<g id="node11" class="node">
<title>1879159653324323843</title>
<polygon fill="none" stroke="black" points="1557.5,-323.81 1429.5,-323.81 1429.5,-287.81 1557.5,-287.81 1557.5,-323.81"/>
<text text-anchor="middle" x="1493.5" y="-302.71" font-family="Times New Roman,serif" font-size="12.00">editField[q3_name[last]]</text>
</g>
<!-- 1879159653324323843&#45;&gt;4572600278003539478 -->
<g id="edge15" class="edge">
<title>1879159653324323843&#45;&gt;4572600278003539478</title>
<path fill="none" stroke="black" stroke-width="1.17" d="M1461.77,-324.22C1440.18,-338.63 1415.5,-361.34 1415.5,-389.81 1415.5,-561.81 1415.5,-561.81 1415.5,-561.81 1415.5,-604.55 1105.22,-632.98 993.22,-641.85"/>
<polygon fill="black" stroke="black" stroke-width="1.17" points="993.1,-638.43 983.4,-642.7 993.64,-645.41 993.1,-638.43"/>
<text text-anchor="middle" x="1424" y="-472.71" font-family="Times New Roman,serif" font-size="12.00">11s</text>
</g>
<!-- 6075178304717725746 -->
<g id="node12" class="node">
<title>6075178304717725746</title>
<polygon fill="none" stroke="black" points="1679.5,-323.81 1575.5,-323.81 1575.5,-287.81 1679.5,-287.81 1679.5,-323.81"/>
<text text-anchor="middle" x="1627.5" y="-302.71" font-family="Times New Roman,serif" font-size="12.00">editField[q4_email]</text>
</g>
<!-- 6075178304717725746&#45;&gt;4572600278003539478 -->
<g id="edge16" class="edge">
<title>6075178304717725746&#45;&gt;4572600278003539478</title>
<path fill="none" stroke="black" stroke-width="1.17" d="M1598.65,-324.1C1578.24,-338.74 1554.5,-361.79 1554.5,-389.81 1554.5,-561.81 1554.5,-561.81 1554.5,-561.81 1554.5,-618.61 1127.78,-638.62 993.47,-643.51"/>
<polygon fill="black" stroke="black" stroke-width="1.17" points="993.36,-640.05 983.49,-643.9 993.61,-647.04 993.36,-640.05"/>
<text text-anchor="middle" x="1563" y="-472.71" font-family="Times New Roman,serif" font-size="12.00">11s</text>
</g>
<!-- 6411501856739108121 -->
<g id="node13" class="node">
<title>6411501856739108121</title>
<polygon fill="none" stroke="black" points="1869.5,-323.81 1697.5,-323.81 1697.5,-287.81 1869.5,-287.81 1869.5,-323.81"/>
<text text-anchor="middle" x="1783.5" y="-302.71" font-family="Times New Roman,serif" font-size="12.00">editField[q5_address[addr_line1]]</text>
</g>
<!-- 6411501856739108121&#45;&gt;&#45;7283433983056500281 -->
<g id="edge17" class="edge">
<title>6411501856739108121&#45;&gt;&#45;7283433983056500281</title>
<path fill="none" stroke="black" stroke-width="1.03" d="M1809.99,-324.25C1829.08,-339.13 1851.5,-362.43 1851.5,-389.81 1851.5,-731.81 1851.5,-731.81 1851.5,-731.81 1851.5,-773.78 1221.46,-803.67 1016.85,-812.28"/>
<polygon fill="black" stroke="black" stroke-width="1.03" points="1016.84,-808.81 1006.99,-812.73 1017.13,-815.81 1016.84,-808.81"/>
<text text-anchor="middle" x="1857" y="-557.71" font-family="Times New Roman,serif" font-size="12.00">3s</text>
</g>
<!-- 6411501856739108121&#45;&gt;4572600278003539478 -->
<g id="edge18" class="edge">
<title>6411501856739108121&#45;&gt;4572600278003539478</title>
<path fill="none" stroke="black" stroke-width="1.12" d="M1761.53,-324.08C1744.76,-339.35 1724.5,-363.29 1724.5,-389.81 1724.5,-561.81 1724.5,-561.81 1724.5,-561.81 1724.5,-636.18 1150.18,-644 992.91,-644.75"/>
<polygon fill="black" stroke="black" stroke-width="1.12" points="993.3,-641.25 983.32,-644.79 993.33,-648.25 993.3,-641.25"/>
<text text-anchor="middle" x="1730" y="-472.71" font-family="Times New Roman,serif" font-size="12.00">8s</text>
</g>
<!-- &#45;9036171747072133490 -->
<g id="node14" class="node">
<title>&#45;9036171747072133490</title>
<polygon fill="none" stroke="black" points="150,-323.81 27,-323.81 27,-287.81 150,-287.81 150,-323.81"/>
<text text-anchor="middle" x="88.5" y="-302.71" font-family="Times New Roman,serif" font-size="12.00">editField[q6_studentId]</text>
</g>
<!-- &#45;9036171747072133490&#45;&gt;4572600278003539478 -->
<g id="edge19" class="edge">
<title>&#45;9036171747072133490&#45;&gt;4572600278003539478</title>
<path fill="none" stroke="black" stroke-width="1.03" d="M88.5,-324.3C88.5,-341.1 88.5,-367.19 88.5,-389.81 88.5,-561.81 88.5,-561.81 88.5,-561.81 88.5,-582.36 111.48,-574.16 131.5,-578.81 170.06,-587.77 755.65,-630.52 914.18,-641.98"/>
<polygon fill="black" stroke="black" stroke-width="1.03" points="913.62,-645.52 923.84,-642.75 914.12,-638.54 913.62,-645.52"/>
<text text-anchor="middle" x="94" y="-472.71" font-family="Times New Roman,serif" font-size="12.00">3s</text>
</g>
<!-- &#45;9036171747072133490&#45;&gt;&#45;4162420903657016109 -->
<g id="edge20" class="edge">
<title>&#45;9036171747072133490&#45;&gt;&#45;4162420903657016109</title>
<path fill="none" stroke="black" stroke-width="1.08" d="M127.88,-324.23C140.27,-329.78 153.98,-335.99 166.5,-341.81 248.9,-380.14 344.26,-426.56 398.57,-453.19"/>
<polygon fill="black" stroke="black" stroke-width="1.08" points="396.7,-456.66 407.22,-457.92 399.78,-450.37 396.7,-456.66"/>
<text text-anchor="middle" x="311" y="-387.71" font-family="Times New Roman,serif" font-size="12.00">6s</text>
</g>
<!-- &#45;9036171747072133490&#45;&gt;8826139826624112448 -->
<g id="edge21" class="edge">
<title>&#45;9036171747072133490&#45;&gt;8826139826624112448</title>
<path fill="none" stroke="black" d="M110.38,-324.19C137.66,-345.45 186.1,-381.93 230.5,-408.81 331.63,-470.04 461.83,-522.28 524.92,-546.07"/>
<polygon fill="black" stroke="black" points="523.58,-549.68 534.17,-549.91 526.03,-543.12 523.58,-549.68"/>
<text text-anchor="middle" x="290" y="-430.21" font-family="Times New Roman,serif" font-size="12.00">1s</text>
</g>
<!-- &#45;1759314400454882690 -->
<g id="node19" class="node">
<title>&#45;1759314400454882690</title>
<polygon fill="none" stroke="black" points="59,-222.41 0,-222.41 0,-186.41 59,-186.41 59,-222.41"/>
<text text-anchor="middle" x="29.5" y="-201.31" font-family="Times New Roman,serif" font-size="12.00">getRange</text>
</g>
<!-- &#45;9036171747072133490&#45;&gt;&#45;1759314400454882690 -->
<g id="edge22" class="edge">
<title>&#45;9036171747072133490&#45;&gt;&#45;1759314400454882690</title>
<path fill="none" stroke="black" d="M78.22,-287.5C69.14,-272.2 55.76,-249.64 45.31,-232.04"/>
<polygon fill="black" stroke="black" points="47.97,-230.67 39.86,-223.86 41.95,-234.24 47.97,-230.67"/>
<text text-anchor="middle" x="72" y="-260.21" font-family="Times New Roman,serif" font-size="12.00">1s</text>
</g>
<!-- &#45;8142161333965579018 -->
<g id="node15" class="node">
<title>&#45;8142161333965579018</title>
<polygon fill="none" stroke="black" points="867,-323.81 694,-323.81 694,-287.81 867,-287.81 867,-323.81"/>
<text text-anchor="middle" x="780.5" y="-302.71" font-family="Times New Roman,serif" font-size="12.00">editField[q7_phoneNumber[area]]</text>
</g>
<!-- &#45;8142161333965579018&#45;&gt;&#45;2828859432936935225 -->
<g id="edge23" class="edge">
<title>&#45;8142161333965579018&#45;&gt;&#45;2828859432936935225</title>
<path fill="none" stroke="black" stroke-width="1.17" d="M791.22,-324.02C794.12,-329.5 796.89,-335.73 798.5,-341.81 800.19,-348.22 801.03,-355.27 801.37,-361.95"/>
<polygon fill="black" stroke="black" stroke-width="1.17" points="797.89,-361.72 801.56,-371.66 804.89,-361.6 797.89,-361.72"/>
<text text-anchor="middle" x="810" y="-345.21" font-family="Times New Roman,serif" font-size="12.00">11s</text>
</g>
<!-- 7645206821432851380 -->
<g id="node16" class="node">
<title>7645206821432851380</title>
<polygon fill="none" stroke="black" points="350.5,-323.81 168.5,-323.81 168.5,-287.81 350.5,-287.81 350.5,-323.81"/>
<text text-anchor="middle" x="259.5" y="-302.71" font-family="Times New Roman,serif" font-size="12.00">editField[q7_phoneNumber[phone]]</text>
</g>
<!-- 7645206821432851380&#45;&gt;&#45;7283433983056500281 -->
<g id="edge24" class="edge">
<title>7645206821432851380&#45;&gt;&#45;7283433983056500281</title>
<path fill="none" stroke="black" stroke-width="1.12" d="M251.36,-324.05C226.54,-376.89 153.5,-534.51 153.5,-559.81 153.5,-731.81 153.5,-731.81 153.5,-731.81 153.5,-805.74 701,-814.15 890.14,-814.85"/>
<polygon fill="black" stroke="black" stroke-width="1.12" points="890,-818.36 900.01,-814.89 890.02,-811.36 890,-818.36"/>
<text text-anchor="middle" x="159" y="-557.71" font-family="Times New Roman,serif" font-size="12.00">8s</text>
</g>
<!-- 7645206821432851380&#45;&gt;&#45;4162420903657016109 -->
<g id="edge25" class="edge">
<title>7645206821432851380&#45;&gt;&#45;4162420903657016109</title>
<path fill="none" stroke="black" stroke-width="1.03" d="M278.29,-324.06C310.91,-354 378.09,-415.68 415.62,-450.14"/>
<polygon fill="black" stroke="black" stroke-width="1.03" points="412.87,-452.28 422.61,-456.46 417.61,-447.12 412.87,-452.28"/>
<text text-anchor="middle" x="375" y="-387.71" font-family="Times New Roman,serif" font-size="12.00">3s</text>
</g>
<!-- 673443513727332637 -->
<g id="node17" class="node">
<title>673443513727332637</title>
<polygon fill="none" stroke="black" points="1411.5,-323.81 1263.5,-323.81 1263.5,-287.81 1411.5,-287.81 1411.5,-323.81"/>
<text text-anchor="middle" x="1337.5" y="-302.71" font-family="Times New Roman,serif" font-size="12.00">editField[q9_accountHolder]</text>
</g>
<!-- 673443513727332637&#45;&gt;4572600278003539478 -->
<g id="edge26" class="edge">
<title>673443513727332637&#45;&gt;4572600278003539478</title>
<path fill="none" stroke="black" stroke-width="1.17" d="M1312.17,-324.12C1293.56,-339.08 1271.5,-362.56 1271.5,-389.81 1271.5,-561.81 1271.5,-561.81 1271.5,-561.81 1271.5,-618.74 1078.3,-637.35 993.08,-642.79"/>
<polygon fill="black" stroke="black" stroke-width="1.17" points="993.05,-639.34 983.28,-643.44 993.47,-646.33 993.05,-639.34"/>
<text text-anchor="middle" x="1280" y="-472.71" font-family="Times New Roman,serif" font-size="12.00">11s</text>
</g>
<!-- 8826139826624112448&#45;&gt;&#45;4162420903657016109 -->
<g id="edge27" class="edge">
<title>8826139826624112448&#45;&gt;&#45;4162420903657016109</title>
<path fill="none" stroke="black" stroke-width="1.02" d="M537.34,-542.41C519.66,-530.18 495.81,-513.68 476.44,-500.29"/>
<polygon fill="black" stroke="black" stroke-width="1.02" points="478.84,-497 468.62,-494.19 474.86,-502.75 478.84,-497"/>
<text text-anchor="middle" x="516" y="-515.21" font-family="Times New Roman,serif" font-size="12.00">2s</text>
</g>
<!-- 8826139826624112448&#45;&gt;&#45;2828859432936935225 -->
<g id="edge28" class="edge">
<title>8826139826624112448&#45;&gt;&#45;2828859432936935225</title>
<path fill="none" stroke="black" stroke-width="1.02" d="M587.07,-542.46C630.03,-512.14 718.8,-449.48 767.22,-415.3"/>
<polygon fill="black" stroke="black" stroke-width="1.02" points="768.91,-417.69 775.06,-409.06 764.87,-411.97 768.91,-417.69"/>
<text text-anchor="middle" x="711" y="-472.71" font-family="Times New Roman,serif" font-size="12.00">2s</text>
</g>
<!-- &#45;1759314400454882690&#45;&gt;8826139826624112448 -->
<g id="edge29" class="edge">
<title>&#45;1759314400454882690&#45;&gt;8826139826624112448</title>
<path fill="none" stroke="black" d="M21.76,-222.79C12.19,-247.1 -0.74,-291.87 17.5,-323.81 124.17,-510.64 418.99,-549.69 524.41,-557.75"/>
<polygon fill="black" stroke="black" points="523.93,-561.3 534.16,-558.51 524.43,-554.31 523.93,-561.3"/>
<text text-anchor="middle" x="94" y="-387.71" font-family="Times New Roman,serif" font-size="12.00">1s</text>
</g>
<!-- 1246284287722020625 -->
<g id="node20" class="node">
<title>1246284287722020625</title>
<polygon fill="none" stroke="black" points="592.5,-748.81 524.5,-748.81 524.5,-712.81 592.5,-712.81 592.5,-748.81"/>
<text text-anchor="middle" x="558.5" y="-727.71" font-family="Times New Roman,serif" font-size="12.00">navigate_to</text>
</g>
<!-- 1246284287722020625&#45;&gt;4572600278003539478 -->
<g id="edge30" class="edge">
<title>1246284287722020625&#45;&gt;4572600278003539478</title>
<path fill="none" stroke="black" d="M592.86,-722.59C665.94,-707.23 836.43,-671.41 913.91,-655.13"/>
<polygon fill="black" stroke="black" points="914.58,-658.36 923.65,-652.87 913.14,-651.51 914.58,-658.36"/>
<text text-anchor="middle" x="786" y="-685.21" font-family="Times New Roman,serif" font-size="12.00">1s</text>
</g>
<!-- &#45;2828859432936935225&#45;&gt;4017203369508189456 -->
<g id="edge31" class="edge">
<title>&#45;2828859432936935225&#45;&gt;4017203369508189456</title>
<path fill="none" stroke="black" stroke-width="1.17" d="M827.85,-374.97C851.2,-362.31 885.14,-343.89 911.86,-329.4"/>
<polygon fill="black" stroke="black" stroke-width="1.17" points="913.23,-332.1 920.35,-324.25 909.89,-325.94 913.23,-332.1"/>
<text text-anchor="middle" x="895" y="-345.21" font-family="Times New Roman,serif" font-size="12.00">11s</text>
</g>
<!-- &#45;2828859432936935225&#45;&gt;2137833237022894573 -->
<g id="edge32" class="edge">
<title>&#45;2828859432936935225&#45;&gt;2137833237022894573</title>
<path fill="none" stroke="black" stroke-width="1.17" d="M773.12,-387.84C737.46,-384.5 673.75,-375.92 623.5,-354.81 614.07,-350.85 613.88,-345.89 604.5,-341.81 597.73,-338.86 569.6,-332.31 539.06,-325.67"/>
<polygon fill="black" stroke="black" stroke-width="1.17" points="540.16,-322.11 529.64,-323.42 538.68,-328.95 540.16,-322.11"/>
<text text-anchor="middle" x="632" y="-345.21" font-family="Times New Roman,serif" font-size="12.00">11s</text>
</g>
<!-- &#45;2828859432936935225&#45;&gt;&#45;1548836318819260850 -->
<g id="edge33" class="edge">
<title>&#45;2828859432936935225&#45;&gt;&#45;1548836318819260850</title>
<path fill="none" stroke="black" stroke-width="2.6" d="M827.91,-383.16C877.31,-371.17 983.13,-345.49 1058.38,-327.23"/>
<polygon fill="black" stroke="black" stroke-width="2.6" points="1058.76,-330.01 1067.65,-324.25 1057.1,-323.21 1058.76,-330.01"/>
<text text-anchor="middle" x="999" y="-345.21" font-family="Times New Roman,serif" font-size="12.00">1m</text>
</g>
<!-- &#45;2828859432936935225&#45;&gt;&#45;7261425491390122994 -->
<g id="edge34" class="edge">
<title>&#45;2828859432936935225&#45;&gt;&#45;7261425491390122994</title>
<path fill="none" stroke="black" stroke-width="1.17" d="M773.01,-382.69C751.78,-376.66 721.99,-367.06 697.5,-354.81 688.35,-350.23 687.27,-347.08 678.5,-341.81 671.46,-337.58 663.86,-333.33 656.39,-329.32"/>
<polygon fill="black" stroke="black" stroke-width="1.17" points="658.18,-325.78 647.71,-324.21 654.91,-331.97 658.18,-325.78"/>
<text text-anchor="middle" x="706" y="-345.21" font-family="Times New Roman,serif" font-size="12.00">11s</text>
</g>
<!-- &#45;2828859432936935225&#45;&gt;1879159653324323843 -->
<g id="edge35" class="edge">
<title>&#45;2828859432936935225&#45;&gt;1879159653324323843</title>
<path fill="none" stroke="black" stroke-width="1.17" d="M827.72,-387.65C890.16,-382.61 1048.47,-369.41 1180.5,-354.81 1283.96,-343.37 1312.82,-342.94 1418.29,-324.12"/>
<polygon fill="black" stroke="black" stroke-width="1.17" points="1418.86,-327.4 1428.09,-322.18 1417.62,-320.51 1418.86,-327.4"/>
<text text-anchor="middle" x="1309" y="-345.21" font-family="Times New Roman,serif" font-size="12.00">11s</text>
</g>
<!-- &#45;2828859432936935225&#45;&gt;6075178304717725746 -->
<g id="edge36" class="edge">
<title>&#45;2828859432936935225&#45;&gt;6075178304717725746</title>
<path fill="none" stroke="black" stroke-width="1.17" d="M827.94,-388.54C905.54,-384.81 1133.14,-373.04 1321.5,-354.81 1373.24,-349.8 1498.53,-336.19 1564.59,-323.98"/>
<polygon fill="black" stroke="black" stroke-width="1.17" points="1564.89,-327.29 1574.05,-321.95 1563.56,-320.42 1564.89,-327.29"/>
<text text-anchor="middle" x="1447" y="-345.21" font-family="Times New Roman,serif" font-size="12.00">11s</text>
</g>
<!-- &#45;2828859432936935225&#45;&gt;6411501856739108121 -->
<g id="edge37" class="edge">
<title>&#45;2828859432936935225&#45;&gt;6411501856739108121</title>
<path fill="none" stroke="black" stroke-width="1.17" d="M827.87,-389.16C918.21,-386.83 1215.11,-377.8 1459.5,-354.81 1558.36,-345.51 1585.27,-340.12 1686.37,-324.13"/>
<polygon fill="black" stroke="black" stroke-width="1.17" points="1686.73,-327.46 1696.06,-322.44 1685.64,-320.54 1686.73,-327.46"/>
<text text-anchor="middle" x="1578" y="-345.21" font-family="Times New Roman,serif" font-size="12.00">11s</text>
</g>
<!-- &#45;2828859432936935225&#45;&gt;&#45;9036171747072133490 -->
<g id="edge38" class="edge">
<title>&#45;2828859432936935225&#45;&gt;&#45;9036171747072133490</title>
<path fill="none" stroke="black" stroke-width="1.17" d="M773.15,-388.29C685.49,-383.16 403.65,-364.55 161.15,-323.96"/>
<polygon fill="black" stroke="black" stroke-width="1.17" points="161.8,-320.35 151.36,-322.13 160.63,-327.25 161.8,-320.35"/>
<text text-anchor="middle" x="379" y="-345.21" font-family="Times New Roman,serif" font-size="12.00">11s</text>
</g>
<!-- &#45;2828859432936935225&#45;&gt;&#45;8142161333965579018 -->
<g id="edge39" class="edge">
<title>&#45;2828859432936935225&#45;&gt;&#45;8142161333965579018</title>
<path fill="none" stroke="black" stroke-width="1.17" d="M786.4,-372.66C782.78,-367.27 779.38,-361.08 777.5,-354.81 775.6,-348.46 775.17,-341.42 775.47,-334.75"/>
<polygon fill="black" stroke="black" stroke-width="1.17" points="779.03,-335.33 776.56,-325.02 772.07,-334.62 779.03,-335.33"/>
<text text-anchor="middle" x="786" y="-345.21" font-family="Times New Roman,serif" font-size="12.00">11s</text>
</g>
<!-- &#45;2828859432936935225&#45;&gt;7645206821432851380 -->
<g id="edge40" class="edge">
<title>&#45;2828859432936935225&#45;&gt;7645206821432851380</title>
<path fill="none" stroke="black" stroke-width="1.17" d="M773.12,-385.91C705.3,-376.19 523.85,-349.96 361.44,-324.11"/>
<polygon fill="black" stroke="black" stroke-width="1.17" points="362.2,-320.52 351.77,-322.4 361.1,-327.44 362.2,-320.52"/>
<text text-anchor="middle" x="562" y="-345.21" font-family="Times New Roman,serif" font-size="12.00">11s</text>
</g>
<!-- &#45;2828859432936935225&#45;&gt;673443513727332637 -->
<g id="edge41" class="edge">
<title>&#45;2828859432936935225&#45;&gt;673443513727332637</title>
<path fill="none" stroke="black" stroke-width="1.17" d="M827.79,-386.93C878.22,-381.49 989.34,-368.98 1082.5,-354.81 1155.99,-343.64 1176.49,-338.91 1252.69,-324.15"/>
<polygon fill="black" stroke="black" stroke-width="1.17" points="1253.15,-327.43 1262.31,-322.1 1251.82,-320.56 1253.15,-327.43"/>
<text text-anchor="middle" x="1168" y="-345.21" font-family="Times New Roman,serif" font-size="12.00">11s</text>
</g>
<!-- &#45;2828859432936935225&#45;&gt;&#45;2828859432936935225 -->
<g id="edge42" class="edge">
<title>&#45;2828859432936935225&#45;&gt;&#45;2828859432936935225</title>
<path fill="none" stroke="black" stroke-width="1.02" d="M827.74,-398.77C837.52,-398.94 845.5,-396.29 845.5,-390.81 845.5,-387.56 842.69,-385.3 838.36,-384.04"/>
<polygon fill="black" stroke="black" stroke-width="1.02" points="839.07,-380.49 828.74,-382.85 838.29,-387.44 839.07,-380.49"/>
<text text-anchor="middle" x="851" y="-387.71" font-family="Times New Roman,serif" font-size="12.00">2s</text>
</g>
<!-- &#45;8551108795534898076&#45;&gt;4572600278003539478 -->
<g id="edge43" class="edge">
<title>&#45;8551108795534898076&#45;&gt;4572600278003539478</title>
<path fill="none" stroke="black" stroke-width="1.32" d="M953.5,-712.61C953.5,-701.78 953.5,-687.54 953.5,-675.07"/>
<polygon fill="black" stroke="black" stroke-width="1.32" points="957,-675.27 953.5,-665.27 950,-675.27 957,-675.27"/>
<text text-anchor="middle" x="962" y="-685.21" font-family="Times New Roman,serif" font-size="12.00">20s</text>
</g>
<!-- &#45;8551108795534898076&#45;&gt;8826139826624112448 -->
<g id="edge44" class="edge">
<title>&#45;8551108795534898076&#45;&gt;8826139826624112448</title>
<path fill="none" stroke="black" d="M907.18,-723.18C835.29,-711.03 695.07,-679.72 598.5,-609.81 590.49,-604.02 583.48,-595.92 577.82,-588.03"/>
<polygon fill="black" stroke="black" points="580.27,-586.4 571.82,-580.01 574.44,-590.28 580.27,-586.4"/>
<text text-anchor="middle" x="698" y="-642.71" font-family="Times New Roman,serif" font-size="12.00">1s</text>
</g>
</g>
</svg>
