<?xml version="1.0" encoding="UTF-8" standalone="no"?>
<!DOCTYPE svg PUBLIC "-//W3C//DTD SVG 1.1//EN"
 "http://www.w3.org/Graphics/SVG/1.1/DTD/svg11.dtd">
<!-- Generated by graphviz version 7.1.0 (20230121.1956)
 -->
<!-- Pages: 1 -->
<svg width="1531pt" height="1012pt"
 viewBox="0.00 0.00 1531.00 1011.81" xmlns="http://www.w3.org/2000/svg" xmlns:xlink="http://www.w3.org/1999/xlink">
<g id="graph0" class="graph" transform="scale(1 1) rotate(0) translate(4 1007.81)">
<polygon fill="white" stroke="none" points="-4,4 -4,-1007.81 1527,-1007.81 1527,4 -4,4"/>
<!-- &#45;8421013627638508074 -->
<g id="node1" class="node">
<title>&#45;8421013627638508074</title>
<polygon fill="none" stroke="black" points="119,-1003.81 15,-1003.81 15,-967.81 119,-967.81 119,-1003.81"/>
<text text-anchor="middle" x="67" y="-982.71" font-family="Times New Roman,serif" font-size="12.00">clickButton[button]</text>
</g>
<!-- &#45;2342417462293921512 -->
<g id="node32" class="node">
<title>&#45;2342417462293921512</title>
<polygon fill="none" stroke="black" points="951,-918.81 859,-918.81 859,-882.81 951,-882.81 951,-918.81"/>
<text text-anchor="middle" x="905" y="-897.71" font-family="Times New Roman,serif" font-size="12.00">selectWorksheet</text>
</g>
<!-- &#45;8421013627638508074&#45;&gt;&#45;2342417462293921512 -->
<g id="edge1" class="edge">
<title>&#45;8421013627638508074&#45;&gt;&#45;2342417462293921512</title>
<path fill="none" stroke="black" stroke-width="1.17" d="M119.3,-984.28C244.18,-982.19 569.43,-971.86 847.15,-919.12"/>
<polygon fill="black" stroke="black" stroke-width="1.17" points="847.76,-922.57 856.92,-917.24 846.44,-915.69 847.76,-922.57"/>
<text text-anchor="middle" x="753.5" y="-940.21" font-family="Times New Roman,serif" font-size="12.00">22s</text>
</g>
<!-- 8659733819878033834 -->
<g id="node2" class="node">
<title>8659733819878033834</title>
<polygon fill="none" stroke="black" points="1370,-222.41 1266,-222.41 1266,-186.41 1370,-186.41 1370,-222.41"/>
<text text-anchor="middle" x="1318" y="-201.31" font-family="Times New Roman,serif" font-size="12.00">clickButton[submit]</text>
</g>
<!-- 1054217341451333691 -->
<g id="node3" class="node">
<title>1054217341451333691</title>
<polygon fill="none" stroke="black" points="1441,-121 1383,-121 1383,-85 1441,-85 1441,-121"/>
<text text-anchor="middle" x="1412" y="-99.9" font-family="Times New Roman,serif" font-size="12.00">clickLink</text>
</g>
<!-- 8659733819878033834&#45;&gt;1054217341451333691 -->
<g id="edge2" class="edge">
<title>8659733819878033834&#45;&gt;1054217341451333691</title>
<path fill="none" stroke="black" stroke-width="1.17" d="M1334.37,-186.09C1349.11,-170.51 1370.96,-147.4 1387.73,-129.67"/>
<polygon fill="black" stroke="black" stroke-width="1.17" points="1389.96,-132.4 1394.29,-122.73 1384.87,-127.59 1389.96,-132.4"/>
<text text-anchor="middle" x="1384.5" y="-142.4" font-family="Times New Roman,serif" font-size="12.00">21s</text>
</g>
<!-- &#45;6686815318746011082 -->
<g id="node6" class="node">
<title>&#45;6686815318746011082</title>
<polygon fill="none" stroke="black" points="1520.5,-36 1435.5,-36 1435.5,0 1520.5,0 1520.5,-36"/>
<text text-anchor="middle" x="1478" y="-14.9" font-family="Times New Roman,serif" font-size="12.00">createNewTab</text>
</g>
<!-- 1054217341451333691&#45;&gt;&#45;6686815318746011082 -->
<g id="edge3" class="edge">
<title>1054217341451333691&#45;&gt;&#45;6686815318746011082</title>
<path fill="none" stroke="black" stroke-width="1.17" d="M1425.68,-84.8C1434.73,-73.42 1446.78,-58.26 1457.03,-45.37"/>
<polygon fill="black" stroke="black" stroke-width="1.17" points="1459.53,-47.85 1463.02,-37.84 1454.05,-43.49 1459.53,-47.85"/>
<text text-anchor="middle" x="1456.5" y="-57.4" font-family="Times New Roman,serif" font-size="12.00">21s</text>
</g>
<!-- &#45;349242997702854405 -->
<g id="node4" class="node">
<title>&#45;349242997702854405</title>
<polygon fill="none" stroke="black" points="884.5,-833.81 827.5,-833.81 827.5,-797.81 884.5,-797.81 884.5,-833.81"/>
<text text-anchor="middle" x="856" y="-812.71" font-family="Times New Roman,serif" font-size="12.00">copyCell</text>
</g>
<!-- 3670417997280707311 -->
<g id="node18" class="node">
<title>3670417997280707311</title>
<polygon fill="none" stroke="black" points="738,-493.81 684,-493.81 684,-457.81 738,-457.81 738,-493.81"/>
<text text-anchor="middle" x="711" y="-472.71" font-family="Times New Roman,serif" font-size="12.00">getCell</text>
</g>
<!-- &#45;349242997702854405&#45;&gt;3670417997280707311 -->
<g id="edge4" class="edge">
<title>&#45;349242997702854405&#45;&gt;3670417997280707311</title>
<path fill="none" stroke="black" d="M827.09,-809.15C789.89,-799.98 730,-778.04 730,-731.81 730,-731.81 730,-731.81 730,-559.81 730,-541.14 725.37,-520.68 720.69,-504.75"/>
<polygon fill="black" stroke="black" points="724.11,-503.98 717.78,-495.48 717.43,-506.07 724.11,-503.98"/>
<text text-anchor="middle" x="735.5" y="-642.71" font-family="Times New Roman,serif" font-size="12.00">1s</text>
</g>
<!-- 4744432682323570212 -->
<g id="node21" class="node">
<title>4744432682323570212</title>
<polygon fill="none" stroke="black" points="476,-748.81 354,-748.81 354,-712.81 476,-712.81 476,-748.81"/>
<text text-anchor="middle" x="415" y="-727.71" font-family="Times New Roman,serif" font-size="12.00">paste[q10_bankName]</text>
</g>
<!-- &#45;349242997702854405&#45;&gt;4744432682323570212 -->
<g id="edge5" class="edge">
<title>&#45;349242997702854405&#45;&gt;4744432682323570212</title>
<path fill="none" stroke="black" stroke-width="1.17" d="M827,-814.08C750.42,-811.84 544.32,-803.71 481,-779.81 466.92,-774.5 453.15,-765.32 441.87,-756.41"/>
<polygon fill="black" stroke="black" stroke-width="1.17" points="444.33,-753.9 434.4,-750.21 439.86,-759.29 444.33,-753.9"/>
<text text-anchor="middle" x="489.5" y="-770.21" font-family="Times New Roman,serif" font-size="12.00">22s</text>
</g>
<!-- 4604581665166516345 -->
<g id="node22" class="node">
<title>4604581665166516345</title>
<polygon fill="none" stroke="black" points="1401.5,-748.81 1256.5,-748.81 1256.5,-712.81 1401.5,-712.81 1401.5,-748.81"/>
<text text-anchor="middle" x="1329" y="-727.71" font-family="Times New Roman,serif" font-size="12.00">paste[q11_accountNumber]</text>
</g>
<!-- &#45;349242997702854405&#45;&gt;4604581665166516345 -->
<g id="edge6" class="edge">
<title>&#45;349242997702854405&#45;&gt;4604581665166516345</title>
<path fill="none" stroke="black" stroke-width="1.17" d="M884.84,-813.56C961.55,-810.01 1169.23,-798.87 1235,-779.81 1254.68,-774.11 1275.09,-764.23 1291.85,-754.92"/>
<polygon fill="black" stroke="black" stroke-width="1.17" points="1293.3,-758.12 1300.23,-750.11 1289.82,-752.05 1293.3,-758.12"/>
<text text-anchor="middle" x="1275.5" y="-770.21" font-family="Times New Roman,serif" font-size="12.00">22s</text>
</g>
<!-- 1955449513403805491 -->
<g id="node23" class="node">
<title>1955449513403805491</title>
<polygon fill="none" stroke="black" points="1413,-408.81 1223,-408.81 1223,-372.81 1413,-372.81 1413,-408.81"/>
<text text-anchor="middle" x="1318" y="-387.71" font-family="Times New Roman,serif" font-size="12.00">paste[q12_reimbursementDetails[0][]]</text>
</g>
<!-- &#45;349242997702854405&#45;&gt;1955449513403805491 -->
<g id="edge7" class="edge">
<title>&#45;349242997702854405&#45;&gt;1955449513403805491</title>
<path fill="none" stroke="black" stroke-width="1.33" d="M884.86,-813.72C1001.26,-808.93 1430,-787.5 1430,-731.81 1430,-731.81 1430,-731.81 1430,-474.81 1430,-447.07 1407.55,-427.53 1382.75,-414.41"/>
<polygon fill="black" stroke="black" stroke-width="1.33" points="1384.37,-411.31 1373.84,-410.06 1381.29,-417.6 1384.37,-411.31"/>
<text text-anchor="middle" x="1438.5" y="-600.21" font-family="Times New Roman,serif" font-size="12.00">41s</text>
</g>
<!-- &#45;802786066028636207 -->
<g id="node24" class="node">
<title>&#45;802786066028636207</title>
<polygon fill="none" stroke="black" points="1033,-748.81 919,-748.81 919,-712.81 1033,-712.81 1033,-748.81"/>
<text text-anchor="middle" x="976" y="-727.71" font-family="Times New Roman,serif" font-size="12.00">paste[q3_name[first]]</text>
</g>
<!-- &#45;349242997702854405&#45;&gt;&#45;802786066028636207 -->
<g id="edge8" class="edge">
<title>&#45;349242997702854405&#45;&gt;&#45;802786066028636207</title>
<path fill="none" stroke="black" stroke-width="1.17" d="M881.16,-797.41C898.6,-785.35 922.05,-769.13 941.27,-755.84"/>
<polygon fill="black" stroke="black" stroke-width="1.17" points="943.18,-758.77 949.41,-750.2 939.2,-753.01 943.18,-758.77"/>
<text text-anchor="middle" x="931.5" y="-770.21" font-family="Times New Roman,serif" font-size="12.00">22s</text>
</g>
<!-- 5504490665134479466 -->
<g id="node26" class="node">
<title>5504490665134479466</title>
<polygon fill="none" stroke="black" points="900.5,-748.81 811.5,-748.81 811.5,-712.81 900.5,-712.81 900.5,-748.81"/>
<text text-anchor="middle" x="856" y="-727.71" font-family="Times New Roman,serif" font-size="12.00">paste[q4_email]</text>
</g>
<!-- &#45;349242997702854405&#45;&gt;5504490665134479466 -->
<g id="edge9" class="edge">
<title>&#45;349242997702854405&#45;&gt;5504490665134479466</title>
<path fill="none" stroke="black" stroke-width="1.18" d="M856,-797.61C856,-787 856,-773.12 856,-760.84"/>
<polygon fill="black" stroke="black" stroke-width="1.18" points="859.5,-761.06 856,-751.06 852.5,-761.06 859.5,-761.06"/>
<text text-anchor="middle" x="864.5" y="-770.21" font-family="Times New Roman,serif" font-size="12.00">23s</text>
</g>
<!-- 4004908014844761737 -->
<g id="node28" class="node">
<title>4004908014844761737</title>
<polygon fill="none" stroke="black" points="702,-748.81 594,-748.81 594,-712.81 702,-712.81 702,-748.81"/>
<text text-anchor="middle" x="648" y="-727.71" font-family="Times New Roman,serif" font-size="12.00">paste[q6_studentId]</text>
</g>
<!-- &#45;349242997702854405&#45;&gt;4004908014844761737 -->
<g id="edge10" class="edge">
<title>&#45;349242997702854405&#45;&gt;4004908014844761737</title>
<path fill="none" stroke="black" stroke-width="1.17" d="M827.21,-812.98C794.47,-809.89 740.21,-801.65 699,-779.81 688.31,-774.15 678.23,-765.64 669.9,-757.36"/>
<polygon fill="black" stroke="black" stroke-width="1.17" points="672.55,-755.06 663.12,-750.22 667.47,-759.88 672.55,-755.06"/>
<text text-anchor="middle" x="707.5" y="-770.21" font-family="Times New Roman,serif" font-size="12.00">22s</text>
</g>
<!-- 2070911815398967774 -->
<g id="node29" class="node">
<title>2070911815398967774</title>
<polygon fill="none" stroke="black" points="336,-748.81 178,-748.81 178,-712.81 336,-712.81 336,-748.81"/>
<text text-anchor="middle" x="257" y="-727.71" font-family="Times New Roman,serif" font-size="12.00">paste[q7_phoneNumber[area]]</text>
</g>
<!-- &#45;349242997702854405&#45;&gt;2070911815398967774 -->
<g id="edge11" class="edge">
<title>&#45;349242997702854405&#45;&gt;2070911815398967774</title>
<path fill="none" stroke="black" stroke-width="1.17" d="M827.07,-814.16C758.73,-812.23 582.1,-805.01 437,-779.81 398.92,-773.2 357.18,-762.3 323.48,-752.56"/>
<polygon fill="black" stroke="black" stroke-width="1.17" points="324.67,-749.26 314.09,-749.81 322.7,-755.98 324.67,-749.26"/>
<text text-anchor="middle" x="445.5" y="-770.21" font-family="Times New Roman,serif" font-size="12.00">22s</text>
</g>
<!-- 5144228901829614650 -->
<g id="node31" class="node">
<title>5144228901829614650</title>
<polygon fill="none" stroke="black" points="1108.5,-408.81 975.5,-408.81 975.5,-372.81 1108.5,-372.81 1108.5,-408.81"/>
<text text-anchor="middle" x="1042" y="-387.71" font-family="Times New Roman,serif" font-size="12.00">paste[q9_accountHolder]</text>
</g>
<!-- &#45;349242997702854405&#45;&gt;5144228901829614650 -->
<g id="edge12" class="edge">
<title>&#45;349242997702854405&#45;&gt;5144228901829614650</title>
<path fill="none" stroke="black" stroke-width="1.17" d="M884.81,-813.1C920.55,-810.09 982.66,-801.88 1031,-779.81 1051.46,-770.47 1058.63,-767.59 1071,-748.81 1139.74,-644.47 1082.71,-483.99 1054.99,-419.77"/>
<polygon fill="black" stroke="black" stroke-width="1.17" points="1058.31,-418.63 1051.06,-410.9 1051.91,-421.46 1058.31,-418.63"/>
<text text-anchor="middle" x="1111.5" y="-600.21" font-family="Times New Roman,serif" font-size="12.00">21s</text>
</g>
<!-- &#45;2337737116181962960 -->
<g id="node5" class="node">
<title>&#45;2337737116181962960</title>
<polygon fill="none" stroke="black" points="475,-408.81 407,-408.81 407,-372.81 475,-372.81 475,-408.81"/>
<text text-anchor="middle" x="441" y="-387.71" font-family="Times New Roman,serif" font-size="12.00">copyRange</text>
</g>
<!-- &#45;7686844205181626037 -->
<g id="node27" class="node">
<title>&#45;7686844205181626037</title>
<polygon fill="none" stroke="black" points="307.5,-323.81 150.5,-323.81 150.5,-287.81 307.5,-287.81 307.5,-323.81"/>
<text text-anchor="middle" x="229" y="-302.71" font-family="Times New Roman,serif" font-size="12.00">paste[q5_address[addr_line1]]</text>
</g>
<!-- &#45;2337737116181962960&#45;&gt;&#45;7686844205181626037 -->
<g id="edge13" class="edge">
<title>&#45;2337737116181962960&#45;&gt;&#45;7686844205181626037</title>
<path fill="none" stroke="black" stroke-width="1.17" d="M406.94,-376.48C373.88,-363.53 323.14,-343.67 284.3,-328.46"/>
<polygon fill="black" stroke="black" stroke-width="1.17" points="285.92,-325.34 275.33,-324.95 283.37,-331.86 285.92,-325.34"/>
<text text-anchor="middle" x="356.5" y="-345.21" font-family="Times New Roman,serif" font-size="12.00">22s</text>
</g>
<!-- &#45;6686815318746011082&#45;&gt;&#45;2342417462293921512 -->
<g id="edge14" class="edge">
<title>&#45;6686815318746011082&#45;&gt;&#45;2342417462293921512</title>
<path fill="none" stroke="black" stroke-width="1.17" d="M1487.48,-36.24C1495.6,-52.64 1506,-78.28 1506,-102 1506,-816.81 1506,-816.81 1506,-816.81 1506,-874.25 1442.27,-853.28 1386,-864.81 1235.68,-895.62 1054.07,-900.26 963.01,-900.4"/>
<polygon fill="black" stroke="black" stroke-width="1.17" points="963.07,-896.9 953.07,-900.4 963.07,-903.9 963.07,-896.9"/>
<text text-anchor="middle" x="1514.5" y="-472.71" font-family="Times New Roman,serif" font-size="12.00">21s</text>
</g>
<!-- &#45;3417061393049347223 -->
<g id="node7" class="node">
<title>&#45;3417061393049347223</title>
<polygon fill="none" stroke="black" points="526.5,-663.81 389.5,-663.81 389.5,-627.81 526.5,-627.81 526.5,-663.81"/>
<text text-anchor="middle" x="458" y="-642.71" font-family="Times New Roman,serif" font-size="12.00">editField[q10_bankName]</text>
</g>
<!-- &#45;3417061393049347223&#45;&gt;&#45;349242997702854405 -->
<g id="edge15" class="edge">
<title>&#45;3417061393049347223&#45;&gt;&#45;349242997702854405</title>
<path fill="none" stroke="black" stroke-width="1.17" d="M468.62,-663.98C488.85,-694.74 536.28,-758.08 596,-779.81 670.3,-806.84 763.38,-813.31 815.61,-814.67"/>
<polygon fill="black" stroke="black" stroke-width="1.17" points="815.51,-818.17 825.58,-814.87 815.65,-811.17 815.51,-818.17"/>
<text text-anchor="middle" x="550.5" y="-727.71" font-family="Times New Roman,serif" font-size="12.00">22s</text>
</g>
<!-- &#45;4003299731570885441 -->
<g id="node8" class="node">
<title>&#45;4003299731570885441</title>
<polygon fill="none" stroke="black" points="1398,-663.81 1238,-663.81 1238,-627.81 1398,-627.81 1398,-663.81"/>
<text text-anchor="middle" x="1318" y="-642.71" font-family="Times New Roman,serif" font-size="12.00">editField[q11_accountNumber]</text>
</g>
<!-- &#45;4003299731570885441&#45;&gt;&#45;349242997702854405 -->
<g id="edge16" class="edge">
<title>&#45;4003299731570885441&#45;&gt;&#45;349242997702854405</title>
<path fill="none" stroke="black" stroke-width="1.16" d="M1290.04,-664.18C1271.87,-676.35 1248.4,-693.79 1231,-712.81 1207.28,-738.74 1218.82,-761.21 1189,-779.81 1141.13,-809.68 974.39,-814.37 896.58,-814.9"/>
<polygon fill="black" stroke="black" stroke-width="1.16" points="896.62,-811.4 886.64,-814.94 896.65,-818.4 896.62,-811.4"/>
<text text-anchor="middle" x="1239.5" y="-727.71" font-family="Times New Roman,serif" font-size="12.00">20s</text>
</g>
<!-- &#45;4003299731570885441&#45;&gt;1955449513403805491 -->
<g id="edge17" class="edge">
<title>&#45;4003299731570885441&#45;&gt;1955449513403805491</title>
<path fill="none" stroke="black" stroke-width="1.01" d="M1318,-627.42C1318,-584.53 1318,-473.34 1318,-420.5"/>
<polygon fill="black" stroke="black" stroke-width="1.01" points="1321.5,-420.51 1318,-410.51 1314.5,-420.51 1321.5,-420.51"/>
<text text-anchor="middle" x="1323.5" y="-515.21" font-family="Times New Roman,serif" font-size="12.00">2s</text>
</g>
<!-- &#45;3774925265531423684 -->
<g id="node9" class="node">
<title>&#45;3774925265531423684</title>
<polygon fill="none" stroke="black" points="1420.5,-323.81 1215.5,-323.81 1215.5,-287.81 1420.5,-287.81 1420.5,-323.81"/>
<text text-anchor="middle" x="1318" y="-302.71" font-family="Times New Roman,serif" font-size="12.00">editField[q12_reimbursementDetails[0][]]</text>
</g>
<!-- &#45;3774925265531423684&#45;&gt;8659733819878033834 -->
<g id="edge18" class="edge">
<title>&#45;3774925265531423684&#45;&gt;8659733819878033834</title>
<path fill="none" stroke="black" stroke-width="1.17" d="M1318,-287.5C1318,-272.9 1318,-251.71 1318,-234.52"/>
<polygon fill="black" stroke="black" stroke-width="1.17" points="1321.5,-234.62 1318,-224.62 1314.5,-234.62 1321.5,-234.62"/>
<text text-anchor="middle" x="1326.5" y="-260.21" font-family="Times New Roman,serif" font-size="12.00">21s</text>
</g>
<!-- &#45;3774925265531423684&#45;&gt;&#45;349242997702854405 -->
<g id="edge19" class="edge">
<title>&#45;3774925265531423684&#45;&gt;&#45;349242997702854405</title>
<path fill="none" stroke="black" stroke-width="1.17" d="M1250.63,-324.21C1219.79,-336.64 1190,-357.1 1190,-389.81 1190,-519.31 1190,-519.31 1190,-519.31 1190,-623.01 1204.33,-661.75 1148,-748.81 1134.81,-769.2 1125.63,-770.98 1103,-779.81 1033.86,-806.79 946.6,-813.33 896.46,-814.71"/>
<polygon fill="black" stroke="black" stroke-width="1.17" points="896.55,-811.21 886.63,-814.92 896.7,-818.21 896.55,-811.21"/>
<text text-anchor="middle" x="1199.5" y="-557.71" font-family="Times New Roman,serif" font-size="12.00">22s</text>
</g>
<!-- &#45;3774925265531423684&#45;&gt;1955449513403805491 -->
<g id="edge20" class="edge">
<title>&#45;3774925265531423684&#45;&gt;1955449513403805491</title>
<path fill="none" stroke="black" stroke-width="2.23" d="M1318,-324.27C1318,-334.49 1318,-347.69 1318,-359.55"/>
<polygon fill="black" stroke="black" stroke-width="2.23" points="1314.5,-359.23 1318,-369.23 1321.5,-359.23 1314.5,-359.23"/>
<text text-anchor="middle" x="1325.5" y="-345.21" font-family="Times New Roman,serif" font-size="12.00">2m</text>
</g>
<!-- @@endnode -->
<g id="node33" class="node">
<title>@@endnode</title>
<ellipse fill="none" stroke="black" cx="1422" cy="-204.41" rx="30.32" ry="30.32"/>
<ellipse fill="none" stroke="black" cx="1422" cy="-204.41" rx="34.31" ry="34.31"/>
<text text-anchor="start" x="1412" y="-196.31" font-family="Times New Roman,serif" font-size="32.00">■</text>
</g>
<!-- &#45;3774925265531423684&#45;&gt;@@endnode -->
<g id="edge55" class="edge">
<title>&#45;3774925265531423684&#45;&gt;@@endnode</title>
<path fill="none" stroke="black" d="M1336.12,-287.5C1350.72,-273.54 1371.64,-253.54 1389.17,-236.78"/>
<polygon fill="black" stroke="black" points="1391.56,-239.34 1396.37,-229.9 1386.73,-234.28 1391.56,-239.34"/>
<text text-anchor="middle" x="1369.5" y="-260.21" font-family="Times New Roman,serif" font-size="12.00">1</text>
</g>
<!-- 5148547196844223595 -->
<g id="node10" class="node">
<title>5148547196844223595</title>
<polygon fill="none" stroke="black" points="1017.5,-663.81 888.5,-663.81 888.5,-627.81 1017.5,-627.81 1017.5,-663.81"/>
<text text-anchor="middle" x="953" y="-642.71" font-family="Times New Roman,serif" font-size="12.00">editField[q3_name[first]]</text>
</g>
<!-- &#45;4040636298552314058 -->
<g id="node25" class="node">
<title>&#45;4040636298552314058</title>
<polygon fill="none" stroke="black" points="1020.5,-578.81 907.5,-578.81 907.5,-542.81 1020.5,-542.81 1020.5,-578.81"/>
<text text-anchor="middle" x="964" y="-557.71" font-family="Times New Roman,serif" font-size="12.00">paste[q3_name[last]]</text>
</g>
<!-- 5148547196844223595&#45;&gt;&#45;4040636298552314058 -->
<g id="edge21" class="edge">
<title>5148547196844223595&#45;&gt;&#45;4040636298552314058</title>
<path fill="none" stroke="black" stroke-width="1.17" d="M955.28,-627.61C956.69,-617 958.53,-603.12 960.15,-590.84"/>
<polygon fill="black" stroke="black" stroke-width="1.17" points="963.61,-591.41 961.45,-581.04 956.67,-590.49 963.61,-591.41"/>
<text text-anchor="middle" x="967.5" y="-600.21" font-family="Times New Roman,serif" font-size="12.00">22s</text>
</g>
<!-- 3768362607462934485 -->
<g id="node11" class="node">
<title>3768362607462934485</title>
<polygon fill="none" stroke="black" points="1046,-493.81 918,-493.81 918,-457.81 1046,-457.81 1046,-493.81"/>
<text text-anchor="middle" x="982" y="-472.71" font-family="Times New Roman,serif" font-size="12.00">editField[q3_name[last]]</text>
</g>
<!-- 3768362607462934485&#45;&gt;&#45;349242997702854405 -->
<g id="edge22" class="edge">
<title>3768362607462934485&#45;&gt;&#45;349242997702854405</title>
<path fill="none" stroke="black" stroke-width="1.17" d="M998.92,-494.24C1009.88,-506.7 1023.3,-524.44 1030,-542.81 1106.69,-753.14 1061.82,-720.75 1042,-748.81 1009.21,-795.24 940.8,-809.21 896.71,-813.29"/>
<polygon fill="black" stroke="black" stroke-width="1.17" points="896.45,-809.8 886.75,-814.07 896.99,-816.78 896.45,-809.8"/>
<text text-anchor="middle" x="1075.5" y="-642.71" font-family="Times New Roman,serif" font-size="12.00">22s</text>
</g>
<!-- &#45;6653035453324865092 -->
<g id="node12" class="node">
<title>&#45;6653035453324865092</title>
<polygon fill="none" stroke="black" points="867,-663.81 763,-663.81 763,-627.81 867,-627.81 867,-663.81"/>
<text text-anchor="middle" x="815" y="-642.71" font-family="Times New Roman,serif" font-size="12.00">editField[q4_email]</text>
</g>
<!-- &#45;6653035453324865092&#45;&gt;&#45;349242997702854405 -->
<g id="edge23" class="edge">
<title>&#45;6653035453324865092&#45;&gt;&#45;349242997702854405</title>
<path fill="none" stroke="black" stroke-width="1.18" d="M802.64,-664.24C789.6,-684.92 772.54,-720.21 785,-748.81 792.16,-765.23 805.63,-779.41 818.94,-790.37"/>
<polygon fill="black" stroke="black" stroke-width="1.18" points="816.58,-792.97 826.63,-796.33 820.87,-787.44 816.58,-792.97"/>
<text text-anchor="middle" x="793.5" y="-727.71" font-family="Times New Roman,serif" font-size="12.00">23s</text>
</g>
<!-- 6507740163502519239 -->
<g id="node13" class="node">
<title>6507740163502519239</title>
<polygon fill="none" stroke="black" points="172,-222.41 0,-222.41 0,-186.41 172,-186.41 172,-222.41"/>
<text text-anchor="middle" x="86" y="-201.31" font-family="Times New Roman,serif" font-size="12.00">editField[q5_address[addr_line1]]</text>
</g>
<!-- 6507740163502519239&#45;&gt;&#45;8421013627638508074 -->
<g id="edge24" class="edge">
<title>6507740163502519239&#45;&gt;&#45;8421013627638508074</title>
<path fill="none" stroke="black" stroke-width="1.05" d="M65.79,-222.6C46.71,-240.85 21,-271.61 21,-304.81 21,-901.81 21,-901.81 21,-901.81 21,-922.69 32.27,-943.23 43.65,-958.65"/>
<polygon fill="black" stroke="black" stroke-width="1.05" points="40.74,-960.61 49.67,-966.31 46.24,-956.28 40.74,-960.61"/>
<text text-anchor="middle" x="26.5" y="-600.21" font-family="Times New Roman,serif" font-size="12.00">7s</text>
</g>
<!-- 6507740163502519239&#45;&gt;&#45;349242997702854405 -->
<g id="edge25" class="edge">
<title>6507740163502519239&#45;&gt;&#45;349242997702854405</title>
<path fill="none" stroke="black" stroke-width="1.12" d="M86,-222.65C86,-242.47 86,-275.99 86,-304.81 86,-476.81 86,-476.81 86,-476.81 86,-540.01 121.19,-707.49 169,-748.81 218.11,-791.25 676.27,-809.13 815.84,-813.62"/>
<polygon fill="black" stroke="black" stroke-width="1.12" points="815.42,-817.11 825.53,-813.93 815.64,-810.11 815.42,-817.11"/>
<text text-anchor="middle" x="98.5" y="-515.21" font-family="Times New Roman,serif" font-size="12.00">15s</text>
</g>
<!-- &#45;5763552913299528894 -->
<g id="node14" class="node">
<title>&#45;5763552913299528894</title>
<polygon fill="none" stroke="black" points="686.5,-663.81 563.5,-663.81 563.5,-627.81 686.5,-627.81 686.5,-663.81"/>
<text text-anchor="middle" x="625" y="-642.71" font-family="Times New Roman,serif" font-size="12.00">editField[q6_studentId]</text>
</g>
<!-- &#45;5763552913299528894&#45;&gt;&#45;349242997702854405 -->
<g id="edge26" class="edge">
<title>&#45;5763552913299528894&#45;&gt;&#45;349242997702854405</title>
<path fill="none" stroke="black" stroke-width="1.05" d="M605.17,-664.1C583.32,-685.28 553.77,-721.67 574,-748.81 602.68,-787.29 745.36,-805.08 816.1,-811.64"/>
<polygon fill="black" stroke="black" stroke-width="1.05" points="815.36,-815.09 825.63,-812.49 815.98,-808.12 815.36,-815.09"/>
<text text-anchor="middle" x="579.5" y="-727.71" font-family="Times New Roman,serif" font-size="12.00">7s</text>
</g>
<!-- &#45;5763552913299528894&#45;&gt;&#45;2337737116181962960 -->
<g id="edge27" class="edge">
<title>&#45;5763552913299528894&#45;&gt;&#45;2337737116181962960</title>
<path fill="none" stroke="black" stroke-width="1.1" d="M612.35,-627.42C580.7,-583.9 497.89,-470.04 460.19,-418.2"/>
<polygon fill="black" stroke="black" stroke-width="1.1" points="463.18,-416.36 454.47,-410.33 457.52,-420.48 463.18,-416.36"/>
<text text-anchor="middle" x="546.5" y="-515.21" font-family="Times New Roman,serif" font-size="12.00">13s</text>
</g>
<!-- &#45;5763552913299528894&#45;&gt;3670417997280707311 -->
<g id="edge28" class="edge">
<title>&#45;5763552913299528894&#45;&gt;3670417997280707311</title>
<path fill="none" stroke="black" d="M635.56,-627.38C643.42,-614.2 654.25,-595.57 663,-578.81 675.97,-553.96 689.46,-524.98 698.82,-504.28"/>
<polygon fill="black" stroke="black" points="701.92,-505.92 702.82,-495.37 695.53,-503.06 701.92,-505.92"/>
<text text-anchor="middle" x="686.5" y="-557.71" font-family="Times New Roman,serif" font-size="12.00">1s</text>
</g>
<!-- &#45;5435049042536943609 -->
<g id="node19" class="node">
<title>&#45;5435049042536943609</title>
<polygon fill="none" stroke="black" points="654.5,-578.81 595.5,-578.81 595.5,-542.81 654.5,-542.81 654.5,-578.81"/>
<text text-anchor="middle" x="625" y="-557.71" font-family="Times New Roman,serif" font-size="12.00">getRange</text>
</g>
<!-- &#45;5763552913299528894&#45;&gt;&#45;5435049042536943609 -->
<g id="edge29" class="edge">
<title>&#45;5763552913299528894&#45;&gt;&#45;5435049042536943609</title>
<path fill="none" stroke="black" d="M625,-627.61C625,-616.89 625,-602.83 625,-590.45"/>
<polygon fill="black" stroke="black" points="628.5,-590.79 625,-580.79 621.5,-590.79 628.5,-590.79"/>
<text text-anchor="middle" x="630.5" y="-600.21" font-family="Times New Roman,serif" font-size="12.00">1s</text>
</g>
<!-- 3651796461026563911 -->
<g id="node15" class="node">
<title>3651796461026563911</title>
<polygon fill="none" stroke="black" points="351.5,-663.81 178.5,-663.81 178.5,-627.81 351.5,-627.81 351.5,-663.81"/>
<text text-anchor="middle" x="265" y="-642.71" font-family="Times New Roman,serif" font-size="12.00">editField[q7_phoneNumber[area]]</text>
</g>
<!-- &#45;5108575767407452370 -->
<g id="node30" class="node">
<title>&#45;5108575767407452370</title>
<polygon fill="none" stroke="black" points="348.5,-578.81 181.5,-578.81 181.5,-542.81 348.5,-542.81 348.5,-578.81"/>
<text text-anchor="middle" x="265" y="-557.71" font-family="Times New Roman,serif" font-size="12.00">paste[q7_phoneNumber[phone]]</text>
</g>
<!-- 3651796461026563911&#45;&gt;&#45;5108575767407452370 -->
<g id="edge30" class="edge">
<title>3651796461026563911&#45;&gt;&#45;5108575767407452370</title>
<path fill="none" stroke="black" stroke-width="1.17" d="M265,-627.61C265,-617 265,-603.12 265,-590.84"/>
<polygon fill="black" stroke="black" stroke-width="1.17" points="268.5,-591.05 265,-581.05 261.5,-591.05 268.5,-591.05"/>
<text text-anchor="middle" x="273.5" y="-600.21" font-family="Times New Roman,serif" font-size="12.00">22s</text>
</g>
<!-- 357182630398299043 -->
<g id="node16" class="node">
<title>357182630398299043</title>
<polygon fill="none" stroke="black" points="356,-493.81 174,-493.81 174,-457.81 356,-457.81 356,-493.81"/>
<text text-anchor="middle" x="265" y="-472.71" font-family="Times New Roman,serif" font-size="12.00">editField[q7_phoneNumber[phone]]</text>
</g>
<!-- 357182630398299043&#45;&gt;&#45;8421013627638508074 -->
<g id="edge31" class="edge">
<title>357182630398299043&#45;&gt;&#45;8421013627638508074</title>
<path fill="none" stroke="black" stroke-width="1.12" d="M184.18,-494.29C129.43,-511.43 67,-543.81 67,-602.31 67,-901.81 67,-901.81 67,-901.81 67,-919.84 67,-940.07 67,-956.04"/>
<polygon fill="black" stroke="black" stroke-width="1.12" points="63.5,-955.63 67,-965.63 70.5,-955.63 63.5,-955.63"/>
<text text-anchor="middle" x="75.5" y="-727.71" font-family="Times New Roman,serif" font-size="12.00">15s</text>
</g>
<!-- 357182630398299043&#45;&gt;&#45;2337737116181962960 -->
<g id="edge32" class="edge">
<title>357182630398299043&#45;&gt;&#45;2337737116181962960</title>
<path fill="none" stroke="black" stroke-width="1.05" d="M301.9,-457.41C329.37,-444.46 367,-426.71 396.2,-412.94"/>
<polygon fill="black" stroke="black" stroke-width="1.05" points="397.56,-416.17 405.11,-408.74 394.57,-409.84 397.56,-416.17"/>
<text text-anchor="middle" x="369.5" y="-430.21" font-family="Times New Roman,serif" font-size="12.00">7s</text>
</g>
<!-- 6997094482055801526 -->
<g id="node17" class="node">
<title>6997094482055801526</title>
<polygon fill="none" stroke="black" points="1172,-323.81 1024,-323.81 1024,-287.81 1172,-287.81 1172,-323.81"/>
<text text-anchor="middle" x="1098" y="-302.71" font-family="Times New Roman,serif" font-size="12.00">editField[q9_accountHolder]</text>
</g>
<!-- 6997094482055801526&#45;&gt;&#45;349242997702854405 -->
<g id="edge33" class="edge">
<title>6997094482055801526&#45;&gt;&#45;349242997702854405</title>
<path fill="none" stroke="black" stroke-width="1.17" d="M1111.64,-324.16C1122.89,-340.24 1137,-365.29 1137,-389.81 1137,-731.81 1137,-731.81 1137,-731.81 1137,-781.36 974.25,-803.57 896.47,-811.35"/>
<polygon fill="black" stroke="black" stroke-width="1.17" points="896.14,-807.86 886.52,-812.3 896.81,-814.83 896.14,-807.86"/>
<text text-anchor="middle" x="1145.5" y="-557.71" font-family="Times New Roman,serif" font-size="12.00">22s</text>
</g>
<!-- 3670417997280707311&#45;&gt;&#45;2337737116181962960 -->
<g id="edge34" class="edge">
<title>3670417997280707311&#45;&gt;&#45;2337737116181962960</title>
<path fill="none" stroke="black" stroke-width="1.01" d="M683.63,-466.4C637.12,-452.1 542.27,-422.94 485.92,-405.62"/>
<polygon fill="black" stroke="black" stroke-width="1.01" points="487.24,-402.36 476.65,-402.77 485.18,-409.05 487.24,-402.36"/>
<text text-anchor="middle" x="598.5" y="-430.21" font-family="Times New Roman,serif" font-size="12.00">2s</text>
</g>
<!-- 3670417997280707311&#45;&gt;1955449513403805491 -->
<g id="edge35" class="edge">
<title>3670417997280707311&#45;&gt;1955449513403805491</title>
<path fill="none" stroke="black" d="M738.26,-471.08C820.27,-459.87 1067.87,-426.01 1211.59,-406.36"/>
<polygon fill="black" stroke="black" points="1211.67,-409.88 1221.11,-405.06 1210.72,-402.95 1211.67,-409.88"/>
<text text-anchor="middle" x="1055.5" y="-430.21" font-family="Times New Roman,serif" font-size="12.00">1s</text>
</g>
<!-- 3670417997280707311&#45;&gt;5144228901829614650 -->
<g id="edge36" class="edge">
<title>3670417997280707311&#45;&gt;5144228901829614650</title>
<path fill="none" stroke="black" d="M738.37,-467.95C787.35,-455.66 891.68,-429.51 964.28,-411.3"/>
<polygon fill="black" stroke="black" points="964.88,-414.76 973.73,-408.93 963.18,-407.97 964.88,-414.76"/>
<text text-anchor="middle" x="901.5" y="-430.21" font-family="Times New Roman,serif" font-size="12.00">1s</text>
</g>
<!-- 3670417997280707311&#45;&gt;&#45;2342417462293921512 -->
<g id="edge37" class="edge">
<title>3670417997280707311&#45;&gt;&#45;2342417462293921512</title>
<path fill="none" stroke="black" d="M683.52,-476.51C612.68,-476.24 418.42,-478.85 261,-511.81 220,-520.4 202.47,-514.07 172,-542.81 121.41,-590.53 112,-617.77 112,-687.31 112,-816.81 112,-816.81 112,-816.81 112,-896.32 725.07,-868.97 847.55,-883.08"/>
<polygon fill="black" stroke="black" points="846.76,-886.5 857.17,-884.51 847.8,-879.57 846.76,-886.5"/>
<text text-anchor="middle" x="117.5" y="-685.21" font-family="Times New Roman,serif" font-size="12.00">1s</text>
</g>
<!-- &#45;5435049042536943609&#45;&gt;3670417997280707311 -->
<g id="edge38" class="edge">
<title>&#45;5435049042536943609&#45;&gt;3670417997280707311</title>
<path fill="none" stroke="black" d="M638.26,-542.63C645.93,-533.13 656.01,-521.35 666,-511.81 669.72,-508.25 673.79,-504.7 677.91,-501.29"/>
<polygon fill="black" stroke="black" points="680.08,-504.03 685.72,-495.06 675.72,-498.56 680.08,-504.03"/>
<text text-anchor="middle" x="671.5" y="-515.21" font-family="Times New Roman,serif" font-size="12.00">1s</text>
</g>
<!-- 6102417127305744981 -->
<g id="node20" class="node">
<title>6102417127305744981</title>
<polygon fill="none" stroke="black" points="841,-918.81 773,-918.81 773,-882.81 841,-882.81 841,-918.81"/>
<text text-anchor="middle" x="807" y="-897.71" font-family="Times New Roman,serif" font-size="12.00">navigate_to</text>
</g>
<!-- 6102417127305744981&#45;&gt;&#45;349242997702854405 -->
<g id="edge39" class="edge">
<title>6102417127305744981&#45;&gt;&#45;349242997702854405</title>
<path fill="none" stroke="black" d="M817.15,-882.61C823.74,-871.45 832.47,-856.66 839.99,-843.93"/>
<polygon fill="black" stroke="black" points="842.85,-845.97 844.92,-835.58 836.82,-842.41 842.85,-845.97"/>
<text text-anchor="middle" x="839.5" y="-855.21" font-family="Times New Roman,serif" font-size="12.00">1s</text>
</g>
<!-- 4744432682323570212&#45;&gt;&#45;3417061393049347223 -->
<g id="edge40" class="edge">
<title>4744432682323570212&#45;&gt;&#45;3417061393049347223</title>
<path fill="none" stroke="black" stroke-width="1.17" d="M423.91,-712.61C429.58,-701.67 437.05,-687.24 443.56,-674.69"/>
<polygon fill="black" stroke="black" stroke-width="1.17" points="446.64,-676.34 448.14,-665.85 440.43,-673.12 446.64,-676.34"/>
<text text-anchor="middle" x="448.5" y="-685.21" font-family="Times New Roman,serif" font-size="12.00">22s</text>
</g>
<!-- 4604581665166516345&#45;&gt;&#45;4003299731570885441 -->
<g id="edge41" class="edge">
<title>4604581665166516345&#45;&gt;&#45;4003299731570885441</title>
<path fill="none" stroke="black" stroke-width="1.17" d="M1326.72,-712.61C1325.31,-702 1323.47,-688.12 1321.85,-675.84"/>
<polygon fill="black" stroke="black" stroke-width="1.17" points="1325.33,-675.49 1320.55,-666.04 1318.39,-676.41 1325.33,-675.49"/>
<text text-anchor="middle" x="1332.5" y="-685.21" font-family="Times New Roman,serif" font-size="12.00">22s</text>
</g>
<!-- 1955449513403805491&#45;&gt;&#45;3774925265531423684 -->
<g id="edge42" class="edge">
<title>1955449513403805491&#45;&gt;&#45;3774925265531423684</title>
<path fill="none" stroke="black" stroke-width="2.6" d="M1305.37,-372.39C1300.36,-363.43 1296.35,-352.24 1299,-341.81 1299.43,-340.11 1299.96,-338.41 1300.57,-336.72"/>
<polygon fill="black" stroke="black" stroke-width="2.6" points="1303.66,-338.39 1304.67,-327.84 1297.3,-335.45 1303.66,-338.39"/>
<text text-anchor="middle" x="1306.5" y="-345.21" font-family="Times New Roman,serif" font-size="12.00">3m</text>
</g>
<!-- 1955449513403805491&#45;&gt;1955449513403805491 -->
<g id="edge43" class="edge">
<title>1955449513403805491&#45;&gt;1955449513403805491</title>
<path fill="none" stroke="black" stroke-width="1.01" d="M1413.22,-397.56C1424.01,-396.3 1431,-394.05 1431,-390.81 1431,-388.89 1428.53,-387.31 1424.27,-386.09"/>
<polygon fill="black" stroke="black" stroke-width="1.01" points="1425.18,-382.7 1414.72,-384.33 1423.92,-389.58 1425.18,-382.7"/>
<text text-anchor="middle" x="1436.5" y="-387.71" font-family="Times New Roman,serif" font-size="12.00">2s</text>
</g>
<!-- &#45;802786066028636207&#45;&gt;5148547196844223595 -->
<g id="edge44" class="edge">
<title>&#45;802786066028636207&#45;&gt;5148547196844223595</title>
<path fill="none" stroke="black" stroke-width="1.17" d="M971.23,-712.61C968.26,-701.89 964.37,-687.83 960.94,-675.45"/>
<polygon fill="black" stroke="black" stroke-width="1.17" points="964.36,-674.69 958.31,-665.99 957.61,-676.56 964.36,-674.69"/>
<text text-anchor="middle" x="973.5" y="-685.21" font-family="Times New Roman,serif" font-size="12.00">22s</text>
</g>
<!-- &#45;4040636298552314058&#45;&gt;3768362607462934485 -->
<g id="edge45" class="edge">
<title>&#45;4040636298552314058&#45;&gt;3768362607462934485</title>
<path fill="none" stroke="black" stroke-width="1.17" d="M967.73,-542.61C970.06,-531.89 973.11,-517.83 975.79,-505.45"/>
<polygon fill="black" stroke="black" stroke-width="1.17" points="979.14,-506.53 977.84,-496.01 972.3,-505.04 979.14,-506.53"/>
<text text-anchor="middle" x="982.5" y="-515.21" font-family="Times New Roman,serif" font-size="12.00">22s</text>
</g>
<!-- 5504490665134479466&#45;&gt;&#45;6653035453324865092 -->
<g id="edge46" class="edge">
<title>5504490665134479466&#45;&gt;&#45;6653035453324865092</title>
<path fill="none" stroke="black" stroke-width="1.18" d="M847.5,-712.61C842.1,-701.67 834.97,-687.24 828.77,-674.69"/>
<polygon fill="black" stroke="black" stroke-width="1.18" points="831.99,-673.29 824.42,-665.88 825.71,-676.39 831.99,-673.29"/>
<text text-anchor="middle" x="845.5" y="-685.21" font-family="Times New Roman,serif" font-size="12.00">23s</text>
</g>
<!-- &#45;7686844205181626037&#45;&gt;6507740163502519239 -->
<g id="edge47" class="edge">
<title>&#45;7686844205181626037&#45;&gt;6507740163502519239</title>
<path fill="none" stroke="black" stroke-width="1.17" d="M204.09,-287.5C180.96,-271.42 146.3,-247.33 120.51,-229.4"/>
<polygon fill="black" stroke="black" stroke-width="1.17" points="122.77,-226.7 112.56,-223.87 118.78,-232.45 122.77,-226.7"/>
<text text-anchor="middle" x="183.5" y="-260.21" font-family="Times New Roman,serif" font-size="12.00">22s</text>
</g>
<!-- 4004908014844761737&#45;&gt;&#45;5763552913299528894 -->
<g id="edge48" class="edge">
<title>4004908014844761737&#45;&gt;&#45;5763552913299528894</title>
<path fill="none" stroke="black" stroke-width="1.17" d="M643.23,-712.61C640.26,-701.89 636.37,-687.83 632.94,-675.45"/>
<polygon fill="black" stroke="black" stroke-width="1.17" points="636.36,-674.69 630.31,-665.99 629.61,-676.56 636.36,-674.69"/>
<text text-anchor="middle" x="646.5" y="-685.21" font-family="Times New Roman,serif" font-size="12.00">22s</text>
</g>
<!-- 2070911815398967774&#45;&gt;3651796461026563911 -->
<g id="edge49" class="edge">
<title>2070911815398967774&#45;&gt;3651796461026563911</title>
<path fill="none" stroke="black" stroke-width="1.17" d="M258.66,-712.61C259.68,-702 261.02,-688.12 262.2,-675.84"/>
<polygon fill="black" stroke="black" stroke-width="1.17" points="265.67,-676.33 263.15,-666.04 258.7,-675.66 265.67,-676.33"/>
<text text-anchor="middle" x="270.5" y="-685.21" font-family="Times New Roman,serif" font-size="12.00">22s</text>
</g>
<!-- &#45;5108575767407452370&#45;&gt;357182630398299043 -->
<g id="edge50" class="edge">
<title>&#45;5108575767407452370&#45;&gt;357182630398299043</title>
<path fill="none" stroke="black" stroke-width="1.17" d="M265,-542.61C265,-532 265,-518.12 265,-505.84"/>
<polygon fill="black" stroke="black" stroke-width="1.17" points="268.5,-506.05 265,-496.05 261.5,-506.05 268.5,-506.05"/>
<text text-anchor="middle" x="273.5" y="-515.21" font-family="Times New Roman,serif" font-size="12.00">22s</text>
</g>
<!-- 5144228901829614650&#45;&gt;6997094482055801526 -->
<g id="edge51" class="edge">
<title>5144228901829614650&#45;&gt;6997094482055801526</title>
<path fill="none" stroke="black" stroke-width="1.17" d="M1053.6,-372.61C1061.14,-361.45 1071.11,-346.66 1079.7,-333.93"/>
<polygon fill="black" stroke="black" stroke-width="1.17" points="1082.53,-335.99 1085.22,-325.75 1076.73,-332.08 1082.53,-335.99"/>
<text text-anchor="middle" x="1081.5" y="-345.21" font-family="Times New Roman,serif" font-size="12.00">22s</text>
</g>
<!-- &#45;2342417462293921512&#45;&gt;&#45;349242997702854405 -->
<g id="edge52" class="edge">
<title>&#45;2342417462293921512&#45;&gt;&#45;349242997702854405</title>
<path fill="none" stroke="black" stroke-width="1.34" d="M894.85,-882.61C888.32,-871.56 879.7,-856.95 872.23,-844.31"/>
<polygon fill="black" stroke="black" stroke-width="1.34" points="875.44,-842.85 867.34,-836.02 869.41,-846.41 875.44,-842.85"/>
<text text-anchor="middle" x="891.5" y="-855.21" font-family="Times New Roman,serif" font-size="12.00">42s</text>
</g>
<!-- &#45;2342417462293921512&#45;&gt;3670417997280707311 -->
<g id="edge53" class="edge">
<title>&#45;2342417462293921512&#45;&gt;3670417997280707311</title>
<path fill="none" stroke="black" stroke-width="1.01" d="M951.07,-897.85C1085.53,-891.52 1468,-868.93 1468,-816.81 1468,-816.81 1468,-816.81 1468,-602.31 1468,-530.08 1401.65,-534.29 1333,-511.81 1243.38,-482.46 1003.11,-499.85 909,-493.81 853.5,-490.25 789.38,-484.43 749.51,-480.61"/>
<polygon fill="black" stroke="black" stroke-width="1.01" points="750,-477.15 739.71,-479.67 749.33,-484.11 750,-477.15"/>
<text text-anchor="middle" x="1473.5" y="-685.21" font-family="Times New Roman,serif" font-size="12.00">2s</text>
</g>
<!-- &#45;2342417462293921512&#45;&gt;&#45;2342417462293921512 -->
<g id="edge54" class="edge">
<title>&#45;2342417462293921512&#45;&gt;&#45;2342417462293921512</title>
<path fill="none" stroke="black" d="M951.31,-908.57C961.55,-907.84 969,-905.25 969,-900.81 969,-898.24 966.51,-896.3 962.43,-894.97"/>
<polygon fill="black" stroke="black" points="963.25,-891.56 952.8,-893.31 962.06,-898.46 963.25,-891.56"/>
<text text-anchor="middle" x="974.5" y="-897.71" font-family="Times New Roman,serif" font-size="12.00">1s</text>
</g>
</g>
</svg>
