<?xml version="1.0" encoding="UTF-8" standalone="no"?>
<!DOCTYPE svg PUBLIC "-//W3C//DTD SVG 1.1//EN"
 "http://www.w3.org/Graphics/SVG/1.1/DTD/svg11.dtd">
<!-- Generated by graphviz version 8.0.3 (20230416.2022)
 -->
<!-- Pages: 1 -->
<svg width="1946pt" height="842pt"
 viewBox="0.00 0.00 1945.50 841.81" xmlns="http://www.w3.org/2000/svg" xmlns:xlink="http://www.w3.org/1999/xlink">
<g id="graph0" class="graph" transform="scale(1 1) rotate(0) translate(4 837.81)">
<polygon fill="white" stroke="none" points="-4,4 -4,-837.81 1941.5,-837.81 1941.5,4 -4,4"/>
<!-- &#45;7283433983056500281 -->
<g id="node1" class="node">
<title>&#45;7283433983056500281</title>
<polygon fill="none" stroke="black" points="1178.5,-833.81 1074.5,-833.81 1074.5,-797.81 1178.5,-797.81 1178.5,-833.81"/>
<text text-anchor="middle" x="1126.5" y="-812.71" font-family="Times New Roman,serif" font-size="12.00">clickButton[button]</text>
</g>
<!-- &#45;8551108795534898076 -->
<g id="node22" class="node">
<title>&#45;8551108795534898076</title>
<polygon fill="none" stroke="black" points="1172.5,-748.81 1080.5,-748.81 1080.5,-712.81 1172.5,-712.81 1172.5,-748.81"/>
<text text-anchor="middle" x="1126.5" y="-727.71" font-family="Times New Roman,serif" font-size="12.00">selectWorksheet</text>
</g>
<!-- &#45;7283433983056500281&#45;&gt;&#45;8551108795534898076 -->
<g id="edge1" class="edge">
<title>&#45;7283433983056500281&#45;&gt;&#45;8551108795534898076</title>
<path fill="none" stroke="black" stroke-width="1.17" d="M1126.5,-797.61C1126.5,-786.78 1126.5,-772.54 1126.5,-760.07"/>
<polygon fill="black" stroke="black" stroke-width="1.17" points="1130,-760.27 1126.5,-750.27 1123,-760.27 1130,-760.27"/>
<text text-anchor="middle" x="1135" y="-770.21" font-family="Times New Roman,serif" font-size="12.00">22s</text>
</g>
<!-- &#45;1283998384867478094 -->
<g id="node2" class="node">
<title>&#45;1283998384867478094</title>
<polygon fill="none" stroke="black" points="714.5,-222.41 610.5,-222.41 610.5,-186.41 714.5,-186.41 714.5,-222.41"/>
<text text-anchor="middle" x="662.5" y="-201.31" font-family="Times New Roman,serif" font-size="12.00">clickButton[submit]</text>
</g>
<!-- &#45;2730689910902470226 -->
<g id="node3" class="node">
<title>&#45;2730689910902470226</title>
<polygon fill="none" stroke="black" points="401.5,-121 343.5,-121 343.5,-85 401.5,-85 401.5,-121"/>
<text text-anchor="middle" x="372.5" y="-99.9" font-family="Times New Roman,serif" font-size="12.00">clickLink</text>
</g>
<!-- &#45;1283998384867478094&#45;&gt;&#45;2730689910902470226 -->
<g id="edge2" class="edge">
<title>&#45;1283998384867478094&#45;&gt;&#45;2730689910902470226</title>
<path fill="none" stroke="black" stroke-width="1.16" d="M611.65,-185.98C554.66,-166.44 463.49,-135.19 411.73,-117.45"/>
<polygon fill="black" stroke="black" stroke-width="1.16" points="413.22,-113.91 402.62,-113.98 410.95,-120.54 413.22,-113.91"/>
<text text-anchor="middle" x="518" y="-142.4" font-family="Times New Roman,serif" font-size="12.00">21s</text>
</g>
<!-- 1607548953699189687 -->
<g id="node6" class="node">
<title>1607548953699189687</title>
<polygon fill="none" stroke="black" points="85,-36 0,-36 0,0 85,0 85,-36"/>
<text text-anchor="middle" x="42.5" y="-14.9" font-family="Times New Roman,serif" font-size="12.00">createNewTab</text>
</g>
<!-- &#45;2730689910902470226&#45;&gt;1607548953699189687 -->
<g id="edge3" class="edge">
<title>&#45;2730689910902470226&#45;&gt;1607548953699189687</title>
<path fill="none" stroke="black" stroke-width="1.16" d="M343.21,-94.63C287.63,-80.65 166.09,-50.09 95.73,-32.39"/>
<polygon fill="black" stroke="black" stroke-width="1.16" points="96.87,-28.81 86.32,-29.77 95.16,-35.6 96.87,-28.81"/>
<text text-anchor="middle" x="236" y="-57.4" font-family="Times New Roman,serif" font-size="12.00">21s</text>
</g>
<!-- 4572600278003539478 -->
<g id="node4" class="node">
<title>4572600278003539478</title>
<polygon fill="none" stroke="black" points="921,-663.81 864,-663.81 864,-627.81 921,-627.81 921,-663.81"/>
<text text-anchor="middle" x="892.5" y="-642.71" font-family="Times New Roman,serif" font-size="12.00">copyCell</text>
</g>
<!-- 8826139826624112448 -->
<g id="node18" class="node">
<title>8826139826624112448</title>
<polygon fill="none" stroke="black" points="1235.5,-578.81 1181.5,-578.81 1181.5,-542.81 1235.5,-542.81 1235.5,-578.81"/>
<text text-anchor="middle" x="1208.5" y="-557.71" font-family="Times New Roman,serif" font-size="12.00">getCell</text>
</g>
<!-- 4572600278003539478&#45;&gt;8826139826624112448 -->
<g id="edge4" class="edge">
<title>4572600278003539478&#45;&gt;8826139826624112448</title>
<path fill="none" stroke="black" d="M921.25,-643.69C965.13,-641.24 1050.93,-633.58 1119.5,-609.81 1130.59,-605.96 1132.2,-602.45 1142.5,-596.81 1151.87,-591.68 1162.05,-586.23 1171.54,-581.19"/>
<polygon fill="black" stroke="black" points="1172.91,-583.89 1180.12,-576.12 1169.64,-577.7 1172.91,-583.89"/>
<text text-anchor="middle" x="1148" y="-600.21" font-family="Times New Roman,serif" font-size="12.00">1s</text>
</g>
<!-- &#45;2828859432936935225 -->
<g id="node21" class="node">
<title>&#45;2828859432936935225</title>
<polygon fill="none" stroke="black" points="1067.5,-408.81 1013.5,-408.81 1013.5,-372.81 1067.5,-372.81 1067.5,-408.81"/>
<text text-anchor="middle" x="1040.5" y="-387.71" font-family="Times New Roman,serif" font-size="12.00">paste</text>
</g>
<!-- 4572600278003539478&#45;&gt;&#45;2828859432936935225 -->
<g id="edge5" class="edge">
<title>4572600278003539478&#45;&gt;&#45;2828859432936935225</title>
<path fill="none" stroke="black" stroke-width="2.6" d="M921.18,-637.48C936.8,-632.15 955.35,-623.43 967.5,-609.81 1016.03,-555.43 1032.47,-467.71 1037.91,-421.88"/>
<polygon fill="black" stroke="black" stroke-width="2.6" points="1041.69,-422.4 1039.26,-412.09 1034.73,-421.66 1041.69,-422.4"/>
<text text-anchor="middle" x="1026" y="-515.21" font-family="Times New Roman,serif" font-size="12.00">3m</text>
</g>
<!-- &#45;4162420903657016109 -->
<g id="node5" class="node">
<title>&#45;4162420903657016109</title>
<polygon fill="none" stroke="black" points="1374.5,-493.81 1306.5,-493.81 1306.5,-457.81 1374.5,-457.81 1374.5,-493.81"/>
<text text-anchor="middle" x="1340.5" y="-472.71" font-family="Times New Roman,serif" font-size="12.00">copyRange</text>
</g>
<!-- &#45;4162420903657016109&#45;&gt;&#45;2828859432936935225 -->
<g id="edge6" class="edge">
<title>&#45;4162420903657016109&#45;&gt;&#45;2828859432936935225</title>
<path fill="none" stroke="black" stroke-width="1.17" d="M1306.03,-458.69C1282.84,-448.37 1251.34,-435.36 1222.5,-426.81 1173.71,-412.35 1115.75,-402.4 1078.57,-396.91"/>
<polygon fill="black" stroke="black" stroke-width="1.17" points="1079.12,-393.31 1068.73,-395.34 1078.12,-400.23 1079.12,-393.31"/>
<text text-anchor="middle" x="1267" y="-430.21" font-family="Times New Roman,serif" font-size="12.00">22s</text>
</g>
<!-- 1607548953699189687&#45;&gt;&#45;8551108795534898076 -->
<g id="edge7" class="edge">
<title>1607548953699189687&#45;&gt;&#45;8551108795534898076</title>
<path fill="none" stroke="black" stroke-width="1.16" d="M37.17,-36.3C32.52,-52.96 26.5,-78.96 26.5,-102 26.5,-264.31 26.5,-264.31 26.5,-264.31 26.5,-432.88 106.93,-473.43 238.5,-578.81 368.15,-682.65 894.15,-718.14 1069.39,-727.2"/>
<polygon fill="black" stroke="black" stroke-width="1.16" points="1069.01,-730.74 1079.17,-727.75 1069.36,-723.75 1069.01,-730.74"/>
<text text-anchor="middle" x="67" y="-387.71" font-family="Times New Roman,serif" font-size="12.00">21s</text>
</g>
<!-- 4017203369508189456 -->
<g id="node7" class="node">
<title>4017203369508189456</title>
<polygon fill="none" stroke="black" points="586,-323.81 449,-323.81 449,-287.81 586,-287.81 586,-323.81"/>
<text text-anchor="middle" x="517.5" y="-302.71" font-family="Times New Roman,serif" font-size="12.00">editField[q10_bankName]</text>
</g>
<!-- 4017203369508189456&#45;&gt;4572600278003539478 -->
<g id="edge8" class="edge">
<title>4017203369508189456&#45;&gt;4572600278003539478</title>
<path fill="none" stroke="black" stroke-width="1.17" d="M535.19,-324.18C549.23,-339.88 566.5,-364.38 566.5,-389.81 566.5,-561.81 566.5,-561.81 566.5,-561.81 566.5,-620.28 765.92,-638.06 852.82,-643.03"/>
<polygon fill="black" stroke="black" stroke-width="1.17" points="852.39,-646.57 862.57,-643.62 852.77,-639.58 852.39,-646.57"/>
<text text-anchor="middle" x="575" y="-472.71" font-family="Times New Roman,serif" font-size="12.00">22s</text>
</g>
<!-- 2137833237022894573 -->
<g id="node8" class="node">
<title>2137833237022894573</title>
<polygon fill="none" stroke="black" points="1134.5,-323.81 974.5,-323.81 974.5,-287.81 1134.5,-287.81 1134.5,-323.81"/>
<text text-anchor="middle" x="1054.5" y="-302.71" font-family="Times New Roman,serif" font-size="12.00">editField[q11_accountNumber]</text>
</g>
<!-- 2137833237022894573&#45;&gt;4572600278003539478 -->
<g id="edge9" class="edge">
<title>2137833237022894573&#45;&gt;4572600278003539478</title>
<path fill="none" stroke="black" stroke-width="1.16" d="M1008.43,-324.23C981.8,-337.61 953.5,-359.06 953.5,-389.81 953.5,-561.81 953.5,-561.81 953.5,-561.81 953.5,-584.5 938.52,-605.09 923.4,-620.08"/>
<polygon fill="black" stroke="black" stroke-width="1.16" points="921.49,-617.02 916.56,-626.4 926.26,-622.13 921.49,-617.02"/>
<text text-anchor="middle" x="962" y="-472.71" font-family="Times New Roman,serif" font-size="12.00">20s</text>
</g>
<!-- 2137833237022894573&#45;&gt;&#45;2828859432936935225 -->
<g id="edge10" class="edge">
<title>2137833237022894573&#45;&gt;&#45;2828859432936935225</title>
<path fill="none" stroke="black" stroke-width="1.01" d="M1005.31,-324.22C998.22,-328.85 991.85,-334.63 987.5,-341.81 980.03,-354.15 990.25,-365.17 1003.65,-373.54"/>
<polygon fill="black" stroke="black" stroke-width="1.01" points="1001.82,-377.08 1012.26,-378.89 1005.23,-370.96 1001.82,-377.08"/>
<text text-anchor="middle" x="993" y="-345.21" font-family="Times New Roman,serif" font-size="12.00">2s</text>
</g>
<!-- &#45;1548836318819260850 -->
<g id="node9" class="node">
<title>&#45;1548836318819260850</title>
<polygon fill="none" stroke="black" points="956,-323.81 751,-323.81 751,-287.81 956,-287.81 956,-323.81"/>
<text text-anchor="middle" x="853.5" y="-302.71" font-family="Times New Roman,serif" font-size="12.00">editField[q12_reimbursementDetails[0][]]</text>
</g>
<!-- &#45;1548836318819260850&#45;&gt;&#45;1283998384867478094 -->
<g id="edge11" class="edge">
<title>&#45;1548836318819260850&#45;&gt;&#45;1283998384867478094</title>
<path fill="none" stroke="black" stroke-width="1.16" d="M820.23,-287.5C788.38,-270.92 740.18,-245.83 705.44,-227.76"/>
<polygon fill="black" stroke="black" stroke-width="1.16" points="707.52,-224.37 697.03,-222.86 704.28,-230.58 707.52,-224.37"/>
<text text-anchor="middle" x="790" y="-260.21" font-family="Times New Roman,serif" font-size="12.00">21s</text>
</g>
<!-- &#45;1548836318819260850&#45;&gt;4572600278003539478 -->
<g id="edge12" class="edge">
<title>&#45;1548836318819260850&#45;&gt;4572600278003539478</title>
<path fill="none" stroke="black" stroke-width="1.17" d="M853.17,-324.3C852.88,-341.09 852.5,-367.19 852.5,-389.81 852.5,-561.81 852.5,-561.81 852.5,-561.81 852.5,-582.21 862.43,-602.88 872.39,-618.5"/>
<polygon fill="black" stroke="black" stroke-width="1.17" points="870,-620.2 878.51,-626.51 875.79,-616.27 870,-620.2"/>
<text text-anchor="middle" x="861" y="-472.71" font-family="Times New Roman,serif" font-size="12.00">22s</text>
</g>
<!-- &#45;1548836318819260850&#45;&gt;&#45;2828859432936935225 -->
<g id="edge13" class="edge">
<title>&#45;1548836318819260850&#45;&gt;&#45;2828859432936935225</title>
<path fill="none" stroke="black" stroke-width="2.22" d="M892.79,-324.25C924.84,-338.48 969.88,-358.47 1001.78,-372.63"/>
<polygon fill="black" stroke="black" stroke-width="2.22" points="999.75,-375.88 1010.31,-376.74 1002.59,-369.49 999.75,-375.88"/>
<text text-anchor="middle" x="965" y="-345.21" font-family="Times New Roman,serif" font-size="12.00">2m</text>
</g>
<!-- @@endnode -->
<g id="node23" class="node">
<title>@@endnode</title>
<ellipse fill="none" stroke="black" cx="398.5" cy="-204.41" rx="30.32" ry="30.32"/>
<ellipse fill="none" stroke="black" cx="398.5" cy="-204.41" rx="34.31" ry="34.31"/>
<text text-anchor="start" x="388.5" y="-196.31" font-family="Times New Roman,serif" font-size="32.00">■</text>
</g>
<!-- &#45;1548836318819260850&#45;&gt;@@endnode -->
<g id="edge47" class="edge">
<title>&#45;1548836318819260850&#45;&gt;@@endnode</title>
<path fill="none" stroke="black" d="M773.46,-287.33C677.34,-266.32 519.5,-231.84 442.93,-215.11"/>
<polygon fill="black" stroke="black" points="443.76,-211.49 433.24,-212.78 442.26,-218.33 443.76,-211.49"/>
<text text-anchor="middle" x="684" y="-260.21" font-family="Times New Roman,serif" font-size="12.00">1</text>
</g>
<!-- &#45;7261425491390122994 -->
<g id="node10" class="node">
<title>&#45;7261425491390122994</title>
<polygon fill="none" stroke="black" points="1282,-323.81 1153,-323.81 1153,-287.81 1282,-287.81 1282,-323.81"/>
<text text-anchor="middle" x="1217.5" y="-302.71" font-family="Times New Roman,serif" font-size="12.00">editField[q3_name[first]]</text>
</g>
<!-- &#45;7261425491390122994&#45;&gt;&#45;2828859432936935225 -->
<g id="edge14" class="edge">
<title>&#45;7261425491390122994&#45;&gt;&#45;2828859432936935225</title>
<path fill="none" stroke="black" stroke-width="1.17" d="M1152.6,-321.75C1135.48,-326.92 1117.36,-333.56 1101.5,-341.81 1089.27,-348.18 1077.06,-357.13 1066.82,-365.57"/>
<polygon fill="black" stroke="black" stroke-width="1.17" points="1065.06,-362.33 1059.73,-371.48 1069.61,-367.65 1065.06,-362.33"/>
<text text-anchor="middle" x="1110" y="-345.21" font-family="Times New Roman,serif" font-size="12.00">22s</text>
</g>
<!-- 1879159653324323843 -->
<g id="node11" class="node">
<title>1879159653324323843</title>
<polygon fill="none" stroke="black" points="732.5,-323.81 604.5,-323.81 604.5,-287.81 732.5,-287.81 732.5,-323.81"/>
<text text-anchor="middle" x="668.5" y="-302.71" font-family="Times New Roman,serif" font-size="12.00">editField[q3_name[last]]</text>
</g>
<!-- 1879159653324323843&#45;&gt;4572600278003539478 -->
<g id="edge15" class="edge">
<title>1879159653324323843&#45;&gt;4572600278003539478</title>
<path fill="none" stroke="black" stroke-width="1.17" d="M668.5,-324.3C668.5,-341.1 668.5,-367.19 668.5,-389.81 668.5,-561.81 668.5,-561.81 668.5,-561.81 668.5,-600.72 788.85,-627.18 853.12,-638.54"/>
<polygon fill="black" stroke="black" stroke-width="1.17" points="852.23,-642.11 862.67,-640.36 853.41,-635.21 852.23,-642.11"/>
<text text-anchor="middle" x="677" y="-472.71" font-family="Times New Roman,serif" font-size="12.00">22s</text>
</g>
<!-- 6075178304717725746 -->
<g id="node12" class="node">
<title>6075178304717725746</title>
<polygon fill="none" stroke="black" points="1595.5,-323.81 1491.5,-323.81 1491.5,-287.81 1595.5,-287.81 1595.5,-323.81"/>
<text text-anchor="middle" x="1543.5" y="-302.71" font-family="Times New Roman,serif" font-size="12.00">editField[q4_email]</text>
</g>
<!-- 6075178304717725746&#45;&gt;4572600278003539478 -->
<g id="edge16" class="edge">
<title>6075178304717725746&#45;&gt;4572600278003539478</title>
<path fill="none" stroke="black" stroke-width="1.18" d="M1491.05,-321.97C1488.17,-322.63 1485.3,-323.25 1482.5,-323.81 1417.95,-336.68 1398.18,-321.72 1335.5,-341.81 1232.85,-374.72 1207.01,-390.89 1122.5,-457.81 1051.44,-514.09 1061.38,-558.73 986.5,-609.81 969.91,-621.13 949.18,-629.36 931.41,-634.98"/>
<polygon fill="black" stroke="black" stroke-width="1.18" points="930.93,-631.77 922.35,-637.99 932.93,-638.48 930.93,-631.77"/>
<text text-anchor="middle" x="1131" y="-472.71" font-family="Times New Roman,serif" font-size="12.00">23s</text>
</g>
<!-- 6411501856739108121 -->
<g id="node13" class="node">
<title>6411501856739108121</title>
<polygon fill="none" stroke="black" points="226.5,-323.81 54.5,-323.81 54.5,-287.81 226.5,-287.81 226.5,-323.81"/>
<text text-anchor="middle" x="140.5" y="-302.71" font-family="Times New Roman,serif" font-size="12.00">editField[q5_address[addr_line1]]</text>
</g>
<!-- 6411501856739108121&#45;&gt;&#45;7283433983056500281 -->
<g id="edge17" class="edge">
<title>6411501856739108121&#45;&gt;&#45;7283433983056500281</title>
<path fill="none" stroke="black" stroke-width="1.05" d="M137.5,-324.24C134.89,-340.99 131.5,-367.06 131.5,-389.81 131.5,-731.81 131.5,-731.81 131.5,-731.81 131.5,-743.14 140.06,-744.41 150.5,-748.81 234.26,-784.1 860.36,-806.52 1063.24,-812.92"/>
<polygon fill="black" stroke="black" stroke-width="1.05" points="1062.9,-816.44 1073.01,-813.26 1063.12,-809.44 1062.9,-816.44"/>
<text text-anchor="middle" x="137" y="-557.71" font-family="Times New Roman,serif" font-size="12.00">7s</text>
</g>
<!-- 6411501856739108121&#45;&gt;4572600278003539478 -->
<g id="edge18" class="edge">
<title>6411501856739108121&#45;&gt;4572600278003539478</title>
<path fill="none" stroke="black" stroke-width="1.12" d="M187.32,-324.25C214.13,-337.59 242.5,-358.99 242.5,-389.81 242.5,-561.81 242.5,-561.81 242.5,-561.81 242.5,-623.7 712.15,-640.35 853.03,-643.95"/>
<polygon fill="black" stroke="black" stroke-width="1.12" points="852.65,-647.46 862.73,-644.21 852.82,-640.47 852.65,-647.46"/>
<text text-anchor="middle" x="251" y="-472.71" font-family="Times New Roman,serif" font-size="12.00">15s</text>
</g>
<!-- &#45;9036171747072133490 -->
<g id="node14" class="node">
<title>&#45;9036171747072133490</title>
<polygon fill="none" stroke="black" points="1737,-323.81 1614,-323.81 1614,-287.81 1737,-287.81 1737,-323.81"/>
<text text-anchor="middle" x="1675.5" y="-302.71" font-family="Times New Roman,serif" font-size="12.00">editField[q6_studentId]</text>
</g>
<!-- &#45;9036171747072133490&#45;&gt;4572600278003539478 -->
<g id="edge19" class="edge">
<title>&#45;9036171747072133490&#45;&gt;4572600278003539478</title>
<path fill="none" stroke="black" stroke-width="1.05" d="M1613.65,-322.16C1610.56,-322.75 1607.5,-323.31 1604.5,-323.81 1522.15,-337.57 1496.23,-314 1417.5,-341.81 1346.57,-366.86 1348.99,-411 1279.5,-439.81 1230.49,-460.13 1205.68,-428.44 1161.5,-457.81 1145.89,-468.19 1151.23,-479.18 1139.5,-493.81 1105.49,-536.24 1093.22,-543.93 1051.5,-578.81 1033.43,-593.92 1029.62,-599.38 1008.5,-609.81 984.08,-621.88 954.68,-630.69 931.59,-636.46"/>
<polygon fill="black" stroke="black" stroke-width="1.05" points="931.05,-633.23 922.14,-638.97 932.68,-640.03 931.05,-633.23"/>
<text text-anchor="middle" x="1167" y="-472.71" font-family="Times New Roman,serif" font-size="12.00">7s</text>
</g>
<!-- &#45;9036171747072133490&#45;&gt;&#45;4162420903657016109 -->
<g id="edge20" class="edge">
<title>&#45;9036171747072133490&#45;&gt;&#45;4162420903657016109</title>
<path fill="none" stroke="black" stroke-width="1.1" d="M1613.64,-322.11C1610.56,-322.72 1607.5,-323.29 1604.5,-323.81 1568.38,-330.09 1472.36,-323.67 1440.5,-341.81 1398.1,-365.96 1368.12,-416.14 1352.62,-447.49"/>
<polygon fill="black" stroke="black" stroke-width="1.1" points="1349.08,-445.8 1347.93,-456.33 1355.39,-448.81 1349.08,-445.8"/>
<text text-anchor="middle" x="1410" y="-387.71" font-family="Times New Roman,serif" font-size="12.00">13s</text>
</g>
<!-- &#45;9036171747072133490&#45;&gt;8826139826624112448 -->
<g id="edge21" class="edge">
<title>&#45;9036171747072133490&#45;&gt;8826139826624112448</title>
<path fill="none" stroke="black" d="M1613.67,-323.17C1564.27,-337.02 1499.75,-357.06 1477.5,-372.81 1421.92,-412.16 1438.3,-453.39 1383.5,-493.81 1341.76,-524.6 1283.98,-542.66 1246.42,-551.89"/>
<polygon fill="black" stroke="black" points="1245.85,-548.67 1236.93,-554.37 1247.46,-555.48 1245.85,-548.67"/>
<text text-anchor="middle" x="1438" y="-430.21" font-family="Times New Roman,serif" font-size="12.00">1s</text>
</g>
<!-- &#45;1759314400454882690 -->
<g id="node19" class="node">
<title>&#45;1759314400454882690</title>
<polygon fill="none" stroke="black" points="872,-222.41 813,-222.41 813,-186.41 872,-186.41 872,-222.41"/>
<text text-anchor="middle" x="842.5" y="-201.31" font-family="Times New Roman,serif" font-size="12.00">getRange</text>
</g>
<!-- &#45;9036171747072133490&#45;&gt;&#45;1759314400454882690 -->
<g id="edge22" class="edge">
<title>&#45;9036171747072133490&#45;&gt;&#45;1759314400454882690</title>
<path fill="none" stroke="black" d="M1613.64,-289.51C1610.56,-288.9 1607.5,-288.33 1604.5,-287.81 1331.06,-240.49 997.42,-215.58 883.14,-207.97"/>
<polygon fill="black" stroke="black" points="883.67,-204.43 873.46,-207.27 883.21,-211.42 883.67,-204.43"/>
<text text-anchor="middle" x="1486" y="-260.21" font-family="Times New Roman,serif" font-size="12.00">1s</text>
</g>
<!-- &#45;8142161333965579018 -->
<g id="node15" class="node">
<title>&#45;8142161333965579018</title>
<polygon fill="none" stroke="black" points="1473,-323.81 1300,-323.81 1300,-287.81 1473,-287.81 1473,-323.81"/>
<text text-anchor="middle" x="1386.5" y="-302.71" font-family="Times New Roman,serif" font-size="12.00">editField[q7_phoneNumber[area]]</text>
</g>
<!-- &#45;8142161333965579018&#45;&gt;&#45;2828859432936935225 -->
<g id="edge23" class="edge">
<title>&#45;8142161333965579018&#45;&gt;&#45;2828859432936935225</title>
<path fill="none" stroke="black" stroke-width="1.17" d="M1299.53,-322.43C1296.83,-322.9 1294.14,-323.36 1291.5,-323.81 1242.67,-332.17 1228.23,-325.37 1181.5,-341.81 1170.42,-345.71 1169.31,-350.22 1158.5,-354.81 1132.52,-365.84 1101.94,-374.8 1078.42,-380.9"/>
<polygon fill="black" stroke="black" stroke-width="1.17" points="1077.66,-377.73 1068.82,-383.58 1079.37,-384.52 1077.66,-377.73"/>
<text text-anchor="middle" x="1190" y="-345.21" font-family="Times New Roman,serif" font-size="12.00">22s</text>
</g>
<!-- 7645206821432851380 -->
<g id="node16" class="node">
<title>7645206821432851380</title>
<polygon fill="none" stroke="black" points="1937.5,-323.81 1755.5,-323.81 1755.5,-287.81 1937.5,-287.81 1937.5,-323.81"/>
<text text-anchor="middle" x="1846.5" y="-302.71" font-family="Times New Roman,serif" font-size="12.00">editField[q7_phoneNumber[phone]]</text>
</g>
<!-- 7645206821432851380&#45;&gt;&#45;7283433983056500281 -->
<g id="edge24" class="edge">
<title>7645206821432851380&#45;&gt;&#45;7283433983056500281</title>
<path fill="none" stroke="black" stroke-width="1.12" d="M1766.93,-324.25C1734.95,-336.38 1705.5,-356.58 1705.5,-389.81 1705.5,-731.81 1705.5,-731.81 1705.5,-731.81 1705.5,-783.45 1339.95,-805.43 1189.77,-812.28"/>
<polygon fill="black" stroke="black" stroke-width="1.12" points="1189.74,-808.82 1179.9,-812.77 1190.05,-815.82 1189.74,-808.82"/>
<text text-anchor="middle" x="1714" y="-557.71" font-family="Times New Roman,serif" font-size="12.00">15s</text>
</g>
<!-- 7645206821432851380&#45;&gt;&#45;4162420903657016109 -->
<g id="edge25" class="edge">
<title>7645206821432851380&#45;&gt;&#45;4162420903657016109</title>
<path fill="none" stroke="black" stroke-width="1.05" d="M1762.06,-324.29C1739.06,-329.49 1714.22,-335.49 1691.5,-341.81 1576,-373.94 1546.19,-380.77 1435.5,-426.81 1417.39,-434.35 1397.96,-443.89 1381.42,-452.47"/>
<polygon fill="black" stroke="black" stroke-width="1.05" points="1380.28,-449.65 1373.05,-457.4 1383.53,-455.84 1380.28,-449.65"/>
<text text-anchor="middle" x="1586" y="-387.71" font-family="Times New Roman,serif" font-size="12.00">7s</text>
</g>
<!-- 673443513727332637 -->
<g id="node17" class="node">
<title>673443513727332637</title>
<polygon fill="none" stroke="black" points="392.5,-323.81 244.5,-323.81 244.5,-287.81 392.5,-287.81 392.5,-323.81"/>
<text text-anchor="middle" x="318.5" y="-302.71" font-family="Times New Roman,serif" font-size="12.00">editField[q9_accountHolder]</text>
</g>
<!-- 673443513727332637&#45;&gt;4572600278003539478 -->
<g id="edge26" class="edge">
<title>673443513727332637&#45;&gt;4572600278003539478</title>
<path fill="none" stroke="black" stroke-width="1.17" d="M392.86,-323.3C411.34,-328.69 427.8,-335.05 434.5,-341.81 450.14,-357.6 448.5,-367.59 448.5,-389.81 448.5,-561.81 448.5,-561.81 448.5,-561.81 448.5,-602.76 744.03,-632.14 852.88,-641.57"/>
<polygon fill="black" stroke="black" stroke-width="1.17" points="852.45,-645.13 862.71,-642.5 853.04,-638.16 852.45,-645.13"/>
<text text-anchor="middle" x="457" y="-472.71" font-family="Times New Roman,serif" font-size="12.00">22s</text>
</g>
<!-- 8826139826624112448&#45;&gt;&#45;4162420903657016109 -->
<g id="edge27" class="edge">
<title>8826139826624112448&#45;&gt;&#45;4162420903657016109</title>
<path fill="none" stroke="black" stroke-width="1.01" d="M1235.85,-542.61C1255.45,-530.29 1282.08,-513.55 1303.57,-500.03"/>
<polygon fill="black" stroke="black" stroke-width="1.01" points="1305.13,-502.56 1311.73,-494.27 1301.4,-496.63 1305.13,-502.56"/>
<text text-anchor="middle" x="1287" y="-515.21" font-family="Times New Roman,serif" font-size="12.00">2s</text>
</g>
<!-- 8826139826624112448&#45;&gt;&#45;2828859432936935225 -->
<g id="edge28" class="edge">
<title>8826139826624112448&#45;&gt;&#45;2828859432936935225</title>
<path fill="none" stroke="black" stroke-width="1.01" d="M1207.24,-542.65C1204.79,-520.6 1197.59,-482.27 1176.5,-457.81 1150.82,-428.03 1108.61,-410.5 1078.02,-401.08"/>
<polygon fill="black" stroke="black" stroke-width="1.01" points="1079.31,-397.52 1068.73,-398.08 1077.35,-404.24 1079.31,-397.52"/>
<text text-anchor="middle" x="1201" y="-472.71" font-family="Times New Roman,serif" font-size="12.00">2s</text>
</g>
<!-- 8826139826624112448&#45;&gt;&#45;8551108795534898076 -->
<g id="edge29" class="edge">
<title>8826139826624112448&#45;&gt;&#45;8551108795534898076</title>
<path fill="none" stroke="black" d="M1209.12,-578.98C1209.26,-606.01 1206.06,-659.08 1181.5,-694.81 1178.76,-698.8 1175.4,-702.44 1171.7,-705.72"/>
<polygon fill="black" stroke="black" points="1169.91,-703.45 1164.18,-712.36 1174.22,-708.97 1169.91,-703.45"/>
<text text-anchor="middle" x="1210" y="-642.71" font-family="Times New Roman,serif" font-size="12.00">1s</text>
</g>
<!-- &#45;1759314400454882690&#45;&gt;8826139826624112448 -->
<g id="edge30" class="edge">
<title>&#45;1759314400454882690&#45;&gt;8826139826624112448</title>
<path fill="none" stroke="black" d="M812.88,-214.63C788.94,-221.88 754.27,-231.86 723.5,-238.81 366.66,-319.46 370.29,-250.09 439.5,-323.81 461.22,-346.94 693.65,-334.39 724.5,-341.81 738.63,-345.21 740.86,-349.79 754.5,-354.81 901.47,-408.92 954.57,-381.79 1091.5,-457.81 1111.12,-468.7 1154.74,-508.6 1182.82,-535.15"/>
<polygon fill="black" stroke="black" points="1179.98,-537.23 1189.64,-541.58 1184.8,-532.15 1179.98,-537.23"/>
<text text-anchor="middle" x="979" y="-387.71" font-family="Times New Roman,serif" font-size="12.00">1s</text>
</g>
<!-- 1246284287722020625 -->
<g id="node20" class="node">
<title>1246284287722020625</title>
<polygon fill="none" stroke="black" points="227.5,-748.81 159.5,-748.81 159.5,-712.81 227.5,-712.81 227.5,-748.81"/>
<text text-anchor="middle" x="193.5" y="-727.71" font-family="Times New Roman,serif" font-size="12.00">navigate_to</text>
</g>
<!-- 1246284287722020625&#45;&gt;4572600278003539478 -->
<g id="edge31" class="edge">
<title>1246284287722020625&#45;&gt;4572600278003539478</title>
<path fill="none" stroke="black" d="M227.69,-725.75C344.62,-711.87 728.27,-666.31 852.96,-651.51"/>
<polygon fill="black" stroke="black" points="853.01,-654.91 862.53,-650.25 852.19,-647.95 853.01,-654.91"/>
<text text-anchor="middle" x="591" y="-685.21" font-family="Times New Roman,serif" font-size="12.00">1s</text>
</g>
<!-- &#45;2828859432936935225&#45;&gt;4017203369508189456 -->
<g id="edge32" class="edge">
<title>&#45;2828859432936935225&#45;&gt;4017203369508189456</title>
<path fill="none" stroke="black" stroke-width="1.17" d="M1013.29,-387.24C968.1,-382.68 874.9,-371.98 797.5,-354.81 778.01,-350.49 774.05,-345.84 754.5,-341.81 688.11,-328.13 667.58,-334.7 597.1,-323.93"/>
<polygon fill="black" stroke="black" stroke-width="1.17" points="597.76,-320.33 587.33,-322.21 596.65,-327.24 597.76,-320.33"/>
<text text-anchor="middle" x="806" y="-345.21" font-family="Times New Roman,serif" font-size="12.00">22s</text>
</g>
<!-- &#45;2828859432936935225&#45;&gt;2137833237022894573 -->
<g id="edge33" class="edge">
<title>&#45;2828859432936935225&#45;&gt;2137833237022894573</title>
<path fill="none" stroke="black" stroke-width="1.17" d="M1027.02,-372.48C1021.59,-363.35 1017.46,-351.97 1021.5,-341.81 1022.79,-338.55 1024.55,-335.42 1026.59,-332.46"/>
<polygon fill="black" stroke="black" stroke-width="1.17" points="1028.75,-335.12 1032.33,-325.15 1023.31,-330.71 1028.75,-335.12"/>
<text text-anchor="middle" x="1030" y="-345.21" font-family="Times New Roman,serif" font-size="12.00">22s</text>
</g>
<!-- &#45;2828859432936935225&#45;&gt;&#45;1548836318819260850 -->
<g id="edge34" class="edge">
<title>&#45;2828859432936935225&#45;&gt;&#45;1548836318819260850</title>
<path fill="none" stroke="black" stroke-width="2.58" d="M1013.31,-385.2C987.44,-380.11 947.92,-370.5 916.5,-354.81 904.54,-348.84 892.58,-340.48 882.34,-332.41"/>
<polygon fill="black" stroke="black" stroke-width="2.58" points="885.31,-329.86 875.37,-326.21 880.87,-335.27 885.31,-329.86"/>
<text text-anchor="middle" x="924" y="-345.21" font-family="Times New Roman,serif" font-size="12.00">3m</text>
</g>
<!-- &#45;2828859432936935225&#45;&gt;&#45;7261425491390122994 -->
<g id="edge35" class="edge">
<title>&#45;2828859432936935225&#45;&gt;&#45;7261425491390122994</title>
<path fill="none" stroke="black" stroke-width="1.17" d="M1043.47,-372.77C1046.16,-362.34 1051.21,-349.56 1060.5,-341.81 1087.12,-319.63 1103.77,-329.94 1141.81,-323.84"/>
<polygon fill="black" stroke="black" stroke-width="1.17" points="1142.38,-327.11 1151.54,-321.78 1141.06,-320.23 1142.38,-327.11"/>
<text text-anchor="middle" x="1069" y="-345.21" font-family="Times New Roman,serif" font-size="12.00">22s</text>
</g>
<!-- &#45;2828859432936935225&#45;&gt;1879159653324323843 -->
<g id="edge36" class="edge">
<title>&#45;2828859432936935225&#45;&gt;1879159653324323843</title>
<path fill="none" stroke="black" stroke-width="1.17" d="M1013.14,-384.23C980.21,-377.46 923.24,-365.63 874.5,-354.81 830.9,-345.14 782.22,-333.82 743.14,-324.6"/>
<polygon fill="black" stroke="black" stroke-width="1.17" points="744.44,-321.08 733.91,-322.19 742.83,-327.89 744.44,-321.08"/>
<text text-anchor="middle" x="883" y="-345.21" font-family="Times New Roman,serif" font-size="12.00">22s</text>
</g>
<!-- &#45;2828859432936935225&#45;&gt;6075178304717725746 -->
<g id="edge37" class="edge">
<title>&#45;2828859432936935225&#45;&gt;6075178304717725746</title>
<path fill="none" stroke="black" stroke-width="1.18" d="M1067.77,-386.28C1099.83,-381.56 1154.3,-371.76 1198.5,-354.81 1209.46,-350.61 1210.25,-345.19 1221.5,-341.81 1329.6,-309.36 1365.79,-341.52 1480.48,-323.88"/>
<polygon fill="black" stroke="black" stroke-width="1.18" points="1480.78,-327.22 1490.08,-322.15 1479.65,-320.31 1480.78,-327.22"/>
<text text-anchor="middle" x="1230" y="-345.21" font-family="Times New Roman,serif" font-size="12.00">23s</text>
</g>
<!-- &#45;2828859432936935225&#45;&gt;6411501856739108121 -->
<g id="edge38" class="edge">
<title>&#45;2828859432936935225&#45;&gt;6411501856739108121</title>
<path fill="none" stroke="black" stroke-width="1.17" d="M1013.21,-387.95C893.32,-379.72 411.98,-346.09 237.7,-324.01"/>
<polygon fill="black" stroke="black" stroke-width="1.17" points="238.28,-320.43 227.92,-322.61 237.38,-327.37 238.28,-320.43"/>
<text text-anchor="middle" x="561" y="-345.21" font-family="Times New Roman,serif" font-size="12.00">22s</text>
</g>
<!-- &#45;2828859432936935225&#45;&gt;&#45;9036171747072133490 -->
<g id="edge39" class="edge">
<title>&#45;2828859432936935225&#45;&gt;&#45;9036171747072133490</title>
<path fill="none" stroke="black" stroke-width="1.17" d="M1067.88,-385.77C1106.23,-379.92 1178.03,-368.32 1238.5,-354.81 1260.07,-349.99 1264.68,-345.34 1286.5,-341.81 1422.83,-319.74 1462.52,-343.17 1602.94,-323.84"/>
<polygon fill="black" stroke="black" stroke-width="1.17" points="1603.27,-327.18 1612.67,-322.3 1602.28,-320.25 1603.27,-327.18"/>
<text text-anchor="middle" x="1295" y="-345.21" font-family="Times New Roman,serif" font-size="12.00">22s</text>
</g>
<!-- &#45;2828859432936935225&#45;&gt;&#45;8142161333965579018 -->
<g id="edge40" class="edge">
<title>&#45;2828859432936935225&#45;&gt;&#45;8142161333965579018</title>
<path fill="none" stroke="black" stroke-width="1.17" d="M1067.79,-378.98C1083.04,-372.58 1102.19,-363.96 1118.5,-354.81 1127.43,-349.81 1127.92,-345.4 1137.5,-341.81 1198.89,-318.83 1221.15,-332.4 1288.77,-324.05"/>
<polygon fill="black" stroke="black" stroke-width="1.17" points="1289.12,-327.4 1298.56,-322.59 1288.18,-320.47 1289.12,-327.4"/>
<text text-anchor="middle" x="1146" y="-345.21" font-family="Times New Roman,serif" font-size="12.00">22s</text>
</g>
<!-- &#45;2828859432936935225&#45;&gt;7645206821432851380 -->
<g id="edge41" class="edge">
<title>&#45;2828859432936935225&#45;&gt;7645206821432851380</title>
<path fill="none" stroke="black" stroke-width="1.17" d="M1067.81,-386.31C1135.66,-377.7 1317.39,-355.26 1469.5,-341.81 1588.91,-331.26 1622.11,-337.77 1744.1,-324.01"/>
<polygon fill="black" stroke="black" stroke-width="1.17" points="1744.47,-327.38 1754,-322.76 1743.67,-320.42 1744.47,-327.38"/>
<text text-anchor="middle" x="1478" y="-345.21" font-family="Times New Roman,serif" font-size="12.00">22s</text>
</g>
<!-- &#45;2828859432936935225&#45;&gt;673443513727332637 -->
<g id="edge42" class="edge">
<title>&#45;2828859432936935225&#45;&gt;673443513727332637</title>
<path fill="none" stroke="black" stroke-width="1.17" d="M1013.21,-387.11C928.19,-378.63 660.57,-351.47 439.5,-323.81 427.78,-322.34 415.43,-320.71 403.28,-319.05"/>
<polygon fill="black" stroke="black" stroke-width="1.17" points="404.07,-315.49 393.68,-317.59 403.11,-322.43 404.07,-315.49"/>
<text text-anchor="middle" x="712" y="-345.21" font-family="Times New Roman,serif" font-size="12.00">22s</text>
</g>
<!-- &#45;2828859432936935225&#45;&gt;&#45;2828859432936935225 -->
<g id="edge43" class="edge">
<title>&#45;2828859432936935225&#45;&gt;&#45;2828859432936935225</title>
<path fill="none" stroke="black" stroke-width="1.01" d="M1067.74,-398.77C1077.52,-398.94 1085.5,-396.29 1085.5,-390.81 1085.5,-387.56 1082.69,-385.3 1078.36,-384.04"/>
<polygon fill="black" stroke="black" stroke-width="1.01" points="1079.07,-380.49 1068.74,-382.85 1078.29,-387.44 1079.07,-380.49"/>
<text text-anchor="middle" x="1091" y="-387.71" font-family="Times New Roman,serif" font-size="12.00">2s</text>
</g>
<!-- &#45;8551108795534898076&#45;&gt;4572600278003539478 -->
<g id="edge44" class="edge">
<title>&#45;8551108795534898076&#45;&gt;4572600278003539478</title>
<path fill="none" stroke="black" stroke-width="1.34" d="M1080.27,-713.41C1037.14,-698.12 973.46,-675.53 932.48,-660.99"/>
<polygon fill="black" stroke="black" stroke-width="1.34" points="932.9,-657.07 922.3,-657.03 930.56,-663.67 932.9,-657.07"/>
<text text-anchor="middle" x="1032" y="-685.21" font-family="Times New Roman,serif" font-size="12.00">42s</text>
</g>
<!-- &#45;8551108795534898076&#45;&gt;8826139826624112448 -->
<g id="edge45" class="edge">
<title>&#45;8551108795534898076&#45;&gt;8826139826624112448</title>
<path fill="none" stroke="black" stroke-width="1.01" d="M1134.97,-712.46C1149.34,-683.01 1178.61,-623.05 1195.57,-588.31"/>
<polygon fill="black" stroke="black" stroke-width="1.01" points="1198.96,-590.33 1200.2,-579.81 1192.67,-587.26 1198.96,-590.33"/>
<text text-anchor="middle" x="1181" y="-642.71" font-family="Times New Roman,serif" font-size="12.00">2s</text>
</g>
<!-- &#45;8551108795534898076&#45;&gt;&#45;8551108795534898076 -->
<g id="edge46" class="edge">
<title>&#45;8551108795534898076&#45;&gt;&#45;8551108795534898076</title>
<path fill="none" stroke="black" d="M1172.81,-738.57C1183.05,-737.84 1190.5,-735.25 1190.5,-730.81 1190.5,-728.17 1187.87,-726.19 1183.59,-724.86"/>
<polygon fill="black" stroke="black" points="1184.25,-721.26 1173.81,-723.06 1183.1,-728.16 1184.25,-721.26"/>
<text text-anchor="middle" x="1196" y="-727.71" font-family="Times New Roman,serif" font-size="12.00">1s</text>
</g>
</g>
</svg>
