<?xml version="1.0" encoding="UTF-8" standalone="no"?>
<!DOCTYPE svg PUBLIC "-//W3C//DTD SVG 1.1//EN"
 "http://www.w3.org/Graphics/SVG/1.1/DTD/svg11.dtd">
<!-- Generated by graphviz version 7.1.0 (20230121.1956)
 -->
<!-- Pages: 1 -->
<svg width="103pt" height="417pt"
 viewBox="0.00 0.00 103.41 416.81" xmlns="http://www.w3.org/2000/svg" xmlns:xlink="http://www.w3.org/1999/xlink">
<g id="graph0" class="graph" transform="scale(1 1) rotate(0) translate(4 412.81)">
<polygon fill="white" stroke="none" points="-4,4 -4,-412.81 99.41,-412.81 99.41,4 -4,4"/>
<!-- 5979003392761407765 -->
<g id="node1" class="node">
<title>5979003392761407765</title>
<polygon fill="none" stroke="black" points="87.5,-323.81 30.5,-323.81 30.5,-287.81 87.5,-287.81 87.5,-323.81"/>
<text text-anchor="middle" x="59" y="-302.71" font-family="Times New Roman,serif" font-size="12.00">copyCell</text>
</g>
<!-- &#45;1469425098975310577 -->
<g id="node4" class="node">
<title>&#45;1469425098975310577</title>
<polygon fill="none" stroke="black" points="54,-238.81 0,-238.81 0,-202.81 54,-202.81 54,-238.81"/>
<text text-anchor="middle" x="27" y="-217.71" font-family="Times New Roman,serif" font-size="12.00">paste</text>
</g>
<!-- 5979003392761407765&#45;&gt;&#45;1469425098975310577 -->
<g id="edge1" class="edge">
<title>5979003392761407765&#45;&gt;&#45;1469425098975310577</title>
<path fill="none" stroke="black" stroke-width="2.2" d="M52.37,-287.61C48.36,-277.22 43.15,-263.69 38.49,-251.61"/>
<polygon fill="black" stroke="black" stroke-width="2.2" points="41.79,-250.45 34.93,-242.38 35.26,-252.97 41.79,-250.45"/>
<text text-anchor="middle" x="50.5" y="-260.21" font-family="Times New Roman,serif" font-size="12.00">4s</text>
</g>
<!-- 4656304329061748753 -->
<g id="node2" class="node">
<title>4656304329061748753</title>
<polygon fill="none" stroke="black" points="89,-153.81 33,-153.81 33,-117.81 89,-117.81 89,-153.81"/>
<text text-anchor="middle" x="61" y="-132.71" font-family="Times New Roman,serif" font-size="12.00">editField</text>
</g>
<!-- 4656304329061748753&#45;&gt;5979003392761407765 -->
<g id="edge2" class="edge">
<title>4656304329061748753&#45;&gt;5979003392761407765</title>
<path fill="none" stroke="black" stroke-width="1.8" d="M61.87,-154.14C62.76,-174.44 63.9,-209.07 63,-238.81 62.64,-250.69 61.92,-263.75 61.18,-275.09"/>
<polygon fill="black" stroke="black" stroke-width="1.8" points="57.72,-274.52 60.53,-284.74 64.7,-275 57.72,-274.52"/>
<text text-anchor="middle" x="68.5" y="-217.71" font-family="Times New Roman,serif" font-size="12.00">3s</text>
</g>
<!-- 4656304329061748753&#45;&gt;&#45;1469425098975310577 -->
<g id="edge3" class="edge">
<title>4656304329061748753&#45;&gt;&#45;1469425098975310577</title>
<path fill="none" stroke="black" d="M53.85,-154.27C49.34,-165.27 43.43,-179.71 38.3,-192.23"/>
<polygon fill="black" stroke="black" points="35.17,-190.63 34.62,-201.21 41.65,-193.29 35.17,-190.63"/>
<text text-anchor="middle" x="52.5" y="-175.21" font-family="Times New Roman,serif" font-size="12.00">1s</text>
</g>
<!-- @@endnode -->
<g id="node5" class="node">
<title>@@endnode</title>
<ellipse fill="none" stroke="black" cx="61" cy="-34.41" rx="30.32" ry="30.32"/>
<ellipse fill="none" stroke="black" cx="61" cy="-34.41" rx="34.31" ry="34.31"/>
<text text-anchor="start" x="51" y="-26.31" font-family="Times New Roman,serif" font-size="32.00">■</text>
</g>
<!-- 4656304329061748753&#45;&gt;@@endnode -->
<g id="edge6" class="edge">
<title>4656304329061748753&#45;&gt;@@endnode</title>
<path fill="none" stroke="black" d="M61,-117.5C61,-107.17 61,-93.54 61,-80.36"/>
<polygon fill="black" stroke="black" points="64.5,-80.5 61,-70.5 57.5,-80.5 64.5,-80.5"/>
<text text-anchor="middle" x="64.5" y="-90.21" font-family="Times New Roman,serif" font-size="12.00">1</text>
</g>
<!-- &#45;1382111555709247029 -->
<g id="node3" class="node">
<title>&#45;1382111555709247029</title>
<polygon fill="none" stroke="black" points="93,-408.81 25,-408.81 25,-372.81 93,-372.81 93,-408.81"/>
<text text-anchor="middle" x="59" y="-387.71" font-family="Times New Roman,serif" font-size="12.00">navigate_to</text>
</g>
<!-- &#45;1382111555709247029&#45;&gt;5979003392761407765 -->
<g id="edge4" class="edge">
<title>&#45;1382111555709247029&#45;&gt;5979003392761407765</title>
<path fill="none" stroke="black" d="M59,-372.61C59,-361.89 59,-347.83 59,-335.45"/>
<polygon fill="black" stroke="black" points="62.5,-335.79 59,-325.79 55.5,-335.79 62.5,-335.79"/>
<text text-anchor="middle" x="64.5" y="-345.21" font-family="Times New Roman,serif" font-size="12.00">1s</text>
</g>
<!-- &#45;1469425098975310577&#45;&gt;4656304329061748753 -->
<g id="edge5" class="edge">
<title>&#45;1469425098975310577&#45;&gt;4656304329061748753</title>
<path fill="none" stroke="black" stroke-width="2.6" d="M23.9,-202.32C22.99,-192.95 23.11,-181.39 27,-171.81 27.96,-169.44 29.17,-167.14 30.55,-164.93"/>
<polygon fill="black" stroke="black" stroke-width="2.6" points="33.27,-167.14 36.75,-157.13 27.79,-162.78 33.27,-167.14"/>
<text text-anchor="middle" x="32.5" y="-175.21" font-family="Times New Roman,serif" font-size="12.00">5s</text>
</g>
</g>
</svg>
