<?xml version="1.0" encoding="UTF-8" standalone="no"?>
<!DOCTYPE svg PUBLIC "-//W3C//DTD SVG 1.1//EN"
 "http://www.w3.org/Graphics/SVG/1.1/DTD/svg11.dtd">
<!-- Generated by graphviz version 8.0.3 (20230416.2022)
 -->
<!-- Pages: 1 -->
<svg width="1676pt" height="502pt"
 viewBox="0.00 0.00 1675.50 501.81" xmlns="http://www.w3.org/2000/svg" xmlns:xlink="http://www.w3.org/1999/xlink">
<g id="graph0" class="graph" transform="scale(1 1) rotate(0) translate(4 497.81)">
<polygon fill="white" stroke="none" points="-4,4 -4,-497.81 1671.5,-497.81 1671.5,4 -4,4"/>
<!-- &#45;7283433983056500281 -->
<g id="node1" class="node">
<title>&#45;7283433983056500281</title>
<polygon fill="none" stroke="black" points="1468.5,-493.81 1364.5,-493.81 1364.5,-457.81 1468.5,-457.81 1468.5,-493.81"/>
<text text-anchor="middle" x="1416.5" y="-472.71" font-family="Times New Roman,serif" font-size="12.00">clickButton[button]</text>
</g>
<!-- &#45;8551108795534898076 -->
<g id="node16" class="node">
<title>&#45;8551108795534898076</title>
<polygon fill="none" stroke="black" points="1383.5,-408.81 1291.5,-408.81 1291.5,-372.81 1383.5,-372.81 1383.5,-408.81"/>
<text text-anchor="middle" x="1337.5" y="-387.71" font-family="Times New Roman,serif" font-size="12.00">selectWorksheet</text>
</g>
<!-- &#45;7283433983056500281&#45;&gt;&#45;8551108795534898076 -->
<g id="edge1" class="edge">
<title>&#45;7283433983056500281&#45;&gt;&#45;8551108795534898076</title>
<path fill="none" stroke="black" d="M1400.13,-457.61C1388.98,-445.9 1374.03,-430.19 1361.53,-417.06"/>
<polygon fill="black" stroke="black" points="1364.55,-415.1 1355.12,-410.27 1359.48,-419.93 1364.55,-415.1"/>
<text text-anchor="middle" x="1387" y="-430.21" font-family="Times New Roman,serif" font-size="12.00">1s</text>
</g>
<!-- 4572600278003539478 -->
<g id="node2" class="node">
<title>4572600278003539478</title>
<polygon fill="none" stroke="black" points="840,-323.81 783,-323.81 783,-287.81 840,-287.81 840,-323.81"/>
<text text-anchor="middle" x="811.5" y="-302.71" font-family="Times New Roman,serif" font-size="12.00">copyCell</text>
</g>
<!-- &#45;2828859432936935225 -->
<g id="node15" class="node">
<title>&#45;2828859432936935225</title>
<polygon fill="none" stroke="black" points="838.5,-222.41 784.5,-222.41 784.5,-186.41 838.5,-186.41 838.5,-222.41"/>
<text text-anchor="middle" x="811.5" y="-201.31" font-family="Times New Roman,serif" font-size="12.00">paste</text>
</g>
<!-- 4572600278003539478&#45;&gt;&#45;2828859432936935225 -->
<g id="edge2" class="edge">
<title>4572600278003539478&#45;&gt;&#45;2828859432936935225</title>
<path fill="none" stroke="black" stroke-width="2.6" d="M811.5,-287.5C811.5,-273.26 811.5,-252.74 811.5,-235.78"/>
<polygon fill="black" stroke="black" stroke-width="2.6" points="815,-235.86 811.5,-225.86 808,-235.86 815,-235.86"/>
<text text-anchor="middle" x="817" y="-260.21" font-family="Times New Roman,serif" font-size="12.00">7s</text>
</g>
<!-- @@endnode -->
<g id="node17" class="node">
<title>@@endnode</title>
<ellipse fill="none" stroke="black" cx="732.5" cy="-204.41" rx="30.32" ry="30.32"/>
<ellipse fill="none" stroke="black" cx="732.5" cy="-204.41" rx="34.31" ry="34.31"/>
<text text-anchor="start" x="722.5" y="-196.31" font-family="Times New Roman,serif" font-size="32.00">■</text>
</g>
<!-- 4572600278003539478&#45;&gt;@@endnode -->
<g id="edge26" class="edge">
<title>4572600278003539478&#45;&gt;@@endnode</title>
<path fill="none" stroke="black" d="M797.74,-287.5C787.44,-274.54 773.02,-256.39 760.35,-240.45"/>
<polygon fill="black" stroke="black" points="762.49,-238.52 753.53,-232.86 757.01,-242.87 762.49,-238.52"/>
<text text-anchor="middle" x="785" y="-260.21" font-family="Times New Roman,serif" font-size="12.00">1</text>
</g>
<!-- &#45;4162420903657016109 -->
<g id="node3" class="node">
<title>&#45;4162420903657016109</title>
<polygon fill="none" stroke="black" points="690.5,-36 622.5,-36 622.5,0 690.5,0 690.5,-36"/>
<text text-anchor="middle" x="656.5" y="-14.9" font-family="Times New Roman,serif" font-size="12.00">copyRange</text>
</g>
<!-- &#45;4162420903657016109&#45;&gt;&#45;2828859432936935225 -->
<g id="edge3" class="edge">
<title>&#45;4162420903657016109&#45;&gt;&#45;2828859432936935225</title>
<path fill="none" stroke="black" d="M649.3,-36.22C641.45,-57.98 632.16,-95.66 649.5,-121 683.42,-170.59 724.58,-138.11 775.5,-170 779.59,-172.56 783.64,-175.63 787.46,-178.85"/>
<polygon fill="black" stroke="black" points="784.61,-180.9 794.38,-185.01 789.31,-175.71 784.61,-180.9"/>
<text text-anchor="middle" x="655" y="-99.9" font-family="Times New Roman,serif" font-size="12.00">1s</text>
</g>
<!-- 4017203369508189456 -->
<g id="node4" class="node">
<title>4017203369508189456</title>
<polygon fill="none" stroke="black" points="137,-121 0,-121 0,-85 137,-85 137,-121"/>
<text text-anchor="middle" x="68.5" y="-99.9" font-family="Times New Roman,serif" font-size="12.00">editField[q10_bankName]</text>
</g>
<!-- 4017203369508189456&#45;&gt;4572600278003539478 -->
<g id="edge4" class="edge">
<title>4017203369508189456&#45;&gt;4572600278003539478</title>
<path fill="none" stroke="black" d="M104.42,-121.3C164.97,-149.8 291.78,-206.65 404.5,-238.81 480.88,-260.6 502.12,-256.97 580.5,-269.81 647.62,-280.81 725.91,-292.41 771.95,-299.11"/>
<polygon fill="black" stroke="black" points="771.26,-302.69 781.65,-300.67 772.26,-295.77 771.26,-302.69"/>
<text text-anchor="middle" x="410" y="-201.31" font-family="Times New Roman,serif" font-size="12.00">1s</text>
</g>
<!-- 2137833237022894573 -->
<g id="node5" class="node">
<title>2137833237022894573</title>
<polygon fill="none" stroke="black" points="456.5,-121 296.5,-121 296.5,-85 456.5,-85 456.5,-121"/>
<text text-anchor="middle" x="376.5" y="-99.9" font-family="Times New Roman,serif" font-size="12.00">editField[q11_accountNumber]</text>
</g>
<!-- 2137833237022894573&#45;&gt;4572600278003539478 -->
<g id="edge5" class="edge">
<title>2137833237022894573&#45;&gt;4572600278003539478</title>
<path fill="none" stroke="black" d="M433.18,-121.45C448.69,-126.66 465.38,-132.68 480.5,-139 503.23,-148.5 656.47,-227.79 678.5,-238.81 710.29,-254.71 746.42,-272.63 772.99,-285.78"/>
<polygon fill="black" stroke="black" points="771.16,-289.28 781.68,-290.57 774.26,-283 771.16,-289.28"/>
<text text-anchor="middle" x="684" y="-201.31" font-family="Times New Roman,serif" font-size="12.00">1s</text>
</g>
<!-- &#45;7261425491390122994 -->
<g id="node6" class="node">
<title>&#45;7261425491390122994</title>
<polygon fill="none" stroke="black" points="604,-121 475,-121 475,-85 604,-85 604,-121"/>
<text text-anchor="middle" x="539.5" y="-99.9" font-family="Times New Roman,serif" font-size="12.00">editField[q3_name[first]]</text>
</g>
<!-- &#45;7261425491390122994&#45;&gt;&#45;2828859432936935225 -->
<g id="edge6" class="edge">
<title>&#45;7261425491390122994&#45;&gt;&#45;2828859432936935225</title>
<path fill="none" stroke="black" d="M565.76,-121.4C585.5,-134.34 610.05,-150.09 615.5,-152 683.02,-175.71 710.46,-140.17 775.5,-170 780.29,-172.19 784.86,-175.27 789.04,-178.68"/>
<polygon fill="black" stroke="black" points="786.28,-180.81 796.02,-184.97 790.99,-175.64 786.28,-180.81"/>
<text text-anchor="middle" x="621" y="-142.4" font-family="Times New Roman,serif" font-size="12.00">1s</text>
</g>
<!-- 1879159653324323843 -->
<g id="node7" class="node">
<title>1879159653324323843</title>
<polygon fill="none" stroke="black" points="1477.5,-121 1349.5,-121 1349.5,-85 1477.5,-85 1477.5,-121"/>
<text text-anchor="middle" x="1413.5" y="-99.9" font-family="Times New Roman,serif" font-size="12.00">editField[q3_name[last]]</text>
</g>
<!-- 1879159653324323843&#45;&gt;4572600278003539478 -->
<g id="edge7" class="edge">
<title>1879159653324323843&#45;&gt;4572600278003539478</title>
<path fill="none" stroke="black" d="M1399.18,-121.35C1373.9,-150.72 1318.24,-209.84 1257.5,-238.81 1185.7,-273.05 946.8,-294.52 851.38,-301.92"/>
<polygon fill="black" stroke="black" points="851.18,-298.5 841.47,-302.75 851.71,-305.48 851.18,-298.5"/>
<text text-anchor="middle" x="1357" y="-201.31" font-family="Times New Roman,serif" font-size="12.00">1s</text>
</g>
<!-- 6075178304717725746 -->
<g id="node8" class="node">
<title>6075178304717725746</title>
<polygon fill="none" stroke="black" points="1331.5,-121 1227.5,-121 1227.5,-85 1331.5,-85 1331.5,-121"/>
<text text-anchor="middle" x="1279.5" y="-99.9" font-family="Times New Roman,serif" font-size="12.00">editField[q4_email]</text>
</g>
<!-- 6075178304717725746&#45;&gt;4572600278003539478 -->
<g id="edge8" class="edge">
<title>6075178304717725746&#45;&gt;4572600278003539478</title>
<path fill="none" stroke="black" d="M1277.4,-121.42C1275.37,-131.47 1271.37,-143.72 1263.5,-152 1149.66,-271.8 938.74,-297.68 851.19,-303.27"/>
<polygon fill="black" stroke="black" points="851.19,-299.82 841.41,-303.9 851.59,-306.81 851.19,-299.82"/>
<text text-anchor="middle" x="1248" y="-201.31" font-family="Times New Roman,serif" font-size="12.00">1s</text>
</g>
<!-- 6411501856739108121 -->
<g id="node9" class="node">
<title>6411501856739108121</title>
<polygon fill="none" stroke="black" points="1667.5,-121 1495.5,-121 1495.5,-85 1667.5,-85 1667.5,-121"/>
<text text-anchor="middle" x="1581.5" y="-99.9" font-family="Times New Roman,serif" font-size="12.00">editField[q5_address[addr_line1]]</text>
</g>
<!-- 6411501856739108121&#45;&gt;&#45;7283433983056500281 -->
<g id="edge9" class="edge">
<title>6411501856739108121&#45;&gt;&#45;7283433983056500281</title>
<path fill="none" stroke="black" d="M1552.38,-121.36C1527.44,-138.68 1495.5,-167.81 1495.5,-203.41 1495.5,-391.81 1495.5,-391.81 1495.5,-391.81 1495.5,-416.65 1476.7,-437.01 1457.45,-451.34"/>
<polygon fill="black" stroke="black" points="1455.83,-448.91 1449.63,-457.5 1459.83,-454.64 1455.83,-448.91"/>
<text text-anchor="middle" x="1501" y="-302.71" font-family="Times New Roman,serif" font-size="12.00">1s</text>
</g>
<!-- &#45;9036171747072133490 -->
<g id="node10" class="node">
<title>&#45;9036171747072133490</title>
<polygon fill="none" stroke="black" points="278,-121 155,-121 155,-85 278,-85 278,-121"/>
<text text-anchor="middle" x="216.5" y="-99.9" font-family="Times New Roman,serif" font-size="12.00">editField[q6_studentId]</text>
</g>
<!-- &#45;9036171747072133490&#45;&gt;4572600278003539478 -->
<g id="edge10" class="edge">
<title>&#45;9036171747072133490&#45;&gt;4572600278003539478</title>
<path fill="none" stroke="black" d="M278.36,-118.82C316.46,-127.99 358.44,-138.16 360.5,-139 441.71,-171.88 449.16,-206.25 530.5,-238.81 613.2,-271.92 716.53,-290.87 771.97,-299.36"/>
<polygon fill="black" stroke="black" points="771.32,-302.95 781.72,-300.97 772.35,-296.03 771.32,-302.95"/>
<text text-anchor="middle" x="536" y="-201.31" font-family="Times New Roman,serif" font-size="12.00">1s</text>
</g>
<!-- &#45;8142161333965579018 -->
<g id="node11" class="node">
<title>&#45;8142161333965579018</title>
<polygon fill="none" stroke="black" points="1043,-121 870,-121 870,-85 1043,-85 1043,-121"/>
<text text-anchor="middle" x="956.5" y="-99.9" font-family="Times New Roman,serif" font-size="12.00">editField[q7_phoneNumber[area]]</text>
</g>
<!-- &#45;8142161333965579018&#45;&gt;&#45;2828859432936935225 -->
<g id="edge11" class="edge">
<title>&#45;8142161333965579018&#45;&gt;&#45;2828859432936935225</title>
<path fill="none" stroke="black" d="M922.89,-121.38C913.22,-126.73 902.78,-132.84 893.5,-139 874.93,-151.34 855.24,-166.72 839.81,-179.35"/>
<polygon fill="black" stroke="black" points="838.19,-176.98 832.72,-186.05 842.65,-182.37 838.19,-176.98"/>
<text text-anchor="middle" x="899" y="-142.4" font-family="Times New Roman,serif" font-size="12.00">1s</text>
</g>
<!-- 7645206821432851380 -->
<g id="node12" class="node">
<title>7645206821432851380</title>
<polygon fill="none" stroke="black" points="851.5,-121 669.5,-121 669.5,-85 851.5,-85 851.5,-121"/>
<text text-anchor="middle" x="760.5" y="-99.9" font-family="Times New Roman,serif" font-size="12.00">editField[q7_phoneNumber[phone]]</text>
</g>
<!-- 7645206821432851380&#45;&gt;&#45;4162420903657016109 -->
<g id="edge12" class="edge">
<title>7645206821432851380&#45;&gt;&#45;4162420903657016109</title>
<path fill="none" stroke="black" d="M738.7,-84.6C723.58,-72.54 703.26,-56.32 686.6,-43.02"/>
<polygon fill="black" stroke="black" points="689.27,-39.88 679.27,-36.38 684.91,-45.35 689.27,-39.88"/>
<text text-anchor="middle" x="721" y="-57.4" font-family="Times New Roman,serif" font-size="12.00">1s</text>
</g>
<!-- 673443513727332637 -->
<g id="node13" class="node">
<title>673443513727332637</title>
<polygon fill="none" stroke="black" points="1209.5,-121 1061.5,-121 1061.5,-85 1209.5,-85 1209.5,-121"/>
<text text-anchor="middle" x="1135.5" y="-99.9" font-family="Times New Roman,serif" font-size="12.00">editField[q9_accountHolder]</text>
</g>
<!-- 673443513727332637&#45;&gt;4572600278003539478 -->
<g id="edge13" class="edge">
<title>673443513727332637&#45;&gt;4572600278003539478</title>
<path fill="none" stroke="black" d="M1107.61,-121.29C1049.32,-157.41 914.56,-240.94 848.86,-281.66"/>
<polygon fill="black" stroke="black" points="847.34,-279.1 840.69,-287.34 851.03,-285.05 847.34,-279.1"/>
<text text-anchor="middle" x="1032" y="-201.31" font-family="Times New Roman,serif" font-size="12.00">1s</text>
</g>
<!-- 1246284287722020625 -->
<g id="node14" class="node">
<title>1246284287722020625</title>
<polygon fill="none" stroke="black" points="845.5,-408.81 777.5,-408.81 777.5,-372.81 845.5,-372.81 845.5,-408.81"/>
<text text-anchor="middle" x="811.5" y="-387.71" font-family="Times New Roman,serif" font-size="12.00">navigate_to</text>
</g>
<!-- 1246284287722020625&#45;&gt;4572600278003539478 -->
<g id="edge14" class="edge">
<title>1246284287722020625&#45;&gt;4572600278003539478</title>
<path fill="none" stroke="black" d="M811.5,-372.61C811.5,-361.78 811.5,-347.54 811.5,-335.07"/>
<polygon fill="black" stroke="black" points="815,-335.27 811.5,-325.27 808,-335.27 815,-335.27"/>
<text text-anchor="middle" x="817" y="-345.21" font-family="Times New Roman,serif" font-size="12.00">1s</text>
</g>
<!-- &#45;2828859432936935225&#45;&gt;4017203369508189456 -->
<g id="edge15" class="edge">
<title>&#45;2828859432936935225&#45;&gt;4017203369508189456</title>
<path fill="none" stroke="black" d="M797.49,-186.04C791.44,-179.82 783.83,-173.5 775.5,-170 735.5,-153.22 428.71,-155.78 385.5,-152 281.81,-142.93 253.27,-139.71 148.06,-121.39"/>
<polygon fill="black" stroke="black" points="148.74,-117.78 138.29,-119.5 147.54,-124.67 148.74,-117.78"/>
<text text-anchor="middle" x="391" y="-142.4" font-family="Times New Roman,serif" font-size="12.00">1s</text>
</g>
<!-- &#45;2828859432936935225&#45;&gt;2137833237022894573 -->
<g id="edge16" class="edge">
<title>&#45;2828859432936935225&#45;&gt;2137833237022894573</title>
<path fill="none" stroke="black" d="M797.43,-186.18C791.37,-179.99 783.78,-173.63 775.5,-170 729.37,-149.74 598.94,-161.68 549.5,-152 530.74,-148.33 526.86,-144.34 508.5,-139 491.28,-133.99 472.71,-128.88 455.09,-124.18"/>
<polygon fill="black" stroke="black" points="456.41,-120.64 445.84,-121.46 454.61,-127.41 456.41,-120.64"/>
<text text-anchor="middle" x="555" y="-142.4" font-family="Times New Roman,serif" font-size="12.00">1s</text>
</g>
<!-- &#45;2828859432936935225&#45;&gt;&#45;7261425491390122994 -->
<g id="edge17" class="edge">
<title>&#45;2828859432936935225&#45;&gt;&#45;7261425491390122994</title>
<path fill="none" stroke="black" d="M797.4,-186.24C791.34,-180.05 783.75,-173.69 775.5,-170 696.03,-134.51 657.78,-192.03 580.5,-152 570.68,-146.91 562.23,-138.37 555.59,-129.9"/>
<polygon fill="black" stroke="black" points="558.04,-128.3 549.36,-122.23 552.36,-132.39 558.04,-128.3"/>
<text text-anchor="middle" x="586" y="-142.4" font-family="Times New Roman,serif" font-size="12.00">1s</text>
</g>
<!-- &#45;2828859432936935225&#45;&gt;1879159653324323843 -->
<g id="edge18" class="edge">
<title>&#45;2828859432936935225&#45;&gt;1879159653324323843</title>
<path fill="none" stroke="black" d="M838.74,-199.46C895.62,-191.18 1031.15,-171.12 1144.5,-152 1176.13,-146.66 1183.84,-144.18 1215.5,-139 1267.65,-130.47 1283.51,-131.24 1338.36,-121.3"/>
<polygon fill="black" stroke="black" points="1338.88,-124.58 1348.08,-119.32 1337.61,-117.7 1338.88,-124.58"/>
<text text-anchor="middle" x="1221" y="-142.4" font-family="Times New Roman,serif" font-size="12.00">1s</text>
</g>
<!-- &#45;2828859432936935225&#45;&gt;6075178304717725746 -->
<g id="edge19" class="edge">
<title>&#45;2828859432936935225&#45;&gt;6075178304717725746</title>
<path fill="none" stroke="black" d="M838.8,-198.58C902.97,-187.09 1068.54,-156.58 1216.69,-121.35"/>
<polygon fill="black" stroke="black" points="1217.41,-124.54 1226.32,-118.81 1215.78,-117.73 1217.41,-124.54"/>
<text text-anchor="middle" x="1135" y="-142.4" font-family="Times New Roman,serif" font-size="12.00">1s</text>
</g>
<!-- &#45;2828859432936935225&#45;&gt;6411501856739108121 -->
<g id="edge20" class="edge">
<title>&#45;2828859432936935225&#45;&gt;6411501856739108121</title>
<path fill="none" stroke="black" d="M838.68,-199.94C886.81,-193.82 990.19,-180.71 1077.5,-170 1255.75,-148.13 1303.62,-148.02 1484.39,-121.27"/>
<polygon fill="black" stroke="black" points="1484.69,-124.62 1494.07,-119.69 1483.66,-117.69 1484.69,-124.62"/>
<text text-anchor="middle" x="1358" y="-142.4" font-family="Times New Roman,serif" font-size="12.00">1s</text>
</g>
<!-- &#45;2828859432936935225&#45;&gt;&#45;9036171747072133490 -->
<g id="edge21" class="edge">
<title>&#45;2828859432936935225&#45;&gt;&#45;9036171747072133490</title>
<path fill="none" stroke="black" d="M797.46,-186.11C791.4,-179.91 783.8,-173.57 775.5,-170 717.81,-145.21 555.94,-158.68 493.5,-152 450.26,-147.37 346.56,-131.88 288.93,-121.16"/>
<polygon fill="black" stroke="black" points="289.87,-117.58 279.39,-119.15 288.56,-124.46 289.87,-117.58"/>
<text text-anchor="middle" x="499" y="-142.4" font-family="Times New Roman,serif" font-size="12.00">1s</text>
</g>
<!-- &#45;2828859432936935225&#45;&gt;&#45;8142161333965579018 -->
<g id="edge22" class="edge">
<title>&#45;2828859432936935225&#45;&gt;&#45;8142161333965579018</title>
<path fill="none" stroke="black" d="M838.99,-190.41C858.08,-180.87 883.71,-167.01 904.5,-152 914.06,-145.1 923.77,-136.62 932.16,-128.72"/>
<polygon fill="black" stroke="black" points="934.3,-131.56 939.06,-122.1 929.44,-126.52 934.3,-131.56"/>
<text text-anchor="middle" x="925" y="-142.4" font-family="Times New Roman,serif" font-size="12.00">1s</text>
</g>
<!-- &#45;2828859432936935225&#45;&gt;7645206821432851380 -->
<g id="edge23" class="edge">
<title>&#45;2828859432936935225&#45;&gt;7645206821432851380</title>
<path fill="none" stroke="black" d="M802.62,-186.09C794.84,-170.93 783.41,-148.65 774.42,-131.13"/>
<polygon fill="black" stroke="black" points="777.13,-129.75 769.45,-122.45 770.9,-132.95 777.13,-129.75"/>
<text text-anchor="middle" x="790" y="-142.4" font-family="Times New Roman,serif" font-size="12.00">1s</text>
</g>
<!-- &#45;2828859432936935225&#45;&gt;673443513727332637 -->
<g id="edge24" class="edge">
<title>&#45;2828859432936935225&#45;&gt;673443513727332637</title>
<path fill="none" stroke="black" d="M838.84,-195.02C889.08,-179.6 997.42,-146.37 1068.33,-124.61"/>
<polygon fill="black" stroke="black" points="1068.98,-127.76 1077.51,-121.48 1066.92,-121.07 1068.98,-127.76"/>
<text text-anchor="middle" x="1017" y="-142.4" font-family="Times New Roman,serif" font-size="12.00">1s</text>
</g>
<!-- &#45;8551108795534898076&#45;&gt;4572600278003539478 -->
<g id="edge25" class="edge">
<title>&#45;8551108795534898076&#45;&gt;4572600278003539478</title>
<path fill="none" stroke="black" d="M1291.28,-382.52C1189.28,-366.42 946.39,-328.1 850.96,-313.04"/>
<polygon fill="black" stroke="black" points="851.76,-309.46 841.34,-311.36 850.67,-316.38 851.76,-309.46"/>
<text text-anchor="middle" x="1111" y="-345.21" font-family="Times New Roman,serif" font-size="12.00">1s</text>
</g>
</g>
</svg>
