<?xml version="1.0" encoding="UTF-8" standalone="no"?>
<!DOCTYPE svg PUBLIC "-//W3C//DTD SVG 1.1//EN"
 "http://www.w3.org/Graphics/SVG/1.1/DTD/svg11.dtd">
<!-- Generated by graphviz version 7.1.0 (20230121.1956)
 -->
<!-- Pages: 1 -->
<svg width="1703pt" height="842pt"
 viewBox="0.00 0.00 1703.00 841.81" xmlns="http://www.w3.org/2000/svg" xmlns:xlink="http://www.w3.org/1999/xlink">
<g id="graph0" class="graph" transform="scale(1 1) rotate(0) translate(4 837.81)">
<polygon fill="white" stroke="none" points="-4,4 -4,-837.81 1699,-837.81 1699,4 -4,4"/>
<!-- &#45;8421013627638508074 -->
<g id="node1" class="node">
<title>&#45;8421013627638508074</title>
<polygon fill="none" stroke="black" points="138,-833.81 34,-833.81 34,-797.81 138,-797.81 138,-833.81"/>
<text text-anchor="middle" x="86" y="-812.71" font-family="Times New Roman,serif" font-size="12.00">clickButton[button]</text>
</g>
<!-- &#45;2342417462293921512 -->
<g id="node30" class="node">
<title>&#45;2342417462293921512</title>
<polygon fill="none" stroke="black" points="190,-748.81 98,-748.81 98,-712.81 190,-712.81 190,-748.81"/>
<text text-anchor="middle" x="144" y="-727.71" font-family="Times New Roman,serif" font-size="12.00">selectWorksheet</text>
</g>
<!-- &#45;8421013627638508074&#45;&gt;&#45;2342417462293921512 -->
<g id="edge1" class="edge">
<title>&#45;8421013627638508074&#45;&gt;&#45;2342417462293921512</title>
<path fill="none" stroke="black" d="M98.02,-797.61C105.9,-786.34 116.36,-771.37 125.31,-758.55"/>
<polygon fill="black" stroke="black" points="128.07,-760.71 130.93,-750.51 122.33,-756.71 128.07,-760.71"/>
<text text-anchor="middle" x="124.5" y="-770.21" font-family="Times New Roman,serif" font-size="12.00">1s</text>
</g>
<!-- 8659733819878033834 -->
<g id="node2" class="node">
<title>8659733819878033834</title>
<polygon fill="none" stroke="black" points="285,-376 181,-376 181,-340 285,-340 285,-376"/>
<text text-anchor="middle" x="233" y="-354.9" font-family="Times New Roman,serif" font-size="12.00">clickButton[submit]</text>
</g>
<!-- 1054217341451333691 -->
<g id="node3" class="node">
<title>1054217341451333691</title>
<polygon fill="none" stroke="black" points="232,-291 174,-291 174,-255 232,-255 232,-291"/>
<text text-anchor="middle" x="203" y="-269.9" font-family="Times New Roman,serif" font-size="12.00">clickLink</text>
</g>
<!-- 8659733819878033834&#45;&gt;1054217341451333691 -->
<g id="edge2" class="edge">
<title>8659733819878033834&#45;&gt;1054217341451333691</title>
<path fill="none" stroke="black" d="M226.78,-339.8C222.87,-328.97 217.72,-314.72 213.21,-302.26"/>
<polygon fill="black" stroke="black" points="216.52,-301.1 209.83,-292.88 209.93,-303.48 216.52,-301.1"/>
<text text-anchor="middle" x="225.5" y="-312.4" font-family="Times New Roman,serif" font-size="12.00">1s</text>
</g>
<!-- &#45;6686815318746011082 -->
<g id="node6" class="node">
<title>&#45;6686815318746011082</title>
<polygon fill="none" stroke="black" points="206.5,-206 121.5,-206 121.5,-170 206.5,-170 206.5,-206"/>
<text text-anchor="middle" x="164" y="-184.9" font-family="Times New Roman,serif" font-size="12.00">createNewTab</text>
</g>
<!-- 1054217341451333691&#45;&gt;&#45;6686815318746011082 -->
<g id="edge3" class="edge">
<title>1054217341451333691&#45;&gt;&#45;6686815318746011082</title>
<path fill="none" stroke="black" d="M194.92,-254.8C189.78,-243.86 183,-229.43 177.1,-216.88"/>
<polygon fill="black" stroke="black" points="180.27,-215.39 172.85,-207.83 173.93,-218.37 180.27,-215.39"/>
<text text-anchor="middle" x="191.5" y="-227.4" font-family="Times New Roman,serif" font-size="12.00">1s</text>
</g>
<!-- &#45;349242997702854405 -->
<g id="node4" class="node">
<title>&#45;349242997702854405</title>
<polygon fill="none" stroke="black" points="941.5,-663.81 884.5,-663.81 884.5,-627.81 941.5,-627.81 941.5,-663.81"/>
<text text-anchor="middle" x="913" y="-642.71" font-family="Times New Roman,serif" font-size="12.00">copyCell</text>
</g>
<!-- 4744432682323570212 -->
<g id="node19" class="node">
<title>4744432682323570212</title>
<polygon fill="none" stroke="black" points="1445,-578.81 1323,-578.81 1323,-542.81 1445,-542.81 1445,-578.81"/>
<text text-anchor="middle" x="1384" y="-557.71" font-family="Times New Roman,serif" font-size="12.00">paste[q10_bankName]</text>
</g>
<!-- &#45;349242997702854405&#45;&gt;4744432682323570212 -->
<g id="edge4" class="edge">
<title>&#45;349242997702854405&#45;&gt;4744432682323570212</title>
<path fill="none" stroke="black" d="M941.73,-644.02C1020.75,-641.55 1240.01,-632.79 1308,-609.81 1324.18,-604.34 1340.42,-594.78 1353.7,-585.62"/>
<polygon fill="black" stroke="black" points="1355.5,-588.64 1361.58,-579.97 1351.42,-582.95 1355.5,-588.64"/>
<text text-anchor="middle" x="1339.5" y="-600.21" font-family="Times New Roman,serif" font-size="12.00">1s</text>
</g>
<!-- 4604581665166516345 -->
<g id="node20" class="node">
<title>4604581665166516345</title>
<polygon fill="none" stroke="black" points="1608.5,-578.81 1463.5,-578.81 1463.5,-542.81 1608.5,-542.81 1608.5,-578.81"/>
<text text-anchor="middle" x="1536" y="-557.71" font-family="Times New Roman,serif" font-size="12.00">paste[q11_accountNumber]</text>
</g>
<!-- &#45;349242997702854405&#45;&gt;4604581665166516345 -->
<g id="edge5" class="edge">
<title>&#45;349242997702854405&#45;&gt;4604581665166516345</title>
<path fill="none" stroke="black" d="M941.77,-644.2C1011.89,-642.35 1196.96,-635.23 1349,-609.81 1389,-603.12 1432.95,-592.04 1468.2,-582.2"/>
<polygon fill="black" stroke="black" points="1468.71,-585.69 1477.38,-579.61 1466.81,-578.96 1468.71,-585.69"/>
<text text-anchor="middle" x="1416.5" y="-600.21" font-family="Times New Roman,serif" font-size="12.00">1s</text>
</g>
<!-- 1955449513403805491 -->
<g id="node21" class="node">
<title>1955449513403805491</title>
<polygon fill="none" stroke="black" points="338,-578.81 148,-578.81 148,-542.81 338,-542.81 338,-578.81"/>
<text text-anchor="middle" x="243" y="-557.71" font-family="Times New Roman,serif" font-size="12.00">paste[q12_reimbursementDetails[0][]]</text>
</g>
<!-- &#45;349242997702854405&#45;&gt;1955449513403805491 -->
<g id="edge6" class="edge">
<title>&#45;349242997702854405&#45;&gt;1955449513403805491</title>
<path fill="none" stroke="black" stroke-width="1.16" d="M884.22,-644.4C784.19,-642.75 452.06,-635.43 349,-609.81 326.61,-604.25 303.1,-594.09 283.92,-584.55"/>
<polygon fill="black" stroke="black" stroke-width="1.16" points="285.52,-581.44 275.02,-580 282.33,-587.67 285.52,-581.44"/>
<text text-anchor="middle" x="354.5" y="-600.21" font-family="Times New Roman,serif" font-size="12.00">2s</text>
</g>
<!-- &#45;802786066028636207 -->
<g id="node22" class="node">
<title>&#45;802786066028636207</title>
<polygon fill="none" stroke="black" points="693,-578.81 579,-578.81 579,-542.81 693,-542.81 693,-578.81"/>
<text text-anchor="middle" x="636" y="-557.71" font-family="Times New Roman,serif" font-size="12.00">paste[q3_name[first]]</text>
</g>
<!-- &#45;349242997702854405&#45;&gt;&#45;802786066028636207 -->
<g id="edge7" class="edge">
<title>&#45;349242997702854405&#45;&gt;&#45;802786066028636207</title>
<path fill="none" stroke="black" stroke-width="1.16" d="M884.13,-637.97C856.68,-631.31 814.31,-620.64 778,-609.81 750.74,-601.68 720.86,-591.74 695.58,-583.02"/>
<polygon fill="black" stroke="black" stroke-width="1.16" points="696.93,-579.79 686.34,-579.81 694.64,-586.4 696.93,-579.79"/>
<text text-anchor="middle" x="783.5" y="-600.21" font-family="Times New Roman,serif" font-size="12.00">2s</text>
</g>
<!-- 5504490665134479466 -->
<g id="node24" class="node">
<title>5504490665134479466</title>
<polygon fill="none" stroke="black" points="800.5,-578.81 711.5,-578.81 711.5,-542.81 800.5,-542.81 800.5,-578.81"/>
<text text-anchor="middle" x="756" y="-557.71" font-family="Times New Roman,serif" font-size="12.00">paste[q4_email]</text>
</g>
<!-- &#45;349242997702854405&#45;&gt;5504490665134479466 -->
<g id="edge8" class="edge">
<title>&#45;349242997702854405&#45;&gt;5504490665134479466</title>
<path fill="none" stroke="black" d="M884.35,-637.98C863.43,-632.26 834.85,-622.93 812,-609.81 801.06,-603.53 790.25,-594.98 781.08,-586.83"/>
<polygon fill="black" stroke="black" points="783.68,-584.47 773.96,-580.25 778.94,-589.61 783.68,-584.47"/>
<text text-anchor="middle" x="817.5" y="-600.21" font-family="Times New Roman,serif" font-size="12.00">1s</text>
</g>
<!-- 4004908014844761737 -->
<g id="node26" class="node">
<title>4004908014844761737</title>
<polygon fill="none" stroke="black" points="1021,-578.81 913,-578.81 913,-542.81 1021,-542.81 1021,-578.81"/>
<text text-anchor="middle" x="967" y="-557.71" font-family="Times New Roman,serif" font-size="12.00">paste[q6_studentId]</text>
</g>
<!-- &#45;349242997702854405&#45;&gt;4004908014844761737 -->
<g id="edge9" class="edge">
<title>&#45;349242997702854405&#45;&gt;4004908014844761737</title>
<path fill="none" stroke="black" d="M924.19,-627.61C931.52,-616.34 941.27,-601.37 949.6,-588.55"/>
<polygon fill="black" stroke="black" points="952.29,-590.83 954.81,-580.54 946.43,-587.01 952.29,-590.83"/>
<text text-anchor="middle" x="948.5" y="-600.21" font-family="Times New Roman,serif" font-size="12.00">1s</text>
</g>
<!-- 2070911815398967774 -->
<g id="node27" class="node">
<title>2070911815398967774</title>
<polygon fill="none" stroke="black" points="561,-578.81 403,-578.81 403,-542.81 561,-542.81 561,-578.81"/>
<text text-anchor="middle" x="482" y="-557.71" font-family="Times New Roman,serif" font-size="12.00">paste[q7_phoneNumber[area]]</text>
</g>
<!-- &#45;349242997702854405&#45;&gt;2070911815398967774 -->
<g id="edge10" class="edge">
<title>&#45;349242997702854405&#45;&gt;2070911815398967774</title>
<path fill="none" stroke="black" d="M884.01,-639.6C846.72,-632.88 779.99,-620.73 723,-609.81 673.27,-600.28 617.85,-589.27 572.7,-580.2"/>
<polygon fill="black" stroke="black" points="573.43,-576.77 562.94,-578.23 572.05,-583.64 573.43,-576.77"/>
<text text-anchor="middle" x="728.5" y="-600.21" font-family="Times New Roman,serif" font-size="12.00">1s</text>
</g>
<!-- 5144228901829614650 -->
<g id="node29" class="node">
<title>5144228901829614650</title>
<polygon fill="none" stroke="black" points="1172.5,-578.81 1039.5,-578.81 1039.5,-542.81 1172.5,-542.81 1172.5,-578.81"/>
<text text-anchor="middle" x="1106" y="-557.71" font-family="Times New Roman,serif" font-size="12.00">paste[q9_accountHolder]</text>
</g>
<!-- &#45;349242997702854405&#45;&gt;5144228901829614650 -->
<g id="edge11" class="edge">
<title>&#45;349242997702854405&#45;&gt;5144228901829614650</title>
<path fill="none" stroke="black" d="M941.89,-632.39C971.76,-619.54 1018.97,-599.24 1055.11,-583.7"/>
<polygon fill="black" stroke="black" points="1056.27,-587.01 1064.07,-579.84 1053.5,-580.58 1056.27,-587.01"/>
<text text-anchor="middle" x="1026.5" y="-600.21" font-family="Times New Roman,serif" font-size="12.00">1s</text>
</g>
<!-- &#45;2337737116181962960 -->
<g id="node5" class="node">
<title>&#45;2337737116181962960</title>
<polygon fill="none" stroke="black" points="304,-206 236,-206 236,-170 304,-170 304,-206"/>
<text text-anchor="middle" x="270" y="-184.9" font-family="Times New Roman,serif" font-size="12.00">copyRange</text>
</g>
<!-- &#45;7686844205181626037 -->
<g id="node25" class="node">
<title>&#45;7686844205181626037</title>
<polygon fill="none" stroke="black" points="284.5,-121 127.5,-121 127.5,-85 284.5,-85 284.5,-121"/>
<text text-anchor="middle" x="206" y="-99.9" font-family="Times New Roman,serif" font-size="12.00">paste[q5_address[addr_line1]]</text>
</g>
<!-- &#45;2337737116181962960&#45;&gt;&#45;7686844205181626037 -->
<g id="edge12" class="edge">
<title>&#45;2337737116181962960&#45;&gt;&#45;7686844205181626037</title>
<path fill="none" stroke="black" d="M256.74,-169.8C247.96,-158.42 236.27,-143.26 226.33,-130.37"/>
<polygon fill="black" stroke="black" points="229.27,-128.44 220.39,-122.66 223.72,-132.72 229.27,-128.44"/>
<text text-anchor="middle" x="247.5" y="-142.4" font-family="Times New Roman,serif" font-size="12.00">1s</text>
</g>
<!-- &#45;6686815318746011082&#45;&gt;&#45;2342417462293921512 -->
<g id="edge13" class="edge">
<title>&#45;6686815318746011082&#45;&gt;&#45;2342417462293921512</title>
<path fill="none" stroke="black" d="M146.67,-206.44C132.92,-222.18 116,-246.7 116,-272 116,-646.81 116,-646.81 116,-646.81 116,-666.09 122.86,-686.62 129.79,-702.44"/>
<polygon fill="black" stroke="black" points="126.48,-703.62 133.88,-711.2 132.82,-700.66 126.48,-703.62"/>
<text text-anchor="middle" x="121.5" y="-456.31" font-family="Times New Roman,serif" font-size="12.00">1s</text>
</g>
<!-- &#45;3417061393049347223 -->
<g id="node7" class="node">
<title>&#45;3417061393049347223</title>
<polygon fill="none" stroke="black" points="1424.5,-477.41 1287.5,-477.41 1287.5,-441.41 1424.5,-441.41 1424.5,-477.41"/>
<text text-anchor="middle" x="1356" y="-456.31" font-family="Times New Roman,serif" font-size="12.00">editField[q10_bankName]</text>
</g>
<!-- &#45;3417061393049347223&#45;&gt;&#45;349242997702854405 -->
<g id="edge14" class="edge">
<title>&#45;3417061393049347223&#45;&gt;&#45;349242997702854405</title>
<path fill="none" stroke="black" d="M1344.72,-477.7C1333.91,-494.32 1317.19,-520.19 1303,-542.81 1284.45,-572.38 1291.56,-591.24 1262,-609.81 1211.44,-641.57 1033.54,-645.21 953.07,-645.18"/>
<polygon fill="black" stroke="black" points="953.45,-641.68 943.44,-645.15 953.43,-648.68 953.45,-641.68"/>
<text text-anchor="middle" x="1308.5" y="-557.71" font-family="Times New Roman,serif" font-size="12.00">1s</text>
</g>
<!-- &#45;4003299731570885441 -->
<g id="node8" class="node">
<title>&#45;4003299731570885441</title>
<polygon fill="none" stroke="black" points="1695,-477.41 1535,-477.41 1535,-441.41 1695,-441.41 1695,-477.41"/>
<text text-anchor="middle" x="1615" y="-456.31" font-family="Times New Roman,serif" font-size="12.00">editField[q11_accountNumber]</text>
</g>
<!-- &#45;4003299731570885441&#45;&gt;&#45;349242997702854405 -->
<g id="edge15" class="edge">
<title>&#45;4003299731570885441&#45;&gt;&#45;349242997702854405</title>
<path fill="none" stroke="black" d="M1621.83,-477.64C1630.64,-503.02 1642.13,-550.47 1618,-578.81 1574.64,-629.74 1095.49,-641.77 952.84,-644.24"/>
<polygon fill="black" stroke="black" points="953.08,-640.74 943.14,-644.4 953.19,-647.73 953.08,-640.74"/>
<text text-anchor="middle" x="1636.5" y="-557.71" font-family="Times New Roman,serif" font-size="12.00">1s</text>
</g>
<!-- &#45;3774925265531423684 -->
<g id="node9" class="node">
<title>&#45;3774925265531423684</title>
<polygon fill="none" stroke="black" points="350.5,-477.41 145.5,-477.41 145.5,-441.41 350.5,-441.41 350.5,-477.41"/>
<text text-anchor="middle" x="248" y="-456.31" font-family="Times New Roman,serif" font-size="12.00">editField[q12_reimbursementDetails[0][]]</text>
</g>
<!-- &#45;3774925265531423684&#45;&gt;8659733819878033834 -->
<g id="edge16" class="edge">
<title>&#45;3774925265531423684&#45;&gt;8659733819878033834</title>
<path fill="none" stroke="black" d="M245.39,-441.09C243.16,-426.36 239.93,-404.9 237.32,-387.61"/>
<polygon fill="black" stroke="black" points="240.81,-387.31 235.86,-377.95 233.89,-388.36 240.81,-387.31"/>
<text text-anchor="middle" x="246.5" y="-397.4" font-family="Times New Roman,serif" font-size="12.00">1s</text>
</g>
<!-- &#45;3774925265531423684&#45;&gt;&#45;349242997702854405 -->
<g id="edge17" class="edge">
<title>&#45;3774925265531423684&#45;&gt;&#45;349242997702854405</title>
<path fill="none" stroke="black" d="M270.12,-477.85C290.51,-494.16 321.4,-519.44 347,-542.81 363.71,-558.07 362.67,-568.87 383,-578.81 469.52,-621.1 764.56,-638.21 872.78,-643.17"/>
<polygon fill="black" stroke="black" points="872.48,-646.66 882.63,-643.61 872.8,-639.66 872.48,-646.66"/>
<text text-anchor="middle" x="388.5" y="-557.71" font-family="Times New Roman,serif" font-size="12.00">1s</text>
</g>
<!-- &#45;3774925265531423684&#45;&gt;1955449513403805491 -->
<g id="edge18" class="edge">
<title>&#45;3774925265531423684&#45;&gt;1955449513403805491</title>
<path fill="none" stroke="black" stroke-width="2.28" d="M238.74,-477.69C232.94,-490.54 227.08,-508.58 230,-524.81 230.3,-526.46 230.67,-528.14 231.09,-529.81"/>
<polygon fill="black" stroke="black" stroke-width="2.28" points="227.67,-530.62 234.07,-539.06 234.34,-528.47 227.67,-530.62"/>
<text text-anchor="middle" x="235.5" y="-515.21" font-family="Times New Roman,serif" font-size="12.00">9s</text>
</g>
<!-- 5148547196844223595 -->
<g id="node10" class="node">
<title>5148547196844223595</title>
<polygon fill="none" stroke="black" points="775.5,-477.41 646.5,-477.41 646.5,-441.41 775.5,-441.41 775.5,-477.41"/>
<text text-anchor="middle" x="711" y="-456.31" font-family="Times New Roman,serif" font-size="12.00">editField[q3_name[first]]</text>
</g>
<!-- &#45;4040636298552314058 -->
<g id="node23" class="node">
<title>&#45;4040636298552314058</title>
<polygon fill="none" stroke="black" points="995.5,-376 882.5,-376 882.5,-340 995.5,-340 995.5,-376"/>
<text text-anchor="middle" x="939" y="-354.9" font-family="Times New Roman,serif" font-size="12.00">paste[q3_name[last]]</text>
</g>
<!-- 5148547196844223595&#45;&gt;&#45;4040636298552314058 -->
<g id="edge19" class="edge">
<title>5148547196844223595&#45;&gt;&#45;4040636298552314058</title>
<path fill="none" stroke="black" d="M749.35,-440.93C760.79,-435.75 773.39,-430.11 785,-425 819.06,-410.02 857.53,-393.53 887.5,-380.78"/>
<polygon fill="black" stroke="black" points="888.5,-384.16 896.34,-377.03 885.76,-377.72 888.5,-384.16"/>
<text text-anchor="middle" x="857.5" y="-397.4" font-family="Times New Roman,serif" font-size="12.00">1s</text>
</g>
<!-- 3768362607462934485 -->
<g id="node11" class="node">
<title>3768362607462934485</title>
<polygon fill="none" stroke="black" points="1284,-291 1156,-291 1156,-255 1284,-255 1284,-291"/>
<text text-anchor="middle" x="1220" y="-269.9" font-family="Times New Roman,serif" font-size="12.00">editField[q3_name[last]]</text>
</g>
<!-- 3768362607462934485&#45;&gt;&#45;349242997702854405 -->
<g id="edge20" class="edge">
<title>3768362607462934485&#45;&gt;&#45;349242997702854405</title>
<path fill="none" stroke="black" d="M1229.48,-291.24C1237.6,-307.64 1248,-333.28 1248,-357 1248,-561.81 1248,-561.81 1248,-561.81 1248,-621.95 1042.02,-638.81 953.09,-643.29"/>
<polygon fill="black" stroke="black" points="953.19,-639.78 943.36,-643.74 953.52,-646.77 953.19,-639.78"/>
<text text-anchor="middle" x="1253.5" y="-456.31" font-family="Times New Roman,serif" font-size="12.00">1s</text>
</g>
<!-- &#45;6653035453324865092 -->
<g id="node12" class="node">
<title>&#45;6653035453324865092</title>
<polygon fill="none" stroke="black" points="898,-477.41 794,-477.41 794,-441.41 898,-441.41 898,-477.41"/>
<text text-anchor="middle" x="846" y="-456.31" font-family="Times New Roman,serif" font-size="12.00">editField[q4_email]</text>
</g>
<!-- &#45;6653035453324865092&#45;&gt;&#45;349242997702854405 -->
<g id="edge21" class="edge">
<title>&#45;6653035453324865092&#45;&gt;&#45;349242997702854405</title>
<path fill="none" stroke="black" d="M847.91,-477.67C851.73,-506.73 862.29,-566.48 888,-609.81 889.64,-612.58 891.44,-615.41 893.3,-618.2"/>
<polygon fill="black" stroke="black" points="890.24,-619.94 898.82,-626.15 895.99,-615.94 890.24,-619.94"/>
<text text-anchor="middle" x="877.5" y="-557.71" font-family="Times New Roman,serif" font-size="12.00">1s</text>
</g>
<!-- 6507740163502519239 -->
<g id="node13" class="node">
<title>6507740163502519239</title>
<polygon fill="none" stroke="black" points="172,-36 0,-36 0,0 172,0 172,-36"/>
<text text-anchor="middle" x="86" y="-14.9" font-family="Times New Roman,serif" font-size="12.00">editField[q5_address[addr_line1]]</text>
</g>
<!-- 6507740163502519239&#45;&gt;&#45;8421013627638508074 -->
<g id="edge22" class="edge">
<title>6507740163502519239&#45;&gt;&#45;8421013627638508074</title>
<path fill="none" stroke="black" d="M80.67,-36.3C76.02,-52.96 70,-78.96 70,-102 70,-731.81 70,-731.81 70,-731.81 70,-750.35 73.9,-770.81 77.84,-786.77"/>
<polygon fill="black" stroke="black" points="74.36,-787.27 80.29,-796.05 81.12,-785.48 74.36,-787.27"/>
<text text-anchor="middle" x="75.5" y="-397.4" font-family="Times New Roman,serif" font-size="12.00">1s</text>
</g>
<!-- &#45;5763552913299528894 -->
<g id="node14" class="node">
<title>&#45;5763552913299528894</title>
<polygon fill="none" stroke="black" points="1039.5,-477.41 916.5,-477.41 916.5,-441.41 1039.5,-441.41 1039.5,-477.41"/>
<text text-anchor="middle" x="978" y="-456.31" font-family="Times New Roman,serif" font-size="12.00">editField[q6_studentId]</text>
</g>
<!-- &#45;5763552913299528894&#45;&gt;&#45;349242997702854405 -->
<g id="edge23" class="edge">
<title>&#45;5763552913299528894&#45;&gt;&#45;349242997702854405</title>
<path fill="none" stroke="black" d="M950.89,-477.67C930.7,-492.26 904.7,-515.18 893,-542.81 882.86,-566.76 890.48,-596.06 899.07,-617.11"/>
<polygon fill="black" stroke="black" points="895.84,-618.46 903.08,-626.19 902.24,-615.63 895.84,-618.46"/>
<text text-anchor="middle" x="898.5" y="-557.71" font-family="Times New Roman,serif" font-size="12.00">1s</text>
</g>
<!-- 3651796461026563911 -->
<g id="node15" class="node">
<title>3651796461026563911</title>
<polygon fill="none" stroke="black" points="541.5,-477.41 368.5,-477.41 368.5,-441.41 541.5,-441.41 541.5,-477.41"/>
<text text-anchor="middle" x="455" y="-456.31" font-family="Times New Roman,serif" font-size="12.00">editField[q7_phoneNumber[area]]</text>
</g>
<!-- &#45;5108575767407452370 -->
<g id="node28" class="node">
<title>&#45;5108575767407452370</title>
<polygon fill="none" stroke="black" points="488.5,-376 321.5,-376 321.5,-340 488.5,-340 488.5,-376"/>
<text text-anchor="middle" x="405" y="-354.9" font-family="Times New Roman,serif" font-size="12.00">paste[q7_phoneNumber[phone]]</text>
</g>
<!-- 3651796461026563911&#45;&gt;&#45;5108575767407452370 -->
<g id="edge24" class="edge">
<title>3651796461026563911&#45;&gt;&#45;5108575767407452370</title>
<path fill="none" stroke="black" d="M446.29,-441.09C438.74,-426.07 427.67,-404.07 418.89,-386.62"/>
<polygon fill="black" stroke="black" points="422.08,-385.16 414.46,-377.8 415.82,-388.31 422.08,-385.16"/>
<text text-anchor="middle" x="434.5" y="-397.4" font-family="Times New Roman,serif" font-size="12.00">1s</text>
</g>
<!-- 357182630398299043 -->
<g id="node16" class="node">
<title>357182630398299043</title>
<polygon fill="none" stroke="black" points="446,-291 264,-291 264,-255 446,-255 446,-291"/>
<text text-anchor="middle" x="355" y="-269.9" font-family="Times New Roman,serif" font-size="12.00">editField[q7_phoneNumber[phone]]</text>
</g>
<!-- 357182630398299043&#45;&gt;&#45;2337737116181962960 -->
<g id="edge25" class="edge">
<title>357182630398299043&#45;&gt;&#45;2337737116181962960</title>
<path fill="none" stroke="black" d="M337.39,-254.8C325.39,-243.08 309.3,-227.38 295.85,-214.24"/>
<polygon fill="black" stroke="black" points="298.56,-212 288.96,-207.52 293.67,-217.01 298.56,-212"/>
<text text-anchor="middle" x="323.5" y="-227.4" font-family="Times New Roman,serif" font-size="12.00">1s</text>
</g>
<!-- 6997094482055801526 -->
<g id="node17" class="node">
<title>6997094482055801526</title>
<polygon fill="none" stroke="black" points="1211,-477.41 1063,-477.41 1063,-441.41 1211,-441.41 1211,-477.41"/>
<text text-anchor="middle" x="1137" y="-456.31" font-family="Times New Roman,serif" font-size="12.00">editField[q9_accountHolder]</text>
</g>
<!-- 6997094482055801526&#45;&gt;&#45;349242997702854405 -->
<g id="edge26" class="edge">
<title>6997094482055801526&#45;&gt;&#45;349242997702854405</title>
<path fill="none" stroke="black" d="M1153.36,-477.69C1174.61,-502.29 1206.29,-547.84 1182,-578.81 1153.95,-614.58 1020.61,-633.51 952.8,-640.97"/>
<polygon fill="black" stroke="black" points="952.8,-637.45 943.23,-641.99 953.54,-644.41 952.8,-637.45"/>
<text text-anchor="middle" x="1195.5" y="-557.71" font-family="Times New Roman,serif" font-size="12.00">1s</text>
</g>
<!-- 6102417127305744981 -->
<g id="node18" class="node">
<title>6102417127305744981</title>
<polygon fill="none" stroke="black" points="947,-748.81 879,-748.81 879,-712.81 947,-712.81 947,-748.81"/>
<text text-anchor="middle" x="913" y="-727.71" font-family="Times New Roman,serif" font-size="12.00">navigate_to</text>
</g>
<!-- 6102417127305744981&#45;&gt;&#45;349242997702854405 -->
<g id="edge27" class="edge">
<title>6102417127305744981&#45;&gt;&#45;349242997702854405</title>
<path fill="none" stroke="black" d="M913,-712.61C913,-701.89 913,-687.83 913,-675.45"/>
<polygon fill="black" stroke="black" points="916.5,-675.79 913,-665.79 909.5,-675.79 916.5,-675.79"/>
<text text-anchor="middle" x="918.5" y="-685.21" font-family="Times New Roman,serif" font-size="12.00">1s</text>
</g>
<!-- 4744432682323570212&#45;&gt;&#45;3417061393049347223 -->
<g id="edge28" class="edge">
<title>4744432682323570212&#45;&gt;&#45;3417061393049347223</title>
<path fill="none" stroke="black" d="M1379.12,-542.5C1374.93,-527.62 1368.81,-505.89 1363.92,-488.52"/>
<polygon fill="black" stroke="black" points="1367.41,-487.99 1361.33,-479.31 1360.67,-489.89 1367.41,-487.99"/>
<text text-anchor="middle" x="1378.5" y="-515.21" font-family="Times New Roman,serif" font-size="12.00">1s</text>
</g>
<!-- 4604581665166516345&#45;&gt;&#45;4003299731570885441 -->
<g id="edge29" class="edge">
<title>4604581665166516345&#45;&gt;&#45;4003299731570885441</title>
<path fill="none" stroke="black" d="M1549.76,-542.5C1562.03,-527.05 1580.18,-504.22 1594.22,-486.56"/>
<polygon fill="black" stroke="black" points="1596.71,-489.05 1600.19,-479.04 1591.23,-484.69 1596.71,-489.05"/>
<text text-anchor="middle" x="1578.5" y="-515.21" font-family="Times New Roman,serif" font-size="12.00">1s</text>
</g>
<!-- 1955449513403805491&#45;&gt;&#45;3774925265531423684 -->
<g id="edge30" class="edge">
<title>1955449513403805491&#45;&gt;&#45;3774925265531423684</title>
<path fill="none" stroke="black" stroke-width="2.6" d="M243.87,-542.5C244.58,-528.47 245.59,-508.35 246.43,-491.54"/>
<polygon fill="black" stroke="black" stroke-width="2.6" points="249.92,-491.95 246.92,-481.79 242.93,-491.6 249.92,-491.95"/>
<text text-anchor="middle" x="254.5" y="-515.21" font-family="Times New Roman,serif" font-size="12.00">11s</text>
</g>
<!-- &#45;802786066028636207&#45;&gt;5148547196844223595 -->
<g id="edge31" class="edge">
<title>&#45;802786066028636207&#45;&gt;5148547196844223595</title>
<path fill="none" stroke="black" d="M649.06,-542.5C660.61,-527.2 677.62,-504.64 690.9,-487.04"/>
<polygon fill="black" stroke="black" points="693.69,-489.15 696.92,-479.06 688.11,-484.94 693.69,-489.15"/>
<text text-anchor="middle" x="676.5" y="-515.21" font-family="Times New Roman,serif" font-size="12.00">1s</text>
</g>
<!-- @@endnode -->
<g id="node31" class="node">
<title>@@endnode</title>
<ellipse fill="none" stroke="black" cx="594" cy="-459.41" rx="30.32" ry="30.32"/>
<ellipse fill="none" stroke="black" cx="594" cy="-459.41" rx="34.31" ry="34.31"/>
<text text-anchor="start" x="584" y="-451.31" font-family="Times New Roman,serif" font-size="32.00">■</text>
</g>
<!-- &#45;802786066028636207&#45;&gt;@@endnode -->
<g id="edge40" class="edge">
<title>&#45;802786066028636207&#45;&gt;@@endnode</title>
<path fill="none" stroke="black" d="M628.68,-542.5C623.96,-531.33 617.61,-516.29 611.63,-502.14"/>
<polygon fill="black" stroke="black" points="614.87,-500.81 607.76,-492.96 608.42,-503.54 614.87,-500.81"/>
<text text-anchor="middle" x="622.5" y="-515.21" font-family="Times New Roman,serif" font-size="12.00">1</text>
</g>
<!-- &#45;4040636298552314058&#45;&gt;3768362607462934485 -->
<g id="edge32" class="edge">
<title>&#45;4040636298552314058&#45;&gt;3768362607462934485</title>
<path fill="none" stroke="black" d="M995.86,-340.2C1040.35,-327.06 1102.42,-308.73 1149.97,-294.69"/>
<polygon fill="black" stroke="black" points="1150.75,-298.1 1159.35,-291.92 1148.77,-291.39 1150.75,-298.1"/>
<text text-anchor="middle" x="1101.5" y="-312.4" font-family="Times New Roman,serif" font-size="12.00">1s</text>
</g>
<!-- 5504490665134479466&#45;&gt;&#45;6653035453324865092 -->
<g id="edge33" class="edge">
<title>5504490665134479466&#45;&gt;&#45;6653035453324865092</title>
<path fill="none" stroke="black" d="M771.68,-542.5C785.79,-526.91 806.71,-503.8 822.76,-486.07"/>
<polygon fill="black" stroke="black" points="825.07,-488.74 829.19,-478.98 819.88,-484.04 825.07,-488.74"/>
<text text-anchor="middle" x="803.5" y="-515.21" font-family="Times New Roman,serif" font-size="12.00">1s</text>
</g>
<!-- &#45;7686844205181626037&#45;&gt;6507740163502519239 -->
<g id="edge34" class="edge">
<title>&#45;7686844205181626037&#45;&gt;6507740163502519239</title>
<path fill="none" stroke="black" d="M180.84,-84.6C163.32,-72.48 139.74,-56.17 120.47,-42.84"/>
<polygon fill="black" stroke="black" points="122.58,-40.05 112.37,-37.24 118.6,-45.8 122.58,-40.05"/>
<text text-anchor="middle" x="159.5" y="-57.4" font-family="Times New Roman,serif" font-size="12.00">1s</text>
</g>
<!-- 4004908014844761737&#45;&gt;&#45;5763552913299528894 -->
<g id="edge35" class="edge">
<title>4004908014844761737&#45;&gt;&#45;5763552913299528894</title>
<path fill="none" stroke="black" d="M968.92,-542.5C970.54,-527.83 972.9,-506.51 974.81,-489.27"/>
<polygon fill="black" stroke="black" points="978.28,-489.68 975.9,-479.36 971.32,-488.91 978.28,-489.68"/>
<text text-anchor="middle" x="977.5" y="-515.21" font-family="Times New Roman,serif" font-size="12.00">1s</text>
</g>
<!-- 2070911815398967774&#45;&gt;3651796461026563911 -->
<g id="edge36" class="edge">
<title>2070911815398967774&#45;&gt;3651796461026563911</title>
<path fill="none" stroke="black" d="M477.3,-542.5C473.26,-527.62 467.35,-505.89 462.64,-488.52"/>
<polygon fill="black" stroke="black" points="466.14,-488.05 460.14,-479.32 459.38,-489.88 466.14,-488.05"/>
<text text-anchor="middle" x="477.5" y="-515.21" font-family="Times New Roman,serif" font-size="12.00">1s</text>
</g>
<!-- &#45;5108575767407452370&#45;&gt;357182630398299043 -->
<g id="edge37" class="edge">
<title>&#45;5108575767407452370&#45;&gt;357182630398299043</title>
<path fill="none" stroke="black" d="M394.64,-339.8C387.91,-328.64 379.01,-313.85 371.34,-301.12"/>
<polygon fill="black" stroke="black" points="374.46,-299.52 366.3,-292.76 368.46,-303.13 374.46,-299.52"/>
<text text-anchor="middle" x="388.5" y="-312.4" font-family="Times New Roman,serif" font-size="12.00">1s</text>
</g>
<!-- 5144228901829614650&#45;&gt;6997094482055801526 -->
<g id="edge38" class="edge">
<title>5144228901829614650&#45;&gt;6997094482055801526</title>
<path fill="none" stroke="black" d="M1111.4,-542.5C1116.04,-527.62 1122.82,-505.89 1128.23,-488.52"/>
<polygon fill="black" stroke="black" points="1131.47,-489.89 1131.11,-479.3 1124.79,-487.81 1131.47,-489.89"/>
<text text-anchor="middle" x="1125.5" y="-515.21" font-family="Times New Roman,serif" font-size="12.00">1s</text>
</g>
<!-- &#45;2342417462293921512&#45;&gt;&#45;349242997702854405 -->
<g id="edge39" class="edge">
<title>&#45;2342417462293921512&#45;&gt;&#45;349242997702854405</title>
<path fill="none" stroke="black" stroke-width="1.16" d="M190.37,-724.81C329.56,-709.78 742.13,-665.25 872.82,-651.15"/>
<polygon fill="black" stroke="black" stroke-width="1.16" points="872.91,-654.66 882.47,-650.11 872.16,-647.7 872.91,-654.66"/>
<text text-anchor="middle" x="579.5" y="-685.21" font-family="Times New Roman,serif" font-size="12.00">2s</text>
</g>
</g>
</svg>
