<?xml version="1.0" encoding="UTF-8" standalone="no"?>
<!DOCTYPE svg PUBLIC "-//W3C//DTD SVG 1.1//EN"
 "http://www.w3.org/Graphics/SVG/1.1/DTD/svg11.dtd">
<!-- Generated by graphviz version 8.0.3 (20230416.2022)
 -->
<!-- Pages: 1 -->
<svg width="2129pt" height="724pt"
 viewBox="0.00 0.00 2129.16 724.00" xmlns="http://www.w3.org/2000/svg" xmlns:xlink="http://www.w3.org/1999/xlink">
<g id="graph0" class="graph" transform="scale(1 1) rotate(0) translate(4 720)">
<polygon fill="white" stroke="none" points="-4,4 -4,-720 2125.16,-720 2125.16,4 -4,4"/>
<!-- &#45;7283433983056500281 -->
<g id="node1" class="node">
<title>&#45;7283433983056500281</title>
<polygon fill="none" stroke="black" points="533.16,-716 429.16,-716 429.16,-680 533.16,-680 533.16,-716"/>
<text text-anchor="middle" x="481.16" y="-694.9" font-family="Times New Roman,serif" font-size="12.00">clickButton[button]</text>
</g>
<!-- &#45;8551108795534898076 -->
<g id="node22" class="node">
<title>&#45;8551108795534898076</title>
<polygon fill="none" stroke="black" points="1289.16,-631 1197.16,-631 1197.16,-595 1289.16,-595 1289.16,-631"/>
<text text-anchor="middle" x="1243.16" y="-609.9" font-family="Times New Roman,serif" font-size="12.00">selectWorksheet</text>
</g>
<!-- &#45;7283433983056500281&#45;&gt;&#45;8551108795534898076 -->
<g id="edge1" class="edge">
<title>&#45;7283433983056500281&#45;&gt;&#45;8551108795534898076</title>
<path fill="none" stroke="black" stroke-width="1.17" d="M533.54,-691.3C671.34,-676.29 1043.19,-635.78 1186.12,-620.21"/>
<polygon fill="black" stroke="black" stroke-width="1.17" points="1186.25,-623.61 1195.82,-619.05 1185.5,-616.65 1186.25,-623.61"/>
<text text-anchor="middle" x="916.66" y="-652.4" font-family="Times New Roman,serif" font-size="12.00">50s</text>
</g>
<!-- &#45;1283998384867478094 -->
<g id="node2" class="node">
<title>&#45;1283998384867478094</title>
<polygon fill="none" stroke="black" points="842.16,-206 738.16,-206 738.16,-170 842.16,-170 842.16,-206"/>
<text text-anchor="middle" x="790.16" y="-184.9" font-family="Times New Roman,serif" font-size="12.00">clickButton[submit]</text>
</g>
<!-- &#45;2730689910902470226 -->
<g id="node3" class="node">
<title>&#45;2730689910902470226</title>
<polygon fill="none" stroke="black" points="1429.16,-121 1371.16,-121 1371.16,-85 1429.16,-85 1429.16,-121"/>
<text text-anchor="middle" x="1400.16" y="-99.9" font-family="Times New Roman,serif" font-size="12.00">clickLink</text>
</g>
<!-- &#45;1283998384867478094&#45;&gt;&#45;2730689910902470226 -->
<g id="edge2" class="edge">
<title>&#45;1283998384867478094&#45;&gt;&#45;2730689910902470226</title>
<path fill="none" stroke="black" stroke-width="1.17" d="M842.43,-179.89C961.99,-163.62 1253.29,-123.98 1360.07,-109.45"/>
<polygon fill="black" stroke="black" stroke-width="1.17" points="1360.26,-112.82 1369.7,-108.01 1359.32,-105.89 1360.26,-112.82"/>
<text text-anchor="middle" x="1140.66" y="-142.4" font-family="Times New Roman,serif" font-size="12.00">49s</text>
</g>
<!-- 1607548953699189687 -->
<g id="node6" class="node">
<title>1607548953699189687</title>
<polygon fill="none" stroke="black" points="1794.66,-36 1709.66,-36 1709.66,0 1794.66,0 1794.66,-36"/>
<text text-anchor="middle" x="1752.16" y="-14.9" font-family="Times New Roman,serif" font-size="12.00">createNewTab</text>
</g>
<!-- &#45;2730689910902470226&#45;&gt;1607548953699189687 -->
<g id="edge3" class="edge">
<title>&#45;2730689910902470226&#45;&gt;1607548953699189687</title>
<path fill="none" stroke="black" stroke-width="1.17" d="M1429.57,-95.07C1488.86,-81.08 1623.51,-49.34 1698.75,-31.59"/>
<polygon fill="black" stroke="black" stroke-width="1.17" points="1699.48,-34.78 1708.41,-29.08 1697.87,-27.97 1699.48,-34.78"/>
<text text-anchor="middle" x="1605.66" y="-57.4" font-family="Times New Roman,serif" font-size="12.00">49s</text>
</g>
<!-- 4572600278003539478 -->
<g id="node4" class="node">
<title>4572600278003539478</title>
<polygon fill="none" stroke="black" points="1271.66,-546 1214.66,-546 1214.66,-510 1271.66,-510 1271.66,-546"/>
<text text-anchor="middle" x="1243.16" y="-524.9" font-family="Times New Roman,serif" font-size="12.00">copyCell</text>
</g>
<!-- 4572600278003539478&#45;&gt;4572600278003539478 -->
<g id="edge4" class="edge">
<title>4572600278003539478&#45;&gt;4572600278003539478</title>
<path fill="none" stroke="black" d="M1271.77,-535.97C1281.67,-536.05 1289.66,-533.4 1289.66,-528 1289.66,-524.8 1286.84,-522.56 1282.48,-521.29"/>
<polygon fill="black" stroke="black" points="1283.11,-517.72 1272.77,-520.03 1282.29,-524.67 1283.11,-517.72"/>
<text text-anchor="middle" x="1295.16" y="-524.9" font-family="Times New Roman,serif" font-size="12.00">1s</text>
</g>
<!-- &#45;4162420903657016109 -->
<g id="node5" class="node">
<title>&#45;4162420903657016109</title>
<polygon fill="none" stroke="black" points="348.16,-461 280.16,-461 280.16,-425 348.16,-425 348.16,-461"/>
<text text-anchor="middle" x="314.16" y="-439.9" font-family="Times New Roman,serif" font-size="12.00">copyRange</text>
</g>
<!-- 4572600278003539478&#45;&gt;&#45;4162420903657016109 -->
<g id="edge5" class="edge">
<title>4572600278003539478&#45;&gt;&#45;4162420903657016109</title>
<path fill="none" stroke="black" d="M1214.4,-526.55C1065.81,-524.17 390.36,-512.24 351.16,-492 341.92,-487.23 334.3,-478.99 328.43,-470.67"/>
<polygon fill="black" stroke="black" points="330.87,-468.98 322.55,-462.43 324.96,-472.74 330.87,-468.98"/>
<text text-anchor="middle" x="356.66" y="-482.4" font-family="Times New Roman,serif" font-size="12.00">1s</text>
</g>
<!-- 8826139826624112448 -->
<g id="node18" class="node">
<title>8826139826624112448</title>
<polygon fill="none" stroke="black" points="443.16,-121 389.16,-121 389.16,-85 443.16,-85 443.16,-121"/>
<text text-anchor="middle" x="416.16" y="-99.9" font-family="Times New Roman,serif" font-size="12.00">getCell</text>
</g>
<!-- 4572600278003539478&#45;&gt;8826139826624112448 -->
<g id="edge6" class="edge">
<title>4572600278003539478&#45;&gt;8826139826624112448</title>
<path fill="none" stroke="black" d="M1271.98,-522.32C1423.38,-497.13 2115.89,-374.47 2008.16,-255 1900.58,-135.69 686.05,-108.69 454.25,-104.61"/>
<polygon fill="black" stroke="black" points="454.42,-101.09 444.37,-104.42 454.3,-108.09 454.42,-101.09"/>
<text text-anchor="middle" x="2010.66" y="-312.4" font-family="Times New Roman,serif" font-size="12.00">1s</text>
</g>
<!-- &#45;2828859432936935225 -->
<g id="node21" class="node">
<title>&#45;2828859432936935225</title>
<polygon fill="none" stroke="black" points="1061.16,-376 1007.16,-376 1007.16,-340 1061.16,-340 1061.16,-376"/>
<text text-anchor="middle" x="1034.16" y="-354.9" font-family="Times New Roman,serif" font-size="12.00">paste</text>
</g>
<!-- 4572600278003539478&#45;&gt;&#45;2828859432936935225 -->
<g id="edge7" class="edge">
<title>4572600278003539478&#45;&gt;&#45;2828859432936935225</title>
<path fill="none" stroke="black" stroke-width="2.58" d="M1221.58,-509.65C1184.49,-479.84 1108.48,-418.74 1065.53,-384.22"/>
<polygon fill="black" stroke="black" stroke-width="2.58" points="1068.61,-381.79 1058.62,-378.25 1064.22,-387.24 1068.61,-381.79"/>
<text text-anchor="middle" x="1167.66" y="-439.9" font-family="Times New Roman,serif" font-size="12.00">7m</text>
</g>
<!-- &#45;4162420903657016109&#45;&gt;&#45;2828859432936935225 -->
<g id="edge8" class="edge">
<title>&#45;4162420903657016109&#45;&gt;&#45;2828859432936935225</title>
<path fill="none" stroke="black" stroke-width="1.17" d="M348.52,-437.14C413.44,-428.04 558.59,-408.09 681.16,-394 795.44,-380.86 930.88,-368.26 995.76,-362.41"/>
<polygon fill="black" stroke="black" stroke-width="1.17" points="996.02,-365.81 1005.67,-361.43 995.39,-358.84 996.02,-365.81"/>
<text text-anchor="middle" x="689.66" y="-397.4" font-family="Times New Roman,serif" font-size="12.00">50s</text>
</g>
<!-- 1607548953699189687&#45;&gt;&#45;8551108795534898076 -->
<g id="edge9" class="edge">
<title>1607548953699189687&#45;&gt;&#45;8551108795534898076</title>
<path fill="none" stroke="black" stroke-width="1.17" d="M1794.97,-20.15C1888.78,-23.83 2104.16,-39.13 2104.16,-102 2104.16,-529 2104.16,-529 2104.16,-529 2104.16,-609.98 1492.89,-613.42 1300.45,-612.5"/>
<polygon fill="black" stroke="black" stroke-width="1.17" points="1300.47,-608.99 1290.45,-612.44 1300.43,-615.99 1300.47,-608.99"/>
<text text-anchor="middle" x="2112.66" y="-312.4" font-family="Times New Roman,serif" font-size="12.00">49s</text>
</g>
<!-- 4017203369508189456 -->
<g id="node7" class="node">
<title>4017203369508189456</title>
<polygon fill="none" stroke="black" points="1386.66,-291 1249.66,-291 1249.66,-255 1386.66,-255 1386.66,-291"/>
<text text-anchor="middle" x="1318.16" y="-269.9" font-family="Times New Roman,serif" font-size="12.00">editField[q10_bankName]</text>
</g>
<!-- 4017203369508189456&#45;&gt;4572600278003539478 -->
<g id="edge10" class="edge">
<title>4017203369508189456&#45;&gt;4572600278003539478</title>
<path fill="none" stroke="black" stroke-width="1.17" d="M1314.05,-291.39C1311.83,-300.53 1308.97,-311.9 1306.16,-322 1288.4,-385.8 1264.91,-459.9 1252.22,-499.19"/>
<polygon fill="black" stroke="black" stroke-width="1.17" points="1248.62,-497.95 1248.87,-508.54 1255.28,-500.11 1248.62,-497.95"/>
<text text-anchor="middle" x="1292.66" y="-397.4" font-family="Times New Roman,serif" font-size="12.00">50s</text>
</g>
<!-- 2137833237022894573 -->
<g id="node8" class="node">
<title>2137833237022894573</title>
<polygon fill="none" stroke="black" points="1731.16,-291 1571.16,-291 1571.16,-255 1731.16,-255 1731.16,-291"/>
<text text-anchor="middle" x="1651.16" y="-269.9" font-family="Times New Roman,serif" font-size="12.00">editField[q11_accountNumber]</text>
</g>
<!-- 2137833237022894573&#45;&gt;4572600278003539478 -->
<g id="edge11" class="edge">
<title>2137833237022894573&#45;&gt;4572600278003539478</title>
<path fill="none" stroke="black" stroke-width="1.16" d="M1623.19,-291.34C1551.56,-335.76 1361.48,-453.63 1280.52,-503.83"/>
<polygon fill="black" stroke="black" stroke-width="1.16" points="1278.86,-501.37 1272.2,-509.61 1282.55,-507.31 1278.86,-501.37"/>
<text text-anchor="middle" x="1464.66" y="-397.4" font-family="Times New Roman,serif" font-size="12.00">47s</text>
</g>
<!-- 2137833237022894573&#45;&gt;&#45;2828859432936935225 -->
<g id="edge12" class="edge">
<title>2137833237022894573&#45;&gt;&#45;2828859432936935225</title>
<path fill="none" stroke="black" stroke-width="1.01" d="M1570.71,-289.88C1567.83,-290.28 1564.97,-290.66 1562.16,-291 1485.5,-300.27 1289.3,-287.43 1215.16,-309 1203.89,-312.28 1203.12,-317.8 1192.16,-322 1152.62,-337.16 1104.87,-346.61 1072.28,-351.81"/>
<polygon fill="black" stroke="black" stroke-width="1.01" points="1071.78,-348.49 1062.43,-353.47 1072.84,-355.41 1071.78,-348.49"/>
<text text-anchor="middle" x="1220.66" y="-312.4" font-family="Times New Roman,serif" font-size="12.00">3s</text>
</g>
<!-- &#45;1548836318819260850 -->
<g id="node9" class="node">
<title>&#45;1548836318819260850</title>
<polygon fill="none" stroke="black" points="854.66,-291 649.66,-291 649.66,-255 854.66,-255 854.66,-291"/>
<text text-anchor="middle" x="752.16" y="-269.9" font-family="Times New Roman,serif" font-size="12.00">editField[q12_reimbursementDetails[0][]]</text>
</g>
<!-- &#45;1548836318819260850&#45;&gt;&#45;1283998384867478094 -->
<g id="edge13" class="edge">
<title>&#45;1548836318819260850&#45;&gt;&#45;1283998384867478094</title>
<path fill="none" stroke="black" stroke-width="1.17" d="M760.03,-254.8C765.15,-243.64 771.92,-228.85 777.74,-216.12"/>
<polygon fill="black" stroke="black" stroke-width="1.17" points="781.19,-218.01 782.17,-207.46 774.82,-215.1 781.19,-218.01"/>
<text text-anchor="middle" x="782.66" y="-227.4" font-family="Times New Roman,serif" font-size="12.00">49s</text>
</g>
<!-- &#45;1548836318819260850&#45;&gt;4572600278003539478 -->
<g id="edge14" class="edge">
<title>&#45;1548836318819260850&#45;&gt;4572600278003539478</title>
<path fill="none" stroke="black" stroke-width="1.18" d="M761.68,-291.3C767.89,-301.31 776.75,-313.55 787.16,-322 920.37,-430.08 1119.66,-493.46 1203.62,-516.74"/>
<polygon fill="black" stroke="black" stroke-width="1.18" points="1202.65,-520.38 1213.22,-519.64 1204.49,-513.63 1202.65,-520.38"/>
<text text-anchor="middle" x="923.66" y="-397.4" font-family="Times New Roman,serif" font-size="12.00">51s</text>
</g>
<!-- &#45;1548836318819260850&#45;&gt;&#45;2828859432936935225 -->
<g id="edge15" class="edge">
<title>&#45;1548836318819260850&#45;&gt;&#45;2828859432936935225</title>
<path fill="none" stroke="black" stroke-width="2.24" d="M768.91,-291.4C780.13,-301.97 795.81,-314.78 812.16,-322 871.81,-348.32 948.18,-355.19 994.03,-356.79"/>
<polygon fill="black" stroke="black" stroke-width="2.24" points="993.86,-360.37 1003.94,-357.13 994.04,-353.37 993.86,-360.37"/>
<text text-anchor="middle" x="819.66" y="-312.4" font-family="Times New Roman,serif" font-size="12.00">5m</text>
</g>
<!-- &#45;7261425491390122994 -->
<g id="node10" class="node">
<title>&#45;7261425491390122994</title>
<polygon fill="none" stroke="black" points="1040.66,-291 911.66,-291 911.66,-255 1040.66,-255 1040.66,-291"/>
<text text-anchor="middle" x="976.16" y="-269.9" font-family="Times New Roman,serif" font-size="12.00">editField[q3_name[first]]</text>
</g>
<!-- &#45;7261425491390122994&#45;&gt;&#45;2828859432936935225 -->
<g id="edge16" class="edge">
<title>&#45;7261425491390122994&#45;&gt;&#45;2828859432936935225</title>
<path fill="none" stroke="black" stroke-width="1.17" d="M971.7,-291.05C970.13,-300.73 969.88,-312.73 975.16,-322 980.22,-330.89 988.54,-337.76 997.34,-342.96"/>
<polygon fill="black" stroke="black" stroke-width="1.17" points="995.48,-346.45 1005.97,-347.96 998.71,-340.24 995.48,-346.45"/>
<text text-anchor="middle" x="983.66" y="-312.4" font-family="Times New Roman,serif" font-size="12.00">50s</text>
</g>
<!-- 1879159653324323843 -->
<g id="node11" class="node">
<title>1879159653324323843</title>
<polygon fill="none" stroke="black" points="1877.16,-291 1749.16,-291 1749.16,-255 1877.16,-255 1877.16,-291"/>
<text text-anchor="middle" x="1813.16" y="-269.9" font-family="Times New Roman,serif" font-size="12.00">editField[q3_name[last]]</text>
</g>
<!-- 1879159653324323843&#45;&gt;4572600278003539478 -->
<g id="edge17" class="edge">
<title>1879159653324323843&#45;&gt;4572600278003539478</title>
<path fill="none" stroke="black" stroke-width="1.17" d="M1774.56,-291.39C1692.03,-328.53 1492.26,-418.22 1324.16,-492 1310.41,-498.03 1295.32,-504.58 1281.92,-510.36"/>
<polygon fill="black" stroke="black" stroke-width="1.17" points="1280.86,-507.44 1273.06,-514.61 1283.63,-513.86 1280.86,-507.44"/>
<text text-anchor="middle" x="1548.66" y="-397.4" font-family="Times New Roman,serif" font-size="12.00">50s</text>
</g>
<!-- 6075178304717725746 -->
<g id="node12" class="node">
<title>6075178304717725746</title>
<polygon fill="none" stroke="black" points="1999.16,-291 1895.16,-291 1895.16,-255 1999.16,-255 1999.16,-291"/>
<text text-anchor="middle" x="1947.16" y="-269.9" font-family="Times New Roman,serif" font-size="12.00">editField[q4_email]</text>
</g>
<!-- 6075178304717725746&#45;&gt;4572600278003539478 -->
<g id="edge18" class="edge">
<title>6075178304717725746&#45;&gt;4572600278003539478</title>
<path fill="none" stroke="black" stroke-width="1.18" d="M1903.12,-291.37C1816.61,-325.31 1618.17,-402.23 1449.16,-461 1391.53,-481.04 1324.07,-502.23 1282.47,-515.03"/>
<polygon fill="black" stroke="black" stroke-width="1.18" points="1281.5,-511.98 1272.97,-518.26 1283.56,-518.67 1281.5,-511.98"/>
<text text-anchor="middle" x="1642.66" y="-397.4" font-family="Times New Roman,serif" font-size="12.00">51s</text>
</g>
<!-- 6411501856739108121 -->
<g id="node13" class="node">
<title>6411501856739108121</title>
<polygon fill="none" stroke="black" points="602.16,-291 430.16,-291 430.16,-255 602.16,-255 602.16,-291"/>
<text text-anchor="middle" x="516.16" y="-269.9" font-family="Times New Roman,serif" font-size="12.00">editField[q5_address[addr_line1]]</text>
</g>
<!-- 6411501856739108121&#45;&gt;&#45;7283433983056500281 -->
<g id="edge19" class="edge">
<title>6411501856739108121&#45;&gt;&#45;7283433983056500281</title>
<path fill="none" stroke="black" stroke-width="1.06" d="M504.12,-291.24C493.99,-307.45 481.16,-332.76 481.16,-357 481.16,-614 481.16,-614 481.16,-614 481.16,-632.2 481.16,-652.66 481.16,-668.7"/>
<polygon fill="black" stroke="black" stroke-width="1.06" points="477.66,-668.51 481.16,-678.51 484.66,-668.51 477.66,-668.51"/>
<text text-anchor="middle" x="489.66" y="-482.4" font-family="Times New Roman,serif" font-size="12.00">19s</text>
</g>
<!-- 6411501856739108121&#45;&gt;4572600278003539478 -->
<g id="edge20" class="edge">
<title>6411501856739108121&#45;&gt;4572600278003539478</title>
<path fill="none" stroke="black" stroke-width="1.11" d="M561.71,-291.46C629.83,-317.42 762.42,-367.41 876.16,-407 995.15,-448.42 1137.23,-493.7 1204.37,-514.85"/>
<polygon fill="black" stroke="black" stroke-width="1.11" points="1202.9,-518.37 1213.49,-518.03 1205,-511.69 1202.9,-518.37"/>
<text text-anchor="middle" x="884.66" y="-397.4" font-family="Times New Roman,serif" font-size="12.00">31s</text>
</g>
<!-- 6411501856739108121&#45;&gt;6411501856739108121 -->
<g id="edge21" class="edge">
<title>6411501856739108121&#45;&gt;6411501856739108121</title>
<path fill="none" stroke="black" d="M602.63,-279.89C613.22,-278.66 620.16,-276.36 620.16,-273 620.16,-270.95 617.58,-269.3 613.17,-268.04"/>
<polygon fill="black" stroke="black" points="614.1,-264.47 603.63,-266.11 612.84,-271.35 614.1,-264.47"/>
<text text-anchor="middle" x="625.66" y="-269.9" font-family="Times New Roman,serif" font-size="12.00">1s</text>
</g>
<!-- &#45;9036171747072133490 -->
<g id="node14" class="node">
<title>&#45;9036171747072133490</title>
<polygon fill="none" stroke="black" points="411.66,-291 288.66,-291 288.66,-255 411.66,-255 411.66,-291"/>
<text text-anchor="middle" x="350.16" y="-269.9" font-family="Times New Roman,serif" font-size="12.00">editField[q6_studentId]</text>
</g>
<!-- &#45;9036171747072133490&#45;&gt;4572600278003539478 -->
<g id="edge22" class="edge">
<title>&#45;9036171747072133490&#45;&gt;4572600278003539478</title>
<path fill="none" stroke="black" stroke-width="1.07" d="M352.81,-291.2C360.4,-333.93 386.58,-444.88 459.16,-492 490.62,-512.43 1048.21,-523.61 1203.38,-526.34"/>
<polygon fill="black" stroke="black" stroke-width="1.07" points="1203.2,-529.85 1213.26,-526.53 1203.32,-522.85 1203.2,-529.85"/>
<text text-anchor="middle" x="397.66" y="-397.4" font-family="Times New Roman,serif" font-size="12.00">20s</text>
</g>
<!-- &#45;9036171747072133490&#45;&gt;&#45;4162420903657016109 -->
<g id="edge23" class="edge">
<title>&#45;9036171747072133490&#45;&gt;&#45;4162420903657016109</title>
<path fill="none" stroke="black" stroke-width="1.09" d="M346.52,-291C340.31,-319.96 327.63,-379.13 320.12,-414.19"/>
<polygon fill="black" stroke="black" stroke-width="1.09" points="316.55,-413.14 317.88,-423.65 323.4,-414.61 316.55,-413.14"/>
<text text-anchor="middle" x="344.66" y="-354.9" font-family="Times New Roman,serif" font-size="12.00">27s</text>
</g>
<!-- &#45;9036171747072133490&#45;&gt;8826139826624112448 -->
<g id="edge24" class="edge">
<title>&#45;9036171747072133490&#45;&gt;8826139826624112448</title>
<path fill="none" stroke="black" d="M361.76,-254.7C370.03,-241.74 380.93,-223.33 388.16,-206 398.24,-181.83 405.78,-152.94 410.48,-132.09"/>
<polygon fill="black" stroke="black" points="414.1,-132.92 412.8,-122.41 407.26,-131.44 414.1,-132.92"/>
<text text-anchor="middle" x="406.66" y="-184.9" font-family="Times New Roman,serif" font-size="12.00">2s</text>
</g>
<!-- &#45;1759314400454882690 -->
<g id="node19" class="node">
<title>&#45;1759314400454882690</title>
<polygon fill="none" stroke="black" points="379.66,-206 320.66,-206 320.66,-170 379.66,-170 379.66,-206"/>
<text text-anchor="middle" x="350.16" y="-184.9" font-family="Times New Roman,serif" font-size="12.00">getRange</text>
</g>
<!-- &#45;9036171747072133490&#45;&gt;&#45;1759314400454882690 -->
<g id="edge25" class="edge">
<title>&#45;9036171747072133490&#45;&gt;&#45;1759314400454882690</title>
<path fill="none" stroke="black" d="M350.16,-254.8C350.16,-243.97 350.16,-229.72 350.16,-217.26"/>
<polygon fill="black" stroke="black" points="353.66,-217.46 350.16,-207.46 346.66,-217.46 353.66,-217.46"/>
<text text-anchor="middle" x="355.66" y="-227.4" font-family="Times New Roman,serif" font-size="12.00">1s</text>
</g>
<!-- &#45;8142161333965579018 -->
<g id="node15" class="node">
<title>&#45;8142161333965579018</title>
<polygon fill="none" stroke="black" points="1231.66,-291 1058.66,-291 1058.66,-255 1231.66,-255 1231.66,-291"/>
<text text-anchor="middle" x="1145.16" y="-269.9" font-family="Times New Roman,serif" font-size="12.00">editField[q7_phoneNumber[area]]</text>
</g>
<!-- &#45;8142161333965579018&#45;&gt;&#45;2828859432936935225 -->
<g id="edge26" class="edge">
<title>&#45;8142161333965579018&#45;&gt;&#45;2828859432936935225</title>
<path fill="none" stroke="black" stroke-width="1.17" d="M1081.36,-291.44C1071.81,-296.04 1062.66,-301.8 1055.16,-309 1049.36,-314.56 1045.06,-322.01 1041.92,-329.37"/>
<polygon fill="black" stroke="black" stroke-width="1.17" points="1038.36,-327.92 1038.21,-338.51 1044.93,-330.32 1038.36,-327.92"/>
<text text-anchor="middle" x="1063.66" y="-312.4" font-family="Times New Roman,serif" font-size="12.00">50s</text>
</g>
<!-- 7645206821432851380 -->
<g id="node16" class="node">
<title>7645206821432851380</title>
<polygon fill="none" stroke="black" points="270.16,-291 88.16,-291 88.16,-255 270.16,-255 270.16,-291"/>
<text text-anchor="middle" x="179.16" y="-269.9" font-family="Times New Roman,serif" font-size="12.00">editField[q7_phoneNumber[phone]]</text>
</g>
<!-- 7645206821432851380&#45;&gt;&#45;7283433983056500281 -->
<g id="edge27" class="edge">
<title>7645206821432851380&#45;&gt;&#45;7283433983056500281</title>
<path fill="none" stroke="black" stroke-width="1.11" d="M112.69,-291.39C81.96,-303.84 52.16,-324.34 52.16,-357 52.16,-614 52.16,-614 52.16,-614 52.16,-687.66 299,-697.33 418.21,-697.7"/>
<polygon fill="black" stroke="black" stroke-width="1.11" points="417.98,-701.2 427.99,-697.71 417.99,-694.2 417.98,-701.2"/>
<text text-anchor="middle" x="60.66" y="-482.4" font-family="Times New Roman,serif" font-size="12.00">31s</text>
</g>
<!-- 7645206821432851380&#45;&gt;&#45;4162420903657016109 -->
<g id="edge28" class="edge">
<title>7645206821432851380&#45;&gt;&#45;4162420903657016109</title>
<path fill="none" stroke="black" stroke-width="1.06" d="M192.82,-291C216.6,-320.59 265.71,-381.71 293.61,-416.43"/>
<polygon fill="black" stroke="black" stroke-width="1.06" points="290.23,-418.05 299.22,-423.65 295.69,-413.67 290.23,-418.05"/>
<text text-anchor="middle" x="268.66" y="-354.9" font-family="Times New Roman,serif" font-size="12.00">19s</text>
</g>
<!-- 673443513727332637 -->
<g id="node17" class="node">
<title>673443513727332637</title>
<polygon fill="none" stroke="black" points="1553.16,-291 1405.16,-291 1405.16,-255 1553.16,-255 1553.16,-291"/>
<text text-anchor="middle" x="1479.16" y="-269.9" font-family="Times New Roman,serif" font-size="12.00">editField[q9_accountHolder]</text>
</g>
<!-- 673443513727332637&#45;&gt;4572600278003539478 -->
<g id="edge29" class="edge">
<title>673443513727332637&#45;&gt;4572600278003539478</title>
<path fill="none" stroke="black" stroke-width="1.17" d="M1463.14,-291.18C1422.42,-334.83 1314.79,-450.21 1266.82,-501.64"/>
<polygon fill="black" stroke="black" stroke-width="1.17" points="1264.64,-498.91 1260.38,-508.61 1269.76,-503.69 1264.64,-498.91"/>
<text text-anchor="middle" x="1374.66" y="-397.4" font-family="Times New Roman,serif" font-size="12.00">50s</text>
</g>
<!-- 8826139826624112448&#45;&gt;&#45;4162420903657016109 -->
<g id="edge30" class="edge">
<title>8826139826624112448&#45;&gt;&#45;4162420903657016109</title>
<path fill="none" stroke="black" stroke-width="1.01" d="M388.8,-106.18C320.39,-113.27 142.14,-142.26 68.16,-255 10.72,-342.53 183.82,-405.28 269.34,-430.16"/>
<polygon fill="black" stroke="black" stroke-width="1.01" points="268.23,-433.77 278.81,-433.15 270.15,-427.04 268.23,-433.77"/>
<text text-anchor="middle" x="73.66" y="-269.9" font-family="Times New Roman,serif" font-size="12.00">3s</text>
</g>
<!-- 8826139826624112448&#45;&gt;&#45;2828859432936935225 -->
<g id="edge31" class="edge">
<title>8826139826624112448&#45;&gt;&#45;2828859432936935225</title>
<path fill="none" stroke="black" d="M443.53,-104.25C536.63,-105.34 837.05,-111.01 869.16,-139 921.27,-184.43 859.75,-236.41 902.16,-291 925.54,-321.09 966.31,-338.5 996.37,-347.8"/>
<polygon fill="black" stroke="black" points="995.33,-351.43 1005.91,-350.87 997.29,-344.71 995.33,-351.43"/>
<text text-anchor="middle" x="893.66" y="-227.4" font-family="Times New Roman,serif" font-size="12.00">2s</text>
</g>
<!-- 8826139826624112448&#45;&gt;&#45;8551108795534898076 -->
<g id="edge32" class="edge">
<title>8826139826624112448&#45;&gt;&#45;8551108795534898076</title>
<path fill="none" stroke="black" d="M388.78,-103.8C298.07,-103.85 13.16,-110.12 13.16,-187 13.16,-316.5 13.16,-316.5 13.16,-316.5 13.16,-394.87 -25.2,-436.53 30.16,-492 71.59,-533.52 951.23,-593.14 1186,-608.36"/>
<polygon fill="black" stroke="black" points="1185.48,-611.89 1195.68,-609.05 1185.93,-604.91 1185.48,-611.89"/>
<text text-anchor="middle" x="17.66" y="-354.9" font-family="Times New Roman,serif" font-size="12.00">1s</text>
</g>
<!-- &#45;1759314400454882690&#45;&gt;8826139826624112448 -->
<g id="edge33" class="edge">
<title>&#45;1759314400454882690&#45;&gt;8826139826624112448</title>
<path fill="none" stroke="black" d="M363.84,-169.8C372.98,-158.31 385.18,-142.97 395.49,-129.99"/>
<polygon fill="black" stroke="black" points="398.79,-132.47 402.28,-122.46 393.31,-128.11 398.79,-132.47"/>
<text text-anchor="middle" x="392.66" y="-142.4" font-family="Times New Roman,serif" font-size="12.00">1s</text>
</g>
<!-- 1246284287722020625 -->
<g id="node20" class="node">
<title>1246284287722020625</title>
<polygon fill="none" stroke="black" points="577.16,-631 509.16,-631 509.16,-595 577.16,-595 577.16,-631"/>
<text text-anchor="middle" x="543.16" y="-609.9" font-family="Times New Roman,serif" font-size="12.00">navigate_to</text>
</g>
<!-- 1246284287722020625&#45;&gt;4572600278003539478 -->
<g id="edge34" class="edge">
<title>1246284287722020625&#45;&gt;4572600278003539478</title>
<path fill="none" stroke="black" d="M577.4,-607.94C694.52,-594.05 1078.79,-548.49 1203.62,-533.69"/>
<polygon fill="black" stroke="black" points="1204.01,-537.05 1213.53,-532.39 1203.19,-530.1 1204.01,-537.05"/>
<text text-anchor="middle" x="940.66" y="-567.4" font-family="Times New Roman,serif" font-size="12.00">1s</text>
</g>
<!-- &#45;2828859432936935225&#45;&gt;4017203369508189456 -->
<g id="edge35" class="edge">
<title>&#45;2828859432936935225&#45;&gt;4017203369508189456</title>
<path fill="none" stroke="black" stroke-width="1.17" d="M1061.52,-345.46C1076.62,-338.91 1095.6,-330.37 1112.16,-322 1122.64,-316.7 1124.1,-312.93 1135.16,-309 1177.11,-294.1 1192.19,-299.28 1238.6,-291.34"/>
<polygon fill="black" stroke="black" stroke-width="1.17" points="1239.15,-294.62 1248.35,-289.37 1237.88,-287.73 1239.15,-294.62"/>
<text text-anchor="middle" x="1143.66" y="-312.4" font-family="Times New Roman,serif" font-size="12.00">50s</text>
</g>
<!-- &#45;2828859432936935225&#45;&gt;2137833237022894573 -->
<g id="edge36" class="edge">
<title>&#45;2828859432936935225&#45;&gt;2137833237022894573</title>
<path fill="none" stroke="black" stroke-width="1.17" d="M1061.62,-354.89C1099.57,-351.33 1169.77,-342.42 1226.16,-322 1237.2,-318 1237.9,-312.31 1249.16,-309 1313.06,-290.21 1477.67,-298.71 1559.91,-291.03"/>
<polygon fill="black" stroke="black" stroke-width="1.17" points="1560.14,-294.41 1569.71,-289.86 1559.39,-287.45 1560.14,-294.41"/>
<text text-anchor="middle" x="1257.66" y="-312.4" font-family="Times New Roman,serif" font-size="12.00">50s</text>
</g>
<!-- &#45;2828859432936935225&#45;&gt;&#45;1548836318819260850 -->
<g id="edge37" class="edge">
<title>&#45;2828859432936935225&#45;&gt;&#45;1548836318819260850</title>
<path fill="none" stroke="black" stroke-width="2.6" d="M1006.77,-353.9C971,-349.34 906.74,-339.45 854.16,-322 841.52,-317.81 839.2,-314.71 827.16,-309 818.77,-305.02 809.84,-300.82 801.17,-296.77"/>
<polygon fill="black" stroke="black" stroke-width="2.6" points="803.13,-293.42 792.59,-292.36 800.17,-299.76 803.13,-293.42"/>
<text text-anchor="middle" x="861.66" y="-312.4" font-family="Times New Roman,serif" font-size="12.00">7m</text>
</g>
<!-- &#45;2828859432936935225&#45;&gt;&#45;7261425491390122994 -->
<g id="edge38" class="edge">
<title>&#45;2828859432936935225&#45;&gt;&#45;7261425491390122994</title>
<path fill="none" stroke="black" stroke-width="1.17" d="M1022.14,-339.8C1014.19,-328.42 1003.6,-313.26 994.58,-300.37"/>
<polygon fill="black" stroke="black" stroke-width="1.17" points="997.96,-298.65 989.36,-292.46 992.22,-302.66 997.96,-298.65"/>
<text text-anchor="middle" x="1017.66" y="-312.4" font-family="Times New Roman,serif" font-size="12.00">50s</text>
</g>
<!-- &#45;2828859432936935225&#45;&gt;1879159653324323843 -->
<g id="edge39" class="edge">
<title>&#45;2828859432936935225&#45;&gt;1879159653324323843</title>
<path fill="none" stroke="black" stroke-width="1.17" d="M1061.33,-353.44C1128.42,-344.77 1307.34,-322.26 1457.16,-309 1579.27,-298.2 1613.61,-308.75 1738.07,-291.15"/>
<polygon fill="black" stroke="black" stroke-width="1.17" points="1738.39,-294.5 1747.78,-289.6 1737.39,-287.57 1738.39,-294.5"/>
<text text-anchor="middle" x="1465.66" y="-312.4" font-family="Times New Roman,serif" font-size="12.00">50s</text>
</g>
<!-- &#45;2828859432936935225&#45;&gt;6075178304717725746 -->
<g id="edge40" class="edge">
<title>&#45;2828859432936935225&#45;&gt;6075178304717725746</title>
<path fill="none" stroke="black" stroke-width="1.18" d="M1061.62,-356.81C1167.2,-355.66 1556.96,-347.73 1884.1,-291.17"/>
<polygon fill="black" stroke="black" stroke-width="1.18" points="1884.49,-294.48 1893.74,-289.31 1883.28,-287.58 1884.49,-294.48"/>
<text text-anchor="middle" x="1755.66" y="-312.4" font-family="Times New Roman,serif" font-size="12.00">51s</text>
</g>
<!-- &#45;2828859432936935225&#45;&gt;6411501856739108121 -->
<g id="edge41" class="edge">
<title>&#45;2828859432936935225&#45;&gt;6411501856739108121</title>
<path fill="none" stroke="black" stroke-width="1.17" d="M1006.67,-354.2C958.53,-349.11 855.94,-337.43 770.16,-322 744.59,-317.4 738.63,-314.16 713.16,-309 680.74,-302.43 645.18,-295.9 613.3,-290.3"/>
<polygon fill="black" stroke="black" stroke-width="1.17" points="614.09,-286.71 603.64,-288.43 612.88,-293.6 614.09,-286.71"/>
<text text-anchor="middle" x="778.66" y="-312.4" font-family="Times New Roman,serif" font-size="12.00">50s</text>
</g>
<!-- &#45;2828859432936935225&#45;&gt;&#45;9036171747072133490 -->
<g id="edge42" class="edge">
<title>&#45;2828859432936935225&#45;&gt;&#45;9036171747072133490</title>
<path fill="none" stroke="black" stroke-width="1.17" d="M1006.79,-355.37C921.62,-350.02 653.71,-331.11 422.65,-291.14"/>
<polygon fill="black" stroke="black" stroke-width="1.17" points="423.48,-287.55 413.02,-289.28 422.27,-294.45 423.48,-287.55"/>
<text text-anchor="middle" x="631.66" y="-312.4" font-family="Times New Roman,serif" font-size="12.00">50s</text>
</g>
<!-- &#45;2828859432936935225&#45;&gt;&#45;8142161333965579018 -->
<g id="edge43" class="edge">
<title>&#45;2828859432936935225&#45;&gt;&#45;8142161333965579018</title>
<path fill="none" stroke="black" stroke-width="1.17" d="M1055.67,-339.6C1067.25,-330.35 1081.85,-318.88 1095.16,-309 1100.23,-305.24 1105.65,-301.33 1110.98,-297.55"/>
<polygon fill="black" stroke="black" stroke-width="1.17" points="1112.62,-300.97 1118.78,-292.35 1108.59,-295.24 1112.62,-300.97"/>
<text text-anchor="middle" x="1103.66" y="-312.4" font-family="Times New Roman,serif" font-size="12.00">50s</text>
</g>
<!-- &#45;2828859432936935225&#45;&gt;7645206821432851380 -->
<g id="edge44" class="edge">
<title>&#45;2828859432936935225&#45;&gt;7645206821432851380</title>
<path fill="none" stroke="black" stroke-width="1.17" d="M1006.92,-355.75C929.91,-352.09 704.05,-340.48 517.16,-322 414.43,-311.84 386.43,-307.14 281.2,-291.29"/>
<polygon fill="black" stroke="black" stroke-width="1.17" points="281.83,-287.69 271.42,-289.66 280.79,-294.61 281.83,-287.69"/>
<text text-anchor="middle" x="525.66" y="-312.4" font-family="Times New Roman,serif" font-size="12.00">50s</text>
</g>
<!-- &#45;2828859432936935225&#45;&gt;673443513727332637 -->
<g id="edge45" class="edge">
<title>&#45;2828859432936935225&#45;&gt;673443513727332637</title>
<path fill="none" stroke="black" stroke-width="1.17" d="M1061.48,-350.77C1085.79,-344.78 1122.07,-334.77 1152.16,-322 1162.97,-317.41 1163.94,-312.45 1175.16,-309 1266.15,-281.07 1296.53,-303.28 1394.38,-291.07"/>
<polygon fill="black" stroke="black" stroke-width="1.17" points="1394.58,-294.44 1404.03,-289.65 1393.65,-287.51 1394.58,-294.44"/>
<text text-anchor="middle" x="1183.66" y="-312.4" font-family="Times New Roman,serif" font-size="12.00">50s</text>
</g>
<!-- &#45;2828859432936935225&#45;&gt;&#45;2828859432936935225 -->
<g id="edge46" class="edge">
<title>&#45;2828859432936935225&#45;&gt;&#45;2828859432936935225</title>
<path fill="none" stroke="black" stroke-width="1.01" d="M1061.4,-365.96C1071.18,-366.13 1079.16,-363.48 1079.16,-358 1079.16,-354.75 1076.35,-352.49 1072.02,-351.23"/>
<polygon fill="black" stroke="black" stroke-width="1.01" points="1072.73,-347.67 1062.4,-350.04 1071.95,-354.63 1072.73,-347.67"/>
<text text-anchor="middle" x="1084.66" y="-354.9" font-family="Times New Roman,serif" font-size="12.00">3s</text>
</g>
<!-- &#45;8551108795534898076&#45;&gt;4572600278003539478 -->
<g id="edge47" class="edge">
<title>&#45;8551108795534898076&#45;&gt;4572600278003539478</title>
<path fill="none" stroke="black" stroke-width="1.34" d="M1243.16,-594.8C1243.16,-584.3 1243.16,-570.59 1243.16,-558.41"/>
<polygon fill="black" stroke="black" stroke-width="1.34" points="1246.66,-558.46 1243.16,-548.46 1239.66,-558.46 1246.66,-558.46"/>
<text text-anchor="middle" x="1250.66" y="-567.4" font-family="Times New Roman,serif" font-size="12.00">1m</text>
</g>
<!-- &#45;8551108795534898076&#45;&gt;8826139826624112448 -->
<g id="edge48" class="edge">
<title>&#45;8551108795534898076&#45;&gt;8826139826624112448</title>
<path fill="none" stroke="black" d="M1289.41,-612.22C1462.91,-612.45 2065.16,-607.57 2065.16,-529 2065.16,-529 2065.16,-529 2065.16,-187 2065.16,-145.29 701.44,-110.8 454.32,-104.89"/>
<polygon fill="black" stroke="black" points="454.49,-101.37 444.41,-104.63 454.32,-108.37 454.49,-101.37"/>
<text text-anchor="middle" x="2070.66" y="-354.9" font-family="Times New Roman,serif" font-size="12.00">2s</text>
</g>
<!-- &#45;8551108795534898076&#45;&gt;&#45;8551108795534898076 -->
<g id="edge49" class="edge">
<title>&#45;8551108795534898076&#45;&gt;&#45;8551108795534898076</title>
<path fill="none" stroke="black" stroke-width="1.01" d="M1289.47,-620.75C1299.71,-620.03 1307.16,-617.44 1307.16,-613 1307.16,-610.36 1304.53,-608.38 1300.26,-607.05"/>
<polygon fill="black" stroke="black" stroke-width="1.01" points="1300.91,-603.45 1290.47,-605.25 1299.76,-610.35 1300.91,-603.45"/>
<text text-anchor="middle" x="1312.66" y="-609.9" font-family="Times New Roman,serif" font-size="12.00">3s</text>
</g>
</g>
</svg>
