<?xml version="1.0" encoding="UTF-8" standalone="no"?>
<!DOCTYPE svg PUBLIC "-//W3C//DTD SVG 1.1//EN"
 "http://www.w3.org/Graphics/SVG/1.1/DTD/svg11.dtd">
<!-- Generated by graphviz version 7.1.0 (20230121.1956)
 -->
<!-- Pages: 1 -->
<svg width="335pt" height="672pt"
 viewBox="0.00 0.00 334.50 671.81" xmlns="http://www.w3.org/2000/svg" xmlns:xlink="http://www.w3.org/1999/xlink">
<g id="graph0" class="graph" transform="scale(1 1) rotate(0) translate(4 667.81)">
<polygon fill="white" stroke="none" points="-4,4 -4,-667.81 330.5,-667.81 330.5,4 -4,4"/>
<!-- 430005019290297955 -->
<g id="node1" class="node">
<title>430005019290297955</title>
<polygon fill="none" stroke="black" points="167,-663.81 63,-663.81 63,-627.81 167,-627.81 167,-663.81"/>
<text text-anchor="middle" x="115" y="-642.71" font-family="Times New Roman,serif" font-size="12.00">clickButton[button]</text>
</g>
<!-- 6434334323557836981 -->
<g id="node10" class="node">
<title>6434334323557836981</title>
<polygon fill="none" stroke="black" points="219,-578.81 127,-578.81 127,-542.81 219,-542.81 219,-578.81"/>
<text text-anchor="middle" x="173" y="-557.71" font-family="Times New Roman,serif" font-size="12.00">selectWorksheet</text>
</g>
<!-- 430005019290297955&#45;&gt;6434334323557836981 -->
<g id="edge1" class="edge">
<title>430005019290297955&#45;&gt;6434334323557836981</title>
<path fill="none" stroke="black" d="M127.02,-627.61C134.9,-616.34 145.36,-601.37 154.31,-588.55"/>
<polygon fill="black" stroke="black" points="157.07,-590.71 159.93,-580.51 151.33,-586.71 157.07,-590.71"/>
<text text-anchor="middle" x="152.5" y="-600.21" font-family="Times New Roman,serif" font-size="12.00">1s</text>
</g>
<!-- &#45;8880081036350354058 -->
<g id="node2" class="node">
<title>&#45;8880081036350354058</title>
<polygon fill="none" stroke="black" points="186,-206 82,-206 82,-170 186,-170 186,-206"/>
<text text-anchor="middle" x="134" y="-184.9" font-family="Times New Roman,serif" font-size="12.00">clickButton[submit]</text>
</g>
<!-- &#45;1794840827520655514 -->
<g id="node3" class="node">
<title>&#45;1794840827520655514</title>
<polygon fill="none" stroke="black" points="254,-121 196,-121 196,-85 254,-85 254,-121"/>
<text text-anchor="middle" x="225" y="-99.9" font-family="Times New Roman,serif" font-size="12.00">clickLink</text>
</g>
<!-- &#45;8880081036350354058&#45;&gt;&#45;1794840827520655514 -->
<g id="edge2" class="edge">
<title>&#45;8880081036350354058&#45;&gt;&#45;1794840827520655514</title>
<path fill="none" stroke="black" d="M152.86,-169.8C165.82,-157.97 183.25,-142.08 197.73,-128.87"/>
<polygon fill="black" stroke="black" points="199.71,-131.81 204.74,-122.48 194.99,-126.63 199.71,-131.81"/>
<text text-anchor="middle" x="189.5" y="-142.4" font-family="Times New Roman,serif" font-size="12.00">1s</text>
</g>
<!-- 8116685484534638386 -->
<g id="node6" class="node">
<title>8116685484534638386</title>
<polygon fill="none" stroke="black" points="326.5,-36 241.5,-36 241.5,0 326.5,0 326.5,-36"/>
<text text-anchor="middle" x="284" y="-14.9" font-family="Times New Roman,serif" font-size="12.00">createNewTab</text>
</g>
<!-- &#45;1794840827520655514&#45;&gt;8116685484534638386 -->
<g id="edge3" class="edge">
<title>&#45;1794840827520655514&#45;&gt;8116685484534638386</title>
<path fill="none" stroke="black" d="M237.22,-84.8C245.24,-73.53 255.88,-58.56 264.99,-45.74"/>
<polygon fill="black" stroke="black" points="267.77,-47.87 270.71,-37.69 262.06,-43.82 267.77,-47.87"/>
<text text-anchor="middle" x="263.5" y="-57.4" font-family="Times New Roman,serif" font-size="12.00">1s</text>
</g>
<!-- 5979003392761407765 -->
<g id="node4" class="node">
<title>5979003392761407765</title>
<polygon fill="none" stroke="black" points="62.5,-493.81 5.5,-493.81 5.5,-457.81 62.5,-457.81 62.5,-493.81"/>
<text text-anchor="middle" x="34" y="-472.71" font-family="Times New Roman,serif" font-size="12.00">copyCell</text>
</g>
<!-- &#45;1469425098975310577 -->
<g id="node9" class="node">
<title>&#45;1469425098975310577</title>
<polygon fill="none" stroke="black" points="199,-408.81 145,-408.81 145,-372.81 199,-372.81 199,-408.81"/>
<text text-anchor="middle" x="172" y="-387.71" font-family="Times New Roman,serif" font-size="12.00">paste</text>
</g>
<!-- 5979003392761407765&#45;&gt;&#45;1469425098975310577 -->
<g id="edge4" class="edge">
<title>5979003392761407765&#45;&gt;&#45;1469425098975310577</title>
<path fill="none" stroke="black" stroke-width="1.72" d="M62.93,-457.41C83.58,-444.99 111.55,-428.17 134,-414.67"/>
<polygon fill="black" stroke="black" stroke-width="1.72" points="135.52,-417.83 142.29,-409.68 131.91,-411.84 135.52,-417.83"/>
<text text-anchor="middle" x="119.5" y="-430.21" font-family="Times New Roman,serif" font-size="12.00">10s</text>
</g>
<!-- 6464581609777319207 -->
<g id="node5" class="node">
<title>6464581609777319207</title>
<polygon fill="none" stroke="black" points="277,-206 209,-206 209,-170 277,-170 277,-206"/>
<text text-anchor="middle" x="243" y="-184.9" font-family="Times New Roman,serif" font-size="12.00">copyRange</text>
</g>
<!-- 6464581609777319207&#45;&gt;&#45;1469425098975310577 -->
<g id="edge5" class="edge">
<title>6464581609777319207&#45;&gt;&#45;1469425098975310577</title>
<path fill="none" stroke="black" d="M246.26,-206.49C250.38,-233.08 255.04,-284.74 238,-323.81 231,-339.86 218.15,-354.12 205.64,-365.24"/>
<polygon fill="black" stroke="black" points="203.66,-362.33 198.26,-371.45 208.16,-367.69 203.66,-362.33"/>
<text text-anchor="middle" x="255.5" y="-286.31" font-family="Times New Roman,serif" font-size="12.00">1s</text>
</g>
<!-- 8116685484534638386&#45;&gt;6434334323557836981 -->
<g id="edge6" class="edge">
<title>8116685484534638386&#45;&gt;6434334323557836981</title>
<path fill="none" stroke="black" d="M293.48,-36.24C301.6,-52.64 312,-78.28 312,-102 312,-476.81 312,-476.81 312,-476.81 312,-517.15 268.32,-538.34 229.93,-549.18"/>
<polygon fill="black" stroke="black" points="229.54,-545.67 220.75,-551.59 231.31,-552.44 229.54,-545.67"/>
<text text-anchor="middle" x="317.5" y="-286.31" font-family="Times New Roman,serif" font-size="12.00">1s</text>
</g>
<!-- 4656304329061748753 -->
<g id="node7" class="node">
<title>4656304329061748753</title>
<polygon fill="none" stroke="black" points="143,-307.41 87,-307.41 87,-271.41 143,-271.41 143,-307.41"/>
<text text-anchor="middle" x="115" y="-286.31" font-family="Times New Roman,serif" font-size="12.00">editField</text>
</g>
<!-- 4656304329061748753&#45;&gt;430005019290297955 -->
<g id="edge7" class="edge">
<title>4656304329061748753&#45;&gt;430005019290297955</title>
<path fill="none" stroke="black" d="M110.46,-307.87C105.73,-327.61 99,-360.79 99,-389.81 99,-561.81 99,-561.81 99,-561.81 99,-580.35 102.9,-600.81 106.84,-616.77"/>
<polygon fill="black" stroke="black" points="103.36,-617.27 109.29,-626.05 110.12,-615.48 103.36,-617.27"/>
<text text-anchor="middle" x="104.5" y="-472.71" font-family="Times New Roman,serif" font-size="12.00">1s</text>
</g>
<!-- 4656304329061748753&#45;&gt;&#45;8880081036350354058 -->
<g id="edge8" class="edge">
<title>4656304329061748753&#45;&gt;&#45;8880081036350354058</title>
<path fill="none" stroke="black" d="M118.31,-271.09C121.13,-256.36 125.23,-234.9 128.53,-217.61"/>
<polygon fill="black" stroke="black" points="131.94,-218.42 130.38,-207.94 125.07,-217.1 131.94,-218.42"/>
<text text-anchor="middle" x="131.5" y="-227.4" font-family="Times New Roman,serif" font-size="12.00">1s</text>
</g>
<!-- 4656304329061748753&#45;&gt;5979003392761407765 -->
<g id="edge9" class="edge">
<title>4656304329061748753&#45;&gt;5979003392761407765</title>
<path fill="none" stroke="black" stroke-width="1.48" d="M104,-307.63C97.99,-317.44 90.63,-330.07 85,-341.81 68.21,-376.81 52.84,-418.89 43.46,-446.21"/>
<polygon fill="black" stroke="black" stroke-width="1.48" points="40.19,-444.93 40.3,-455.52 46.82,-447.18 40.19,-444.93"/>
<text text-anchor="middle" x="76.5" y="-387.71" font-family="Times New Roman,serif" font-size="12.00">7s</text>
</g>
<!-- 4656304329061748753&#45;&gt;6464581609777319207 -->
<g id="edge10" class="edge">
<title>4656304329061748753&#45;&gt;6464581609777319207</title>
<path fill="none" stroke="black" d="M133.48,-271.01C139.3,-265.74 145.81,-260.01 152,-255 170.17,-240.28 191.26,-224.88 208.57,-212.66"/>
<polygon fill="black" stroke="black" points="210.33,-215.7 216.51,-207.1 206.31,-209.97 210.33,-215.7"/>
<text text-anchor="middle" x="196.5" y="-227.4" font-family="Times New Roman,serif" font-size="12.00">1s</text>
</g>
<!-- 4656304329061748753&#45;&gt;&#45;1469425098975310577 -->
<g id="edge11" class="edge">
<title>4656304329061748753&#45;&gt;&#45;1469425098975310577</title>
<path fill="none" stroke="black" stroke-width="1.8" d="M117.16,-307.89C119.46,-321.49 124.05,-340.41 133,-354.81 134.89,-357.85 137.12,-360.79 139.55,-363.58"/>
<polygon fill="black" stroke="black" stroke-width="1.8" points="136.87,-365.85 146.39,-370.5 141.85,-360.92 136.87,-365.85"/>
<text text-anchor="middle" x="141.5" y="-345.21" font-family="Times New Roman,serif" font-size="12.00">11s</text>
</g>
<!-- &#45;1382111555709247029 -->
<g id="node8" class="node">
<title>&#45;1382111555709247029</title>
<polygon fill="none" stroke="black" points="68,-578.81 0,-578.81 0,-542.81 68,-542.81 68,-578.81"/>
<text text-anchor="middle" x="34" y="-557.71" font-family="Times New Roman,serif" font-size="12.00">navigate_to</text>
</g>
<!-- &#45;1382111555709247029&#45;&gt;5979003392761407765 -->
<g id="edge12" class="edge">
<title>&#45;1382111555709247029&#45;&gt;5979003392761407765</title>
<path fill="none" stroke="black" d="M34,-542.61C34,-531.89 34,-517.83 34,-505.45"/>
<polygon fill="black" stroke="black" points="37.5,-505.79 34,-495.79 30.5,-505.79 37.5,-505.79"/>
<text text-anchor="middle" x="39.5" y="-515.21" font-family="Times New Roman,serif" font-size="12.00">1s</text>
</g>
<!-- &#45;1469425098975310577&#45;&gt;4656304329061748753 -->
<g id="edge13" class="edge">
<title>&#45;1469425098975310577&#45;&gt;4656304329061748753</title>
<path fill="none" stroke="black" stroke-width="2.6" d="M164.94,-372.58C160.92,-363.28 155.59,-351.71 150,-341.81 145.66,-334.13 140.53,-326.11 135.55,-318.76"/>
<polygon fill="black" stroke="black" stroke-width="2.6" points="138.58,-316.98 129.99,-310.77 132.83,-320.98 138.58,-316.98"/>
<text text-anchor="middle" x="164.5" y="-345.21" font-family="Times New Roman,serif" font-size="12.00">21s</text>
</g>
<!-- @@endnode -->
<g id="node11" class="node">
<title>@@endnode</title>
<ellipse fill="none" stroke="black" cx="195" cy="-289.41" rx="30.32" ry="30.32"/>
<ellipse fill="none" stroke="black" cx="195" cy="-289.41" rx="34.31" ry="34.31"/>
<text text-anchor="start" x="185" y="-281.31" font-family="Times New Roman,serif" font-size="32.00">■</text>
</g>
<!-- &#45;1469425098975310577&#45;&gt;@@endnode -->
<g id="edge15" class="edge">
<title>&#45;1469425098975310577&#45;&gt;@@endnode</title>
<path fill="none" stroke="black" d="M182.59,-372.57C185.48,-367.08 188.29,-360.86 190,-354.81 191.78,-348.52 193.01,-341.76 193.85,-335.06"/>
<polygon fill="black" stroke="black" points="197.3,-335.74 194.77,-325.45 190.33,-335.07 197.3,-335.74"/>
<text text-anchor="middle" x="195.5" y="-345.21" font-family="Times New Roman,serif" font-size="12.00">1</text>
</g>
<!-- 6434334323557836981&#45;&gt;5979003392761407765 -->
<g id="edge14" class="edge">
<title>6434334323557836981&#45;&gt;5979003392761407765</title>
<path fill="none" stroke="black" stroke-width="1.08" d="M143.86,-542.41C123.15,-530.04 95.12,-513.31 72.56,-499.84"/>
<polygon fill="black" stroke="black" stroke-width="1.08" points="74.41,-496.86 64.03,-494.74 70.82,-502.87 74.41,-496.86"/>
<text text-anchor="middle" x="116.5" y="-515.21" font-family="Times New Roman,serif" font-size="12.00">2s</text>
</g>
</g>
</svg>
