<?xml version="1.0" encoding="UTF-8" standalone="no"?>
<!DOCTYPE svg PUBLIC "-//W3C//DTD SVG 1.1//EN"
 "http://www.w3.org/Graphics/SVG/1.1/DTD/svg11.dtd">
<!-- Generated by graphviz version 7.1.0 (20230121.1956)
 -->
<!-- Pages: 1 -->
<svg width="180pt" height="587pt"
 viewBox="0.00 0.00 180.41 586.81" xmlns="http://www.w3.org/2000/svg" xmlns:xlink="http://www.w3.org/1999/xlink">
<g id="graph0" class="graph" transform="scale(1 1) rotate(0) translate(4 582.81)">
<polygon fill="white" stroke="none" points="-4,4 -4,-582.81 176.41,-582.81 176.41,4 -4,4"/>
<!-- &#45;7295101882954865738 -->
<g id="node1" class="node">
<title>&#45;7295101882954865738</title>
<polygon fill="none" stroke="black" points="127,-578.81 59,-578.81 59,-542.81 127,-542.81 127,-578.81"/>
<text text-anchor="middle" x="93" y="-557.71" font-family="Times New Roman,serif" font-size="12.00">clickButton</text>
</g>
<!-- 744251646738890109 -->
<g id="node3" class="node">
<title>744251646738890109</title>
<polygon fill="none" stroke="black" points="80,-493.81 22,-493.81 22,-457.81 80,-457.81 80,-493.81"/>
<text text-anchor="middle" x="51" y="-472.71" font-family="Times New Roman,serif" font-size="12.00">clickLink</text>
</g>
<!-- &#45;7295101882954865738&#45;&gt;744251646738890109 -->
<g id="edge1" class="edge">
<title>&#45;7295101882954865738&#45;&gt;744251646738890109</title>
<path fill="none" stroke="black" stroke-width="1.08" d="M84.3,-542.61C78.7,-531.56 71.31,-516.95 64.91,-504.31"/>
<polygon fill="black" stroke="black" stroke-width="1.08" points="68.21,-503.07 60.57,-495.73 61.97,-506.23 68.21,-503.07"/>
<text text-anchor="middle" x="79.5" y="-515.21" font-family="Times New Roman,serif" font-size="12.00">2s</text>
</g>
<!-- 8619035905982486789 -->
<g id="node2" class="node">
<title>8619035905982486789</title>
<polygon fill="none" stroke="black" points="85.5,-52.41 0.5,-52.41 0.5,-16.41 85.5,-16.41 85.5,-52.41"/>
<text text-anchor="middle" x="43" y="-31.31" font-family="Times New Roman,serif" font-size="12.00">clickCheckbox</text>
</g>
<!-- 8429278947031473074 -->
<g id="node5" class="node">
<title>8429278947031473074</title>
<polygon fill="none" stroke="black" points="105,-153.81 49,-153.81 49,-117.81 105,-117.81 105,-153.81"/>
<text text-anchor="middle" x="77" y="-132.71" font-family="Times New Roman,serif" font-size="12.00">editField</text>
</g>
<!-- 8619035905982486789&#45;&gt;8429278947031473074 -->
<g id="edge2" class="edge">
<title>8619035905982486789&#45;&gt;8429278947031473074</title>
<path fill="none" stroke="black" d="M48.97,-52.86C54.07,-67.77 61.51,-89.51 67.44,-106.85"/>
<polygon fill="black" stroke="black" points="64.04,-107.73 70.59,-116.06 70.66,-105.47 64.04,-107.73"/>
<text text-anchor="middle" x="69.5" y="-90.21" font-family="Times New Roman,serif" font-size="12.00">1s</text>
</g>
<!-- &#45;3583450983126162731 -->
<g id="node4" class="node">
<title>&#45;3583450983126162731</title>
<polygon fill="none" stroke="black" points="73.5,-323.81 16.5,-323.81 16.5,-287.81 73.5,-287.81 73.5,-323.81"/>
<text text-anchor="middle" x="45" y="-302.71" font-family="Times New Roman,serif" font-size="12.00">copyCell</text>
</g>
<!-- 744251646738890109&#45;&gt;&#45;3583450983126162731 -->
<g id="edge3" class="edge">
<title>744251646738890109&#45;&gt;&#45;3583450983126162731</title>
<path fill="none" stroke="black" d="M34.02,-457.46C23.11,-445.04 9.91,-427.3 4,-408.81 -0.87,-393.57 -0.39,-388.2 4,-372.81 7.98,-358.87 15.85,-344.99 23.64,-333.59"/>
<polygon fill="black" stroke="black" points="26.46,-335.65 29.47,-325.5 20.79,-331.56 26.46,-335.65"/>
<text text-anchor="middle" x="9.5" y="-387.71" font-family="Times New Roman,serif" font-size="12.00">1s</text>
</g>
<!-- 2959380413082319204 -->
<g id="node6" class="node">
<title>2959380413082319204</title>
<polygon fill="none" stroke="black" points="78,-408.81 24,-408.81 24,-372.81 78,-372.81 78,-408.81"/>
<text text-anchor="middle" x="51" y="-387.71" font-family="Times New Roman,serif" font-size="12.00">getCell</text>
</g>
<!-- 744251646738890109&#45;&gt;2959380413082319204 -->
<g id="edge4" class="edge">
<title>744251646738890109&#45;&gt;2959380413082319204</title>
<path fill="none" stroke="black" d="M51,-457.61C51,-446.89 51,-432.83 51,-420.45"/>
<polygon fill="black" stroke="black" points="54.5,-420.79 51,-410.79 47.5,-420.79 54.5,-420.79"/>
<text text-anchor="middle" x="56.5" y="-430.21" font-family="Times New Roman,serif" font-size="12.00">1s</text>
</g>
<!-- &#45;1724725439285990221 -->
<g id="node7" class="node">
<title>&#45;1724725439285990221</title>
<polygon fill="none" stroke="black" points="54,-238.81 0,-238.81 0,-202.81 54,-202.81 54,-238.81"/>
<text text-anchor="middle" x="27" y="-217.71" font-family="Times New Roman,serif" font-size="12.00">paste</text>
</g>
<!-- &#45;3583450983126162731&#45;&gt;&#45;1724725439285990221 -->
<g id="edge5" class="edge">
<title>&#45;3583450983126162731&#45;&gt;&#45;1724725439285990221</title>
<path fill="none" stroke="black" stroke-width="2.12" d="M41.27,-287.61C39.04,-277.33 36.14,-263.98 33.55,-251.99"/>
<polygon fill="black" stroke="black" stroke-width="2.12" points="37.01,-251.44 31.47,-242.41 30.17,-252.92 37.01,-251.44"/>
<text text-anchor="middle" x="46.5" y="-260.21" font-family="Times New Roman,serif" font-size="12.00">15s</text>
</g>
<!-- 8429278947031473074&#45;&gt;&#45;7295101882954865738 -->
<g id="edge6" class="edge">
<title>8429278947031473074&#45;&gt;&#45;7295101882954865738</title>
<path fill="none" stroke="black" stroke-width="1.08" d="M98.6,-154.15C115.09,-169.48 135,-193.44 135,-219.81 135,-476.81 135,-476.81 135,-476.81 135,-497.08 124.9,-517.42 114.61,-532.9"/>
<polygon fill="black" stroke="black" stroke-width="1.08" points="111.81,-530.8 108.87,-540.98 117.52,-534.86 111.81,-530.8"/>
<text text-anchor="middle" x="140.5" y="-345.21" font-family="Times New Roman,serif" font-size="12.00">2s</text>
</g>
<!-- 8429278947031473074&#45;&gt;8619035905982486789 -->
<g id="edge7" class="edge">
<title>8429278947031473074&#45;&gt;8619035905982486789</title>
<path fill="none" stroke="black" d="M57.62,-117.56C52.99,-112.35 48.63,-106.28 46,-99.81 41.47,-88.65 40.22,-75.49 40.29,-63.99"/>
<polygon fill="black" stroke="black" points="43.77,-64.4 40.7,-54.26 36.78,-64.11 43.77,-64.4"/>
<text text-anchor="middle" x="51.5" y="-90.21" font-family="Times New Roman,serif" font-size="12.00">1s</text>
</g>
<!-- 8429278947031473074&#45;&gt;&#45;3583450983126162731 -->
<g id="edge8" class="edge">
<title>8429278947031473074&#45;&gt;&#45;3583450983126162731</title>
<path fill="none" stroke="black" stroke-width="1.88" d="M76.01,-154.29C74.24,-179.98 69.68,-229.25 59,-269.81 58.49,-271.76 57.89,-273.75 57.25,-275.74"/>
<polygon fill="black" stroke="black" stroke-width="1.88" points="54.02,-274.39 53.83,-284.98 60.58,-276.82 54.02,-274.39"/>
<text text-anchor="middle" x="79.5" y="-217.71" font-family="Times New Roman,serif" font-size="12.00">12s</text>
</g>
<!-- 8429278947031473074&#45;&gt;&#45;1724725439285990221 -->
<g id="edge9" class="edge">
<title>8429278947031473074&#45;&gt;&#45;1724725439285990221</title>
<path fill="none" stroke="black" stroke-width="1.4" d="M66.48,-154.27C59.86,-165.27 51.16,-179.71 43.61,-192.23"/>
<polygon fill="black" stroke="black" stroke-width="1.4" points="40.62,-190.43 38.45,-200.8 46.61,-194.04 40.62,-190.43"/>
<text text-anchor="middle" x="59.5" y="-175.21" font-family="Times New Roman,serif" font-size="12.00">6s</text>
</g>
<!-- @@endnode -->
<g id="node8" class="node">
<title>@@endnode</title>
<ellipse fill="none" stroke="black" cx="138" cy="-34.41" rx="30.32" ry="30.32"/>
<ellipse fill="none" stroke="black" cx="138" cy="-34.41" rx="34.31" ry="34.31"/>
<text text-anchor="start" x="128" y="-26.31" font-family="Times New Roman,serif" font-size="32.00">■</text>
</g>
<!-- 8429278947031473074&#45;&gt;@@endnode -->
<g id="edge13" class="edge">
<title>8429278947031473074&#45;&gt;@@endnode</title>
<path fill="none" stroke="black" d="M87.63,-117.5C95.02,-105.45 105.17,-88.91 114.42,-73.83"/>
<polygon fill="black" stroke="black" points="117.3,-75.83 119.54,-65.48 111.33,-72.17 117.3,-75.83"/>
<text text-anchor="middle" x="108.5" y="-90.21" font-family="Times New Roman,serif" font-size="12.00">1</text>
</g>
<!-- 2959380413082319204&#45;&gt;&#45;3583450983126162731 -->
<g id="edge10" class="edge">
<title>2959380413082319204&#45;&gt;&#45;3583450983126162731</title>
<path fill="none" stroke="black" d="M49.76,-372.61C48.98,-361.89 47.96,-347.83 47.07,-335.45"/>
<polygon fill="black" stroke="black" points="50.58,-335.5 46.37,-325.78 43.6,-336.01 50.58,-335.5"/>
<text text-anchor="middle" x="54.5" y="-345.21" font-family="Times New Roman,serif" font-size="12.00">1s</text>
</g>
<!-- 2959380413082319204&#45;&gt;2959380413082319204 -->
<g id="edge11" class="edge">
<title>2959380413082319204&#45;&gt;2959380413082319204</title>
<path fill="none" stroke="black" d="M78.24,-398.77C88.02,-398.94 96,-396.29 96,-390.81 96,-387.73 93.48,-385.54 89.53,-384.25"/>
<polygon fill="black" stroke="black" points="90.1,-380.79 79.74,-383.04 89.24,-387.74 90.1,-380.79"/>
<text text-anchor="middle" x="101.5" y="-387.71" font-family="Times New Roman,serif" font-size="12.00">1s</text>
</g>
<!-- &#45;1724725439285990221&#45;&gt;8429278947031473074 -->
<g id="edge12" class="edge">
<title>&#45;1724725439285990221&#45;&gt;8429278947031473074</title>
<path fill="none" stroke="black" stroke-width="2.6" d="M24.19,-202.42C23.48,-192.85 24.04,-181.08 29,-171.81 31.31,-167.5 34.41,-163.58 37.93,-160.06"/>
<polygon fill="black" stroke="black" stroke-width="2.6" points="40.14,-162.77 45.62,-153.71 35.68,-157.38 40.14,-162.77"/>
<text text-anchor="middle" x="37.5" y="-175.21" font-family="Times New Roman,serif" font-size="12.00">21s</text>
</g>
</g>
</svg>
