<?xml version="1.0" encoding="UTF-8" standalone="no"?>
<!DOCTYPE svg PUBLIC "-//W3C//DTD SVG 1.1//EN"
 "http://www.w3.org/Graphics/SVG/1.1/DTD/svg11.dtd">
<!-- Generated by graphviz version 8.0.3 (20230416.2022)
 -->
<!-- Pages: 1 -->
<svg width="2032pt" height="672pt"
 viewBox="0.00 0.00 2031.50 671.81" xmlns="http://www.w3.org/2000/svg" xmlns:xlink="http://www.w3.org/1999/xlink">
<g id="graph0" class="graph" transform="scale(1 1) rotate(0) translate(4 667.81)">
<polygon fill="white" stroke="none" points="-4,4 -4,-667.81 2027.5,-667.81 2027.5,4 -4,4"/>
<!-- &#45;7283433983056500281 -->
<g id="node1" class="node">
<title>&#45;7283433983056500281</title>
<polygon fill="none" stroke="black" points="1883,-663.81 1779,-663.81 1779,-627.81 1883,-627.81 1883,-663.81"/>
<text text-anchor="middle" x="1831" y="-642.71" font-family="Times New Roman,serif" font-size="12.00">clickButton[button]</text>
</g>
<!-- &#45;8551108795534898076 -->
<g id="node22" class="node">
<title>&#45;8551108795534898076</title>
<polygon fill="none" stroke="black" points="1973,-578.81 1881,-578.81 1881,-542.81 1973,-542.81 1973,-578.81"/>
<text text-anchor="middle" x="1927" y="-557.71" font-family="Times New Roman,serif" font-size="12.00">selectWorksheet</text>
</g>
<!-- &#45;7283433983056500281&#45;&gt;&#45;8551108795534898076 -->
<g id="edge1" class="edge">
<title>&#45;7283433983056500281&#45;&gt;&#45;8551108795534898076</title>
<path fill="none" stroke="black" stroke-width="1.14" d="M1850.89,-627.61C1864.7,-615.67 1883.3,-599.59 1898.66,-586.32"/>
<polygon fill="black" stroke="black" stroke-width="1.14" points="1900.53,-589.46 1905.8,-580.27 1895.95,-584.17 1900.53,-589.46"/>
<text text-anchor="middle" x="1889.5" y="-600.21" font-family="Times New Roman,serif" font-size="12.00">5s</text>
</g>
<!-- &#45;1283998384867478094 -->
<g id="node2" class="node">
<title>&#45;1283998384867478094</title>
<polygon fill="none" stroke="black" points="1854,-222.41 1750,-222.41 1750,-186.41 1854,-186.41 1854,-222.41"/>
<text text-anchor="middle" x="1802" y="-201.31" font-family="Times New Roman,serif" font-size="12.00">clickButton[submit]</text>
</g>
<!-- &#45;2730689910902470226 -->
<g id="node3" class="node">
<title>&#45;2730689910902470226</title>
<polygon fill="none" stroke="black" points="1968,-121 1910,-121 1910,-85 1968,-85 1968,-121"/>
<text text-anchor="middle" x="1939" y="-99.9" font-family="Times New Roman,serif" font-size="12.00">clickLink</text>
</g>
<!-- &#45;1283998384867478094&#45;&gt;&#45;2730689910902470226 -->
<g id="edge2" class="edge">
<title>&#45;1283998384867478094&#45;&gt;&#45;2730689910902470226</title>
<path fill="none" stroke="black" stroke-width="1.14" d="M1841.38,-186.05C1859.27,-177.2 1880.15,-165.46 1897,-152 1905.13,-145.5 1912.96,-137.31 1919.6,-129.53"/>
<polygon fill="black" stroke="black" stroke-width="1.14" points="1921.67,-132.32 1925.31,-122.37 1916.26,-127.87 1921.67,-132.32"/>
<text text-anchor="middle" x="1914.5" y="-142.4" font-family="Times New Roman,serif" font-size="12.00">5s</text>
</g>
<!-- 1607548953699189687 -->
<g id="node6" class="node">
<title>1607548953699189687</title>
<polygon fill="none" stroke="black" points="2023.5,-36 1938.5,-36 1938.5,0 2023.5,0 2023.5,-36"/>
<text text-anchor="middle" x="1981" y="-14.9" font-family="Times New Roman,serif" font-size="12.00">createNewTab</text>
</g>
<!-- &#45;2730689910902470226&#45;&gt;1607548953699189687 -->
<g id="edge3" class="edge">
<title>&#45;2730689910902470226&#45;&gt;1607548953699189687</title>
<path fill="none" stroke="black" stroke-width="1.14" d="M1947.7,-84.8C1953.35,-73.64 1960.84,-58.85 1967.28,-46.12"/>
<polygon fill="black" stroke="black" stroke-width="1.14" points="1970.77,-47.96 1972.16,-37.46 1964.53,-44.8 1970.77,-47.96"/>
<text text-anchor="middle" x="1967.5" y="-57.4" font-family="Times New Roman,serif" font-size="12.00">5s</text>
</g>
<!-- 4572600278003539478 -->
<g id="node4" class="node">
<title>4572600278003539478</title>
<polygon fill="none" stroke="black" points="955.5,-493.81 898.5,-493.81 898.5,-457.81 955.5,-457.81 955.5,-493.81"/>
<text text-anchor="middle" x="927" y="-472.71" font-family="Times New Roman,serif" font-size="12.00">copyCell</text>
</g>
<!-- &#45;2828859432936935225 -->
<g id="node21" class="node">
<title>&#45;2828859432936935225</title>
<polygon fill="none" stroke="black" points="1041,-408.81 987,-408.81 987,-372.81 1041,-372.81 1041,-408.81"/>
<text text-anchor="middle" x="1014" y="-387.71" font-family="Times New Roman,serif" font-size="12.00">paste</text>
</g>
<!-- 4572600278003539478&#45;&gt;&#45;2828859432936935225 -->
<g id="edge4" class="edge">
<title>4572600278003539478&#45;&gt;&#45;2828859432936935225</title>
<path fill="none" stroke="black" stroke-width="2.6" d="M945.03,-457.61C956.96,-446.23 972.85,-431.07 986.36,-418.18"/>
<polygon fill="black" stroke="black" stroke-width="2.6" points="988.88,-420.71 993.7,-411.27 984.05,-415.64 988.88,-420.71"/>
<text text-anchor="middle" x="983.5" y="-430.21" font-family="Times New Roman,serif" font-size="12.00">48s</text>
</g>
<!-- &#45;4162420903657016109 -->
<g id="node5" class="node">
<title>&#45;4162420903657016109</title>
<polygon fill="none" stroke="black" points="1300,-36 1232,-36 1232,0 1300,0 1300,-36"/>
<text text-anchor="middle" x="1266" y="-14.9" font-family="Times New Roman,serif" font-size="12.00">copyRange</text>
</g>
<!-- &#45;4162420903657016109&#45;&gt;&#45;2828859432936935225 -->
<g id="edge5" class="edge">
<title>&#45;4162420903657016109&#45;&gt;&#45;2828859432936935225</title>
<path fill="none" stroke="black" stroke-width="1.17" d="M1240.67,-36.3C1222.06,-51.27 1200,-74.75 1200,-102 1200,-306.81 1200,-306.81 1200,-306.81 1200,-370.99 1106.51,-385.89 1052.09,-389.12"/>
<polygon fill="black" stroke="black" stroke-width="1.17" points="1052.26,-385.66 1042.44,-389.64 1052.6,-392.65 1052.26,-385.66"/>
<text text-anchor="middle" x="1205.5" y="-201.31" font-family="Times New Roman,serif" font-size="12.00">6s</text>
</g>
<!-- 1607548953699189687&#45;&gt;&#45;8551108795534898076 -->
<g id="edge6" class="edge">
<title>1607548953699189687&#45;&gt;&#45;8551108795534898076</title>
<path fill="none" stroke="black" stroke-width="1.14" d="M1985.99,-36.32C1990.36,-53 1996,-79.01 1996,-102 1996,-476.81 1996,-476.81 1996,-476.81 1996,-500.48 1979.2,-521 1962.18,-535.72"/>
<polygon fill="black" stroke="black" stroke-width="1.14" points="1960.43,-532.44 1954.87,-541.46 1964.84,-537.87 1960.43,-532.44"/>
<text text-anchor="middle" x="2001.5" y="-302.71" font-family="Times New Roman,serif" font-size="12.00">5s</text>
</g>
<!-- 4017203369508189456 -->
<g id="node7" class="node">
<title>4017203369508189456</title>
<polygon fill="none" stroke="black" points="449.5,-323.81 312.5,-323.81 312.5,-287.81 449.5,-287.81 449.5,-323.81"/>
<text text-anchor="middle" x="381" y="-302.71" font-family="Times New Roman,serif" font-size="12.00">editField[q10_bankName]</text>
</g>
<!-- 4017203369508189456&#45;&gt;4572600278003539478 -->
<g id="edge7" class="edge">
<title>4017203369508189456&#45;&gt;4572600278003539478</title>
<path fill="none" stroke="black" stroke-width="1.14" d="M430.22,-324.3C490.1,-345.35 594.45,-381.3 685,-408.81 755.93,-430.36 839.54,-452.44 887.6,-464.81"/>
<polygon fill="black" stroke="black" stroke-width="1.14" points="886.61,-468.42 897.16,-467.52 888.35,-461.64 886.61,-468.42"/>
<text text-anchor="middle" x="690.5" y="-387.71" font-family="Times New Roman,serif" font-size="12.00">5s</text>
</g>
<!-- 2137833237022894573 -->
<g id="node8" class="node">
<title>2137833237022894573</title>
<polygon fill="none" stroke="black" points="628,-323.81 468,-323.81 468,-287.81 628,-287.81 628,-323.81"/>
<text text-anchor="middle" x="548" y="-302.71" font-family="Times New Roman,serif" font-size="12.00">editField[q11_accountNumber]</text>
</g>
<!-- 2137833237022894573&#45;&gt;4572600278003539478 -->
<g id="edge8" class="edge">
<title>2137833237022894573&#45;&gt;4572600278003539478</title>
<path fill="none" stroke="black" stroke-width="1.14" d="M587.29,-324.23C660.33,-356.6 816.16,-425.68 888.56,-457.77"/>
<polygon fill="black" stroke="black" stroke-width="1.14" points="886.64,-461.19 897.2,-462.05 889.48,-454.79 886.64,-461.19"/>
<text text-anchor="middle" x="781.5" y="-387.71" font-family="Times New Roman,serif" font-size="12.00">5s</text>
</g>
<!-- &#45;1548836318819260850 -->
<g id="node9" class="node">
<title>&#45;1548836318819260850</title>
<polygon fill="none" stroke="black" points="1721.5,-323.81 1516.5,-323.81 1516.5,-287.81 1721.5,-287.81 1721.5,-323.81"/>
<text text-anchor="middle" x="1619" y="-302.71" font-family="Times New Roman,serif" font-size="12.00">editField[q12_reimbursementDetails[0][]]</text>
</g>
<!-- &#45;1548836318819260850&#45;&gt;&#45;1283998384867478094 -->
<g id="edge9" class="edge">
<title>&#45;1548836318819260850&#45;&gt;&#45;1283998384867478094</title>
<path fill="none" stroke="black" stroke-width="1.14" d="M1650.88,-287.5C1681.26,-270.99 1727.18,-246.05 1760.43,-227.99"/>
<polygon fill="black" stroke="black" stroke-width="1.14" points="1761.76,-230.7 1768.88,-222.86 1758.42,-224.55 1761.76,-230.7"/>
<text text-anchor="middle" x="1710.5" y="-260.21" font-family="Times New Roman,serif" font-size="12.00">5s</text>
</g>
<!-- &#45;1548836318819260850&#45;&gt;4572600278003539478 -->
<g id="edge10" class="edge">
<title>&#45;1548836318819260850&#45;&gt;4572600278003539478</title>
<path fill="none" stroke="black" stroke-width="1.14" d="M1581.74,-324.18C1532.72,-346.45 1443.48,-385.02 1364,-408.81 1221.6,-451.44 1044.47,-467.34 966.72,-472.56"/>
<polygon fill="black" stroke="black" stroke-width="1.14" points="966.74,-469.12 956.99,-473.26 967.19,-476.1 966.74,-469.12"/>
<text text-anchor="middle" x="1471.5" y="-387.71" font-family="Times New Roman,serif" font-size="12.00">5s</text>
</g>
<!-- &#45;1548836318819260850&#45;&gt;&#45;2828859432936935225 -->
<g id="edge11" class="edge">
<title>&#45;1548836318819260850&#45;&gt;&#45;2828859432936935225</title>
<path fill="none" stroke="black" stroke-width="2.23" d="M1544.61,-324.3C1499.04,-334.47 1439.41,-346.82 1386,-354.81 1265.71,-372.81 1122.07,-383.22 1053.81,-387.5"/>
<polygon fill="black" stroke="black" stroke-width="2.23" points="1053.96,-384.17 1044.2,-388.27 1054.39,-391.15 1053.96,-384.17"/>
<text text-anchor="middle" x="1464.5" y="-345.21" font-family="Times New Roman,serif" font-size="12.00">37s</text>
</g>
<!-- &#45;7261425491390122994 -->
<g id="node10" class="node">
<title>&#45;7261425491390122994</title>
<polygon fill="none" stroke="black" points="1171.5,-323.81 1042.5,-323.81 1042.5,-287.81 1171.5,-287.81 1171.5,-323.81"/>
<text text-anchor="middle" x="1107" y="-302.71" font-family="Times New Roman,serif" font-size="12.00">editField[q3_name[first]]</text>
</g>
<!-- &#45;7261425491390122994&#45;&gt;&#45;2828859432936935225 -->
<g id="edge12" class="edge">
<title>&#45;7261425491390122994&#45;&gt;&#45;2828859432936935225</title>
<path fill="none" stroke="black" stroke-width="1.17" d="M1087.44,-324.27C1073.99,-336.27 1055.96,-352.36 1041.13,-365.6"/>
<polygon fill="black" stroke="black" stroke-width="1.17" points="1039.4,-362.34 1034.27,-371.61 1044.06,-367.57 1039.4,-362.34"/>
<text text-anchor="middle" x="1071.5" y="-345.21" font-family="Times New Roman,serif" font-size="12.00">6s</text>
</g>
<!-- 1879159653324323843 -->
<g id="node11" class="node">
<title>1879159653324323843</title>
<polygon fill="none" stroke="black" points="1498,-323.81 1370,-323.81 1370,-287.81 1498,-287.81 1498,-323.81"/>
<text text-anchor="middle" x="1434" y="-302.71" font-family="Times New Roman,serif" font-size="12.00">editField[q3_name[last]]</text>
</g>
<!-- 1879159653324323843&#45;&gt;4572600278003539478 -->
<g id="edge13" class="edge">
<title>1879159653324323843&#45;&gt;4572600278003539478</title>
<path fill="none" stroke="black" stroke-width="1.17" d="M1419.94,-324.25C1411.09,-334.31 1398.91,-346.56 1386,-354.81 1248.99,-442.39 1050.32,-466.26 966.57,-472.59"/>
<polygon fill="black" stroke="black" stroke-width="1.17" points="966.5,-469.16 956.77,-473.36 967,-476.14 966.5,-469.16"/>
<text text-anchor="middle" x="1354.5" y="-387.71" font-family="Times New Roman,serif" font-size="12.00">6s</text>
</g>
<!-- 6075178304717725746 -->
<g id="node12" class="node">
<title>6075178304717725746</title>
<polygon fill="none" stroke="black" points="294,-323.81 190,-323.81 190,-287.81 294,-287.81 294,-323.81"/>
<text text-anchor="middle" x="242" y="-302.71" font-family="Times New Roman,serif" font-size="12.00">editField[q4_email]</text>
</g>
<!-- 6075178304717725746&#45;&gt;4572600278003539478 -->
<g id="edge14" class="edge">
<title>6075178304717725746&#45;&gt;4572600278003539478</title>
<path fill="none" stroke="black" stroke-width="1.17" d="M289.49,-324.3C350.98,-346.43 461.81,-384.58 559,-408.81 677.12,-438.27 819.69,-459.99 887.48,-469.5"/>
<polygon fill="black" stroke="black" stroke-width="1.17" points="886.71,-473.06 897.09,-470.97 887.67,-466.13 886.71,-473.06"/>
<text text-anchor="middle" x="564.5" y="-387.71" font-family="Times New Roman,serif" font-size="12.00">6s</text>
</g>
<!-- 6411501856739108121 -->
<g id="node13" class="node">
<title>6411501856739108121</title>
<polygon fill="none" stroke="black" points="172,-323.81 0,-323.81 0,-287.81 172,-287.81 172,-323.81"/>
<text text-anchor="middle" x="86" y="-302.71" font-family="Times New Roman,serif" font-size="12.00">editField[q5_address[addr_line1]]</text>
</g>
<!-- 6411501856739108121&#45;&gt;&#45;7283433983056500281 -->
<g id="edge15" class="edge">
<title>6411501856739108121&#45;&gt;&#45;7283433983056500281</title>
<path fill="none" stroke="black" stroke-width="1.03" d="M86.33,-324.3C86.62,-341.09 87,-367.19 87,-389.81 87,-561.81 87,-561.81 87,-561.81 87,-647.75 1455.97,-646.56 1768.15,-645.17"/>
<polygon fill="black" stroke="black" stroke-width="1.03" points="1767.82,-648.67 1777.81,-645.12 1767.79,-641.67 1767.82,-648.67"/>
<text text-anchor="middle" x="92.5" y="-472.71" font-family="Times New Roman,serif" font-size="12.00">2s</text>
</g>
<!-- 6411501856739108121&#45;&gt;4572600278003539478 -->
<g id="edge16" class="edge">
<title>6411501856739108121&#45;&gt;4572600278003539478</title>
<path fill="none" stroke="black" stroke-width="1.1" d="M134.9,-324.24C199.76,-346.75 318.15,-385.77 422,-408.81 517.11,-429.91 542.42,-427.04 639,-439.81 727.76,-451.54 832.11,-463.86 887.61,-470.29"/>
<polygon fill="black" stroke="black" stroke-width="1.1" points="887.02,-473.86 897.36,-471.53 887.83,-466.91 887.02,-473.86"/>
<text text-anchor="middle" x="427.5" y="-387.71" font-family="Times New Roman,serif" font-size="12.00">4s</text>
</g>
<!-- &#45;9036171747072133490 -->
<g id="node14" class="node">
<title>&#45;9036171747072133490</title>
<polygon fill="none" stroke="black" points="1351.5,-323.81 1228.5,-323.81 1228.5,-287.81 1351.5,-287.81 1351.5,-323.81"/>
<text text-anchor="middle" x="1290" y="-302.71" font-family="Times New Roman,serif" font-size="12.00">editField[q6_studentId]</text>
</g>
<!-- &#45;9036171747072133490&#45;&gt;4572600278003539478 -->
<g id="edge17" class="edge">
<title>&#45;9036171747072133490&#45;&gt;4572600278003539478</title>
<path fill="none" stroke="black" stroke-width="1.03" d="M1280.97,-323.92C1274.84,-334.11 1265.87,-346.62 1255,-354.81 1164.59,-422.94 1031.6,-455.52 966.22,-468.17"/>
<polygon fill="black" stroke="black" stroke-width="1.03" points="965.76,-464.88 956.57,-470.17 967.05,-471.76 965.76,-464.88"/>
<text text-anchor="middle" x="1229.5" y="-387.71" font-family="Times New Roman,serif" font-size="12.00">2s</text>
</g>
<!-- &#45;9036171747072133490&#45;&gt;&#45;4162420903657016109 -->
<g id="edge18" class="edge">
<title>&#45;9036171747072133490&#45;&gt;&#45;4162420903657016109</title>
<path fill="none" stroke="black" stroke-width="1.03" d="M1286.58,-287.42C1280.38,-254.9 1267.5,-182.6 1263,-121 1261.83,-105.04 1262.64,-101 1263,-85 1263.28,-72.62 1263.86,-58.93 1264.43,-47.25"/>
<polygon fill="black" stroke="black" stroke-width="1.03" points="1267.98,-47.53 1265,-37.36 1260.98,-47.17 1267.98,-47.53"/>
<text text-anchor="middle" x="1270.5" y="-142.4" font-family="Times New Roman,serif" font-size="12.00">2s</text>
</g>
<!-- 8826139826624112448 -->
<g id="node18" class="node">
<title>8826139826624112448</title>
<polygon fill="none" stroke="black" points="1326,-121 1272,-121 1272,-85 1326,-85 1326,-121"/>
<text text-anchor="middle" x="1299" y="-99.9" font-family="Times New Roman,serif" font-size="12.00">getCell</text>
</g>
<!-- &#45;9036171747072133490&#45;&gt;8826139826624112448 -->
<g id="edge19" class="edge">
<title>&#45;9036171747072133490&#45;&gt;8826139826624112448</title>
<path fill="none" stroke="black" d="M1290.78,-287.34C1292.34,-252.54 1295.85,-174.29 1297.74,-132.15"/>
<polygon fill="black" stroke="black" points="1301.27,-132.43 1298.23,-122.29 1294.28,-132.12 1301.27,-132.43"/>
<text text-anchor="middle" x="1300.5" y="-201.31" font-family="Times New Roman,serif" font-size="12.00">1s</text>
</g>
<!-- &#45;1759314400454882690 -->
<g id="node19" class="node">
<title>&#45;1759314400454882690</title>
<polygon fill="none" stroke="black" points="1378.5,-222.41 1319.5,-222.41 1319.5,-186.41 1378.5,-186.41 1378.5,-222.41"/>
<text text-anchor="middle" x="1349" y="-201.31" font-family="Times New Roman,serif" font-size="12.00">getRange</text>
</g>
<!-- &#45;9036171747072133490&#45;&gt;&#45;1759314400454882690 -->
<g id="edge20" class="edge">
<title>&#45;9036171747072133490&#45;&gt;&#45;1759314400454882690</title>
<path fill="none" stroke="black" d="M1300.28,-287.5C1309.36,-272.2 1322.74,-249.64 1333.19,-232.04"/>
<polygon fill="black" stroke="black" points="1336.55,-234.24 1338.64,-223.86 1330.53,-230.67 1336.55,-234.24"/>
<text text-anchor="middle" x="1322.5" y="-260.21" font-family="Times New Roman,serif" font-size="12.00">1s</text>
</g>
<!-- &#45;8142161333965579018 -->
<g id="node15" class="node">
<title>&#45;8142161333965579018</title>
<polygon fill="none" stroke="black" points="985.5,-323.81 812.5,-323.81 812.5,-287.81 985.5,-287.81 985.5,-323.81"/>
<text text-anchor="middle" x="899" y="-302.71" font-family="Times New Roman,serif" font-size="12.00">editField[q7_phoneNumber[area]]</text>
</g>
<!-- &#45;8142161333965579018&#45;&gt;&#45;2828859432936935225 -->
<g id="edge21" class="edge">
<title>&#45;8142161333965579018&#45;&gt;&#45;2828859432936935225</title>
<path fill="none" stroke="black" stroke-width="1.14" d="M937.06,-324.14C946.85,-329.28 957.11,-335.29 966,-341.81 975.12,-348.51 984.15,-356.93 991.87,-364.85"/>
<polygon fill="black" stroke="black" stroke-width="1.14" points="988.71,-366.65 998.12,-371.51 993.79,-361.84 988.71,-366.65"/>
<text text-anchor="middle" x="985.5" y="-345.21" font-family="Times New Roman,serif" font-size="12.00">5s</text>
</g>
<!-- @@endnode -->
<g id="node23" class="node">
<title>@@endnode</title>
<ellipse fill="none" stroke="black" cx="899" cy="-204.41" rx="30.32" ry="30.32"/>
<ellipse fill="none" stroke="black" cx="899" cy="-204.41" rx="34.31" ry="34.31"/>
<text text-anchor="start" x="889" y="-196.31" font-family="Times New Roman,serif" font-size="32.00">■</text>
</g>
<!-- &#45;8142161333965579018&#45;&gt;@@endnode -->
<g id="edge43" class="edge">
<title>&#45;8142161333965579018&#45;&gt;@@endnode</title>
<path fill="none" stroke="black" d="M899,-287.5C899,-277.07 899,-263.27 899,-249.96"/>
<polygon fill="black" stroke="black" points="902.5,-249.99 899,-239.99 895.5,-249.99 902.5,-249.99"/>
<text text-anchor="middle" x="902.5" y="-260.21" font-family="Times New Roman,serif" font-size="12.00">1</text>
</g>
<!-- 7645206821432851380 -->
<g id="node16" class="node">
<title>7645206821432851380</title>
<polygon fill="none" stroke="black" points="1922,-323.81 1740,-323.81 1740,-287.81 1922,-287.81 1922,-323.81"/>
<text text-anchor="middle" x="1831" y="-302.71" font-family="Times New Roman,serif" font-size="12.00">editField[q7_phoneNumber[phone]]</text>
</g>
<!-- 7645206821432851380&#45;&gt;&#45;7283433983056500281 -->
<g id="edge22" class="edge">
<title>7645206821432851380&#45;&gt;&#45;7283433983056500281</title>
<path fill="none" stroke="black" stroke-width="1.07" d="M1831,-324.3C1831,-341.1 1831,-367.19 1831,-389.81 1831,-561.81 1831,-561.81 1831,-561.81 1831,-580.02 1831,-600.47 1831,-616.51"/>
<polygon fill="black" stroke="black" stroke-width="1.07" points="1827.5,-616.32 1831,-626.32 1834.5,-616.32 1827.5,-616.32"/>
<text text-anchor="middle" x="1836.5" y="-472.71" font-family="Times New Roman,serif" font-size="12.00">3s</text>
</g>
<!-- 7645206821432851380&#45;&gt;&#45;4162420903657016109 -->
<g id="edge23" class="edge">
<title>7645206821432851380&#45;&gt;&#45;4162420903657016109</title>
<path fill="none" stroke="black" stroke-width="1.03" d="M1843.33,-287.56C1861.45,-259.88 1890.34,-205.11 1863,-170 1794.23,-81.67 1438.43,-36.8 1311.25,-23.4"/>
<polygon fill="black" stroke="black" stroke-width="1.03" points="1311.69,-19.83 1301.38,-22.28 1310.96,-26.79 1311.69,-19.83"/>
<text text-anchor="middle" x="1847.5" y="-142.4" font-family="Times New Roman,serif" font-size="12.00">2s</text>
</g>
<!-- 673443513727332637 -->
<g id="node17" class="node">
<title>673443513727332637</title>
<polygon fill="none" stroke="black" points="794,-323.81 646,-323.81 646,-287.81 794,-287.81 794,-323.81"/>
<text text-anchor="middle" x="720" y="-302.71" font-family="Times New Roman,serif" font-size="12.00">editField[q9_accountHolder]</text>
</g>
<!-- 673443513727332637&#45;&gt;4572600278003539478 -->
<g id="edge24" class="edge">
<title>673443513727332637&#45;&gt;4572600278003539478</title>
<path fill="none" stroke="black" stroke-width="1.14" d="M794.45,-322.29C831.73,-330.3 869.69,-339 873,-341.81 904.47,-368.59 917.83,-416.48 923.33,-446.89"/>
<polygon fill="black" stroke="black" stroke-width="1.14" points="920.02,-447.31 925.08,-456.62 926.93,-446.18 920.02,-447.31"/>
<text text-anchor="middle" x="918.5" y="-387.71" font-family="Times New Roman,serif" font-size="12.00">5s</text>
</g>
<!-- 8826139826624112448&#45;&gt;&#45;4162420903657016109 -->
<g id="edge25" class="edge">
<title>8826139826624112448&#45;&gt;&#45;4162420903657016109</title>
<path fill="none" stroke="black" stroke-width="1.03" d="M1292.16,-84.8C1287.77,-73.75 1281.96,-59.14 1276.93,-46.5"/>
<polygon fill="black" stroke="black" stroke-width="1.03" points="1279.89,-45.46 1272.94,-37.46 1273.38,-48.05 1279.89,-45.46"/>
<text text-anchor="middle" x="1289.5" y="-57.4" font-family="Times New Roman,serif" font-size="12.00">2s</text>
</g>
<!-- 8826139826624112448&#45;&gt;&#45;2828859432936935225 -->
<g id="edge26" class="edge">
<title>8826139826624112448&#45;&gt;&#45;2828859432936935225</title>
<path fill="none" stroke="black" d="M1271.87,-113.87C1216.4,-135.63 1090.51,-193.41 1034,-287.81 1020.49,-310.39 1015.88,-340.33 1014.42,-361.93"/>
<polygon fill="black" stroke="black" points="1010.88,-361.52 1013.9,-371.67 1017.88,-361.85 1010.88,-361.52"/>
<text text-anchor="middle" x="1060.5" y="-260.21" font-family="Times New Roman,serif" font-size="12.00">1s</text>
</g>
<!-- &#45;1759314400454882690&#45;&gt;8826139826624112448 -->
<g id="edge27" class="edge">
<title>&#45;1759314400454882690&#45;&gt;8826139826624112448</title>
<path fill="none" stroke="black" d="M1340.29,-186.09C1332.67,-170.93 1321.46,-148.65 1312.65,-131.13"/>
<polygon fill="black" stroke="black" points="1315.4,-129.81 1307.78,-122.45 1309.14,-132.96 1315.4,-129.81"/>
<text text-anchor="middle" x="1327.5" y="-142.4" font-family="Times New Roman,serif" font-size="12.00">1s</text>
</g>
<!-- 1246284287722020625 -->
<g id="node20" class="node">
<title>1246284287722020625</title>
<polygon fill="none" stroke="black" points="961,-578.81 893,-578.81 893,-542.81 961,-542.81 961,-578.81"/>
<text text-anchor="middle" x="927" y="-557.71" font-family="Times New Roman,serif" font-size="12.00">navigate_to</text>
</g>
<!-- 1246284287722020625&#45;&gt;4572600278003539478 -->
<g id="edge28" class="edge">
<title>1246284287722020625&#45;&gt;4572600278003539478</title>
<path fill="none" stroke="black" d="M927,-542.61C927,-531.78 927,-517.54 927,-505.07"/>
<polygon fill="black" stroke="black" points="930.5,-505.27 927,-495.27 923.5,-505.27 930.5,-505.27"/>
<text text-anchor="middle" x="932.5" y="-515.21" font-family="Times New Roman,serif" font-size="12.00">1s</text>
</g>
<!-- &#45;2828859432936935225&#45;&gt;4017203369508189456 -->
<g id="edge29" class="edge">
<title>&#45;2828859432936935225&#45;&gt;4017203369508189456</title>
<path fill="none" stroke="black" stroke-width="1.14" d="M986.65,-386.01C941.3,-379.5 852.61,-365.87 823,-354.81 812.36,-350.84 811.87,-345.09 801,-341.81 731.06,-320.7 549.75,-332.87 460.47,-323.7"/>
<polygon fill="black" stroke="black" stroke-width="1.14" points="461.14,-320.14 450.8,-322.44 460.32,-327.09 461.14,-320.14"/>
<text text-anchor="middle" x="828.5" y="-345.21" font-family="Times New Roman,serif" font-size="12.00">5s</text>
</g>
<!-- &#45;2828859432936935225&#45;&gt;2137833237022894573 -->
<g id="edge30" class="edge">
<title>&#45;2828859432936935225&#45;&gt;2137833237022894573</title>
<path fill="none" stroke="black" stroke-width="1.14" d="M986.61,-382.66C960.07,-375.7 918.72,-364.74 883,-354.81 862.94,-349.24 858.46,-345.65 838,-341.81 753.2,-325.92 727.75,-335.45 639.28,-324.01"/>
<polygon fill="black" stroke="black" stroke-width="1.14" points="639.85,-320.42 629.47,-322.55 638.91,-327.36 639.85,-320.42"/>
<text text-anchor="middle" x="888.5" y="-345.21" font-family="Times New Roman,serif" font-size="12.00">5s</text>
</g>
<!-- &#45;2828859432936935225&#45;&gt;&#45;1548836318819260850 -->
<g id="edge31" class="edge">
<title>&#45;2828859432936935225&#45;&gt;&#45;1548836318819260850</title>
<path fill="none" stroke="black" stroke-width="2.57" d="M1041.24,-388.52C1095.55,-385.55 1220.96,-376.74 1324,-354.81 1342.7,-350.83 1346.33,-345.92 1365,-341.81 1423.37,-328.97 1441.78,-332.11 1503.65,-324.19"/>
<polygon fill="black" stroke="black" stroke-width="2.57" points="1503.73,-327.31 1513.18,-322.52 1502.8,-320.38 1503.73,-327.31"/>
<text text-anchor="middle" x="1373.5" y="-345.21" font-family="Times New Roman,serif" font-size="12.00">47s</text>
</g>
<!-- &#45;2828859432936935225&#45;&gt;&#45;7261425491390122994 -->
<g id="edge32" class="edge">
<title>&#45;2828859432936935225&#45;&gt;&#45;7261425491390122994</title>
<path fill="none" stroke="black" stroke-width="1.17" d="M1041.47,-379.13C1053.96,-373.3 1068.31,-365.14 1079,-354.81 1085.27,-348.75 1090.6,-340.99 1094.88,-333.48"/>
<polygon fill="black" stroke="black" stroke-width="1.17" points="1098.35,-335.4 1099.88,-324.91 1092.15,-332.15 1098.35,-335.4"/>
<text text-anchor="middle" x="1094.5" y="-345.21" font-family="Times New Roman,serif" font-size="12.00">6s</text>
</g>
<!-- &#45;2828859432936935225&#45;&gt;1879159653324323843 -->
<g id="edge33" class="edge">
<title>&#45;2828859432936935225&#45;&gt;1879159653324323843</title>
<path fill="none" stroke="black" stroke-width="1.17" d="M1041.29,-386.91C1086.15,-381.9 1178.18,-370.63 1255,-354.81 1291.82,-347.23 1332.33,-336.57 1365.48,-327.22"/>
<polygon fill="black" stroke="black" stroke-width="1.17" points="1366.31,-330.34 1374.97,-324.23 1364.39,-323.6 1366.31,-330.34"/>
<text text-anchor="middle" x="1314.5" y="-345.21" font-family="Times New Roman,serif" font-size="12.00">6s</text>
</g>
<!-- &#45;2828859432936935225&#45;&gt;6075178304717725746 -->
<g id="edge34" class="edge">
<title>&#45;2828859432936935225&#45;&gt;6075178304717725746</title>
<path fill="none" stroke="black" stroke-width="1.17" d="M986.84,-385.7C926.89,-376.61 788.39,-355.57 786,-354.81 773.69,-350.89 772.51,-345.03 760,-341.81 664.64,-317.31 419.39,-338.17 305.05,-323.76"/>
<polygon fill="black" stroke="black" stroke-width="1.17" points="305.79,-320.18 295.4,-322.25 304.81,-327.12 305.79,-320.18"/>
<text text-anchor="middle" x="791.5" y="-345.21" font-family="Times New Roman,serif" font-size="12.00">6s</text>
</g>
<!-- &#45;2828859432936935225&#45;&gt;6411501856739108121 -->
<g id="edge35" class="edge">
<title>&#45;2828859432936935225&#45;&gt;6411501856739108121</title>
<path fill="none" stroke="black" stroke-width="1.17" d="M986.92,-385.06C964.29,-381.24 931.13,-376.01 902,-372.81 586.16,-338.17 501.59,-362.51 182.87,-323.96"/>
<polygon fill="black" stroke="black" stroke-width="1.17" points="183.76,-320.42 173.41,-322.69 182.91,-327.37 183.76,-320.42"/>
<text text-anchor="middle" x="671.5" y="-345.21" font-family="Times New Roman,serif" font-size="12.00">6s</text>
</g>
<!-- &#45;2828859432936935225&#45;&gt;&#45;9036171747072133490 -->
<g id="edge36" class="edge">
<title>&#45;2828859432936935225&#45;&gt;&#45;9036171747072133490</title>
<path fill="none" stroke="black" stroke-width="1.17" d="M1041.42,-388.38C1080.81,-385.59 1155.13,-377.53 1214,-354.81 1229.73,-348.74 1245.73,-339.24 1258.96,-330.29"/>
<polygon fill="black" stroke="black" stroke-width="1.17" points="1260.44,-333.82 1266.64,-325.23 1256.43,-328.09 1260.44,-333.82"/>
<text text-anchor="middle" x="1245.5" y="-345.21" font-family="Times New Roman,serif" font-size="12.00">6s</text>
</g>
<!-- &#45;2828859432936935225&#45;&gt;&#45;8142161333965579018 -->
<g id="edge37" class="edge">
<title>&#45;2828859432936935225&#45;&gt;&#45;8142161333965579018</title>
<path fill="none" stroke="black" stroke-width="1.17" d="M986.53,-375.63C975.77,-369.67 963.5,-362.37 953,-354.81 943.28,-347.82 933.3,-339.36 924.6,-331.51"/>
<polygon fill="black" stroke="black" stroke-width="1.17" points="927.43,-329.44 917.71,-325.23 922.69,-334.58 927.43,-329.44"/>
<text text-anchor="middle" x="958.5" y="-345.21" font-family="Times New Roman,serif" font-size="12.00">6s</text>
</g>
<!-- &#45;2828859432936935225&#45;&gt;7645206821432851380 -->
<g id="edge38" class="edge">
<title>&#45;2828859432936935225&#45;&gt;7645206821432851380</title>
<path fill="none" stroke="black" stroke-width="1.14" d="M1041.27,-387.92C1127.16,-381.92 1391.46,-363.26 1477,-354.81 1586.75,-343.97 1616.67,-340.45 1728.98,-324.08"/>
<polygon fill="black" stroke="black" stroke-width="1.14" points="1729.35,-327.41 1738.74,-322.51 1728.34,-320.49 1729.35,-327.41"/>
<text text-anchor="middle" x="1600.5" y="-345.21" font-family="Times New Roman,serif" font-size="12.00">5s</text>
</g>
<!-- &#45;2828859432936935225&#45;&gt;673443513727332637 -->
<g id="edge39" class="edge">
<title>&#45;2828859432936935225&#45;&gt;673443513727332637</title>
<path fill="none" stroke="black" stroke-width="1.14" d="M986.64,-380.48C968.13,-373.91 943.28,-364.57 922,-354.81 910.97,-349.75 909.43,-345.88 898,-341.81 860.52,-328.47 847.15,-331.53 804.94,-324.07"/>
<polygon fill="black" stroke="black" stroke-width="1.14" points="805.67,-320.46 795.2,-322.07 804.39,-327.35 805.67,-320.46"/>
<text text-anchor="middle" x="927.5" y="-345.21" font-family="Times New Roman,serif" font-size="12.00">5s</text>
</g>
<!-- &#45;2828859432936935225&#45;&gt;&#45;2828859432936935225 -->
<g id="edge40" class="edge">
<title>&#45;2828859432936935225&#45;&gt;&#45;2828859432936935225</title>
<path fill="none" stroke="black" d="M1041.24,-398.77C1051.02,-398.94 1059,-396.29 1059,-390.81 1059,-387.56 1056.19,-385.3 1051.86,-384.04"/>
<polygon fill="black" stroke="black" points="1052.57,-380.49 1042.24,-382.85 1051.79,-387.44 1052.57,-380.49"/>
<text text-anchor="middle" x="1064.5" y="-387.71" font-family="Times New Roman,serif" font-size="12.00">1s</text>
</g>
<!-- &#45;8551108795534898076&#45;&gt;4572600278003539478 -->
<g id="edge41" class="edge">
<title>&#45;8551108795534898076&#45;&gt;4572600278003539478</title>
<path fill="none" stroke="black" stroke-width="1.27" d="M1880.77,-555.97C1711.03,-541.89 1123.83,-493.15 966.2,-480.06"/>
<polygon fill="black" stroke="black" stroke-width="1.27" points="966.86,-476.52 956.61,-479.19 966.28,-483.5 966.86,-476.52"/>
<text text-anchor="middle" x="1491.5" y="-515.21" font-family="Times New Roman,serif" font-size="12.00">9s</text>
</g>
<!-- &#45;8551108795534898076&#45;&gt;8826139826624112448 -->
<g id="edge42" class="edge">
<title>&#45;8551108795534898076&#45;&gt;8826139826624112448</title>
<path fill="none" stroke="black" d="M1934.79,-542.39C1941.46,-525.86 1950,-500.14 1950,-476.81 1950,-476.81 1950,-476.81 1950,-347.31 1950,-319.55 1951.18,-306.88 1931,-287.81 1867.61,-227.92 1824.95,-262.43 1741,-238.81 1590.16,-196.38 1412.21,-140.22 1336.31,-115.98"/>
<polygon fill="black" stroke="black" points="1337.88,-112.49 1327.29,-112.78 1335.75,-119.16 1337.88,-112.49"/>
<text text-anchor="middle" x="1955.5" y="-345.21" font-family="Times New Roman,serif" font-size="12.00">1s</text>
</g>
</g>
</svg>
