<?xml version="1.0" encoding="UTF-8" standalone="no"?>
<!DOCTYPE svg PUBLIC "-//W3C//DTD SVG 1.1//EN"
 "http://www.w3.org/Graphics/SVG/1.1/DTD/svg11.dtd">
<!-- Generated by graphviz version 7.1.0 (20230121.1956)
 -->
<!-- Pages: 1 -->
<svg width="406pt" height="842pt"
 viewBox="0.00 0.00 405.50 841.81" xmlns="http://www.w3.org/2000/svg" xmlns:xlink="http://www.w3.org/1999/xlink">
<g id="graph0" class="graph" transform="scale(1 1) rotate(0) translate(4 837.81)">
<polygon fill="white" stroke="none" points="-4,4 -4,-837.81 401.5,-837.81 401.5,4 -4,4"/>
<!-- 430005019290297955 -->
<g id="node1" class="node">
<title>430005019290297955</title>
<polygon fill="none" stroke="black" points="337.5,-833.81 233.5,-833.81 233.5,-797.81 337.5,-797.81 337.5,-833.81"/>
<text text-anchor="middle" x="285.5" y="-812.71" font-family="Times New Roman,serif" font-size="12.00">clickButton[button]</text>
</g>
<!-- 6434334323557836981 -->
<g id="node12" class="node">
<title>6434334323557836981</title>
<polygon fill="none" stroke="black" points="228.5,-748.81 136.5,-748.81 136.5,-712.81 228.5,-712.81 228.5,-748.81"/>
<text text-anchor="middle" x="182.5" y="-727.71" font-family="Times New Roman,serif" font-size="12.00">selectWorksheet</text>
</g>
<!-- 430005019290297955&#45;&gt;6434334323557836981 -->
<g id="edge1" class="edge">
<title>430005019290297955&#45;&gt;6434334323557836981</title>
<path fill="none" stroke="black" stroke-width="1.08" d="M264.16,-797.61C249.34,-785.67 229.39,-769.59 212.91,-756.32"/>
<polygon fill="black" stroke="black" stroke-width="1.08" points="215.42,-753.85 205.44,-750.3 211.03,-759.3 215.42,-753.85"/>
<text text-anchor="middle" x="249" y="-770.21" font-family="Times New Roman,serif" font-size="12.00">11s</text>
</g>
<!-- &#45;8880081036350354058 -->
<g id="node2" class="node">
<title>&#45;8880081036350354058</title>
<polygon fill="none" stroke="black" points="322.5,-222.41 218.5,-222.41 218.5,-186.41 322.5,-186.41 322.5,-222.41"/>
<text text-anchor="middle" x="270.5" y="-201.31" font-family="Times New Roman,serif" font-size="12.00">clickButton[submit]</text>
</g>
<!-- &#45;1794840827520655514 -->
<g id="node3" class="node">
<title>&#45;1794840827520655514</title>
<polygon fill="none" stroke="black" points="205.5,-121 147.5,-121 147.5,-85 205.5,-85 205.5,-121"/>
<text text-anchor="middle" x="176.5" y="-99.9" font-family="Times New Roman,serif" font-size="12.00">clickLink</text>
</g>
<!-- &#45;8880081036350354058&#45;&gt;&#45;1794840827520655514 -->
<g id="edge2" class="edge">
<title>&#45;8880081036350354058&#45;&gt;&#45;1794840827520655514</title>
<path fill="none" stroke="black" stroke-width="1.07" d="M254.13,-186.09C239.39,-170.51 217.54,-147.4 200.77,-129.67"/>
<polygon fill="black" stroke="black" stroke-width="1.07" points="203.53,-127.49 194.11,-122.63 198.44,-132.3 203.53,-127.49"/>
<text text-anchor="middle" x="230" y="-142.4" font-family="Times New Roman,serif" font-size="12.00">10s</text>
</g>
<!-- 8116685484534638386 -->
<g id="node6" class="node">
<title>8116685484534638386</title>
<polygon fill="none" stroke="black" points="85,-36 0,-36 0,0 85,0 85,-36"/>
<text text-anchor="middle" x="42.5" y="-14.9" font-family="Times New Roman,serif" font-size="12.00">createNewTab</text>
</g>
<!-- &#45;1794840827520655514&#45;&gt;8116685484534638386 -->
<g id="edge3" class="edge">
<title>&#45;1794840827520655514&#45;&gt;8116685484534638386</title>
<path fill="none" stroke="black" stroke-width="1.07" d="M148.41,-84.6C128.67,-72.37 102.03,-55.87 80.4,-42.48"/>
<polygon fill="black" stroke="black" stroke-width="1.07" points="82.27,-39.52 71.93,-37.23 78.59,-45.47 82.27,-39.52"/>
<text text-anchor="middle" x="127" y="-57.4" font-family="Times New Roman,serif" font-size="12.00">10s</text>
</g>
<!-- 5979003392761407765 -->
<g id="node4" class="node">
<title>5979003392761407765</title>
<polygon fill="none" stroke="black" points="314,-663.81 257,-663.81 257,-627.81 314,-627.81 314,-663.81"/>
<text text-anchor="middle" x="285.5" y="-642.71" font-family="Times New Roman,serif" font-size="12.00">copyCell</text>
</g>
<!-- 410929837770608946 -->
<g id="node8" class="node">
<title>410929837770608946</title>
<polygon fill="none" stroke="black" points="207.5,-578.81 153.5,-578.81 153.5,-542.81 207.5,-542.81 207.5,-578.81"/>
<text text-anchor="middle" x="180.5" y="-557.71" font-family="Times New Roman,serif" font-size="12.00">getCell</text>
</g>
<!-- 5979003392761407765&#45;&gt;410929837770608946 -->
<g id="edge4" class="edge">
<title>5979003392761407765&#45;&gt;410929837770608946</title>
<path fill="none" stroke="black" d="M263.49,-627.41C248.37,-615.46 228.08,-599.43 211.36,-586.2"/>
<polygon fill="black" stroke="black" points="213.69,-583.58 203.67,-580.13 209.34,-589.07 213.69,-583.58"/>
<text text-anchor="middle" x="245" y="-600.21" font-family="Times New Roman,serif" font-size="12.00">1s</text>
</g>
<!-- &#45;1469425098975310577 -->
<g id="node11" class="node">
<title>&#45;1469425098975310577</title>
<polygon fill="none" stroke="black" points="276.5,-408.81 222.5,-408.81 222.5,-372.81 276.5,-372.81 276.5,-408.81"/>
<text text-anchor="middle" x="249.5" y="-387.71" font-family="Times New Roman,serif" font-size="12.00">paste</text>
</g>
<!-- 5979003392761407765&#45;&gt;&#45;1469425098975310577 -->
<g id="edge5" class="edge">
<title>5979003392761407765&#45;&gt;&#45;1469425098975310577</title>
<path fill="none" stroke="black" stroke-width="1.73" d="M283.32,-627.54C278.62,-590.64 267.02,-501.38 255.5,-426.81 255.24,-425.11 254.96,-423.37 254.68,-421.6"/>
<polygon fill="black" stroke="black" stroke-width="1.73" points="258.14,-421.11 253.04,-411.82 251.24,-422.26 258.14,-421.11"/>
<text text-anchor="middle" x="278" y="-515.21" font-family="Times New Roman,serif" font-size="12.00">1m</text>
</g>
<!-- 6464581609777319207 -->
<g id="node5" class="node">
<title>6464581609777319207</title>
<polygon fill="none" stroke="black" points="213.5,-493.81 145.5,-493.81 145.5,-457.81 213.5,-457.81 213.5,-493.81"/>
<text text-anchor="middle" x="179.5" y="-472.71" font-family="Times New Roman,serif" font-size="12.00">copyRange</text>
</g>
<!-- 6464581609777319207&#45;&gt;&#45;1469425098975310577 -->
<g id="edge6" class="edge">
<title>6464581609777319207&#45;&gt;&#45;1469425098975310577</title>
<path fill="none" stroke="black" stroke-width="1.08" d="M193.4,-457.34C200.77,-448.17 210.03,-436.8 218.5,-426.81 221.05,-423.81 223.74,-420.69 226.43,-417.61"/>
<polygon fill="black" stroke="black" stroke-width="1.08" points="228.84,-420.17 232.82,-410.35 223.58,-415.54 228.84,-420.17"/>
<text text-anchor="middle" x="227" y="-430.21" font-family="Times New Roman,serif" font-size="12.00">11s</text>
</g>
<!-- 8116685484534638386&#45;&gt;6434334323557836981 -->
<g id="edge7" class="edge">
<title>8116685484534638386&#45;&gt;6434334323557836981</title>
<path fill="none" stroke="black" stroke-width="1.07" d="M37.17,-36.3C32.52,-52.96 26.5,-78.96 26.5,-102 26.5,-646.81 26.5,-646.81 26.5,-646.81 26.5,-692.95 80.35,-713.53 124.77,-722.65"/>
<polygon fill="black" stroke="black" stroke-width="1.07" points="124.05,-726.07 134.53,-724.48 125.34,-719.19 124.05,-726.07"/>
<text text-anchor="middle" x="35" y="-387.71" font-family="Times New Roman,serif" font-size="12.00">10s</text>
</g>
<!-- 4656304329061748753 -->
<g id="node7" class="node">
<title>4656304329061748753</title>
<polygon fill="none" stroke="black" points="240.5,-323.81 184.5,-323.81 184.5,-287.81 240.5,-287.81 240.5,-323.81"/>
<text text-anchor="middle" x="212.5" y="-302.71" font-family="Times New Roman,serif" font-size="12.00">editField</text>
</g>
<!-- 4656304329061748753&#45;&gt;430005019290297955 -->
<g id="edge8" class="edge">
<title>4656304329061748753&#45;&gt;430005019290297955</title>
<path fill="none" stroke="black" stroke-width="1.08" d="M241,-308.26C288.93,-312.39 380.5,-328.33 380.5,-389.81 380.5,-731.81 380.5,-731.81 380.5,-731.81 380.5,-758.14 359.55,-778.04 337.33,-791.75"/>
<polygon fill="black" stroke="black" stroke-width="1.08" points="335.79,-788.6 328.86,-796.62 339.27,-794.67 335.79,-788.6"/>
<text text-anchor="middle" x="389" y="-557.71" font-family="Times New Roman,serif" font-size="12.00">11s</text>
</g>
<!-- 4656304329061748753&#45;&gt;&#45;8880081036350354058 -->
<g id="edge9" class="edge">
<title>4656304329061748753&#45;&gt;&#45;8880081036350354058</title>
<path fill="none" stroke="black" stroke-width="1.07" d="M222.6,-287.5C231.45,-272.34 244.45,-250.06 254.67,-232.53"/>
<polygon fill="black" stroke="black" stroke-width="1.07" points="257.49,-234.66 259.5,-224.25 251.44,-231.13 257.49,-234.66"/>
<text text-anchor="middle" x="249" y="-260.21" font-family="Times New Roman,serif" font-size="12.00">10s</text>
</g>
<!-- 4656304329061748753&#45;&gt;5979003392761407765 -->
<g id="edge10" class="edge">
<title>4656304329061748753&#45;&gt;5979003392761407765</title>
<path fill="none" stroke="black" stroke-width="1.57" d="M240.8,-312.85C276.84,-322.4 334.5,-344.72 334.5,-389.81 334.5,-561.81 334.5,-561.81 334.5,-561.81 334.5,-582.68 322.88,-602.91 310.95,-618.17"/>
<polygon fill="black" stroke="black" stroke-width="1.57" points="308.46,-615.7 304.72,-625.61 313.82,-620.19 308.46,-615.7"/>
<text text-anchor="middle" x="342" y="-472.71" font-family="Times New Roman,serif" font-size="12.00">1m</text>
</g>
<!-- 4656304329061748753&#45;&gt;6464581609777319207 -->
<g id="edge11" class="edge">
<title>4656304329061748753&#45;&gt;6464581609777319207</title>
<path fill="none" stroke="black" stroke-width="1.06" d="M207.15,-324.16C205.52,-329.76 203.82,-336.02 202.5,-341.81 194.35,-377.47 187.59,-419.09 183.55,-446.15"/>
<polygon fill="black" stroke="black" stroke-width="1.06" points="180.11,-445.49 182.12,-455.89 187.04,-446.5 180.11,-445.49"/>
<text text-anchor="middle" x="202" y="-387.71" font-family="Times New Roman,serif" font-size="12.00">9s</text>
</g>
<!-- 4656304329061748753&#45;&gt;410929837770608946 -->
<g id="edge12" class="edge">
<title>4656304329061748753&#45;&gt;410929837770608946</title>
<path fill="none" stroke="black" d="M200.51,-323.9C182.41,-350.85 148.91,-405.56 136.5,-457.81 132.8,-473.38 131.86,-478.5 136.5,-493.81 140.83,-508.12 149.41,-522.17 157.85,-533.6"/>
<polygon fill="black" stroke="black" points="154.97,-535.6 163.87,-541.34 160.49,-531.3 154.97,-535.6"/>
<text text-anchor="middle" x="152" y="-430.21" font-family="Times New Roman,serif" font-size="12.00">1s</text>
</g>
<!-- 2010879291915096059 -->
<g id="node9" class="node">
<title>2010879291915096059</title>
<polygon fill="none" stroke="black" points="114,-222.41 55,-222.41 55,-186.41 114,-186.41 114,-222.41"/>
<text text-anchor="middle" x="84.5" y="-201.31" font-family="Times New Roman,serif" font-size="12.00">getRange</text>
</g>
<!-- 4656304329061748753&#45;&gt;2010879291915096059 -->
<g id="edge13" class="edge">
<title>4656304329061748753&#45;&gt;2010879291915096059</title>
<path fill="none" stroke="black" d="M187.98,-287.34C169.9,-274.29 144.86,-255.84 123.5,-238.81 119.99,-236.01 116.36,-233.03 112.78,-230.03"/>
<polygon fill="black" stroke="black" points="115.16,-227.46 105.27,-223.65 110.63,-232.79 115.16,-227.46"/>
<text text-anchor="middle" x="168" y="-260.21" font-family="Times New Roman,serif" font-size="12.00">1s</text>
</g>
<!-- 4656304329061748753&#45;&gt;&#45;1469425098975310577 -->
<g id="edge14" class="edge">
<title>4656304329061748753&#45;&gt;&#45;1469425098975310577</title>
<path fill="none" stroke="black" stroke-width="1.76" d="M220.53,-324.23C223.1,-329.84 225.94,-336.08 228.5,-341.81 231.26,-347.98 234.19,-354.62 236.96,-360.93"/>
<polygon fill="black" stroke="black" stroke-width="1.76" points="233.71,-362.24 240.92,-370.01 240.13,-359.44 233.71,-362.24"/>
<text text-anchor="middle" x="242" y="-345.21" font-family="Times New Roman,serif" font-size="12.00">1m</text>
</g>
<!-- @@endnode -->
<g id="node13" class="node">
<title>@@endnode</title>
<ellipse fill="none" stroke="black" cx="166.5" cy="-204.41" rx="30.32" ry="30.32"/>
<ellipse fill="none" stroke="black" cx="166.5" cy="-204.41" rx="34.31" ry="34.31"/>
<text text-anchor="start" x="156.5" y="-196.31" font-family="Times New Roman,serif" font-size="32.00">■</text>
</g>
<!-- 4656304329061748753&#45;&gt;@@endnode -->
<g id="edge23" class="edge">
<title>4656304329061748753&#45;&gt;@@endnode</title>
<path fill="none" stroke="black" d="M204.49,-287.5C199.23,-276.13 192.11,-260.75 185.46,-246.38"/>
<polygon fill="black" stroke="black" points="188.75,-245.15 181.37,-237.54 182.39,-248.09 188.75,-245.15"/>
<text text-anchor="middle" x="199" y="-260.21" font-family="Times New Roman,serif" font-size="12.00">1</text>
</g>
<!-- 410929837770608946&#45;&gt;6464581609777319207 -->
<g id="edge15" class="edge">
<title>410929837770608946&#45;&gt;6464581609777319207</title>
<path fill="none" stroke="black" stroke-width="1.01" d="M180.29,-542.61C180.16,-531.89 179.99,-517.83 179.85,-505.45"/>
<polygon fill="black" stroke="black" stroke-width="1.01" points="183.35,-505.75 179.73,-495.8 176.35,-505.84 183.35,-505.75"/>
<text text-anchor="middle" x="186" y="-515.21" font-family="Times New Roman,serif" font-size="12.00">2s</text>
</g>
<!-- 410929837770608946&#45;&gt;&#45;1469425098975310577 -->
<g id="edge16" class="edge">
<title>410929837770608946&#45;&gt;&#45;1469425098975310577</title>
<path fill="none" stroke="black" stroke-width="1.01" d="M193.66,-542.44C202.86,-529.59 214.82,-511.35 222.5,-493.81 232.94,-469.97 240.11,-441.16 244.42,-420.25"/>
<polygon fill="black" stroke="black" stroke-width="1.01" points="247.86,-420.94 246.34,-410.45 240.99,-419.59 247.86,-420.94"/>
<text text-anchor="middle" x="241" y="-472.71" font-family="Times New Roman,serif" font-size="12.00">2s</text>
</g>
<!-- 2010879291915096059&#45;&gt;410929837770608946 -->
<g id="edge17" class="edge">
<title>2010879291915096059&#45;&gt;410929837770608946</title>
<path fill="none" stroke="black" d="M83.11,-222.63C81.63,-242.44 79.5,-275.95 79.5,-304.81 79.5,-476.81 79.5,-476.81 79.5,-476.81 79.5,-510.87 114.21,-533.52 142.93,-546.43"/>
<polygon fill="black" stroke="black" points="141.2,-549.5 151.77,-550.16 143.92,-543.05 141.2,-549.5"/>
<text text-anchor="middle" x="85" y="-387.71" font-family="Times New Roman,serif" font-size="12.00">1s</text>
</g>
<!-- &#45;1382111555709247029 -->
<g id="node10" class="node">
<title>&#45;1382111555709247029</title>
<polygon fill="none" stroke="black" points="319.5,-748.81 251.5,-748.81 251.5,-712.81 319.5,-712.81 319.5,-748.81"/>
<text text-anchor="middle" x="285.5" y="-727.71" font-family="Times New Roman,serif" font-size="12.00">navigate_to</text>
</g>
<!-- &#45;1382111555709247029&#45;&gt;5979003392761407765 -->
<g id="edge18" class="edge">
<title>&#45;1382111555709247029&#45;&gt;5979003392761407765</title>
<path fill="none" stroke="black" d="M285.5,-712.61C285.5,-701.89 285.5,-687.83 285.5,-675.45"/>
<polygon fill="black" stroke="black" points="289,-675.79 285.5,-665.79 282,-675.79 289,-675.79"/>
<text text-anchor="middle" x="291" y="-685.21" font-family="Times New Roman,serif" font-size="12.00">1s</text>
</g>
<!-- &#45;1469425098975310577&#45;&gt;4656304329061748753 -->
<g id="edge19" class="edge">
<title>&#45;1469425098975310577&#45;&gt;4656304329061748753</title>
<path fill="none" stroke="black" stroke-width="2.6" d="M223.1,-372.46C217.6,-367.47 212.55,-361.53 209.5,-354.81 207.05,-349.42 206.19,-343.34 206.23,-337.36"/>
<polygon fill="black" stroke="black" stroke-width="2.6" points="209.66,-338.18 207.2,-327.88 202.7,-337.47 209.66,-338.18"/>
<text text-anchor="middle" x="217" y="-345.21" font-family="Times New Roman,serif" font-size="12.00">3m</text>
</g>
<!-- &#45;1469425098975310577&#45;&gt;&#45;1469425098975310577 -->
<g id="edge20" class="edge">
<title>&#45;1469425098975310577&#45;&gt;&#45;1469425098975310577</title>
<path fill="none" stroke="black" stroke-width="1.01" d="M276.74,-398.77C286.52,-398.94 294.5,-396.29 294.5,-390.81 294.5,-387.73 291.98,-385.54 288.03,-384.25"/>
<polygon fill="black" stroke="black" stroke-width="1.01" points="288.61,-380.79 278.25,-383.04 287.75,-387.74 288.61,-380.79"/>
<text text-anchor="middle" x="300" y="-387.71" font-family="Times New Roman,serif" font-size="12.00">2s</text>
</g>
<!-- 6434334323557836981&#45;&gt;5979003392761407765 -->
<g id="edge21" class="edge">
<title>6434334323557836981&#45;&gt;5979003392761407765</title>
<path fill="none" stroke="black" stroke-width="1.15" d="M203.84,-712.61C218.66,-700.67 238.61,-684.59 255.09,-671.32"/>
<polygon fill="black" stroke="black" stroke-width="1.15" points="256.89,-674.36 262.48,-665.36 252.5,-668.91 256.89,-674.36"/>
<text text-anchor="middle" x="249" y="-685.21" font-family="Times New Roman,serif" font-size="12.00">20s</text>
</g>
<!-- 6434334323557836981&#45;&gt;410929837770608946 -->
<g id="edge22" class="edge">
<title>6434334323557836981&#45;&gt;410929837770608946</title>
<path fill="none" stroke="black" d="M182.29,-712.46C181.95,-683.52 181.25,-625.1 180.84,-590.12"/>
<polygon fill="black" stroke="black" points="184.34,-590.28 180.72,-580.33 177.34,-590.37 184.34,-590.28"/>
<text text-anchor="middle" x="188" y="-642.71" font-family="Times New Roman,serif" font-size="12.00">1s</text>
</g>
</g>
</svg>
