<?xml version="1.0" encoding="UTF-8" standalone="no"?>
<!DOCTYPE svg PUBLIC "-//W3C//DTD SVG 1.1//EN"
 "http://www.w3.org/Graphics/SVG/1.1/DTD/svg11.dtd">
<!-- Generated by graphviz version 7.1.0 (20230121.1956)
 -->
<!-- Pages: 1 -->
<svg width="77pt" height="247pt"
 viewBox="0.00 0.00 76.81 246.81" xmlns="http://www.w3.org/2000/svg" xmlns:xlink="http://www.w3.org/1999/xlink">
<g id="graph0" class="graph" transform="scale(1 1) rotate(0) translate(4 242.81)">
<polygon fill="white" stroke="none" points="-4,4 -4,-242.81 72.81,-242.81 72.81,4 -4,4"/>
<!-- &#45;3583450983126162731 -->
<g id="node1" class="node">
<title>&#45;3583450983126162731</title>
<polygon fill="none" stroke="black" points="62.91,-238.81 5.91,-238.81 5.91,-202.81 62.91,-202.81 62.91,-238.81"/>
<text text-anchor="middle" x="34.41" y="-217.71" font-family="Times New Roman,serif" font-size="12.00">copyCell</text>
</g>
<!-- &#45;1724725439285990221 -->
<g id="node2" class="node">
<title>&#45;1724725439285990221</title>
<polygon fill="none" stroke="black" points="61.41,-153.81 7.41,-153.81 7.41,-117.81 61.41,-117.81 61.41,-153.81"/>
<text text-anchor="middle" x="34.41" y="-132.71" font-family="Times New Roman,serif" font-size="12.00">paste</text>
</g>
<!-- &#45;3583450983126162731&#45;&gt;&#45;1724725439285990221 -->
<g id="edge1" class="edge">
<title>&#45;3583450983126162731&#45;&gt;&#45;1724725439285990221</title>
<path fill="none" stroke="black" d="M34.41,-202.61C34.41,-191.89 34.41,-177.83 34.41,-165.45"/>
<polygon fill="black" stroke="black" points="37.91,-165.79 34.41,-155.79 30.91,-165.79 37.91,-165.79"/>
<text text-anchor="middle" x="39.91" y="-175.21" font-family="Times New Roman,serif" font-size="12.00">1s</text>
</g>
<!-- @@endnode -->
<g id="node3" class="node">
<title>@@endnode</title>
<ellipse fill="none" stroke="black" cx="34.41" cy="-34.41" rx="30.32" ry="30.32"/>
<ellipse fill="none" stroke="black" cx="34.41" cy="-34.41" rx="34.31" ry="34.31"/>
<text text-anchor="start" x="24.41" y="-26.31" font-family="Times New Roman,serif" font-size="32.00">■</text>
</g>
<!-- &#45;1724725439285990221&#45;&gt;@@endnode -->
<g id="edge2" class="edge">
<title>&#45;1724725439285990221&#45;&gt;@@endnode</title>
<path fill="none" stroke="black" d="M34.41,-117.5C34.41,-107.17 34.41,-93.54 34.41,-80.36"/>
<polygon fill="black" stroke="black" points="37.91,-80.5 34.41,-70.5 30.91,-80.5 37.91,-80.5"/>
<text text-anchor="middle" x="37.91" y="-90.21" font-family="Times New Roman,serif" font-size="12.00">1</text>
</g>
</g>
</svg>
