<?xml version="1.0" encoding="UTF-8" standalone="no"?>
<!DOCTYPE svg PUBLIC "-//W3C//DTD SVG 1.1//EN"
 "http://www.w3.org/Graphics/SVG/1.1/DTD/svg11.dtd">
<!-- Generated by graphviz version 7.1.0 (20230121.1956)
 -->
<!-- Pages: 1 -->
<svg width="1408pt" height="842pt"
 viewBox="0.00 0.00 1408.00 841.81" xmlns="http://www.w3.org/2000/svg" xmlns:xlink="http://www.w3.org/1999/xlink">
<g id="graph0" class="graph" transform="scale(1 1) rotate(0) translate(4 837.81)">
<polygon fill="white" stroke="none" points="-4,4 -4,-837.81 1404,-837.81 1404,4 -4,4"/>
<!-- &#45;8421013627638508074 -->
<g id="node1" class="node">
<title>&#45;8421013627638508074</title>
<polygon fill="none" stroke="black" points="1125,-833.81 1021,-833.81 1021,-797.81 1125,-797.81 1125,-833.81"/>
<text text-anchor="middle" x="1073" y="-812.71" font-family="Times New Roman,serif" font-size="12.00">clickButton[button]</text>
</g>
<!-- &#45;2342417462293921512 -->
<g id="node25" class="node">
<title>&#45;2342417462293921512</title>
<polygon fill="none" stroke="black" points="824,-748.81 732,-748.81 732,-712.81 824,-712.81 824,-748.81"/>
<text text-anchor="middle" x="778" y="-727.71" font-family="Times New Roman,serif" font-size="12.00">selectWorksheet</text>
</g>
<!-- &#45;8421013627638508074&#45;&gt;&#45;2342417462293921512 -->
<g id="edge1" class="edge">
<title>&#45;8421013627638508074&#45;&gt;&#45;2342417462293921512</title>
<path fill="none" stroke="black" d="M1020.9,-800.99C974.57,-788.59 904.74,-769.61 835.19,-749.41"/>
<polygon fill="black" stroke="black" points="836.51,-746.15 825.93,-746.71 834.55,-752.87 836.51,-746.15"/>
<text text-anchor="middle" x="943.5" y="-770.21" font-family="Times New Roman,serif" font-size="12.00">1s</text>
</g>
<!-- &#45;349242997702854405 -->
<g id="node2" class="node">
<title>&#45;349242997702854405</title>
<polygon fill="none" stroke="black" points="806.5,-663.81 749.5,-663.81 749.5,-627.81 806.5,-627.81 806.5,-663.81"/>
<text text-anchor="middle" x="778" y="-642.71" font-family="Times New Roman,serif" font-size="12.00">copyCell</text>
</g>
<!-- 4744432682323570212 -->
<g id="node15" class="node">
<title>4744432682323570212</title>
<polygon fill="none" stroke="black" points="1339,-562.41 1217,-562.41 1217,-526.41 1339,-526.41 1339,-562.41"/>
<text text-anchor="middle" x="1278" y="-541.31" font-family="Times New Roman,serif" font-size="12.00">paste[q10_bankName]</text>
</g>
<!-- &#45;349242997702854405&#45;&gt;4744432682323570212 -->
<g id="edge2" class="edge">
<title>&#45;349242997702854405&#45;&gt;4744432682323570212</title>
<path fill="none" stroke="black" d="M806.91,-644.7C890.37,-644.04 1130.26,-639.52 1202,-609.81 1222.7,-601.24 1241.92,-584.84 1255.85,-570.74"/>
<polygon fill="black" stroke="black" points="1258.02,-573.54 1262.37,-563.88 1252.94,-568.72 1258.02,-573.54"/>
<text text-anchor="middle" x="1228.5" y="-600.21" font-family="Times New Roman,serif" font-size="12.00">1s</text>
</g>
<!-- 4604581665166516345 -->
<g id="node16" class="node">
<title>4604581665166516345</title>
<polygon fill="none" stroke="black" points="368.5,-562.41 223.5,-562.41 223.5,-526.41 368.5,-526.41 368.5,-562.41"/>
<text text-anchor="middle" x="296" y="-541.31" font-family="Times New Roman,serif" font-size="12.00">paste[q11_accountNumber]</text>
</g>
<!-- &#45;349242997702854405&#45;&gt;4604581665166516345 -->
<g id="edge3" class="edge">
<title>&#45;349242997702854405&#45;&gt;4604581665166516345</title>
<path fill="none" stroke="black" d="M749.32,-642.58C682.84,-636.86 513.58,-619.23 378,-578.81 367.06,-575.55 355.57,-571.37 344.77,-567.08"/>
<polygon fill="black" stroke="black" points="346.22,-563.89 335.64,-563.35 343.58,-570.37 346.22,-563.89"/>
<text text-anchor="middle" x="513.5" y="-600.21" font-family="Times New Roman,serif" font-size="12.00">1s</text>
</g>
<!-- &#45;802786066028636207 -->
<g id="node17" class="node">
<title>&#45;802786066028636207</title>
<polygon fill="none" stroke="black" points="501,-562.41 387,-562.41 387,-526.41 501,-526.41 501,-562.41"/>
<text text-anchor="middle" x="444" y="-541.31" font-family="Times New Roman,serif" font-size="12.00">paste[q3_name[first]]</text>
</g>
<!-- &#45;349242997702854405&#45;&gt;&#45;802786066028636207 -->
<g id="edge4" class="edge">
<title>&#45;349242997702854405&#45;&gt;&#45;802786066028636207</title>
<path fill="none" stroke="black" d="M749.11,-641.21C711.69,-636.15 644.67,-625.73 589,-609.81 552.74,-599.44 544.42,-594.23 510,-578.81 502.51,-575.45 494.64,-571.69 487.05,-567.93"/>
<polygon fill="black" stroke="black" points="488.8,-564.89 478.29,-563.53 485.66,-571.15 488.8,-564.89"/>
<text text-anchor="middle" x="594.5" y="-600.21" font-family="Times New Roman,serif" font-size="12.00">1s</text>
</g>
<!-- 5504490665134479466 -->
<g id="node19" class="node">
<title>5504490665134479466</title>
<polygon fill="none" stroke="black" points="608.5,-562.41 519.5,-562.41 519.5,-526.41 608.5,-526.41 608.5,-562.41"/>
<text text-anchor="middle" x="564" y="-541.31" font-family="Times New Roman,serif" font-size="12.00">paste[q4_email]</text>
</g>
<!-- &#45;349242997702854405&#45;&gt;5504490665134479466 -->
<g id="edge5" class="edge">
<title>&#45;349242997702854405&#45;&gt;5504490665134479466</title>
<path fill="none" stroke="black" d="M749.21,-643.8C715.94,-641.47 660.57,-633.94 620,-609.81 604.32,-600.49 590.77,-585.23 580.93,-571.91"/>
<polygon fill="black" stroke="black" points="583.92,-570.08 575.31,-563.91 578.19,-574.1 583.92,-570.08"/>
<text text-anchor="middle" x="625.5" y="-600.21" font-family="Times New Roman,serif" font-size="12.00">1s</text>
</g>
<!-- 4004908014844761737 -->
<g id="node21" class="node">
<title>4004908014844761737</title>
<polygon fill="none" stroke="black" points="915,-562.41 807,-562.41 807,-526.41 915,-526.41 915,-562.41"/>
<text text-anchor="middle" x="861" y="-541.31" font-family="Times New Roman,serif" font-size="12.00">paste[q6_studentId]</text>
</g>
<!-- &#45;349242997702854405&#45;&gt;4004908014844761737 -->
<g id="edge6" class="edge">
<title>&#45;349242997702854405&#45;&gt;4004908014844761737</title>
<path fill="none" stroke="black" d="M792.46,-627.5C805.35,-612.05 824.41,-589.22 839.16,-571.56"/>
<polygon fill="black" stroke="black" points="841.74,-573.94 845.46,-564.02 836.36,-569.45 841.74,-573.94"/>
<text text-anchor="middle" x="823.5" y="-600.21" font-family="Times New Roman,serif" font-size="12.00">1s</text>
</g>
<!-- 2070911815398967774 -->
<g id="node22" class="node">
<title>2070911815398967774</title>
<polygon fill="none" stroke="black" points="158,-562.41 0,-562.41 0,-526.41 158,-526.41 158,-562.41"/>
<text text-anchor="middle" x="79" y="-541.31" font-family="Times New Roman,serif" font-size="12.00">paste[q7_phoneNumber[area]]</text>
</g>
<!-- &#45;349242997702854405&#45;&gt;2070911815398967774 -->
<g id="edge7" class="edge">
<title>&#45;349242997702854405&#45;&gt;2070911815398967774</title>
<path fill="none" stroke="black" d="M749.29,-645.26C643.78,-646.59 277.98,-648.27 169,-609.81 144.93,-601.32 121.61,-584.3 104.74,-569.88"/>
<polygon fill="black" stroke="black" points="107.48,-567.64 97.67,-563.65 102.85,-572.89 107.48,-567.64"/>
<text text-anchor="middle" x="174.5" y="-600.21" font-family="Times New Roman,serif" font-size="12.00">1s</text>
</g>
<!-- 5144228901829614650 -->
<g id="node24" class="node">
<title>5144228901829614650</title>
<polygon fill="none" stroke="black" points="1066.5,-562.41 933.5,-562.41 933.5,-526.41 1066.5,-526.41 1066.5,-562.41"/>
<text text-anchor="middle" x="1000" y="-541.31" font-family="Times New Roman,serif" font-size="12.00">paste[q9_accountHolder]</text>
</g>
<!-- &#45;349242997702854405&#45;&gt;5144228901829614650 -->
<g id="edge8" class="edge">
<title>&#45;349242997702854405&#45;&gt;5144228901829614650</title>
<path fill="none" stroke="black" d="M806.57,-632.02C843,-615.71 906.56,-587.25 950.84,-567.42"/>
<polygon fill="black" stroke="black" points="952.01,-570.73 959.71,-563.45 949.15,-564.34 952.01,-570.73"/>
<text text-anchor="middle" x="887.5" y="-600.21" font-family="Times New Roman,serif" font-size="12.00">1s</text>
</g>
<!-- @@endnode -->
<g id="node26" class="node">
<title>@@endnode</title>
<ellipse fill="none" stroke="black" cx="708" cy="-544.41" rx="30.32" ry="30.32"/>
<ellipse fill="none" stroke="black" cx="708" cy="-544.41" rx="34.31" ry="34.31"/>
<text text-anchor="start" x="698" y="-536.31" font-family="Times New Roman,serif" font-size="32.00">■</text>
</g>
<!-- &#45;349242997702854405&#45;&gt;@@endnode -->
<g id="edge32" class="edge">
<title>&#45;349242997702854405&#45;&gt;@@endnode</title>
<path fill="none" stroke="black" d="M765.81,-627.5C757.05,-615.06 744.92,-597.83 734.03,-582.36"/>
<polygon fill="black" stroke="black" points="736.94,-580.42 728.32,-574.26 731.21,-584.45 736.94,-580.42"/>
<text text-anchor="middle" x="755.5" y="-600.21" font-family="Times New Roman,serif" font-size="12.00">1</text>
</g>
<!-- &#45;2337737116181962960 -->
<g id="node3" class="node">
<title>&#45;2337737116181962960</title>
<polygon fill="none" stroke="black" points="1167,-206 1099,-206 1099,-170 1167,-170 1167,-206"/>
<text text-anchor="middle" x="1133" y="-184.9" font-family="Times New Roman,serif" font-size="12.00">copyRange</text>
</g>
<!-- &#45;7686844205181626037 -->
<g id="node20" class="node">
<title>&#45;7686844205181626037</title>
<polygon fill="none" stroke="black" points="1320.5,-121 1163.5,-121 1163.5,-85 1320.5,-85 1320.5,-121"/>
<text text-anchor="middle" x="1242" y="-99.9" font-family="Times New Roman,serif" font-size="12.00">paste[q5_address[addr_line1]]</text>
</g>
<!-- &#45;2337737116181962960&#45;&gt;&#45;7686844205181626037 -->
<g id="edge9" class="edge">
<title>&#45;2337737116181962960&#45;&gt;&#45;7686844205181626037</title>
<path fill="none" stroke="black" d="M1155.85,-169.6C1171.69,-157.54 1192.99,-141.32 1210.45,-128.02"/>
<polygon fill="black" stroke="black" points="1212.14,-131.14 1217.98,-122.29 1207.9,-125.57 1212.14,-131.14"/>
<text text-anchor="middle" x="1199.5" y="-142.4" font-family="Times New Roman,serif" font-size="12.00">1s</text>
</g>
<!-- &#45;3417061393049347223 -->
<g id="node4" class="node">
<title>&#45;3417061393049347223</title>
<polygon fill="none" stroke="black" points="1323.5,-461 1186.5,-461 1186.5,-425 1323.5,-425 1323.5,-461"/>
<text text-anchor="middle" x="1255" y="-439.9" font-family="Times New Roman,serif" font-size="12.00">editField[q10_bankName]</text>
</g>
<!-- &#45;3417061393049347223&#45;&gt;&#45;349242997702854405 -->
<g id="edge10" class="edge">
<title>&#45;3417061393049347223&#45;&gt;&#45;349242997702854405</title>
<path fill="none" stroke="black" d="M1236.73,-461.47C1224.32,-474.07 1208.18,-491.98 1197,-510 1171.71,-550.75 1194.56,-581.3 1156,-609.81 1129.28,-629.57 910.1,-639.92 818.25,-643.42"/>
<polygon fill="black" stroke="black" points="818.31,-639.92 808.45,-643.79 818.57,-646.91 818.31,-639.92"/>
<text text-anchor="middle" x="1202.5" y="-541.31" font-family="Times New Roman,serif" font-size="12.00">1s</text>
</g>
<!-- &#45;4003299731570885441 -->
<g id="node5" class="node">
<title>&#45;4003299731570885441</title>
<polygon fill="none" stroke="black" points="372,-461 212,-461 212,-425 372,-425 372,-461"/>
<text text-anchor="middle" x="292" y="-439.9" font-family="Times New Roman,serif" font-size="12.00">editField[q11_accountNumber]</text>
</g>
<!-- &#45;4003299731570885441&#45;&gt;&#45;349242997702854405 -->
<g id="edge11" class="edge">
<title>&#45;4003299731570885441&#45;&gt;&#45;349242997702854405</title>
<path fill="none" stroke="black" d="M254.43,-461.29C235.28,-472.28 213.81,-488.52 203,-510 189.25,-537.32 182.77,-555.87 203,-578.81 238.41,-618.97 613.39,-638.01 738,-643.26"/>
<polygon fill="black" stroke="black" points="737.61,-646.74 747.74,-643.66 737.89,-639.75 737.61,-646.74"/>
<text text-anchor="middle" x="208.5" y="-541.31" font-family="Times New Roman,serif" font-size="12.00">1s</text>
</g>
<!-- 5148547196844223595 -->
<g id="node6" class="node">
<title>5148547196844223595</title>
<polygon fill="none" stroke="black" points="536.5,-461 407.5,-461 407.5,-425 536.5,-425 536.5,-461"/>
<text text-anchor="middle" x="472" y="-439.9" font-family="Times New Roman,serif" font-size="12.00">editField[q3_name[first]]</text>
</g>
<!-- &#45;4040636298552314058 -->
<g id="node18" class="node">
<title>&#45;4040636298552314058</title>
<polygon fill="none" stroke="black" points="835.5,-376 722.5,-376 722.5,-340 835.5,-340 835.5,-376"/>
<text text-anchor="middle" x="779" y="-354.9" font-family="Times New Roman,serif" font-size="12.00">paste[q3_name[last]]</text>
</g>
<!-- 5148547196844223595&#45;&gt;&#45;4040636298552314058 -->
<g id="edge12" class="edge">
<title>5148547196844223595&#45;&gt;&#45;4040636298552314058</title>
<path fill="none" stroke="black" d="M536.36,-424.6C587.65,-410.73 659.28,-391.37 711.4,-377.28"/>
<polygon fill="black" stroke="black" points="712.02,-380.74 720.76,-374.75 710.19,-373.98 712.02,-380.74"/>
<text text-anchor="middle" x="649.5" y="-397.4" font-family="Times New Roman,serif" font-size="12.00">1s</text>
</g>
<!-- 3768362607462934485 -->
<g id="node7" class="node">
<title>3768362607462934485</title>
<polygon fill="none" stroke="black" points="1109,-291 981,-291 981,-255 1109,-255 1109,-291"/>
<text text-anchor="middle" x="1045" y="-269.9" font-family="Times New Roman,serif" font-size="12.00">editField[q3_name[last]]</text>
</g>
<!-- 3768362607462934485&#45;&gt;&#45;349242997702854405 -->
<g id="edge13" class="edge">
<title>3768362607462934485&#45;&gt;&#45;349242997702854405</title>
<path fill="none" stroke="black" d="M1088.39,-291.45C1114.22,-305 1142,-326.64 1142,-357 1142,-545.41 1142,-545.41 1142,-545.41 1142,-596.42 1095.4,-593.7 1047,-609.81 968.69,-635.88 871.54,-642.66 818.04,-644.34"/>
<polygon fill="black" stroke="black" points="818.09,-640.84 808.19,-644.6 818.28,-647.84 818.09,-640.84"/>
<text text-anchor="middle" x="1147.5" y="-439.9" font-family="Times New Roman,serif" font-size="12.00">1s</text>
</g>
<!-- &#45;6653035453324865092 -->
<g id="node8" class="node">
<title>&#45;6653035453324865092</title>
<polygon fill="none" stroke="black" points="688,-461 584,-461 584,-425 688,-425 688,-461"/>
<text text-anchor="middle" x="636" y="-439.9" font-family="Times New Roman,serif" font-size="12.00">editField[q4_email]</text>
</g>
<!-- &#45;6653035453324865092&#45;&gt;&#45;349242997702854405 -->
<g id="edge14" class="edge">
<title>&#45;6653035453324865092&#45;&gt;&#45;349242997702854405</title>
<path fill="none" stroke="black" d="M633.63,-461.08C630.77,-488.51 629.08,-542.94 654,-578.81 673.9,-607.45 710.27,-624.69 738.49,-634.33"/>
<polygon fill="black" stroke="black" points="737.21,-637.59 747.8,-637.31 739.34,-630.93 737.21,-637.59"/>
<text text-anchor="middle" x="659.5" y="-541.31" font-family="Times New Roman,serif" font-size="12.00">1s</text>
</g>
<!-- 6507740163502519239 -->
<g id="node9" class="node">
<title>6507740163502519239</title>
<polygon fill="none" stroke="black" points="1400,-36 1228,-36 1228,0 1400,0 1400,-36"/>
<text text-anchor="middle" x="1314" y="-14.9" font-family="Times New Roman,serif" font-size="12.00">editField[q5_address[addr_line1]]</text>
</g>
<!-- 6507740163502519239&#45;&gt;&#45;8421013627638508074 -->
<g id="edge15" class="edge">
<title>6507740163502519239&#45;&gt;&#45;8421013627638508074</title>
<path fill="none" stroke="black" d="M1333.43,-36.41C1348.56,-51.95 1367,-76.18 1367,-102 1367,-731.81 1367,-731.81 1367,-731.81 1367,-779.33 1222.93,-800.99 1136.5,-809.71"/>
<polygon fill="black" stroke="black" points="1136.34,-806.21 1126.73,-810.67 1137.02,-813.18 1136.34,-806.21"/>
<text text-anchor="middle" x="1372.5" y="-397.4" font-family="Times New Roman,serif" font-size="12.00">1s</text>
</g>
<!-- &#45;5763552913299528894 -->
<g id="node10" class="node">
<title>&#45;5763552913299528894</title>
<polygon fill="none" stroke="black" points="891.5,-461 768.5,-461 768.5,-425 891.5,-425 891.5,-461"/>
<text text-anchor="middle" x="830" y="-439.9" font-family="Times New Roman,serif" font-size="12.00">editField[q6_studentId]</text>
</g>
<!-- &#45;5763552913299528894&#45;&gt;&#45;349242997702854405 -->
<g id="edge16" class="edge">
<title>&#45;5763552913299528894&#45;&gt;&#45;349242997702854405</title>
<path fill="none" stroke="black" d="M815.03,-461.46C805.18,-474.06 793.02,-491.97 787,-510 775.23,-545.28 774.59,-588.56 775.8,-616.41"/>
<polygon fill="black" stroke="black" points="772.29,-616.38 776.35,-626.17 779.28,-615.99 772.29,-616.38"/>
<text text-anchor="middle" x="792.5" y="-541.31" font-family="Times New Roman,serif" font-size="12.00">1s</text>
</g>
<!-- 3651796461026563911 -->
<g id="node11" class="node">
<title>3651796461026563911</title>
<polygon fill="none" stroke="black" points="177.5,-461 4.5,-461 4.5,-425 177.5,-425 177.5,-461"/>
<text text-anchor="middle" x="91" y="-439.9" font-family="Times New Roman,serif" font-size="12.00">editField[q7_phoneNumber[area]]</text>
</g>
<!-- &#45;5108575767407452370 -->
<g id="node23" class="node">
<title>&#45;5108575767407452370</title>
<polygon fill="none" stroke="black" points="656.5,-376 489.5,-376 489.5,-340 656.5,-340 656.5,-376"/>
<text text-anchor="middle" x="573" y="-354.9" font-family="Times New Roman,serif" font-size="12.00">paste[q7_phoneNumber[phone]]</text>
</g>
<!-- 3651796461026563911&#45;&gt;&#45;5108575767407452370 -->
<g id="edge17" class="edge">
<title>3651796461026563911&#45;&gt;&#45;5108575767407452370</title>
<path fill="none" stroke="black" d="M177.73,-427.07C262.38,-412.49 390.83,-390.37 478.15,-375.33"/>
<polygon fill="black" stroke="black" points="478.64,-378.8 487.9,-373.65 477.45,-371.9 478.64,-378.8"/>
<text text-anchor="middle" x="366.5" y="-397.4" font-family="Times New Roman,serif" font-size="12.00">1s</text>
</g>
<!-- 357182630398299043 -->
<g id="node12" class="node">
<title>357182630398299043</title>
<polygon fill="none" stroke="black" points="892,-291 710,-291 710,-255 892,-255 892,-291"/>
<text text-anchor="middle" x="801" y="-269.9" font-family="Times New Roman,serif" font-size="12.00">editField[q7_phoneNumber[phone]]</text>
</g>
<!-- 357182630398299043&#45;&gt;&#45;2337737116181962960 -->
<g id="edge18" class="edge">
<title>357182630398299043&#45;&gt;&#45;2337737116181962960</title>
<path fill="none" stroke="black" d="M870.6,-254.6C935.88,-238.28 1031.61,-214.35 1087.59,-200.35"/>
<polygon fill="black" stroke="black" points="1088.25,-203.79 1097.11,-197.97 1086.56,-197 1088.25,-203.79"/>
<text text-anchor="middle" x="991.5" y="-227.4" font-family="Times New Roman,serif" font-size="12.00">1s</text>
</g>
<!-- 6997094482055801526 -->
<g id="node13" class="node">
<title>6997094482055801526</title>
<polygon fill="none" stroke="black" points="1092,-461 944,-461 944,-425 1092,-425 1092,-461"/>
<text text-anchor="middle" x="1018" y="-439.9" font-family="Times New Roman,serif" font-size="12.00">editField[q9_accountHolder]</text>
</g>
<!-- 6997094482055801526&#45;&gt;&#45;349242997702854405 -->
<g id="edge19" class="edge">
<title>6997094482055801526&#45;&gt;&#45;349242997702854405</title>
<path fill="none" stroke="black" d="M1039.76,-461.38C1053,-473.43 1068.74,-490.73 1076,-510 1086.79,-538.62 1095.14,-554.96 1076,-578.81 1044.08,-618.57 891.73,-635.85 818.07,-641.98"/>
<polygon fill="black" stroke="black" points="818.15,-638.46 808.46,-642.75 818.71,-645.44 818.15,-638.46"/>
<text text-anchor="middle" x="1092.5" y="-541.31" font-family="Times New Roman,serif" font-size="12.00">1s</text>
</g>
<!-- 6102417127305744981 -->
<g id="node14" class="node">
<title>6102417127305744981</title>
<polygon fill="none" stroke="black" points="910,-748.81 842,-748.81 842,-712.81 910,-712.81 910,-748.81"/>
<text text-anchor="middle" x="876" y="-727.71" font-family="Times New Roman,serif" font-size="12.00">navigate_to</text>
</g>
<!-- 6102417127305744981&#45;&gt;&#45;349242997702854405 -->
<g id="edge20" class="edge">
<title>6102417127305744981&#45;&gt;&#45;349242997702854405</title>
<path fill="none" stroke="black" d="M855.69,-712.61C841.73,-700.79 822.96,-684.89 807.37,-671.69"/>
<polygon fill="black" stroke="black" points="809.66,-669.04 799.77,-665.25 805.14,-674.38 809.66,-669.04"/>
<text text-anchor="middle" x="838.5" y="-685.21" font-family="Times New Roman,serif" font-size="12.00">1s</text>
</g>
<!-- 4744432682323570212&#45;&gt;&#45;3417061393049347223 -->
<g id="edge21" class="edge">
<title>4744432682323570212&#45;&gt;&#45;3417061393049347223</title>
<path fill="none" stroke="black" d="M1273.99,-526.09C1270.58,-511.36 1265.62,-489.9 1261.62,-472.61"/>
<polygon fill="black" stroke="black" points="1265.04,-471.88 1259.38,-462.92 1258.22,-473.46 1265.04,-471.88"/>
<text text-anchor="middle" x="1270.5" y="-482.4" font-family="Times New Roman,serif" font-size="12.00">1s</text>
</g>
<!-- 4604581665166516345&#45;&gt;&#45;4003299731570885441 -->
<g id="edge22" class="edge">
<title>4604581665166516345&#45;&gt;&#45;4003299731570885441</title>
<path fill="none" stroke="black" d="M295.3,-526.09C294.71,-511.43 293.86,-490.1 293.16,-472.86"/>
<polygon fill="black" stroke="black" points="296.66,-472.81 292.76,-462.96 289.67,-473.1 296.66,-472.81"/>
<text text-anchor="middle" x="299.5" y="-482.4" font-family="Times New Roman,serif" font-size="12.00">1s</text>
</g>
<!-- &#45;802786066028636207&#45;&gt;5148547196844223595 -->
<g id="edge23" class="edge">
<title>&#45;802786066028636207&#45;&gt;5148547196844223595</title>
<path fill="none" stroke="black" d="M448.88,-526.09C453.07,-511.21 459.19,-489.48 464.08,-472.12"/>
<polygon fill="black" stroke="black" points="467.33,-473.48 466.67,-462.91 460.59,-471.58 467.33,-473.48"/>
<text text-anchor="middle" x="467.5" y="-482.4" font-family="Times New Roman,serif" font-size="12.00">1s</text>
</g>
<!-- &#45;4040636298552314058&#45;&gt;3768362607462934485 -->
<g id="edge24" class="edge">
<title>&#45;4040636298552314058&#45;&gt;3768362607462934485</title>
<path fill="none" stroke="black" d="M834.76,-339.6C876.61,-326.54 934.08,-308.61 978.36,-294.79"/>
<polygon fill="black" stroke="black" points="979.36,-298.15 987.87,-291.83 977.28,-291.47 979.36,-298.15"/>
<text text-anchor="middle" x="932.5" y="-312.4" font-family="Times New Roman,serif" font-size="12.00">1s</text>
</g>
<!-- 5504490665134479466&#45;&gt;&#45;6653035453324865092 -->
<g id="edge25" class="edge">
<title>5504490665134479466&#45;&gt;&#45;6653035453324865092</title>
<path fill="none" stroke="black" d="M576.54,-526.09C587.62,-510.79 603.96,-488.24 616.71,-470.64"/>
<polygon fill="black" stroke="black" points="619.44,-472.83 622.47,-462.68 613.77,-468.72 619.44,-472.83"/>
<text text-anchor="middle" x="614.5" y="-482.4" font-family="Times New Roman,serif" font-size="12.00">1s</text>
</g>
<!-- &#45;7686844205181626037&#45;&gt;6507740163502519239 -->
<g id="edge26" class="edge">
<title>&#45;7686844205181626037&#45;&gt;6507740163502519239</title>
<path fill="none" stroke="black" d="M1256.92,-84.8C1266.89,-73.31 1280.2,-57.97 1291.45,-44.99"/>
<polygon fill="black" stroke="black" points="1293.95,-47.45 1297.86,-37.6 1288.66,-42.86 1293.95,-47.45"/>
<text text-anchor="middle" x="1287.5" y="-57.4" font-family="Times New Roman,serif" font-size="12.00">1s</text>
</g>
<!-- 4004908014844761737&#45;&gt;&#45;5763552913299528894 -->
<g id="edge27" class="edge">
<title>4004908014844761737&#45;&gt;&#45;5763552913299528894</title>
<path fill="none" stroke="black" d="M855.6,-526.09C850.96,-511.21 844.18,-489.48 838.77,-472.12"/>
<polygon fill="black" stroke="black" points="842.21,-471.4 835.89,-462.9 835.53,-473.48 842.21,-471.4"/>
<text text-anchor="middle" x="849.5" y="-482.4" font-family="Times New Roman,serif" font-size="12.00">1s</text>
</g>
<!-- 2070911815398967774&#45;&gt;3651796461026563911 -->
<g id="edge28" class="edge">
<title>2070911815398967774&#45;&gt;3651796461026563911</title>
<path fill="none" stroke="black" d="M81.09,-526.09C82.86,-511.43 85.43,-490.1 87.52,-472.86"/>
<polygon fill="black" stroke="black" points="90.99,-473.3 88.71,-462.95 84.04,-472.46 90.99,-473.3"/>
<text text-anchor="middle" x="92.5" y="-482.4" font-family="Times New Roman,serif" font-size="12.00">1s</text>
</g>
<!-- &#45;5108575767407452370&#45;&gt;357182630398299043 -->
<g id="edge29" class="edge">
<title>&#45;5108575767407452370&#45;&gt;357182630398299043</title>
<path fill="none" stroke="black" d="M620.8,-339.6C656.37,-326.65 705.09,-308.91 742.91,-295.15"/>
<polygon fill="black" stroke="black" points="743.64,-298.6 751.84,-291.89 741.25,-292.03 743.64,-298.6"/>
<text text-anchor="middle" x="706.5" y="-312.4" font-family="Times New Roman,serif" font-size="12.00">1s</text>
</g>
<!-- 5144228901829614650&#45;&gt;6997094482055801526 -->
<g id="edge30" class="edge">
<title>5144228901829614650&#45;&gt;6997094482055801526</title>
<path fill="none" stroke="black" d="M1003.14,-526.09C1005.8,-511.36 1009.69,-489.9 1012.82,-472.61"/>
<polygon fill="black" stroke="black" points="1016.23,-473.4 1014.57,-462.94 1009.34,-472.16 1016.23,-473.4"/>
<text text-anchor="middle" x="1016.5" y="-482.4" font-family="Times New Roman,serif" font-size="12.00">1s</text>
</g>
<!-- &#45;2342417462293921512&#45;&gt;&#45;349242997702854405 -->
<g id="edge31" class="edge">
<title>&#45;2342417462293921512&#45;&gt;&#45;349242997702854405</title>
<path fill="none" stroke="black" d="M778,-712.61C778,-701.89 778,-687.83 778,-675.45"/>
<polygon fill="black" stroke="black" points="781.5,-675.79 778,-665.79 774.5,-675.79 781.5,-675.79"/>
<text text-anchor="middle" x="783.5" y="-685.21" font-family="Times New Roman,serif" font-size="12.00">1s</text>
</g>
</g>
</svg>
