<?xml version="1.0" encoding="UTF-8" standalone="no"?>
<!DOCTYPE svg PUBLIC "-//W3C//DTD SVG 1.1//EN"
 "http://www.w3.org/Graphics/SVG/1.1/DTD/svg11.dtd">
<!-- Generated by graphviz version 8.0.3 (20230416.2022)
 -->
<!-- Pages: 1 -->
<svg width="739pt" height="417pt"
 viewBox="0.00 0.00 738.50 416.81" xmlns="http://www.w3.org/2000/svg" xmlns:xlink="http://www.w3.org/1999/xlink">
<g id="graph0" class="graph" transform="scale(1 1) rotate(0) translate(4 412.81)">
<polygon fill="white" stroke="none" points="-4,4 -4,-412.81 734.5,-412.81 734.5,4 -4,4"/>
<!-- 4572600278003539478 -->
<g id="node1" class="node">
<title>4572600278003539478</title>
<polygon fill="none" stroke="black" points="506.5,-323.81 449.5,-323.81 449.5,-287.81 506.5,-287.81 506.5,-323.81"/>
<text text-anchor="middle" x="478" y="-302.71" font-family="Times New Roman,serif" font-size="12.00">copyCell</text>
</g>
<!-- &#45;2828859432936935225 -->
<g id="node8" class="node">
<title>&#45;2828859432936935225</title>
<polygon fill="none" stroke="black" points="407,-238.81 353,-238.81 353,-202.81 407,-202.81 407,-238.81"/>
<text text-anchor="middle" x="380" y="-217.71" font-family="Times New Roman,serif" font-size="12.00">paste</text>
</g>
<!-- 4572600278003539478&#45;&gt;&#45;2828859432936935225 -->
<g id="edge1" class="edge">
<title>4572600278003539478&#45;&gt;&#45;2828859432936935225</title>
<path fill="none" stroke="black" stroke-width="2.6" d="M457.69,-287.61C443.99,-276.01 425.66,-260.48 410.25,-247.43"/>
<polygon fill="black" stroke="black" stroke-width="2.6" points="413.51,-245.06 403.62,-241.27 408.99,-250.41 413.51,-245.06"/>
<text text-anchor="middle" x="440.5" y="-260.21" font-family="Times New Roman,serif" font-size="12.00">4s</text>
</g>
<!-- &#45;7261425491390122994 -->
<g id="node2" class="node">
<title>&#45;7261425491390122994</title>
<polygon fill="none" stroke="black" points="275.5,-153.81 146.5,-153.81 146.5,-117.81 275.5,-117.81 275.5,-153.81"/>
<text text-anchor="middle" x="211" y="-132.71" font-family="Times New Roman,serif" font-size="12.00">editField[q3_name[first]]</text>
</g>
<!-- &#45;7261425491390122994&#45;&gt;&#45;2828859432936935225 -->
<g id="edge2" class="edge">
<title>&#45;7261425491390122994&#45;&gt;&#45;2828859432936935225</title>
<path fill="none" stroke="black" d="M246.62,-154.3C274.98,-168.23 314.53,-187.66 343.2,-201.74"/>
<polygon fill="black" stroke="black" points="341.33,-205.21 351.85,-206.48 344.41,-198.93 341.33,-205.21"/>
<text text-anchor="middle" x="311.5" y="-175.21" font-family="Times New Roman,serif" font-size="12.00">1s</text>
</g>
<!-- 1879159653324323843 -->
<g id="node3" class="node">
<title>1879159653324323843</title>
<polygon fill="none" stroke="black" points="128,-153.81 0,-153.81 0,-117.81 128,-117.81 128,-153.81"/>
<text text-anchor="middle" x="64" y="-132.71" font-family="Times New Roman,serif" font-size="12.00">editField[q3_name[last]]</text>
</g>
<!-- 1879159653324323843&#45;&gt;4572600278003539478 -->
<g id="edge3" class="edge">
<title>1879159653324323843&#45;&gt;4572600278003539478</title>
<path fill="none" stroke="black" d="M107.01,-154.26C187.99,-187.13 361.9,-257.7 439.38,-289.14"/>
<polygon fill="black" stroke="black" points="437.63,-292.61 448.22,-293.13 440.27,-286.13 437.63,-292.61"/>
<text text-anchor="middle" x="318.5" y="-217.71" font-family="Times New Roman,serif" font-size="12.00">1s</text>
</g>
<!-- 6075178304717725746 -->
<g id="node4" class="node">
<title>6075178304717725746</title>
<polygon fill="none" stroke="black" points="589,-153.81 485,-153.81 485,-117.81 589,-117.81 589,-153.81"/>
<text text-anchor="middle" x="537" y="-132.71" font-family="Times New Roman,serif" font-size="12.00">editField[q4_email]</text>
</g>
<!-- 6075178304717725746&#45;&gt;4572600278003539478 -->
<g id="edge4" class="edge">
<title>6075178304717725746&#45;&gt;4572600278003539478</title>
<path fill="none" stroke="black" d="M531.03,-153.81C520.81,-182.9 499.9,-242.46 487.61,-277.45"/>
<polygon fill="black" stroke="black" points="484.1,-275.87 484.09,-286.46 490.71,-278.19 484.1,-275.87"/>
<text text-anchor="middle" x="519.5" y="-217.71" font-family="Times New Roman,serif" font-size="12.00">1s</text>
</g>
<!-- &#45;9036171747072133490 -->
<g id="node5" class="node">
<title>&#45;9036171747072133490</title>
<polygon fill="none" stroke="black" points="730.5,-153.81 607.5,-153.81 607.5,-117.81 730.5,-117.81 730.5,-153.81"/>
<text text-anchor="middle" x="669" y="-132.71" font-family="Times New Roman,serif" font-size="12.00">editField[q6_studentId]</text>
</g>
<!-- &#45;9036171747072133490&#45;&gt;4572600278003539478 -->
<g id="edge5" class="edge">
<title>&#45;9036171747072133490&#45;&gt;4572600278003539478</title>
<path fill="none" stroke="black" d="M649.39,-154.06C615.2,-184.13 544.64,-246.2 505.56,-280.57"/>
<polygon fill="black" stroke="black" points="503.92,-278.23 498.72,-287.46 508.54,-283.49 503.92,-278.23"/>
<text text-anchor="middle" x="598.5" y="-217.71" font-family="Times New Roman,serif" font-size="12.00">1s</text>
</g>
<!-- &#45;8142161333965579018 -->
<g id="node6" class="node">
<title>&#45;8142161333965579018</title>
<polygon fill="none" stroke="black" points="466.5,-153.81 293.5,-153.81 293.5,-117.81 466.5,-117.81 466.5,-153.81"/>
<text text-anchor="middle" x="380" y="-132.71" font-family="Times New Roman,serif" font-size="12.00">editField[q7_phoneNumber[area]]</text>
</g>
<!-- @@endnode -->
<g id="node9" class="node">
<title>@@endnode</title>
<ellipse fill="none" stroke="black" cx="380" cy="-34.41" rx="30.32" ry="30.32"/>
<ellipse fill="none" stroke="black" cx="380" cy="-34.41" rx="34.31" ry="34.31"/>
<text text-anchor="start" x="370" y="-26.31" font-family="Times New Roman,serif" font-size="32.00">■</text>
</g>
<!-- &#45;8142161333965579018&#45;&gt;@@endnode -->
<g id="edge12" class="edge">
<title>&#45;8142161333965579018&#45;&gt;@@endnode</title>
<path fill="none" stroke="black" d="M380,-117.5C380,-107.07 380,-93.27 380,-79.96"/>
<polygon fill="black" stroke="black" points="383.5,-79.99 380,-69.99 376.5,-79.99 383.5,-79.99"/>
<text text-anchor="middle" x="383.5" y="-90.21" font-family="Times New Roman,serif" font-size="12.00">1</text>
</g>
<!-- 1246284287722020625 -->
<g id="node7" class="node">
<title>1246284287722020625</title>
<polygon fill="none" stroke="black" points="512,-408.81 444,-408.81 444,-372.81 512,-372.81 512,-408.81"/>
<text text-anchor="middle" x="478" y="-387.71" font-family="Times New Roman,serif" font-size="12.00">navigate_to</text>
</g>
<!-- 1246284287722020625&#45;&gt;4572600278003539478 -->
<g id="edge6" class="edge">
<title>1246284287722020625&#45;&gt;4572600278003539478</title>
<path fill="none" stroke="black" d="M478,-372.61C478,-361.78 478,-347.54 478,-335.07"/>
<polygon fill="black" stroke="black" points="481.5,-335.27 478,-325.27 474.5,-335.27 481.5,-335.27"/>
<text text-anchor="middle" x="483.5" y="-345.21" font-family="Times New Roman,serif" font-size="12.00">1s</text>
</g>
<!-- &#45;2828859432936935225&#45;&gt;&#45;7261425491390122994 -->
<g id="edge7" class="edge">
<title>&#45;2828859432936935225&#45;&gt;&#45;7261425491390122994</title>
<path fill="none" stroke="black" d="M352.92,-214.03C330.17,-208.51 297.27,-198.91 271,-184.81 259.18,-178.47 247.39,-169.7 237.43,-161.4"/>
<polygon fill="black" stroke="black" points="240.05,-158.17 230.19,-154.29 235.48,-163.47 240.05,-158.17"/>
<text text-anchor="middle" x="276.5" y="-175.21" font-family="Times New Roman,serif" font-size="12.00">1s</text>
</g>
<!-- &#45;2828859432936935225&#45;&gt;1879159653324323843 -->
<g id="edge8" class="edge">
<title>&#45;2828859432936935225&#45;&gt;1879159653324323843</title>
<path fill="none" stroke="black" d="M352.52,-213.35C323.69,-206.51 277.06,-195.27 237,-184.81 203.54,-176.08 166.58,-165.9 135.45,-157.16"/>
<polygon fill="black" stroke="black" points="136.7,-153.6 126.13,-154.26 134.81,-160.34 136.7,-153.6"/>
<text text-anchor="middle" x="242.5" y="-175.21" font-family="Times New Roman,serif" font-size="12.00">1s</text>
</g>
<!-- &#45;2828859432936935225&#45;&gt;6075178304717725746 -->
<g id="edge9" class="edge">
<title>&#45;2828859432936935225&#45;&gt;6075178304717725746</title>
<path fill="none" stroke="black" d="M407.35,-202.94C423.12,-193.43 443.45,-181.54 462,-171.81 470.32,-167.45 479.28,-163.03 488.02,-158.87"/>
<polygon fill="black" stroke="black" points="489.18,-161.72 496.74,-154.3 486.2,-155.39 489.18,-161.72"/>
<text text-anchor="middle" x="467.5" y="-175.21" font-family="Times New Roman,serif" font-size="12.00">1s</text>
</g>
<!-- &#45;2828859432936935225&#45;&gt;&#45;9036171747072133490 -->
<g id="edge10" class="edge">
<title>&#45;2828859432936935225&#45;&gt;&#45;9036171747072133490</title>
<path fill="none" stroke="black" d="M407.45,-211.93C450.74,-199.5 536.25,-174.94 597.73,-157.28"/>
<polygon fill="black" stroke="black" points="598.5,-160.41 607.14,-154.29 596.56,-153.69 598.5,-160.41"/>
<text text-anchor="middle" x="547.5" y="-175.21" font-family="Times New Roman,serif" font-size="12.00">1s</text>
</g>
<!-- &#45;2828859432936935225&#45;&gt;&#45;8142161333965579018 -->
<g id="edge11" class="edge">
<title>&#45;2828859432936935225&#45;&gt;&#45;8142161333965579018</title>
<path fill="none" stroke="black" d="M380,-202.61C380,-191.78 380,-177.54 380,-165.07"/>
<polygon fill="black" stroke="black" points="383.5,-165.27 380,-155.27 376.5,-165.27 383.5,-165.27"/>
<text text-anchor="middle" x="385.5" y="-175.21" font-family="Times New Roman,serif" font-size="12.00">1s</text>
</g>
</g>
</svg>
