<?xml version="1.0" encoding="UTF-8" standalone="no"?>
<!DOCTYPE svg PUBLIC "-//W3C//DTD SVG 1.1//EN"
 "http://www.w3.org/Graphics/SVG/1.1/DTD/svg11.dtd">
<!-- Generated by graphviz version 8.0.3 (20230416.2022)
 -->
<!-- Pages: 1 -->
<svg width="385pt" height="842pt"
 viewBox="0.00 0.00 384.50 841.81" xmlns="http://www.w3.org/2000/svg" xmlns:xlink="http://www.w3.org/1999/xlink">
<g id="graph0" class="graph" transform="scale(1 1) rotate(0) translate(4 837.81)">
<polygon fill="white" stroke="none" points="-4,4 -4,-837.81 380.5,-837.81 380.5,4 -4,4"/>
<!-- &#45;5165409646973173909 -->
<g id="node1" class="node">
<title>&#45;5165409646973173909</title>
<polygon fill="none" stroke="black" points="313.5,-833.81 209.5,-833.81 209.5,-797.81 313.5,-797.81 313.5,-833.81"/>
<text text-anchor="middle" x="261.5" y="-812.71" font-family="Times New Roman,serif" font-size="12.00">clickButton[button]</text>
</g>
<!-- 8495575819858260259 -->
<g id="node12" class="node">
<title>8495575819858260259</title>
<polygon fill="none" stroke="black" points="208.5,-748.81 116.5,-748.81 116.5,-712.81 208.5,-712.81 208.5,-748.81"/>
<text text-anchor="middle" x="162.5" y="-727.71" font-family="Times New Roman,serif" font-size="12.00">selectWorksheet</text>
</g>
<!-- &#45;5165409646973173909&#45;&gt;8495575819858260259 -->
<g id="edge1" class="edge">
<title>&#45;5165409646973173909&#45;&gt;8495575819858260259</title>
<path fill="none" stroke="black" stroke-width="1.08" d="M240.99,-797.61C226.75,-785.67 207.56,-769.59 191.73,-756.32"/>
<polygon fill="black" stroke="black" stroke-width="1.08" points="194.24,-754.01 184.33,-750.27 189.74,-759.38 194.24,-754.01"/>
<text text-anchor="middle" x="227" y="-770.21" font-family="Times New Roman,serif" font-size="12.00">22s</text>
</g>
<!-- 6717867204866389648 -->
<g id="node2" class="node">
<title>6717867204866389648</title>
<polygon fill="none" stroke="black" points="198.5,-222.41 94.5,-222.41 94.5,-186.41 198.5,-186.41 198.5,-222.41"/>
<text text-anchor="middle" x="146.5" y="-201.31" font-family="Times New Roman,serif" font-size="12.00">clickButton[submit]</text>
</g>
<!-- &#45;2593804355222374208 -->
<g id="node3" class="node">
<title>&#45;2593804355222374208</title>
<polygon fill="none" stroke="black" points="258.5,-121 200.5,-121 200.5,-85 258.5,-85 258.5,-121"/>
<text text-anchor="middle" x="229.5" y="-99.9" font-family="Times New Roman,serif" font-size="12.00">clickLink</text>
</g>
<!-- 6717867204866389648&#45;&gt;&#45;2593804355222374208 -->
<g id="edge2" class="edge">
<title>6717867204866389648&#45;&gt;&#45;2593804355222374208</title>
<path fill="none" stroke="black" stroke-width="1.08" d="M160.96,-186.09C173.97,-170.51 193.26,-147.4 208.07,-129.67"/>
<polygon fill="black" stroke="black" stroke-width="1.08" points="210.21,-132.37 213.93,-122.45 204.83,-127.88 210.21,-132.37"/>
<text text-anchor="middle" x="207" y="-142.4" font-family="Times New Roman,serif" font-size="12.00">21s</text>
</g>
<!-- &#45;5679572340445933510 -->
<g id="node6" class="node">
<title>&#45;5679572340445933510</title>
<polygon fill="none" stroke="black" points="328,-36 243,-36 243,0 328,0 328,-36"/>
<text text-anchor="middle" x="285.5" y="-14.9" font-family="Times New Roman,serif" font-size="12.00">createNewTab</text>
</g>
<!-- &#45;2593804355222374208&#45;&gt;&#45;5679572340445933510 -->
<g id="edge3" class="edge">
<title>&#45;2593804355222374208&#45;&gt;&#45;5679572340445933510</title>
<path fill="none" stroke="black" stroke-width="1.08" d="M241.1,-84.8C248.79,-73.42 259.01,-58.26 267.71,-45.37"/>
<polygon fill="black" stroke="black" stroke-width="1.08" points="271.03,-47.71 273.72,-37.46 265.22,-43.79 271.03,-47.71"/>
<text text-anchor="middle" x="270" y="-57.4" font-family="Times New Roman,serif" font-size="12.00">21s</text>
</g>
<!-- &#45;6968050114622540068 -->
<g id="node4" class="node">
<title>&#45;6968050114622540068</title>
<polygon fill="none" stroke="black" points="251,-663.81 194,-663.81 194,-627.81 251,-627.81 251,-663.81"/>
<text text-anchor="middle" x="222.5" y="-642.71" font-family="Times New Roman,serif" font-size="12.00">copyCell</text>
</g>
<!-- &#45;8379406843200625498 -->
<g id="node8" class="node">
<title>&#45;8379406843200625498</title>
<polygon fill="none" stroke="black" points="142.5,-578.81 88.5,-578.81 88.5,-542.81 142.5,-542.81 142.5,-578.81"/>
<text text-anchor="middle" x="115.5" y="-557.71" font-family="Times New Roman,serif" font-size="12.00">getCell</text>
</g>
<!-- &#45;6968050114622540068&#45;&gt;&#45;8379406843200625498 -->
<g id="edge4" class="edge">
<title>&#45;6968050114622540068&#45;&gt;&#45;8379406843200625498</title>
<path fill="none" stroke="black" d="M206.6,-627.36C197.42,-617.77 185.36,-606 173.5,-596.81 166.83,-591.65 159.35,-586.63 152.03,-582.08"/>
<polygon fill="black" stroke="black" points="154.29,-578.76 143.92,-576.6 150.68,-584.75 154.29,-578.76"/>
<text text-anchor="middle" x="194" y="-600.21" font-family="Times New Roman,serif" font-size="12.00">1s</text>
</g>
<!-- &#45;9028611191506250526 -->
<g id="node11" class="node">
<title>&#45;9028611191506250526</title>
<polygon fill="none" stroke="black" points="210.5,-408.81 156.5,-408.81 156.5,-372.81 210.5,-372.81 210.5,-408.81"/>
<text text-anchor="middle" x="183.5" y="-387.71" font-family="Times New Roman,serif" font-size="12.00">paste</text>
</g>
<!-- &#45;6968050114622540068&#45;&gt;&#45;9028611191506250526 -->
<g id="edge5" class="edge">
<title>&#45;6968050114622540068&#45;&gt;&#45;9028611191506250526</title>
<path fill="none" stroke="black" stroke-width="1.75" d="M220,-627.55C214.65,-590.67 201.54,-501.45 189.5,-426.81 189.2,-424.93 188.88,-423 188.56,-421.05"/>
<polygon fill="black" stroke="black" stroke-width="1.75" points="191.68,-420.52 186.56,-411.25 184.78,-421.69 191.68,-420.52"/>
<text text-anchor="middle" x="213" y="-515.21" font-family="Times New Roman,serif" font-size="12.00">3m</text>
</g>
<!-- &#45;4725831156122046667 -->
<g id="node5" class="node">
<title>&#45;4725831156122046667</title>
<polygon fill="none" stroke="black" points="147.5,-493.81 79.5,-493.81 79.5,-457.81 147.5,-457.81 147.5,-493.81"/>
<text text-anchor="middle" x="113.5" y="-472.71" font-family="Times New Roman,serif" font-size="12.00">copyRange</text>
</g>
<!-- &#45;4725831156122046667&#45;&gt;&#45;9028611191506250526 -->
<g id="edge6" class="edge">
<title>&#45;4725831156122046667&#45;&gt;&#45;9028611191506250526</title>
<path fill="none" stroke="black" stroke-width="1.08" d="M127.4,-457.34C134.77,-448.17 144.03,-436.8 152.5,-426.81 155.12,-423.72 157.9,-420.5 160.68,-417.33"/>
<polygon fill="black" stroke="black" stroke-width="1.08" points="162.91,-419.95 166.9,-410.13 157.66,-415.32 162.91,-419.95"/>
<text text-anchor="middle" x="161" y="-430.21" font-family="Times New Roman,serif" font-size="12.00">22s</text>
</g>
<!-- &#45;5679572340445933510&#45;&gt;8495575819858260259 -->
<g id="edge7" class="edge">
<title>&#45;5679572340445933510&#45;&gt;8495575819858260259</title>
<path fill="none" stroke="black" stroke-width="1.08" d="M294.98,-36.24C303.1,-52.64 313.5,-78.28 313.5,-102 313.5,-646.81 313.5,-646.81 313.5,-646.81 313.5,-674.02 297.95,-679.43 275.5,-694.81 258.85,-706.22 238.34,-714.03 219.38,-719.32"/>
<polygon fill="black" stroke="black" stroke-width="1.08" points="218.54,-716.18 209.73,-722.07 220.29,-722.95 218.54,-716.18"/>
<text text-anchor="middle" x="322" y="-387.71" font-family="Times New Roman,serif" font-size="12.00">21s</text>
</g>
<!-- &#45;802417557823507361 -->
<g id="node7" class="node">
<title>&#45;802417557823507361</title>
<polygon fill="none" stroke="black" points="174.5,-323.81 118.5,-323.81 118.5,-287.81 174.5,-287.81 174.5,-323.81"/>
<text text-anchor="middle" x="146.5" y="-302.71" font-family="Times New Roman,serif" font-size="12.00">editField</text>
</g>
<!-- &#45;802417557823507361&#45;&gt;&#45;5165409646973173909 -->
<g id="edge8" class="edge">
<title>&#45;802417557823507361&#45;&gt;&#45;5165409646973173909</title>
<path fill="none" stroke="black" stroke-width="1.08" d="M174.78,-311.69C232.72,-322.5 359.5,-350.62 359.5,-389.81 359.5,-731.81 359.5,-731.81 359.5,-731.81 359.5,-758.56 337.98,-778.47 315.1,-792.07"/>
<polygon fill="black" stroke="black" stroke-width="1.08" points="313.67,-789.42 306.63,-797.33 317.07,-795.54 313.67,-789.42"/>
<text text-anchor="middle" x="368" y="-557.71" font-family="Times New Roman,serif" font-size="12.00">22s</text>
</g>
<!-- &#45;802417557823507361&#45;&gt;6717867204866389648 -->
<g id="edge9" class="edge">
<title>&#45;802417557823507361&#45;&gt;6717867204866389648</title>
<path fill="none" stroke="black" stroke-width="1.08" d="M146.5,-287.5C146.5,-272.62 146.5,-250.89 146.5,-233.52"/>
<polygon fill="black" stroke="black" stroke-width="1.08" points="150,-233.86 146.5,-223.86 143,-233.86 150,-233.86"/>
<text text-anchor="middle" x="155" y="-260.21" font-family="Times New Roman,serif" font-size="12.00">21s</text>
</g>
<!-- &#45;802417557823507361&#45;&gt;&#45;6968050114622540068 -->
<g id="edge10" class="edge">
<title>&#45;802417557823507361&#45;&gt;&#45;6968050114622540068</title>
<path fill="none" stroke="black" stroke-width="1.59" d="M174.78,-316.31C199.22,-326.19 232.98,-344.28 248.5,-372.81 291.82,-452.45 255.97,-564.77 235.01,-616.6"/>
<polygon fill="black" stroke="black" stroke-width="1.59" points="231.06,-614.98 230.43,-625.56 237.52,-617.68 231.06,-614.98"/>
<text text-anchor="middle" x="277" y="-472.71" font-family="Times New Roman,serif" font-size="12.00">2m</text>
</g>
<!-- &#45;802417557823507361&#45;&gt;&#45;4725831156122046667 -->
<g id="edge11" class="edge">
<title>&#45;802417557823507361&#45;&gt;&#45;4725831156122046667</title>
<path fill="none" stroke="black" stroke-width="1.07" d="M141.21,-324.18C139.6,-329.78 137.88,-336.03 136.5,-341.81 127.92,-377.71 121.19,-419.78 117.28,-446.84"/>
<polygon fill="black" stroke="black" stroke-width="1.07" points="113.72,-446.06 115.78,-456.45 120.65,-447.04 113.72,-446.06"/>
<text text-anchor="middle" x="139" y="-387.71" font-family="Times New Roman,serif" font-size="12.00">20s</text>
</g>
<!-- &#45;802417557823507361&#45;&gt;&#45;8379406843200625498 -->
<g id="edge12" class="edge">
<title>&#45;802417557823507361&#45;&gt;&#45;8379406843200625498</title>
<path fill="none" stroke="black" d="M134.51,-323.9C116.41,-350.85 82.91,-405.56 70.5,-457.81 66.8,-473.38 65.78,-478.52 70.5,-493.81 74.95,-508.24 83.76,-522.34 92.41,-533.77"/>
<polygon fill="black" stroke="black" points="90.26,-535.69 99.23,-541.33 95.73,-531.33 90.26,-535.69"/>
<text text-anchor="middle" x="86" y="-430.21" font-family="Times New Roman,serif" font-size="12.00">1s</text>
</g>
<!-- &#45;3292313364076452391 -->
<g id="node9" class="node">
<title>&#45;3292313364076452391</title>
<polygon fill="none" stroke="black" points="59,-222.41 0,-222.41 0,-186.41 59,-186.41 59,-222.41"/>
<text text-anchor="middle" x="29.5" y="-201.31" font-family="Times New Roman,serif" font-size="12.00">getRange</text>
</g>
<!-- &#45;802417557823507361&#45;&gt;&#45;3292313364076452391 -->
<g id="edge13" class="edge">
<title>&#45;802417557823507361&#45;&gt;&#45;3292313364076452391</title>
<path fill="none" stroke="black" d="M126.12,-287.5C107.36,-271.56 79.34,-247.75 58.3,-229.87"/>
<polygon fill="black" stroke="black" points="60.93,-226.66 51.04,-222.86 56.39,-232 60.93,-226.66"/>
<text text-anchor="middle" x="108" y="-260.21" font-family="Times New Roman,serif" font-size="12.00">1s</text>
</g>
<!-- &#45;802417557823507361&#45;&gt;&#45;9028611191506250526 -->
<g id="edge14" class="edge">
<title>&#45;802417557823507361&#45;&gt;&#45;9028611191506250526</title>
<path fill="none" stroke="black" stroke-width="1.75" d="M154.53,-324.23C157.1,-329.84 159.94,-336.08 162.5,-341.81 165.4,-348.3 168.49,-355.3 171.38,-361.9"/>
<polygon fill="black" stroke="black" stroke-width="1.75" points="167.78,-362.69 174.99,-370.45 174.19,-359.89 167.78,-362.69"/>
<text text-anchor="middle" x="176" y="-345.21" font-family="Times New Roman,serif" font-size="12.00">3m</text>
</g>
<!-- @@endnode -->
<g id="node13" class="node">
<title>@@endnode</title>
<ellipse fill="none" stroke="black" cx="250.5" cy="-204.41" rx="30.32" ry="30.32"/>
<ellipse fill="none" stroke="black" cx="250.5" cy="-204.41" rx="34.31" ry="34.31"/>
<text text-anchor="start" x="240.5" y="-196.31" font-family="Times New Roman,serif" font-size="32.00">■</text>
</g>
<!-- &#45;802417557823507361&#45;&gt;@@endnode -->
<g id="edge25" class="edge">
<title>&#45;802417557823507361&#45;&gt;@@endnode</title>
<path fill="none" stroke="black" d="M164.62,-287.5C179.35,-273.41 200.52,-253.18 218.15,-236.32"/>
<polygon fill="black" stroke="black" points="220.16,-239.29 224.97,-229.85 215.32,-234.23 220.16,-239.29"/>
<text text-anchor="middle" x="199" y="-260.21" font-family="Times New Roman,serif" font-size="12.00">1</text>
</g>
<!-- &#45;8379406843200625498&#45;&gt;&#45;4725831156122046667 -->
<g id="edge15" class="edge">
<title>&#45;8379406843200625498&#45;&gt;&#45;4725831156122046667</title>
<path fill="none" stroke="black" d="M115.09,-542.61C114.82,-531.78 114.48,-517.54 114.18,-505.07"/>
<polygon fill="black" stroke="black" points="117.66,-505.19 113.92,-495.27 110.66,-505.35 117.66,-505.19"/>
<text text-anchor="middle" x="121" y="-515.21" font-family="Times New Roman,serif" font-size="12.00">2s</text>
</g>
<!-- &#45;8379406843200625498&#45;&gt;&#45;9028611191506250526 -->
<g id="edge16" class="edge">
<title>&#45;8379406843200625498&#45;&gt;&#45;9028611191506250526</title>
<path fill="none" stroke="black" d="M128.33,-542.39C137.29,-529.52 148.97,-511.27 156.5,-493.81 166.85,-469.83 174.04,-440.92 178.39,-420.01"/>
<polygon fill="black" stroke="black" points="182,-420.79 180.51,-410.3 175.14,-419.43 182,-420.79"/>
<text text-anchor="middle" x="175" y="-472.71" font-family="Times New Roman,serif" font-size="12.00">2s</text>
</g>
<!-- &#45;8379406843200625498&#45;&gt;8495575819858260259 -->
<g id="edge17" class="edge">
<title>&#45;8379406843200625498&#45;&gt;8495575819858260259</title>
<path fill="none" stroke="black" d="M122.96,-579.09C125.22,-584.68 127.61,-590.96 129.5,-596.81 141,-632.47 150.84,-674.6 156.71,-701.73"/>
<polygon fill="black" stroke="black" points="153.47,-702.33 158.98,-711.38 160.32,-700.87 153.47,-702.33"/>
<text text-anchor="middle" x="154" y="-642.71" font-family="Times New Roman,serif" font-size="12.00">1s</text>
</g>
<!-- &#45;3292313364076452391&#45;&gt;&#45;8379406843200625498 -->
<g id="edge18" class="edge">
<title>&#45;3292313364076452391&#45;&gt;&#45;8379406843200625498</title>
<path fill="none" stroke="black" d="M24.67,-222.85C19.65,-242.58 12.5,-275.75 12.5,-304.81 12.5,-476.81 12.5,-476.81 12.5,-476.81 12.5,-511.63 48.63,-534.32 78.1,-547.03"/>
<polygon fill="black" stroke="black" points="76.59,-550.61 87.17,-551.12 79.22,-544.12 76.59,-550.61"/>
<text text-anchor="middle" x="18" y="-387.71" font-family="Times New Roman,serif" font-size="12.00">1s</text>
</g>
<!-- &#45;1527059423402642781 -->
<g id="node10" class="node">
<title>&#45;1527059423402642781</title>
<polygon fill="none" stroke="black" points="323.5,-748.81 255.5,-748.81 255.5,-712.81 323.5,-712.81 323.5,-748.81"/>
<text text-anchor="middle" x="289.5" y="-727.71" font-family="Times New Roman,serif" font-size="12.00">navigate_to</text>
</g>
<!-- &#45;1527059423402642781&#45;&gt;&#45;6968050114622540068 -->
<g id="edge19" class="edge">
<title>&#45;1527059423402642781&#45;&gt;&#45;6968050114622540068</title>
<path fill="none" stroke="black" d="M275.62,-712.61C266.34,-701.12 253.96,-685.78 243.48,-672.8"/>
<polygon fill="black" stroke="black" points="245.6,-670.86 236.6,-665.27 240.15,-675.25 245.6,-670.86"/>
<text text-anchor="middle" x="266" y="-685.21" font-family="Times New Roman,serif" font-size="12.00">1s</text>
</g>
<!-- &#45;9028611191506250526&#45;&gt;&#45;802417557823507361 -->
<g id="edge20" class="edge">
<title>&#45;9028611191506250526&#45;&gt;&#45;802417557823507361</title>
<path fill="none" stroke="black" stroke-width="2.6" d="M157.1,-372.46C151.6,-367.47 146.55,-361.53 143.5,-354.81 140.99,-349.27 140.15,-343 140.23,-336.86"/>
<polygon fill="black" stroke="black" stroke-width="2.6" points="144.03,-337.28 141.6,-326.96 137.06,-336.54 144.03,-337.28"/>
<text text-anchor="middle" x="151" y="-345.21" font-family="Times New Roman,serif" font-size="12.00">6m</text>
</g>
<!-- &#45;9028611191506250526&#45;&gt;&#45;9028611191506250526 -->
<g id="edge21" class="edge">
<title>&#45;9028611191506250526&#45;&gt;&#45;9028611191506250526</title>
<path fill="none" stroke="black" d="M210.74,-398.77C220.52,-398.94 228.5,-396.29 228.5,-390.81 228.5,-387.56 225.69,-385.3 221.36,-384.04"/>
<polygon fill="black" stroke="black" points="222.07,-380.49 211.74,-382.85 221.29,-387.44 222.07,-380.49"/>
<text text-anchor="middle" x="234" y="-387.71" font-family="Times New Roman,serif" font-size="12.00">2s</text>
</g>
<!-- 8495575819858260259&#45;&gt;&#45;6968050114622540068 -->
<g id="edge22" class="edge">
<title>8495575819858260259&#45;&gt;&#45;6968050114622540068</title>
<path fill="none" stroke="black" stroke-width="1.16" d="M174.93,-712.61C183.16,-701.23 194.12,-686.07 203.44,-673.18"/>
<polygon fill="black" stroke="black" stroke-width="1.16" points="205.86,-675.43 208.88,-665.27 200.18,-671.33 205.86,-675.43"/>
<text text-anchor="middle" x="205" y="-685.21" font-family="Times New Roman,serif" font-size="12.00">42s</text>
</g>
<!-- 8495575819858260259&#45;&gt;&#45;8379406843200625498 -->
<g id="edge23" class="edge">
<title>8495575819858260259&#45;&gt;&#45;8379406843200625498</title>
<path fill="none" stroke="black" d="M149.59,-712.31C140.91,-699.55 130.06,-681.47 124.5,-663.81 116.92,-639.75 114.98,-611.01 114.75,-590.18"/>
<polygon fill="black" stroke="black" points="118.26,-590.23 114.78,-580.22 111.26,-590.21 118.26,-590.23"/>
<text text-anchor="middle" x="130" y="-642.71" font-family="Times New Roman,serif" font-size="12.00">2s</text>
</g>
<!-- 8495575819858260259&#45;&gt;8495575819858260259 -->
<g id="edge24" class="edge">
<title>8495575819858260259&#45;&gt;8495575819858260259</title>
<path fill="none" stroke="black" d="M208.81,-738.57C219.05,-737.84 226.5,-735.25 226.5,-730.81 226.5,-728.17 223.87,-726.19 219.59,-724.86"/>
<polygon fill="black" stroke="black" points="220.25,-721.26 209.81,-723.06 219.1,-728.16 220.25,-721.26"/>
<text text-anchor="middle" x="232" y="-727.71" font-family="Times New Roman,serif" font-size="12.00">1s</text>
</g>
</g>
</svg>
