<?xml version="1.0" encoding="UTF-8" standalone="no"?>
<!DOCTYPE svg PUBLIC "-//W3C//DTD SVG 1.1//EN"
 "http://www.w3.org/Graphics/SVG/1.1/DTD/svg11.dtd">
<!-- Generated by graphviz version 7.1.0 (20230121.1956)
 -->
<!-- Pages: 1 -->
<svg width="671pt" height="502pt"
 viewBox="0.00 0.00 670.50 501.81" xmlns="http://www.w3.org/2000/svg" xmlns:xlink="http://www.w3.org/1999/xlink">
<g id="graph0" class="graph" transform="scale(1 1) rotate(0) translate(4 497.81)">
<polygon fill="white" stroke="none" points="-4,4 -4,-497.81 666.5,-497.81 666.5,4 -4,4"/>
<!-- &#45;349242997702854405 -->
<g id="node1" class="node">
<title>&#45;349242997702854405</title>
<polygon fill="none" stroke="black" points="401,-408.81 344,-408.81 344,-372.81 401,-372.81 401,-408.81"/>
<text text-anchor="middle" x="372.5" y="-387.71" font-family="Times New Roman,serif" font-size="12.00">copyCell</text>
</g>
<!-- &#45;802786066028636207 -->
<g id="node8" class="node">
<title>&#45;802786066028636207</title>
<polygon fill="none" stroke="black" points="120.5,-323.81 6.5,-323.81 6.5,-287.81 120.5,-287.81 120.5,-323.81"/>
<text text-anchor="middle" x="63.5" y="-302.71" font-family="Times New Roman,serif" font-size="12.00">paste[q3_name[first]]</text>
</g>
<!-- &#45;349242997702854405&#45;&gt;&#45;802786066028636207 -->
<g id="edge1" class="edge">
<title>&#45;349242997702854405&#45;&gt;&#45;802786066028636207</title>
<path fill="none" stroke="black" d="M343.77,-384.8C310.48,-378.76 254.1,-367.77 206.5,-354.81 178.2,-347.11 147.29,-336.96 121.47,-327.97"/>
<polygon fill="black" stroke="black" points="122.77,-324.72 112.17,-324.71 120.45,-331.32 122.77,-324.72"/>
<text text-anchor="middle" x="212" y="-345.21" font-family="Times New Roman,serif" font-size="12.00">1s</text>
</g>
<!-- 5504490665134479466 -->
<g id="node10" class="node">
<title>5504490665134479466</title>
<polygon fill="none" stroke="black" points="228,-323.81 139,-323.81 139,-287.81 228,-287.81 228,-323.81"/>
<text text-anchor="middle" x="183.5" y="-302.71" font-family="Times New Roman,serif" font-size="12.00">paste[q4_email]</text>
</g>
<!-- &#45;349242997702854405&#45;&gt;5504490665134479466 -->
<g id="edge2" class="edge">
<title>&#45;349242997702854405&#45;&gt;5504490665134479466</title>
<path fill="none" stroke="black" d="M343.64,-386.05C315.74,-381.56 272.91,-372.33 239.5,-354.81 228.16,-348.86 217.13,-340.23 207.9,-331.93"/>
<polygon fill="black" stroke="black" points="210.43,-329.51 200.75,-325.2 205.63,-334.6 210.43,-329.51"/>
<text text-anchor="middle" x="245" y="-345.21" font-family="Times New Roman,serif" font-size="12.00">1s</text>
</g>
<!-- 4004908014844761737 -->
<g id="node11" class="node">
<title>4004908014844761737</title>
<polygon fill="none" stroke="black" points="662.5,-323.81 554.5,-323.81 554.5,-287.81 662.5,-287.81 662.5,-323.81"/>
<text text-anchor="middle" x="608.5" y="-302.71" font-family="Times New Roman,serif" font-size="12.00">paste[q6_studentId]</text>
</g>
<!-- &#45;349242997702854405&#45;&gt;4004908014844761737 -->
<g id="edge3" class="edge">
<title>&#45;349242997702854405&#45;&gt;4004908014844761737</title>
<path fill="none" stroke="black" d="M401.33,-387.3C435.48,-383.54 493.53,-374.64 539.5,-354.81 553.56,-348.75 567.69,-339.59 579.47,-330.89"/>
<polygon fill="black" stroke="black" points="581.35,-333.86 587.16,-325 577.09,-328.3 581.35,-333.86"/>
<text text-anchor="middle" x="567" y="-345.21" font-family="Times New Roman,serif" font-size="12.00">1s</text>
</g>
<!-- 2070911815398967774 -->
<g id="node12" class="node">
<title>2070911815398967774</title>
<polygon fill="none" stroke="black" points="451.5,-323.81 293.5,-323.81 293.5,-287.81 451.5,-287.81 451.5,-323.81"/>
<text text-anchor="middle" x="372.5" y="-302.71" font-family="Times New Roman,serif" font-size="12.00">paste[q7_phoneNumber[area]]</text>
</g>
<!-- &#45;349242997702854405&#45;&gt;2070911815398967774 -->
<g id="edge4" class="edge">
<title>&#45;349242997702854405&#45;&gt;2070911815398967774</title>
<path fill="none" stroke="black" d="M372.5,-372.61C372.5,-361.89 372.5,-347.83 372.5,-335.45"/>
<polygon fill="black" stroke="black" points="376,-335.79 372.5,-325.79 369,-335.79 376,-335.79"/>
<text text-anchor="middle" x="378" y="-345.21" font-family="Times New Roman,serif" font-size="12.00">1s</text>
</g>
<!-- 5148547196844223595 -->
<g id="node2" class="node">
<title>5148547196844223595</title>
<polygon fill="none" stroke="black" points="129,-238.81 0,-238.81 0,-202.81 129,-202.81 129,-238.81"/>
<text text-anchor="middle" x="64.5" y="-217.71" font-family="Times New Roman,serif" font-size="12.00">editField[q3_name[first]]</text>
</g>
<!-- &#45;4040636298552314058 -->
<g id="node9" class="node">
<title>&#45;4040636298552314058</title>
<polygon fill="none" stroke="black" points="258,-137.41 145,-137.41 145,-101.41 258,-101.41 258,-137.41"/>
<text text-anchor="middle" x="201.5" y="-116.31" font-family="Times New Roman,serif" font-size="12.00">paste[q3_name[last]]</text>
</g>
<!-- 5148547196844223595&#45;&gt;&#45;4040636298552314058 -->
<g id="edge5" class="edge">
<title>5148547196844223595&#45;&gt;&#45;4040636298552314058</title>
<path fill="none" stroke="black" d="M88.36,-202.5C110.52,-186.42 143.73,-162.33 168.44,-144.4"/>
<polygon fill="black" stroke="black" points="170.19,-147.45 176.23,-138.74 166.08,-141.78 170.19,-147.45"/>
<text text-anchor="middle" x="135" y="-175.21" font-family="Times New Roman,serif" font-size="12.00">1s</text>
</g>
<!-- 3768362607462934485 -->
<g id="node3" class="node">
<title>3768362607462934485</title>
<polygon fill="none" stroke="black" points="427.5,-36 299.5,-36 299.5,0 427.5,0 427.5,-36"/>
<text text-anchor="middle" x="363.5" y="-14.9" font-family="Times New Roman,serif" font-size="12.00">editField[q3_name[last]]</text>
</g>
<!-- 3768362607462934485&#45;&gt;&#45;349242997702854405 -->
<g id="edge6" class="edge">
<title>3768362607462934485&#45;&gt;&#45;349242997702854405</title>
<path fill="none" stroke="black" d="M408.35,-36.35C440.99,-52.25 479.5,-79.29 479.5,-118.41 479.5,-306.81 479.5,-306.81 479.5,-306.81 479.5,-342.25 442.41,-364.73 411.9,-377.23"/>
<polygon fill="black" stroke="black" points="410.95,-373.84 402.87,-380.69 413.46,-380.38 410.95,-373.84"/>
<text text-anchor="middle" x="485" y="-217.71" font-family="Times New Roman,serif" font-size="12.00">1s</text>
</g>
<!-- &#45;6653035453324865092 -->
<g id="node4" class="node">
<title>&#45;6653035453324865092</title>
<polygon fill="none" stroke="black" points="251.5,-238.81 147.5,-238.81 147.5,-202.81 251.5,-202.81 251.5,-238.81"/>
<text text-anchor="middle" x="199.5" y="-217.71" font-family="Times New Roman,serif" font-size="12.00">editField[q4_email]</text>
</g>
<!-- &#45;6653035453324865092&#45;&gt;&#45;349242997702854405 -->
<g id="edge7" class="edge">
<title>&#45;6653035453324865092&#45;&gt;&#45;349242997702854405</title>
<path fill="none" stroke="black" d="M209.41,-239.13C222.29,-260.65 246.37,-297.74 273.5,-323.81 291.51,-341.12 314.59,-356.8 333.94,-368.53"/>
<polygon fill="black" stroke="black" points="331.98,-371.44 342.37,-373.52 335.55,-365.42 331.98,-371.44"/>
<text text-anchor="middle" x="279" y="-302.71" font-family="Times New Roman,serif" font-size="12.00">1s</text>
</g>
<!-- &#45;5763552913299528894 -->
<g id="node5" class="node">
<title>&#45;5763552913299528894</title>
<polygon fill="none" stroke="black" points="651,-238.81 528,-238.81 528,-202.81 651,-202.81 651,-238.81"/>
<text text-anchor="middle" x="589.5" y="-217.71" font-family="Times New Roman,serif" font-size="12.00">editField[q6_studentId]</text>
</g>
<!-- &#45;5763552913299528894&#45;&gt;&#45;349242997702854405 -->
<g id="edge8" class="edge">
<title>&#45;5763552913299528894&#45;&gt;&#45;349242997702854405</title>
<path fill="none" stroke="black" d="M573.83,-239.18C562.41,-252.17 546.84,-270.6 534.5,-287.81 514.16,-316.18 521.26,-333.64 493.5,-354.81 470.05,-372.7 437.73,-381.45 412.4,-385.73"/>
<polygon fill="black" stroke="black" points="412.17,-382.23 402.8,-387.17 413.21,-389.15 412.17,-382.23"/>
<text text-anchor="middle" x="540" y="-302.71" font-family="Times New Roman,serif" font-size="12.00">1s</text>
</g>
<!-- 3651796461026563911 -->
<g id="node6" class="node">
<title>3651796461026563911</title>
<polygon fill="none" stroke="black" points="443,-238.81 270,-238.81 270,-202.81 443,-202.81 443,-238.81"/>
<text text-anchor="middle" x="356.5" y="-217.71" font-family="Times New Roman,serif" font-size="12.00">editField[q7_phoneNumber[area]]</text>
</g>
<!-- @@endnode -->
<g id="node13" class="node">
<title>@@endnode</title>
<ellipse fill="none" stroke="black" cx="356.5" cy="-119.41" rx="30.32" ry="30.32"/>
<ellipse fill="none" stroke="black" cx="356.5" cy="-119.41" rx="34.31" ry="34.31"/>
<text text-anchor="start" x="346.5" y="-111.31" font-family="Times New Roman,serif" font-size="32.00">■</text>
</g>
<!-- 3651796461026563911&#45;&gt;@@endnode -->
<g id="edge15" class="edge">
<title>3651796461026563911&#45;&gt;@@endnode</title>
<path fill="none" stroke="black" d="M356.5,-202.5C356.5,-192.17 356.5,-178.54 356.5,-165.36"/>
<polygon fill="black" stroke="black" points="360,-165.5 356.5,-155.5 353,-165.5 360,-165.5"/>
<text text-anchor="middle" x="360" y="-175.21" font-family="Times New Roman,serif" font-size="12.00">1</text>
</g>
<!-- 6102417127305744981 -->
<g id="node7" class="node">
<title>6102417127305744981</title>
<polygon fill="none" stroke="black" points="406.5,-493.81 338.5,-493.81 338.5,-457.81 406.5,-457.81 406.5,-493.81"/>
<text text-anchor="middle" x="372.5" y="-472.71" font-family="Times New Roman,serif" font-size="12.00">navigate_to</text>
</g>
<!-- 6102417127305744981&#45;&gt;&#45;349242997702854405 -->
<g id="edge9" class="edge">
<title>6102417127305744981&#45;&gt;&#45;349242997702854405</title>
<path fill="none" stroke="black" d="M372.5,-457.61C372.5,-446.89 372.5,-432.83 372.5,-420.45"/>
<polygon fill="black" stroke="black" points="376,-420.79 372.5,-410.79 369,-420.79 376,-420.79"/>
<text text-anchor="middle" x="378" y="-430.21" font-family="Times New Roman,serif" font-size="12.00">1s</text>
</g>
<!-- &#45;802786066028636207&#45;&gt;5148547196844223595 -->
<g id="edge10" class="edge">
<title>&#45;802786066028636207&#45;&gt;5148547196844223595</title>
<path fill="none" stroke="black" d="M63.71,-287.61C63.84,-276.89 64.01,-262.83 64.15,-250.45"/>
<polygon fill="black" stroke="black" points="67.65,-250.83 64.27,-240.79 60.65,-250.74 67.65,-250.83"/>
<text text-anchor="middle" x="70" y="-260.21" font-family="Times New Roman,serif" font-size="12.00">1s</text>
</g>
<!-- &#45;4040636298552314058&#45;&gt;3768362607462934485 -->
<g id="edge11" class="edge">
<title>&#45;4040636298552314058&#45;&gt;3768362607462934485</title>
<path fill="none" stroke="black" d="M229.72,-101.09C256.27,-84.8 296.22,-60.28 325.56,-42.28"/>
<polygon fill="black" stroke="black" points="327.08,-45.46 333.77,-37.24 323.42,-39.49 327.08,-45.46"/>
<text text-anchor="middle" x="308" y="-57.4" font-family="Times New Roman,serif" font-size="12.00">1s</text>
</g>
<!-- 5504490665134479466&#45;&gt;&#45;6653035453324865092 -->
<g id="edge12" class="edge">
<title>5504490665134479466&#45;&gt;&#45;6653035453324865092</title>
<path fill="none" stroke="black" d="M186.82,-287.61C188.88,-276.89 191.59,-262.83 193.98,-250.45"/>
<polygon fill="black" stroke="black" points="197.39,-251.24 195.85,-240.76 190.52,-249.92 197.39,-251.24"/>
<text text-anchor="middle" x="198" y="-260.21" font-family="Times New Roman,serif" font-size="12.00">1s</text>
</g>
<!-- 4004908014844761737&#45;&gt;&#45;5763552913299528894 -->
<g id="edge13" class="edge">
<title>4004908014844761737&#45;&gt;&#45;5763552913299528894</title>
<path fill="none" stroke="black" d="M604.56,-287.61C602.11,-276.89 598.89,-262.83 596.06,-250.45"/>
<polygon fill="black" stroke="black" points="599.48,-249.71 593.83,-240.75 592.65,-251.28 599.48,-249.71"/>
<text text-anchor="middle" x="605" y="-260.21" font-family="Times New Roman,serif" font-size="12.00">1s</text>
</g>
<!-- 2070911815398967774&#45;&gt;3651796461026563911 -->
<g id="edge14" class="edge">
<title>2070911815398967774&#45;&gt;3651796461026563911</title>
<path fill="none" stroke="black" d="M369.18,-287.61C367.12,-276.89 364.41,-262.83 362.02,-250.45"/>
<polygon fill="black" stroke="black" points="365.48,-249.92 360.15,-240.76 358.61,-251.24 365.48,-249.92"/>
<text text-anchor="middle" x="371" y="-260.21" font-family="Times New Roman,serif" font-size="12.00">1s</text>
</g>
</g>
</svg>
