<?xml version="1.0" encoding="UTF-8" standalone="no"?>
<!DOCTYPE svg PUBLIC "-//W3C//DTD SVG 1.1//EN"
 "http://www.w3.org/Graphics/SVG/1.1/DTD/svg11.dtd">
<!-- Generated by graphviz version 7.1.0 (20230121.1956)
 -->
<!-- Pages: 1 -->
<svg width="311pt" height="502pt"
 viewBox="0.00 0.00 310.50 501.81" xmlns="http://www.w3.org/2000/svg" xmlns:xlink="http://www.w3.org/1999/xlink">
<g id="graph0" class="graph" transform="scale(1 1) rotate(0) translate(4 497.81)">
<polygon fill="white" stroke="none" points="-4,4 -4,-497.81 306.5,-497.81 306.5,4 -4,4"/>
<!-- &#45;7295101882954865738 -->
<g id="node1" class="node">
<title>&#45;7295101882954865738</title>
<polygon fill="none" stroke="black" points="179,-493.81 111,-493.81 111,-457.81 179,-457.81 179,-493.81"/>
<text text-anchor="middle" x="145" y="-472.71" font-family="Times New Roman,serif" font-size="12.00">clickButton</text>
</g>
<!-- 744251646738890109 -->
<g id="node3" class="node">
<title>744251646738890109</title>
<polygon fill="none" stroke="black" points="108,-408.81 50,-408.81 50,-372.81 108,-372.81 108,-408.81"/>
<text text-anchor="middle" x="79" y="-387.71" font-family="Times New Roman,serif" font-size="12.00">clickLink</text>
</g>
<!-- &#45;7295101882954865738&#45;&gt;744251646738890109 -->
<g id="edge1" class="edge">
<title>&#45;7295101882954865738&#45;&gt;744251646738890109</title>
<path fill="none" stroke="black" stroke-width="1.14" d="M129.22,-457.64C124.23,-452.05 118.78,-445.76 114,-439.81 108.49,-432.96 102.77,-425.35 97.59,-418.24"/>
<polygon fill="black" stroke="black" stroke-width="1.14" points="100.62,-416.47 91.94,-410.39 94.94,-420.56 100.62,-416.47"/>
<text text-anchor="middle" x="122.5" y="-430.21" font-family="Times New Roman,serif" font-size="12.00">46s</text>
</g>
<!-- &#45;3583450983126162731 -->
<g id="node4" class="node">
<title>&#45;3583450983126162731</title>
<polygon fill="none" stroke="black" points="147.5,-323.81 90.5,-323.81 90.5,-287.81 147.5,-287.81 147.5,-323.81"/>
<text text-anchor="middle" x="119" y="-302.71" font-family="Times New Roman,serif" font-size="12.00">copyCell</text>
</g>
<!-- &#45;7295101882954865738&#45;&gt;&#45;3583450983126162731 -->
<g id="edge2" class="edge">
<title>&#45;7295101882954865738&#45;&gt;&#45;3583450983126162731</title>
<path fill="none" stroke="black" stroke-width="1.01" d="M142.32,-457.46C137.84,-428.52 128.79,-370.1 123.38,-335.12"/>
<polygon fill="black" stroke="black" stroke-width="1.01" points="126.85,-334.67 121.86,-325.32 119.93,-335.74 126.85,-334.67"/>
<text text-anchor="middle" x="139.5" y="-387.71" font-family="Times New Roman,serif" font-size="12.00">3s</text>
</g>
<!-- 8619035905982486789 -->
<g id="node2" class="node">
<title>8619035905982486789</title>
<polygon fill="none" stroke="black" points="302.5,-52.41 217.5,-52.41 217.5,-16.41 302.5,-16.41 302.5,-52.41"/>
<text text-anchor="middle" x="260" y="-31.31" font-family="Times New Roman,serif" font-size="12.00">clickCheckbox</text>
</g>
<!-- 8429278947031473074 -->
<g id="node5" class="node">
<title>8429278947031473074</title>
<polygon fill="none" stroke="black" points="208,-153.81 152,-153.81 152,-117.81 208,-117.81 208,-153.81"/>
<text text-anchor="middle" x="180" y="-132.71" font-family="Times New Roman,serif" font-size="12.00">editField</text>
</g>
<!-- 8619035905982486789&#45;&gt;8429278947031473074 -->
<g id="edge3" class="edge">
<title>8619035905982486789&#45;&gt;8429278947031473074</title>
<path fill="none" stroke="black" stroke-width="1.12" d="M253.97,-52.86C248.63,-66.63 239.84,-85.78 228,-99.81 224.86,-103.54 221.24,-107.08 217.43,-110.38"/>
<polygon fill="black" stroke="black" stroke-width="1.12" points="215.31,-107.59 209.65,-116.55 219.66,-113.07 215.31,-107.59"/>
<text text-anchor="middle" x="245.5" y="-90.21" font-family="Times New Roman,serif" font-size="12.00">40s</text>
</g>
<!-- 744251646738890109&#45;&gt;&#45;3583450983126162731 -->
<g id="edge4" class="edge">
<title>744251646738890109&#45;&gt;&#45;3583450983126162731</title>
<path fill="none" stroke="black" stroke-width="1.14" d="M76.12,-372.63C75.31,-363.13 75.62,-351.36 80,-341.81 81.51,-338.53 83.48,-335.42 85.75,-332.51"/>
<polygon fill="black" stroke="black" stroke-width="1.14" points="88.31,-334.9 92.57,-325.2 83.19,-330.13 88.31,-334.9"/>
<text text-anchor="middle" x="88.5" y="-345.21" font-family="Times New Roman,serif" font-size="12.00">45s</text>
</g>
<!-- 2959380413082319204 -->
<g id="node6" class="node">
<title>2959380413082319204</title>
<polygon fill="none" stroke="black" points="84,-52.41 30,-52.41 30,-16.41 84,-16.41 84,-52.41"/>
<text text-anchor="middle" x="57" y="-31.31" font-family="Times New Roman,serif" font-size="12.00">getCell</text>
</g>
<!-- 744251646738890109&#45;&gt;2959380413082319204 -->
<g id="edge5" class="edge">
<title>744251646738890109&#45;&gt;2959380413082319204</title>
<path fill="none" stroke="black" d="M49.58,-374.25C27.12,-360.02 0,-336.65 0,-306.81 0,-306.81 0,-306.81 0,-134.81 0,-107.12 16.86,-80.14 32.24,-61.3"/>
<polygon fill="black" stroke="black" points="34.75,-63.75 38.6,-53.88 29.43,-59.19 34.75,-63.75"/>
<text text-anchor="middle" x="5.5" y="-217.71" font-family="Times New Roman,serif" font-size="12.00">1s</text>
</g>
<!-- &#45;1724725439285990221 -->
<g id="node7" class="node">
<title>&#45;1724725439285990221</title>
<polygon fill="none" stroke="black" points="147,-238.81 93,-238.81 93,-202.81 147,-202.81 147,-238.81"/>
<text text-anchor="middle" x="120" y="-217.71" font-family="Times New Roman,serif" font-size="12.00">paste</text>
</g>
<!-- 744251646738890109&#45;&gt;&#45;1724725439285990221 -->
<g id="edge6" class="edge">
<title>744251646738890109&#45;&gt;&#45;1724725439285990221</title>
<path fill="none" stroke="black" stroke-width="1.01" d="M73.59,-372.35C68.08,-351.64 61.58,-316.31 71,-287.81 75.84,-273.16 85.33,-259.12 94.68,-247.78"/>
<polygon fill="black" stroke="black" stroke-width="1.01" points="97.13,-250.29 101.06,-240.45 91.85,-245.7 97.13,-250.29"/>
<text text-anchor="middle" x="76.5" y="-302.71" font-family="Times New Roman,serif" font-size="12.00">3s</text>
</g>
<!-- &#45;3583450983126162731&#45;&gt;744251646738890109 -->
<g id="edge7" class="edge">
<title>&#45;3583450983126162731&#45;&gt;744251646738890109</title>
<path fill="none" stroke="black" stroke-width="1.01" d="M111.25,-324.23C107.11,-333.38 101.89,-344.75 97,-354.81 95.82,-357.25 94.57,-359.77 93.3,-362.29"/>
<polygon fill="black" stroke="black" stroke-width="1.01" points="90.24,-360.59 88.82,-371.09 96.48,-363.76 90.24,-360.59"/>
<text text-anchor="middle" x="107.5" y="-345.21" font-family="Times New Roman,serif" font-size="12.00">3s</text>
</g>
<!-- &#45;3583450983126162731&#45;&gt;&#45;1724725439285990221 -->
<g id="edge8" class="edge">
<title>&#45;3583450983126162731&#45;&gt;&#45;1724725439285990221</title>
<path fill="none" stroke="black" stroke-width="2.11" d="M113,-287.54C110.54,-278.44 108.57,-267.06 110,-256.81 110.23,-255.16 110.52,-253.47 110.86,-251.78"/>
<polygon fill="black" stroke="black" stroke-width="2.11" points="114.23,-252.7 113.27,-242.15 107.44,-251 114.23,-252.7"/>
<text text-anchor="middle" x="117.5" y="-260.21" font-family="Times New Roman,serif" font-size="12.00">5m</text>
</g>
<!-- 8429278947031473074&#45;&gt;&#45;7295101882954865738 -->
<g id="edge9" class="edge">
<title>8429278947031473074&#45;&gt;&#45;7295101882954865738</title>
<path fill="none" stroke="black" stroke-width="1.15" d="M208.35,-153.02C229.59,-167.5 255,-190.87 255,-219.81 255,-391.81 255,-391.81 255,-391.81 255,-426.12 220.49,-448.03 190.13,-460.67"/>
<polygon fill="black" stroke="black" stroke-width="1.15" points="188.88,-457.4 180.83,-464.28 191.42,-463.93 188.88,-457.4"/>
<text text-anchor="middle" x="263.5" y="-302.71" font-family="Times New Roman,serif" font-size="12.00">49s</text>
</g>
<!-- 8429278947031473074&#45;&gt;8619035905982486789 -->
<g id="edge10" class="edge">
<title>8429278947031473074&#45;&gt;8619035905982486789</title>
<path fill="none" stroke="black" stroke-width="1.12" d="M188.13,-117.63C192.99,-108.13 199.65,-96.35 207,-86.81 214.08,-77.62 222.79,-68.5 231.08,-60.55"/>
<polygon fill="black" stroke="black" stroke-width="1.12" points="233.3,-63.26 238.24,-53.89 228.53,-58.14 233.3,-63.26"/>
<text text-anchor="middle" x="215.5" y="-90.21" font-family="Times New Roman,serif" font-size="12.00">40s</text>
</g>
<!-- 8429278947031473074&#45;&gt;&#45;3583450983126162731 -->
<g id="edge11" class="edge">
<title>8429278947031473074&#45;&gt;&#45;3583450983126162731</title>
<path fill="none" stroke="black" stroke-width="1.95" d="M185.22,-154.18C190.54,-175.12 196.53,-210.97 185,-238.81 178.49,-254.52 166.23,-268.44 154.02,-279.4"/>
<polygon fill="black" stroke="black" stroke-width="1.95" points="152.01,-276.52 146.61,-285.64 156.52,-281.88 152.01,-276.52"/>
<text text-anchor="middle" x="198.5" y="-217.71" font-family="Times New Roman,serif" font-size="12.00">4m</text>
</g>
<!-- 8429278947031473074&#45;&gt;8429278947031473074 -->
<g id="edge12" class="edge">
<title>8429278947031473074&#45;&gt;8429278947031473074</title>
<path fill="none" stroke="black" d="M208.3,-143.78C218.09,-143.86 226,-141.21 226,-135.81 226,-132.78 223.5,-130.61 219.57,-129.31"/>
<polygon fill="black" stroke="black" points="220.17,-125.86 209.8,-128.04 219.27,-132.8 220.17,-125.86"/>
<text text-anchor="middle" x="231.5" y="-132.71" font-family="Times New Roman,serif" font-size="12.00">1s</text>
</g>
<!-- 8429278947031473074&#45;&gt;2959380413082319204 -->
<g id="edge13" class="edge">
<title>8429278947031473074&#45;&gt;2959380413082319204</title>
<path fill="none" stroke="black" d="M158.58,-117.5C138.85,-101.56 109.4,-77.75 87.27,-59.87"/>
<polygon fill="black" stroke="black" points="89.75,-57.37 79.77,-53.81 85.35,-62.82 89.75,-57.37"/>
<text text-anchor="middle" x="138.5" y="-90.21" font-family="Times New Roman,serif" font-size="12.00">2s</text>
</g>
<!-- 8429278947031473074&#45;&gt;&#45;1724725439285990221 -->
<g id="edge14" class="edge">
<title>8429278947031473074&#45;&gt;&#45;1724725439285990221</title>
<path fill="none" stroke="black" stroke-width="1.48" d="M168.31,-154.3C162.1,-163.47 154.27,-174.84 147,-184.81 145.08,-187.45 143.04,-190.18 140.99,-192.9"/>
<polygon fill="black" stroke="black" stroke-width="1.48" points="138.31,-190.65 135.01,-200.72 143.87,-194.91 138.31,-190.65"/>
<text text-anchor="middle" x="162.5" y="-175.21" font-family="Times New Roman,serif" font-size="12.00">2m</text>
</g>
<!-- @@endnode -->
<g id="node8" class="node">
<title>@@endnode</title>
<ellipse fill="none" stroke="black" cx="165" cy="-34.41" rx="30.32" ry="30.32"/>
<ellipse fill="none" stroke="black" cx="165" cy="-34.41" rx="34.31" ry="34.31"/>
<text text-anchor="start" x="155" y="-26.31" font-family="Times New Roman,serif" font-size="32.00">■</text>
</g>
<!-- 8429278947031473074&#45;&gt;@@endnode -->
<g id="edge20" class="edge">
<title>8429278947031473074&#45;&gt;@@endnode</title>
<path fill="none" stroke="black" d="M177.39,-117.5C175.8,-106.98 173.7,-93.04 171.67,-79.63"/>
<polygon fill="black" stroke="black" points="175.19,-79.45 170.23,-70.08 168.26,-80.49 175.19,-79.45"/>
<text text-anchor="middle" x="177.5" y="-90.21" font-family="Times New Roman,serif" font-size="12.00">1</text>
</g>
<!-- 2959380413082319204&#45;&gt;&#45;3583450983126162731 -->
<g id="edge15" class="edge">
<title>2959380413082319204&#45;&gt;&#45;3583450983126162731</title>
<path fill="none" stroke="black" stroke-width="1.01" d="M57.25,-52.73C58.2,-88.41 62.71,-172.31 84,-238.81 88.27,-252.15 95.16,-265.97 101.7,-277.5"/>
<polygon fill="black" stroke="black" stroke-width="1.01" points="98.66,-279.22 106.76,-286.05 104.68,-275.66 98.66,-279.22"/>
<text text-anchor="middle" x="75.5" y="-175.21" font-family="Times New Roman,serif" font-size="12.00">3s</text>
</g>
<!-- 2959380413082319204&#45;&gt;2959380413082319204 -->
<g id="edge16" class="edge">
<title>2959380413082319204&#45;&gt;2959380413082319204</title>
<path fill="none" stroke="black" d="M84.24,-45.44C94.02,-45.68 102,-42 102,-34.41 102,-30.13 99.48,-27.1 95.53,-25.31"/>
<polygon fill="black" stroke="black" points="96.18,-21.87 85.73,-23.63 95,-28.77 96.18,-21.87"/>
<text text-anchor="middle" x="107.5" y="-31.31" font-family="Times New Roman,serif" font-size="12.00">1s</text>
</g>
<!-- &#45;1724725439285990221&#45;&gt;&#45;3583450983126162731 -->
<g id="edge17" class="edge">
<title>&#45;1724725439285990221&#45;&gt;&#45;3583450983126162731</title>
<path fill="none" stroke="black" d="M123.39,-239.13C124.77,-248.25 125.87,-259.63 125,-269.81 124.82,-271.89 124.59,-274.02 124.31,-276.17"/>
<polygon fill="black" stroke="black" points="120.87,-275.53 122.81,-285.94 127.79,-276.59 120.87,-275.53"/>
<text text-anchor="middle" x="130.5" y="-260.21" font-family="Times New Roman,serif" font-size="12.00">1s</text>
</g>
<!-- &#45;1724725439285990221&#45;&gt;8429278947031473074 -->
<g id="edge18" class="edge">
<title>&#45;1724725439285990221&#45;&gt;8429278947031473074</title>
<path fill="none" stroke="black" stroke-width="2.6" d="M119.61,-202.63C120.15,-192.91 122.15,-180.91 128,-171.81 131.34,-166.63 135.74,-162.02 140.58,-158"/>
<polygon fill="black" stroke="black" stroke-width="2.6" points="142.32,-161.05 148.42,-152.39 138.25,-155.36 142.32,-161.05"/>
<text text-anchor="middle" x="135.5" y="-175.21" font-family="Times New Roman,serif" font-size="12.00">8m</text>
</g>
<!-- &#45;1724725439285990221&#45;&gt;&#45;1724725439285990221 -->
<g id="edge19" class="edge">
<title>&#45;1724725439285990221&#45;&gt;&#45;1724725439285990221</title>
<path fill="none" stroke="black" d="M147.24,-228.77C157.02,-228.94 165,-226.29 165,-220.81 165,-217.73 162.48,-215.54 158.53,-214.25"/>
<polygon fill="black" stroke="black" points="159.1,-210.79 148.75,-213.04 158.24,-217.74 159.1,-210.79"/>
<text text-anchor="middle" x="170.5" y="-217.71" font-family="Times New Roman,serif" font-size="12.00">2s</text>
</g>
</g>
</svg>
