<?xml version="1.0" encoding="UTF-8" standalone="no"?>
<!DOCTYPE svg PUBLIC "-//W3C//DTD SVG 1.1//EN"
 "http://www.w3.org/Graphics/SVG/1.1/DTD/svg11.dtd">
<!-- Generated by graphviz version 7.1.0 (20230121.1956)
 -->
<!-- Pages: 1 -->
<svg width="174pt" height="247pt"
 viewBox="0.00 0.00 174.00 246.81" xmlns="http://www.w3.org/2000/svg" xmlns:xlink="http://www.w3.org/1999/xlink">
<g id="graph0" class="graph" transform="scale(1 1) rotate(0) translate(4 242.81)">
<polygon fill="white" stroke="none" points="-4,4 -4,-242.81 170,-242.81 170,4 -4,4"/>
<!-- &#45;3583450983126162731 -->
<g id="node1" class="node">
<title>&#45;3583450983126162731</title>
<polygon fill="none" stroke="black" points="134.5,-238.81 77.5,-238.81 77.5,-202.81 134.5,-202.81 134.5,-238.81"/>
<text text-anchor="middle" x="106" y="-217.71" font-family="Times New Roman,serif" font-size="12.00">copyCell</text>
</g>
<!-- &#45;1724725439285990221 -->
<g id="node3" class="node">
<title>&#45;1724725439285990221</title>
<polygon fill="none" stroke="black" points="54,-137.41 0,-137.41 0,-101.41 54,-101.41 54,-137.41"/>
<text text-anchor="middle" x="27" y="-116.31" font-family="Times New Roman,serif" font-size="12.00">paste</text>
</g>
<!-- &#45;3583450983126162731&#45;&gt;&#45;1724725439285990221 -->
<g id="edge1" class="edge">
<title>&#45;3583450983126162731&#45;&gt;&#45;1724725439285990221</title>
<path fill="none" stroke="black" d="M92.24,-202.5C79.97,-187.05 61.82,-164.22 47.78,-146.56"/>
<polygon fill="black" stroke="black" points="50.77,-144.69 41.81,-139.04 45.29,-149.05 50.77,-144.69"/>
<text text-anchor="middle" x="80.5" y="-175.21" font-family="Times New Roman,serif" font-size="12.00">6s</text>
</g>
<!-- @@endnode -->
<g id="node4" class="node">
<title>@@endnode</title>
<ellipse fill="none" stroke="black" cx="106" cy="-119.41" rx="30.32" ry="30.32"/>
<ellipse fill="none" stroke="black" cx="106" cy="-119.41" rx="34.31" ry="34.31"/>
<text text-anchor="start" x="96" y="-111.31" font-family="Times New Roman,serif" font-size="32.00">■</text>
</g>
<!-- &#45;3583450983126162731&#45;&gt;@@endnode -->
<g id="edge4" class="edge">
<title>&#45;3583450983126162731&#45;&gt;@@endnode</title>
<path fill="none" stroke="black" d="M106,-202.5C106,-192.17 106,-178.54 106,-165.36"/>
<polygon fill="black" stroke="black" points="109.5,-165.5 106,-155.5 102.5,-165.5 109.5,-165.5"/>
<text text-anchor="middle" x="109.5" y="-175.21" font-family="Times New Roman,serif" font-size="12.00">1</text>
</g>
<!-- 8429278947031473074 -->
<g id="node2" class="node">
<title>8429278947031473074</title>
<polygon fill="none" stroke="black" points="130,-36 74,-36 74,0 130,0 130,-36"/>
<text text-anchor="middle" x="102" y="-14.9" font-family="Times New Roman,serif" font-size="12.00">editField</text>
</g>
<!-- 8429278947031473074&#45;&gt;&#45;3583450983126162731 -->
<g id="edge2" class="edge">
<title>8429278947031473074&#45;&gt;&#45;3583450983126162731</title>
<path fill="none" stroke="black" d="M118.98,-36.36C129.89,-48.78 143.09,-66.51 149,-85 158.31,-114.13 157.71,-124.49 149,-153.81 144.77,-168.05 136.39,-182.08 128.15,-193.52"/>
<polygon fill="black" stroke="black" points="125.52,-191.19 122.26,-201.27 131.1,-195.43 125.52,-191.19"/>
<text text-anchor="middle" x="160.5" y="-116.31" font-family="Times New Roman,serif" font-size="12.00">6s</text>
</g>
<!-- &#45;1724725439285990221&#45;&gt;8429278947031473074 -->
<g id="edge3" class="edge">
<title>&#45;1724725439285990221&#45;&gt;8429278947031473074</title>
<path fill="none" stroke="black" d="M40.06,-101.09C51.61,-85.79 68.62,-63.24 81.9,-45.64"/>
<polygon fill="black" stroke="black" points="84.69,-47.75 87.92,-37.66 79.11,-43.53 84.69,-47.75"/>
<text text-anchor="middle" x="78.5" y="-57.4" font-family="Times New Roman,serif" font-size="12.00">6s</text>
</g>
</g>
</svg>
