<?xml version="1.0" encoding="UTF-8" standalone="no"?>
<!DOCTYPE svg PUBLIC "-//W3C//DTD SVG 1.1//EN"
 "http://www.w3.org/Graphics/SVG/1.1/DTD/svg11.dtd">
<!-- Generated by graphviz version 7.1.0 (20230121.1956)
 -->
<!-- Pages: 1 -->
<svg width="235pt" height="502pt"
 viewBox="0.00 0.00 235.41 501.81" xmlns="http://www.w3.org/2000/svg" xmlns:xlink="http://www.w3.org/1999/xlink">
<g id="graph0" class="graph" transform="scale(1 1) rotate(0) translate(4 497.81)">
<polygon fill="white" stroke="none" points="-4,4 -4,-497.81 231.41,-497.81 231.41,4 -4,4"/>
<!-- 430005019290297955 -->
<g id="node1" class="node">
<title>430005019290297955</title>
<polygon fill="none" stroke="black" points="188.41,-493.81 84.41,-493.81 84.41,-457.81 188.41,-457.81 188.41,-493.81"/>
<text text-anchor="middle" x="136.41" y="-472.71" font-family="Times New Roman,serif" font-size="12.00">clickButton[button]</text>
</g>
<!-- 6434334323557836981 -->
<g id="node7" class="node">
<title>6434334323557836981</title>
<polygon fill="none" stroke="black" points="102.41,-408.81 10.41,-408.81 10.41,-372.81 102.41,-372.81 102.41,-408.81"/>
<text text-anchor="middle" x="56.41" y="-387.71" font-family="Times New Roman,serif" font-size="12.00">selectWorksheet</text>
</g>
<!-- 430005019290297955&#45;&gt;6434334323557836981 -->
<g id="edge1" class="edge">
<title>430005019290297955&#45;&gt;6434334323557836981</title>
<path fill="none" stroke="black" d="M119.83,-457.61C108.64,-446.01 93.68,-430.48 81.1,-417.43"/>
<polygon fill="black" stroke="black" points="83.75,-415.13 74.29,-410.36 78.71,-419.99 83.75,-415.13"/>
<text text-anchor="middle" x="106.91" y="-430.21" font-family="Times New Roman,serif" font-size="12.00">1s</text>
</g>
<!-- 5979003392761407765 -->
<g id="node2" class="node">
<title>5979003392761407765</title>
<polygon fill="none" stroke="black" points="141.91,-323.81 84.91,-323.81 84.91,-287.81 141.91,-287.81 141.91,-323.81"/>
<text text-anchor="middle" x="113.41" y="-302.71" font-family="Times New Roman,serif" font-size="12.00">copyCell</text>
</g>
<!-- &#45;1469425098975310577 -->
<g id="node6" class="node">
<title>&#45;1469425098975310577</title>
<polygon fill="none" stroke="black" points="140.41,-222.41 86.41,-222.41 86.41,-186.41 140.41,-186.41 140.41,-222.41"/>
<text text-anchor="middle" x="113.41" y="-201.31" font-family="Times New Roman,serif" font-size="12.00">paste</text>
</g>
<!-- 5979003392761407765&#45;&gt;&#45;1469425098975310577 -->
<g id="edge2" class="edge">
<title>5979003392761407765&#45;&gt;&#45;1469425098975310577</title>
<path fill="none" stroke="black" stroke-width="2.07" d="M113.41,-287.5C113.41,-273.26 113.41,-252.74 113.41,-235.78"/>
<polygon fill="black" stroke="black" stroke-width="2.07" points="116.91,-235.98 113.41,-225.98 109.91,-235.98 116.91,-235.98"/>
<text text-anchor="middle" x="118.91" y="-260.21" font-family="Times New Roman,serif" font-size="12.00">7s</text>
</g>
<!-- @@endnode -->
<g id="node8" class="node">
<title>@@endnode</title>
<ellipse fill="none" stroke="black" cx="34.41" cy="-204.41" rx="30.32" ry="30.32"/>
<ellipse fill="none" stroke="black" cx="34.41" cy="-204.41" rx="34.31" ry="34.31"/>
<text text-anchor="start" x="24.41" y="-196.31" font-family="Times New Roman,serif" font-size="32.00">■</text>
</g>
<!-- 5979003392761407765&#45;&gt;@@endnode -->
<g id="edge11" class="edge">
<title>5979003392761407765&#45;&gt;@@endnode</title>
<path fill="none" stroke="black" d="M99.64,-287.5C89.35,-274.54 74.92,-256.39 62.25,-240.45"/>
<polygon fill="black" stroke="black" points="65.34,-238.7 56.38,-233.05 59.86,-243.06 65.34,-238.7"/>
<text text-anchor="middle" x="86.91" y="-260.21" font-family="Times New Roman,serif" font-size="12.00">1</text>
</g>
<!-- 6464581609777319207 -->
<g id="node3" class="node">
<title>6464581609777319207</title>
<polygon fill="none" stroke="black" points="128.41,-36 60.41,-36 60.41,0 128.41,0 128.41,-36"/>
<text text-anchor="middle" x="94.41" y="-14.9" font-family="Times New Roman,serif" font-size="12.00">copyRange</text>
</g>
<!-- 6464581609777319207&#45;&gt;&#45;1469425098975310577 -->
<g id="edge3" class="edge">
<title>6464581609777319207&#45;&gt;&#45;1469425098975310577</title>
<path fill="none" stroke="black" d="M94.06,-36.39C93.86,-56.74 94.12,-91.42 97.41,-121 99.42,-139.12 103.28,-159.21 106.71,-175.02"/>
<polygon fill="black" stroke="black" points="103.28,-175.7 108.88,-184.69 110.11,-174.17 103.28,-175.7"/>
<text text-anchor="middle" x="102.91" y="-99.9" font-family="Times New Roman,serif" font-size="12.00">1s</text>
</g>
<!-- 4656304329061748753 -->
<g id="node4" class="node">
<title>4656304329061748753</title>
<polygon fill="none" stroke="black" points="173.41,-121 117.41,-121 117.41,-85 173.41,-85 173.41,-121"/>
<text text-anchor="middle" x="145.41" y="-99.9" font-family="Times New Roman,serif" font-size="12.00">editField</text>
</g>
<!-- 4656304329061748753&#45;&gt;430005019290297955 -->
<g id="edge4" class="edge">
<title>4656304329061748753&#45;&gt;430005019290297955</title>
<path fill="none" stroke="black" d="M168.26,-121.48C189.02,-139.51 216.41,-169.69 216.41,-203.41 216.41,-391.81 216.41,-391.81 216.41,-391.81 216.41,-416.58 197.71,-436.8 178.4,-451.07"/>
<polygon fill="black" stroke="black" points="176.43,-448.18 170.19,-456.74 180.41,-453.94 176.43,-448.18"/>
<text text-anchor="middle" x="221.91" y="-302.71" font-family="Times New Roman,serif" font-size="12.00">1s</text>
</g>
<!-- 4656304329061748753&#45;&gt;5979003392761407765 -->
<g id="edge5" class="edge">
<title>4656304329061748753&#45;&gt;5979003392761407765</title>
<path fill="none" stroke="black" stroke-width="1.89" d="M150.17,-121.31C151.5,-126.91 152.75,-133.18 153.41,-139 158.38,-183.12 161.36,-196.06 149.41,-238.81 145.73,-251.97 139.04,-265.39 132.42,-276.67"/>
<polygon fill="black" stroke="black" stroke-width="1.89" points="129.48,-274.78 127.18,-285.12 135.42,-278.47 129.48,-274.78"/>
<text text-anchor="middle" x="162.91" y="-201.31" font-family="Times New Roman,serif" font-size="12.00">6s</text>
</g>
<!-- 4656304329061748753&#45;&gt;6464581609777319207 -->
<g id="edge6" class="edge">
<title>4656304329061748753&#45;&gt;6464581609777319207</title>
<path fill="none" stroke="black" d="M134.84,-84.8C127.98,-73.64 118.89,-58.85 111.07,-46.12"/>
<polygon fill="black" stroke="black" points="114.14,-44.44 105.93,-37.75 108.18,-48.1 114.14,-44.44"/>
<text text-anchor="middle" x="127.91" y="-57.4" font-family="Times New Roman,serif" font-size="12.00">1s</text>
</g>
<!-- 4656304329061748753&#45;&gt;&#45;1469425098975310577 -->
<g id="edge7" class="edge">
<title>4656304329061748753&#45;&gt;&#45;1469425098975310577</title>
<path fill="none" stroke="black" stroke-width="1.18" d="M124.24,-121.34C119.44,-126.47 114.99,-132.48 112.41,-139 108.01,-150.07 107.45,-163.07 108.28,-174.49"/>
<polygon fill="black" stroke="black" stroke-width="1.18" points="104.79,-174.78 109.42,-184.31 111.75,-173.97 104.79,-174.78"/>
<text text-anchor="middle" x="117.91" y="-142.4" font-family="Times New Roman,serif" font-size="12.00">2s</text>
</g>
<!-- &#45;1382111555709247029 -->
<g id="node5" class="node">
<title>&#45;1382111555709247029</title>
<polygon fill="none" stroke="black" points="188.41,-408.81 120.41,-408.81 120.41,-372.81 188.41,-372.81 188.41,-408.81"/>
<text text-anchor="middle" x="154.41" y="-387.71" font-family="Times New Roman,serif" font-size="12.00">navigate_to</text>
</g>
<!-- &#45;1382111555709247029&#45;&gt;5979003392761407765 -->
<g id="edge8" class="edge">
<title>&#45;1382111555709247029&#45;&gt;5979003392761407765</title>
<path fill="none" stroke="black" d="M145.91,-372.61C140.45,-361.56 133.23,-346.95 126.99,-334.31"/>
<polygon fill="black" stroke="black" points="130.27,-333.05 122.7,-325.63 123.99,-336.15 130.27,-333.05"/>
<text text-anchor="middle" x="140.91" y="-345.21" font-family="Times New Roman,serif" font-size="12.00">1s</text>
</g>
<!-- &#45;1469425098975310577&#45;&gt;4656304329061748753 -->
<g id="edge9" class="edge">
<title>&#45;1469425098975310577&#45;&gt;4656304329061748753</title>
<path fill="none" stroke="black" stroke-width="2.6" d="M118.98,-186.09C123.54,-171.92 130.1,-151.54 135.55,-134.63"/>
<polygon fill="black" stroke="black" stroke-width="2.6" points="138.85,-135.79 138.58,-125.2 132.19,-133.64 138.85,-135.79"/>
<text text-anchor="middle" x="140.91" y="-142.4" font-family="Times New Roman,serif" font-size="12.00">10s</text>
</g>
<!-- 6434334323557836981&#45;&gt;5979003392761407765 -->
<g id="edge10" class="edge">
<title>6434334323557836981&#45;&gt;5979003392761407765</title>
<path fill="none" stroke="black" d="M68.22,-372.61C75.96,-361.34 86.24,-346.37 95.04,-333.55"/>
<polygon fill="black" stroke="black" points="97.78,-335.74 100.56,-325.52 92.01,-331.78 97.78,-335.74"/>
<text text-anchor="middle" x="93.91" y="-345.21" font-family="Times New Roman,serif" font-size="12.00">1s</text>
</g>
</g>
</svg>
