<?xml version="1.0" encoding="UTF-8" standalone="no"?>
<!DOCTYPE svg PUBLIC "-//W3C//DTD SVG 1.1//EN"
 "http://www.w3.org/Graphics/SVG/1.1/DTD/svg11.dtd">
<!-- Generated by graphviz version 8.0.3 (20230416.2022)
 -->
<!-- Pages: 1 -->
<svg width="500pt" height="724pt"
 viewBox="0.00 0.00 499.50 724.00" xmlns="http://www.w3.org/2000/svg" xmlns:xlink="http://www.w3.org/1999/xlink">
<g id="graph0" class="graph" transform="scale(1 1) rotate(0) translate(4 720)">
<polygon fill="white" stroke="none" points="-4,4 -4,-720 495.5,-720 495.5,4 -4,4"/>
<!-- &#45;5165409646973173909 -->
<g id="node1" class="node">
<title>&#45;5165409646973173909</title>
<polygon fill="none" stroke="black" points="138.5,-716 34.5,-716 34.5,-680 138.5,-680 138.5,-716"/>
<text text-anchor="middle" x="86.5" y="-694.9" font-family="Times New Roman,serif" font-size="12.00">clickButton[button]</text>
</g>
<!-- 8495575819858260259 -->
<g id="node12" class="node">
<title>8495575819858260259</title>
<polygon fill="none" stroke="black" points="332.5,-631 240.5,-631 240.5,-595 332.5,-595 332.5,-631"/>
<text text-anchor="middle" x="286.5" y="-609.9" font-family="Times New Roman,serif" font-size="12.00">selectWorksheet</text>
</g>
<!-- &#45;5165409646973173909&#45;&gt;8495575819858260259 -->
<g id="edge1" class="edge">
<title>&#45;5165409646973173909&#45;&gt;8495575819858260259</title>
<path fill="none" stroke="black" stroke-width="1.08" d="M128.43,-679.6C159.36,-666.76 201.64,-649.22 234.69,-635.5"/>
<polygon fill="black" stroke="black" stroke-width="1.08" points="235.73,-638.44 243.63,-631.38 233.05,-631.98 235.73,-638.44"/>
<text text-anchor="middle" x="207" y="-652.4" font-family="Times New Roman,serif" font-size="12.00">50s</text>
</g>
<!-- 6717867204866389648 -->
<g id="node2" class="node">
<title>6717867204866389648</title>
<polygon fill="none" stroke="black" points="158.5,-206 54.5,-206 54.5,-170 158.5,-170 158.5,-206"/>
<text text-anchor="middle" x="106.5" y="-184.9" font-family="Times New Roman,serif" font-size="12.00">clickButton[submit]</text>
</g>
<!-- &#45;2593804355222374208 -->
<g id="node3" class="node">
<title>&#45;2593804355222374208</title>
<polygon fill="none" stroke="black" points="123.5,-121 65.5,-121 65.5,-85 123.5,-85 123.5,-121"/>
<text text-anchor="middle" x="94.5" y="-99.9" font-family="Times New Roman,serif" font-size="12.00">clickLink</text>
</g>
<!-- 6717867204866389648&#45;&gt;&#45;2593804355222374208 -->
<g id="edge2" class="edge">
<title>6717867204866389648&#45;&gt;&#45;2593804355222374208</title>
<path fill="none" stroke="black" stroke-width="1.08" d="M104.01,-169.8C102.45,-158.97 100.39,-144.72 98.59,-132.26"/>
<polygon fill="black" stroke="black" stroke-width="1.08" points="101.92,-131.86 97.02,-122.46 94.99,-132.86 101.92,-131.86"/>
<text text-anchor="middle" x="110" y="-142.4" font-family="Times New Roman,serif" font-size="12.00">49s</text>
</g>
<!-- &#45;5679572340445933510 -->
<g id="node6" class="node">
<title>&#45;5679572340445933510</title>
<polygon fill="none" stroke="black" points="85,-36 0,-36 0,0 85,0 85,-36"/>
<text text-anchor="middle" x="42.5" y="-14.9" font-family="Times New Roman,serif" font-size="12.00">createNewTab</text>
</g>
<!-- &#45;2593804355222374208&#45;&gt;&#45;5679572340445933510 -->
<g id="edge3" class="edge">
<title>&#45;2593804355222374208&#45;&gt;&#45;5679572340445933510</title>
<path fill="none" stroke="black" stroke-width="1.08" d="M83.73,-84.8C76.66,-73.53 67.28,-58.56 59.25,-45.74"/>
<polygon fill="black" stroke="black" stroke-width="1.08" points="61.71,-44.08 53.44,-37.46 55.78,-47.79 61.71,-44.08"/>
<text text-anchor="middle" x="81" y="-57.4" font-family="Times New Roman,serif" font-size="12.00">49s</text>
</g>
<!-- &#45;6968050114622540068 -->
<g id="node4" class="node">
<title>&#45;6968050114622540068</title>
<polygon fill="none" stroke="black" points="315,-546 258,-546 258,-510 315,-510 315,-546"/>
<text text-anchor="middle" x="286.5" y="-524.9" font-family="Times New Roman,serif" font-size="12.00">copyCell</text>
</g>
<!-- &#45;6968050114622540068&#45;&gt;&#45;6968050114622540068 -->
<g id="edge4" class="edge">
<title>&#45;6968050114622540068&#45;&gt;&#45;6968050114622540068</title>
<path fill="none" stroke="black" d="M315.11,-535.97C325.01,-536.05 333,-533.4 333,-528 333,-524.8 330.18,-522.56 325.82,-521.29"/>
<polygon fill="black" stroke="black" points="326.45,-517.72 316.11,-520.03 325.63,-524.67 326.45,-517.72"/>
<text text-anchor="middle" x="338.5" y="-524.9" font-family="Times New Roman,serif" font-size="12.00">1s</text>
</g>
<!-- &#45;4725831156122046667 -->
<g id="node5" class="node">
<title>&#45;4725831156122046667</title>
<polygon fill="none" stroke="black" points="250.5,-461 182.5,-461 182.5,-425 250.5,-425 250.5,-461"/>
<text text-anchor="middle" x="216.5" y="-439.9" font-family="Times New Roman,serif" font-size="12.00">copyRange</text>
</g>
<!-- &#45;6968050114622540068&#45;&gt;&#45;4725831156122046667 -->
<g id="edge5" class="edge">
<title>&#45;6968050114622540068&#45;&gt;&#45;4725831156122046667</title>
<path fill="none" stroke="black" d="M272,-509.8C262.21,-498.2 249.11,-482.67 238.1,-469.62"/>
<polygon fill="black" stroke="black" points="240.35,-467.85 231.23,-462.46 235,-472.36 240.35,-467.85"/>
<text text-anchor="middle" x="261" y="-482.4" font-family="Times New Roman,serif" font-size="12.00">1s</text>
</g>
<!-- &#45;8379406843200625498 -->
<g id="node8" class="node">
<title>&#45;8379406843200625498</title>
<polygon fill="none" stroke="black" points="376.5,-121 322.5,-121 322.5,-85 376.5,-85 376.5,-121"/>
<text text-anchor="middle" x="349.5" y="-99.9" font-family="Times New Roman,serif" font-size="12.00">getCell</text>
</g>
<!-- &#45;6968050114622540068&#45;&gt;&#45;8379406843200625498 -->
<g id="edge6" class="edge">
<title>&#45;6968050114622540068&#45;&gt;&#45;8379406843200625498</title>
<path fill="none" stroke="black" d="M315.44,-517.3C345.29,-505.25 387.5,-481.56 387.5,-444 387.5,-444 387.5,-444 387.5,-187 387.5,-166.79 378.07,-146.12 368.6,-130.46"/>
<polygon fill="black" stroke="black" points="371.14,-128.93 362.79,-122.41 365.25,-132.71 371.14,-128.93"/>
<text text-anchor="middle" x="393" y="-312.4" font-family="Times New Roman,serif" font-size="12.00">1s</text>
</g>
<!-- &#45;9028611191506250526 -->
<g id="node11" class="node">
<title>&#45;9028611191506250526</title>
<polygon fill="none" stroke="black" points="254.5,-376 200.5,-376 200.5,-340 254.5,-340 254.5,-376"/>
<text text-anchor="middle" x="227.5" y="-354.9" font-family="Times New Roman,serif" font-size="12.00">paste</text>
</g>
<!-- &#45;6968050114622540068&#45;&gt;&#45;9028611191506250526 -->
<g id="edge7" class="edge">
<title>&#45;6968050114622540068&#45;&gt;&#45;9028611191506250526</title>
<path fill="none" stroke="black" stroke-width="1.75" d="M282.99,-509.72C278.58,-489.18 270.26,-454.03 259.5,-425 254.7,-412.06 248.23,-398.25 242.37,-386.62"/>
<polygon fill="black" stroke="black" stroke-width="1.75" points="245.7,-385.52 238,-378.25 239.48,-388.74 245.7,-385.52"/>
<text text-anchor="middle" x="278" y="-439.9" font-family="Times New Roman,serif" font-size="12.00">7m</text>
</g>
<!-- &#45;4725831156122046667&#45;&gt;&#45;9028611191506250526 -->
<g id="edge8" class="edge">
<title>&#45;4725831156122046667&#45;&gt;&#45;9028611191506250526</title>
<path fill="none" stroke="black" stroke-width="1.08" d="M218.78,-424.8C220.21,-413.97 222.1,-399.72 223.75,-387.26"/>
<polygon fill="black" stroke="black" stroke-width="1.08" points="227.34,-387.83 225.19,-377.46 220.4,-386.91 227.34,-387.83"/>
<text text-anchor="middle" x="231" y="-397.4" font-family="Times New Roman,serif" font-size="12.00">50s</text>
</g>
<!-- &#45;5679572340445933510&#45;&gt;8495575819858260259 -->
<g id="edge9" class="edge">
<title>&#45;5679572340445933510&#45;&gt;8495575819858260259</title>
<path fill="none" stroke="black" stroke-width="1.08" d="M40.24,-36.34C36.44,-69.76 30.57,-145.14 45.5,-206 84.88,-366.48 211.68,-525.97 263.8,-586.52"/>
<polygon fill="black" stroke="black" stroke-width="1.08" points="260.73,-588.47 269.93,-593.72 266.01,-583.88 260.73,-588.47"/>
<text text-anchor="middle" x="96" y="-312.4" font-family="Times New Roman,serif" font-size="12.00">49s</text>
</g>
<!-- &#45;802417557823507361 -->
<g id="node7" class="node">
<title>&#45;802417557823507361</title>
<polygon fill="none" stroke="black" points="223.5,-291 167.5,-291 167.5,-255 223.5,-255 223.5,-291"/>
<text text-anchor="middle" x="195.5" y="-269.9" font-family="Times New Roman,serif" font-size="12.00">editField</text>
</g>
<!-- &#45;802417557823507361&#45;&gt;&#45;5165409646973173909 -->
<g id="edge10" class="edge">
<title>&#45;802417557823507361&#45;&gt;&#45;5165409646973173909</title>
<path fill="none" stroke="black" stroke-width="1.08" d="M167.04,-275.65C142.01,-278.61 106.26,-286.76 84.5,-309 68.96,-324.88 70.5,-334.78 70.5,-357 70.5,-614 70.5,-614 70.5,-614 70.5,-632.72 74.47,-653.39 78.46,-669.42"/>
<polygon fill="black" stroke="black" stroke-width="1.08" points="75.24,-669.92 81.17,-678.7 82,-668.14 75.24,-669.92"/>
<text text-anchor="middle" x="79" y="-482.4" font-family="Times New Roman,serif" font-size="12.00">50s</text>
</g>
<!-- &#45;802417557823507361&#45;&gt;6717867204866389648 -->
<g id="edge11" class="edge">
<title>&#45;802417557823507361&#45;&gt;6717867204866389648</title>
<path fill="none" stroke="black" stroke-width="1.08" d="M177.06,-254.8C164.38,-242.97 147.33,-227.08 133.17,-213.87"/>
<polygon fill="black" stroke="black" stroke-width="1.08" points="135.92,-211.72 126.22,-207.46 131.15,-216.84 135.92,-211.72"/>
<text text-anchor="middle" x="165" y="-227.4" font-family="Times New Roman,serif" font-size="12.00">49s</text>
</g>
<!-- &#45;802417557823507361&#45;&gt;&#45;6968050114622540068 -->
<g id="edge12" class="edge">
<title>&#45;802417557823507361&#45;&gt;&#45;6968050114622540068</title>
<path fill="none" stroke="black" stroke-width="1.59" d="M223.98,-288.02C257.74,-306.67 311.23,-343.29 325.5,-394 335.81,-430.64 318.48,-472.79 303.74,-499.64"/>
<polygon fill="black" stroke="black" stroke-width="1.59" points="300.84,-497.41 298.87,-507.82 306.9,-500.9 300.84,-497.41"/>
<text text-anchor="middle" x="335" y="-397.4" font-family="Times New Roman,serif" font-size="12.00">5m</text>
</g>
<!-- &#45;802417557823507361&#45;&gt;&#45;4725831156122046667 -->
<g id="edge13" class="edge">
<title>&#45;802417557823507361&#45;&gt;&#45;4725831156122046667</title>
<path fill="none" stroke="black" stroke-width="1.08" d="M186.91,-291.17C177.85,-311.61 165.96,-346.66 174.5,-376 178.66,-390.3 186.97,-404.46 195.1,-415.98"/>
<polygon fill="black" stroke="black" stroke-width="1.08" points="192.74,-417.66 201.51,-423.6 198.35,-413.49 192.74,-417.66"/>
<text text-anchor="middle" x="183" y="-354.9" font-family="Times New Roman,serif" font-size="12.00">46s</text>
</g>
<!-- &#45;802417557823507361&#45;&gt;&#45;802417557823507361 -->
<g id="edge14" class="edge">
<title>&#45;802417557823507361&#45;&gt;&#45;802417557823507361</title>
<path fill="none" stroke="black" d="M223.8,-280.97C233.59,-281.05 241.5,-278.4 241.5,-273 241.5,-269.8 238.71,-267.56 234.4,-266.29"/>
<polygon fill="black" stroke="black" points="235.14,-262.73 224.8,-265.03 234.32,-269.68 235.14,-262.73"/>
<text text-anchor="middle" x="247" y="-269.9" font-family="Times New Roman,serif" font-size="12.00">1s</text>
</g>
<!-- &#45;802417557823507361&#45;&gt;&#45;8379406843200625498 -->
<g id="edge15" class="edge">
<title>&#45;802417557823507361&#45;&gt;&#45;8379406843200625498</title>
<path fill="none" stroke="black" d="M192.17,-254.74C188.97,-232.93 186.89,-195.21 204.5,-170 229.16,-134.71 277.44,-117.93 311.5,-110.21"/>
<polygon fill="black" stroke="black" points="311.94,-113.48 321.01,-108 310.5,-106.63 311.94,-113.48"/>
<text text-anchor="middle" x="210" y="-184.9" font-family="Times New Roman,serif" font-size="12.00">2s</text>
</g>
<!-- &#45;3292313364076452391 -->
<g id="node9" class="node">
<title>&#45;3292313364076452391</title>
<polygon fill="none" stroke="black" points="283,-206 224,-206 224,-170 283,-170 283,-206"/>
<text text-anchor="middle" x="253.5" y="-184.9" font-family="Times New Roman,serif" font-size="12.00">getRange</text>
</g>
<!-- &#45;802417557823507361&#45;&gt;&#45;3292313364076452391 -->
<g id="edge16" class="edge">
<title>&#45;802417557823507361&#45;&gt;&#45;3292313364076452391</title>
<path fill="none" stroke="black" d="M207.52,-254.8C215.47,-243.42 226.06,-228.26 235.08,-215.37"/>
<polygon fill="black" stroke="black" points="238.44,-217.66 241.3,-207.46 232.7,-213.65 238.44,-217.66"/>
<text text-anchor="middle" x="233" y="-227.4" font-family="Times New Roman,serif" font-size="12.00">1s</text>
</g>
<!-- &#45;802417557823507361&#45;&gt;&#45;9028611191506250526 -->
<g id="edge17" class="edge">
<title>&#45;802417557823507361&#45;&gt;&#45;9028611191506250526</title>
<path fill="none" stroke="black" stroke-width="1.76" d="M193.52,-291.45C193.12,-300.81 193.71,-312.38 197.5,-322 198.6,-324.8 200.03,-327.54 201.66,-330.16"/>
<polygon fill="black" stroke="black" stroke-width="1.76" points="198.95,-331.72 207.72,-337.67 204.57,-327.55 198.95,-331.72"/>
<text text-anchor="middle" x="205" y="-312.4" font-family="Times New Roman,serif" font-size="12.00">7m</text>
</g>
<!-- &#45;8379406843200625498&#45;&gt;&#45;4725831156122046667 -->
<g id="edge18" class="edge">
<title>&#45;8379406843200625498&#45;&gt;&#45;4725831156122046667</title>
<path fill="none" stroke="black" d="M349.59,-121.27C349.07,-166.4 342.84,-290.3 292.5,-376 282.82,-392.47 267.55,-406.91 253.23,-418.05"/>
<polygon fill="black" stroke="black" points="251.43,-415.77 245.5,-424.55 255.61,-421.39 251.43,-415.77"/>
<text text-anchor="middle" x="341" y="-269.9" font-family="Times New Roman,serif" font-size="12.00">3s</text>
</g>
<!-- &#45;8379406843200625498&#45;&gt;&#45;9028611191506250526 -->
<g id="edge19" class="edge">
<title>&#45;8379406843200625498&#45;&gt;&#45;9028611191506250526</title>
<path fill="none" stroke="black" d="M341.58,-121.37C326.4,-154.53 292.03,-229.04 261.5,-291 255.09,-304.01 247.75,-318.33 241.53,-330.3"/>
<polygon fill="black" stroke="black" points="238.14,-328.23 236.62,-338.72 244.35,-331.47 238.14,-328.23"/>
<text text-anchor="middle" x="299" y="-227.4" font-family="Times New Roman,serif" font-size="12.00">2s</text>
</g>
<!-- &#45;8379406843200625498&#45;&gt;8495575819858260259 -->
<g id="edge20" class="edge">
<title>&#45;8379406843200625498&#45;&gt;8495575819858260259</title>
<path fill="none" stroke="black" d="M376.96,-108.72C415.38,-117.07 480.5,-138.4 480.5,-187 480.5,-529 480.5,-529 480.5,-529 480.5,-589.06 400.95,-606.23 343.73,-610.82"/>
<polygon fill="black" stroke="black" points="343.7,-607.38 333.97,-611.56 344.18,-614.36 343.7,-607.38"/>
<text text-anchor="middle" x="486" y="-354.9" font-family="Times New Roman,serif" font-size="12.00">1s</text>
</g>
<!-- &#45;3292313364076452391&#45;&gt;&#45;8379406843200625498 -->
<g id="edge21" class="edge">
<title>&#45;3292313364076452391&#45;&gt;&#45;8379406843200625498</title>
<path fill="none" stroke="black" d="M262.82,-169.53C268.67,-159.71 276.92,-147.71 286.5,-139 294.18,-132.02 303.5,-125.88 312.6,-120.78"/>
<polygon fill="black" stroke="black" points="314.08,-123.43 321.28,-115.66 310.81,-117.24 314.08,-123.43"/>
<text text-anchor="middle" x="292" y="-142.4" font-family="Times New Roman,serif" font-size="12.00">1s</text>
</g>
<!-- &#45;1527059423402642781 -->
<g id="node10" class="node">
<title>&#45;1527059423402642781</title>
<polygon fill="none" stroke="black" points="166.5,-631 98.5,-631 98.5,-595 166.5,-595 166.5,-631"/>
<text text-anchor="middle" x="132.5" y="-609.9" font-family="Times New Roman,serif" font-size="12.00">navigate_to</text>
</g>
<!-- &#45;1527059423402642781&#45;&gt;&#45;6968050114622540068 -->
<g id="edge22" class="edge">
<title>&#45;1527059423402642781&#45;&gt;&#45;6968050114622540068</title>
<path fill="none" stroke="black" d="M164.78,-594.6C189.11,-581.49 222.54,-563.47 248.21,-549.64"/>
<polygon fill="black" stroke="black" points="249.49,-552.38 256.63,-544.56 246.17,-546.22 249.49,-552.38"/>
<text text-anchor="middle" x="224" y="-567.4" font-family="Times New Roman,serif" font-size="12.00">1s</text>
</g>
<!-- &#45;9028611191506250526&#45;&gt;&#45;802417557823507361 -->
<g id="edge23" class="edge">
<title>&#45;9028611191506250526&#45;&gt;&#45;802417557823507361</title>
<path fill="none" stroke="black" stroke-width="2.6" d="M222.83,-339.9C220.13,-330.64 216.49,-319.06 212.5,-309 211.7,-306.97 210.82,-304.9 209.91,-302.82"/>
<polygon fill="black" stroke="black" stroke-width="2.6" points="212.9,-301.8 205.5,-294.22 206.55,-304.76 212.9,-301.8"/>
<text text-anchor="middle" x="227" y="-312.4" font-family="Times New Roman,serif" font-size="12.00">15m</text>
</g>
<!-- &#45;9028611191506250526&#45;&gt;&#45;9028611191506250526 -->
<g id="edge24" class="edge">
<title>&#45;9028611191506250526&#45;&gt;&#45;9028611191506250526</title>
<path fill="none" stroke="black" d="M254.74,-365.96C264.52,-366.13 272.5,-363.48 272.5,-358 272.5,-354.75 269.69,-352.49 265.36,-351.23"/>
<polygon fill="black" stroke="black" points="266.07,-347.67 255.74,-350.04 265.29,-354.63 266.07,-347.67"/>
<text text-anchor="middle" x="278" y="-354.9" font-family="Times New Roman,serif" font-size="12.00">3s</text>
</g>
<!-- 8495575819858260259&#45;&gt;&#45;6968050114622540068 -->
<g id="edge25" class="edge">
<title>8495575819858260259&#45;&gt;&#45;6968050114622540068</title>
<path fill="none" stroke="black" stroke-width="1.16" d="M286.5,-594.8C286.5,-583.97 286.5,-569.72 286.5,-557.26"/>
<polygon fill="black" stroke="black" stroke-width="1.16" points="290,-557.46 286.5,-547.46 283,-557.46 290,-557.46"/>
<text text-anchor="middle" x="294" y="-567.4" font-family="Times New Roman,serif" font-size="12.00">1m</text>
</g>
<!-- 8495575819858260259&#45;&gt;&#45;8379406843200625498 -->
<g id="edge26" class="edge">
<title>8495575819858260259&#45;&gt;&#45;8379406843200625498</title>
<path fill="none" stroke="black" d="M332.61,-605.6C375.72,-596.72 433.5,-576.04 433.5,-529 433.5,-529 433.5,-529 433.5,-187 433.5,-158.35 408.47,-136.25 385.73,-122.08"/>
<polygon fill="black" stroke="black" points="387.94,-118.73 377.54,-116.68 384.39,-124.76 387.94,-118.73"/>
<text text-anchor="middle" x="439" y="-354.9" font-family="Times New Roman,serif" font-size="12.00">2s</text>
</g>
<!-- 8495575819858260259&#45;&gt;8495575819858260259 -->
<g id="edge27" class="edge">
<title>8495575819858260259&#45;&gt;8495575819858260259</title>
<path fill="none" stroke="black" d="M332.81,-620.75C343.05,-620.03 350.5,-617.44 350.5,-613 350.5,-610.36 347.87,-608.38 343.59,-607.05"/>
<polygon fill="black" stroke="black" points="344.25,-603.45 333.81,-605.25 343.1,-610.35 344.25,-603.45"/>
<text text-anchor="middle" x="356" y="-609.9" font-family="Times New Roman,serif" font-size="12.00">3s</text>
</g>
</g>
</svg>
