<?xml version="1.0" encoding="UTF-8" standalone="no"?>
<!DOCTYPE svg PUBLIC "-//W3C//DTD SVG 1.1//EN"
 "http://www.w3.org/Graphics/SVG/1.1/DTD/svg11.dtd">
<!-- Generated by graphviz version 7.1.0 (20230121.1956)
 -->
<!-- Pages: 1 -->
<svg width="524pt" height="672pt"
 viewBox="0.00 0.00 523.50 671.81" xmlns="http://www.w3.org/2000/svg" xmlns:xlink="http://www.w3.org/1999/xlink">
<g id="graph0" class="graph" transform="scale(1 1) rotate(0) translate(4 667.81)">
<polygon fill="white" stroke="none" points="-4,4 -4,-667.81 519.5,-667.81 519.5,4 -4,4"/>
<!-- 430005019290297955 -->
<g id="node1" class="node">
<title>430005019290297955</title>
<polygon fill="none" stroke="black" points="340,-663.81 236,-663.81 236,-627.81 340,-627.81 340,-663.81"/>
<text text-anchor="middle" x="288" y="-642.71" font-family="Times New Roman,serif" font-size="12.00">clickButton[button]</text>
</g>
<!-- 6434334323557836981 -->
<g id="node12" class="node">
<title>6434334323557836981</title>
<polygon fill="none" stroke="black" points="443,-578.81 351,-578.81 351,-542.81 443,-542.81 443,-578.81"/>
<text text-anchor="middle" x="397" y="-557.71" font-family="Times New Roman,serif" font-size="12.00">selectWorksheet</text>
</g>
<!-- 430005019290297955&#45;&gt;6434334323557836981 -->
<g id="edge1" class="edge">
<title>430005019290297955&#45;&gt;6434334323557836981</title>
<path fill="none" stroke="black" stroke-width="1.06" d="M310.85,-627.41C326.55,-615.46 347.6,-599.43 364.97,-586.2"/>
<polygon fill="black" stroke="black" stroke-width="1.06" points="367.06,-589.01 372.9,-580.16 362.82,-583.44 367.06,-589.01"/>
<text text-anchor="middle" x="354.5" y="-600.21" font-family="Times New Roman,serif" font-size="12.00">5s</text>
</g>
<!-- &#45;8880081036350354058 -->
<g id="node2" class="node">
<title>&#45;8880081036350354058</title>
<polygon fill="none" stroke="black" points="422,-222.41 318,-222.41 318,-186.41 422,-186.41 422,-222.41"/>
<text text-anchor="middle" x="370" y="-201.31" font-family="Times New Roman,serif" font-size="12.00">clickButton[submit]</text>
</g>
<!-- &#45;1794840827520655514 -->
<g id="node3" class="node">
<title>&#45;1794840827520655514</title>
<polygon fill="none" stroke="black" points="433,-121 375,-121 375,-85 433,-85 433,-121"/>
<text text-anchor="middle" x="404" y="-99.9" font-family="Times New Roman,serif" font-size="12.00">clickLink</text>
</g>
<!-- &#45;8880081036350354058&#45;&gt;&#45;1794840827520655514 -->
<g id="edge2" class="edge">
<title>&#45;8880081036350354058&#45;&gt;&#45;1794840827520655514</title>
<path fill="none" stroke="black" stroke-width="1.06" d="M375.92,-186.09C381.01,-171.21 388.44,-149.48 394.38,-132.12"/>
<polygon fill="black" stroke="black" stroke-width="1.06" points="397.59,-133.57 397.51,-122.97 390.96,-131.3 397.59,-133.57"/>
<text text-anchor="middle" x="396.5" y="-142.4" font-family="Times New Roman,serif" font-size="12.00">5s</text>
</g>
<!-- 8116685484534638386 -->
<g id="node6" class="node">
<title>8116685484534638386</title>
<polygon fill="none" stroke="black" points="515.5,-36 430.5,-36 430.5,0 515.5,0 515.5,-36"/>
<text text-anchor="middle" x="473" y="-14.9" font-family="Times New Roman,serif" font-size="12.00">createNewTab</text>
</g>
<!-- &#45;1794840827520655514&#45;&gt;8116685484534638386 -->
<g id="edge3" class="edge">
<title>&#45;1794840827520655514&#45;&gt;8116685484534638386</title>
<path fill="none" stroke="black" stroke-width="1.06" d="M418.3,-84.8C427.76,-73.42 440.36,-58.26 451.08,-45.37"/>
<polygon fill="black" stroke="black" stroke-width="1.06" points="453.75,-47.63 457.46,-37.7 448.37,-43.15 453.75,-47.63"/>
<text text-anchor="middle" x="447.5" y="-57.4" font-family="Times New Roman,serif" font-size="12.00">5s</text>
</g>
<!-- 5979003392761407765 -->
<g id="node4" class="node">
<title>5979003392761407765</title>
<polygon fill="none" stroke="black" points="115.5,-493.81 58.5,-493.81 58.5,-457.81 115.5,-457.81 115.5,-493.81"/>
<text text-anchor="middle" x="87" y="-472.71" font-family="Times New Roman,serif" font-size="12.00">copyCell</text>
</g>
<!-- &#45;1469425098975310577 -->
<g id="node11" class="node">
<title>&#45;1469425098975310577</title>
<polygon fill="none" stroke="black" points="114,-408.81 60,-408.81 60,-372.81 114,-372.81 114,-408.81"/>
<text text-anchor="middle" x="87" y="-387.71" font-family="Times New Roman,serif" font-size="12.00">paste</text>
</g>
<!-- 5979003392761407765&#45;&gt;&#45;1469425098975310577 -->
<g id="edge4" class="edge">
<title>5979003392761407765&#45;&gt;&#45;1469425098975310577</title>
<path fill="none" stroke="black" stroke-width="1.74" d="M87,-457.61C87,-447.22 87,-433.69 87,-421.61"/>
<polygon fill="black" stroke="black" stroke-width="1.74" points="90.5,-421.9 87,-411.9 83.5,-421.9 90.5,-421.9"/>
<text text-anchor="middle" x="95.5" y="-430.21" font-family="Times New Roman,serif" font-size="12.00">48s</text>
</g>
<!-- 6464581609777319207 -->
<g id="node5" class="node">
<title>6464581609777319207</title>
<polygon fill="none" stroke="black" points="113,-36 45,-36 45,0 113,0 113,-36"/>
<text text-anchor="middle" x="79" y="-14.9" font-family="Times New Roman,serif" font-size="12.00">copyRange</text>
</g>
<!-- 6464581609777319207&#45;&gt;&#45;1469425098975310577 -->
<g id="edge5" class="edge">
<title>6464581609777319207&#45;&gt;&#45;1469425098975310577</title>
<path fill="none" stroke="black" stroke-width="1.08" d="M46.87,-36.31C25,-50.67 0,-73.35 0,-102 0,-306.81 0,-306.81 0,-306.81 0,-322.08 28.42,-347.01 52.77,-365.57"/>
<polygon fill="black" stroke="black" stroke-width="1.08" points="50.42,-368.18 60.53,-371.36 54.61,-362.57 50.42,-368.18"/>
<text text-anchor="middle" x="5.5" y="-201.31" font-family="Times New Roman,serif" font-size="12.00">6s</text>
</g>
<!-- 8116685484534638386&#45;&gt;6434334323557836981 -->
<g id="edge6" class="edge">
<title>8116685484534638386&#45;&gt;6434334323557836981</title>
<path fill="none" stroke="black" stroke-width="1.06" d="M480.79,-36.42C487.46,-52.96 496,-78.67 496,-102 496,-476.81 496,-476.81 496,-476.81 496,-503.6 474.45,-523.46 451.46,-537.02"/>
<polygon fill="black" stroke="black" stroke-width="1.06" points="450.07,-533.79 442.99,-541.68 453.44,-539.93 450.07,-533.79"/>
<text text-anchor="middle" x="501.5" y="-302.71" font-family="Times New Roman,serif" font-size="12.00">5s</text>
</g>
<!-- 4656304329061748753 -->
<g id="node7" class="node">
<title>4656304329061748753</title>
<polygon fill="none" stroke="black" points="155,-323.81 99,-323.81 99,-287.81 155,-287.81 155,-323.81"/>
<text text-anchor="middle" x="127" y="-302.71" font-family="Times New Roman,serif" font-size="12.00">editField</text>
</g>
<!-- 4656304329061748753&#45;&gt;430005019290297955 -->
<g id="edge7" class="edge">
<title>4656304329061748753&#45;&gt;430005019290297955</title>
<path fill="none" stroke="black" stroke-width="1.06" d="M155.3,-310.2C197.5,-317.02 272,-336.59 272,-389.81 272,-561.81 272,-561.81 272,-561.81 272,-580.17 275.82,-600.41 279.73,-616.3"/>
<polygon fill="black" stroke="black" stroke-width="1.06" points="276.34,-617.17 282.26,-625.95 283.11,-615.39 276.34,-617.17"/>
<text text-anchor="middle" x="277.5" y="-472.71" font-family="Times New Roman,serif" font-size="12.00">5s</text>
</g>
<!-- 4656304329061748753&#45;&gt;&#45;8880081036350354058 -->
<g id="edge8" class="edge">
<title>4656304329061748753&#45;&gt;&#45;8880081036350354058</title>
<path fill="none" stroke="black" stroke-width="1.06" d="M155.28,-296.05C191.53,-284.48 256.01,-262.76 309,-238.81 316.02,-235.64 323.34,-231.97 330.36,-228.25"/>
<polygon fill="black" stroke="black" stroke-width="1.06" points="331.83,-231.43 338.96,-223.59 328.5,-225.28 331.83,-231.43"/>
<text text-anchor="middle" x="269.5" y="-260.21" font-family="Times New Roman,serif" font-size="12.00">5s</text>
</g>
<!-- 4656304329061748753&#45;&gt;5979003392761407765 -->
<g id="edge9" class="edge">
<title>4656304329061748753&#45;&gt;5979003392761407765</title>
<path fill="none" stroke="black" stroke-width="1.58" d="M98.94,-318.03C76.82,-328.54 47.54,-346.6 34,-372.81 20.66,-398.64 39.67,-428.11 58.53,-448.7"/>
<polygon fill="black" stroke="black" stroke-width="1.58" points="55.92,-451.05 65.4,-455.78 60.94,-446.17 55.92,-451.05"/>
<text text-anchor="middle" x="42.5" y="-387.71" font-family="Times New Roman,serif" font-size="12.00">38s</text>
</g>
<!-- 4656304329061748753&#45;&gt;6464581609777319207 -->
<g id="edge10" class="edge">
<title>4656304329061748753&#45;&gt;6464581609777319207</title>
<path fill="none" stroke="black" stroke-width="1.05" d="M124.07,-287.36C116.05,-239.61 93.69,-106.45 83.8,-47.59"/>
<polygon fill="black" stroke="black" stroke-width="1.05" points="87.26,-47.07 82.15,-37.78 80.36,-48.22 87.26,-47.07"/>
<text text-anchor="middle" x="106.5" y="-142.4" font-family="Times New Roman,serif" font-size="12.00">4s</text>
</g>
<!-- 410929837770608946 -->
<g id="node8" class="node">
<title>410929837770608946</title>
<polygon fill="none" stroke="black" points="161,-121 107,-121 107,-85 161,-85 161,-121"/>
<text text-anchor="middle" x="134" y="-99.9" font-family="Times New Roman,serif" font-size="12.00">getCell</text>
</g>
<!-- 4656304329061748753&#45;&gt;410929837770608946 -->
<g id="edge11" class="edge">
<title>4656304329061748753&#45;&gt;410929837770608946</title>
<path fill="none" stroke="black" d="M127.61,-287.34C128.82,-252.69 131.53,-174.96 133,-132.69"/>
<polygon fill="black" stroke="black" points="136.49,-132.91 133.34,-122.8 129.5,-132.67 136.49,-132.91"/>
<text text-anchor="middle" x="137.5" y="-201.31" font-family="Times New Roman,serif" font-size="12.00">1s</text>
</g>
<!-- 2010879291915096059 -->
<g id="node9" class="node">
<title>2010879291915096059</title>
<polygon fill="none" stroke="black" points="299.5,-222.41 240.5,-222.41 240.5,-186.41 299.5,-186.41 299.5,-222.41"/>
<text text-anchor="middle" x="270" y="-201.31" font-family="Times New Roman,serif" font-size="12.00">getRange</text>
</g>
<!-- 4656304329061748753&#45;&gt;2010879291915096059 -->
<g id="edge12" class="edge">
<title>4656304329061748753&#45;&gt;2010879291915096059</title>
<path fill="none" stroke="black" d="M155.09,-288.48C176.43,-275.72 206.24,-257.12 231,-238.81 234.79,-236.01 238.68,-232.94 242.46,-229.83"/>
<polygon fill="black" stroke="black" points="244.46,-232.72 249.85,-223.6 239.95,-227.37 244.46,-232.72"/>
<text text-anchor="middle" x="209.5" y="-260.21" font-family="Times New Roman,serif" font-size="12.00">1s</text>
</g>
<!-- 4656304329061748753&#45;&gt;&#45;1469425098975310577 -->
<g id="edge13" class="edge">
<title>4656304329061748753&#45;&gt;&#45;1469425098975310577</title>
<path fill="none" stroke="black" stroke-width="1.74" d="M101.75,-323.94C96.23,-329 91.11,-335.03 88,-341.81 85.4,-347.48 84.23,-353.93 83.89,-360.23"/>
<polygon fill="black" stroke="black" stroke-width="1.74" points="80.38,-360.07 84.07,-370 87.38,-359.94 80.38,-360.07"/>
<text text-anchor="middle" x="96.5" y="-345.21" font-family="Times New Roman,serif" font-size="12.00">48s</text>
</g>
<!-- @@endnode -->
<g id="node13" class="node">
<title>@@endnode</title>
<ellipse fill="none" stroke="black" cx="188" cy="-204.41" rx="30.32" ry="30.32"/>
<ellipse fill="none" stroke="black" cx="188" cy="-204.41" rx="34.31" ry="34.31"/>
<text text-anchor="start" x="178" y="-196.31" font-family="Times New Roman,serif" font-size="32.00">■</text>
</g>
<!-- 4656304329061748753&#45;&gt;@@endnode -->
<g id="edge22" class="edge">
<title>4656304329061748753&#45;&gt;@@endnode</title>
<path fill="none" stroke="black" d="M137.63,-287.5C145.02,-275.45 155.17,-258.91 164.42,-243.83"/>
<polygon fill="black" stroke="black" points="167.3,-245.83 169.54,-235.48 161.33,-242.17 167.3,-245.83"/>
<text text-anchor="middle" x="159.5" y="-260.21" font-family="Times New Roman,serif" font-size="12.00">1</text>
</g>
<!-- 410929837770608946&#45;&gt;6464581609777319207 -->
<g id="edge14" class="edge">
<title>410929837770608946&#45;&gt;6464581609777319207</title>
<path fill="none" stroke="black" stroke-width="1.02" d="M122.6,-84.8C115.13,-73.53 105.21,-58.56 96.72,-45.74"/>
<polygon fill="black" stroke="black" stroke-width="1.02" points="99.86,-44.15 91.42,-37.74 94.03,-48.01 99.86,-44.15"/>
<text text-anchor="middle" x="115.5" y="-57.4" font-family="Times New Roman,serif" font-size="12.00">2s</text>
</g>
<!-- 410929837770608946&#45;&gt;&#45;1469425098975310577 -->
<g id="edge15" class="edge">
<title>410929837770608946&#45;&gt;&#45;1469425098975310577</title>
<path fill="none" stroke="black" d="M106.75,-108.78C89.38,-113.38 68.11,-122.23 57,-139 10.97,-208.52 49.86,-313.11 72.92,-362.34"/>
<polygon fill="black" stroke="black" points="69.68,-363.68 77.18,-371.16 75.98,-360.63 69.68,-363.68"/>
<text text-anchor="middle" x="46.5" y="-260.21" font-family="Times New Roman,serif" font-size="12.00">1s</text>
</g>
<!-- 2010879291915096059&#45;&gt;410929837770608946 -->
<g id="edge16" class="edge">
<title>2010879291915096059&#45;&gt;410929837770608946</title>
<path fill="none" stroke="black" d="M250.51,-185.98C244.38,-180.7 237.52,-174.98 231,-170 211.66,-155.21 189.24,-139.85 170.82,-127.66"/>
<polygon fill="black" stroke="black" points="172.87,-124.82 162.59,-122.26 169.03,-130.67 172.87,-124.82"/>
<text text-anchor="middle" x="211.5" y="-142.4" font-family="Times New Roman,serif" font-size="12.00">1s</text>
</g>
<!-- &#45;1382111555709247029 -->
<g id="node10" class="node">
<title>&#45;1382111555709247029</title>
<polygon fill="none" stroke="black" points="121,-578.81 53,-578.81 53,-542.81 121,-542.81 121,-578.81"/>
<text text-anchor="middle" x="87" y="-557.71" font-family="Times New Roman,serif" font-size="12.00">navigate_to</text>
</g>
<!-- &#45;1382111555709247029&#45;&gt;5979003392761407765 -->
<g id="edge17" class="edge">
<title>&#45;1382111555709247029&#45;&gt;5979003392761407765</title>
<path fill="none" stroke="black" d="M87,-542.61C87,-531.89 87,-517.83 87,-505.45"/>
<polygon fill="black" stroke="black" points="90.5,-505.79 87,-495.79 83.5,-505.79 90.5,-505.79"/>
<text text-anchor="middle" x="92.5" y="-515.21" font-family="Times New Roman,serif" font-size="12.00">1s</text>
</g>
<!-- &#45;1469425098975310577&#45;&gt;4656304329061748753 -->
<g id="edge18" class="edge">
<title>&#45;1469425098975310577&#45;&gt;4656304329061748753</title>
<path fill="none" stroke="black" stroke-width="2.6" d="M96.13,-372.44C99.02,-366.84 102.19,-360.59 105,-354.81 107.83,-349 110.77,-342.74 113.54,-336.73"/>
<polygon fill="black" stroke="black" stroke-width="2.6" points="116.64,-338.36 117.61,-327.81 110.28,-335.45 116.64,-338.36"/>
<text text-anchor="middle" x="118.5" y="-345.21" font-family="Times New Roman,serif" font-size="12.00">1m</text>
</g>
<!-- &#45;1469425098975310577&#45;&gt;&#45;1469425098975310577 -->
<g id="edge19" class="edge">
<title>&#45;1469425098975310577&#45;&gt;&#45;1469425098975310577</title>
<path fill="none" stroke="black" d="M114.24,-398.77C124.02,-398.94 132,-396.29 132,-390.81 132,-387.73 129.48,-385.54 125.53,-384.25"/>
<polygon fill="black" stroke="black" points="126.1,-380.79 115.74,-383.04 125.24,-387.74 126.1,-380.79"/>
<text text-anchor="middle" x="137.5" y="-387.71" font-family="Times New Roman,serif" font-size="12.00">1s</text>
</g>
<!-- 6434334323557836981&#45;&gt;5979003392761407765 -->
<g id="edge20" class="edge">
<title>6434334323557836981&#45;&gt;5979003392761407765</title>
<path fill="none" stroke="black" stroke-width="1.13" d="M350.59,-547.39C289.75,-531.1 184.06,-502.8 126.73,-487.45"/>
<polygon fill="black" stroke="black" stroke-width="1.13" points="127.82,-484.12 117.25,-484.91 126.01,-490.88 127.82,-484.12"/>
<text text-anchor="middle" x="265.5" y="-515.21" font-family="Times New Roman,serif" font-size="12.00">9s</text>
</g>
<!-- 6434334323557836981&#45;&gt;410929837770608946 -->
<g id="edge21" class="edge">
<title>6434334323557836981&#45;&gt;410929837770608946</title>
<path fill="none" stroke="black" d="M416.43,-542.41C431.56,-526.87 450,-502.63 450,-476.81 450,-476.81 450,-476.81 450,-203.41 450,-168.74 436.25,-155.93 406,-139 366.88,-117.12 238.17,-108.49 172.82,-105.46"/>
<polygon fill="black" stroke="black" points="173.04,-101.96 162.9,-105.02 172.74,-108.96 173.04,-101.96"/>
<text text-anchor="middle" x="455.5" y="-345.21" font-family="Times New Roman,serif" font-size="12.00">1s</text>
</g>
</g>
</svg>
