<?xml version="1.0" encoding="UTF-8" standalone="no"?>
<!DOCTYPE svg PUBLIC "-//W3C//DTD SVG 1.1//EN"
 "http://www.w3.org/Graphics/SVG/1.1/DTD/svg11.dtd">
<!-- Generated by graphviz version 7.1.0 (20230121.1956)
 -->
<!-- Pages: 1 -->
<svg width="1642pt" height="842pt"
 viewBox="0.00 0.00 1642.00 841.81" xmlns="http://www.w3.org/2000/svg" xmlns:xlink="http://www.w3.org/1999/xlink">
<g id="graph0" class="graph" transform="scale(1 1) rotate(0) translate(4 837.81)">
<polygon fill="white" stroke="none" points="-4,4 -4,-837.81 1638,-837.81 1638,4 -4,4"/>
<!-- &#45;8421013627638508074 -->
<g id="node1" class="node">
<title>&#45;8421013627638508074</title>
<polygon fill="none" stroke="black" points="104,-833.81 0,-833.81 0,-797.81 104,-797.81 104,-833.81"/>
<text text-anchor="middle" x="52" y="-812.71" font-family="Times New Roman,serif" font-size="12.00">clickButton[button]</text>
</g>
<!-- &#45;2342417462293921512 -->
<g id="node32" class="node">
<title>&#45;2342417462293921512</title>
<polygon fill="none" stroke="black" points="177,-748.81 85,-748.81 85,-712.81 177,-712.81 177,-748.81"/>
<text text-anchor="middle" x="131" y="-727.71" font-family="Times New Roman,serif" font-size="12.00">selectWorksheet</text>
</g>
<!-- &#45;8421013627638508074&#45;&gt;&#45;2342417462293921512 -->
<g id="edge1" class="edge">
<title>&#45;8421013627638508074&#45;&gt;&#45;2342417462293921512</title>
<path fill="none" stroke="black" stroke-width="1.14" d="M68.37,-797.61C79.42,-786.01 94.19,-770.48 106.62,-757.43"/>
<polygon fill="black" stroke="black" stroke-width="1.14" points="108.83,-760.18 113.19,-750.52 103.76,-755.35 108.83,-760.18"/>
<text text-anchor="middle" x="102.5" y="-770.21" font-family="Times New Roman,serif" font-size="12.00">5s</text>
</g>
<!-- 8659733819878033834 -->
<g id="node2" class="node">
<title>8659733819878033834</title>
<polygon fill="none" stroke="black" points="541,-392.41 437,-392.41 437,-356.41 541,-356.41 541,-392.41"/>
<text text-anchor="middle" x="489" y="-371.31" font-family="Times New Roman,serif" font-size="12.00">clickButton[submit]</text>
</g>
<!-- 1054217341451333691 -->
<g id="node3" class="node">
<title>1054217341451333691</title>
<polygon fill="none" stroke="black" points="477,-291 419,-291 419,-255 477,-255 477,-291"/>
<text text-anchor="middle" x="448" y="-269.9" font-family="Times New Roman,serif" font-size="12.00">clickLink</text>
</g>
<!-- 8659733819878033834&#45;&gt;1054217341451333691 -->
<g id="edge2" class="edge">
<title>8659733819878033834&#45;&gt;1054217341451333691</title>
<path fill="none" stroke="black" stroke-width="1.14" d="M481.86,-356.09C475.72,-341.21 466.76,-319.48 459.6,-302.12"/>
<polygon fill="black" stroke="black" stroke-width="1.14" points="462.9,-300.95 455.85,-293.04 456.43,-303.62 462.9,-300.95"/>
<text text-anchor="middle" x="473.5" y="-312.4" font-family="Times New Roman,serif" font-size="12.00">5s</text>
</g>
<!-- &#45;6686815318746011082 -->
<g id="node6" class="node">
<title>&#45;6686815318746011082</title>
<polygon fill="none" stroke="black" points="469.5,-206 384.5,-206 384.5,-170 469.5,-170 469.5,-206"/>
<text text-anchor="middle" x="427" y="-184.9" font-family="Times New Roman,serif" font-size="12.00">createNewTab</text>
</g>
<!-- 1054217341451333691&#45;&gt;&#45;6686815318746011082 -->
<g id="edge3" class="edge">
<title>1054217341451333691&#45;&gt;&#45;6686815318746011082</title>
<path fill="none" stroke="black" stroke-width="1.14" d="M443.65,-254.8C440.94,-244.08 437.38,-230.01 434.25,-217.64"/>
<polygon fill="black" stroke="black" stroke-width="1.14" points="437.69,-216.97 431.84,-208.13 430.9,-218.69 437.69,-216.97"/>
<text text-anchor="middle" x="444.5" y="-227.4" font-family="Times New Roman,serif" font-size="12.00">5s</text>
</g>
<!-- &#45;349242997702854405 -->
<g id="node4" class="node">
<title>&#45;349242997702854405</title>
<polygon fill="none" stroke="black" points="998.5,-663.81 941.5,-663.81 941.5,-627.81 998.5,-627.81 998.5,-663.81"/>
<text text-anchor="middle" x="970" y="-642.71" font-family="Times New Roman,serif" font-size="12.00">copyCell</text>
</g>
<!-- 4744432682323570212 -->
<g id="node21" class="node">
<title>4744432682323570212</title>
<polygon fill="none" stroke="black" points="1121,-578.81 999,-578.81 999,-542.81 1121,-542.81 1121,-578.81"/>
<text text-anchor="middle" x="1060" y="-557.71" font-family="Times New Roman,serif" font-size="12.00">paste[q10_bankName]</text>
</g>
<!-- &#45;349242997702854405&#45;&gt;4744432682323570212 -->
<g id="edge4" class="edge">
<title>&#45;349242997702854405&#45;&gt;4744432682323570212</title>
<path fill="none" stroke="black" stroke-width="1.14" d="M988.65,-627.61C1001.35,-615.9 1018.39,-600.19 1032.63,-587.06"/>
<polygon fill="black" stroke="black" stroke-width="1.14" points="1034.82,-589.79 1039.8,-580.44 1030.07,-584.65 1034.82,-589.79"/>
<text text-anchor="middle" x="1025.5" y="-600.21" font-family="Times New Roman,serif" font-size="12.00">5s</text>
</g>
<!-- 4604581665166516345 -->
<g id="node22" class="node">
<title>4604581665166516345</title>
<polygon fill="none" stroke="black" points="1369.5,-578.81 1224.5,-578.81 1224.5,-542.81 1369.5,-542.81 1369.5,-578.81"/>
<text text-anchor="middle" x="1297" y="-557.71" font-family="Times New Roman,serif" font-size="12.00">paste[q11_accountNumber]</text>
</g>
<!-- &#45;349242997702854405&#45;&gt;4604581665166516345 -->
<g id="edge5" class="edge">
<title>&#45;349242997702854405&#45;&gt;4604581665166516345</title>
<path fill="none" stroke="black" stroke-width="1.14" d="M998.71,-643.86C1044.36,-641.64 1135.81,-634.26 1209,-609.81 1227.14,-603.75 1245.93,-594.04 1261.46,-584.94"/>
<polygon fill="black" stroke="black" stroke-width="1.14" points="1262.93,-588.14 1269.69,-579.98 1259.31,-582.15 1262.93,-588.14"/>
<text text-anchor="middle" x="1244.5" y="-600.21" font-family="Times New Roman,serif" font-size="12.00">5s</text>
</g>
<!-- 1955449513403805491 -->
<g id="node23" class="node">
<title>1955449513403805491</title>
<polygon fill="none" stroke="black" points="530,-578.81 340,-578.81 340,-542.81 530,-542.81 530,-578.81"/>
<text text-anchor="middle" x="435" y="-557.71" font-family="Times New Roman,serif" font-size="12.00">paste[q12_reimbursementDetails[0][]]</text>
</g>
<!-- &#45;349242997702854405&#45;&gt;1955449513403805491 -->
<g id="edge6" class="edge">
<title>&#45;349242997702854405&#45;&gt;1955449513403805491</title>
<path fill="none" stroke="black" stroke-width="1.31" d="M941.04,-644.98C873.9,-644.79 702.74,-641 564,-609.81 536.93,-603.73 507.88,-593.29 484.21,-583.69"/>
<polygon fill="black" stroke="black" stroke-width="1.31" points="485.82,-580.57 475.24,-579.98 483.14,-587.04 485.82,-580.57"/>
<text text-anchor="middle" x="572.5" y="-600.21" font-family="Times New Roman,serif" font-size="12.00">10s</text>
</g>
<!-- &#45;802786066028636207 -->
<g id="node24" class="node">
<title>&#45;802786066028636207</title>
<polygon fill="none" stroke="black" points="1540,-578.81 1426,-578.81 1426,-542.81 1540,-542.81 1540,-578.81"/>
<text text-anchor="middle" x="1483" y="-557.71" font-family="Times New Roman,serif" font-size="12.00">paste[q3_name[first]]</text>
</g>
<!-- &#45;349242997702854405&#45;&gt;&#45;802786066028636207 -->
<g id="edge7" class="edge">
<title>&#45;349242997702854405&#45;&gt;&#45;802786066028636207</title>
<path fill="none" stroke="black" stroke-width="1.17" d="M998.76,-644.44C1084.19,-643.04 1335.26,-636.68 1412,-609.81 1427.07,-604.54 1441.98,-595.25 1454.22,-586.24"/>
<polygon fill="black" stroke="black" stroke-width="1.17" points="1456.22,-589.12 1462.01,-580.24 1451.95,-583.57 1456.22,-589.12"/>
<text text-anchor="middle" x="1442.5" y="-600.21" font-family="Times New Roman,serif" font-size="12.00">6s</text>
</g>
<!-- 5504490665134479466 -->
<g id="node26" class="node">
<title>5504490665134479466</title>
<polygon fill="none" stroke="black" points="760.5,-578.81 671.5,-578.81 671.5,-542.81 760.5,-542.81 760.5,-578.81"/>
<text text-anchor="middle" x="716" y="-557.71" font-family="Times New Roman,serif" font-size="12.00">paste[q4_email]</text>
</g>
<!-- &#45;349242997702854405&#45;&gt;5504490665134479466 -->
<g id="edge8" class="edge">
<title>&#45;349242997702854405&#45;&gt;5504490665134479466</title>
<path fill="none" stroke="black" stroke-width="1.17" d="M941.03,-644.42C901.13,-642.85 827.85,-636.23 772,-609.81 760.25,-604.25 749,-595.55 739.72,-587.07"/>
<polygon fill="black" stroke="black" stroke-width="1.17" points="742.38,-584.77 732.74,-580.36 737.52,-589.82 742.38,-584.77"/>
<text text-anchor="middle" x="777.5" y="-600.21" font-family="Times New Roman,serif" font-size="12.00">6s</text>
</g>
<!-- 4004908014844761737 -->
<g id="node28" class="node">
<title>4004908014844761737</title>
<polygon fill="none" stroke="black" points="934,-578.81 826,-578.81 826,-542.81 934,-542.81 934,-578.81"/>
<text text-anchor="middle" x="880" y="-557.71" font-family="Times New Roman,serif" font-size="12.00">paste[q6_studentId]</text>
</g>
<!-- &#45;349242997702854405&#45;&gt;4004908014844761737 -->
<g id="edge9" class="edge">
<title>&#45;349242997702854405&#45;&gt;4004908014844761737</title>
<path fill="none" stroke="black" stroke-width="1.17" d="M951.35,-627.61C938.65,-615.9 921.61,-600.19 907.37,-587.06"/>
<polygon fill="black" stroke="black" stroke-width="1.17" points="909.96,-584.68 900.24,-580.48 905.22,-589.83 909.96,-584.68"/>
<text text-anchor="middle" x="935.5" y="-600.21" font-family="Times New Roman,serif" font-size="12.00">6s</text>
</g>
<!-- 2070911815398967774 -->
<g id="node29" class="node">
<title>2070911815398967774</title>
<polygon fill="none" stroke="black" points="322,-578.81 164,-578.81 164,-542.81 322,-542.81 322,-578.81"/>
<text text-anchor="middle" x="243" y="-557.71" font-family="Times New Roman,serif" font-size="12.00">paste[q7_phoneNumber[area]]</text>
</g>
<!-- &#45;349242997702854405&#45;&gt;2070911815398967774 -->
<g id="edge10" class="edge">
<title>&#45;349242997702854405&#45;&gt;2070911815398967774</title>
<path fill="none" stroke="black" stroke-width="1.17" d="M941.12,-643.64C868.04,-640.45 669.91,-630.46 506,-609.81 431.15,-600.38 410.49,-593.8 333.41,-579.27"/>
<polygon fill="black" stroke="black" stroke-width="1.17" points="334.36,-575.88 323.89,-577.49 333.08,-582.76 334.36,-575.88"/>
<text text-anchor="middle" x="511.5" y="-600.21" font-family="Times New Roman,serif" font-size="12.00">6s</text>
</g>
<!-- 5144228901829614650 -->
<g id="node31" class="node">
<title>5144228901829614650</title>
<polygon fill="none" stroke="black" points="1215.5,-206 1082.5,-206 1082.5,-170 1215.5,-170 1215.5,-206"/>
<text text-anchor="middle" x="1149" y="-184.9" font-family="Times New Roman,serif" font-size="12.00">paste[q9_accountHolder]</text>
</g>
<!-- &#45;349242997702854405&#45;&gt;5144228901829614650 -->
<g id="edge11" class="edge">
<title>&#45;349242997702854405&#45;&gt;5144228901829614650</title>
<path fill="none" stroke="black" stroke-width="1.1" d="M998.76,-644.13C1049.36,-641.24 1149,-627.24 1149,-561.81 1149,-561.81 1149,-561.81 1149,-272 1149,-253.97 1149,-233.74 1149,-217.77"/>
<polygon fill="black" stroke="black" stroke-width="1.1" points="1152.5,-218.16 1149,-208.16 1145.5,-218.16 1152.5,-218.16"/>
<text text-anchor="middle" x="1154.5" y="-430.21" font-family="Times New Roman,serif" font-size="12.00">4s</text>
</g>
<!-- &#45;2337737116181962960 -->
<g id="node5" class="node">
<title>&#45;2337737116181962960</title>
<polygon fill="none" stroke="black" points="603,-206 535,-206 535,-170 603,-170 603,-206"/>
<text text-anchor="middle" x="569" y="-184.9" font-family="Times New Roman,serif" font-size="12.00">copyRange</text>
</g>
<!-- &#45;7686844205181626037 -->
<g id="node27" class="node">
<title>&#45;7686844205181626037</title>
<polygon fill="none" stroke="black" points="647.5,-121 490.5,-121 490.5,-85 647.5,-85 647.5,-121"/>
<text text-anchor="middle" x="569" y="-99.9" font-family="Times New Roman,serif" font-size="12.00">paste[q5_address[addr_line1]]</text>
</g>
<!-- &#45;2337737116181962960&#45;&gt;&#45;7686844205181626037 -->
<g id="edge12" class="edge">
<title>&#45;2337737116181962960&#45;&gt;&#45;7686844205181626037</title>
<path fill="none" stroke="black" stroke-width="1.17" d="M569,-169.8C569,-159.19 569,-145.3 569,-133.02"/>
<polygon fill="black" stroke="black" stroke-width="1.17" points="572.5,-133.24 569,-123.24 565.5,-133.24 572.5,-133.24"/>
<text text-anchor="middle" x="574.5" y="-142.4" font-family="Times New Roman,serif" font-size="12.00">6s</text>
</g>
<!-- &#45;6686815318746011082&#45;&gt;&#45;2342417462293921512 -->
<g id="edge13" class="edge">
<title>&#45;6686815318746011082&#45;&gt;&#45;2342417462293921512</title>
<path fill="none" stroke="black" stroke-width="1.14" d="M384.33,-190.85C295.31,-195.88 98,-213.61 98,-272 98,-646.81 98,-646.81 98,-646.81 98,-666.34 105.99,-686.74 114.1,-702.43"/>
<polygon fill="black" stroke="black" stroke-width="1.14" points="110.91,-703.9 118.81,-710.96 117.04,-700.52 110.91,-703.9"/>
<text text-anchor="middle" x="103.5" y="-472.71" font-family="Times New Roman,serif" font-size="12.00">5s</text>
</g>
<!-- &#45;3417061393049347223 -->
<g id="node7" class="node">
<title>&#45;3417061393049347223</title>
<polygon fill="none" stroke="black" points="1079.5,-493.81 942.5,-493.81 942.5,-457.81 1079.5,-457.81 1079.5,-493.81"/>
<text text-anchor="middle" x="1011" y="-472.71" font-family="Times New Roman,serif" font-size="12.00">editField[q10_bankName]</text>
</g>
<!-- &#45;3417061393049347223&#45;&gt;&#45;349242997702854405 -->
<g id="edge14" class="edge">
<title>&#45;3417061393049347223&#45;&gt;&#45;349242997702854405</title>
<path fill="none" stroke="black" stroke-width="1.14" d="M1000.48,-494.05C993.14,-506.98 983.82,-525.38 979,-542.81 972.34,-566.9 970.28,-595.3 969.78,-616.01"/>
<polygon fill="black" stroke="black" stroke-width="1.14" points="966.28,-615.74 969.66,-625.79 973.28,-615.83 966.28,-615.74"/>
<text text-anchor="middle" x="984.5" y="-557.71" font-family="Times New Roman,serif" font-size="12.00">5s</text>
</g>
<!-- &#45;4003299731570885441 -->
<g id="node8" class="node">
<title>&#45;4003299731570885441</title>
<polygon fill="none" stroke="black" points="1350,-493.81 1190,-493.81 1190,-457.81 1350,-457.81 1350,-493.81"/>
<text text-anchor="middle" x="1270" y="-472.71" font-family="Times New Roman,serif" font-size="12.00">editField[q11_accountNumber]</text>
</g>
<!-- &#45;4003299731570885441&#45;&gt;&#45;349242997702854405 -->
<g id="edge15" class="edge">
<title>&#45;4003299731570885441&#45;&gt;&#45;349242997702854405</title>
<path fill="none" stroke="black" stroke-width="1.14" d="M1250.66,-494.3C1237.09,-507.06 1218.96,-525.15 1205,-542.81 1183.21,-570.38 1192.1,-590.11 1163,-609.81 1138.64,-626.3 1059.27,-636.47 1010.22,-641.35"/>
<polygon fill="black" stroke="black" stroke-width="1.14" points="1010.1,-637.84 1000.47,-642.28 1010.76,-644.81 1010.1,-637.84"/>
<text text-anchor="middle" x="1210.5" y="-557.71" font-family="Times New Roman,serif" font-size="12.00">5s</text>
</g>
<!-- &#45;3774925265531423684 -->
<g id="node9" class="node">
<title>&#45;3774925265531423684</title>
<polygon fill="none" stroke="black" points="586.5,-493.81 381.5,-493.81 381.5,-457.81 586.5,-457.81 586.5,-493.81"/>
<text text-anchor="middle" x="484" y="-472.71" font-family="Times New Roman,serif" font-size="12.00">editField[q12_reimbursementDetails[0][]]</text>
</g>
<!-- &#45;3774925265531423684&#45;&gt;8659733819878033834 -->
<g id="edge16" class="edge">
<title>&#45;3774925265531423684&#45;&gt;8659733819878033834</title>
<path fill="none" stroke="black" stroke-width="1.14" d="M484.87,-457.5C485.6,-442.9 486.67,-421.71 487.54,-404.52"/>
<polygon fill="black" stroke="black" stroke-width="1.14" points="491.03,-404.74 488.04,-394.58 484.04,-404.39 491.03,-404.74"/>
<text text-anchor="middle" x="492.5" y="-430.21" font-family="Times New Roman,serif" font-size="12.00">5s</text>
</g>
<!-- &#45;3774925265531423684&#45;&gt;&#45;349242997702854405 -->
<g id="edge17" class="edge">
<title>&#45;3774925265531423684&#45;&gt;&#45;349242997702854405</title>
<path fill="none" stroke="black" stroke-width="1.14" d="M505.45,-494.09C546.75,-526.96 636.44,-596.46 673,-609.81 719.22,-626.69 859.8,-637.76 929.68,-642.37"/>
<polygon fill="black" stroke="black" stroke-width="1.14" points="929.14,-645.84 939.35,-643 929.59,-638.86 929.14,-645.84"/>
<text text-anchor="middle" x="621.5" y="-557.71" font-family="Times New Roman,serif" font-size="12.00">5s</text>
</g>
<!-- &#45;3774925265531423684&#45;&gt;1955449513403805491 -->
<g id="edge18" class="edge">
<title>&#45;3774925265531423684&#45;&gt;1955449513403805491</title>
<path fill="none" stroke="black" stroke-width="2.25" d="M474.45,-494.26C469.38,-503.42 462.96,-514.79 457,-524.81 455.76,-526.89 454.46,-529.04 453.15,-531.19"/>
<polygon fill="black" stroke="black" stroke-width="2.25" points="450.24,-529.23 447.94,-539.57 456.19,-532.93 450.24,-529.23"/>
<text text-anchor="middle" x="472.5" y="-515.21" font-family="Times New Roman,serif" font-size="12.00">37s</text>
</g>
<!-- 5148547196844223595 -->
<g id="node10" class="node">
<title>5148547196844223595</title>
<polygon fill="none" stroke="black" points="1547.5,-493.81 1418.5,-493.81 1418.5,-457.81 1547.5,-457.81 1547.5,-493.81"/>
<text text-anchor="middle" x="1483" y="-472.71" font-family="Times New Roman,serif" font-size="12.00">editField[q3_name[first]]</text>
</g>
<!-- &#45;4040636298552314058 -->
<g id="node25" class="node">
<title>&#45;4040636298552314058</title>
<polygon fill="none" stroke="black" points="1551.5,-392.41 1438.5,-392.41 1438.5,-356.41 1551.5,-356.41 1551.5,-392.41"/>
<text text-anchor="middle" x="1495" y="-371.31" font-family="Times New Roman,serif" font-size="12.00">paste[q3_name[last]]</text>
</g>
<!-- 5148547196844223595&#45;&gt;&#45;4040636298552314058 -->
<g id="edge19" class="edge">
<title>5148547196844223595&#45;&gt;&#45;4040636298552314058</title>
<path fill="none" stroke="black" stroke-width="1.17" d="M1485.09,-457.5C1486.85,-442.9 1489.41,-421.71 1491.49,-404.52"/>
<polygon fill="black" stroke="black" stroke-width="1.17" points="1494.96,-404.97 1492.68,-394.62 1488.01,-404.13 1494.96,-404.97"/>
<text text-anchor="middle" x="1493.5" y="-430.21" font-family="Times New Roman,serif" font-size="12.00">6s</text>
</g>
<!-- 3768362607462934485 -->
<g id="node11" class="node">
<title>3768362607462934485</title>
<polygon fill="none" stroke="black" points="1589,-291 1461,-291 1461,-255 1589,-255 1589,-291"/>
<text text-anchor="middle" x="1525" y="-269.9" font-family="Times New Roman,serif" font-size="12.00">editField[q3_name[last]]</text>
</g>
<!-- 3768362607462934485&#45;&gt;&#45;349242997702854405 -->
<g id="edge20" class="edge">
<title>3768362607462934485&#45;&gt;&#45;349242997702854405</title>
<path fill="none" stroke="black" stroke-width="1.17" d="M1543.02,-291.21C1560.37,-309.72 1584,-340.89 1584,-373.41 1584,-561.81 1584,-561.81 1584,-561.81 1584,-619.89 1146.96,-639.05 1010.32,-643.62"/>
<polygon fill="black" stroke="black" stroke-width="1.17" points="1010.45,-640.11 1000.57,-643.94 1010.68,-647.11 1010.45,-640.11"/>
<text text-anchor="middle" x="1589.5" y="-472.71" font-family="Times New Roman,serif" font-size="12.00">6s</text>
</g>
<!-- &#45;6653035453324865092 -->
<g id="node12" class="node">
<title>&#45;6653035453324865092</title>
<polygon fill="none" stroke="black" points="711,-493.81 607,-493.81 607,-457.81 711,-457.81 711,-493.81"/>
<text text-anchor="middle" x="659" y="-472.71" font-family="Times New Roman,serif" font-size="12.00">editField[q4_email]</text>
</g>
<!-- &#45;6653035453324865092&#45;&gt;&#45;349242997702854405 -->
<g id="edge21" class="edge">
<title>&#45;6653035453324865092&#45;&gt;&#45;349242997702854405</title>
<path fill="none" stroke="black" stroke-width="1.17" d="M651.58,-494.19C643.5,-516.11 633.97,-553.96 652,-578.81 684.28,-623.31 851.88,-638.31 929.93,-642.93"/>
<polygon fill="black" stroke="black" stroke-width="1.17" points="929.25,-646.4 939.43,-643.47 929.65,-639.41 929.25,-646.4"/>
<text text-anchor="middle" x="657.5" y="-557.71" font-family="Times New Roman,serif" font-size="12.00">6s</text>
</g>
<!-- 6507740163502519239 -->
<g id="node13" class="node">
<title>6507740163502519239</title>
<polygon fill="none" stroke="black" points="655,-36 483,-36 483,0 655,0 655,-36"/>
<text text-anchor="middle" x="569" y="-14.9" font-family="Times New Roman,serif" font-size="12.00">editField[q5_address[addr_line1]]</text>
</g>
<!-- 6507740163502519239&#45;&gt;&#45;8421013627638508074 -->
<g id="edge22" class="edge">
<title>6507740163502519239&#45;&gt;&#45;8421013627638508074</title>
<path fill="none" stroke="black" stroke-width="1.03" d="M482.57,-22.99C324.75,-31.45 6,-54.42 6,-102 6,-731.81 6,-731.81 6,-731.81 6,-752.69 17.27,-773.23 28.65,-788.65"/>
<polygon fill="black" stroke="black" stroke-width="1.03" points="25.75,-790.63 34.68,-796.33 31.25,-786.3 25.75,-790.63"/>
<text text-anchor="middle" x="11.5" y="-430.21" font-family="Times New Roman,serif" font-size="12.00">2s</text>
</g>
<!-- 6507740163502519239&#45;&gt;&#45;349242997702854405 -->
<g id="edge23" class="edge">
<title>6507740163502519239&#45;&gt;&#45;349242997702854405</title>
<path fill="none" stroke="black" stroke-width="1.1" d="M655.25,-21.3C906.98,-28.6 1623,-53.59 1623,-102 1623,-561.81 1623,-561.81 1623,-561.81 1623,-617.61 1561.6,-598.32 1507,-609.81 1412.15,-629.77 1118.25,-640.37 1010.3,-643.67"/>
<polygon fill="black" stroke="black" stroke-width="1.1" points="1010.23,-640.17 1000.34,-643.97 1010.44,-647.17 1010.23,-640.17"/>
<text text-anchor="middle" x="1628.5" y="-312.4" font-family="Times New Roman,serif" font-size="12.00">4s</text>
</g>
<!-- &#45;5763552913299528894 -->
<g id="node14" class="node">
<title>&#45;5763552913299528894</title>
<polygon fill="none" stroke="black" points="853.5,-493.81 730.5,-493.81 730.5,-457.81 853.5,-457.81 853.5,-493.81"/>
<text text-anchor="middle" x="792" y="-472.71" font-family="Times New Roman,serif" font-size="12.00">editField[q6_studentId]</text>
</g>
<!-- &#45;5763552913299528894&#45;&gt;&#45;349242997702854405 -->
<g id="edge24" class="edge">
<title>&#45;5763552913299528894&#45;&gt;&#45;349242997702854405</title>
<path fill="none" stroke="black" stroke-width="1.03" d="M789.5,-493.95C787.28,-515.98 786.87,-554.29 806,-578.81 835.93,-617.2 891.72,-633.35 929.84,-640.09"/>
<polygon fill="black" stroke="black" stroke-width="1.03" points="929.08,-643.51 939.51,-641.64 930.19,-636.6 929.08,-643.51"/>
<text text-anchor="middle" x="811.5" y="-557.71" font-family="Times New Roman,serif" font-size="12.00">2s</text>
</g>
<!-- &#45;5763552913299528894&#45;&gt;&#45;2337737116181962960 -->
<g id="edge25" class="edge">
<title>&#45;5763552913299528894&#45;&gt;&#45;2337737116181962960</title>
<path fill="none" stroke="black" stroke-width="1.03" d="M767.66,-457.42C760.96,-452.12 753.91,-446.04 748,-439.81 678.18,-366.25 613.6,-264.09 584.79,-216.03"/>
<polygon fill="black" stroke="black" stroke-width="1.03" points="587.96,-214.51 579.84,-207.7 581.94,-218.09 587.96,-214.51"/>
<text text-anchor="middle" x="658.5" y="-312.4" font-family="Times New Roman,serif" font-size="12.00">2s</text>
</g>
<!-- 3670417997280707311 -->
<g id="node18" class="node">
<title>3670417997280707311</title>
<polygon fill="none" stroke="black" points="760,-291 706,-291 706,-255 760,-255 760,-291"/>
<text text-anchor="middle" x="733" y="-269.9" font-family="Times New Roman,serif" font-size="12.00">getCell</text>
</g>
<!-- &#45;5763552913299528894&#45;&gt;3670417997280707311 -->
<g id="edge26" class="edge">
<title>&#45;5763552913299528894&#45;&gt;3670417997280707311</title>
<path fill="none" stroke="black" d="M774.74,-457.43C763.57,-445 749.87,-427.27 743,-408.81 730.02,-373.94 729.28,-330.56 730.6,-302.58"/>
<polygon fill="black" stroke="black" points="734.08,-302.95 731.2,-292.76 727.1,-302.53 734.08,-302.95"/>
<text text-anchor="middle" x="748.5" y="-371.31" font-family="Times New Roman,serif" font-size="12.00">1s</text>
</g>
<!-- &#45;5435049042536943609 -->
<g id="node19" class="node">
<title>&#45;5435049042536943609</title>
<polygon fill="none" stroke="black" points="821.5,-392.41 762.5,-392.41 762.5,-356.41 821.5,-356.41 821.5,-392.41"/>
<text text-anchor="middle" x="792" y="-371.31" font-family="Times New Roman,serif" font-size="12.00">getRange</text>
</g>
<!-- &#45;5763552913299528894&#45;&gt;&#45;5435049042536943609 -->
<g id="edge27" class="edge">
<title>&#45;5763552913299528894&#45;&gt;&#45;5435049042536943609</title>
<path fill="none" stroke="black" d="M792,-457.5C792,-442.83 792,-421.51 792,-404.27"/>
<polygon fill="black" stroke="black" points="795.5,-404.37 792,-394.37 788.5,-404.37 795.5,-404.37"/>
<text text-anchor="middle" x="797.5" y="-430.21" font-family="Times New Roman,serif" font-size="12.00">1s</text>
</g>
<!-- 3651796461026563911 -->
<g id="node15" class="node">
<title>3651796461026563911</title>
<polygon fill="none" stroke="black" points="338.5,-493.81 165.5,-493.81 165.5,-457.81 338.5,-457.81 338.5,-493.81"/>
<text text-anchor="middle" x="252" y="-472.71" font-family="Times New Roman,serif" font-size="12.00">editField[q7_phoneNumber[area]]</text>
</g>
<!-- &#45;5108575767407452370 -->
<g id="node30" class="node">
<title>&#45;5108575767407452370</title>
<polygon fill="none" stroke="black" points="332.5,-392.41 165.5,-392.41 165.5,-356.41 332.5,-356.41 332.5,-392.41"/>
<text text-anchor="middle" x="249" y="-371.31" font-family="Times New Roman,serif" font-size="12.00">paste[q7_phoneNumber[phone]]</text>
</g>
<!-- 3651796461026563911&#45;&gt;&#45;5108575767407452370 -->
<g id="edge28" class="edge">
<title>3651796461026563911&#45;&gt;&#45;5108575767407452370</title>
<path fill="none" stroke="black" stroke-width="1.14" d="M251.48,-457.5C251.04,-442.9 250.4,-421.71 249.88,-404.52"/>
<polygon fill="black" stroke="black" stroke-width="1.14" points="253.38,-404.47 249.58,-394.58 246.38,-404.68 253.38,-404.47"/>
<text text-anchor="middle" x="256.5" y="-430.21" font-family="Times New Roman,serif" font-size="12.00">5s</text>
</g>
<!-- @@endnode -->
<g id="node33" class="node">
<title>@@endnode</title>
<ellipse fill="none" stroke="black" cx="385" cy="-374.41" rx="30.32" ry="30.32"/>
<ellipse fill="none" stroke="black" cx="385" cy="-374.41" rx="34.31" ry="34.31"/>
<text text-anchor="start" x="375" y="-366.31" font-family="Times New Roman,serif" font-size="32.00">■</text>
</g>
<!-- 3651796461026563911&#45;&gt;@@endnode -->
<g id="edge50" class="edge">
<title>3651796461026563911&#45;&gt;@@endnode</title>
<path fill="none" stroke="black" d="M275.48,-457.51C293.45,-444.24 318.84,-425.44 341,-408.81 343.59,-406.87 346.26,-404.86 348.95,-402.83"/>
<polygon fill="black" stroke="black" points="350.97,-405.68 356.84,-396.86 346.75,-400.1 350.97,-405.68"/>
<text text-anchor="middle" x="320.5" y="-430.21" font-family="Times New Roman,serif" font-size="12.00">1</text>
</g>
<!-- 357182630398299043 -->
<g id="node16" class="node">
<title>357182630398299043</title>
<polygon fill="none" stroke="black" points="340,-291 158,-291 158,-255 340,-255 340,-291"/>
<text text-anchor="middle" x="249" y="-269.9" font-family="Times New Roman,serif" font-size="12.00">editField[q7_phoneNumber[phone]]</text>
</g>
<!-- 357182630398299043&#45;&gt;&#45;8421013627638508074 -->
<g id="edge29" class="edge">
<title>357182630398299043&#45;&gt;&#45;8421013627638508074</title>
<path fill="none" stroke="black" stroke-width="1.07" d="M198.48,-291.49C173.64,-302.23 144.85,-318.17 125,-340 95.45,-372.49 52,-493.95 52,-517.31 52,-731.81 52,-731.81 52,-731.81 52,-749.84 52,-770.07 52,-786.04"/>
<polygon fill="black" stroke="black" stroke-width="1.07" points="48.5,-785.7 52,-795.7 55.5,-785.7 48.5,-785.7"/>
<text text-anchor="middle" x="57.5" y="-557.71" font-family="Times New Roman,serif" font-size="12.00">3s</text>
</g>
<!-- 357182630398299043&#45;&gt;&#45;2337737116181962960 -->
<g id="edge30" class="edge">
<title>357182630398299043&#45;&gt;&#45;2337737116181962960</title>
<path fill="none" stroke="black" stroke-width="1.03" d="M340.32,-260.93C376.17,-255.42 417.42,-247.61 454,-237 477.71,-230.12 503.13,-219.84 524.03,-210.55"/>
<polygon fill="black" stroke="black" stroke-width="1.03" points="525.42,-213.77 533.08,-206.46 522.53,-207.39 525.42,-213.77"/>
<text text-anchor="middle" x="495.5" y="-227.4" font-family="Times New Roman,serif" font-size="12.00">2s</text>
</g>
<!-- 6997094482055801526 -->
<g id="node17" class="node">
<title>6997094482055801526</title>
<polygon fill="none" stroke="black" points="1397,-121 1249,-121 1249,-85 1397,-85 1397,-121"/>
<text text-anchor="middle" x="1323" y="-99.9" font-family="Times New Roman,serif" font-size="12.00">editField[q9_accountHolder]</text>
</g>
<!-- 6997094482055801526&#45;&gt;&#45;349242997702854405 -->
<g id="edge31" class="edge">
<title>6997094482055801526&#45;&gt;&#45;349242997702854405</title>
<path fill="none" stroke="black" stroke-width="1.14" d="M1348.71,-121.22C1367.61,-136.13 1390,-159.59 1390,-187 1390,-434.31 1390,-434.31 1390,-434.31 1390,-498.72 1420.58,-529.63 1379,-578.81 1332.07,-634.33 1104.25,-643.32 1010.46,-644.65"/>
<polygon fill="black" stroke="black" stroke-width="1.14" points="1010.61,-641.15 1000.65,-644.76 1010.69,-648.15 1010.61,-641.15"/>
<text text-anchor="middle" x="1395.5" y="-371.31" font-family="Times New Roman,serif" font-size="12.00">5s</text>
</g>
<!-- 3670417997280707311&#45;&gt;&#45;2337737116181962960 -->
<g id="edge32" class="edge">
<title>3670417997280707311&#45;&gt;&#45;2337737116181962960</title>
<path fill="none" stroke="black" stroke-width="1.03" d="M705.55,-258.11C680.43,-245.39 642.8,-226.35 613.4,-211.47"/>
<polygon fill="black" stroke="black" stroke-width="1.03" points="615.28,-208.5 604.78,-207.11 612.12,-214.75 615.28,-208.5"/>
<text text-anchor="middle" x="665.5" y="-227.4" font-family="Times New Roman,serif" font-size="12.00">2s</text>
</g>
<!-- 3670417997280707311&#45;&gt;5144228901829614650 -->
<g id="edge33" class="edge">
<title>3670417997280707311&#45;&gt;5144228901829614650</title>
<path fill="none" stroke="black" d="M760.29,-266.55C822.48,-254.15 976.58,-223.4 1071.01,-204.56"/>
<polygon fill="black" stroke="black" points="1071.61,-208.01 1080.74,-202.62 1070.24,-201.14 1071.61,-208.01"/>
<text text-anchor="middle" x="970.5" y="-227.4" font-family="Times New Roman,serif" font-size="12.00">1s</text>
</g>
<!-- &#45;5435049042536943609&#45;&gt;3670417997280707311 -->
<g id="edge34" class="edge">
<title>&#45;5435049042536943609&#45;&gt;3670417997280707311</title>
<path fill="none" stroke="black" d="M781.72,-356.09C772.73,-340.93 759.5,-318.65 749.1,-301.13"/>
<polygon fill="black" stroke="black" points="752.24,-299.56 744.13,-292.75 746.22,-303.14 752.24,-299.56"/>
<text text-anchor="middle" x="765.5" y="-312.4" font-family="Times New Roman,serif" font-size="12.00">1s</text>
</g>
<!-- 6102417127305744981 -->
<g id="node20" class="node">
<title>6102417127305744981</title>
<polygon fill="none" stroke="black" points="1004,-748.81 936,-748.81 936,-712.81 1004,-712.81 1004,-748.81"/>
<text text-anchor="middle" x="970" y="-727.71" font-family="Times New Roman,serif" font-size="12.00">navigate_to</text>
</g>
<!-- 6102417127305744981&#45;&gt;&#45;349242997702854405 -->
<g id="edge35" class="edge">
<title>6102417127305744981&#45;&gt;&#45;349242997702854405</title>
<path fill="none" stroke="black" d="M970,-712.61C970,-701.89 970,-687.83 970,-675.45"/>
<polygon fill="black" stroke="black" points="973.5,-675.79 970,-665.79 966.5,-675.79 973.5,-675.79"/>
<text text-anchor="middle" x="975.5" y="-685.21" font-family="Times New Roman,serif" font-size="12.00">1s</text>
</g>
<!-- 4744432682323570212&#45;&gt;&#45;3417061393049347223 -->
<g id="edge36" class="edge">
<title>4744432682323570212&#45;&gt;&#45;3417061393049347223</title>
<path fill="none" stroke="black" stroke-width="1.14" d="M1049.85,-542.61C1043.32,-531.56 1034.7,-516.95 1027.23,-504.31"/>
<polygon fill="black" stroke="black" stroke-width="1.14" points="1030.28,-502.59 1022.18,-495.76 1024.25,-506.15 1030.28,-502.59"/>
<text text-anchor="middle" x="1043.5" y="-515.21" font-family="Times New Roman,serif" font-size="12.00">5s</text>
</g>
<!-- 4604581665166516345&#45;&gt;&#45;4003299731570885441 -->
<g id="edge37" class="edge">
<title>4604581665166516345&#45;&gt;&#45;4003299731570885441</title>
<path fill="none" stroke="black" stroke-width="1.14" d="M1291.41,-542.61C1287.88,-531.78 1283.25,-517.54 1279.19,-505.07"/>
<polygon fill="black" stroke="black" stroke-width="1.14" points="1282.64,-504.34 1276.21,-495.91 1275.98,-506.5 1282.64,-504.34"/>
<text text-anchor="middle" x="1290.5" y="-515.21" font-family="Times New Roman,serif" font-size="12.00">5s</text>
</g>
<!-- 1955449513403805491&#45;&gt;&#45;3774925265531423684 -->
<g id="edge38" class="edge">
<title>1955449513403805491&#45;&gt;&#45;3774925265531423684</title>
<path fill="none" stroke="black" stroke-width="2.6" d="M431.75,-542.45C430.82,-532.9 431.14,-521.12 436,-511.81 437.53,-508.88 439.43,-506.13 441.58,-503.57"/>
<polygon fill="black" stroke="black" stroke-width="2.6" points="443.87,-506.22 448.7,-496.79 439.05,-501.15 443.87,-506.22"/>
<text text-anchor="middle" x="444.5" y="-515.21" font-family="Times New Roman,serif" font-size="12.00">47s</text>
</g>
<!-- 1955449513403805491&#45;&gt;1955449513403805491 -->
<g id="edge39" class="edge">
<title>1955449513403805491&#45;&gt;1955449513403805491</title>
<path fill="none" stroke="black" d="M530.22,-567.56C541.01,-566.3 548,-564.05 548,-560.81 548,-558.89 545.53,-557.31 541.27,-556.09"/>
<polygon fill="black" stroke="black" points="542.17,-552.69 531.7,-554.33 540.91,-559.58 542.17,-552.69"/>
<text text-anchor="middle" x="553.5" y="-557.71" font-family="Times New Roman,serif" font-size="12.00">1s</text>
</g>
<!-- &#45;802786066028636207&#45;&gt;5148547196844223595 -->
<g id="edge40" class="edge">
<title>&#45;802786066028636207&#45;&gt;5148547196844223595</title>
<path fill="none" stroke="black" stroke-width="1.17" d="M1483,-542.61C1483,-532 1483,-518.12 1483,-505.84"/>
<polygon fill="black" stroke="black" stroke-width="1.17" points="1486.5,-506.05 1483,-496.05 1479.5,-506.05 1486.5,-506.05"/>
<text text-anchor="middle" x="1488.5" y="-515.21" font-family="Times New Roman,serif" font-size="12.00">6s</text>
</g>
<!-- &#45;4040636298552314058&#45;&gt;3768362607462934485 -->
<g id="edge41" class="edge">
<title>&#45;4040636298552314058&#45;&gt;3768362607462934485</title>
<path fill="none" stroke="black" stroke-width="1.17" d="M1500.23,-356.09C1504.67,-341.36 1511.15,-319.9 1516.36,-302.61"/>
<polygon fill="black" stroke="black" stroke-width="1.17" points="1519.68,-303.74 1519.22,-293.15 1512.98,-301.71 1519.68,-303.74"/>
<text text-anchor="middle" x="1518.5" y="-312.4" font-family="Times New Roman,serif" font-size="12.00">6s</text>
</g>
<!-- 5504490665134479466&#45;&gt;&#45;6653035453324865092 -->
<g id="edge42" class="edge">
<title>5504490665134479466&#45;&gt;&#45;6653035453324865092</title>
<path fill="none" stroke="black" stroke-width="1.17" d="M704.19,-542.61C696.52,-531.45 686.37,-516.66 677.62,-503.93"/>
<polygon fill="black" stroke="black" stroke-width="1.17" points="680.54,-502 672,-495.74 674.77,-505.96 680.54,-502"/>
<text text-anchor="middle" x="695.5" y="-515.21" font-family="Times New Roman,serif" font-size="12.00">6s</text>
</g>
<!-- &#45;7686844205181626037&#45;&gt;6507740163502519239 -->
<g id="edge43" class="edge">
<title>&#45;7686844205181626037&#45;&gt;6507740163502519239</title>
<path fill="none" stroke="black" stroke-width="1.17" d="M569,-84.8C569,-74.19 569,-60.3 569,-48.02"/>
<polygon fill="black" stroke="black" stroke-width="1.17" points="572.5,-48.24 569,-38.24 565.5,-48.24 572.5,-48.24"/>
<text text-anchor="middle" x="574.5" y="-57.4" font-family="Times New Roman,serif" font-size="12.00">6s</text>
</g>
<!-- 4004908014844761737&#45;&gt;&#45;5763552913299528894 -->
<g id="edge44" class="edge">
<title>4004908014844761737&#45;&gt;&#45;5763552913299528894</title>
<path fill="none" stroke="black" stroke-width="1.17" d="M861.77,-542.61C849.34,-530.9 832.69,-515.19 818.77,-502.06"/>
<polygon fill="black" stroke="black" stroke-width="1.17" points="821.48,-499.81 811.81,-495.49 816.68,-504.9 821.48,-499.81"/>
<text text-anchor="middle" x="846.5" y="-515.21" font-family="Times New Roman,serif" font-size="12.00">6s</text>
</g>
<!-- 2070911815398967774&#45;&gt;3651796461026563911 -->
<g id="edge45" class="edge">
<title>2070911815398967774&#45;&gt;3651796461026563911</title>
<path fill="none" stroke="black" stroke-width="1.17" d="M244.86,-542.61C246.02,-532 247.52,-518.12 248.85,-505.84"/>
<polygon fill="black" stroke="black" stroke-width="1.17" points="252.32,-506.36 249.92,-496.04 245.36,-505.6 252.32,-506.36"/>
<text text-anchor="middle" x="254.5" y="-515.21" font-family="Times New Roman,serif" font-size="12.00">6s</text>
</g>
<!-- &#45;5108575767407452370&#45;&gt;357182630398299043 -->
<g id="edge46" class="edge">
<title>&#45;5108575767407452370&#45;&gt;357182630398299043</title>
<path fill="none" stroke="black" stroke-width="1.14" d="M249,-356.09C249,-341.5 249,-320.31 249,-303.11"/>
<polygon fill="black" stroke="black" stroke-width="1.14" points="252.5,-303.17 249,-293.17 245.5,-303.17 252.5,-303.17"/>
<text text-anchor="middle" x="254.5" y="-312.4" font-family="Times New Roman,serif" font-size="12.00">5s</text>
</g>
<!-- 5144228901829614650&#45;&gt;6997094482055801526 -->
<g id="edge47" class="edge">
<title>5144228901829614650&#45;&gt;6997094482055801526</title>
<path fill="none" stroke="black" stroke-width="1.14" d="M1185.48,-169.6C1211.81,-157.04 1247.59,-139.97 1276.06,-126.39"/>
<polygon fill="black" stroke="black" stroke-width="1.14" points="1277.5,-129.58 1285.02,-122.12 1274.48,-123.27 1277.5,-129.58"/>
<text text-anchor="middle" x="1251.5" y="-142.4" font-family="Times New Roman,serif" font-size="12.00">5s</text>
</g>
<!-- &#45;2342417462293921512&#45;&gt;&#45;349242997702854405 -->
<g id="edge48" class="edge">
<title>&#45;2342417462293921512&#45;&gt;&#45;349242997702854405</title>
<path fill="none" stroke="black" stroke-width="1.28" d="M177.3,-725.23C325.86,-710.53 788.97,-664.72 929.3,-650.84"/>
<polygon fill="black" stroke="black" stroke-width="1.28" points="929.57,-654.33 939.18,-649.86 928.88,-647.36 929.57,-654.33"/>
<text text-anchor="middle" x="605.5" y="-685.21" font-family="Times New Roman,serif" font-size="12.00">9s</text>
</g>
<!-- &#45;2342417462293921512&#45;&gt;3670417997280707311 -->
<g id="edge49" class="edge">
<title>&#45;2342417462293921512&#45;&gt;3670417997280707311</title>
<path fill="none" stroke="black" d="M129.23,-712.42C122.63,-643.7 102.56,-392.29 156,-340 172.89,-323.47 557.72,-326.09 581,-322 620.81,-315 664.67,-300.36 695.01,-289.08"/>
<polygon fill="black" stroke="black" points="696.01,-292.44 704.12,-285.63 693.53,-285.9 696.01,-292.44"/>
<text text-anchor="middle" x="126.5" y="-515.21" font-family="Times New Roman,serif" font-size="12.00">1s</text>
</g>
</g>
</svg>
