<?xml version="1.0" encoding="UTF-8" standalone="no"?>
<!DOCTYPE svg PUBLIC "-//W3C//DTD SVG 1.1//EN"
 "http://www.w3.org/Graphics/SVG/1.1/DTD/svg11.dtd">
<!-- Generated by graphviz version 8.0.3 (20230416.2022)
 -->
<!-- Pages: 1 -->
<svg width="335pt" height="672pt"
 viewBox="0.00 0.00 334.50 671.81" xmlns="http://www.w3.org/2000/svg" xmlns:xlink="http://www.w3.org/1999/xlink">
<g id="graph0" class="graph" transform="scale(1 1) rotate(0) translate(4 667.81)">
<polygon fill="white" stroke="none" points="-4,4 -4,-667.81 330.5,-667.81 330.5,4 -4,4"/>
<!-- &#45;5165409646973173909 -->
<g id="node1" class="node">
<title>&#45;5165409646973173909</title>
<polygon fill="none" stroke="black" points="167,-663.81 63,-663.81 63,-627.81 167,-627.81 167,-663.81"/>
<text text-anchor="middle" x="115" y="-642.71" font-family="Times New Roman,serif" font-size="12.00">clickButton[button]</text>
</g>
<!-- 8495575819858260259 -->
<g id="node10" class="node">
<title>8495575819858260259</title>
<polygon fill="none" stroke="black" points="219,-578.81 127,-578.81 127,-542.81 219,-542.81 219,-578.81"/>
<text text-anchor="middle" x="173" y="-557.71" font-family="Times New Roman,serif" font-size="12.00">selectWorksheet</text>
</g>
<!-- &#45;5165409646973173909&#45;&gt;8495575819858260259 -->
<g id="edge1" class="edge">
<title>&#45;5165409646973173909&#45;&gt;8495575819858260259</title>
<path fill="none" stroke="black" d="M127.02,-627.61C134.97,-616.23 145.56,-601.07 154.58,-588.18"/>
<polygon fill="black" stroke="black" points="157.94,-590.47 160.8,-580.27 152.2,-586.46 157.94,-590.47"/>
<text text-anchor="middle" x="152.5" y="-600.21" font-family="Times New Roman,serif" font-size="12.00">1s</text>
</g>
<!-- 6717867204866389648 -->
<g id="node2" class="node">
<title>6717867204866389648</title>
<polygon fill="none" stroke="black" points="186,-206 82,-206 82,-170 186,-170 186,-206"/>
<text text-anchor="middle" x="134" y="-184.9" font-family="Times New Roman,serif" font-size="12.00">clickButton[submit]</text>
</g>
<!-- &#45;2593804355222374208 -->
<g id="node3" class="node">
<title>&#45;2593804355222374208</title>
<polygon fill="none" stroke="black" points="254,-121 196,-121 196,-85 254,-85 254,-121"/>
<text text-anchor="middle" x="225" y="-99.9" font-family="Times New Roman,serif" font-size="12.00">clickLink</text>
</g>
<!-- 6717867204866389648&#45;&gt;&#45;2593804355222374208 -->
<g id="edge2" class="edge">
<title>6717867204866389648&#45;&gt;&#45;2593804355222374208</title>
<path fill="none" stroke="black" d="M152.86,-169.8C165.94,-157.86 183.58,-141.78 198.13,-128.5"/>
<polygon fill="black" stroke="black" points="199.83,-131.79 204.86,-122.46 195.11,-126.61 199.83,-131.79"/>
<text text-anchor="middle" x="189.5" y="-142.4" font-family="Times New Roman,serif" font-size="12.00">1s</text>
</g>
<!-- &#45;5679572340445933510 -->
<g id="node6" class="node">
<title>&#45;5679572340445933510</title>
<polygon fill="none" stroke="black" points="326.5,-36 241.5,-36 241.5,0 326.5,0 326.5,-36"/>
<text text-anchor="middle" x="284" y="-14.9" font-family="Times New Roman,serif" font-size="12.00">createNewTab</text>
</g>
<!-- &#45;2593804355222374208&#45;&gt;&#45;5679572340445933510 -->
<g id="edge3" class="edge">
<title>&#45;2593804355222374208&#45;&gt;&#45;5679572340445933510</title>
<path fill="none" stroke="black" d="M237.22,-84.8C245.32,-73.42 256.09,-58.26 265.26,-45.37"/>
<polygon fill="black" stroke="black" points="268.65,-47.64 271.59,-37.46 262.94,-43.58 268.65,-47.64"/>
<text text-anchor="middle" x="263.5" y="-57.4" font-family="Times New Roman,serif" font-size="12.00">1s</text>
</g>
<!-- &#45;6968050114622540068 -->
<g id="node4" class="node">
<title>&#45;6968050114622540068</title>
<polygon fill="none" stroke="black" points="62.5,-493.81 5.5,-493.81 5.5,-457.81 62.5,-457.81 62.5,-493.81"/>
<text text-anchor="middle" x="34" y="-472.71" font-family="Times New Roman,serif" font-size="12.00">copyCell</text>
</g>
<!-- &#45;9028611191506250526 -->
<g id="node9" class="node">
<title>&#45;9028611191506250526</title>
<polygon fill="none" stroke="black" points="199,-408.81 145,-408.81 145,-372.81 199,-372.81 199,-408.81"/>
<text text-anchor="middle" x="172" y="-387.71" font-family="Times New Roman,serif" font-size="12.00">paste</text>
</g>
<!-- &#45;6968050114622540068&#45;&gt;&#45;9028611191506250526 -->
<g id="edge4" class="edge">
<title>&#45;6968050114622540068&#45;&gt;&#45;9028611191506250526</title>
<path fill="none" stroke="black" stroke-width="1.72" d="M62.93,-457.41C83.67,-444.94 111.81,-428.01 134.31,-414.48"/>
<polygon fill="black" stroke="black" stroke-width="1.72" points="135.75,-417.49 142.52,-409.34 132.15,-411.49 135.75,-417.49"/>
<text text-anchor="middle" x="119.5" y="-430.21" font-family="Times New Roman,serif" font-size="12.00">10s</text>
</g>
<!-- &#45;4725831156122046667 -->
<g id="node5" class="node">
<title>&#45;4725831156122046667</title>
<polygon fill="none" stroke="black" points="277,-206 209,-206 209,-170 277,-170 277,-206"/>
<text text-anchor="middle" x="243" y="-184.9" font-family="Times New Roman,serif" font-size="12.00">copyRange</text>
</g>
<!-- &#45;4725831156122046667&#45;&gt;&#45;9028611191506250526 -->
<g id="edge5" class="edge">
<title>&#45;4725831156122046667&#45;&gt;&#45;9028611191506250526</title>
<path fill="none" stroke="black" d="M246.26,-206.49C250.38,-233.08 255.04,-284.74 238,-323.81 230.93,-340.02 217.9,-354.4 205.27,-365.56"/>
<polygon fill="black" stroke="black" points="203.51,-363.31 198.1,-372.43 208.01,-368.68 203.51,-363.31"/>
<text text-anchor="middle" x="255.5" y="-286.31" font-family="Times New Roman,serif" font-size="12.00">1s</text>
</g>
<!-- &#45;5679572340445933510&#45;&gt;8495575819858260259 -->
<g id="edge6" class="edge">
<title>&#45;5679572340445933510&#45;&gt;8495575819858260259</title>
<path fill="none" stroke="black" d="M293.48,-36.24C301.6,-52.64 312,-78.28 312,-102 312,-476.81 312,-476.81 312,-476.81 312,-517.32 267.95,-538.52 229.44,-549.32"/>
<polygon fill="black" stroke="black" points="229.08,-546.06 220.28,-551.97 230.84,-552.83 229.08,-546.06"/>
<text text-anchor="middle" x="317.5" y="-286.31" font-family="Times New Roman,serif" font-size="12.00">1s</text>
</g>
<!-- &#45;802417557823507361 -->
<g id="node7" class="node">
<title>&#45;802417557823507361</title>
<polygon fill="none" stroke="black" points="143,-307.41 87,-307.41 87,-271.41 143,-271.41 143,-307.41"/>
<text text-anchor="middle" x="115" y="-286.31" font-family="Times New Roman,serif" font-size="12.00">editField</text>
</g>
<!-- &#45;802417557823507361&#45;&gt;&#45;5165409646973173909 -->
<g id="edge7" class="edge">
<title>&#45;802417557823507361&#45;&gt;&#45;5165409646973173909</title>
<path fill="none" stroke="black" d="M110.46,-307.87C105.73,-327.61 99,-360.79 99,-389.81 99,-561.81 99,-561.81 99,-561.81 99,-580.53 102.97,-601.2 106.96,-617.23"/>
<polygon fill="black" stroke="black" points="103.74,-617.74 109.67,-626.51 110.5,-615.95 103.74,-617.74"/>
<text text-anchor="middle" x="104.5" y="-472.71" font-family="Times New Roman,serif" font-size="12.00">1s</text>
</g>
<!-- &#45;802417557823507361&#45;&gt;6717867204866389648 -->
<g id="edge8" class="edge">
<title>&#45;802417557823507361&#45;&gt;6717867204866389648</title>
<path fill="none" stroke="black" d="M118.31,-271.09C121.15,-256.21 125.31,-234.48 128.63,-217.12"/>
<polygon fill="black" stroke="black" points="132.22,-217.93 130.66,-207.45 125.35,-216.62 132.22,-217.93"/>
<text text-anchor="middle" x="131.5" y="-227.4" font-family="Times New Roman,serif" font-size="12.00">1s</text>
</g>
<!-- &#45;802417557823507361&#45;&gt;&#45;6968050114622540068 -->
<g id="edge9" class="edge">
<title>&#45;802417557823507361&#45;&gt;&#45;6968050114622540068</title>
<path fill="none" stroke="black" stroke-width="1.48" d="M104,-307.63C97.99,-317.44 90.63,-330.07 85,-341.81 68.14,-376.97 52.7,-419.27 43.33,-446.58"/>
<polygon fill="black" stroke="black" stroke-width="1.48" points="39.47,-445.05 39.58,-455.65 46.1,-447.3 39.47,-445.05"/>
<text text-anchor="middle" x="76.5" y="-387.71" font-family="Times New Roman,serif" font-size="12.00">7s</text>
</g>
<!-- &#45;802417557823507361&#45;&gt;&#45;4725831156122046667 -->
<g id="edge10" class="edge">
<title>&#45;802417557823507361&#45;&gt;&#45;4725831156122046667</title>
<path fill="none" stroke="black" d="M133.48,-271.01C139.3,-265.74 145.81,-260.01 152,-255 170.34,-240.14 191.65,-224.6 209.05,-212.33"/>
<polygon fill="black" stroke="black" points="210.56,-214.83 216.75,-206.23 206.55,-209.1 210.56,-214.83"/>
<text text-anchor="middle" x="196.5" y="-227.4" font-family="Times New Roman,serif" font-size="12.00">1s</text>
</g>
<!-- &#45;802417557823507361&#45;&gt;&#45;9028611191506250526 -->
<g id="edge11" class="edge">
<title>&#45;802417557823507361&#45;&gt;&#45;9028611191506250526</title>
<path fill="none" stroke="black" stroke-width="1.8" d="M117.16,-307.89C119.46,-321.49 124.05,-340.41 133,-354.81 135.02,-358.06 137.42,-361.18 140.03,-364.13"/>
<polygon fill="black" stroke="black" stroke-width="1.8" points="137.77,-366.82 147.3,-371.43 142.72,-361.88 137.77,-366.82"/>
<text text-anchor="middle" x="141.5" y="-345.21" font-family="Times New Roman,serif" font-size="12.00">11s</text>
</g>
<!-- &#45;1527059423402642781 -->
<g id="node8" class="node">
<title>&#45;1527059423402642781</title>
<polygon fill="none" stroke="black" points="68,-578.81 0,-578.81 0,-542.81 68,-542.81 68,-578.81"/>
<text text-anchor="middle" x="34" y="-557.71" font-family="Times New Roman,serif" font-size="12.00">navigate_to</text>
</g>
<!-- &#45;1527059423402642781&#45;&gt;&#45;6968050114622540068 -->
<g id="edge12" class="edge">
<title>&#45;1527059423402642781&#45;&gt;&#45;6968050114622540068</title>
<path fill="none" stroke="black" d="M34,-542.61C34,-531.78 34,-517.54 34,-505.07"/>
<polygon fill="black" stroke="black" points="37.5,-505.27 34,-495.27 30.5,-505.27 37.5,-505.27"/>
<text text-anchor="middle" x="39.5" y="-515.21" font-family="Times New Roman,serif" font-size="12.00">1s</text>
</g>
<!-- &#45;9028611191506250526&#45;&gt;&#45;802417557823507361 -->
<g id="edge13" class="edge">
<title>&#45;9028611191506250526&#45;&gt;&#45;802417557823507361</title>
<path fill="none" stroke="black" stroke-width="2.6" d="M164.94,-372.58C160.92,-363.28 155.59,-351.71 150,-341.81 145.51,-333.85 140.16,-325.53 135.01,-317.97"/>
<polygon fill="black" stroke="black" stroke-width="2.6" points="138.33,-316.74 129.74,-310.55 132.59,-320.75 138.33,-316.74"/>
<text text-anchor="middle" x="164.5" y="-345.21" font-family="Times New Roman,serif" font-size="12.00">21s</text>
</g>
<!-- @@endnode -->
<g id="node11" class="node">
<title>@@endnode</title>
<ellipse fill="none" stroke="black" cx="195" cy="-289.41" rx="30.32" ry="30.32"/>
<ellipse fill="none" stroke="black" cx="195" cy="-289.41" rx="34.31" ry="34.31"/>
<text text-anchor="start" x="185" y="-281.31" font-family="Times New Roman,serif" font-size="32.00">■</text>
</g>
<!-- &#45;9028611191506250526&#45;&gt;@@endnode -->
<g id="edge15" class="edge">
<title>&#45;9028611191506250526&#45;&gt;@@endnode</title>
<path fill="none" stroke="black" d="M182.59,-372.57C185.48,-367.08 188.29,-360.86 190,-354.81 191.83,-348.37 193.07,-341.43 193.91,-334.57"/>
<polygon fill="black" stroke="black" points="197.46,-335.23 194.92,-324.95 190.49,-334.57 197.46,-335.23"/>
<text text-anchor="middle" x="195.5" y="-345.21" font-family="Times New Roman,serif" font-size="12.00">1</text>
</g>
<!-- 8495575819858260259&#45;&gt;&#45;6968050114622540068 -->
<g id="edge14" class="edge">
<title>8495575819858260259&#45;&gt;&#45;6968050114622540068</title>
<path fill="none" stroke="black" stroke-width="1.08" d="M143.86,-542.41C122.96,-529.93 94.62,-513.01 71.95,-499.47"/>
<polygon fill="black" stroke="black" stroke-width="1.08" points="74,-496.03 63.62,-493.9 70.42,-502.04 74,-496.03"/>
<text text-anchor="middle" x="116.5" y="-515.21" font-family="Times New Roman,serif" font-size="12.00">2s</text>
</g>
</g>
</svg>
