<?xml version="1.0" encoding="UTF-8" standalone="no"?>
<!DOCTYPE svg PUBLIC "-//W3C//DTD SVG 1.1//EN"
 "http://www.w3.org/Graphics/SVG/1.1/DTD/svg11.dtd">
<!-- Generated by graphviz version 8.0.3 (20230416.2022)
 -->
<!-- Pages: 1 -->
<svg width="524pt" height="672pt"
 viewBox="0.00 0.00 523.50 671.81" xmlns="http://www.w3.org/2000/svg" xmlns:xlink="http://www.w3.org/1999/xlink">
<g id="graph0" class="graph" transform="scale(1 1) rotate(0) translate(4 667.81)">
<polygon fill="white" stroke="none" points="-4,4 -4,-667.81 519.5,-667.81 519.5,4 -4,4"/>
<!-- &#45;5165409646973173909 -->
<g id="node1" class="node">
<title>&#45;5165409646973173909</title>
<polygon fill="none" stroke="black" points="340,-663.81 236,-663.81 236,-627.81 340,-627.81 340,-663.81"/>
<text text-anchor="middle" x="288" y="-642.71" font-family="Times New Roman,serif" font-size="12.00">clickButton[button]</text>
</g>
<!-- 8495575819858260259 -->
<g id="node12" class="node">
<title>8495575819858260259</title>
<polygon fill="none" stroke="black" points="443,-578.81 351,-578.81 351,-542.81 443,-542.81 443,-578.81"/>
<text text-anchor="middle" x="397" y="-557.71" font-family="Times New Roman,serif" font-size="12.00">selectWorksheet</text>
</g>
<!-- &#45;5165409646973173909&#45;&gt;8495575819858260259 -->
<g id="edge1" class="edge">
<title>&#45;5165409646973173909&#45;&gt;8495575819858260259</title>
<path fill="none" stroke="black" stroke-width="1.06" d="M310.85,-627.41C326.69,-615.35 347.99,-599.13 365.45,-585.84"/>
<polygon fill="black" stroke="black" stroke-width="1.06" points="367.34,-588.03 373.18,-579.19 363.1,-582.46 367.34,-588.03"/>
<text text-anchor="middle" x="354.5" y="-600.21" font-family="Times New Roman,serif" font-size="12.00">5s</text>
</g>
<!-- 6717867204866389648 -->
<g id="node2" class="node">
<title>6717867204866389648</title>
<polygon fill="none" stroke="black" points="422,-222.41 318,-222.41 318,-186.41 422,-186.41 422,-222.41"/>
<text text-anchor="middle" x="370" y="-201.31" font-family="Times New Roman,serif" font-size="12.00">clickButton[submit]</text>
</g>
<!-- &#45;2593804355222374208 -->
<g id="node3" class="node">
<title>&#45;2593804355222374208</title>
<polygon fill="none" stroke="black" points="433,-121 375,-121 375,-85 433,-85 433,-121"/>
<text text-anchor="middle" x="404" y="-99.9" font-family="Times New Roman,serif" font-size="12.00">clickLink</text>
</g>
<!-- 6717867204866389648&#45;&gt;&#45;2593804355222374208 -->
<g id="edge2" class="edge">
<title>6717867204866389648&#45;&gt;&#45;2593804355222374208</title>
<path fill="none" stroke="black" stroke-width="1.06" d="M375.92,-186.09C381.06,-171.07 388.58,-149.07 394.55,-131.62"/>
<polygon fill="black" stroke="black" stroke-width="1.06" points="398.11,-133.04 398.03,-122.45 391.48,-130.78 398.11,-133.04"/>
<text text-anchor="middle" x="396.5" y="-142.4" font-family="Times New Roman,serif" font-size="12.00">5s</text>
</g>
<!-- &#45;5679572340445933510 -->
<g id="node6" class="node">
<title>&#45;5679572340445933510</title>
<polygon fill="none" stroke="black" points="515.5,-36 430.5,-36 430.5,0 515.5,0 515.5,-36"/>
<text text-anchor="middle" x="473" y="-14.9" font-family="Times New Roman,serif" font-size="12.00">createNewTab</text>
</g>
<!-- &#45;2593804355222374208&#45;&gt;&#45;5679572340445933510 -->
<g id="edge3" class="edge">
<title>&#45;2593804355222374208&#45;&gt;&#45;5679572340445933510</title>
<path fill="none" stroke="black" stroke-width="1.06" d="M418.3,-84.8C427.95,-73.2 440.85,-57.67 451.7,-44.62"/>
<polygon fill="black" stroke="black" stroke-width="1.06" points="453.78,-47.39 457.48,-37.46 448.4,-42.91 453.78,-47.39"/>
<text text-anchor="middle" x="447.5" y="-57.4" font-family="Times New Roman,serif" font-size="12.00">5s</text>
</g>
<!-- &#45;6968050114622540068 -->
<g id="node4" class="node">
<title>&#45;6968050114622540068</title>
<polygon fill="none" stroke="black" points="115.5,-493.81 58.5,-493.81 58.5,-457.81 115.5,-457.81 115.5,-493.81"/>
<text text-anchor="middle" x="87" y="-472.71" font-family="Times New Roman,serif" font-size="12.00">copyCell</text>
</g>
<!-- &#45;9028611191506250526 -->
<g id="node11" class="node">
<title>&#45;9028611191506250526</title>
<polygon fill="none" stroke="black" points="114,-408.81 60,-408.81 60,-372.81 114,-372.81 114,-408.81"/>
<text text-anchor="middle" x="87" y="-387.71" font-family="Times New Roman,serif" font-size="12.00">paste</text>
</g>
<!-- &#45;6968050114622540068&#45;&gt;&#45;9028611191506250526 -->
<g id="edge4" class="edge">
<title>&#45;6968050114622540068&#45;&gt;&#45;9028611191506250526</title>
<path fill="none" stroke="black" stroke-width="1.74" d="M87,-457.61C87,-447.11 87,-433.4 87,-421.22"/>
<polygon fill="black" stroke="black" stroke-width="1.74" points="90.5,-421.27 87,-411.27 83.5,-421.27 90.5,-421.27"/>
<text text-anchor="middle" x="95.5" y="-430.21" font-family="Times New Roman,serif" font-size="12.00">48s</text>
</g>
<!-- &#45;4725831156122046667 -->
<g id="node5" class="node">
<title>&#45;4725831156122046667</title>
<polygon fill="none" stroke="black" points="113,-36 45,-36 45,0 113,0 113,-36"/>
<text text-anchor="middle" x="79" y="-14.9" font-family="Times New Roman,serif" font-size="12.00">copyRange</text>
</g>
<!-- &#45;4725831156122046667&#45;&gt;&#45;9028611191506250526 -->
<g id="edge5" class="edge">
<title>&#45;4725831156122046667&#45;&gt;&#45;9028611191506250526</title>
<path fill="none" stroke="black" stroke-width="1.08" d="M46.87,-36.31C25,-50.67 0,-73.35 0,-102 0,-306.81 0,-306.81 0,-306.81 0,-322.15 28.67,-347.23 53.09,-365.81"/>
<polygon fill="black" stroke="black" stroke-width="1.08" points="50.73,-369.16 60.84,-372.33 54.91,-363.55 50.73,-369.16"/>
<text text-anchor="middle" x="5.5" y="-201.31" font-family="Times New Roman,serif" font-size="12.00">6s</text>
</g>
<!-- &#45;5679572340445933510&#45;&gt;8495575819858260259 -->
<g id="edge6" class="edge">
<title>&#45;5679572340445933510&#45;&gt;8495575819858260259</title>
<path fill="none" stroke="black" stroke-width="1.06" d="M480.79,-36.42C487.46,-52.96 496,-78.67 496,-102 496,-476.81 496,-476.81 496,-476.81 496,-503.72 474.26,-523.64 451.15,-537.2"/>
<polygon fill="black" stroke="black" stroke-width="1.06" points="449.66,-534.58 442.58,-542.45 453.03,-540.71 449.66,-534.58"/>
<text text-anchor="middle" x="501.5" y="-302.71" font-family="Times New Roman,serif" font-size="12.00">5s</text>
</g>
<!-- &#45;802417557823507361 -->
<g id="node7" class="node">
<title>&#45;802417557823507361</title>
<polygon fill="none" stroke="black" points="155,-323.81 99,-323.81 99,-287.81 155,-287.81 155,-323.81"/>
<text text-anchor="middle" x="127" y="-302.71" font-family="Times New Roman,serif" font-size="12.00">editField</text>
</g>
<!-- &#45;802417557823507361&#45;&gt;&#45;5165409646973173909 -->
<g id="edge7" class="edge">
<title>&#45;802417557823507361&#45;&gt;&#45;5165409646973173909</title>
<path fill="none" stroke="black" stroke-width="1.06" d="M155.3,-310.2C197.5,-317.02 272,-336.59 272,-389.81 272,-561.81 272,-561.81 272,-561.81 272,-580.53 275.97,-601.2 279.96,-617.23"/>
<polygon fill="black" stroke="black" stroke-width="1.06" points="276.74,-617.74 282.67,-626.51 283.5,-615.95 276.74,-617.74"/>
<text text-anchor="middle" x="277.5" y="-472.71" font-family="Times New Roman,serif" font-size="12.00">5s</text>
</g>
<!-- &#45;802417557823507361&#45;&gt;6717867204866389648 -->
<g id="edge8" class="edge">
<title>&#45;802417557823507361&#45;&gt;6717867204866389648</title>
<path fill="none" stroke="black" stroke-width="1.06" d="M155.28,-296.05C191.53,-284.48 256.01,-262.76 309,-238.81 316.19,-235.56 323.68,-231.8 330.85,-227.99"/>
<polygon fill="black" stroke="black" stroke-width="1.06" points="332.25,-230.67 339.37,-222.82 328.91,-224.52 332.25,-230.67"/>
<text text-anchor="middle" x="269.5" y="-260.21" font-family="Times New Roman,serif" font-size="12.00">5s</text>
</g>
<!-- &#45;802417557823507361&#45;&gt;&#45;6968050114622540068 -->
<g id="edge9" class="edge">
<title>&#45;802417557823507361&#45;&gt;&#45;6968050114622540068</title>
<path fill="none" stroke="black" stroke-width="1.58" d="M98.94,-318.03C76.82,-328.54 47.54,-346.6 34,-372.81 20.6,-398.76 39.84,-428.37 58.78,-448.98"/>
<polygon fill="black" stroke="black" stroke-width="1.58" points="56.58,-451.77 66.06,-456.5 61.6,-446.89 56.58,-451.77"/>
<text text-anchor="middle" x="42.5" y="-387.71" font-family="Times New Roman,serif" font-size="12.00">38s</text>
</g>
<!-- &#45;802417557823507361&#45;&gt;&#45;4725831156122046667 -->
<g id="edge10" class="edge">
<title>&#45;802417557823507361&#45;&gt;&#45;4725831156122046667</title>
<path fill="none" stroke="black" stroke-width="1.05" d="M124.07,-287.36C116.02,-239.41 93.5,-105.33 83.68,-46.86"/>
<polygon fill="black" stroke="black" stroke-width="1.05" points="87,-46.5 81.89,-37.22 80.1,-47.66 87,-46.5"/>
<text text-anchor="middle" x="106.5" y="-142.4" font-family="Times New Roman,serif" font-size="12.00">4s</text>
</g>
<!-- &#45;8379406843200625498 -->
<g id="node8" class="node">
<title>&#45;8379406843200625498</title>
<polygon fill="none" stroke="black" points="161,-121 107,-121 107,-85 161,-85 161,-121"/>
<text text-anchor="middle" x="134" y="-99.9" font-family="Times New Roman,serif" font-size="12.00">getCell</text>
</g>
<!-- &#45;802417557823507361&#45;&gt;&#45;8379406843200625498 -->
<g id="edge11" class="edge">
<title>&#45;802417557823507361&#45;&gt;&#45;8379406843200625498</title>
<path fill="none" stroke="black" d="M127.61,-287.34C128.82,-252.54 131.55,-174.29 133.02,-132.15"/>
<polygon fill="black" stroke="black" points="136.55,-132.4 133.4,-122.29 129.55,-132.16 136.55,-132.4"/>
<text text-anchor="middle" x="137.5" y="-201.31" font-family="Times New Roman,serif" font-size="12.00">1s</text>
</g>
<!-- &#45;3292313364076452391 -->
<g id="node9" class="node">
<title>&#45;3292313364076452391</title>
<polygon fill="none" stroke="black" points="299.5,-222.41 240.5,-222.41 240.5,-186.41 299.5,-186.41 299.5,-222.41"/>
<text text-anchor="middle" x="270" y="-201.31" font-family="Times New Roman,serif" font-size="12.00">getRange</text>
</g>
<!-- &#45;802417557823507361&#45;&gt;&#45;3292313364076452391 -->
<g id="edge12" class="edge">
<title>&#45;802417557823507361&#45;&gt;&#45;3292313364076452391</title>
<path fill="none" stroke="black" d="M155.09,-288.48C176.43,-275.72 206.24,-257.12 231,-238.81 234.89,-235.93 238.89,-232.77 242.78,-229.57"/>
<polygon fill="black" stroke="black" points="244.63,-231.75 250.01,-222.62 240.11,-226.4 244.63,-231.75"/>
<text text-anchor="middle" x="209.5" y="-260.21" font-family="Times New Roman,serif" font-size="12.00">1s</text>
</g>
<!-- &#45;802417557823507361&#45;&gt;&#45;9028611191506250526 -->
<g id="edge13" class="edge">
<title>&#45;802417557823507361&#45;&gt;&#45;9028611191506250526</title>
<path fill="none" stroke="black" stroke-width="1.74" d="M101.75,-323.94C96.23,-329 91.11,-335.03 88,-341.81 85.33,-347.63 84.17,-354.27 83.86,-360.73"/>
<polygon fill="black" stroke="black" stroke-width="1.74" points="80.4,-360.71 84.12,-370.63 87.4,-360.56 80.4,-360.71"/>
<text text-anchor="middle" x="96.5" y="-345.21" font-family="Times New Roman,serif" font-size="12.00">48s</text>
</g>
<!-- @@endnode -->
<g id="node13" class="node">
<title>@@endnode</title>
<ellipse fill="none" stroke="black" cx="188" cy="-204.41" rx="30.32" ry="30.32"/>
<ellipse fill="none" stroke="black" cx="188" cy="-204.41" rx="34.31" ry="34.31"/>
<text text-anchor="start" x="178" y="-196.31" font-family="Times New Roman,serif" font-size="32.00">■</text>
</g>
<!-- &#45;802417557823507361&#45;&gt;@@endnode -->
<g id="edge22" class="edge">
<title>&#45;802417557823507361&#45;&gt;@@endnode</title>
<path fill="none" stroke="black" d="M137.63,-287.5C145.09,-275.33 155.36,-258.59 164.69,-243.4"/>
<polygon fill="black" stroke="black" points="168.09,-245.54 170.34,-235.19 162.12,-241.88 168.09,-245.54"/>
<text text-anchor="middle" x="159.5" y="-260.21" font-family="Times New Roman,serif" font-size="12.00">1</text>
</g>
<!-- &#45;8379406843200625498&#45;&gt;&#45;4725831156122046667 -->
<g id="edge14" class="edge">
<title>&#45;8379406843200625498&#45;&gt;&#45;4725831156122046667</title>
<path fill="none" stroke="black" stroke-width="1.02" d="M122.6,-84.8C115.06,-73.42 105.02,-58.26 96.47,-45.37"/>
<polygon fill="black" stroke="black" stroke-width="1.02" points="99.01,-43.86 90.57,-37.46 93.18,-47.73 99.01,-43.86"/>
<text text-anchor="middle" x="115.5" y="-57.4" font-family="Times New Roman,serif" font-size="12.00">2s</text>
</g>
<!-- &#45;8379406843200625498&#45;&gt;&#45;9028611191506250526 -->
<g id="edge15" class="edge">
<title>&#45;8379406843200625498&#45;&gt;&#45;9028611191506250526</title>
<path fill="none" stroke="black" d="M106.75,-108.78C89.38,-113.38 68.11,-122.23 57,-139 10.88,-208.67 50.02,-313.55 73.06,-362.65"/>
<polygon fill="black" stroke="black" points="70.33,-364.04 77.84,-371.52 76.63,-361 70.33,-364.04"/>
<text text-anchor="middle" x="46.5" y="-260.21" font-family="Times New Roman,serif" font-size="12.00">1s</text>
</g>
<!-- &#45;3292313364076452391&#45;&gt;&#45;8379406843200625498 -->
<g id="edge16" class="edge">
<title>&#45;3292313364076452391&#45;&gt;&#45;8379406843200625498</title>
<path fill="none" stroke="black" d="M250.51,-185.98C244.38,-180.7 237.52,-174.98 231,-170 211.48,-155.08 188.82,-139.56 170.32,-127.33"/>
<polygon fill="black" stroke="black" points="172.61,-123.99 162.33,-121.43 168.77,-129.84 172.61,-123.99"/>
<text text-anchor="middle" x="211.5" y="-142.4" font-family="Times New Roman,serif" font-size="12.00">1s</text>
</g>
<!-- &#45;1527059423402642781 -->
<g id="node10" class="node">
<title>&#45;1527059423402642781</title>
<polygon fill="none" stroke="black" points="121,-578.81 53,-578.81 53,-542.81 121,-542.81 121,-578.81"/>
<text text-anchor="middle" x="87" y="-557.71" font-family="Times New Roman,serif" font-size="12.00">navigate_to</text>
</g>
<!-- &#45;1527059423402642781&#45;&gt;&#45;6968050114622540068 -->
<g id="edge17" class="edge">
<title>&#45;1527059423402642781&#45;&gt;&#45;6968050114622540068</title>
<path fill="none" stroke="black" d="M87,-542.61C87,-531.78 87,-517.54 87,-505.07"/>
<polygon fill="black" stroke="black" points="90.5,-505.27 87,-495.27 83.5,-505.27 90.5,-505.27"/>
<text text-anchor="middle" x="92.5" y="-515.21" font-family="Times New Roman,serif" font-size="12.00">1s</text>
</g>
<!-- &#45;9028611191506250526&#45;&gt;&#45;802417557823507361 -->
<g id="edge18" class="edge">
<title>&#45;9028611191506250526&#45;&gt;&#45;802417557823507361</title>
<path fill="none" stroke="black" stroke-width="2.6" d="M96.13,-372.44C99.02,-366.84 102.19,-360.59 105,-354.81 107.98,-348.68 111.08,-342.06 113.99,-335.76"/>
<polygon fill="black" stroke="black" stroke-width="2.6" points="117.28,-337.78 118.25,-327.23 110.91,-334.88 117.28,-337.78"/>
<text text-anchor="middle" x="118.5" y="-345.21" font-family="Times New Roman,serif" font-size="12.00">1m</text>
</g>
<!-- &#45;9028611191506250526&#45;&gt;&#45;9028611191506250526 -->
<g id="edge19" class="edge">
<title>&#45;9028611191506250526&#45;&gt;&#45;9028611191506250526</title>
<path fill="none" stroke="black" d="M114.24,-398.77C124.02,-398.94 132,-396.29 132,-390.81 132,-387.56 129.19,-385.3 124.86,-384.04"/>
<polygon fill="black" stroke="black" points="125.57,-380.49 115.24,-382.85 124.79,-387.44 125.57,-380.49"/>
<text text-anchor="middle" x="137.5" y="-387.71" font-family="Times New Roman,serif" font-size="12.00">1s</text>
</g>
<!-- 8495575819858260259&#45;&gt;&#45;6968050114622540068 -->
<g id="edge20" class="edge">
<title>8495575819858260259&#45;&gt;&#45;6968050114622540068</title>
<path fill="none" stroke="black" stroke-width="1.13" d="M350.59,-547.39C289.5,-531.03 183.18,-502.56 126.02,-487.26"/>
<polygon fill="black" stroke="black" stroke-width="1.13" points="127.17,-483.68 116.61,-484.47 125.36,-490.44 127.17,-483.68"/>
<text text-anchor="middle" x="265.5" y="-515.21" font-family="Times New Roman,serif" font-size="12.00">9s</text>
</g>
<!-- 8495575819858260259&#45;&gt;&#45;8379406843200625498 -->
<g id="edge21" class="edge">
<title>8495575819858260259&#45;&gt;&#45;8379406843200625498</title>
<path fill="none" stroke="black" d="M416.43,-542.41C431.56,-526.87 450,-502.63 450,-476.81 450,-476.81 450,-476.81 450,-203.41 450,-168.74 436.25,-155.93 406,-139 366.72,-117.03 237.1,-108.42 172.01,-105.42"/>
<polygon fill="black" stroke="black" points="172.53,-101.9 162.39,-104.95 172.22,-108.89 172.53,-101.9"/>
<text text-anchor="middle" x="455.5" y="-345.21" font-family="Times New Roman,serif" font-size="12.00">1s</text>
</g>
</g>
</svg>
