<?xml version="1.0" encoding="UTF-8" standalone="no"?>
<!DOCTYPE svg PUBLIC "-//W3C//DTD SVG 1.1//EN"
 "http://www.w3.org/Graphics/SVG/1.1/DTD/svg11.dtd">
<!-- Generated by graphviz version 7.1.0 (20230121.1956)
 -->
<!-- Pages: 1 -->
<svg width="500pt" height="724pt"
 viewBox="0.00 0.00 499.50 724.00" xmlns="http://www.w3.org/2000/svg" xmlns:xlink="http://www.w3.org/1999/xlink">
<g id="graph0" class="graph" transform="scale(1 1) rotate(0) translate(4 720)">
<polygon fill="white" stroke="none" points="-4,4 -4,-720 495.5,-720 495.5,4 -4,4"/>
<!-- &#45;3336848592720679710 -->
<g id="node1" class="node">
<title>&#45;3336848592720679710</title>
<polygon fill="none" stroke="black" points="138.5,-716 34.5,-716 34.5,-680 138.5,-680 138.5,-716"/>
<text text-anchor="middle" x="86.5" y="-694.9" font-family="Times New Roman,serif" font-size="12.00">clickButton[button]</text>
</g>
<!-- 2596758386380776896 -->
<g id="node12" class="node">
<title>2596758386380776896</title>
<polygon fill="none" stroke="black" points="332.5,-631 240.5,-631 240.5,-595 332.5,-595 332.5,-631"/>
<text text-anchor="middle" x="286.5" y="-609.9" font-family="Times New Roman,serif" font-size="12.00">selectWorksheet</text>
</g>
<!-- &#45;3336848592720679710&#45;&gt;2596758386380776896 -->
<g id="edge1" class="edge">
<title>&#45;3336848592720679710&#45;&gt;2596758386380776896</title>
<path fill="none" stroke="black" stroke-width="1.08" d="M128.43,-679.6C159.23,-666.82 201.28,-649.37 234.26,-635.68"/>
<polygon fill="black" stroke="black" stroke-width="1.08" points="235.22,-639.07 243.12,-632 232.54,-632.6 235.22,-639.07"/>
<text text-anchor="middle" x="207" y="-652.4" font-family="Times New Roman,serif" font-size="12.00">50s</text>
</g>
<!-- 503300689236521834 -->
<g id="node2" class="node">
<title>503300689236521834</title>
<polygon fill="none" stroke="black" points="158.5,-206 54.5,-206 54.5,-170 158.5,-170 158.5,-206"/>
<text text-anchor="middle" x="106.5" y="-184.9" font-family="Times New Roman,serif" font-size="12.00">clickButton[submit]</text>
</g>
<!-- &#45;2755269916068589953 -->
<g id="node3" class="node">
<title>&#45;2755269916068589953</title>
<polygon fill="none" stroke="black" points="123.5,-121 65.5,-121 65.5,-85 123.5,-85 123.5,-121"/>
<text text-anchor="middle" x="94.5" y="-99.9" font-family="Times New Roman,serif" font-size="12.00">clickLink</text>
</g>
<!-- 503300689236521834&#45;&gt;&#45;2755269916068589953 -->
<g id="edge2" class="edge">
<title>503300689236521834&#45;&gt;&#45;2755269916068589953</title>
<path fill="none" stroke="black" stroke-width="1.08" d="M104.01,-169.8C102.46,-159.08 100.43,-145.01 98.64,-132.64"/>
<polygon fill="black" stroke="black" stroke-width="1.08" points="102.15,-132.48 97.26,-123.08 95.23,-133.48 102.15,-132.48"/>
<text text-anchor="middle" x="110" y="-142.4" font-family="Times New Roman,serif" font-size="12.00">49s</text>
</g>
<!-- &#45;7860315867249386849 -->
<g id="node6" class="node">
<title>&#45;7860315867249386849</title>
<polygon fill="none" stroke="black" points="85,-36 0,-36 0,0 85,0 85,-36"/>
<text text-anchor="middle" x="42.5" y="-14.9" font-family="Times New Roman,serif" font-size="12.00">createNewTab</text>
</g>
<!-- &#45;2755269916068589953&#45;&gt;&#45;7860315867249386849 -->
<g id="edge3" class="edge">
<title>&#45;2755269916068589953&#45;&gt;&#45;7860315867249386849</title>
<path fill="none" stroke="black" stroke-width="1.08" d="M83.73,-84.8C76.73,-73.64 67.47,-58.85 59.49,-46.12"/>
<polygon fill="black" stroke="black" stroke-width="1.08" points="62.58,-44.46 54.31,-37.85 56.65,-48.18 62.58,-44.46"/>
<text text-anchor="middle" x="81" y="-57.4" font-family="Times New Roman,serif" font-size="12.00">49s</text>
</g>
<!-- 5877703987427300333 -->
<g id="node4" class="node">
<title>5877703987427300333</title>
<polygon fill="none" stroke="black" points="315,-546 258,-546 258,-510 315,-510 315,-546"/>
<text text-anchor="middle" x="286.5" y="-524.9" font-family="Times New Roman,serif" font-size="12.00">copyCell</text>
</g>
<!-- 5877703987427300333&#45;&gt;5877703987427300333 -->
<g id="edge4" class="edge">
<title>5877703987427300333&#45;&gt;5877703987427300333</title>
<path fill="none" stroke="black" d="M315.11,-535.97C325.01,-536.05 333,-533.4 333,-528 333,-524.97 330.47,-522.8 326.5,-521.5"/>
<polygon fill="black" stroke="black" points="326.97,-518.03 316.61,-520.23 326.08,-524.97 326.97,-518.03"/>
<text text-anchor="middle" x="338.5" y="-524.9" font-family="Times New Roman,serif" font-size="12.00">1s</text>
</g>
<!-- 3414690424431770216 -->
<g id="node5" class="node">
<title>3414690424431770216</title>
<polygon fill="none" stroke="black" points="250.5,-461 182.5,-461 182.5,-425 250.5,-425 250.5,-461"/>
<text text-anchor="middle" x="216.5" y="-439.9" font-family="Times New Roman,serif" font-size="12.00">copyRange</text>
</g>
<!-- 5877703987427300333&#45;&gt;3414690424431770216 -->
<g id="edge5" class="edge">
<title>5877703987427300333&#45;&gt;3414690424431770216</title>
<path fill="none" stroke="black" d="M272,-509.8C262.3,-498.31 249.36,-482.97 238.42,-469.99"/>
<polygon fill="black" stroke="black" points="241.32,-468.01 232.2,-462.62 235.97,-472.52 241.32,-468.01"/>
<text text-anchor="middle" x="261" y="-482.4" font-family="Times New Roman,serif" font-size="12.00">1s</text>
</g>
<!-- &#45;704262173171981897 -->
<g id="node8" class="node">
<title>&#45;704262173171981897</title>
<polygon fill="none" stroke="black" points="376.5,-121 322.5,-121 322.5,-85 376.5,-85 376.5,-121"/>
<text text-anchor="middle" x="349.5" y="-99.9" font-family="Times New Roman,serif" font-size="12.00">getCell</text>
</g>
<!-- 5877703987427300333&#45;&gt;&#45;704262173171981897 -->
<g id="edge6" class="edge">
<title>5877703987427300333&#45;&gt;&#45;704262173171981897</title>
<path fill="none" stroke="black" d="M315.44,-517.3C345.29,-505.25 387.5,-481.56 387.5,-444 387.5,-444 387.5,-444 387.5,-187 387.5,-166.98 378.25,-146.51 368.87,-130.9"/>
<polygon fill="black" stroke="black" points="371.95,-129.21 363.61,-122.68 366.05,-132.99 371.95,-129.21"/>
<text text-anchor="middle" x="393" y="-312.4" font-family="Times New Roman,serif" font-size="12.00">1s</text>
</g>
<!-- 7878301864155605602 -->
<g id="node11" class="node">
<title>7878301864155605602</title>
<polygon fill="none" stroke="black" points="254.5,-376 200.5,-376 200.5,-340 254.5,-340 254.5,-376"/>
<text text-anchor="middle" x="227.5" y="-354.9" font-family="Times New Roman,serif" font-size="12.00">paste</text>
</g>
<!-- 5877703987427300333&#45;&gt;7878301864155605602 -->
<g id="edge7" class="edge">
<title>5877703987427300333&#45;&gt;7878301864155605602</title>
<path fill="none" stroke="black" stroke-width="1.75" d="M282.99,-509.72C278.58,-489.18 270.26,-454.03 259.5,-425 254.8,-412.33 248.5,-398.82 242.73,-387.35"/>
<polygon fill="black" stroke="black" stroke-width="1.75" points="245.91,-385.88 238.21,-378.6 239.69,-389.09 245.91,-385.88"/>
<text text-anchor="middle" x="278" y="-439.9" font-family="Times New Roman,serif" font-size="12.00">7m</text>
</g>
<!-- 3414690424431770216&#45;&gt;7878301864155605602 -->
<g id="edge8" class="edge">
<title>3414690424431770216&#45;&gt;7878301864155605602</title>
<path fill="none" stroke="black" stroke-width="1.08" d="M218.78,-424.8C220.2,-414.08 222.06,-400.01 223.7,-387.64"/>
<polygon fill="black" stroke="black" stroke-width="1.08" points="227.13,-388.46 224.97,-378.09 220.19,-387.54 227.13,-388.46"/>
<text text-anchor="middle" x="231" y="-397.4" font-family="Times New Roman,serif" font-size="12.00">50s</text>
</g>
<!-- &#45;7860315867249386849&#45;&gt;2596758386380776896 -->
<g id="edge9" class="edge">
<title>&#45;7860315867249386849&#45;&gt;2596758386380776896</title>
<path fill="none" stroke="black" stroke-width="1.08" d="M40.24,-36.34C36.44,-69.76 30.57,-145.14 45.5,-206 84.8,-366.15 211.16,-525.32 263.48,-586.15"/>
<polygon fill="black" stroke="black" stroke-width="1.08" points="260.66,-588.23 269.86,-593.49 265.94,-583.64 260.66,-588.23"/>
<text text-anchor="middle" x="96" y="-312.4" font-family="Times New Roman,serif" font-size="12.00">49s</text>
</g>
<!-- &#45;978248745488886672 -->
<g id="node7" class="node">
<title>&#45;978248745488886672</title>
<polygon fill="none" stroke="black" points="223.5,-291 167.5,-291 167.5,-255 223.5,-255 223.5,-291"/>
<text text-anchor="middle" x="195.5" y="-269.9" font-family="Times New Roman,serif" font-size="12.00">editField</text>
</g>
<!-- &#45;978248745488886672&#45;&gt;&#45;3336848592720679710 -->
<g id="edge10" class="edge">
<title>&#45;978248745488886672&#45;&gt;&#45;3336848592720679710</title>
<path fill="none" stroke="black" stroke-width="1.08" d="M167.04,-275.65C142.01,-278.61 106.26,-286.76 84.5,-309 68.96,-324.88 70.5,-334.78 70.5,-357 70.5,-614 70.5,-614 70.5,-614 70.5,-632.36 74.32,-652.6 78.23,-668.49"/>
<polygon fill="black" stroke="black" stroke-width="1.08" points="74.83,-669.33 80.76,-678.11 81.6,-667.55 74.83,-669.33"/>
<text text-anchor="middle" x="79" y="-482.4" font-family="Times New Roman,serif" font-size="12.00">50s</text>
</g>
<!-- &#45;978248745488886672&#45;&gt;503300689236521834 -->
<g id="edge11" class="edge">
<title>&#45;978248745488886672&#45;&gt;503300689236521834</title>
<path fill="none" stroke="black" stroke-width="1.08" d="M177.06,-254.8C164.49,-243.08 147.65,-227.38 133.57,-214.24"/>
<polygon fill="black" stroke="black" stroke-width="1.08" points="136.12,-211.84 126.42,-207.58 131.35,-216.96 136.12,-211.84"/>
<text text-anchor="middle" x="165" y="-227.4" font-family="Times New Roman,serif" font-size="12.00">49s</text>
</g>
<!-- &#45;978248745488886672&#45;&gt;5877703987427300333 -->
<g id="edge12" class="edge">
<title>&#45;978248745488886672&#45;&gt;5877703987427300333</title>
<path fill="none" stroke="black" stroke-width="1.59" d="M223.98,-288.02C257.74,-306.67 311.23,-343.29 325.5,-394 335.76,-430.48 318.64,-472.42 303.94,-499.29"/>
<polygon fill="black" stroke="black" stroke-width="1.59" points="301.03,-497.32 299.07,-507.74 307.09,-500.82 301.03,-497.32"/>
<text text-anchor="middle" x="335" y="-397.4" font-family="Times New Roman,serif" font-size="12.00">5m</text>
</g>
<!-- &#45;978248745488886672&#45;&gt;3414690424431770216 -->
<g id="edge13" class="edge">
<title>&#45;978248745488886672&#45;&gt;3414690424431770216</title>
<path fill="none" stroke="black" stroke-width="1.08" d="M186.91,-291.17C177.85,-311.61 165.96,-346.66 174.5,-376 178.58,-390.02 186.64,-403.9 194.62,-415.29"/>
<polygon fill="black" stroke="black" stroke-width="1.08" points="191.78,-417.34 200.54,-423.29 197.41,-413.17 191.78,-417.34"/>
<text text-anchor="middle" x="183" y="-354.9" font-family="Times New Roman,serif" font-size="12.00">46s</text>
</g>
<!-- &#45;978248745488886672&#45;&gt;&#45;978248745488886672 -->
<g id="edge14" class="edge">
<title>&#45;978248745488886672&#45;&gt;&#45;978248745488886672</title>
<path fill="none" stroke="black" d="M223.8,-280.97C233.59,-281.05 241.5,-278.4 241.5,-273 241.5,-269.97 239,-267.8 235.07,-266.5"/>
<polygon fill="black" stroke="black" points="235.67,-263.04 225.3,-265.23 234.77,-269.99 235.67,-263.04"/>
<text text-anchor="middle" x="247" y="-269.9" font-family="Times New Roman,serif" font-size="12.00">1s</text>
</g>
<!-- &#45;978248745488886672&#45;&gt;&#45;704262173171981897 -->
<g id="edge15" class="edge">
<title>&#45;978248745488886672&#45;&gt;&#45;704262173171981897</title>
<path fill="none" stroke="black" d="M192.17,-254.74C188.97,-232.93 186.89,-195.21 204.5,-170 229.05,-134.86 277.02,-118.08 311.05,-110.31"/>
<polygon fill="black" stroke="black" points="311.46,-113.8 320.52,-108.31 310.02,-106.95 311.46,-113.8"/>
<text text-anchor="middle" x="210" y="-184.9" font-family="Times New Roman,serif" font-size="12.00">2s</text>
</g>
<!-- 4457952589368479655 -->
<g id="node9" class="node">
<title>4457952589368479655</title>
<polygon fill="none" stroke="black" points="283,-206 224,-206 224,-170 283,-170 283,-206"/>
<text text-anchor="middle" x="253.5" y="-184.9" font-family="Times New Roman,serif" font-size="12.00">getRange</text>
</g>
<!-- &#45;978248745488886672&#45;&gt;4457952589368479655 -->
<g id="edge16" class="edge">
<title>&#45;978248745488886672&#45;&gt;4457952589368479655</title>
<path fill="none" stroke="black" d="M207.52,-254.8C215.4,-243.53 225.86,-228.56 234.81,-215.74"/>
<polygon fill="black" stroke="black" points="237.57,-217.9 240.43,-207.7 231.83,-213.89 237.57,-217.9"/>
<text text-anchor="middle" x="233" y="-227.4" font-family="Times New Roman,serif" font-size="12.00">1s</text>
</g>
<!-- &#45;978248745488886672&#45;&gt;7878301864155605602 -->
<g id="edge17" class="edge">
<title>&#45;978248745488886672&#45;&gt;7878301864155605602</title>
<path fill="none" stroke="black" stroke-width="1.76" d="M193.52,-291.45C193.12,-300.81 193.71,-312.38 197.5,-322 198.52,-324.6 199.83,-327.15 201.32,-329.6"/>
<polygon fill="black" stroke="black" stroke-width="1.76" points="198.4,-331.54 207.14,-337.52 204.04,-327.39 198.4,-331.54"/>
<text text-anchor="middle" x="205" y="-312.4" font-family="Times New Roman,serif" font-size="12.00">7m</text>
</g>
<!-- &#45;704262173171981897&#45;&gt;3414690424431770216 -->
<g id="edge18" class="edge">
<title>&#45;704262173171981897&#45;&gt;3414690424431770216</title>
<path fill="none" stroke="black" d="M349.59,-121.27C349.07,-166.4 342.84,-290.3 292.5,-376 282.92,-392.32 267.84,-406.64 253.64,-417.73"/>
<polygon fill="black" stroke="black" points="251.64,-414.86 245.71,-423.64 255.82,-420.47 251.64,-414.86"/>
<text text-anchor="middle" x="341" y="-269.9" font-family="Times New Roman,serif" font-size="12.00">3s</text>
</g>
<!-- &#45;704262173171981897&#45;&gt;7878301864155605602 -->
<g id="edge19" class="edge">
<title>&#45;704262173171981897&#45;&gt;7878301864155605602</title>
<path fill="none" stroke="black" d="M341.58,-121.37C326.4,-154.53 292.03,-229.04 261.5,-291 255.22,-303.75 248.04,-317.76 241.91,-329.58"/>
<polygon fill="black" stroke="black" points="238.84,-327.89 237.32,-338.37 245.05,-331.12 238.84,-327.89"/>
<text text-anchor="middle" x="299" y="-227.4" font-family="Times New Roman,serif" font-size="12.00">2s</text>
</g>
<!-- &#45;704262173171981897&#45;&gt;2596758386380776896 -->
<g id="edge20" class="edge">
<title>&#45;704262173171981897&#45;&gt;2596758386380776896</title>
<path fill="none" stroke="black" d="M376.96,-108.72C415.38,-117.07 480.5,-138.4 480.5,-187 480.5,-529 480.5,-529 480.5,-529 480.5,-588.81 401.61,-606.09 344.44,-610.76"/>
<polygon fill="black" stroke="black" points="344.21,-607.27 334.48,-611.45 344.7,-614.25 344.21,-607.27"/>
<text text-anchor="middle" x="486" y="-354.9" font-family="Times New Roman,serif" font-size="12.00">1s</text>
</g>
<!-- 4457952589368479655&#45;&gt;&#45;704262173171981897 -->
<g id="edge21" class="edge">
<title>4457952589368479655&#45;&gt;&#45;704262173171981897</title>
<path fill="none" stroke="black" d="M262.82,-169.53C268.67,-159.71 276.92,-147.71 286.5,-139 294.1,-132.09 303.31,-126.01 312.31,-120.94"/>
<polygon fill="black" stroke="black" points="313.75,-124.14 320.94,-116.37 310.47,-117.96 313.75,-124.14"/>
<text text-anchor="middle" x="292" y="-142.4" font-family="Times New Roman,serif" font-size="12.00">1s</text>
</g>
<!-- 28518070049343587 -->
<g id="node10" class="node">
<title>28518070049343587</title>
<polygon fill="none" stroke="black" points="166.5,-631 98.5,-631 98.5,-595 166.5,-595 166.5,-631"/>
<text text-anchor="middle" x="132.5" y="-609.9" font-family="Times New Roman,serif" font-size="12.00">navigate_to</text>
</g>
<!-- 28518070049343587&#45;&gt;5877703987427300333 -->
<g id="edge22" class="edge">
<title>28518070049343587&#45;&gt;5877703987427300333</title>
<path fill="none" stroke="black" d="M164.78,-594.6C188.89,-581.61 221.95,-563.79 247.53,-550"/>
<polygon fill="black" stroke="black" points="249.16,-553.1 256.3,-545.28 245.84,-546.94 249.16,-553.1"/>
<text text-anchor="middle" x="224" y="-567.4" font-family="Times New Roman,serif" font-size="12.00">1s</text>
</g>
<!-- 7878301864155605602&#45;&gt;&#45;978248745488886672 -->
<g id="edge23" class="edge">
<title>7878301864155605602&#45;&gt;&#45;978248745488886672</title>
<path fill="none" stroke="black" stroke-width="2.6" d="M222.83,-339.9C220.13,-330.64 216.49,-319.06 212.5,-309 211.81,-307.25 211.06,-305.46 210.28,-303.67"/>
<polygon fill="black" stroke="black" stroke-width="2.6" points="213.54,-302.38 206.15,-294.79 207.2,-305.33 213.54,-302.38"/>
<text text-anchor="middle" x="227" y="-312.4" font-family="Times New Roman,serif" font-size="12.00">15m</text>
</g>
<!-- 7878301864155605602&#45;&gt;7878301864155605602 -->
<g id="edge24" class="edge">
<title>7878301864155605602&#45;&gt;7878301864155605602</title>
<path fill="none" stroke="black" d="M254.74,-365.96C264.52,-366.13 272.5,-363.48 272.5,-358 272.5,-354.92 269.98,-352.73 266.03,-351.44"/>
<polygon fill="black" stroke="black" points="266.6,-347.98 256.25,-350.23 265.74,-354.93 266.6,-347.98"/>
<text text-anchor="middle" x="278" y="-354.9" font-family="Times New Roman,serif" font-size="12.00">3s</text>
</g>
<!-- 2596758386380776896&#45;&gt;5877703987427300333 -->
<g id="edge25" class="edge">
<title>2596758386380776896&#45;&gt;5877703987427300333</title>
<path fill="none" stroke="black" stroke-width="1.16" d="M286.5,-594.8C286.5,-584.19 286.5,-570.3 286.5,-558.02"/>
<polygon fill="black" stroke="black" stroke-width="1.16" points="290,-558.22 286.5,-548.22 283,-558.22 290,-558.22"/>
<text text-anchor="middle" x="294" y="-567.4" font-family="Times New Roman,serif" font-size="12.00">1m</text>
</g>
<!-- 2596758386380776896&#45;&gt;&#45;704262173171981897 -->
<g id="edge26" class="edge">
<title>2596758386380776896&#45;&gt;&#45;704262173171981897</title>
<path fill="none" stroke="black" d="M332.61,-605.6C375.72,-596.72 433.5,-576.04 433.5,-529 433.5,-529 433.5,-529 433.5,-187 433.5,-158.6 408.91,-136.64 386.34,-122.46"/>
<polygon fill="black" stroke="black" points="388.24,-119.51 377.85,-117.45 384.68,-125.54 388.24,-119.51"/>
<text text-anchor="middle" x="439" y="-354.9" font-family="Times New Roman,serif" font-size="12.00">2s</text>
</g>
<!-- 2596758386380776896&#45;&gt;2596758386380776896 -->
<g id="edge27" class="edge">
<title>2596758386380776896&#45;&gt;2596758386380776896</title>
<path fill="none" stroke="black" d="M332.81,-620.75C343.05,-620.03 350.5,-617.44 350.5,-613 350.5,-610.43 348.01,-608.49 343.93,-607.16"/>
<polygon fill="black" stroke="black" points="344.76,-603.75 334.31,-605.5 343.57,-610.65 344.76,-603.75"/>
<text text-anchor="middle" x="356" y="-609.9" font-family="Times New Roman,serif" font-size="12.00">3s</text>
</g>
</g>
</svg>
